<svg xmlns="http://www.w3.org/2000/svg" width="128" height="128" viewBox="0 0 128 128">
  <rect width="128" height="128" rx="16" fill="#1a1a2e"/>
  <!-- Gebäude-Silhouette -->
  <rect x="20" y="60" width="35" height="52" fill="#4a9eff" opacity="0.9"/>
  <rect x="58" y="40" width="50" height="72" fill="#6ab4ff" opacity="0.9"/>
  <!-- Fenster -->
  <rect x="27" y="68" width="8" height="8" fill="#fff" opacity="0.7"/>
  <rect x="40" y="68" width="8" height="8" fill="#fff" opacity="0.7"/>
  <rect x="27" y="82" width="8" height="8" fill="#fff" opacity="0.7"/>
  <rect x="40" y="82" width="8" height="8" fill="#fff" opacity="0.7"/>
  <rect x="65" y="50" width="10" height="10" fill="#fff" opacity="0.7"/>
  <rect x="80" y="50" width="10" height="10" fill="#fff" opacity="0.7"/>
  <rect x="95" y="50" width="10" height="10" fill="#fff" opacity="0.7"/>
  <rect x="65" y="66" width="10" height="10" fill="#fff" opacity="0.7"/>
  <rect x="80" y="66" width="10" height="10" fill="#fff" opacity="0.7"/>
  <rect x="95" y="66" width="10" height="10" fill="#fff" opacity="0.7"/>
  <!-- VR Brille Hint -->
  <ellipse cx="64" cy="22" rx="28" ry="12" fill="none" stroke="#ff6b35" stroke-width="3"/>
  <ellipse cx="50" cy="22" rx="10" ry="7" fill="#ff6b35" opacity="0.4"/>
  <ellipse cx="78" cy="22" rx="10" ry="7" fill="#ff6b35" opacity="0.4"/>
  <!-- Boden -->
  <rect x="10" y="112" width="108" height="4" rx="2" fill="#4a9eff" opacity="0.5"/>
</svg>
