{
	"asset":{
		"generator":"Khronos glTF Blender I/O v5.1.18",
		"version":"2.0"
	},
	"scene":0,
	"scenes":[
		{
			"name":"Scene",
			"nodes":[
				0,
				1,
				2,
				3,
				4
			]
		}
	],
	"nodes":[
		{
			"mesh":0,
			"name":"Bike.004",
			"rotation":[
				-0.4981306493282318,
				-0.5018628835678101,
				-0.5018624663352966,
				0.49813029170036316
			],
			"scale":[
				0.859726071357727,
				0.859726071357727,
				0.8597258925437927
			],
			"translation":[
				29.15030860900879,
				-0.5249999165534973,
				-10.216176986694336
			]
		},
		{
			"mesh":1,
			"name":"Fahrradschuppen.001",
			"scale":[
				1,
				0.8548278212547302,
				2.1818184852600098
			],
			"translation":[
				29.409048080444336,
				-0.5249993205070496,
				-10.692939758300781
			]
		},
		{
			"mesh":2,
			"name":"Bike.005",
			"rotation":[
				-0.4981306493282318,
				-0.5018628835678101,
				-0.5018624663352966,
				0.49813029170036316
			],
			"scale":[
				0.859726071357727,
				0.859726071357727,
				0.8597258925437927
			],
			"translation":[
				29.20918083190918,
				-0.5249983668327332,
				-8.267826080322266
			]
		},
		{
			"mesh":3,
			"name":"Bike.006",
			"rotation":[
				-0.4981306493282318,
				-0.5018628835678101,
				-0.5018624663352966,
				0.49813029170036316
			],
			"scale":[
				0.859726071357727,
				0.859726071357727,
				0.8597258925437927
			],
			"translation":[
				29.258451461791992,
				-0.5249968767166138,
				-6.311750888824463
			]
		},
		{
			"mesh":4,
			"name":"Fahrradschuppen.002",
			"scale":[
				1,
				0.9097757935523987,
				0.9176630973815918
			],
			"translation":[
				28.80904769897461,
				-0.5249993205070496,
				-10.7228364944458
			]
		}
	],
	"materials":[
		{
			"doubleSided":true,
			"name":"BlackSmooth.007",
			"pbrMetallicRoughness":{
				"baseColorFactor":[
					0.0065982760861516,
					0.0065982760861516,
					0.0065982760861516,
					1
				],
				"metallicFactor":0.19648241996765137,
				"roughnessFactor":0
			}
		},
		{
			"doubleSided":true,
			"name":"BlackRough.007",
			"pbrMetallicRoughness":{
				"baseColorFactor":[
					0.005572829861193895,
					0.005572829861193895,
					0.005572829861193895,
					1
				],
				"metallicFactor":0,
				"roughnessFactor":0.5670458674430847
			}
		},
		{
			"doubleSided":true,
			"name":"GreyPlastic.007",
			"pbrMetallicRoughness":{
				"baseColorFactor":[
					0.008959033526480198,
					0.008959033526480198,
					0.008959033526480198,
					1
				],
				"metallicFactor":0,
				"roughnessFactor":0.4351503849029541
			}
		},
		{
			"doubleSided":true,
			"name":"MetalWhite",
			"pbrMetallicRoughness":{
				"baseColorFactor":[
					0.07787817716598511,
					0.07787817716598511,
					0.07787817716598511,
					1
				],
				"metallicFactor":0.260606050491333,
				"roughnessFactor":0.5638610124588013
			}
		},
		{
			"doubleSided":true,
			"name":"AussenMetall",
			"pbrMetallicRoughness":{
				"baseColorFactor":[
					0.03954596072435379,
					0.04817187413573265,
					0.05448030307888985,
					1
				],
				"roughnessFactor":0.654285728931427
			}
		},
		{
			"doubleSided":true,
			"name":"BlackSmooth.003",
			"pbrMetallicRoughness":{
				"baseColorFactor":[
					0.0065982760861516,
					0.0065982760861516,
					0.0065982760861516,
					1
				],
				"metallicFactor":0.19648241996765137,
				"roughnessFactor":0
			}
		},
		{
			"doubleSided":true,
			"name":"BlackRough.003",
			"pbrMetallicRoughness":{
				"baseColorFactor":[
					0.005572829861193895,
					0.005572829861193895,
					0.005572829861193895,
					1
				],
				"metallicFactor":0,
				"roughnessFactor":0.5670458674430847
			}
		},
		{
			"doubleSided":true,
			"name":"GreyPlastic.003",
			"pbrMetallicRoughness":{
				"baseColorFactor":[
					0.008959033526480198,
					0.008959033526480198,
					0.008959033526480198,
					1
				],
				"metallicFactor":0,
				"roughnessFactor":0.4351503849029541
			}
		},
		{
			"doubleSided":true,
			"name":"MetalWhite.004",
			"pbrMetallicRoughness":{
				"baseColorFactor":[
					0.07787817716598511,
					0.07787817716598511,
					0.07787817716598511,
					1
				],
				"metallicFactor":0.260606050491333,
				"roughnessFactor":0.5638610124588013
			}
		},
		{
			"doubleSided":true,
			"name":"BlackSmooth.004",
			"pbrMetallicRoughness":{
				"baseColorFactor":[
					0.0065982760861516,
					0.0065982760861516,
					0.0065982760861516,
					1
				],
				"metallicFactor":0.19648241996765137,
				"roughnessFactor":0
			}
		},
		{
			"doubleSided":true,
			"name":"BlackRough.004",
			"pbrMetallicRoughness":{
				"baseColorFactor":[
					0.005572829861193895,
					0.005572829861193895,
					0.005572829861193895,
					1
				],
				"metallicFactor":0,
				"roughnessFactor":0.5670458674430847
			}
		},
		{
			"doubleSided":true,
			"name":"GreyPlastic.004",
			"pbrMetallicRoughness":{
				"baseColorFactor":[
					0.008959033526480198,
					0.008959033526480198,
					0.008959033526480198,
					1
				],
				"metallicFactor":0,
				"roughnessFactor":0.4351503849029541
			}
		},
		{
			"doubleSided":true,
			"name":"MetalWhite.008",
			"pbrMetallicRoughness":{
				"baseColorFactor":[
					0.07787817716598511,
					0.07787817716598511,
					0.07787817716598511,
					1
				],
				"metallicFactor":0.260606050491333,
				"roughnessFactor":0.5638610124588013
			}
		},
		{
			"doubleSided":true,
			"name":"AussenMetall.007",
			"pbrMetallicRoughness":{
				"baseColorFactor":[
					0.03954596072435379,
					0.04817187413573265,
					0.05448030307888985,
					1
				],
				"metallicFactor":0.6571428775787354,
				"roughnessFactor":0.654285728931427
			}
		}
	],
	"meshes":[
		{
			"name":"Object_0.001",
			"primitives":[
				{
					"attributes":{
						"POSITION":0,
						"NORMAL":1,
						"TEXCOORD_0":2
					},
					"indices":3,
					"material":0
				},
				{
					"attributes":{
						"POSITION":4,
						"NORMAL":5,
						"TEXCOORD_0":6
					},
					"indices":7,
					"material":1
				},
				{
					"attributes":{
						"POSITION":8,
						"NORMAL":9,
						"TEXCOORD_0":10
					},
					"indices":11,
					"material":2
				},
				{
					"attributes":{
						"POSITION":12,
						"NORMAL":13,
						"TEXCOORD_0":14
					},
					"indices":15,
					"material":3
				}
			]
		},
		{
			"name":"Cube.136",
			"primitives":[
				{
					"attributes":{
						"POSITION":16,
						"NORMAL":17,
						"TEXCOORD_0":18
					},
					"indices":19,
					"material":4
				}
			]
		},
		{
			"name":"Object_0.002",
			"primitives":[
				{
					"attributes":{
						"POSITION":20,
						"NORMAL":21,
						"TEXCOORD_0":22
					},
					"indices":3,
					"material":5
				},
				{
					"attributes":{
						"POSITION":23,
						"NORMAL":24,
						"TEXCOORD_0":25
					},
					"indices":7,
					"material":6
				},
				{
					"attributes":{
						"POSITION":26,
						"NORMAL":27,
						"TEXCOORD_0":28
					},
					"indices":11,
					"material":7
				},
				{
					"attributes":{
						"POSITION":29,
						"NORMAL":30,
						"TEXCOORD_0":31
					},
					"indices":15,
					"material":8
				}
			]
		},
		{
			"name":"Object_0.003",
			"primitives":[
				{
					"attributes":{
						"POSITION":32,
						"NORMAL":33,
						"TEXCOORD_0":34
					},
					"indices":3,
					"material":9
				},
				{
					"attributes":{
						"POSITION":35,
						"NORMAL":36,
						"TEXCOORD_0":37
					},
					"indices":7,
					"material":10
				},
				{
					"attributes":{
						"POSITION":38,
						"NORMAL":39,
						"TEXCOORD_0":40
					},
					"indices":11,
					"material":11
				},
				{
					"attributes":{
						"POSITION":41,
						"NORMAL":42,
						"TEXCOORD_0":43
					},
					"indices":15,
					"material":12
				}
			]
		},
		{
			"name":"Cube.139",
			"primitives":[
				{
					"attributes":{
						"POSITION":44,
						"NORMAL":45,
						"TEXCOORD_0":46
					},
					"indices":47,
					"material":13
				}
			]
		}
	],
	"accessors":[
		{
			"bufferView":0,
			"componentType":5126,
			"count":23255,
			"max":[
				0.6749669909477234,
				0.24116000533103943,
				1.3275150060653687
			],
			"min":[
				-0.7643870115280151,
				-0.24116000533103943,
				0.2598329782485962
			],
			"type":"VEC3"
		},
		{
			"bufferView":1,
			"componentType":5126,
			"count":23255,
			"type":"VEC3"
		},
		{
			"bufferView":2,
			"componentType":5126,
			"count":23255,
			"type":"VEC2"
		},
		{
			"bufferView":3,
			"componentType":5123,
			"count":69534,
			"type":"SCALAR"
		},
		{
			"bufferView":4,
			"componentType":5126,
			"count":3624,
			"max":[
				1.0839760303497314,
				0.3848629891872406,
				1.179265022277832
			],
			"min":[
				-1.1510599851608276,
				-0.3848629891872406,
				0.02302197739481926
			],
			"type":"VEC3"
		},
		{
			"bufferView":5,
			"componentType":5126,
			"count":3624,
			"type":"VEC3"
		},
		{
			"bufferView":6,
			"componentType":5126,
			"count":3624,
			"type":"VEC2"
		},
		{
			"bufferView":7,
			"componentType":5123,
			"count":11100,
			"type":"SCALAR"
		},
		{
			"bufferView":8,
			"componentType":5126,
			"count":4519,
			"max":[
				1.1139919757843018,
				0.4467490017414093,
				1.356755018234253
			],
			"min":[
				-1.1810760498046875,
				-0.4467490017414093,
				-0.00699502183124423
			],
			"type":"VEC3"
		},
		{
			"bufferView":9,
			"componentType":5126,
			"count":4519,
			"type":"VEC3"
		},
		{
			"bufferView":10,
			"componentType":5126,
			"count":4519,
			"type":"VEC2"
		},
		{
			"bufferView":11,
			"componentType":5123,
			"count":18396,
			"type":"SCALAR"
		},
		{
			"bufferView":12,
			"componentType":5126,
			"count":4274,
			"max":[
				1.037564992904663,
				0.03620700165629387,
				0.8435059785842896
			],
			"min":[
				-1.1046489477157593,
				-0.03479500114917755,
				0.06943197548389435
			],
			"type":"VEC3"
		},
		{
			"bufferView":13,
			"componentType":5126,
			"count":4274,
			"type":"VEC3"
		},
		{
			"bufferView":14,
			"componentType":5126,
			"count":4274,
			"type":"VEC2"
		},
		{
			"bufferView":15,
			"componentType":5123,
			"count":10389,
			"type":"SCALAR"
		},
		{
			"bufferView":16,
			"componentType":5126,
			"count":4,
			"max":[
				-9.967374126063078e-07,
				1.419460415840149,
				2.750000476837158
			],
			"min":[
				-0.6000009179115295,
				1.3910356760025024,
				6.544512416439829e-07
			],
			"type":"VEC3"
		},
		{
			"bufferView":17,
			"componentType":5126,
			"count":4,
			"type":"VEC3"
		},
		{
			"bufferView":18,
			"componentType":5126,
			"count":4,
			"type":"VEC2"
		},
		{
			"bufferView":19,
			"componentType":5123,
			"count":6,
			"type":"SCALAR"
		},
		{
			"bufferView":20,
			"componentType":5126,
			"count":23255,
			"max":[
				0.6749669909477234,
				0.24116000533103943,
				1.3275150060653687
			],
			"min":[
				-0.7643870115280151,
				-0.24116000533103943,
				0.2598329782485962
			],
			"type":"VEC3"
		},
		{
			"bufferView":21,
			"componentType":5126,
			"count":23255,
			"type":"VEC3"
		},
		{
			"bufferView":22,
			"componentType":5126,
			"count":23255,
			"type":"VEC2"
		},
		{
			"bufferView":23,
			"componentType":5126,
			"count":3624,
			"max":[
				1.0839760303497314,
				0.3848629891872406,
				1.179265022277832
			],
			"min":[
				-1.1510599851608276,
				-0.3848629891872406,
				0.02302197739481926
			],
			"type":"VEC3"
		},
		{
			"bufferView":24,
			"componentType":5126,
			"count":3624,
			"type":"VEC3"
		},
		{
			"bufferView":25,
			"componentType":5126,
			"count":3624,
			"type":"VEC2"
		},
		{
			"bufferView":26,
			"componentType":5126,
			"count":4519,
			"max":[
				1.1139919757843018,
				0.4467490017414093,
				1.356755018234253
			],
			"min":[
				-1.1810760498046875,
				-0.4467490017414093,
				-0.00699502183124423
			],
			"type":"VEC3"
		},
		{
			"bufferView":27,
			"componentType":5126,
			"count":4519,
			"type":"VEC3"
		},
		{
			"bufferView":28,
			"componentType":5126,
			"count":4519,
			"type":"VEC2"
		},
		{
			"bufferView":29,
			"componentType":5126,
			"count":4274,
			"max":[
				1.037564992904663,
				0.03620700165629387,
				0.8435059785842896
			],
			"min":[
				-1.1046489477157593,
				-0.03479500114917755,
				0.06943197548389435
			],
			"type":"VEC3"
		},
		{
			"bufferView":30,
			"componentType":5126,
			"count":4274,
			"type":"VEC3"
		},
		{
			"bufferView":31,
			"componentType":5126,
			"count":4274,
			"type":"VEC2"
		},
		{
			"bufferView":32,
			"componentType":5126,
			"count":23255,
			"max":[
				0.6749669909477234,
				0.24116000533103943,
				1.3275150060653687
			],
			"min":[
				-0.7643870115280151,
				-0.24116000533103943,
				0.2598329782485962
			],
			"type":"VEC3"
		},
		{
			"bufferView":33,
			"componentType":5126,
			"count":23255,
			"type":"VEC3"
		},
		{
			"bufferView":34,
			"componentType":5126,
			"count":23255,
			"type":"VEC2"
		},
		{
			"bufferView":35,
			"componentType":5126,
			"count":3624,
			"max":[
				1.0839760303497314,
				0.3848629891872406,
				1.179265022277832
			],
			"min":[
				-1.1510599851608276,
				-0.3848629891872406,
				0.02302197739481926
			],
			"type":"VEC3"
		},
		{
			"bufferView":36,
			"componentType":5126,
			"count":3624,
			"type":"VEC3"
		},
		{
			"bufferView":37,
			"componentType":5126,
			"count":3624,
			"type":"VEC2"
		},
		{
			"bufferView":38,
			"componentType":5126,
			"count":4519,
			"max":[
				1.1139919757843018,
				0.4467490017414093,
				1.356755018234253
			],
			"min":[
				-1.1810760498046875,
				-0.4467490017414093,
				-0.00699502183124423
			],
			"type":"VEC3"
		},
		{
			"bufferView":39,
			"componentType":5126,
			"count":4519,
			"type":"VEC3"
		},
		{
			"bufferView":40,
			"componentType":5126,
			"count":4519,
			"type":"VEC2"
		},
		{
			"bufferView":41,
			"componentType":5126,
			"count":4274,
			"max":[
				1.037564992904663,
				0.03620700165629387,
				0.8435059785842896
			],
			"min":[
				-1.1046489477157593,
				-0.03479500114917755,
				0.06943197548389435
			],
			"type":"VEC3"
		},
		{
			"bufferView":42,
			"componentType":5126,
			"count":4274,
			"type":"VEC3"
		},
		{
			"bufferView":43,
			"componentType":5126,
			"count":4274,
			"type":"VEC2"
		},
		{
			"bufferView":44,
			"componentType":5126,
			"count":128,
			"max":[
				0.6141406297683716,
				1.3333327770233154,
				6.558347225189209
			],
			"min":[
				-0.0006272665923461318,
				0,
				-0.019999999552965164
			],
			"type":"VEC3"
		},
		{
			"bufferView":45,
			"componentType":5126,
			"count":128,
			"type":"VEC3"
		},
		{
			"bufferView":46,
			"componentType":5126,
			"count":128,
			"type":"VEC2"
		},
		{
			"bufferView":47,
			"componentType":5123,
			"count":192,
			"type":"SCALAR"
		}
	],
	"bufferViews":[
		{
			"buffer":0,
			"byteLength":279060,
			"byteOffset":0,
			"target":34962
		},
		{
			"buffer":0,
			"byteLength":279060,
			"byteOffset":279060,
			"target":34962
		},
		{
			"buffer":0,
			"byteLength":186040,
			"byteOffset":558120,
			"target":34962
		},
		{
			"buffer":0,
			"byteLength":139068,
			"byteOffset":744160,
			"target":34963
		},
		{
			"buffer":0,
			"byteLength":43488,
			"byteOffset":883228,
			"target":34962
		},
		{
			"buffer":0,
			"byteLength":43488,
			"byteOffset":926716,
			"target":34962
		},
		{
			"buffer":0,
			"byteLength":28992,
			"byteOffset":970204,
			"target":34962
		},
		{
			"buffer":0,
			"byteLength":22200,
			"byteOffset":999196,
			"target":34963
		},
		{
			"buffer":0,
			"byteLength":54228,
			"byteOffset":1021396,
			"target":34962
		},
		{
			"buffer":0,
			"byteLength":54228,
			"byteOffset":1075624,
			"target":34962
		},
		{
			"buffer":0,
			"byteLength":36152,
			"byteOffset":1129852,
			"target":34962
		},
		{
			"buffer":0,
			"byteLength":36792,
			"byteOffset":1166004,
			"target":34963
		},
		{
			"buffer":0,
			"byteLength":51288,
			"byteOffset":1202796,
			"target":34962
		},
		{
			"buffer":0,
			"byteLength":51288,
			"byteOffset":1254084,
			"target":34962
		},
		{
			"buffer":0,
			"byteLength":34192,
			"byteOffset":1305372,
			"target":34962
		},
		{
			"buffer":0,
			"byteLength":20778,
			"byteOffset":1339564,
			"target":34963
		},
		{
			"buffer":0,
			"byteLength":48,
			"byteOffset":1360344,
			"target":34962
		},
		{
			"buffer":0,
			"byteLength":48,
			"byteOffset":1360392,
			"target":34962
		},
		{
			"buffer":0,
			"byteLength":32,
			"byteOffset":1360440,
			"target":34962
		},
		{
			"buffer":0,
			"byteLength":12,
			"byteOffset":1360472,
			"target":34963
		},
		{
			"buffer":0,
			"byteLength":279060,
			"byteOffset":1360484,
			"target":34962
		},
		{
			"buffer":0,
			"byteLength":279060,
			"byteOffset":1639544,
			"target":34962
		},
		{
			"buffer":0,
			"byteLength":186040,
			"byteOffset":1918604,
			"target":34962
		},
		{
			"buffer":0,
			"byteLength":43488,
			"byteOffset":2104644,
			"target":34962
		},
		{
			"buffer":0,
			"byteLength":43488,
			"byteOffset":2148132,
			"target":34962
		},
		{
			"buffer":0,
			"byteLength":28992,
			"byteOffset":2191620,
			"target":34962
		},
		{
			"buffer":0,
			"byteLength":54228,
			"byteOffset":2220612,
			"target":34962
		},
		{
			"buffer":0,
			"byteLength":54228,
			"byteOffset":2274840,
			"target":34962
		},
		{
			"buffer":0,
			"byteLength":36152,
			"byteOffset":2329068,
			"target":34962
		},
		{
			"buffer":0,
			"byteLength":51288,
			"byteOffset":2365220,
			"target":34962
		},
		{
			"buffer":0,
			"byteLength":51288,
			"byteOffset":2416508,
			"target":34962
		},
		{
			"buffer":0,
			"byteLength":34192,
			"byteOffset":2467796,
			"target":34962
		},
		{
			"buffer":0,
			"byteLength":279060,
			"byteOffset":2501988,
			"target":34962
		},
		{
			"buffer":0,
			"byteLength":279060,
			"byteOffset":2781048,
			"target":34962
		},
		{
			"buffer":0,
			"byteLength":186040,
			"byteOffset":3060108,
			"target":34962
		},
		{
			"buffer":0,
			"byteLength":43488,
			"byteOffset":3246148,
			"target":34962
		},
		{
			"buffer":0,
			"byteLength":43488,
			"byteOffset":3289636,
			"target":34962
		},
		{
			"buffer":0,
			"byteLength":28992,
			"byteOffset":3333124,
			"target":34962
		},
		{
			"buffer":0,
			"byteLength":54228,
			"byteOffset":3362116,
			"target":34962
		},
		{
			"buffer":0,
			"byteLength":54228,
			"byteOffset":3416344,
			"target":34962
		},
		{
			"buffer":0,
			"byteLength":36152,
			"byteOffset":3470572,
			"target":34962
		},
		{
			"buffer":0,
			"byteLength":51288,
			"byteOffset":3506724,
			"target":34962
		},
		{
			"buffer":0,
			"byteLength":51288,
			"byteOffset":3558012,
			"target":34962
		},
		{
			"buffer":0,
			"byteLength":34192,
			"byteOffset":3609300,
			"target":34962
		},
		{
			"buffer":0,
			"byteLength":1536,
			"byteOffset":3643492,
			"target":34962
		},
		{
			"buffer":0,
			"byteLength":1536,
			"byteOffset":3645028,
			"target":34962
		},
		{
			"buffer":0,
			"byteLength":1024,
			"byteOffset":3646564,
			"target":34962
		},
		{
			"buffer":0,
			"byteLength":384,
			"byteOffset":3647588,
			"target":34963
		}
	],
	"buffers":[
		{
			"byteLength":3647972,
			"uri":"Bike1.bin"
		}
	]
}
