{
	"asset":{
		"generator":"Khronos glTF Blender I/O v5.1.18",
		"version":"2.0"
	},
	"scene":0,
	"scenes":[
		{
			"name":"Scene",
			"nodes":[
				0,
				1,
				2,
				3
			]
		}
	],
	"nodes":[
		{
			"mesh":0,
			"name":"Book.Cube.004",
			"rotation":[
				0,
				-0.7071068286895752,
				0,
				0.7071068286895752
			],
			"scale":[
				1.0450472831726074,
				1.0450472831726074,
				1.0450471639633179
			],
			"translation":[
				21.705936431884766,
				4.243374347686768,
				-16.3887939453125
			]
		},
		{
			"mesh":1,
			"name":"Book.Cube.005",
			"rotation":[
				0,
				-0.7071068286895752,
				0,
				0.7071068286895752
			],
			"scale":[
				1.0450472831726074,
				1.0450472831726074,
				1.0450471639633179
			],
			"translation":[
				21.705936431884766,
				4.589659690856934,
				-16.3887939453125
			]
		},
		{
			"mesh":2,
			"name":"Book.Cube.006",
			"rotation":[
				0,
				-0.7071068286895752,
				0,
				0.7071068286895752
			],
			"scale":[
				1.0450472831726074,
				1.0450472831726074,
				1.0450471639633179
			],
			"translation":[
				21.705936431884766,
				4.9151611328125,
				-16.3887939453125
			]
		},
		{
			"mesh":3,
			"name":"Book.Cube.007",
			"rotation":[
				0,
				-0.7071068286895752,
				0,
				0.7071068286895752
			],
			"scale":[
				1.0450472831726074,
				1.0450472831726074,
				1.0450471639633179
			],
			"translation":[
				21.705936431884766,
				5.272284984588623,
				-16.3887939453125
			]
		}
	],
	"materials":[
		{
			"doubleSided":true,
			"name":"book cover",
			"pbrMetallicRoughness":{
				"metallicFactor":0
			}
		},
		{
			"doubleSided":true,
			"name":"stacked paper",
			"pbrMetallicRoughness":{
				"metallicFactor":0,
				"roughnessFactor":0.7583333253860474
			}
		},
		{
			"doubleSided":true,
			"name":"book cover.001",
			"pbrMetallicRoughness":{
				"metallicFactor":0
			}
		},
		{
			"doubleSided":true,
			"name":"stacked paper.001",
			"pbrMetallicRoughness":{
				"metallicFactor":0,
				"roughnessFactor":0.7583333253860474
			}
		},
		{
			"doubleSided":true,
			"name":"book cover.002",
			"pbrMetallicRoughness":{
				"metallicFactor":0
			}
		},
		{
			"doubleSided":true,
			"name":"stacked paper.002",
			"pbrMetallicRoughness":{
				"metallicFactor":0,
				"roughnessFactor":0.7583333253860474
			}
		},
		{
			"doubleSided":true,
			"name":"book cover.003",
			"pbrMetallicRoughness":{
				"metallicFactor":0
			}
		},
		{
			"doubleSided":true,
			"name":"stacked paper.003",
			"pbrMetallicRoughness":{
				"metallicFactor":0,
				"roughnessFactor":0.7583333253860474
			}
		}
	],
	"meshes":[
		{
			"name":"Cube.801",
			"primitives":[
				{
					"attributes":{
						"POSITION":0,
						"NORMAL":1,
						"TEXCOORD_0":2,
						"COLOR_0":3,
						"COLOR_1":4
					},
					"indices":5,
					"material":0
				},
				{
					"attributes":{
						"POSITION":6,
						"NORMAL":7,
						"TEXCOORD_0":8,
						"COLOR_0":9,
						"COLOR_1":10
					},
					"indices":11,
					"material":1
				}
			]
		},
		{
			"name":"Cube.802",
			"primitives":[
				{
					"attributes":{
						"POSITION":12,
						"NORMAL":13,
						"TEXCOORD_0":14,
						"COLOR_0":15,
						"COLOR_1":16
					},
					"indices":5,
					"material":2
				},
				{
					"attributes":{
						"POSITION":17,
						"NORMAL":18,
						"TEXCOORD_0":19,
						"COLOR_0":20,
						"COLOR_1":21
					},
					"indices":11,
					"material":3
				}
			]
		},
		{
			"name":"Cube.803",
			"primitives":[
				{
					"attributes":{
						"POSITION":22,
						"NORMAL":23,
						"TEXCOORD_0":24,
						"COLOR_0":25,
						"COLOR_1":26
					},
					"indices":5,
					"material":4
				},
				{
					"attributes":{
						"POSITION":27,
						"NORMAL":28,
						"TEXCOORD_0":29,
						"COLOR_0":30,
						"COLOR_1":31
					},
					"indices":11,
					"material":5
				}
			]
		},
		{
			"name":"Cube.804",
			"primitives":[
				{
					"attributes":{
						"POSITION":32,
						"NORMAL":33,
						"TEXCOORD_0":34,
						"COLOR_0":35,
						"COLOR_1":36
					},
					"indices":5,
					"material":6
				},
				{
					"attributes":{
						"POSITION":37,
						"NORMAL":38,
						"TEXCOORD_0":39,
						"COLOR_0":40,
						"COLOR_1":41
					},
					"indices":11,
					"material":7
				}
			]
		}
	],
	"accessors":[
		{
			"bufferView":0,
			"componentType":5126,
			"count":2712,
			"max":[
				0.4691305458545685,
				0.2218732386827469,
				0.08504342287778854
			],
			"min":[
				-0.0010105371475219727,
				-0.0024345219135284424,
				-0.08389084041118622
			],
			"type":"VEC3"
		},
		{
			"bufferView":1,
			"componentType":5126,
			"count":2712,
			"type":"VEC3"
		},
		{
			"bufferView":2,
			"componentType":5126,
			"count":2712,
			"type":"VEC2"
		},
		{
			"bufferView":3,
			"componentType":5121,
			"count":2712,
			"normalized":true,
			"type":"VEC4"
		},
		{
			"bufferView":4,
			"componentType":5123,
			"count":2712,
			"normalized":true,
			"type":"VEC4"
		},
		{
			"bufferView":5,
			"componentType":5123,
			"count":13608,
			"type":"SCALAR"
		},
		{
			"bufferView":6,
			"componentType":5126,
			"count":612,
			"max":[
				0.4656335115432739,
				0.21711239218711853,
				0.08198293298482895
			],
			"min":[
				0.0008213929831981659,
				0.0020358264446258545,
				-0.0797397643327713
			],
			"type":"VEC3"
		},
		{
			"bufferView":7,
			"componentType":5126,
			"count":612,
			"type":"VEC3"
		},
		{
			"bufferView":8,
			"componentType":5126,
			"count":612,
			"type":"VEC2"
		},
		{
			"bufferView":9,
			"componentType":5121,
			"count":612,
			"normalized":true,
			"type":"VEC4"
		},
		{
			"bufferView":10,
			"componentType":5123,
			"count":612,
			"normalized":true,
			"type":"VEC4"
		},
		{
			"bufferView":11,
			"componentType":5123,
			"count":1260,
			"type":"SCALAR"
		},
		{
			"bufferView":12,
			"componentType":5126,
			"count":2712,
			"max":[
				0.4691305458545685,
				0.2218732386827469,
				0.08504342287778854
			],
			"min":[
				-0.0010105371475219727,
				-0.0024345219135284424,
				-0.08389084041118622
			],
			"type":"VEC3"
		},
		{
			"bufferView":13,
			"componentType":5126,
			"count":2712,
			"type":"VEC3"
		},
		{
			"bufferView":14,
			"componentType":5126,
			"count":2712,
			"type":"VEC2"
		},
		{
			"bufferView":15,
			"componentType":5121,
			"count":2712,
			"normalized":true,
			"type":"VEC4"
		},
		{
			"bufferView":16,
			"componentType":5123,
			"count":2712,
			"normalized":true,
			"type":"VEC4"
		},
		{
			"bufferView":17,
			"componentType":5126,
			"count":612,
			"max":[
				0.4656335115432739,
				0.21711239218711853,
				0.08198293298482895
			],
			"min":[
				0.0008213929831981659,
				0.0020358264446258545,
				-0.0797397643327713
			],
			"type":"VEC3"
		},
		{
			"bufferView":18,
			"componentType":5126,
			"count":612,
			"type":"VEC3"
		},
		{
			"bufferView":19,
			"componentType":5126,
			"count":612,
			"type":"VEC2"
		},
		{
			"bufferView":20,
			"componentType":5121,
			"count":612,
			"normalized":true,
			"type":"VEC4"
		},
		{
			"bufferView":21,
			"componentType":5123,
			"count":612,
			"normalized":true,
			"type":"VEC4"
		},
		{
			"bufferView":22,
			"componentType":5126,
			"count":2712,
			"max":[
				0.4691305458545685,
				0.2218732386827469,
				0.08504342287778854
			],
			"min":[
				-0.0010105371475219727,
				-0.0024345219135284424,
				-0.08389084041118622
			],
			"type":"VEC3"
		},
		{
			"bufferView":23,
			"componentType":5126,
			"count":2712,
			"type":"VEC3"
		},
		{
			"bufferView":24,
			"componentType":5126,
			"count":2712,
			"type":"VEC2"
		},
		{
			"bufferView":25,
			"componentType":5121,
			"count":2712,
			"normalized":true,
			"type":"VEC4"
		},
		{
			"bufferView":26,
			"componentType":5123,
			"count":2712,
			"normalized":true,
			"type":"VEC4"
		},
		{
			"bufferView":27,
			"componentType":5126,
			"count":612,
			"max":[
				0.4656335115432739,
				0.21711239218711853,
				0.08198293298482895
			],
			"min":[
				0.0008213929831981659,
				0.0020358264446258545,
				-0.0797397643327713
			],
			"type":"VEC3"
		},
		{
			"bufferView":28,
			"componentType":5126,
			"count":612,
			"type":"VEC3"
		},
		{
			"bufferView":29,
			"componentType":5126,
			"count":612,
			"type":"VEC2"
		},
		{
			"bufferView":30,
			"componentType":5121,
			"count":612,
			"normalized":true,
			"type":"VEC4"
		},
		{
			"bufferView":31,
			"componentType":5123,
			"count":612,
			"normalized":true,
			"type":"VEC4"
		},
		{
			"bufferView":32,
			"componentType":5126,
			"count":2712,
			"max":[
				0.4691305458545685,
				0.2218732386827469,
				0.08504342287778854
			],
			"min":[
				-0.0010105371475219727,
				-0.0024345219135284424,
				-0.08389084041118622
			],
			"type":"VEC3"
		},
		{
			"bufferView":33,
			"componentType":5126,
			"count":2712,
			"type":"VEC3"
		},
		{
			"bufferView":34,
			"componentType":5126,
			"count":2712,
			"type":"VEC2"
		},
		{
			"bufferView":35,
			"componentType":5121,
			"count":2712,
			"normalized":true,
			"type":"VEC4"
		},
		{
			"bufferView":36,
			"componentType":5123,
			"count":2712,
			"normalized":true,
			"type":"VEC4"
		},
		{
			"bufferView":37,
			"componentType":5126,
			"count":612,
			"max":[
				0.4656335115432739,
				0.21711239218711853,
				0.08198293298482895
			],
			"min":[
				0.0008213929831981659,
				0.0020358264446258545,
				-0.0797397643327713
			],
			"type":"VEC3"
		},
		{
			"bufferView":38,
			"componentType":5126,
			"count":612,
			"type":"VEC3"
		},
		{
			"bufferView":39,
			"componentType":5126,
			"count":612,
			"type":"VEC2"
		},
		{
			"bufferView":40,
			"componentType":5121,
			"count":612,
			"normalized":true,
			"type":"VEC4"
		},
		{
			"bufferView":41,
			"componentType":5123,
			"count":612,
			"normalized":true,
			"type":"VEC4"
		}
	],
	"bufferViews":[
		{
			"buffer":0,
			"byteLength":32544,
			"byteOffset":0,
			"target":34962
		},
		{
			"buffer":0,
			"byteLength":32544,
			"byteOffset":32544,
			"target":34962
		},
		{
			"buffer":0,
			"byteLength":21696,
			"byteOffset":65088,
			"target":34962
		},
		{
			"buffer":0,
			"byteLength":10848,
			"byteOffset":86784,
			"target":34962
		},
		{
			"buffer":0,
			"byteLength":21696,
			"byteOffset":97632,
			"target":34962
		},
		{
			"buffer":0,
			"byteLength":27216,
			"byteOffset":119328,
			"target":34963
		},
		{
			"buffer":0,
			"byteLength":7344,
			"byteOffset":146544,
			"target":34962
		},
		{
			"buffer":0,
			"byteLength":7344,
			"byteOffset":153888,
			"target":34962
		},
		{
			"buffer":0,
			"byteLength":4896,
			"byteOffset":161232,
			"target":34962
		},
		{
			"buffer":0,
			"byteLength":2448,
			"byteOffset":166128,
			"target":34962
		},
		{
			"buffer":0,
			"byteLength":4896,
			"byteOffset":168576,
			"target":34962
		},
		{
			"buffer":0,
			"byteLength":2520,
			"byteOffset":173472,
			"target":34963
		},
		{
			"buffer":0,
			"byteLength":32544,
			"byteOffset":175992,
			"target":34962
		},
		{
			"buffer":0,
			"byteLength":32544,
			"byteOffset":208536,
			"target":34962
		},
		{
			"buffer":0,
			"byteLength":21696,
			"byteOffset":241080,
			"target":34962
		},
		{
			"buffer":0,
			"byteLength":10848,
			"byteOffset":262776,
			"target":34962
		},
		{
			"buffer":0,
			"byteLength":21696,
			"byteOffset":273624,
			"target":34962
		},
		{
			"buffer":0,
			"byteLength":7344,
			"byteOffset":295320,
			"target":34962
		},
		{
			"buffer":0,
			"byteLength":7344,
			"byteOffset":302664,
			"target":34962
		},
		{
			"buffer":0,
			"byteLength":4896,
			"byteOffset":310008,
			"target":34962
		},
		{
			"buffer":0,
			"byteLength":2448,
			"byteOffset":314904,
			"target":34962
		},
		{
			"buffer":0,
			"byteLength":4896,
			"byteOffset":317352,
			"target":34962
		},
		{
			"buffer":0,
			"byteLength":32544,
			"byteOffset":322248,
			"target":34962
		},
		{
			"buffer":0,
			"byteLength":32544,
			"byteOffset":354792,
			"target":34962
		},
		{
			"buffer":0,
			"byteLength":21696,
			"byteOffset":387336,
			"target":34962
		},
		{
			"buffer":0,
			"byteLength":10848,
			"byteOffset":409032,
			"target":34962
		},
		{
			"buffer":0,
			"byteLength":21696,
			"byteOffset":419880,
			"target":34962
		},
		{
			"buffer":0,
			"byteLength":7344,
			"byteOffset":441576,
			"target":34962
		},
		{
			"buffer":0,
			"byteLength":7344,
			"byteOffset":448920,
			"target":34962
		},
		{
			"buffer":0,
			"byteLength":4896,
			"byteOffset":456264,
			"target":34962
		},
		{
			"buffer":0,
			"byteLength":2448,
			"byteOffset":461160,
			"target":34962
		},
		{
			"buffer":0,
			"byteLength":4896,
			"byteOffset":463608,
			"target":34962
		},
		{
			"buffer":0,
			"byteLength":32544,
			"byteOffset":468504,
			"target":34962
		},
		{
			"buffer":0,
			"byteLength":32544,
			"byteOffset":501048,
			"target":34962
		},
		{
			"buffer":0,
			"byteLength":21696,
			"byteOffset":533592,
			"target":34962
		},
		{
			"buffer":0,
			"byteLength":10848,
			"byteOffset":555288,
			"target":34962
		},
		{
			"buffer":0,
			"byteLength":21696,
			"byteOffset":566136,
			"target":34962
		},
		{
			"buffer":0,
			"byteLength":7344,
			"byteOffset":587832,
			"target":34962
		},
		{
			"buffer":0,
			"byteLength":7344,
			"byteOffset":595176,
			"target":34962
		},
		{
			"buffer":0,
			"byteLength":4896,
			"byteOffset":602520,
			"target":34962
		},
		{
			"buffer":0,
			"byteLength":2448,
			"byteOffset":607416,
			"target":34962
		},
		{
			"buffer":0,
			"byteLength":4896,
			"byteOffset":609864,
			"target":34962
		}
	],
	"buffers":[
		{
			"byteLength":614760,
			"uri":"Books.004.bin"
		}
	]
}
