{
	"asset":{
		"generator":"Khronos glTF Blender I/O v5.1.18",
		"version":"2.0"
	},
	"scene":0,
	"scenes":[
		{
			"name":"Scene",
			"nodes":[
				0
			]
		}
	],
	"nodes":[
		{
			"mesh":0,
			"name":"SM_People_Lowpoly_06.013",
			"rotation":[
				0.67119961977005,
				-0.22246579825878143,
				0.22246582806110382,
				0.6711996793746948
			],
			"scale":[
				1.0886900424957275,
				1.0886900424957275,
				1.0886900424957275
			],
			"translation":[
				21.36463737487793,
				5.879406452178955,
				-6.720442295074463
			]
		}
	],
	"materials":[
		{
			"doubleSided":true,
			"name":"People_Lowpoly_M",
			"pbrMetallicRoughness":{
				"baseColorFactor":[
					0.5,
					0.5,
					0.5,
					1
				],
				"metallicFactor":0,
				"roughnessFactor":0.5527864098548889
			}
		}
	],
	"meshes":[
		{
			"name":"Mesh.045",
			"primitives":[
				{
					"attributes":{
						"POSITION":0,
						"NORMAL":1
					},
					"indices":2,
					"material":0
				}
			]
		}
	],
	"accessors":[
		{
			"bufferView":0,
			"componentType":5126,
			"count":668,
			"max":[
				0.3478865623474121,
				0.18434850871562958,
				-5.372839950723574e-10
			],
			"min":[
				-0.32552096247673035,
				-0.18072164058685303,
				-1.679177165031433
			],
			"type":"VEC3"
		},
		{
			"bufferView":1,
			"componentType":5126,
			"count":668,
			"type":"VEC3"
		},
		{
			"bufferView":2,
			"componentType":5123,
			"count":672,
			"type":"SCALAR"
		}
	],
	"bufferViews":[
		{
			"buffer":0,
			"byteLength":8016,
			"byteOffset":0,
			"target":34962
		},
		{
			"buffer":0,
			"byteLength":8016,
			"byteOffset":8016,
			"target":34962
		},
		{
			"buffer":0,
			"byteLength":1344,
			"byteOffset":16032,
			"target":34963
		}
	],
	"buffers":[
		{
			"byteLength":17376,
			"uri":"Dach_People.bin"
		}
	]
}
