{
	"asset":{
		"generator":"Khronos glTF Blender I/O v5.1.18",
		"version":"2.0"
	},
	"scene":0,
	"scenes":[
		{
			"name":"Scene",
			"nodes":[
				0,
				1,
				2,
				3
			]
		}
	],
	"nodes":[
		{
			"mesh":0,
			"name":"Dach.Ziegel.004",
			"scale":[
				1,
				1,
				6.099998950958252
			],
			"translation":[
				15.885087013244629,
				5.599999904632568,
				-4.900000095367432
			]
		},
		{
			"mesh":1,
			"name":"Dach.Ziegel.005",
			"rotation":[
				0,
				0,
				-0.015156978741288185,
				0.9998851418495178
			],
			"scale":[
				1,
				1,
				6.099998950958252
			],
			"translation":[
				22.0402889251709,
				7.850808143615723,
				-4.998967170715332
			]
		},
		{
			"mesh":2,
			"name":"Unterdecke.001",
			"scale":[
				1,
				1,
				5.999999523162842
			],
			"translation":[
				15.885087013244629,
				5.404820919036865,
				-4.998967170715332
			]
		},
		{
			"mesh":3,
			"name":"UnterDecke.001",
			"scale":[
				1,
				1,
				5.999999523162842
			],
			"translation":[
				15.885087013244629,
				5.548712253570557,
				-4.998967170715332
			]
		}
	],
	"materials":[
		{
			"doubleSided":true,
			"name":"Dach.002",
			"pbrMetallicRoughness":{
				"baseColorFactor":[
					0.010100176557898521,
					0.010100176557898521,
					0.010100176557898521,
					1
				],
				"metallicFactor":0,
				"roughnessFactor":0.8114285469055176
			}
		},
		{
			"doubleSided":true,
			"name":"Dach.003",
			"pbrMetallicRoughness":{
				"baseColorFactor":[
					0.010100176557898521,
					0.010100176557898521,
					0.010100176557898521,
					1
				],
				"metallicFactor":0
			}
		},
		{
			"doubleSided":true,
			"name":"white_plastic",
			"pbrMetallicRoughness":{
				"baseColorFactor":[
					0.800000011920929,
					0.800000011920929,
					0.800000011920929,
					1
				],
				"metallicFactor":0,
				"roughnessFactor":0.5
			}
		},
		{
			"doubleSided":true,
			"name":"AussenPutz",
			"pbrMetallicRoughness":{
				"baseColorFactor":[
					0.7766516208648682,
					0.7766516208648682,
					0.7766516208648682,
					1
				],
				"metallicFactor":0
			}
		}
	],
	"meshes":[
		{
			"name":"Cube.443",
			"primitives":[
				{
					"attributes":{
						"POSITION":0,
						"NORMAL":1,
						"TEXCOORD_0":2
					},
					"indices":3,
					"material":0
				}
			]
		},
		{
			"name":"Cube.444",
			"primitives":[
				{
					"attributes":{
						"POSITION":4,
						"NORMAL":5,
						"TEXCOORD_0":6
					},
					"indices":7,
					"material":1
				}
			]
		},
		{
			"name":"Cube.445",
			"primitives":[
				{
					"attributes":{
						"POSITION":8,
						"NORMAL":9,
						"TEXCOORD_0":10
					},
					"indices":11,
					"material":2
				}
			]
		},
		{
			"name":"Cube.446",
			"primitives":[
				{
					"attributes":{
						"POSITION":12,
						"NORMAL":13,
						"TEXCOORD_0":14
					},
					"indices":15,
					"material":3
				}
			]
		}
	],
	"accessors":[
		{
			"bufferView":0,
			"componentType":5126,
			"count":102,
			"max":[
				10.036792755126953,
				2.658022165298462,
				2.3129649103626136e-17
			],
			"min":[
				6.120445728302002,
				7.450580596923828e-09,
				-2.000000238418579
			],
			"type":"VEC3"
		},
		{
			"bufferView":1,
			"componentType":5126,
			"count":102,
			"type":"VEC3"
		},
		{
			"bufferView":2,
			"componentType":5126,
			"count":102,
			"type":"VEC2"
		},
		{
			"bufferView":3,
			"componentType":5123,
			"count":234,
			"type":"SCALAR"
		},
		{
			"bufferView":4,
			"componentType":5126,
			"count":74,
			"max":[
				4.76837158203125e-07,
				0.40597182512283325,
				0.01630711555480957
			],
			"min":[
				-6.235147476196289,
				-2.4730935096740723,
				-1.9837760925292969
			],
			"type":"VEC3"
		},
		{
			"bufferView":5,
			"componentType":5126,
			"count":74,
			"type":"VEC3"
		},
		{
			"bufferView":6,
			"componentType":5126,
			"count":74,
			"type":"VEC2"
		},
		{
			"bufferView":7,
			"componentType":5123,
			"count":156,
			"type":"SCALAR"
		},
		{
			"bufferView":8,
			"componentType":5126,
			"count":104,
			"max":[
				9.674949645996094,
				2.457479953765869,
				-0.044074952602386475
			],
			"min":[
				5.953271389007568,
				0.17485342919826508,
				-1.9559252262115479
			],
			"type":"VEC3"
		},
		{
			"bufferView":9,
			"componentType":5126,
			"count":104,
			"type":"VEC3"
		},
		{
			"bufferView":10,
			"componentType":5126,
			"count":104,
			"type":"VEC2"
		},
		{
			"bufferView":11,
			"componentType":5123,
			"count":240,
			"type":"SCALAR"
		},
		{
			"bufferView":12,
			"componentType":5126,
			"count":72,
			"max":[
				6.1552042961120605,
				2.344728708267212,
				-0.044074952602386475
			],
			"min":[
				-0.03434348106384277,
				0,
				-1.9559252262115479
			],
			"type":"VEC3"
		},
		{
			"bufferView":13,
			"componentType":5126,
			"count":72,
			"type":"VEC3"
		},
		{
			"bufferView":14,
			"componentType":5126,
			"count":72,
			"type":"VEC2"
		},
		{
			"bufferView":15,
			"componentType":5123,
			"count":156,
			"type":"SCALAR"
		}
	],
	"bufferViews":[
		{
			"buffer":0,
			"byteLength":1224,
			"byteOffset":0,
			"target":34962
		},
		{
			"buffer":0,
			"byteLength":1224,
			"byteOffset":1224,
			"target":34962
		},
		{
			"buffer":0,
			"byteLength":816,
			"byteOffset":2448,
			"target":34962
		},
		{
			"buffer":0,
			"byteLength":468,
			"byteOffset":3264,
			"target":34963
		},
		{
			"buffer":0,
			"byteLength":888,
			"byteOffset":3732,
			"target":34962
		},
		{
			"buffer":0,
			"byteLength":888,
			"byteOffset":4620,
			"target":34962
		},
		{
			"buffer":0,
			"byteLength":592,
			"byteOffset":5508,
			"target":34962
		},
		{
			"buffer":0,
			"byteLength":312,
			"byteOffset":6100,
			"target":34963
		},
		{
			"buffer":0,
			"byteLength":1248,
			"byteOffset":6412,
			"target":34962
		},
		{
			"buffer":0,
			"byteLength":1248,
			"byteOffset":7660,
			"target":34962
		},
		{
			"buffer":0,
			"byteLength":832,
			"byteOffset":8908,
			"target":34962
		},
		{
			"buffer":0,
			"byteLength":480,
			"byteOffset":9740,
			"target":34963
		},
		{
			"buffer":0,
			"byteLength":864,
			"byteOffset":10220,
			"target":34962
		},
		{
			"buffer":0,
			"byteLength":864,
			"byteOffset":11084,
			"target":34962
		},
		{
			"buffer":0,
			"byteLength":576,
			"byteOffset":11948,
			"target":34962
		},
		{
			"buffer":0,
			"byteLength":312,
			"byteOffset":12524,
			"target":34963
		}
	],
	"buffers":[
		{
			"byteLength":12836,
			"uri":"Dach_Aussen.bin"
		}
	]
}
