{
	"asset":{
		"generator":"Khronos glTF Blender I/O v5.1.18",
		"version":"2.0"
	},
	"scene":0,
	"scenes":[
		{
			"name":"Scene",
			"nodes":[
				0,
				1,
				2,
				3
			]
		}
	],
	"nodes":[
		{
			"mesh":0,
			"name":"holzfassade.016",
			"scale":[
				1,
				0.3333333432674408,
				1
			],
			"translation":[
				25.800809860229492,
				5.520000457763672,
				-16.947114944458008
			]
		},
		{
			"mesh":1,
			"name":"holzfassade.017",
			"rotation":[
				0,
				-1,
				0,
				4.371138828673793e-08
			],
			"scale":[
				1,
				0.3333333432674408,
				1
			],
			"translation":[
				15.82508659362793,
				5.520000457763672,
				-4.999013900756836
			]
		},
		{
			"mesh":2,
			"name":"holzfassade.018",
			"rotation":[
				-0.5,
				0.5,
				-0.5,
				0.5
			],
			"scale":[
				1.5,
				1.2777777910232544,
				1
			],
			"translation":[
				15.82508659362793,
				5.559916019439697,
				-5.278964996337891
			]
		},
		{
			"mesh":3,
			"name":"holzfassade.019",
			"rotation":[
				0.5,
				-0.5,
				-0.5,
				0.5
			],
			"scale":[
				1.5,
				1.3355555534362793,
				1
			],
			"translation":[
				25.800813674926758,
				5.550000190734863,
				-17.005178451538086
			]
		}
	],
	"materials":[
		{
			"doubleSided":true,
			"name":"fichte",
			"pbrMetallicRoughness":{
				"baseColorTexture":{
					"index":0
				},
				"metallicFactor":0,
				"roughnessFactor":0.5
			}
		},
		{
			"doubleSided":true,
			"name":"fichte.001",
			"pbrMetallicRoughness":{
				"baseColorTexture":{
					"index":1
				},
				"metallicFactor":0,
				"roughnessFactor":0.5
			}
		}
	],
	"meshes":[
		{
			"name":"Cube.476",
			"primitives":[
				{
					"attributes":{
						"POSITION":0,
						"NORMAL":1,
						"TEXCOORD_0":2
					},
					"indices":3,
					"material":0
				}
			]
		},
		{
			"name":"Cube.477",
			"primitives":[
				{
					"attributes":{
						"POSITION":4,
						"NORMAL":5,
						"TEXCOORD_0":6
					},
					"indices":7,
					"material":0
				}
			]
		},
		{
			"name":"Cube.478",
			"primitives":[
				{
					"attributes":{
						"POSITION":8,
						"NORMAL":9,
						"TEXCOORD_0":10
					},
					"indices":11,
					"material":1
				}
			]
		},
		{
			"name":"Cube.479",
			"primitives":[
				{
					"attributes":{
						"POSITION":12,
						"NORMAL":13,
						"TEXCOORD_0":14
					},
					"indices":11,
					"material":1
				}
			]
		}
	],
	"textures":[
		{
			"sampler":0,
			"source":0
		},
		{
			"sampler":0,
			"source":0
		}
	],
	"images":[
		{
			"mimeType":"image/jpeg",
			"name":"fichte - grau",
			"uri":"fichte%20-%20grau.jpg"
		}
	],
	"accessors":[
		{
			"bufferView":0,
			"componentType":5126,
			"count":3616,
			"max":[
				0,
				7.750374794006348,
				0
			],
			"min":[
				-9.994998931884766,
				0,
				-0.019999999552965164
			],
			"type":"VEC3"
		},
		{
			"bufferView":1,
			"componentType":5126,
			"count":3616,
			"type":"VEC3"
		},
		{
			"bufferView":2,
			"componentType":5126,
			"count":3616,
			"type":"VEC2"
		},
		{
			"bufferView":3,
			"componentType":5123,
			"count":5436,
			"type":"SCALAR"
		},
		{
			"bufferView":4,
			"componentType":5126,
			"count":3612,
			"max":[
				0,
				7.7503743171691895,
				0
			],
			"min":[
				-9.994998931884766,
				0,
				-0.019999999552965164
			],
			"type":"VEC3"
		},
		{
			"bufferView":5,
			"componentType":5126,
			"count":3612,
			"type":"VEC3"
		},
		{
			"bufferView":6,
			"componentType":5126,
			"count":3612,
			"type":"VEC2"
		},
		{
			"bufferView":7,
			"componentType":5123,
			"count":5424,
			"type":"SCALAR"
		},
		{
			"bufferView":8,
			"componentType":5126,
			"count":96,
			"max":[
				0,
				9,
				0
			],
			"min":[
				-0.19499999284744263,
				0,
				-0.019999999552965164
			],
			"type":"VEC3"
		},
		{
			"bufferView":9,
			"componentType":5126,
			"count":96,
			"type":"VEC3"
		},
		{
			"bufferView":10,
			"componentType":5126,
			"count":96,
			"type":"VEC2"
		},
		{
			"bufferView":11,
			"componentType":5123,
			"count":132,
			"type":"SCALAR"
		},
		{
			"bufferView":12,
			"componentType":5126,
			"count":96,
			"max":[
				0,
				9,
				0
			],
			"min":[
				-0.19499999284744263,
				0,
				-0.019999999552965164
			],
			"type":"VEC3"
		},
		{
			"bufferView":13,
			"componentType":5126,
			"count":96,
			"type":"VEC3"
		},
		{
			"bufferView":14,
			"componentType":5126,
			"count":96,
			"type":"VEC2"
		}
	],
	"bufferViews":[
		{
			"buffer":0,
			"byteLength":43392,
			"byteOffset":0,
			"target":34962
		},
		{
			"buffer":0,
			"byteLength":43392,
			"byteOffset":43392,
			"target":34962
		},
		{
			"buffer":0,
			"byteLength":28928,
			"byteOffset":86784,
			"target":34962
		},
		{
			"buffer":0,
			"byteLength":10872,
			"byteOffset":115712,
			"target":34963
		},
		{
			"buffer":0,
			"byteLength":43344,
			"byteOffset":126584,
			"target":34962
		},
		{
			"buffer":0,
			"byteLength":43344,
			"byteOffset":169928,
			"target":34962
		},
		{
			"buffer":0,
			"byteLength":28896,
			"byteOffset":213272,
			"target":34962
		},
		{
			"buffer":0,
			"byteLength":10848,
			"byteOffset":242168,
			"target":34963
		},
		{
			"buffer":0,
			"byteLength":1152,
			"byteOffset":253016,
			"target":34962
		},
		{
			"buffer":0,
			"byteLength":1152,
			"byteOffset":254168,
			"target":34962
		},
		{
			"buffer":0,
			"byteLength":768,
			"byteOffset":255320,
			"target":34962
		},
		{
			"buffer":0,
			"byteLength":264,
			"byteOffset":256088,
			"target":34963
		},
		{
			"buffer":0,
			"byteLength":1152,
			"byteOffset":256352,
			"target":34962
		},
		{
			"buffer":0,
			"byteLength":1152,
			"byteOffset":257504,
			"target":34962
		},
		{
			"buffer":0,
			"byteLength":768,
			"byteOffset":258656,
			"target":34962
		}
	],
	"samplers":[
		{
			"magFilter":9729,
			"minFilter":9987
		}
	],
	"buffers":[
		{
			"byteLength":259424,
			"uri":"DG_Fassade.bin"
		}
	]
}
