{
	"asset":{
		"generator":"Khronos glTF Blender I/O v5.1.18",
		"version":"2.0"
	},
	"scene":0,
	"scenes":[
		{
			"name":"Scene",
			"nodes":[
				0
			]
		}
	],
	"nodes":[
		{
			"mesh":0,
			"name":"EG.002",
			"scale":[
				1,
				1.1071428060531616,
				1
			],
			"translation":[
				0.800000011920929,
				-0.29999998211860657,
				0
			]
		}
	],
	"materials":[
		{
			"doubleSided":true,
			"name":"Besenputz",
			"pbrMetallicRoughness":{
				"metallicFactor":0
			}
		},
		{
			"doubleSided":true,
			"name":"AussenPutz",
			"pbrMetallicRoughness":{
				"baseColorFactor":[
					0.7766516208648682,
					0.7766516208648682,
					0.7766516208648682,
					1
				],
				"metallicFactor":0
			}
		}
	],
	"meshes":[
		{
			"name":"Curve.315",
			"primitives":[
				{
					"attributes":{
						"POSITION":0,
						"NORMAL":1,
						"TEXCOORD_0":2
					},
					"indices":3,
					"material":0
				},
				{
					"attributes":{
						"POSITION":4,
						"NORMAL":5,
						"TEXCOORD_0":6
					},
					"indices":7,
					"material":1
				}
			]
		}
	],
	"accessors":[
		{
			"bufferView":0,
			"componentType":5126,
			"count":425,
			"max":[
				25.000810623168945,
				2.799999952316284,
				-4.998963832855225
			],
			"min":[
				15.085084915161133,
				0,
				-16.947114944458008
			],
			"type":"VEC3"
		},
		{
			"bufferView":1,
			"componentType":5126,
			"count":425,
			"type":"VEC3"
		},
		{
			"bufferView":2,
			"componentType":5126,
			"count":425,
			"type":"VEC2"
		},
		{
			"bufferView":3,
			"componentType":5123,
			"count":1074,
			"type":"SCALAR"
		},
		{
			"bufferView":4,
			"componentType":5126,
			"count":102,
			"max":[
				24.63568115234375,
				2.799999952316284,
				-5.364019870758057
			],
			"min":[
				15.450217247009277,
				0,
				-16.947114944458008
			],
			"type":"VEC3"
		},
		{
			"bufferView":5,
			"componentType":5126,
			"count":102,
			"type":"VEC3"
		},
		{
			"bufferView":6,
			"componentType":5126,
			"count":102,
			"type":"VEC2"
		},
		{
			"bufferView":7,
			"componentType":5123,
			"count":294,
			"type":"SCALAR"
		}
	],
	"bufferViews":[
		{
			"buffer":0,
			"byteLength":5100,
			"byteOffset":0,
			"target":34962
		},
		{
			"buffer":0,
			"byteLength":5100,
			"byteOffset":5100,
			"target":34962
		},
		{
			"buffer":0,
			"byteLength":3400,
			"byteOffset":10200,
			"target":34962
		},
		{
			"buffer":0,
			"byteLength":2148,
			"byteOffset":13600,
			"target":34963
		},
		{
			"buffer":0,
			"byteLength":1224,
			"byteOffset":15748,
			"target":34962
		},
		{
			"buffer":0,
			"byteLength":1224,
			"byteOffset":16972,
			"target":34962
		},
		{
			"buffer":0,
			"byteLength":816,
			"byteOffset":18196,
			"target":34962
		},
		{
			"buffer":0,
			"byteLength":588,
			"byteOffset":19012,
			"target":34963
		}
	],
	"buffers":[
		{
			"byteLength":19600,
			"uri":"EG.bin"
		}
	]
}
