{
	"asset":{
		"generator":"Khronos glTF Blender I/O v5.1.18",
		"version":"2.0"
	},
	"extensionsUsed":[
		"KHR_materials_specular",
		"KHR_materials_unlit"
	],
	"scene":0,
	"scenes":[
		{
			"name":"Scene",
			"nodes":[
				0,
				1,
				2,
				3,
				4,
				5,
				6,
				7,
				8,
				9,
				10,
				11,
				12,
				13,
				14,
				15,
				16,
				17,
				18,
				19,
				20,
				21,
				22,
				23,
				24,
				25,
				26,
				27,
				28,
				29,
				30
			]
		}
	],
	"nodes":[
		{
			"mesh":0,
			"name":"_Curve.010",
			"translation":[
				22.045063018798828,
				0,
				-15.582123756408691
			]
		},
		{
			"mesh":1,
			"name":"Curve.049",
			"translation":[
				23.569320678710938,
				2.799999952316284,
				-9.016765594482422
			]
		},
		{
			"mesh":2,
			"name":"Curve.050",
			"scale":[
				1,
				0.95652174949646,
				1.0834014415740967
			],
			"translation":[
				16.25197982788086,
				0.8700000047683716,
				-5.364019870758057
			]
		},
		{
			"mesh":3,
			"name":"Schiebet\u00fcr.002",
			"scale":[
				1.2597776651382446,
				0.9814814329147339,
				1.444823145866394
			],
			"translation":[
				22.079814910888672,
				0.058957718312740326,
				-7.514150619506836
			]
		},
		{
			"mesh":4,
			"name":"Curve.051",
			"scale":[
				1.458972454071045,
				1,
				1.0834039449691772
			],
			"translation":[
				17.651832580566406,
				0,
				-8.163609504699707
			]
		},
		{
			"mesh":5,
			"name":"Curve.052",
			"translation":[
				21.87008285522461,
				0,
				-13.434033393859863
			]
		},
		{
			"mesh":6,
			"name":"Curve.053",
			"translation":[
				21.870080947875977,
				0,
				-7.563353538513184
			]
		},
		{
			"mesh":7,
			"name":"_Curve.011",
			"scale":[
				0.2907269597053528,
				0.9714285731315613,
				0.02286446839570999
			],
			"translation":[
				24.445810317993164,
				0,
				-15.356842041015625
			]
		},
		{
			"mesh":8,
			"name":"Curve.054",
			"scale":[
				1.6673970222473145,
				1,
				0.19973179697990417
			],
			"translation":[
				25.435680389404297,
				0,
				-16.0634708404541
			]
		},
		{
			"mesh":9,
			"name":"toilet.006",
			"rotation":[
				0,
				-0.7071066498756409,
				-0.70710688829422,
				5.3385068810030134e-08
			],
			"scale":[
				22,
				22,
				22
			],
			"translation":[
				24.19585609436035,
				0.2886991500854492,
				-16.074974060058594
			]
		},
		{
			"mesh":10,
			"name":"Arbeitsplatte.004",
			"scale":[
				1,
				0.043478261679410934,
				1.1667400598526
			],
			"translation":[
				16.25197982788086,
				0.9199999570846558,
				-5.364019870758057
			]
		},
		{
			"mesh":11,
			"name":"Curve.055",
			"scale":[
				0.9877991080284119,
				1,
				1
			],
			"translation":[
				21.870080947875977,
				0,
				-7.563706874847412
			]
		},
		{
			"mesh":12,
			"name":"Curve.056",
			"scale":[
				1.0053634643554688,
				0.01111111044883728,
				1
			],
			"translation":[
				16.261516571044922,
				2.6840224266052246,
				-16.56795310974121
			]
		},
		{
			"mesh":13,
			"name":"Curve.057",
			"scale":[
				1,
				1.0059970617294312,
				1.1667429208755493
			],
			"translation":[
				22.045061111450195,
				0,
				-5.364017486572266
			]
		},
		{
			"mesh":14,
			"name":"_Wand_Tisch-K\u00fcche.003",
			"scale":[
				0.6163693070411682,
				1,
				1
			],
			"translation":[
				21.870433807373047,
				0,
				-8.163665771484375
			]
		},
		{
			"mesh":15,
			"name":"_Wand_Tisch-K\u00fcche.004",
			"scale":[
				0.383630633354187,
				1,
				0.2858027219772339
			],
			"translation":[
				19.27043342590332,
				0,
				-8.163665771484375
			]
		},
		{
			"mesh":16,
			"name":"_Wand_Tisch-K\u00fcche.005",
			"scale":[
				0.383630633354187,
				1,
				0.40012386441230774
			],
			"translation":[
				19.27043342590332,
				0,
				-8.268665313720703
			]
		},
		{
			"mesh":17,
			"name":"Badspiegel.002",
			"rotation":[
				0,
				0,
				-0.7071068286895752,
				0.7071068286895752
			],
			"scale":[
				0.35999998450279236,
				0.04999999701976776,
				0.35999998450279236
			],
			"translation":[
				22.090534210205078,
				1.614295244216919,
				-16.088123321533203
			]
		},
		{
			"mesh":18,
			"name":"Plane.002",
			"rotation":[
				0,
				0,
				-0.7071068286895752,
				0.7071068286895752
			],
			"scale":[
				1,
				1,
				1.3147625923156738
			],
			"translation":[
				16.338603973388672,
				1.0328969955444336,
				-14.694184303283691
			]
		},
		{
			"mesh":19,
			"name":"Arbeitsplatte.005",
			"scale":[
				0.031147362664341927,
				0.043478261679410934,
				0.766714870929718
			],
			"translation":[
				21.870080947875977,
				0.9199999570846558,
				-5.60401725769043
			]
		},
		{
			"mesh":20,
			"name":"Curve.058",
			"scale":[
				1,
				3.04347825050354,
				0.4000261127948761
			],
			"translation":[
				22.045061111450195,
				0,
				-5.364017486572266
			]
		},
		{
			"mesh":21,
			"name":"Arbeitsplatte.006",
			"scale":[
				0.1370483934879303,
				0.043478261679410934,
				0.8500534892082214
			],
			"translation":[
				19.82542610168457,
				0.9236294627189636,
				-5.4687347412109375
			]
		},
		{
			"mesh":22,
			"name":"Arbeitsplatte.007",
			"scale":[
				0.1370483934879303,
				0.043478261679410934,
				0.8500534892082214
			],
			"translation":[
				17.949199676513672,
				0.9236294627189636,
				-5.4687347412109375
			]
		},
		{
			"mesh":23,
			"name":"Sofa.001",
			"rotation":[
				0,
				0.6951572299003601,
				0,
				0.7188577651977539
			],
			"scale":[
				97.62416076660156,
				97.62416076660156,
				97.62416076660156
			],
			"translation":[
				18.728384017944336,
				0.35420143604278564,
				-12.73666000366211
			]
		},
		{
			"mesh":24,
			"name":"Object.004",
			"rotation":[
				0,
				-0.7071067094802856,
				0,
				0.7071068286895752
			],
			"scale":[
				100,
				100,
				100
			],
			"translation":[
				19.853500366210938,
				0.576494038105011,
				-9.689337730407715
			]
		},
		{
			"mesh":25,
			"name":"Object.005",
			"rotation":[
				0,
				0.8600442409515381,
				0,
				0.5102194547653198
			],
			"scale":[
				100,
				100,
				100
			],
			"translation":[
				20.312942504882812,
				0.23436957597732544,
				-14.618563652038574
			]
		},
		{
			"mesh":26,
			"name":"Object.006",
			"rotation":[
				0,
				-0.2576371431350708,
				0,
				0.9662418365478516
			],
			"scale":[
				100,
				100,
				100
			],
			"translation":[
				17.573225021362305,
				0.23436957597732544,
				-14.379108428955078
			]
		},
		{
			"mesh":27,
			"name":"Object.007",
			"rotation":[
				0,
				-0.7071068286895752,
				0,
				0.7071068286895752
			],
			"scale":[
				100,
				100,
				100
			],
			"translation":[
				19.087186813354492,
				1.305129051208496,
				-16.322694778442383
			]
		},
		{
			"mesh":28,
			"name":"Curve.059",
			"translation":[
				24.526552200317383,
				2.799999952316284,
				-16.58346939086914
			]
		},
		{
			"mesh":29,
			"name":"Curve.060",
			"scale":[
				2.5010945796966553,
				0.3571428656578064,
				0.3195708692073822
			],
			"translation":[
				25.473581314086914,
				-0.005336745176464319,
				-16.249279022216797
			]
		},
		{
			"mesh":30,
			"name":"_ECurve.002",
			"translation":[
				22.045063018798828,
				0,
				-13.434033393859863
			]
		}
	],
	"materials":[
		{
			"doubleSided":true,
			"name":"AussenPutz",
			"pbrMetallicRoughness":{
				"baseColorFactor":[
					0.7766516208648682,
					0.7766516208648682,
					0.7766516208648682,
					1
				],
				"metallicFactor":0
			}
		},
		{
			"doubleSided":true,
			"name":"stahl",
			"pbrMetallicRoughness":{
				"baseColorFactor":[
					0.5271152257919312,
					0.5271152257919312,
					0.5271152257919312,
					1
				],
				"roughnessFactor":0.15000000596046448
			}
		},
		{
			"doubleSided":true,
			"name":"Spiegel",
			"pbrMetallicRoughness":{
				"baseColorFactor":[
					0.800000011920929,
					0.800000011920929,
					0.800000011920929,
					1
				],
				"roughnessFactor":0
			}
		},
		{
			"doubleSided":true,
			"extensions":{
				"KHR_materials_specular":{
					"specularFactor":0.4254545569419861
				}
			},
			"name":"metal",
			"pbrMetallicRoughness":{
				"baseColorFactor":[
					0.800000011920929,
					0.800000011920929,
					0.800000011920929,
					1
				],
				"roughnessFactor":0
			}
		},
		{
			"doubleSided":true,
			"name":"white_plastic",
			"pbrMetallicRoughness":{
				"baseColorFactor":[
					0.800000011920929,
					0.800000011920929,
					0.800000011920929,
					1
				],
				"metallicFactor":0,
				"roughnessFactor":0.5
			}
		},
		{
			"doubleSided":true,
			"name":"yello",
			"pbrMetallicRoughness":{
				"baseColorFactor":[
					0.8000156879425049,
					0.536314070224762,
					0.0003132410056423396,
					1
				],
				"metallicFactor":0,
				"roughnessFactor":0.5
			}
		},
		{
			"doubleSided":true,
			"name":"AussenMetall",
			"pbrMetallicRoughness":{
				"baseColorFactor":[
					0.03954596072435379,
					0.04817187413573265,
					0.05448030307888985,
					1
				],
				"roughnessFactor":0.654285728931427
			}
		},
		{
			"doubleSided":true,
			"name":"AussenPutz.018",
			"pbrMetallicRoughness":{
				"baseColorFactor":[
					0.7766516208648682,
					0.7766516208648682,
					0.7766516208648682,
					1
				],
				"metallicFactor":0
			}
		},
		{
			"doubleSided":true,
			"name":"schwarz",
			"pbrMetallicRoughness":{
				"baseColorFactor":[
					0,
					0,
					0,
					1
				],
				"metallicFactor":0
			}
		},
		{
			"doubleSided":true,
			"name":"schwarz.001",
			"pbrMetallicRoughness":{
				"baseColorFactor":[
					0,
					0,
					0,
					1
				],
				"metallicFactor":0
			}
		},
		{
			"doubleSided":true,
			"emissiveFactor":[
				0.5,
				0.5,
				0.5
			],
			"emissiveTexture":{
				"index":0
			},
			"name":"material.007",
			"pbrMetallicRoughness":{
				"baseColorFactor":[
					0,
					0,
					0,
					1
				]
			}
		},
		{
			"doubleSided":true,
			"extensions":{
				"KHR_materials_unlit":{}
			},
			"name":"material.008",
			"pbrMetallicRoughness":{
				"baseColorTexture":{
					"index":1
				},
				"metallicFactor":0,
				"roughnessFactor":0.9
			}
		},
		{
			"doubleSided":true,
			"name":"Bark.002",
			"pbrMetallicRoughness":{
				"baseColorFactor":[
					0.12180545181035995,
					0.07247968763113022,
					0.04598655924201012,
					1
				],
				"metallicFactor":0,
				"roughnessFactor":0.5
			}
		},
		{
			"doubleSided":true,
			"name":"material.009",
			"normalTexture":{
				"index":2
			},
			"pbrMetallicRoughness":{
				"baseColorTexture":{
					"index":3
				},
				"metallicFactor":0,
				"roughnessFactor":0.5527864098548889
			}
		},
		{
			"doubleSided":true,
			"name":"material.010",
			"normalTexture":{
				"index":4
			},
			"pbrMetallicRoughness":{
				"baseColorTexture":{
					"index":5
				},
				"metallicFactor":0,
				"roughnessFactor":0.5527864098548889
			}
		},
		{
			"doubleSided":true,
			"extensions":{
				"KHR_materials_unlit":{}
			},
			"name":"material.011",
			"pbrMetallicRoughness":{
				"baseColorTexture":{
					"index":6
				},
				"metallicFactor":0,
				"roughnessFactor":0.9
			}
		},
		{
			"doubleSided":true,
			"name":"AussenPutz.025",
			"pbrMetallicRoughness":{
				"baseColorFactor":[
					0.7766516208648682,
					0.7766516208648682,
					0.7766516208648682,
					1
				],
				"metallicFactor":0
			}
		},
		{
			"doubleSided":true,
			"name":"AussenPutz.031",
			"pbrMetallicRoughness":{
				"baseColorFactor":[
					0.7766516208648682,
					0.7766516208648682,
					0.7766516208648682,
					1
				],
				"metallicFactor":0
			}
		},
		{
			"doubleSided":true,
			"name":"AussenPutz.033",
			"pbrMetallicRoughness":{
				"baseColorFactor":[
					0.7766516208648682,
					0.7766516208648682,
					0.7766516208648682,
					1
				],
				"metallicFactor":0
			}
		}
	],
	"meshes":[
		{
			"name":"Curve.599",
			"primitives":[
				{
					"attributes":{
						"POSITION":0,
						"NORMAL":1,
						"TEXCOORD_0":2
					},
					"indices":3,
					"material":0
				}
			]
		},
		{
			"name":"Curve.600",
			"primitives":[
				{
					"attributes":{
						"POSITION":4,
						"NORMAL":5,
						"TEXCOORD_0":6
					},
					"indices":7,
					"material":0
				}
			]
		},
		{
			"name":"Curve.601",
			"primitives":[
				{
					"attributes":{
						"POSITION":8,
						"NORMAL":9,
						"TEXCOORD_0":10
					},
					"indices":11,
					"material":1
				}
			]
		},
		{
			"name":"Curve.602",
			"primitives":[
				{
					"attributes":{
						"POSITION":12,
						"NORMAL":13,
						"TEXCOORD_0":14
					},
					"indices":15,
					"material":1
				}
			]
		},
		{
			"name":"Curve.603",
			"primitives":[
				{
					"attributes":{
						"POSITION":16,
						"NORMAL":17,
						"TEXCOORD_0":18
					},
					"indices":19,
					"material":0
				}
			]
		},
		{
			"name":"Curve.604",
			"primitives":[
				{
					"attributes":{
						"POSITION":20,
						"NORMAL":21,
						"TEXCOORD_0":22
					},
					"indices":15,
					"material":0
				}
			]
		},
		{
			"name":"Curve.605",
			"primitives":[
				{
					"attributes":{
						"POSITION":23,
						"NORMAL":24,
						"TEXCOORD_0":25
					},
					"indices":15,
					"material":0
				}
			]
		},
		{
			"name":"Curve.606",
			"primitives":[
				{
					"attributes":{
						"POSITION":26,
						"NORMAL":27,
						"TEXCOORD_0":28
					},
					"indices":29,
					"material":2
				}
			]
		},
		{
			"name":"Curve.607",
			"primitives":[
				{
					"attributes":{
						"POSITION":30,
						"NORMAL":31,
						"TEXCOORD_0":32
					},
					"indices":33,
					"material":0
				}
			]
		},
		{
			"name":"Cube.907",
			"primitives":[
				{
					"attributes":{
						"POSITION":34,
						"NORMAL":35,
						"TEXCOORD_0":36
					},
					"indices":37
				},
				{
					"attributes":{
						"POSITION":38,
						"NORMAL":39,
						"TEXCOORD_0":40
					},
					"indices":41,
					"material":3
				},
				{
					"attributes":{
						"POSITION":42,
						"NORMAL":43,
						"TEXCOORD_0":44
					},
					"indices":45,
					"material":4
				},
				{
					"attributes":{
						"POSITION":46,
						"NORMAL":47,
						"TEXCOORD_0":48
					},
					"indices":49,
					"material":0
				}
			]
		},
		{
			"name":"Curve.608",
			"primitives":[
				{
					"attributes":{
						"POSITION":50,
						"NORMAL":51,
						"TEXCOORD_0":52
					},
					"indices":11,
					"material":1
				}
			]
		},
		{
			"name":"Curve.609",
			"primitives":[
				{
					"attributes":{
						"POSITION":53,
						"NORMAL":54,
						"TEXCOORD_0":55
					},
					"indices":56,
					"material":5
				}
			]
		},
		{
			"name":"Curve.610",
			"primitives":[
				{
					"attributes":{
						"POSITION":57,
						"NORMAL":58,
						"TEXCOORD_0":59
					},
					"indices":60,
					"material":6
				}
			]
		},
		{
			"name":"Curve.611",
			"primitives":[
				{
					"attributes":{
						"POSITION":61,
						"NORMAL":62,
						"TEXCOORD_0":63
					},
					"indices":7,
					"material":0
				}
			]
		},
		{
			"name":"Curve.612",
			"primitives":[
				{
					"attributes":{
						"POSITION":64,
						"NORMAL":65,
						"TEXCOORD_0":66
					},
					"indices":11,
					"material":0
				}
			]
		},
		{
			"name":"Curve.613",
			"primitives":[
				{
					"attributes":{
						"POSITION":67,
						"NORMAL":68,
						"TEXCOORD_0":69
					},
					"indices":11,
					"material":0
				}
			]
		},
		{
			"name":"Curve.614",
			"primitives":[
				{
					"attributes":{
						"POSITION":70,
						"NORMAL":71,
						"TEXCOORD_0":72
					},
					"indices":11,
					"material":4
				}
			]
		},
		{
			"name":"Cylinder.087",
			"primitives":[
				{
					"attributes":{
						"POSITION":73,
						"NORMAL":74,
						"TEXCOORD_0":75
					},
					"indices":76,
					"material":2
				}
			]
		},
		{
			"name":"Plane.014",
			"primitives":[
				{
					"attributes":{
						"POSITION":77,
						"NORMAL":78,
						"TEXCOORD_0":79
					},
					"indices":80
				}
			]
		},
		{
			"name":"Curve.615",
			"primitives":[
				{
					"attributes":{
						"POSITION":81,
						"NORMAL":82,
						"TEXCOORD_0":83
					},
					"indices":11,
					"material":1
				}
			]
		},
		{
			"name":"Curve.616",
			"primitives":[
				{
					"attributes":{
						"POSITION":84,
						"NORMAL":85,
						"TEXCOORD_0":86
					},
					"indices":7,
					"material":7
				}
			]
		},
		{
			"name":"Curve.617",
			"primitives":[
				{
					"attributes":{
						"POSITION":87,
						"NORMAL":88,
						"TEXCOORD_0":89
					},
					"indices":11,
					"material":8
				}
			]
		},
		{
			"name":"Curve.618",
			"primitives":[
				{
					"attributes":{
						"POSITION":90,
						"NORMAL":91,
						"TEXCOORD_0":92
					},
					"indices":11,
					"material":9
				}
			]
		},
		{
			"name":"Mesh.068",
			"primitives":[
				{
					"attributes":{
						"POSITION":93,
						"NORMAL":94,
						"TEXCOORD_0":95
					},
					"indices":96,
					"material":10
				}
			]
		},
		{
			"name":"Mesh.069",
			"primitives":[
				{
					"attributes":{
						"POSITION":97,
						"NORMAL":98,
						"TEXCOORD_0":99,
						"TEXCOORD_1":100
					},
					"indices":101,
					"material":11
				},
				{
					"attributes":{
						"POSITION":102,
						"NORMAL":103,
						"TEXCOORD_0":104,
						"TEXCOORD_1":105
					},
					"indices":106,
					"material":12
				}
			]
		},
		{
			"name":"Mesh.070",
			"primitives":[
				{
					"attributes":{
						"POSITION":107,
						"NORMAL":108,
						"TEXCOORD_0":109
					},
					"indices":110,
					"material":13
				}
			]
		},
		{
			"name":"Mesh.071",
			"primitives":[
				{
					"attributes":{
						"POSITION":111,
						"NORMAL":112,
						"TEXCOORD_0":113
					},
					"indices":110,
					"material":14
				}
			]
		},
		{
			"name":"Mesh.072",
			"primitives":[
				{
					"attributes":{
						"POSITION":114,
						"NORMAL":115,
						"TEXCOORD_0":116
					},
					"indices":117,
					"material":15
				}
			]
		},
		{
			"name":"Curve.619",
			"primitives":[
				{
					"attributes":{
						"POSITION":118,
						"NORMAL":119,
						"TEXCOORD_0":120
					},
					"indices":33,
					"material":16
				}
			]
		},
		{
			"name":"Curve.620",
			"primitives":[
				{
					"attributes":{
						"POSITION":121,
						"NORMAL":122,
						"TEXCOORD_0":123
					},
					"indices":33,
					"material":17
				}
			]
		},
		{
			"name":"Curve.621",
			"primitives":[
				{
					"attributes":{
						"POSITION":124,
						"NORMAL":125,
						"TEXCOORD_0":126
					},
					"indices":127,
					"material":18
				}
			]
		}
	],
	"textures":[
		{
			"sampler":0,
			"source":0
		},
		{
			"sampler":0,
			"source":1
		},
		{
			"sampler":0,
			"source":2
		},
		{
			"sampler":0,
			"source":3
		},
		{
			"sampler":0,
			"source":2
		},
		{
			"sampler":0,
			"source":3
		},
		{
			"sampler":0,
			"source":4
		}
	],
	"images":[
		{
			"mimeType":"image/jpeg",
			"name":"ee4bd14c02971f7f470532050fdea7c5_color",
			"uri":"ee4bd14c02971f7f470532050fdea7c5_color.jpg"
		},
		{
			"mimeType":"image/jpeg",
			"name":"4f069b459f8c087fc9020ee4f85abf75_color",
			"uri":"4f069b459f8c087fc9020ee4f85abf75_color.jpg"
		},
		{
			"mimeType":"image/jpeg",
			"name":"f0c2b20d09d994152a433e8939c719cd_normal",
			"uri":"f0c2b20d09d994152a433e8939c719cd_normal.jpg"
		},
		{
			"mimeType":"image/jpeg",
			"name":"9e5613f8d88d45b8c810949dd4860042_color",
			"uri":"9e5613f8d88d45b8c810949dd4860042_color.jpg"
		},
		{
			"mimeType":"image/jpeg",
			"name":"b7325de9cb890a13ba8a23d817264cff_color",
			"uri":"b7325de9cb890a13ba8a23d817264cff_color.jpg"
		}
	],
	"accessors":[
		{
			"bufferView":0,
			"componentType":5126,
			"count":48,
			"max":[
				2.4814891815185547,
				2.799999952316284,
				0.1781139373779297
			],
			"min":[
				-0.027166366577148438,
				0,
				0.003170013427734375
			],
			"type":"VEC3"
		},
		{
			"bufferView":1,
			"componentType":5126,
			"count":48,
			"type":"VEC3"
		},
		{
			"bufferView":2,
			"componentType":5126,
			"count":48,
			"type":"VEC2"
		},
		{
			"bufferView":3,
			"componentType":5123,
			"count":84,
			"type":"SCALAR"
		},
		{
			"bufferView":4,
			"componentType":5126,
			"count":24,
			"max":[
				0,
				2.384185791015625e-07,
				0
			],
			"min":[
				-0.17498397827148438,
				-2.799999713897705,
				-3.2217392921447754
			],
			"type":"VEC3"
		},
		{
			"bufferView":5,
			"componentType":5126,
			"count":24,
			"type":"VEC3"
		},
		{
			"bufferView":6,
			"componentType":5126,
			"count":24,
			"type":"VEC2"
		},
		{
			"bufferView":7,
			"componentType":5123,
			"count":36,
			"type":"SCALAR"
		},
		{
			"bufferView":8,
			"componentType":5126,
			"count":24,
			"max":[
				5.618453025817871,
				-1.1920928955078125e-07,
				0
			],
			"min":[
				0,
				-0.9200000762939453,
				-0.5999622344970703
			],
			"type":"VEC3"
		},
		{
			"bufferView":9,
			"componentType":5126,
			"count":24,
			"type":"VEC3"
		},
		{
			"bufferView":10,
			"componentType":5126,
			"count":24,
			"type":"VEC2"
		},
		{
			"bufferView":11,
			"componentType":5123,
			"count":36,
			"type":"SCALAR"
		},
		{
			"bufferView":12,
			"componentType":5126,
			"count":24,
			"max":[
				0.03175163269042969,
				2.700000047683716,
				0
			],
			"min":[
				0,
				0,
				-1.7995281219482422
			],
			"type":"VEC3"
		},
		{
			"bufferView":13,
			"componentType":5126,
			"count":24,
			"type":"VEC3"
		},
		{
			"bufferView":14,
			"componentType":5126,
			"count":24,
			"type":"VEC2"
		},
		{
			"bufferView":15,
			"componentType":5123,
			"count":36,
			"type":"SCALAR"
		},
		{
			"bufferView":16,
			"componentType":5126,
			"count":24,
			"max":[
				0.11994744837284088,
				2.8000001907348633,
				0.599960446357727
			],
			"min":[
				1.1368683772161603e-13,
				0,
				-4.172325134277344e-07
			],
			"type":"VEC3"
		},
		{
			"bufferView":17,
			"componentType":5126,
			"count":24,
			"type":"VEC3"
		},
		{
			"bufferView":18,
			"componentType":5126,
			"count":24,
			"type":"VEC2"
		},
		{
			"bufferView":19,
			"componentType":5123,
			"count":36,
			"type":"SCALAR"
		},
		{
			"bufferView":20,
			"componentType":5126,
			"count":24,
			"max":[
				0.17498016357421875,
				2.799999952316284,
				0
			],
			"min":[
				0,
				0,
				-3.1983766555786133
			],
			"type":"VEC3"
		},
		{
			"bufferView":21,
			"componentType":5126,
			"count":24,
			"type":"VEC3"
		},
		{
			"bufferView":22,
			"componentType":5126,
			"count":24,
			"type":"VEC2"
		},
		{
			"bufferView":23,
			"componentType":5126,
			"count":24,
			"max":[
				0.17498016357421875,
				2.799999952316284,
				0
			],
			"min":[
				0,
				0,
				-2.6127235889434814
			],
			"type":"VEC3"
		},
		{
			"bufferView":24,
			"componentType":5126,
			"count":24,
			"type":"VEC3"
		},
		{
			"bufferView":25,
			"componentType":5126,
			"count":24,
			"type":"VEC2"
		},
		{
			"bufferView":26,
			"componentType":5126,
			"count":48,
			"max":[
				3.412487030029297,
				2.799999952316284,
				0.1781139373779297
			],
			"min":[
				-0.027166366577148438,
				0,
				-1.7236099243164062
			],
			"type":"VEC3"
		},
		{
			"bufferView":27,
			"componentType":5126,
			"count":48,
			"type":"VEC3"
		},
		{
			"bufferView":28,
			"componentType":5126,
			"count":48,
			"type":"VEC2"
		},
		{
			"bufferView":29,
			"componentType":5123,
			"count":72,
			"type":"SCALAR"
		},
		{
			"bufferView":30,
			"componentType":5126,
			"count":24,
			"max":[
				0,
				2.799999952316284,
				1.9073486328125e-06
			],
			"min":[
				-0.11994747817516327,
				0,
				-1.0013408660888672
			],
			"type":"VEC3"
		},
		{
			"bufferView":31,
			"componentType":5126,
			"count":24,
			"type":"VEC3"
		},
		{
			"bufferView":32,
			"componentType":5126,
			"count":24,
			"type":"VEC2"
		},
		{
			"bufferView":33,
			"componentType":5123,
			"count":36,
			"type":"SCALAR"
		},
		{
			"bufferView":34,
			"componentType":5126,
			"count":4753,
			"max":[
				0.024637319147586823,
				0.010000000707805157,
				0.043168049305677414
			],
			"min":[
				-0.010000000707805157,
				-0.010000000707805157,
				-0.010000000707805157
			],
			"type":"VEC3"
		},
		{
			"bufferView":35,
			"componentType":5126,
			"count":4753,
			"type":"VEC3"
		},
		{
			"bufferView":36,
			"componentType":5126,
			"count":4753,
			"type":"VEC2"
		},
		{
			"bufferView":37,
			"componentType":5123,
			"count":26922,
			"type":"SCALAR"
		},
		{
			"bufferView":38,
			"componentType":5126,
			"count":1731,
			"max":[
				-0.0018929967191070318,
				0.00574213033542037,
				0.011468319222331047
			],
			"min":[
				-0.0038775738794356585,
				-0.005742129869759083,
				0.009091725572943687
			],
			"type":"VEC3"
		},
		{
			"bufferView":39,
			"componentType":5126,
			"count":1731,
			"type":"VEC3"
		},
		{
			"bufferView":40,
			"componentType":5126,
			"count":1731,
			"type":"VEC2"
		},
		{
			"bufferView":41,
			"componentType":5123,
			"count":9984,
			"type":"SCALAR"
		},
		{
			"bufferView":42,
			"componentType":5126,
			"count":4347,
			"max":[
				0.024640733376145363,
				0.010000001639127731,
				0.012021858245134354
			],
			"min":[
				-0.0019358008867129683,
				-0.010000001639127731,
				0.009875543415546417
			],
			"type":"VEC3"
		},
		{
			"bufferView":43,
			"componentType":5126,
			"count":4347,
			"type":"VEC3"
		},
		{
			"bufferView":44,
			"componentType":5126,
			"count":4347,
			"type":"VEC2"
		},
		{
			"bufferView":45,
			"componentType":5123,
			"count":24960,
			"type":"SCALAR"
		},
		{
			"bufferView":46,
			"componentType":5126,
			"count":24,
			"max":[
				-0.00412737624719739,
				0.02240215241909027,
				0.045968227088451385
			],
			"min":[
				-0.00957953929901123,
				-0.023113446310162544,
				-0.013122694566845894
			],
			"type":"VEC3"
		},
		{
			"bufferView":47,
			"componentType":5126,
			"count":24,
			"type":"VEC3"
		},
		{
			"bufferView":48,
			"componentType":5126,
			"count":24,
			"type":"VEC2"
		},
		{
			"bufferView":49,
			"componentType":5123,
			"count":36,
			"type":"SCALAR"
		},
		{
			"bufferView":50,
			"componentType":5126,
			"count":24,
			"max":[
				5.618453025817871,
				-1.1920928955078125e-07,
				0
			],
			"min":[
				0,
				-0.9200000762939453,
				-0.5999622344970703
			],
			"type":"VEC3"
		},
		{
			"bufferView":51,
			"componentType":5126,
			"count":24,
			"type":"VEC3"
		},
		{
			"bufferView":52,
			"componentType":5126,
			"count":24,
			"type":"VEC2"
		},
		{
			"bufferView":53,
			"componentType":5126,
			"count":24,
			"max":[
				0,
				2.799999952316284,
				0
			],
			"min":[
				-4.098302841186523,
				0,
				-0.5999603271484375
			],
			"type":"VEC3"
		},
		{
			"bufferView":54,
			"componentType":5126,
			"count":24,
			"type":"VEC3"
		},
		{
			"bufferView":55,
			"componentType":5126,
			"count":24,
			"type":"VEC2"
		},
		{
			"bufferView":56,
			"componentType":5123,
			"count":36,
			"type":"SCALAR"
		},
		{
			"bufferView":57,
			"componentType":5126,
			"count":24,
			"max":[
				5.570124626159668,
				0,
				0.4997901916503906
			],
			"min":[
				0,
				-2.700000047683716,
				0
			],
			"type":"VEC3"
		},
		{
			"bufferView":58,
			"componentType":5126,
			"count":24,
			"type":"VEC3"
		},
		{
			"bufferView":59,
			"componentType":5126,
			"count":24,
			"type":"VEC2"
		},
		{
			"bufferView":60,
			"componentType":5123,
			"count":36,
			"type":"SCALAR"
		},
		{
			"bufferView":61,
			"componentType":5126,
			"count":24,
			"max":[
				0,
				0.874754011631012,
				0
			],
			"min":[
				-0.17498016357421875,
				0,
				-0.5999608039855957
			],
			"type":"VEC3"
		},
		{
			"bufferView":62,
			"componentType":5126,
			"count":24,
			"type":"VEC3"
		},
		{
			"bufferView":63,
			"componentType":5126,
			"count":24,
			"type":"VEC2"
		},
		{
			"bufferView":64,
			"componentType":5126,
			"count":24,
			"max":[
				0,
				2.799999952316284,
				9.5367431640625e-07
			],
			"min":[
				-4.218250274658203,
				0,
				-0.17494487762451172
			],
			"type":"VEC3"
		},
		{
			"bufferView":65,
			"componentType":5126,
			"count":24,
			"type":"VEC3"
		},
		{
			"bufferView":66,
			"componentType":5126,
			"count":24,
			"type":"VEC2"
		},
		{
			"bufferView":67,
			"componentType":5126,
			"count":24,
			"max":[
				0,
				2.799999952316284,
				9.5367431640625e-07
			],
			"min":[
				-4.218250274658203,
				0,
				-0.17494487762451172
			],
			"type":"VEC3"
		},
		{
			"bufferView":68,
			"componentType":5126,
			"count":24,
			"type":"VEC3"
		},
		{
			"bufferView":69,
			"componentType":5126,
			"count":24,
			"type":"VEC2"
		},
		{
			"bufferView":70,
			"componentType":5126,
			"count":24,
			"max":[
				0,
				2.799999952316284,
				9.5367431640625e-07
			],
			"min":[
				-4.218250274658203,
				0,
				-0.17494487762451172
			],
			"type":"VEC3"
		},
		{
			"bufferView":71,
			"componentType":5126,
			"count":24,
			"type":"VEC3"
		},
		{
			"bufferView":72,
			"componentType":5126,
			"count":24,
			"type":"VEC2"
		},
		{
			"bufferView":73,
			"componentType":5126,
			"count":384,
			"max":[
				1,
				1.2092101573944092,
				1
			],
			"min":[
				-1.000000238418579,
				-1,
				-1
			],
			"type":"VEC3"
		},
		{
			"bufferView":74,
			"componentType":5126,
			"count":384,
			"type":"VEC3"
		},
		{
			"bufferView":75,
			"componentType":5126,
			"count":384,
			"type":"VEC2"
		},
		{
			"bufferView":76,
			"componentType":5123,
			"count":744,
			"type":"SCALAR"
		},
		{
			"bufferView":77,
			"componentType":5126,
			"count":1161,
			"max":[
				1.0000001192092896,
				0.06612592935562134,
				1.0000001192092896
			],
			"min":[
				-1.6840006113052368,
				-0.042883459478616714,
				-1.0000001192092896
			],
			"type":"VEC3"
		},
		{
			"bufferView":78,
			"componentType":5126,
			"count":1161,
			"type":"VEC3"
		},
		{
			"bufferView":79,
			"componentType":5126,
			"count":1161,
			"type":"VEC2"
		},
		{
			"bufferView":80,
			"componentType":5123,
			"count":6144,
			"type":"SCALAR"
		},
		{
			"bufferView":81,
			"componentType":5126,
			"count":24,
			"max":[
				5.618453025817871,
				-1.1920928955078125e-07,
				0
			],
			"min":[
				0,
				-0.9200000762939453,
				-0.5999622344970703
			],
			"type":"VEC3"
		},
		{
			"bufferView":82,
			"componentType":5126,
			"count":24,
			"type":"VEC3"
		},
		{
			"bufferView":83,
			"componentType":5126,
			"count":24,
			"type":"VEC2"
		},
		{
			"bufferView":84,
			"componentType":5126,
			"count":24,
			"max":[
				0,
				0.9199999570846558,
				0
			],
			"min":[
				-0.17498016357421875,
				0,
				-0.5999608039855957
			],
			"type":"VEC3"
		},
		{
			"bufferView":85,
			"componentType":5126,
			"count":24,
			"type":"VEC3"
		},
		{
			"bufferView":86,
			"componentType":5126,
			"count":24,
			"type":"VEC2"
		},
		{
			"bufferView":87,
			"componentType":5126,
			"count":24,
			"max":[
				5.618453025817871,
				-1.1920928955078125e-07,
				0
			],
			"min":[
				0,
				-0.9200000762939453,
				-0.5999622344970703
			],
			"type":"VEC3"
		},
		{
			"bufferView":88,
			"componentType":5126,
			"count":24,
			"type":"VEC3"
		},
		{
			"bufferView":89,
			"componentType":5126,
			"count":24,
			"type":"VEC2"
		},
		{
			"bufferView":90,
			"componentType":5126,
			"count":24,
			"max":[
				5.618453025817871,
				-1.1920928955078125e-07,
				0
			],
			"min":[
				0,
				-0.9200000762939453,
				-0.5999622344970703
			],
			"type":"VEC3"
		},
		{
			"bufferView":91,
			"componentType":5126,
			"count":24,
			"type":"VEC3"
		},
		{
			"bufferView":92,
			"componentType":5126,
			"count":24,
			"type":"VEC2"
		},
		{
			"bufferView":93,
			"componentType":5126,
			"count":795,
			"max":[
				0.0064349970780313015,
				0.0038017111364752054,
				0.013427697122097015
			],
			"min":[
				-0.005128889810293913,
				-0.0032890404108911753,
				-0.011010315269231796
			],
			"type":"VEC3"
		},
		{
			"bufferView":94,
			"componentType":5126,
			"count":795,
			"type":"VEC3"
		},
		{
			"bufferView":95,
			"componentType":5126,
			"count":795,
			"type":"VEC2"
		},
		{
			"bufferView":96,
			"componentType":5123,
			"count":2868,
			"type":"SCALAR"
		},
		{
			"bufferView":97,
			"componentType":5126,
			"count":61225,
			"max":[
				0.01028850581496954,
				0.007077236659824848,
				0.013290869072079659
			],
			"min":[
				-0.009625769220292568,
				-0.005764940287917852,
				-0.014508107677102089
			],
			"type":"VEC3"
		},
		{
			"bufferView":98,
			"componentType":5126,
			"count":61225,
			"type":"VEC3"
		},
		{
			"bufferView":99,
			"componentType":5126,
			"count":61225,
			"type":"VEC2"
		},
		{
			"bufferView":100,
			"componentType":5126,
			"count":61225,
			"type":"VEC2"
		},
		{
			"bufferView":101,
			"componentType":5123,
			"count":109860,
			"type":"SCALAR"
		},
		{
			"bufferView":102,
			"componentType":5126,
			"count":240,
			"max":[
				0.005311190616339445,
				0.0020350595004856586,
				0.01339077390730381
			],
			"min":[
				-0.0046858834102749825,
				0.0016350594814866781,
				-0.00960856955498457
			],
			"type":"VEC3"
		},
		{
			"bufferView":103,
			"componentType":5126,
			"count":240,
			"type":"VEC3"
		},
		{
			"bufferView":104,
			"componentType":5126,
			"count":240,
			"type":"VEC2"
		},
		{
			"bufferView":105,
			"componentType":5126,
			"count":240,
			"type":"VEC2"
		},
		{
			"bufferView":106,
			"componentType":5123,
			"count":468,
			"type":"SCALAR"
		},
		{
			"bufferView":107,
			"componentType":5126,
			"count":2954,
			"max":[
				0.003899890463799238,
				0.0018379765097051859,
				0.0039284066297113895
			],
			"min":[
				-0.005258350633084774,
				-0.002266558352857828,
				-0.004060365259647369
			],
			"type":"VEC3"
		},
		{
			"bufferView":108,
			"componentType":5126,
			"count":2954,
			"type":"VEC3"
		},
		{
			"bufferView":109,
			"componentType":5126,
			"count":2954,
			"type":"VEC2"
		},
		{
			"bufferView":110,
			"componentType":5123,
			"count":10965,
			"type":"SCALAR"
		},
		{
			"bufferView":111,
			"componentType":5126,
			"count":2954,
			"max":[
				0.003899890463799238,
				0.0018379765097051859,
				0.0039284066297113895
			],
			"min":[
				-0.005258350633084774,
				-0.002266558352857828,
				-0.004060365259647369
			],
			"type":"VEC3"
		},
		{
			"bufferView":112,
			"componentType":5126,
			"count":2954,
			"type":"VEC3"
		},
		{
			"bufferView":113,
			"componentType":5126,
			"count":2954,
			"type":"VEC2"
		},
		{
			"bufferView":114,
			"componentType":5126,
			"count":7450,
			"max":[
				0.004714031703770161,
				0.014170710928738117,
				0.02892286702990532
			],
			"min":[
				-0.003719983622431755,
				-0.01304253377020359,
				-0.027926234528422356
			],
			"type":"VEC3"
		},
		{
			"bufferView":115,
			"componentType":5126,
			"count":7450,
			"type":"VEC3"
		},
		{
			"bufferView":116,
			"componentType":5126,
			"count":7450,
			"type":"VEC2"
		},
		{
			"bufferView":117,
			"componentType":5123,
			"count":29856,
			"type":"SCALAR"
		},
		{
			"bufferView":118,
			"componentType":5126,
			"count":24,
			"max":[
				0,
				0,
				1.0013427734375
			],
			"min":[
				-0.11994743347167969,
				-2.799999952316284,
				0
			],
			"type":"VEC3"
		},
		{
			"bufferView":119,
			"componentType":5126,
			"count":24,
			"type":"VEC3"
		},
		{
			"bufferView":120,
			"componentType":5126,
			"count":24,
			"type":"VEC2"
		},
		{
			"bufferView":121,
			"componentType":5126,
			"count":24,
			"max":[
				0,
				2.799999952316284,
				1.9073486328125e-06
			],
			"min":[
				-0.11994747817516327,
				0,
				-1.0013408660888672
			],
			"type":"VEC3"
		},
		{
			"bufferView":122,
			"componentType":5126,
			"count":24,
			"type":"VEC3"
		},
		{
			"bufferView":123,
			"componentType":5126,
			"count":24,
			"type":"VEC2"
		},
		{
			"bufferView":124,
			"componentType":5126,
			"count":78,
			"max":[
				0.5002479553222656,
				2.799999952316284,
				-1.090256955649238e-05
			],
			"min":[
				0.0003509521484375,
				0,
				-0.5000109076499939
			],
			"type":"VEC3"
		},
		{
			"bufferView":125,
			"componentType":5126,
			"count":78,
			"type":"VEC3"
		},
		{
			"bufferView":126,
			"componentType":5126,
			"count":78,
			"type":"VEC2"
		},
		{
			"bufferView":127,
			"componentType":5123,
			"count":144,
			"type":"SCALAR"
		}
	],
	"bufferViews":[
		{
			"buffer":0,
			"byteLength":576,
			"byteOffset":0,
			"target":34962
		},
		{
			"buffer":0,
			"byteLength":576,
			"byteOffset":576,
			"target":34962
		},
		{
			"buffer":0,
			"byteLength":384,
			"byteOffset":1152,
			"target":34962
		},
		{
			"buffer":0,
			"byteLength":168,
			"byteOffset":1536,
			"target":34963
		},
		{
			"buffer":0,
			"byteLength":288,
			"byteOffset":1704,
			"target":34962
		},
		{
			"buffer":0,
			"byteLength":288,
			"byteOffset":1992,
			"target":34962
		},
		{
			"buffer":0,
			"byteLength":192,
			"byteOffset":2280,
			"target":34962
		},
		{
			"buffer":0,
			"byteLength":72,
			"byteOffset":2472,
			"target":34963
		},
		{
			"buffer":0,
			"byteLength":288,
			"byteOffset":2544,
			"target":34962
		},
		{
			"buffer":0,
			"byteLength":288,
			"byteOffset":2832,
			"target":34962
		},
		{
			"buffer":0,
			"byteLength":192,
			"byteOffset":3120,
			"target":34962
		},
		{
			"buffer":0,
			"byteLength":72,
			"byteOffset":3312,
			"target":34963
		},
		{
			"buffer":0,
			"byteLength":288,
			"byteOffset":3384,
			"target":34962
		},
		{
			"buffer":0,
			"byteLength":288,
			"byteOffset":3672,
			"target":34962
		},
		{
			"buffer":0,
			"byteLength":192,
			"byteOffset":3960,
			"target":34962
		},
		{
			"buffer":0,
			"byteLength":72,
			"byteOffset":4152,
			"target":34963
		},
		{
			"buffer":0,
			"byteLength":288,
			"byteOffset":4224,
			"target":34962
		},
		{
			"buffer":0,
			"byteLength":288,
			"byteOffset":4512,
			"target":34962
		},
		{
			"buffer":0,
			"byteLength":192,
			"byteOffset":4800,
			"target":34962
		},
		{
			"buffer":0,
			"byteLength":72,
			"byteOffset":4992,
			"target":34963
		},
		{
			"buffer":0,
			"byteLength":288,
			"byteOffset":5064,
			"target":34962
		},
		{
			"buffer":0,
			"byteLength":288,
			"byteOffset":5352,
			"target":34962
		},
		{
			"buffer":0,
			"byteLength":192,
			"byteOffset":5640,
			"target":34962
		},
		{
			"buffer":0,
			"byteLength":288,
			"byteOffset":5832,
			"target":34962
		},
		{
			"buffer":0,
			"byteLength":288,
			"byteOffset":6120,
			"target":34962
		},
		{
			"buffer":0,
			"byteLength":192,
			"byteOffset":6408,
			"target":34962
		},
		{
			"buffer":0,
			"byteLength":576,
			"byteOffset":6600,
			"target":34962
		},
		{
			"buffer":0,
			"byteLength":576,
			"byteOffset":7176,
			"target":34962
		},
		{
			"buffer":0,
			"byteLength":384,
			"byteOffset":7752,
			"target":34962
		},
		{
			"buffer":0,
			"byteLength":144,
			"byteOffset":8136,
			"target":34963
		},
		{
			"buffer":0,
			"byteLength":288,
			"byteOffset":8280,
			"target":34962
		},
		{
			"buffer":0,
			"byteLength":288,
			"byteOffset":8568,
			"target":34962
		},
		{
			"buffer":0,
			"byteLength":192,
			"byteOffset":8856,
			"target":34962
		},
		{
			"buffer":0,
			"byteLength":72,
			"byteOffset":9048,
			"target":34963
		},
		{
			"buffer":0,
			"byteLength":57036,
			"byteOffset":9120,
			"target":34962
		},
		{
			"buffer":0,
			"byteLength":57036,
			"byteOffset":66156,
			"target":34962
		},
		{
			"buffer":0,
			"byteLength":38024,
			"byteOffset":123192,
			"target":34962
		},
		{
			"buffer":0,
			"byteLength":53844,
			"byteOffset":161216,
			"target":34963
		},
		{
			"buffer":0,
			"byteLength":20772,
			"byteOffset":215060,
			"target":34962
		},
		{
			"buffer":0,
			"byteLength":20772,
			"byteOffset":235832,
			"target":34962
		},
		{
			"buffer":0,
			"byteLength":13848,
			"byteOffset":256604,
			"target":34962
		},
		{
			"buffer":0,
			"byteLength":19968,
			"byteOffset":270452,
			"target":34963
		},
		{
			"buffer":0,
			"byteLength":52164,
			"byteOffset":290420,
			"target":34962
		},
		{
			"buffer":0,
			"byteLength":52164,
			"byteOffset":342584,
			"target":34962
		},
		{
			"buffer":0,
			"byteLength":34776,
			"byteOffset":394748,
			"target":34962
		},
		{
			"buffer":0,
			"byteLength":49920,
			"byteOffset":429524,
			"target":34963
		},
		{
			"buffer":0,
			"byteLength":288,
			"byteOffset":479444,
			"target":34962
		},
		{
			"buffer":0,
			"byteLength":288,
			"byteOffset":479732,
			"target":34962
		},
		{
			"buffer":0,
			"byteLength":192,
			"byteOffset":480020,
			"target":34962
		},
		{
			"buffer":0,
			"byteLength":72,
			"byteOffset":480212,
			"target":34963
		},
		{
			"buffer":0,
			"byteLength":288,
			"byteOffset":480284,
			"target":34962
		},
		{
			"buffer":0,
			"byteLength":288,
			"byteOffset":480572,
			"target":34962
		},
		{
			"buffer":0,
			"byteLength":192,
			"byteOffset":480860,
			"target":34962
		},
		{
			"buffer":0,
			"byteLength":288,
			"byteOffset":481052,
			"target":34962
		},
		{
			"buffer":0,
			"byteLength":288,
			"byteOffset":481340,
			"target":34962
		},
		{
			"buffer":0,
			"byteLength":192,
			"byteOffset":481628,
			"target":34962
		},
		{
			"buffer":0,
			"byteLength":72,
			"byteOffset":481820,
			"target":34963
		},
		{
			"buffer":0,
			"byteLength":288,
			"byteOffset":481892,
			"target":34962
		},
		{
			"buffer":0,
			"byteLength":288,
			"byteOffset":482180,
			"target":34962
		},
		{
			"buffer":0,
			"byteLength":192,
			"byteOffset":482468,
			"target":34962
		},
		{
			"buffer":0,
			"byteLength":72,
			"byteOffset":482660,
			"target":34963
		},
		{
			"buffer":0,
			"byteLength":288,
			"byteOffset":482732,
			"target":34962
		},
		{
			"buffer":0,
			"byteLength":288,
			"byteOffset":483020,
			"target":34962
		},
		{
			"buffer":0,
			"byteLength":192,
			"byteOffset":483308,
			"target":34962
		},
		{
			"buffer":0,
			"byteLength":288,
			"byteOffset":483500,
			"target":34962
		},
		{
			"buffer":0,
			"byteLength":288,
			"byteOffset":483788,
			"target":34962
		},
		{
			"buffer":0,
			"byteLength":192,
			"byteOffset":484076,
			"target":34962
		},
		{
			"buffer":0,
			"byteLength":288,
			"byteOffset":484268,
			"target":34962
		},
		{
			"buffer":0,
			"byteLength":288,
			"byteOffset":484556,
			"target":34962
		},
		{
			"buffer":0,
			"byteLength":192,
			"byteOffset":484844,
			"target":34962
		},
		{
			"buffer":0,
			"byteLength":288,
			"byteOffset":485036,
			"target":34962
		},
		{
			"buffer":0,
			"byteLength":288,
			"byteOffset":485324,
			"target":34962
		},
		{
			"buffer":0,
			"byteLength":192,
			"byteOffset":485612,
			"target":34962
		},
		{
			"buffer":0,
			"byteLength":4608,
			"byteOffset":485804,
			"target":34962
		},
		{
			"buffer":0,
			"byteLength":4608,
			"byteOffset":490412,
			"target":34962
		},
		{
			"buffer":0,
			"byteLength":3072,
			"byteOffset":495020,
			"target":34962
		},
		{
			"buffer":0,
			"byteLength":1488,
			"byteOffset":498092,
			"target":34963
		},
		{
			"buffer":0,
			"byteLength":13932,
			"byteOffset":499580,
			"target":34962
		},
		{
			"buffer":0,
			"byteLength":13932,
			"byteOffset":513512,
			"target":34962
		},
		{
			"buffer":0,
			"byteLength":9288,
			"byteOffset":527444,
			"target":34962
		},
		{
			"buffer":0,
			"byteLength":12288,
			"byteOffset":536732,
			"target":34963
		},
		{
			"buffer":0,
			"byteLength":288,
			"byteOffset":549020,
			"target":34962
		},
		{
			"buffer":0,
			"byteLength":288,
			"byteOffset":549308,
			"target":34962
		},
		{
			"buffer":0,
			"byteLength":192,
			"byteOffset":549596,
			"target":34962
		},
		{
			"buffer":0,
			"byteLength":288,
			"byteOffset":549788,
			"target":34962
		},
		{
			"buffer":0,
			"byteLength":288,
			"byteOffset":550076,
			"target":34962
		},
		{
			"buffer":0,
			"byteLength":192,
			"byteOffset":550364,
			"target":34962
		},
		{
			"buffer":0,
			"byteLength":288,
			"byteOffset":550556,
			"target":34962
		},
		{
			"buffer":0,
			"byteLength":288,
			"byteOffset":550844,
			"target":34962
		},
		{
			"buffer":0,
			"byteLength":192,
			"byteOffset":551132,
			"target":34962
		},
		{
			"buffer":0,
			"byteLength":288,
			"byteOffset":551324,
			"target":34962
		},
		{
			"buffer":0,
			"byteLength":288,
			"byteOffset":551612,
			"target":34962
		},
		{
			"buffer":0,
			"byteLength":192,
			"byteOffset":551900,
			"target":34962
		},
		{
			"buffer":0,
			"byteLength":9540,
			"byteOffset":552092,
			"target":34962
		},
		{
			"buffer":0,
			"byteLength":9540,
			"byteOffset":561632,
			"target":34962
		},
		{
			"buffer":0,
			"byteLength":6360,
			"byteOffset":571172,
			"target":34962
		},
		{
			"buffer":0,
			"byteLength":5736,
			"byteOffset":577532,
			"target":34963
		},
		{
			"buffer":0,
			"byteLength":734700,
			"byteOffset":583268,
			"target":34962
		},
		{
			"buffer":0,
			"byteLength":734700,
			"byteOffset":1317968,
			"target":34962
		},
		{
			"buffer":0,
			"byteLength":489800,
			"byteOffset":2052668,
			"target":34962
		},
		{
			"buffer":0,
			"byteLength":489800,
			"byteOffset":2542468,
			"target":34962
		},
		{
			"buffer":0,
			"byteLength":219720,
			"byteOffset":3032268,
			"target":34963
		},
		{
			"buffer":0,
			"byteLength":2880,
			"byteOffset":3251988,
			"target":34962
		},
		{
			"buffer":0,
			"byteLength":2880,
			"byteOffset":3254868,
			"target":34962
		},
		{
			"buffer":0,
			"byteLength":1920,
			"byteOffset":3257748,
			"target":34962
		},
		{
			"buffer":0,
			"byteLength":1920,
			"byteOffset":3259668,
			"target":34962
		},
		{
			"buffer":0,
			"byteLength":936,
			"byteOffset":3261588,
			"target":34963
		},
		{
			"buffer":0,
			"byteLength":35448,
			"byteOffset":3262524,
			"target":34962
		},
		{
			"buffer":0,
			"byteLength":35448,
			"byteOffset":3297972,
			"target":34962
		},
		{
			"buffer":0,
			"byteLength":23632,
			"byteOffset":3333420,
			"target":34962
		},
		{
			"buffer":0,
			"byteLength":21930,
			"byteOffset":3357052,
			"target":34963
		},
		{
			"buffer":0,
			"byteLength":35448,
			"byteOffset":3378984,
			"target":34962
		},
		{
			"buffer":0,
			"byteLength":35448,
			"byteOffset":3414432,
			"target":34962
		},
		{
			"buffer":0,
			"byteLength":23632,
			"byteOffset":3449880,
			"target":34962
		},
		{
			"buffer":0,
			"byteLength":89400,
			"byteOffset":3473512,
			"target":34962
		},
		{
			"buffer":0,
			"byteLength":89400,
			"byteOffset":3562912,
			"target":34962
		},
		{
			"buffer":0,
			"byteLength":59600,
			"byteOffset":3652312,
			"target":34962
		},
		{
			"buffer":0,
			"byteLength":59712,
			"byteOffset":3711912,
			"target":34963
		},
		{
			"buffer":0,
			"byteLength":288,
			"byteOffset":3771624,
			"target":34962
		},
		{
			"buffer":0,
			"byteLength":288,
			"byteOffset":3771912,
			"target":34962
		},
		{
			"buffer":0,
			"byteLength":192,
			"byteOffset":3772200,
			"target":34962
		},
		{
			"buffer":0,
			"byteLength":288,
			"byteOffset":3772392,
			"target":34962
		},
		{
			"buffer":0,
			"byteLength":288,
			"byteOffset":3772680,
			"target":34962
		},
		{
			"buffer":0,
			"byteLength":192,
			"byteOffset":3772968,
			"target":34962
		},
		{
			"buffer":0,
			"byteLength":936,
			"byteOffset":3773160,
			"target":34962
		},
		{
			"buffer":0,
			"byteLength":936,
			"byteOffset":3774096,
			"target":34962
		},
		{
			"buffer":0,
			"byteLength":624,
			"byteOffset":3775032,
			"target":34962
		},
		{
			"buffer":0,
			"byteLength":288,
			"byteOffset":3775656,
			"target":34963
		}
	],
	"samplers":[
		{
			"magFilter":9729,
			"minFilter":9987
		}
	],
	"buffers":[
		{
			"byteLength":3775944,
			"uri":"EG_3D.bin"
		}
	]
}
