{
	"asset":{
		"generator":"Khronos glTF Blender I/O v5.1.18",
		"version":"2.0"
	},
	"scene":0,
	"scenes":[
		{
			"name":"Scene",
			"nodes":[
				0,
				1,
				2,
				3,
				4,
				5,
				6,
				7,
				8,
				9,
				10,
				11,
				12,
				13,
				14,
				15,
				16,
				17,
				18,
				19,
				20,
				21,
				22,
				23,
				24,
				25,
				26,
				27
			]
		}
	],
	"nodes":[
		{
			"mesh":0,
			"name":"Cut-Office.002",
			"rotation":[
				0,
				0.7071068286895752,
				0,
				0.7071068286895752
			],
			"translation":[
				16.83588981628418,
				-0.4703141748905182,
				-5.000035285949707
			]
		},
		{
			"mesh":1,
			"name":"Cut-Office.003",
			"translation":[
				22.097532272338867,
				-0.4703141748905182,
				-3.4000353813171387
			]
		},
		{
			"mesh":2,
			"name":"Cut-Office.010",
			"rotation":[
				0,
				0.7071068286895752,
				0,
				0.7071068286895752
			],
			"translation":[
				22.097532272338867,
				-0.4703141748905182,
				-5.000035285949707
			]
		},
		{
			"mesh":3,
			"name":"Cut-Office.011",
			"translation":[
				22.16504669189453,
				-1.032164454460144,
				-4.149285793304443
			]
		},
		{
			"mesh":4,
			"name":"Carport.001",
			"scale":[
				1.4222222566604614,
				1,
				1
			],
			"translation":[
				22.302637100219727,
				2.0255143642425537,
				-16.981449127197266
			]
		},
		{
			"mesh":5,
			"name":"vOLVO.001",
			"rotation":[
				-0.70710688829422,
				0,
				0,
				0.7071066498756409
			],
			"scale":[
				0.07164284586906433,
				0.07164284586906433,
				0.07164284586906433
			],
			"translation":[
				19.90125274658203,
				0.07719680666923523,
				-18.76685905456543
			]
		},
		{
			"mesh":6,
			"name":"_EingangTreppe.003",
			"scale":[
				0.8000553250312805,
				1,
				1.5833336114883423
			],
			"translation":[
				25.800811767578125,
				-0.5164287686347961,
				-12.507198333740234
			]
		},
		{
			"mesh":7,
			"name":"_EingangTreppe.004",
			"scale":[
				0.8607776761054993,
				1,
				1.213141679763794
			],
			"translation":[
				25.800811767578125,
				-0.34142887592315674,
				-12.981983184814453
			]
		},
		{
			"mesh":8,
			"name":"_EingangTreppe.006",
			"scale":[
				0.9832401871681213,
				1,
				0.8512833118438721
			],
			"translation":[
				25.800811767578125,
				-0.16642887890338898,
				-13.386850357055664
			]
		},
		{
			"mesh":9,
			"name":"_LangeStufe.008",
			"scale":[
				0.2089257687330246,
				1,
				3.2459874153137207
			],
			"translation":[
				24.93543243408203,
				-0.34142887592315674,
				-5.278964519500732
			]
		},
		{
			"mesh":10,
			"name":"_LangeStufe.009",
			"scale":[
				0.6500464677810669,
				1,
				1.0693637132644653
			],
			"translation":[
				24.93543243408203,
				-0.5164287686347961,
				-5.278964519500732
			]
		},
		{
			"mesh":11,
			"name":"_EingangTreppe.009",
			"scale":[
				0.4178515374660492,
				1,
				0.12019165605306625
			],
			"translation":[
				25.223892211914062,
				-0.34142887592315674,
				-12.780875205993652
			]
		},
		{
			"mesh":12,
			"name":"_LangeStufe.010",
			"scale":[
				0.32502323389053345,
				1,
				0.07919230312108994
			],
			"translation":[
				25.512351989746094,
				-0.5164287686347961,
				-12.492415428161621
			]
		},
		{
			"mesh":13,
			"name":"Zaun - Buchert.010",
			"rotation":[
				0,
				0.7071068286895752,
				0,
				0.7071068286895752
			],
			"scale":[
				0.019999999552965164,
				1.1999999284744263,
				7.25
			],
			"translation":[
				30,
				-0.5249999761581421,
				-20
			]
		},
		{
			"mesh":14,
			"name":"Zaun - Buchert.011",
			"rotation":[
				0,
				0.7071068286895752,
				0,
				0.7071068286895752
			],
			"scale":[
				0.04999999701976776,
				1.1289215087890625,
				0.04999999701976776
			],
			"translation":[
				22.304738998413086,
				-0.541576087474823,
				-19.905550003051758
			]
		},
		{
			"mesh":15,
			"name":"Zaun - Buchert.012",
			"rotation":[
				0,
				0.7071068286895752,
				0,
				0.7071068286895752
			],
			"scale":[
				0.8999999761581421,
				1.100000023841858,
				0.5999999642372131
			],
			"translation":[
				17.10088539123535,
				-0.5249999761581421,
				-19.807344436645508
			]
		},
		{
			"mesh":16,
			"name":"Zaun - Buchert.013",
			"rotation":[
				0,
				0.7071068286895752,
				0,
				0.7071068286895752
			],
			"scale":[
				0.04999999701976776,
				1.1749999523162842,
				0.04999999701976776
			],
			"translation":[
				15.962103843688965,
				-0.541576087474823,
				-17.10555076599121
			]
		},
		{
			"mesh":17,
			"name":"_LangeStufe.011",
			"rotation":[
				0,
				0.7071068286895752,
				0,
				0.7071068286895752
			],
			"scale":[
				0.6500464677810669,
				1,
				0.4941624701023102
			],
			"translation":[
				15.424116134643555,
				-0.34999996423721313,
				-16.666793823242188
			]
		},
		{
			"mesh":18,
			"name":"_LangeStufe.012",
			"rotation":[
				0,
				0.7071068286895752,
				0,
				0.7071068286895752
			],
			"scale":[
				0.2089257687330246,
				1,
				1.499999761581421
			],
			"translation":[
				15.424116134643555,
				-0.17499998211860657,
				-16.666793823242188
			]
		},
		{
			"mesh":19,
			"name":"_Terasse.002",
			"rotation":[
				0,
				0.7071068286895752,
				0,
				0.7071068286895752
			],
			"scale":[
				1.5097289085388184,
				0.26249998807907104,
				1.3308931589126587
			],
			"translation":[
				11.885079383850098,
				-0.5249999761581421,
				-16.666791915893555
			]
		},
		{
			"mesh":20,
			"name":"Zaun - Buchert.014",
			"rotation":[
				0,
				0.7071068286895752,
				0,
				0.7071068286895752
			],
			"scale":[
				0.04999999701976776,
				1.1749999523162842,
				0.04999999701976776
			],
			"translation":[
				15.962103843688965,
				-0.541576087474823,
				-19.905550003051758
			]
		},
		{
			"mesh":21,
			"name":"Zaun - Buchert.015",
			"rotation":[
				0,
				0.7071068286895752,
				0,
				0.7071068286895752
			],
			"scale":[
				0.04999999701976776,
				1.1289215087890625,
				0.04999999701976776
			],
			"translation":[
				22.304738998413086,
				-0.541576087474823,
				-19.905550003051758
			]
		},
		{
			"mesh":22,
			"name":"Zaun - Buchert.016",
			"rotation":[
				0,
				0.7071068286895752,
				0,
				0.7071068286895752
			],
			"scale":[
				0.04999999701976776,
				1.225000023841858,
				0.04999999701976776
			],
			"translation":[
				22.304738998413086,
				-0.741576075553894,
				-19.905550003051758
			]
		},
		{
			"mesh":23,
			"name":"Zaun - Buchert.017",
			"rotation":[
				0,
				0.7071068286895752,
				0,
				0.7071068286895752
			],
			"scale":[
				0.04999999701976776,
				1.225000023841858,
				0.04999999701976776
			],
			"translation":[
				21.254737854003906,
				-0.741576075553894,
				-19.905550003051758
			]
		},
		{
			"mesh":24,
			"name":"_LangeStufe.013",
			"rotation":[
				0,
				-1,
				0,
				1.6292068494294654e-07
			],
			"scale":[
				0.2089257687330246,
				1,
				1.3333330154418945
			],
			"translation":[
				11.885087013244629,
				-0.17499998211860657,
				-13.269063949584961
			]
		},
		{
			"mesh":25,
			"name":"_LangeStufe.014",
			"rotation":[
				0,
				-1,
				0,
				1.6292068494294654e-07
			],
			"scale":[
				0.6500464677810669,
				1,
				0.4392555058002472
			],
			"translation":[
				11.885087013244629,
				-0.34999996423721313,
				-13.269063949584961
			]
		},
		{
			"mesh":26,
			"name":"Zaun - Buchert.018",
			"rotation":[
				0,
				0.7071068286895752,
				0,
				0.7071068286895752
			],
			"scale":[
				0.019999999552965164,
				1,
				7.75
			],
			"translation":[
				15.5,
				-0.5249999761581421,
				-20
			]
		},
		{
			"mesh":27,
			"name":"holzfassade.016",
			"rotation":[
				0.5,
				0.5,
				-0.5,
				0.5
			],
			"scale":[
				1.0049999952316284,
				0.4444444477558136,
				1
			],
			"translation":[
				11.885079383850098,
				0,
				-16.666790008544922
			]
		}
	],
	"materials":[
		{
			"doubleSided":true,
			"name":"Beton_Rough",
			"pbrMetallicRoughness":{
				"baseColorFactor":[
					0.3583049178123474,
					0.3314575254917145,
					0.36859366297721863,
					1
				],
				"metallicFactor":0
			}
		},
		{
			"doubleSided":true,
			"name":"MetalWhite",
			"pbrMetallicRoughness":{
				"baseColorFactor":[
					0.07787817716598511,
					0.07787817716598511,
					0.07787817716598511,
					1
				],
				"metallicFactor":0.260606050491333,
				"roughnessFactor":0.5638610124588013
			}
		},
		{
			"doubleSided":true,
			"name":"Scene_-_Root",
			"pbrMetallicRoughness":{
				"baseColorFactor":[
					0.014930469915270805,
					0.014930469915270805,
					0.014930469915270805,
					1
				],
				"metallicFactor":0.37714284658432007,
				"roughnessFactor":0.331428587436676
			}
		},
		{
			"doubleSided":true,
			"name":"Beton_Rough.003",
			"pbrMetallicRoughness":{
				"baseColorFactor":[
					0.3583049178123474,
					0.3314575254917145,
					0.36859366297721863,
					1
				],
				"metallicFactor":0
			}
		},
		{
			"doubleSided":true,
			"name":"Beton_Rough.012",
			"pbrMetallicRoughness":{
				"baseColorFactor":[
					0.3583049178123474,
					0.3314575254917145,
					0.36859366297721863,
					1
				],
				"metallicFactor":0
			}
		},
		{
			"doubleSided":true,
			"name":"Beton_Rough.013",
			"pbrMetallicRoughness":{
				"baseColorFactor":[
					0.3583049178123474,
					0.3314575254917145,
					0.36859366297721863,
					1
				],
				"metallicFactor":0
			}
		},
		{
			"doubleSided":true,
			"name":"Beton_Rough.014",
			"pbrMetallicRoughness":{
				"baseColorFactor":[
					0.3583049178123474,
					0.3314575254917145,
					0.36859366297721863,
					1
				],
				"metallicFactor":0
			}
		},
		{
			"doubleSided":true,
			"name":"AussenMetall.044",
			"pbrMetallicRoughness":{
				"baseColorFactor":[
					0.03954596072435379,
					0.04817187413573265,
					0.05448030307888985,
					1
				],
				"metallicFactor":0.6571428775787354,
				"roughnessFactor":0.654285728931427
			}
		},
		{
			"doubleSided":true,
			"name":"AussenMetall.045",
			"pbrMetallicRoughness":{
				"baseColorFactor":[
					0.03954596072435379,
					0.04817187413573265,
					0.05448030307888985,
					1
				],
				"metallicFactor":0.6571428775787354,
				"roughnessFactor":0.654285728931427
			}
		},
		{
			"doubleSided":true,
			"name":"AussenMetall.046",
			"pbrMetallicRoughness":{
				"baseColorFactor":[
					0.03954596072435379,
					0.04817187413573265,
					0.05448030307888985,
					1
				],
				"metallicFactor":0.6571428775787354,
				"roughnessFactor":0.654285728931427
			}
		},
		{
			"doubleSided":true,
			"name":"AussenMetall.047",
			"pbrMetallicRoughness":{
				"baseColorFactor":[
					0.03954596072435379,
					0.04817187413573265,
					0.05448030307888985,
					1
				],
				"metallicFactor":0.6571428775787354,
				"roughnessFactor":0.654285728931427
			}
		},
		{
			"doubleSided":true,
			"name":"Beton_Rough.016",
			"pbrMetallicRoughness":{
				"baseColorFactor":[
					0.3583049178123474,
					0.3314575254917145,
					0.36859366297721863,
					1
				],
				"metallicFactor":0
			}
		},
		{
			"doubleSided":true,
			"name":"Beton_Rough.017",
			"pbrMetallicRoughness":{
				"baseColorFactor":[
					0.3583049178123474,
					0.3314575254917145,
					0.36859366297721863,
					1
				],
				"metallicFactor":0
			}
		},
		{
			"doubleSided":true,
			"name":"holz.001"
		},
		{
			"doubleSided":true,
			"name":"AussenMetall.050",
			"pbrMetallicRoughness":{
				"baseColorFactor":[
					0.03954596072435379,
					0.04817187413573265,
					0.05448030307888985,
					1
				],
				"metallicFactor":0.6571428775787354,
				"roughnessFactor":0.654285728931427
			}
		},
		{
			"doubleSided":true,
			"name":"AussenMetall",
			"pbrMetallicRoughness":{
				"baseColorFactor":[
					0.03954596072435379,
					0.04817187413573265,
					0.05448030307888985,
					1
				],
				"roughnessFactor":0.654285728931427
			}
		},
		{
			"doubleSided":true,
			"name":"AussenMetall.048",
			"pbrMetallicRoughness":{
				"baseColorFactor":[
					0.03954596072435379,
					0.04817187413573265,
					0.05448030307888985,
					1
				],
				"metallicFactor":0.6571428775787354,
				"roughnessFactor":0.654285728931427
			}
		},
		{
			"doubleSided":true,
			"name":"AussenMetall.049",
			"pbrMetallicRoughness":{
				"baseColorFactor":[
					0.03954596072435379,
					0.04817187413573265,
					0.05448030307888985,
					1
				],
				"metallicFactor":0.6571428775787354,
				"roughnessFactor":0.654285728931427
			}
		},
		{
			"doubleSided":true,
			"name":"Beton_Rough.020",
			"pbrMetallicRoughness":{
				"baseColorFactor":[
					0.3583049178123474,
					0.3314575254917145,
					0.36859366297721863,
					1
				],
				"metallicFactor":0
			}
		},
		{
			"doubleSided":true,
			"name":"Beton_Rough.021",
			"pbrMetallicRoughness":{
				"baseColorFactor":[
					0.3583049178123474,
					0.3314575254917145,
					0.36859366297721863,
					1
				],
				"metallicFactor":0
			}
		},
		{
			"doubleSided":true,
			"name":"AussenMetall.052",
			"pbrMetallicRoughness":{
				"baseColorFactor":[
					0.03954596072435379,
					0.04817187413573265,
					0.05448030307888985,
					1
				],
				"metallicFactor":0.6571428775787354,
				"roughnessFactor":0.654285728931427
			}
		},
		{
			"doubleSided":true,
			"name":"fichte",
			"pbrMetallicRoughness":{
				"baseColorTexture":{
					"index":0
				},
				"metallicFactor":0,
				"roughnessFactor":0.5
			}
		}
	],
	"meshes":[
		{
			"name":"Cube.806",
			"primitives":[
				{
					"attributes":{
						"POSITION":0,
						"NORMAL":1,
						"TEXCOORD_0":2
					},
					"indices":3,
					"material":0
				}
			]
		},
		{
			"name":"Cube.807",
			"primitives":[
				{
					"attributes":{
						"POSITION":4,
						"NORMAL":5,
						"TEXCOORD_0":6
					},
					"indices":3,
					"material":0
				}
			]
		},
		{
			"name":"Cube.808",
			"primitives":[
				{
					"attributes":{
						"POSITION":7,
						"NORMAL":8,
						"TEXCOORD_0":9
					},
					"indices":3,
					"material":0
				}
			]
		},
		{
			"name":"Cube.809",
			"primitives":[
				{
					"attributes":{
						"POSITION":10,
						"NORMAL":11,
						"TEXCOORD_0":12
					},
					"indices":3,
					"material":0
				}
			]
		},
		{
			"name":"Cube.810",
			"primitives":[
				{
					"attributes":{
						"POSITION":13,
						"NORMAL":14,
						"TEXCOORD_0":15
					},
					"indices":16,
					"material":1
				}
			]
		},
		{
			"name":"Object_0.005",
			"primitives":[
				{
					"attributes":{
						"POSITION":17,
						"NORMAL":18,
						"COLOR_0":19,
						"COLOR_1":20
					},
					"indices":21,
					"material":2
				}
			]
		},
		{
			"name":"Cube.811",
			"primitives":[
				{
					"attributes":{
						"POSITION":22,
						"NORMAL":23,
						"TEXCOORD_0":24
					},
					"indices":25,
					"material":0
				}
			]
		},
		{
			"name":"Cube.812",
			"primitives":[
				{
					"attributes":{
						"POSITION":26,
						"NORMAL":27,
						"TEXCOORD_0":28
					},
					"indices":25,
					"material":0
				}
			]
		},
		{
			"name":"Cube.813",
			"primitives":[
				{
					"attributes":{
						"POSITION":29,
						"NORMAL":30,
						"TEXCOORD_0":31
					},
					"indices":32,
					"material":3
				}
			]
		},
		{
			"name":"Cube.814",
			"primitives":[
				{
					"attributes":{
						"POSITION":33,
						"NORMAL":34,
						"TEXCOORD_0":35
					},
					"indices":25,
					"material":4
				}
			]
		},
		{
			"name":"Cube.815",
			"primitives":[
				{
					"attributes":{
						"POSITION":36,
						"NORMAL":37,
						"TEXCOORD_0":38
					},
					"indices":25,
					"material":4
				}
			]
		},
		{
			"name":"Cube.816",
			"primitives":[
				{
					"attributes":{
						"POSITION":39,
						"NORMAL":40,
						"TEXCOORD_0":41
					},
					"indices":25,
					"material":5
				}
			]
		},
		{
			"name":"Cube.817",
			"primitives":[
				{
					"attributes":{
						"POSITION":42,
						"NORMAL":43,
						"TEXCOORD_0":44
					},
					"indices":25,
					"material":6
				}
			]
		},
		{
			"name":"Cube.818",
			"primitives":[
				{
					"attributes":{
						"POSITION":45,
						"NORMAL":46,
						"TEXCOORD_0":47
					},
					"indices":32,
					"material":7
				}
			]
		},
		{
			"name":"Cube.819",
			"primitives":[
				{
					"attributes":{
						"POSITION":48,
						"NORMAL":49,
						"TEXCOORD_0":50
					},
					"indices":32,
					"material":8
				}
			]
		},
		{
			"name":"Cube.820",
			"primitives":[
				{
					"attributes":{
						"POSITION":51,
						"NORMAL":52,
						"TEXCOORD_0":53
					},
					"indices":32,
					"material":9
				}
			]
		},
		{
			"name":"Cube.821",
			"primitives":[
				{
					"attributes":{
						"POSITION":54,
						"NORMAL":55,
						"TEXCOORD_0":56
					},
					"indices":32,
					"material":10
				}
			]
		},
		{
			"name":"Cube.822",
			"primitives":[
				{
					"attributes":{
						"POSITION":57,
						"NORMAL":58,
						"TEXCOORD_0":59
					},
					"indices":25,
					"material":11
				}
			]
		},
		{
			"name":"Cube.823",
			"primitives":[
				{
					"attributes":{
						"POSITION":60,
						"NORMAL":61,
						"TEXCOORD_0":62
					},
					"indices":25,
					"material":12
				}
			]
		},
		{
			"name":"Cube.824",
			"primitives":[
				{
					"attributes":{
						"POSITION":63,
						"NORMAL":64,
						"TEXCOORD_0":65
					},
					"indices":32,
					"material":13
				}
			]
		},
		{
			"name":"Cube.825",
			"primitives":[
				{
					"attributes":{
						"POSITION":66,
						"NORMAL":67,
						"TEXCOORD_0":68
					},
					"indices":32,
					"material":14
				}
			]
		},
		{
			"name":"Cube.826",
			"primitives":[
				{
					"attributes":{
						"POSITION":69,
						"NORMAL":70,
						"TEXCOORD_0":71
					},
					"indices":25,
					"material":15
				}
			]
		},
		{
			"name":"Cube.827",
			"primitives":[
				{
					"attributes":{
						"POSITION":72,
						"NORMAL":73,
						"TEXCOORD_0":74
					},
					"indices":25,
					"material":16
				}
			]
		},
		{
			"name":"Cube.828",
			"primitives":[
				{
					"attributes":{
						"POSITION":75,
						"NORMAL":76,
						"TEXCOORD_0":77
					},
					"indices":25,
					"material":17
				}
			]
		},
		{
			"name":"Cube.829",
			"primitives":[
				{
					"attributes":{
						"POSITION":78,
						"NORMAL":79,
						"TEXCOORD_0":80
					},
					"indices":25,
					"material":18
				}
			]
		},
		{
			"name":"Cube.830",
			"primitives":[
				{
					"attributes":{
						"POSITION":81,
						"NORMAL":82,
						"TEXCOORD_0":83
					},
					"indices":25,
					"material":19
				}
			]
		},
		{
			"name":"Cube.831",
			"primitives":[
				{
					"attributes":{
						"POSITION":84,
						"NORMAL":85,
						"TEXCOORD_0":86
					},
					"indices":32,
					"material":20
				}
			]
		},
		{
			"name":"Cube.832",
			"primitives":[
				{
					"attributes":{
						"POSITION":87,
						"NORMAL":88,
						"TEXCOORD_0":89
					},
					"indices":90,
					"material":21
				}
			]
		}
	],
	"textures":[
		{
			"sampler":0,
			"source":0
		}
	],
	"images":[
		{
			"mimeType":"image/jpeg",
			"name":"fichte - grau",
			"uri":"fichte%20-%20grau.jpg"
		}
	],
	"accessors":[
		{
			"bufferView":0,
			"componentType":5126,
			"count":24,
			"max":[
				0,
				0,
				-3.814731996953924e-08
			],
			"min":[
				-1.5999999046325684,
				-1.399999976158142,
				-0.15000003576278687
			],
			"type":"VEC3"
		},
		{
			"bufferView":1,
			"componentType":5126,
			"count":24,
			"type":"VEC3"
		},
		{
			"bufferView":2,
			"componentType":5126,
			"count":24,
			"type":"VEC2"
		},
		{
			"bufferView":3,
			"componentType":5123,
			"count":36,
			"type":"SCALAR"
		},
		{
			"bufferView":4,
			"componentType":5126,
			"count":24,
			"max":[
				0,
				0,
				-3.814731996953924e-08
			],
			"min":[
				-5.2616424560546875,
				-1.399999976158142,
				-0.15000003576278687
			],
			"type":"VEC3"
		},
		{
			"bufferView":5,
			"componentType":5126,
			"count":24,
			"type":"VEC3"
		},
		{
			"bufferView":6,
			"componentType":5126,
			"count":24,
			"type":"VEC2"
		},
		{
			"bufferView":7,
			"componentType":5126,
			"count":24,
			"max":[
				0,
				0,
				0.14999957382678986
			],
			"min":[
				-1.5999999046325684,
				-1.399999976158142,
				-4.172325134277344e-07
			],
			"type":"VEC3"
		},
		{
			"bufferView":8,
			"componentType":5126,
			"count":24,
			"type":"VEC3"
		},
		{
			"bufferView":9,
			"componentType":5126,
			"count":24,
			"type":"VEC2"
		},
		{
			"bufferView":10,
			"componentType":5126,
			"count":24,
			"max":[
				0,
				0,
				-3.814731996953924e-08
			],
			"min":[
				-5.600000381469727,
				-1.399999976158142,
				-0.15000003576278687
			],
			"type":"VEC3"
		},
		{
			"bufferView":11,
			"componentType":5126,
			"count":24,
			"type":"VEC3"
		},
		{
			"bufferView":12,
			"componentType":5126,
			"count":24,
			"type":"VEC2"
		},
		{
			"bufferView":13,
			"componentType":5126,
			"count":52,
			"max":[
				0,
				0.45661163330078125,
				0.025568999350070953
			],
			"min":[
				-4.5,
				-3.1085193157196045,
				-2.882476806640625
			],
			"type":"VEC3"
		},
		{
			"bufferView":14,
			"componentType":5126,
			"count":52,
			"type":"VEC3"
		},
		{
			"bufferView":15,
			"componentType":5126,
			"count":52,
			"type":"VEC2"
		},
		{
			"bufferView":16,
			"componentType":5123,
			"count":84,
			"type":"SCALAR"
		},
		{
			"bufferView":17,
			"componentType":5126,
			"count":8476,
			"max":[
				30.596752166748047,
				13.33777904510498,
				11.466553688049316
			],
			"min":[
				-33.02804946899414,
				-13.402121543884277,
				-8.651846885681152
			],
			"type":"VEC3"
		},
		{
			"bufferView":18,
			"componentType":5126,
			"count":8476,
			"type":"VEC3"
		},
		{
			"bufferView":19,
			"componentType":5121,
			"count":8476,
			"normalized":true,
			"type":"VEC4"
		},
		{
			"bufferView":20,
			"componentType":5123,
			"count":8476,
			"normalized":true,
			"type":"VEC4"
		},
		{
			"bufferView":21,
			"componentType":5123,
			"count":39192,
			"type":"SCALAR"
		},
		{
			"bufferView":22,
			"componentType":5126,
			"count":24,
			"max":[
				1.8460220098495483,
				0.17500001192092896,
				0
			],
			"min":[
				-3.27825517842939e-07,
				0,
				-2.3999996185302734
			],
			"type":"VEC3"
		},
		{
			"bufferView":23,
			"componentType":5126,
			"count":24,
			"type":"VEC3"
		},
		{
			"bufferView":24,
			"componentType":5126,
			"count":24,
			"type":"VEC2"
		},
		{
			"bufferView":25,
			"componentType":5123,
			"count":36,
			"type":"SCALAR"
		},
		{
			"bufferView":26,
			"componentType":5126,
			"count":24,
			"max":[
				1.380682110786438,
				0.17499999701976776,
				0
			],
			"min":[
				3.5762786865234375e-07,
				0,
				-2.4000000953674316
			],
			"type":"VEC3"
		},
		{
			"bufferView":27,
			"componentType":5126,
			"count":24,
			"type":"VEC3"
		},
		{
			"bufferView":28,
			"componentType":5126,
			"count":24,
			"type":"VEC2"
		},
		{
			"bufferView":29,
			"componentType":5126,
			"count":24,
			"max":[
				0.9153410792350769,
				0.17499999701976776,
				1.1920928955078125e-06
			],
			"min":[
				1.7881393432617188e-07,
				0,
				-2.399998664855957
			],
			"type":"VEC3"
		},
		{
			"bufferView":30,
			"componentType":5126,
			"count":24,
			"type":"VEC3"
		},
		{
			"bufferView":31,
			"componentType":5126,
			"count":24,
			"type":"VEC2"
		},
		{
			"bufferView":32,
			"componentType":5123,
			"count":36,
			"type":"SCALAR"
		},
		{
			"bufferView":33,
			"componentType":5126,
			"count":24,
			"max":[
				1.380682110786438,
				0.17499999701976776,
				0
			],
			"min":[
				3.5762786865234375e-07,
				0,
				-2.4000000953674316
			],
			"type":"VEC3"
		},
		{
			"bufferView":34,
			"componentType":5126,
			"count":24,
			"type":"VEC3"
		},
		{
			"bufferView":35,
			"componentType":5126,
			"count":24,
			"type":"VEC2"
		},
		{
			"bufferView":36,
			"componentType":5126,
			"count":24,
			"max":[
				0.8875054121017456,
				0.17500001192092896,
				9.313225746154785e-10
			],
			"min":[
				-3.27825318890973e-07,
				0,
				-7.285051345825195
			],
			"type":"VEC3"
		},
		{
			"bufferView":37,
			"componentType":5126,
			"count":24,
			"type":"VEC3"
		},
		{
			"bufferView":38,
			"componentType":5126,
			"count":24,
			"type":"VEC2"
		},
		{
			"bufferView":39,
			"componentType":5126,
			"count":24,
			"max":[
				1.380682110786438,
				0.17499999701976776,
				0
			],
			"min":[
				3.5762786865234375e-07,
				0,
				-2.4000000953674316
			],
			"type":"VEC3"
		},
		{
			"bufferView":40,
			"componentType":5126,
			"count":24,
			"type":"VEC3"
		},
		{
			"bufferView":41,
			"componentType":5126,
			"count":24,
			"type":"VEC2"
		},
		{
			"bufferView":42,
			"componentType":5126,
			"count":24,
			"max":[
				0.8875054121017456,
				0.17500001192092896,
				9.313225746154785e-10
			],
			"min":[
				-3.27825318890973e-07,
				0,
				-7.285051345825195
			],
			"type":"VEC3"
		},
		{
			"bufferView":43,
			"componentType":5126,
			"count":24,
			"type":"VEC3"
		},
		{
			"bufferView":44,
			"componentType":5126,
			"count":24,
			"type":"VEC2"
		},
		{
			"bufferView":45,
			"componentType":5126,
			"count":24,
			"max":[
				0,
				2,
				0
			],
			"min":[
				-2,
				0,
				-2
			],
			"type":"VEC3"
		},
		{
			"bufferView":46,
			"componentType":5126,
			"count":24,
			"type":"VEC3"
		},
		{
			"bufferView":47,
			"componentType":5126,
			"count":24,
			"type":"VEC2"
		},
		{
			"bufferView":48,
			"componentType":5126,
			"count":24,
			"max":[
				0,
				2.081632614135742,
				0
			],
			"min":[
				-2,
				0,
				-2
			],
			"type":"VEC3"
		},
		{
			"bufferView":49,
			"componentType":5126,
			"count":24,
			"type":"VEC3"
		},
		{
			"bufferView":50,
			"componentType":5126,
			"count":24,
			"type":"VEC2"
		},
		{
			"bufferView":51,
			"componentType":5126,
			"count":24,
			"max":[
				0,
				2,
				0
			],
			"min":[
				-2,
				0,
				-2
			],
			"type":"VEC3"
		},
		{
			"bufferView":52,
			"componentType":5126,
			"count":24,
			"type":"VEC3"
		},
		{
			"bufferView":53,
			"componentType":5126,
			"count":24,
			"type":"VEC2"
		},
		{
			"bufferView":54,
			"componentType":5126,
			"count":24,
			"max":[
				0,
				2,
				0
			],
			"min":[
				-2,
				0,
				-2
			],
			"type":"VEC3"
		},
		{
			"bufferView":55,
			"componentType":5126,
			"count":24,
			"type":"VEC3"
		},
		{
			"bufferView":56,
			"componentType":5126,
			"count":24,
			"type":"VEC2"
		},
		{
			"bufferView":57,
			"componentType":5126,
			"count":24,
			"max":[
				0.8875054121017456,
				7.450580596923828e-08,
				1.4901161193847656e-08
			],
			"min":[
				-3.2782554626464844e-07,
				-0.17499993741512299,
				-7.285053253173828
			],
			"type":"VEC3"
		},
		{
			"bufferView":58,
			"componentType":5126,
			"count":24,
			"type":"VEC3"
		},
		{
			"bufferView":59,
			"componentType":5126,
			"count":24,
			"type":"VEC2"
		},
		{
			"bufferView":60,
			"componentType":5126,
			"count":24,
			"max":[
				1.380682110786438,
				0,
				0
			],
			"min":[
				3.5762786865234375e-07,
				-0.17499999701976776,
				-2.4000003337860107
			],
			"type":"VEC3"
		},
		{
			"bufferView":61,
			"componentType":5126,
			"count":24,
			"type":"VEC3"
		},
		{
			"bufferView":62,
			"componentType":5126,
			"count":24,
			"type":"VEC2"
		},
		{
			"bufferView":63,
			"componentType":5126,
			"count":24,
			"max":[
				-9.5367431640625e-07,
				2,
				3.005500316619873
			],
			"min":[
				-7.727678298950195,
				0,
				0
			],
			"type":"VEC3"
		},
		{
			"bufferView":64,
			"componentType":5126,
			"count":24,
			"type":"VEC3"
		},
		{
			"bufferView":65,
			"componentType":5126,
			"count":24,
			"type":"VEC2"
		},
		{
			"bufferView":66,
			"componentType":5126,
			"count":24,
			"max":[
				0,
				2,
				0
			],
			"min":[
				-2,
				0,
				-2
			],
			"type":"VEC3"
		},
		{
			"bufferView":67,
			"componentType":5126,
			"count":24,
			"type":"VEC3"
		},
		{
			"bufferView":68,
			"componentType":5126,
			"count":24,
			"type":"VEC2"
		},
		{
			"bufferView":69,
			"componentType":5126,
			"count":24,
			"max":[
				-56,
				2.081629514694214,
				-3.0517578125e-05
			],
			"min":[
				-58,
				-3.1888484954833984e-06,
				-2.000030517578125
			],
			"type":"VEC3"
		},
		{
			"bufferView":70,
			"componentType":5126,
			"count":24,
			"type":"VEC3"
		},
		{
			"bufferView":71,
			"componentType":5126,
			"count":24,
			"type":"VEC2"
		},
		{
			"bufferView":72,
			"componentType":5126,
			"count":24,
			"max":[
				-3.0517578125e-05,
				2.1632652282714844,
				2.2737367544323206e-13
			],
			"min":[
				-58.00002670288086,
				2.081632614135742,
				-1.9999998807907104
			],
			"type":"VEC3"
		},
		{
			"bufferView":73,
			"componentType":5126,
			"count":24,
			"type":"VEC3"
		},
		{
			"bufferView":74,
			"componentType":5126,
			"count":24,
			"type":"VEC2"
		},
		{
			"bufferView":75,
			"componentType":5126,
			"count":24,
			"max":[
				7.105427357601002e-15,
				2.1632652282714844,
				-105.85272216796875
			],
			"min":[
				-57.999996185302734,
				2.081632614135742,
				-107.85272216796875
			],
			"type":"VEC3"
		},
		{
			"bufferView":76,
			"componentType":5126,
			"count":24,
			"type":"VEC3"
		},
		{
			"bufferView":77,
			"componentType":5126,
			"count":24,
			"type":"VEC2"
		},
		{
			"bufferView":78,
			"componentType":5126,
			"count":24,
			"max":[
				1.380682110786438,
				0,
				0
			],
			"min":[
				3.5762786865234375e-07,
				-0.17499999701976776,
				-2.4000003337860107
			],
			"type":"VEC3"
		},
		{
			"bufferView":79,
			"componentType":5126,
			"count":24,
			"type":"VEC3"
		},
		{
			"bufferView":80,
			"componentType":5126,
			"count":24,
			"type":"VEC2"
		},
		{
			"bufferView":81,
			"componentType":5126,
			"count":24,
			"max":[
				0.8875054121017456,
				7.450580596923828e-08,
				1.4901161193847656e-08
			],
			"min":[
				-3.2782554626464844e-07,
				-0.17499993741512299,
				-7.285053253173828
			],
			"type":"VEC3"
		},
		{
			"bufferView":82,
			"componentType":5126,
			"count":24,
			"type":"VEC3"
		},
		{
			"bufferView":83,
			"componentType":5126,
			"count":24,
			"type":"VEC2"
		},
		{
			"bufferView":84,
			"componentType":5126,
			"count":24,
			"max":[
				0,
				2,
				0
			],
			"min":[
				-2,
				0,
				-2
			],
			"type":"VEC3"
		},
		{
			"bufferView":85,
			"componentType":5126,
			"count":24,
			"type":"VEC3"
		},
		{
			"bufferView":86,
			"componentType":5126,
			"count":24,
			"type":"VEC2"
		},
		{
			"bufferView":87,
			"componentType":5126,
			"count":5568,
			"max":[
				0,
				9,
				0
			],
			"min":[
				-11.594999313354492,
				0,
				-0.019999999552965164
			],
			"type":"VEC3"
		},
		{
			"bufferView":88,
			"componentType":5126,
			"count":5568,
			"type":"VEC3"
		},
		{
			"bufferView":89,
			"componentType":5126,
			"count":5568,
			"type":"VEC2"
		},
		{
			"bufferView":90,
			"componentType":5123,
			"count":7656,
			"type":"SCALAR"
		}
	],
	"bufferViews":[
		{
			"buffer":0,
			"byteLength":288,
			"byteOffset":0,
			"target":34962
		},
		{
			"buffer":0,
			"byteLength":288,
			"byteOffset":288,
			"target":34962
		},
		{
			"buffer":0,
			"byteLength":192,
			"byteOffset":576,
			"target":34962
		},
		{
			"buffer":0,
			"byteLength":72,
			"byteOffset":768,
			"target":34963
		},
		{
			"buffer":0,
			"byteLength":288,
			"byteOffset":840,
			"target":34962
		},
		{
			"buffer":0,
			"byteLength":288,
			"byteOffset":1128,
			"target":34962
		},
		{
			"buffer":0,
			"byteLength":192,
			"byteOffset":1416,
			"target":34962
		},
		{
			"buffer":0,
			"byteLength":288,
			"byteOffset":1608,
			"target":34962
		},
		{
			"buffer":0,
			"byteLength":288,
			"byteOffset":1896,
			"target":34962
		},
		{
			"buffer":0,
			"byteLength":192,
			"byteOffset":2184,
			"target":34962
		},
		{
			"buffer":0,
			"byteLength":288,
			"byteOffset":2376,
			"target":34962
		},
		{
			"buffer":0,
			"byteLength":288,
			"byteOffset":2664,
			"target":34962
		},
		{
			"buffer":0,
			"byteLength":192,
			"byteOffset":2952,
			"target":34962
		},
		{
			"buffer":0,
			"byteLength":624,
			"byteOffset":3144,
			"target":34962
		},
		{
			"buffer":0,
			"byteLength":624,
			"byteOffset":3768,
			"target":34962
		},
		{
			"buffer":0,
			"byteLength":416,
			"byteOffset":4392,
			"target":34962
		},
		{
			"buffer":0,
			"byteLength":168,
			"byteOffset":4808,
			"target":34963
		},
		{
			"buffer":0,
			"byteLength":101712,
			"byteOffset":4976,
			"target":34962
		},
		{
			"buffer":0,
			"byteLength":101712,
			"byteOffset":106688,
			"target":34962
		},
		{
			"buffer":0,
			"byteLength":33904,
			"byteOffset":208400,
			"target":34962
		},
		{
			"buffer":0,
			"byteLength":67808,
			"byteOffset":242304,
			"target":34962
		},
		{
			"buffer":0,
			"byteLength":78384,
			"byteOffset":310112,
			"target":34963
		},
		{
			"buffer":0,
			"byteLength":288,
			"byteOffset":388496,
			"target":34962
		},
		{
			"buffer":0,
			"byteLength":288,
			"byteOffset":388784,
			"target":34962
		},
		{
			"buffer":0,
			"byteLength":192,
			"byteOffset":389072,
			"target":34962
		},
		{
			"buffer":0,
			"byteLength":72,
			"byteOffset":389264,
			"target":34963
		},
		{
			"buffer":0,
			"byteLength":288,
			"byteOffset":389336,
			"target":34962
		},
		{
			"buffer":0,
			"byteLength":288,
			"byteOffset":389624,
			"target":34962
		},
		{
			"buffer":0,
			"byteLength":192,
			"byteOffset":389912,
			"target":34962
		},
		{
			"buffer":0,
			"byteLength":288,
			"byteOffset":390104,
			"target":34962
		},
		{
			"buffer":0,
			"byteLength":288,
			"byteOffset":390392,
			"target":34962
		},
		{
			"buffer":0,
			"byteLength":192,
			"byteOffset":390680,
			"target":34962
		},
		{
			"buffer":0,
			"byteLength":72,
			"byteOffset":390872,
			"target":34963
		},
		{
			"buffer":0,
			"byteLength":288,
			"byteOffset":390944,
			"target":34962
		},
		{
			"buffer":0,
			"byteLength":288,
			"byteOffset":391232,
			"target":34962
		},
		{
			"buffer":0,
			"byteLength":192,
			"byteOffset":391520,
			"target":34962
		},
		{
			"buffer":0,
			"byteLength":288,
			"byteOffset":391712,
			"target":34962
		},
		{
			"buffer":0,
			"byteLength":288,
			"byteOffset":392000,
			"target":34962
		},
		{
			"buffer":0,
			"byteLength":192,
			"byteOffset":392288,
			"target":34962
		},
		{
			"buffer":0,
			"byteLength":288,
			"byteOffset":392480,
			"target":34962
		},
		{
			"buffer":0,
			"byteLength":288,
			"byteOffset":392768,
			"target":34962
		},
		{
			"buffer":0,
			"byteLength":192,
			"byteOffset":393056,
			"target":34962
		},
		{
			"buffer":0,
			"byteLength":288,
			"byteOffset":393248,
			"target":34962
		},
		{
			"buffer":0,
			"byteLength":288,
			"byteOffset":393536,
			"target":34962
		},
		{
			"buffer":0,
			"byteLength":192,
			"byteOffset":393824,
			"target":34962
		},
		{
			"buffer":0,
			"byteLength":288,
			"byteOffset":394016,
			"target":34962
		},
		{
			"buffer":0,
			"byteLength":288,
			"byteOffset":394304,
			"target":34962
		},
		{
			"buffer":0,
			"byteLength":192,
			"byteOffset":394592,
			"target":34962
		},
		{
			"buffer":0,
			"byteLength":288,
			"byteOffset":394784,
			"target":34962
		},
		{
			"buffer":0,
			"byteLength":288,
			"byteOffset":395072,
			"target":34962
		},
		{
			"buffer":0,
			"byteLength":192,
			"byteOffset":395360,
			"target":34962
		},
		{
			"buffer":0,
			"byteLength":288,
			"byteOffset":395552,
			"target":34962
		},
		{
			"buffer":0,
			"byteLength":288,
			"byteOffset":395840,
			"target":34962
		},
		{
			"buffer":0,
			"byteLength":192,
			"byteOffset":396128,
			"target":34962
		},
		{
			"buffer":0,
			"byteLength":288,
			"byteOffset":396320,
			"target":34962
		},
		{
			"buffer":0,
			"byteLength":288,
			"byteOffset":396608,
			"target":34962
		},
		{
			"buffer":0,
			"byteLength":192,
			"byteOffset":396896,
			"target":34962
		},
		{
			"buffer":0,
			"byteLength":288,
			"byteOffset":397088,
			"target":34962
		},
		{
			"buffer":0,
			"byteLength":288,
			"byteOffset":397376,
			"target":34962
		},
		{
			"buffer":0,
			"byteLength":192,
			"byteOffset":397664,
			"target":34962
		},
		{
			"buffer":0,
			"byteLength":288,
			"byteOffset":397856,
			"target":34962
		},
		{
			"buffer":0,
			"byteLength":288,
			"byteOffset":398144,
			"target":34962
		},
		{
			"buffer":0,
			"byteLength":192,
			"byteOffset":398432,
			"target":34962
		},
		{
			"buffer":0,
			"byteLength":288,
			"byteOffset":398624,
			"target":34962
		},
		{
			"buffer":0,
			"byteLength":288,
			"byteOffset":398912,
			"target":34962
		},
		{
			"buffer":0,
			"byteLength":192,
			"byteOffset":399200,
			"target":34962
		},
		{
			"buffer":0,
			"byteLength":288,
			"byteOffset":399392,
			"target":34962
		},
		{
			"buffer":0,
			"byteLength":288,
			"byteOffset":399680,
			"target":34962
		},
		{
			"buffer":0,
			"byteLength":192,
			"byteOffset":399968,
			"target":34962
		},
		{
			"buffer":0,
			"byteLength":288,
			"byteOffset":400160,
			"target":34962
		},
		{
			"buffer":0,
			"byteLength":288,
			"byteOffset":400448,
			"target":34962
		},
		{
			"buffer":0,
			"byteLength":192,
			"byteOffset":400736,
			"target":34962
		},
		{
			"buffer":0,
			"byteLength":288,
			"byteOffset":400928,
			"target":34962
		},
		{
			"buffer":0,
			"byteLength":288,
			"byteOffset":401216,
			"target":34962
		},
		{
			"buffer":0,
			"byteLength":192,
			"byteOffset":401504,
			"target":34962
		},
		{
			"buffer":0,
			"byteLength":288,
			"byteOffset":401696,
			"target":34962
		},
		{
			"buffer":0,
			"byteLength":288,
			"byteOffset":401984,
			"target":34962
		},
		{
			"buffer":0,
			"byteLength":192,
			"byteOffset":402272,
			"target":34962
		},
		{
			"buffer":0,
			"byteLength":288,
			"byteOffset":402464,
			"target":34962
		},
		{
			"buffer":0,
			"byteLength":288,
			"byteOffset":402752,
			"target":34962
		},
		{
			"buffer":0,
			"byteLength":192,
			"byteOffset":403040,
			"target":34962
		},
		{
			"buffer":0,
			"byteLength":288,
			"byteOffset":403232,
			"target":34962
		},
		{
			"buffer":0,
			"byteLength":288,
			"byteOffset":403520,
			"target":34962
		},
		{
			"buffer":0,
			"byteLength":192,
			"byteOffset":403808,
			"target":34962
		},
		{
			"buffer":0,
			"byteLength":288,
			"byteOffset":404000,
			"target":34962
		},
		{
			"buffer":0,
			"byteLength":288,
			"byteOffset":404288,
			"target":34962
		},
		{
			"buffer":0,
			"byteLength":192,
			"byteOffset":404576,
			"target":34962
		},
		{
			"buffer":0,
			"byteLength":66816,
			"byteOffset":404768,
			"target":34962
		},
		{
			"buffer":0,
			"byteLength":66816,
			"byteOffset":471584,
			"target":34962
		},
		{
			"buffer":0,
			"byteLength":44544,
			"byteOffset":538400,
			"target":34962
		},
		{
			"buffer":0,
			"byteLength":15312,
			"byteOffset":582944,
			"target":34963
		}
	],
	"samplers":[
		{
			"magFilter":9729,
			"minFilter":9987
		}
	],
	"buffers":[
		{
			"byteLength":598256,
			"uri":"EG_Aussen.bin"
		}
	]
}
