{
	"asset":{
		"generator":"Khronos glTF Blender I/O v5.1.18",
		"version":"2.0"
	},
	"scene":0,
	"scenes":[
		{
			"name":"Scene",
			"nodes":[
				0,
				1
			]
		}
	],
	"nodes":[
		{
			"mesh":0,
			"name":"Boden.006",
			"scale":[
				1,
				0.5,
				1
			],
			"translation":[
				16.250099182128906,
				-0.14999999105930328,
				-5.364019870758057
			]
		},
		{
			"mesh":1,
			"name":"Boden.007",
			"scale":[
				1,
				0.5,
				1
			],
			"translation":[
				16.250099182128906,
				-0.29999998211860657,
				-5.364019870758057
			]
		}
	],
	"materials":[
		{
			"doubleSided":true,
			"name":"Parkett.001",
			"pbrMetallicRoughness":{
				"baseColorTexture":{
					"index":0
				},
				"metallicFactor":0
			}
		},
		{
			"doubleSided":true,
			"name":"Beton_Rough",
			"pbrMetallicRoughness":{
				"baseColorFactor":[
					0.3583049178123474,
					0.3314575254917145,
					0.36859366297721863,
					1
				],
				"metallicFactor":0
			}
		}
	],
	"meshes":[
		{
			"name":"B\u00e9zierCurve.014",
			"primitives":[
				{
					"attributes":{
						"POSITION":0,
						"NORMAL":1,
						"TEXCOORD_0":2
					},
					"indices":3,
					"material":0
				}
			]
		},
		{
			"name":"B\u00e9zierCurve.015",
			"primitives":[
				{
					"attributes":{
						"POSITION":4,
						"NORMAL":5,
						"TEXCOORD_0":6
					},
					"indices":3,
					"material":1
				}
			]
		}
	],
	"textures":[
		{
			"sampler":0,
			"source":0
		}
	],
	"images":[
		{
			"mimeType":"image/jpeg",
			"name":"eicheindustrie.jpg",
			"uri":"eicheindustrie.jpg.jpg"
		}
	],
	"accessors":[
		{
			"bufferView":0,
			"componentType":5126,
			"count":60,
			"max":[
				9.18558120727539,
				0.29999998211860657,
				4.76837158203125e-07
			],
			"min":[
				0,
				0,
				-11.21768856048584
			],
			"type":"VEC3"
		},
		{
			"bufferView":1,
			"componentType":5126,
			"count":60,
			"type":"VEC3"
		},
		{
			"bufferView":2,
			"componentType":5126,
			"count":60,
			"type":"VEC2"
		},
		{
			"bufferView":3,
			"componentType":5123,
			"count":120,
			"type":"SCALAR"
		},
		{
			"bufferView":4,
			"componentType":5126,
			"count":60,
			"max":[
				9.18558120727539,
				0.29999998211860657,
				4.76837158203125e-07
			],
			"min":[
				0,
				0,
				-11.21768856048584
			],
			"type":"VEC3"
		},
		{
			"bufferView":5,
			"componentType":5126,
			"count":60,
			"type":"VEC3"
		},
		{
			"bufferView":6,
			"componentType":5126,
			"count":60,
			"type":"VEC2"
		}
	],
	"bufferViews":[
		{
			"buffer":0,
			"byteLength":720,
			"byteOffset":0,
			"target":34962
		},
		{
			"buffer":0,
			"byteLength":720,
			"byteOffset":720,
			"target":34962
		},
		{
			"buffer":0,
			"byteLength":480,
			"byteOffset":1440,
			"target":34962
		},
		{
			"buffer":0,
			"byteLength":240,
			"byteOffset":1920,
			"target":34963
		},
		{
			"buffer":0,
			"byteLength":720,
			"byteOffset":2160,
			"target":34962
		},
		{
			"buffer":0,
			"byteLength":720,
			"byteOffset":2880,
			"target":34962
		},
		{
			"buffer":0,
			"byteLength":480,
			"byteOffset":3600,
			"target":34962
		}
	],
	"samplers":[
		{
			"magFilter":9729,
			"minFilter":9987
		}
	],
	"buffers":[
		{
			"byteLength":4080,
			"uri":"EG_boden.bin"
		}
	]
}
