{
	"asset":{
		"generator":"Khronos glTF Blender I/O v5.1.18",
		"version":"2.0"
	},
	"scene":0,
	"scenes":[
		{
			"name":"Scene",
			"nodes":[
				0,
				1,
				2,
				3,
				4,
				5,
				6,
				7,
				8
			]
		}
	],
	"nodes":[
		{
			"mesh":0,
			"name":"Cut-Office.002",
			"rotation":[
				0,
				-1,
				0,
				4.371138828673793e-08
			],
			"translation":[
				25.730958938598633,
				0.10954883694648743,
				-15.048215866088867
			]
		},
		{
			"mesh":1,
			"name":"Plane.002_Door_0.001",
			"translation":[
				25.74825668334961,
				0.008571349084377289,
				-14.749635696411133
			]
		},
		{
			"mesh":2,
			"name":"Bad.008",
			"scale":[
				0.0004999999655410647,
				1.1999999284744263,
				0.284683495759964
			],
			"translation":[
				25.747661590576172,
				0,
				-14.706955909729004
			]
		},
		{
			"mesh":3,
			"name":"defaultMaterial.001",
			"rotation":[
				0,
				0.7071068286895752,
				0,
				0.7071068286895752
			],
			"scale":[
				0.009999999776482582,
				0.009999999776482582,
				0.009999999776482582
			],
			"translation":[
				22.810956954956055,
				1.58372962474823,
				-16.855058670043945
			]
		},
		{
			"mesh":4,
			"name":"Blockzarge.033",
			"rotation":[
				0,
				0.7071068286895752,
				0,
				0.7071067094802856
			],
			"scale":[
				0.019999999552965164,
				1.1924999952316284,
				0.019999999552965164
			],
			"translation":[
				22.797731399536133,
				0,
				-15.43401050567627
			]
		},
		{
			"mesh":5,
			"name":"Blockzarge.034",
			"rotation":[
				0,
				-0.7071067094802856,
				0,
				0.7071068286895752
			],
			"scale":[
				0.019999999552965164,
				1.1924999952316284,
				0.019999999552965164
			],
			"translation":[
				23.62173080444336,
				0,
				-15.43401050567627
			]
		},
		{
			"mesh":6,
			"name":"Blockzarge.035",
			"rotation":[
				-0.5,
				-0.5,
				-0.5,
				0.5
			],
			"scale":[
				0.019999999552965164,
				0.41200000047683716,
				0.019999999552965164
			],
			"translation":[
				22.797731399536133,
				2.384999990463257,
				-15.43401050567627
			]
		},
		{
			"mesh":7,
			"name":"T\u00fcrblatt.011",
			"rotation":[
				0,
				-0.7071067094802856,
				0,
				0.7071068286895752
			],
			"scale":[
				0.029999999329447746,
				1.1749999523162842,
				0.41200000047683716
			],
			"translation":[
				22.797731399536133,
				0,
				-15.43401050567627
			]
		},
		{
			"mesh":8,
			"name":"Door.011",
			"rotation":[
				0,
				0.7071068286895752,
				-0.7071068286895752,
				4.144533960470653e-08
			],
			"scale":[
				-0.8666666150093079,
				-1.6450296640396118,
				-1
			],
			"translation":[
				23.527585983276367,
				1.070811152458191,
				-15.43401050567627
			]
		}
	],
	"materials":[
		{
			"doubleSided":true,
			"name":"MetalWhite",
			"pbrMetallicRoughness":{
				"baseColorFactor":[
					0.07787817716598511,
					0.07787817716598511,
					0.07787817716598511,
					1
				],
				"metallicFactor":0.260606050491333,
				"roughnessFactor":0.5638610124588013
			}
		},
		{
			"alphaMode":"BLEND",
			"doubleSided":true,
			"name":"Glass",
			"pbrMetallicRoughness":{
				"baseColorFactor":[
					0.800000011920929,
					0.800000011920929,
					0.800000011920929,
					0.10000000149011612
				],
				"metallicFactor":0,
				"roughnessFactor":0
			}
		},
		{
			"doubleSided":true,
			"name":"Blinds",
			"normalTexture":{
				"index":0
			},
			"occlusionTexture":{
				"index":1
			},
			"pbrMetallicRoughness":{
				"baseColorTexture":{
					"index":2
				},
				"metallicRoughnessTexture":{
					"index":1
				}
			}
		},
		{
			"doubleSided":true,
			"name":"Black.Matt.002",
			"pbrMetallicRoughness":{
				"baseColorFactor":[
					0.010681908577680588,
					0.010681908577680588,
					0.010681908577680588,
					1
				],
				"metallicFactor":0.39263802766799927,
				"roughnessFactor":0.6840490698814392
			}
		}
	],
	"meshes":[
		{
			"name":"Cube.524",
			"primitives":[
				{
					"attributes":{
						"POSITION":0,
						"NORMAL":1,
						"TEXCOORD_0":2
					},
					"indices":3,
					"material":0
				}
			]
		},
		{
			"name":"Plane.002_Door_0.002",
			"primitives":[
				{
					"attributes":{
						"POSITION":4,
						"NORMAL":5,
						"TEXCOORD_0":6,
						"TEXCOORD_1":7,
						"TEXCOORD_2":8
					},
					"indices":9,
					"material":0
				}
			]
		},
		{
			"name":"Cube.525",
			"primitives":[
				{
					"attributes":{
						"POSITION":10,
						"NORMAL":11,
						"TEXCOORD_0":12
					},
					"indices":13,
					"material":1
				}
			]
		},
		{
			"name":"defaultMaterial.008",
			"primitives":[
				{
					"attributes":{
						"POSITION":14,
						"NORMAL":15,
						"TEXCOORD_0":16
					},
					"indices":17,
					"material":2
				}
			]
		},
		{
			"name":"Cube.526",
			"primitives":[
				{
					"attributes":{
						"POSITION":18,
						"NORMAL":19,
						"TEXCOORD_0":20
					},
					"indices":21,
					"material":3
				}
			]
		},
		{
			"name":"Cube.527",
			"primitives":[
				{
					"attributes":{
						"POSITION":22,
						"NORMAL":23,
						"TEXCOORD_0":24
					},
					"indices":21,
					"material":3
				}
			]
		},
		{
			"name":"Cube.528",
			"primitives":[
				{
					"attributes":{
						"POSITION":25,
						"NORMAL":26,
						"TEXCOORD_0":27
					},
					"indices":21,
					"material":3
				}
			]
		},
		{
			"name":"Cube.529",
			"primitives":[
				{
					"attributes":{
						"POSITION":28,
						"NORMAL":29,
						"TEXCOORD_0":30
					},
					"indices":21
				}
			]
		},
		{
			"name":"Plane.001_Glossy_0.015",
			"primitives":[
				{
					"attributes":{
						"POSITION":31,
						"NORMAL":32,
						"TEXCOORD_0":33,
						"TEXCOORD_1":34,
						"TEXCOORD_2":35
					},
					"indices":36,
					"material":3
				}
			]
		}
	],
	"textures":[
		{
			"sampler":0,
			"source":0
		},
		{
			"sampler":0,
			"source":1
		},
		{
			"sampler":0,
			"source":2
		}
	],
	"images":[
		{
			"mimeType":"image/png",
			"name":"Blinds_normal",
			"uri":"Blinds_normal.png"
		},
		{
			"mimeType":"image/png",
			"name":"Blinds_metallicRoughness",
			"uri":"Blinds_metallicRoughness.png"
		},
		{
			"mimeType":"image/jpeg",
			"name":"Blinds_baseColor",
			"uri":"Blinds_baseColor.jpg"
		}
	],
	"accessors":[
		{
			"bufferView":0,
			"componentType":5126,
			"count":143,
			"max":[
				0.008701782673597336,
				2.3404486179351807,
				0.12524428963661194
			],
			"min":[
				-0.03129861503839493,
				-0.10954883694648743,
				-0.38336238265037537
			],
			"type":"VEC3"
		},
		{
			"bufferView":1,
			"componentType":5126,
			"count":143,
			"type":"VEC3"
		},
		{
			"bufferView":2,
			"componentType":5126,
			"count":143,
			"type":"VEC2"
		},
		{
			"bufferView":3,
			"componentType":5123,
			"count":456,
			"type":"SCALAR"
		},
		{
			"bufferView":4,
			"componentType":5126,
			"count":8275,
			"max":[
				0.08030889183282852,
				2.4496047496795654,
				1.100000023841858
			],
			"min":[
				-0.179691344499588,
				-1.6810016711943376e-09,
				-2.5714288653944095e-07
			],
			"type":"VEC3"
		},
		{
			"bufferView":5,
			"componentType":5126,
			"count":8275,
			"type":"VEC3"
		},
		{
			"bufferView":6,
			"componentType":5126,
			"count":8275,
			"type":"VEC2"
		},
		{
			"bufferView":7,
			"componentType":5126,
			"count":8275,
			"type":"VEC2"
		},
		{
			"bufferView":8,
			"componentType":5126,
			"count":8275,
			"type":"VEC2"
		},
		{
			"bufferView":9,
			"componentType":5123,
			"count":30462,
			"type":"SCALAR"
		},
		{
			"bufferView":10,
			"componentType":5126,
			"count":54,
			"max":[
				0.7048683166503906,
				2,
				1.9073486328125e-06
			],
			"min":[
				-1.2951316833496094,
				0,
				-1.9999980926513672
			],
			"type":"VEC3"
		},
		{
			"bufferView":11,
			"componentType":5126,
			"count":54,
			"type":"VEC3"
		},
		{
			"bufferView":12,
			"componentType":5126,
			"count":54,
			"type":"VEC2"
		},
		{
			"bufferView":13,
			"componentType":5123,
			"count":144,
			"type":"SCALAR"
		},
		{
			"bufferView":14,
			"componentType":5126,
			"count":1442,
			"max":[
				5.348236083984375,
				98.95503997802734,
				104.3446044921875
			],
			"min":[
				-5.348236083984375,
				-98.95502471923828,
				-104.3446273803711
			],
			"type":"VEC3"
		},
		{
			"bufferView":15,
			"componentType":5126,
			"count":1442,
			"type":"VEC3"
		},
		{
			"bufferView":16,
			"componentType":5126,
			"count":1442,
			"type":"VEC2"
		},
		{
			"bufferView":17,
			"componentType":5123,
			"count":2316,
			"type":"SCALAR"
		},
		{
			"bufferView":18,
			"componentType":5126,
			"count":24,
			"max":[
				1,
				2,
				0
			],
			"min":[
				-1,
				0,
				-2
			],
			"type":"VEC3"
		},
		{
			"bufferView":19,
			"componentType":5126,
			"count":24,
			"type":"VEC3"
		},
		{
			"bufferView":20,
			"componentType":5126,
			"count":24,
			"type":"VEC2"
		},
		{
			"bufferView":21,
			"componentType":5123,
			"count":36,
			"type":"SCALAR"
		},
		{
			"bufferView":22,
			"componentType":5126,
			"count":24,
			"max":[
				1,
				2,
				0
			],
			"min":[
				-1,
				0,
				-2
			],
			"type":"VEC3"
		},
		{
			"bufferView":23,
			"componentType":5126,
			"count":24,
			"type":"VEC3"
		},
		{
			"bufferView":24,
			"componentType":5126,
			"count":24,
			"type":"VEC2"
		},
		{
			"bufferView":25,
			"componentType":5126,
			"count":24,
			"max":[
				1,
				2,
				0
			],
			"min":[
				-1,
				0,
				-2
			],
			"type":"VEC3"
		},
		{
			"bufferView":26,
			"componentType":5126,
			"count":24,
			"type":"VEC3"
		},
		{
			"bufferView":27,
			"componentType":5126,
			"count":24,
			"type":"VEC2"
		},
		{
			"bufferView":28,
			"componentType":5126,
			"count":24,
			"max":[
				1,
				2,
				0
			],
			"min":[
				-1,
				0,
				-2
			],
			"type":"VEC3"
		},
		{
			"bufferView":29,
			"componentType":5126,
			"count":24,
			"type":"VEC3"
		},
		{
			"bufferView":30,
			"componentType":5126,
			"count":24,
			"type":"VEC2"
		},
		{
			"bufferView":31,
			"componentType":5126,
			"count":1896,
			"max":[
				0.05747199058532715,
				0.058709338307380676,
				0.05469536781311035
			],
			"min":[
				-0.10081350803375244,
				-0.058709368109703064,
				-0.08812892436981201
			],
			"type":"VEC3"
		},
		{
			"bufferView":32,
			"componentType":5126,
			"count":1896,
			"type":"VEC3"
		},
		{
			"bufferView":33,
			"componentType":5126,
			"count":1896,
			"type":"VEC2"
		},
		{
			"bufferView":34,
			"componentType":5126,
			"count":1896,
			"type":"VEC2"
		},
		{
			"bufferView":35,
			"componentType":5126,
			"count":1896,
			"type":"VEC2"
		},
		{
			"bufferView":36,
			"componentType":5123,
			"count":7056,
			"type":"SCALAR"
		}
	],
	"bufferViews":[
		{
			"buffer":0,
			"byteLength":1716,
			"byteOffset":0,
			"target":34962
		},
		{
			"buffer":0,
			"byteLength":1716,
			"byteOffset":1716,
			"target":34962
		},
		{
			"buffer":0,
			"byteLength":1144,
			"byteOffset":3432,
			"target":34962
		},
		{
			"buffer":0,
			"byteLength":912,
			"byteOffset":4576,
			"target":34963
		},
		{
			"buffer":0,
			"byteLength":99300,
			"byteOffset":5488,
			"target":34962
		},
		{
			"buffer":0,
			"byteLength":99300,
			"byteOffset":104788,
			"target":34962
		},
		{
			"buffer":0,
			"byteLength":66200,
			"byteOffset":204088,
			"target":34962
		},
		{
			"buffer":0,
			"byteLength":66200,
			"byteOffset":270288,
			"target":34962
		},
		{
			"buffer":0,
			"byteLength":66200,
			"byteOffset":336488,
			"target":34962
		},
		{
			"buffer":0,
			"byteLength":60924,
			"byteOffset":402688,
			"target":34963
		},
		{
			"buffer":0,
			"byteLength":648,
			"byteOffset":463612,
			"target":34962
		},
		{
			"buffer":0,
			"byteLength":648,
			"byteOffset":464260,
			"target":34962
		},
		{
			"buffer":0,
			"byteLength":432,
			"byteOffset":464908,
			"target":34962
		},
		{
			"buffer":0,
			"byteLength":288,
			"byteOffset":465340,
			"target":34963
		},
		{
			"buffer":0,
			"byteLength":17304,
			"byteOffset":465628,
			"target":34962
		},
		{
			"buffer":0,
			"byteLength":17304,
			"byteOffset":482932,
			"target":34962
		},
		{
			"buffer":0,
			"byteLength":11536,
			"byteOffset":500236,
			"target":34962
		},
		{
			"buffer":0,
			"byteLength":4632,
			"byteOffset":511772,
			"target":34963
		},
		{
			"buffer":0,
			"byteLength":288,
			"byteOffset":516404,
			"target":34962
		},
		{
			"buffer":0,
			"byteLength":288,
			"byteOffset":516692,
			"target":34962
		},
		{
			"buffer":0,
			"byteLength":192,
			"byteOffset":516980,
			"target":34962
		},
		{
			"buffer":0,
			"byteLength":72,
			"byteOffset":517172,
			"target":34963
		},
		{
			"buffer":0,
			"byteLength":288,
			"byteOffset":517244,
			"target":34962
		},
		{
			"buffer":0,
			"byteLength":288,
			"byteOffset":517532,
			"target":34962
		},
		{
			"buffer":0,
			"byteLength":192,
			"byteOffset":517820,
			"target":34962
		},
		{
			"buffer":0,
			"byteLength":288,
			"byteOffset":518012,
			"target":34962
		},
		{
			"buffer":0,
			"byteLength":288,
			"byteOffset":518300,
			"target":34962
		},
		{
			"buffer":0,
			"byteLength":192,
			"byteOffset":518588,
			"target":34962
		},
		{
			"buffer":0,
			"byteLength":288,
			"byteOffset":518780,
			"target":34962
		},
		{
			"buffer":0,
			"byteLength":288,
			"byteOffset":519068,
			"target":34962
		},
		{
			"buffer":0,
			"byteLength":192,
			"byteOffset":519356,
			"target":34962
		},
		{
			"buffer":0,
			"byteLength":22752,
			"byteOffset":519548,
			"target":34962
		},
		{
			"buffer":0,
			"byteLength":22752,
			"byteOffset":542300,
			"target":34962
		},
		{
			"buffer":0,
			"byteLength":15168,
			"byteOffset":565052,
			"target":34962
		},
		{
			"buffer":0,
			"byteLength":15168,
			"byteOffset":580220,
			"target":34962
		},
		{
			"buffer":0,
			"byteLength":15168,
			"byteOffset":595388,
			"target":34962
		},
		{
			"buffer":0,
			"byteLength":14112,
			"byteOffset":610556,
			"target":34963
		}
	],
	"samplers":[
		{
			"magFilter":9729,
			"minFilter":9987
		}
	],
	"buffers":[
		{
			"byteLength":624668,
			"uri":"EG_Fenster.bin"
		}
	]
}
