{
	"asset":{
		"generator":"Khronos glTF Blender I/O v5.1.18",
		"version":"2.0"
	},
	"extensionsUsed":[
		"KHR_materials_specular",
		"KHR_materials_unlit"
	],
	"scene":0,
	"scenes":[
		{
			"name":"Scene",
			"nodes":[
				0,
				1,
				2,
				3,
				4,
				5,
				6,
				7,
				8,
				9,
				10,
				11,
				12,
				13,
				14,
				15,
				16
			]
		}
	],
	"nodes":[
		{
			"mesh":0,
			"name":"round_table_low.001",
			"rotation":[
				0.6468449234962463,
				0.2856420874595642,
				-0.2856420874595642,
				0.6468452215194702
			],
			"scale":[
				0.007499997969716787,
				0.0075148241594433784,
				0.009999999776482582
			],
			"translation":[
				23.50913429260254,
				0.7427851557731628,
				-6.448965549468994
			]
		},
		{
			"mesh":1,
			"name":"3d-model.004",
			"rotation":[
				0.6612163186073303,
				0.2505851984024048,
				-0.2505852282047272,
				0.6612163782119751
			],
			"scale":[
				0.02663411572575569,
				0.02663411572575569,
				0.02663411572575569
			],
			"translation":[
				23.066837310791016,
				0,
				-6.964722156524658
			]
		},
		{
			"mesh":2,
			"name":"3d-model.005",
			"rotation":[
				0.17611804604530334,
				-0.6848229765892029,
				0.6848229169845581,
				0.17611806094646454
			],
			"scale":[
				0.026634113863110542,
				0.026634113863110542,
				0.02663411572575569
			],
			"translation":[
				24.04269027709961,
				0,
				-5.811859130859375
			]
		},
		{
			"mesh":3,
			"name":"3d-model.006",
			"rotation":[
				0.30170634388923645,
				0.6395102143287659,
				-0.6395101547241211,
				0.30170637369155884
			],
			"scale":[
				0.02663411758840084,
				0.02663411758840084,
				0.02663411572575569
			],
			"translation":[
				22.9537296295166,
				-0.00117466039955616,
				-5.951356410980225
			]
		},
		{
			"mesh":4,
			"name":"3d-model.007",
			"rotation":[
				0.6432307958602905,
				-0.29369062185287476,
				0.29369059205055237,
				0.6432307958602905
			],
			"scale":[
				0.026634113863110542,
				0.026634113863110542,
				0.02663411572575569
			],
			"translation":[
				24.022716522216797,
				0,
				-7.0056071281433105
			]
		},
		{
			"mesh":5,
			"name":"Object_3.004",
			"rotation":[
				-0.7021012306213379,
				-0.08398827910423279,
				-0.083988256752491,
				0.7021009922027588
			],
			"scale":[
				0.1398058831691742,
				0.1398058831691742,
				0.139805868268013
			],
			"translation":[
				23.700742721557617,
				0.7656770944595337,
				-6.631302833557129
			]
		},
		{
			"mesh":6,
			"name":"Object_3.005",
			"rotation":[
				-0.3979073166847229,
				-0.5845254063606262,
				-0.5845252871513367,
				0.39790716767311096
			],
			"scale":[
				0.1398058831691742,
				0.1398058831691742,
				0.1398058533668518
			],
			"translation":[
				23.708271026611328,
				0.7656770944595337,
				-6.250181198120117
			]
		},
		{
			"mesh":7,
			"name":"Object_3.006",
			"rotation":[
				-0.13647295534610748,
				0.6938121914863586,
				0.69381183385849,
				0.1364728957414627
			],
			"scale":[
				0.139805868268013,
				0.1398058831691742,
				0.1398058533668518
			],
			"translation":[
				23.322200775146484,
				0.7656770944595337,
				-6.281587600708008
			]
		},
		{
			"mesh":8,
			"name":"Object_3.007",
			"rotation":[
				-0.5724007487297058,
				0.4151597321033478,
				0.41515958309173584,
				0.5724004507064819
			],
			"scale":[
				0.1398058831691742,
				0.1398058831691742,
				0.139805868268013
			],
			"translation":[
				23.31120491027832,
				0.7656770944595337,
				-6.623970985412598
			]
		},
		{
			"mesh":9,
			"name":"Object_4.004",
			"rotation":[
				-0.7021012902259827,
				-0.08398827165365219,
				-0.0839882642030716,
				0.702100932598114
			],
			"scale":[
				0.1398058831691742,
				0.1398058384656906,
				0.13980582356452942
			],
			"translation":[
				23.280353546142578,
				0.49619191884994507,
				-6.619239330291748
			]
		},
		{
			"mesh":10,
			"name":"Object_5.004",
			"rotation":[
				-0.7021012902259827,
				-0.08398827165365219,
				-0.0839882642030716,
				0.702100932598114
			],
			"scale":[
				0.1398058831691742,
				0.1398058384656906,
				0.13980582356452942
			],
			"translation":[
				23.280353546142578,
				0.49619191884994507,
				-6.619239330291748
			]
		},
		{
			"mesh":11,
			"name":"Object_4.005",
			"rotation":[
				-0.3979073166847229,
				-0.5845253467559814,
				-0.5845252871513367,
				0.3979070782661438
			],
			"scale":[
				0.1398058831691742,
				0.1398058384656906,
				0.13980580866336823
			],
			"translation":[
				23.753868103027344,
				0.4961917996406555,
				-6.668263912200928
			]
		},
		{
			"mesh":12,
			"name":"Object_5.005",
			"rotation":[
				-0.3979073166847229,
				-0.5845253467559814,
				-0.5845252871513367,
				0.3979070782661438
			],
			"scale":[
				0.1398058831691742,
				0.1398058384656906,
				0.13980580866336823
			],
			"translation":[
				23.753868103027344,
				0.4961917996406555,
				-6.668263912200928
			]
		},
		{
			"mesh":13,
			"name":"Object_4.006",
			"rotation":[
				-0.13647297024726868,
				0.6938121914863586,
				0.6938118934631348,
				0.13647286593914032
			],
			"scale":[
				0.139805868268013,
				0.13980582356452942,
				0.13980580866336823
			],
			"translation":[
				23.739656448364258,
				0.49619197845458984,
				-6.230557918548584
			]
		},
		{
			"mesh":14,
			"name":"Object_5.006",
			"rotation":[
				-0.13647297024726868,
				0.6938121914863586,
				0.6938118934631348,
				0.13647286593914032
			],
			"scale":[
				0.139805868268013,
				0.13980582356452942,
				0.13980580866336823
			],
			"translation":[
				23.739656448364258,
				0.49619197845458984,
				-6.230557918548584
			]
		},
		{
			"mesh":15,
			"name":"Object_4.007",
			"rotation":[
				-0.5724007487297058,
				0.4151597321033478,
				0.4151596426963806,
				0.5724005103111267
			],
			"scale":[
				0.1398058831691742,
				0.1398058384656906,
				0.13980582356452942
			],
			"translation":[
				23.29060935974121,
				0.4961920976638794,
				-6.203913688659668
			]
		},
		{
			"mesh":16,
			"name":"Object_5.007",
			"rotation":[
				-0.5724007487297058,
				0.4151597321033478,
				0.4151596426963806,
				0.5724005103111267
			],
			"scale":[
				0.1398058831691742,
				0.1398058384656906,
				0.13980582356452942
			],
			"translation":[
				23.29060935974121,
				0.4961920976638794,
				-6.203913688659668
			]
		}
	],
	"materials":[
		{
			"doubleSided":true,
			"name":"IE_wood_beech_v1_alt1",
			"pbrMetallicRoughness":{
				"baseColorFactor":[
					0.5,
					0.5,
					0.5,
					1
				],
				"metallicFactor":0,
				"roughnessFactor":0.5527864098548889
			}
		},
		{
			"doubleSided":true,
			"extensions":{
				"KHR_materials_specular":{
					"specularFactor":0
				}
			},
			"name":"skp_front_default",
			"pbrMetallicRoughness":{
				"baseColorFactor":[
					0.800000011920929,
					0.800000011920929,
					0.800000011920929,
					1
				],
				"metallicFactor":0
			}
		},
		{
			"doubleSided":true,
			"extensions":{
				"KHR_materials_specular":{
					"specularFactor":0
				}
			},
			"name":"plastic_wit",
			"pbrMetallicRoughness":{
				"baseColorFactor":[
					0.800000011920929,
					0.800000011920929,
					0.800000011920929,
					1
				],
				"metallicFactor":0
			}
		},
		{
			"doubleSided":true,
			"extensions":{
				"KHR_materials_specular":{
					"specularFactor":0
				}
			},
			"name":"Material1",
			"pbrMetallicRoughness":{
				"baseColorFactor":[
					0.800000011920929,
					0.800000011920929,
					0.800000011920929,
					1
				],
				"metallicFactor":0
			}
		},
		{
			"doubleSided":true,
			"extensions":{
				"KHR_materials_specular":{
					"specularFactor":0
				}
			},
			"name":"onderstel",
			"pbrMetallicRoughness":{
				"baseColorFactor":[
					0.800000011920929,
					0.800000011920929,
					0.800000011920929,
					1
				],
				"metallicFactor":0
			}
		},
		{
			"doubleSided":true,
			"extensions":{
				"KHR_materials_unlit":{}
			},
			"name":"lambert3SG",
			"pbrMetallicRoughness":{
				"baseColorTexture":{
					"index":0
				},
				"metallicFactor":0,
				"roughnessFactor":0.9
			}
		},
		{
			"doubleSided":true,
			"extensions":{
				"KHR_materials_unlit":{}
			},
			"name":"lambert4SG",
			"pbrMetallicRoughness":{
				"baseColorTexture":{
					"index":1
				},
				"metallicFactor":0,
				"roughnessFactor":0.9
			}
		},
		{
			"doubleSided":true,
			"extensions":{
				"KHR_materials_unlit":{}
			},
			"name":"lambert5SG",
			"pbrMetallicRoughness":{
				"baseColorTexture":{
					"index":2
				},
				"metallicFactor":0,
				"roughnessFactor":0.9
			}
		}
	],
	"meshes":[
		{
			"name":"Mesh.056",
			"primitives":[
				{
					"attributes":{
						"POSITION":0,
						"NORMAL":1,
						"TEXCOORD_0":2,
						"TEXCOORD_1":3
					},
					"indices":4,
					"material":0
				}
			]
		},
		{
			"name":"3d-model.026",
			"primitives":[
				{
					"attributes":{
						"POSITION":5,
						"NORMAL":6,
						"TEXCOORD_0":7
					},
					"indices":8,
					"material":1
				},
				{
					"attributes":{
						"POSITION":9,
						"NORMAL":10,
						"TEXCOORD_0":11
					},
					"indices":12,
					"material":2
				},
				{
					"attributes":{
						"POSITION":13,
						"NORMAL":14,
						"TEXCOORD_0":15
					},
					"indices":16,
					"material":3
				},
				{
					"attributes":{
						"POSITION":17,
						"NORMAL":18,
						"TEXCOORD_0":19
					},
					"indices":20,
					"material":4
				}
			]
		},
		{
			"name":"3d-model.027",
			"primitives":[
				{
					"attributes":{
						"POSITION":21,
						"NORMAL":22,
						"TEXCOORD_0":23
					},
					"indices":8,
					"material":1
				},
				{
					"attributes":{
						"POSITION":24,
						"NORMAL":25,
						"TEXCOORD_0":26
					},
					"indices":12,
					"material":2
				},
				{
					"attributes":{
						"POSITION":27,
						"NORMAL":28,
						"TEXCOORD_0":29
					},
					"indices":16,
					"material":3
				},
				{
					"attributes":{
						"POSITION":30,
						"NORMAL":31,
						"TEXCOORD_0":32
					},
					"indices":20,
					"material":4
				}
			]
		},
		{
			"name":"3d-model.028",
			"primitives":[
				{
					"attributes":{
						"POSITION":33,
						"NORMAL":34,
						"TEXCOORD_0":35
					},
					"indices":8,
					"material":1
				},
				{
					"attributes":{
						"POSITION":36,
						"NORMAL":37,
						"TEXCOORD_0":38
					},
					"indices":12,
					"material":2
				},
				{
					"attributes":{
						"POSITION":39,
						"NORMAL":40,
						"TEXCOORD_0":41
					},
					"indices":16,
					"material":3
				},
				{
					"attributes":{
						"POSITION":42,
						"NORMAL":43,
						"TEXCOORD_0":44
					},
					"indices":20,
					"material":4
				}
			]
		},
		{
			"name":"3d-model.029",
			"primitives":[
				{
					"attributes":{
						"POSITION":45,
						"NORMAL":46,
						"TEXCOORD_0":47
					},
					"indices":8,
					"material":1
				},
				{
					"attributes":{
						"POSITION":48,
						"NORMAL":49,
						"TEXCOORD_0":50
					},
					"indices":12,
					"material":2
				},
				{
					"attributes":{
						"POSITION":51,
						"NORMAL":52,
						"TEXCOORD_0":53
					},
					"indices":16,
					"material":3
				},
				{
					"attributes":{
						"POSITION":54,
						"NORMAL":55,
						"TEXCOORD_0":56
					},
					"indices":20,
					"material":4
				}
			]
		},
		{
			"name":"Object_1.008",
			"primitives":[
				{
					"attributes":{
						"POSITION":57,
						"NORMAL":58,
						"TEXCOORD_0":59
					},
					"indices":60,
					"material":5
				}
			]
		},
		{
			"name":"Object_1.009",
			"primitives":[
				{
					"attributes":{
						"POSITION":61,
						"NORMAL":62,
						"TEXCOORD_0":63
					},
					"indices":60,
					"material":5
				}
			]
		},
		{
			"name":"Object_1.010",
			"primitives":[
				{
					"attributes":{
						"POSITION":64,
						"NORMAL":65,
						"TEXCOORD_0":66
					},
					"indices":60,
					"material":5
				}
			]
		},
		{
			"name":"Object_1.011",
			"primitives":[
				{
					"attributes":{
						"POSITION":67,
						"NORMAL":68,
						"TEXCOORD_0":69
					},
					"indices":60,
					"material":5
				}
			]
		},
		{
			"name":"Object_2.011",
			"primitives":[
				{
					"attributes":{
						"POSITION":70,
						"NORMAL":71,
						"TEXCOORD_0":72
					},
					"indices":73,
					"material":6
				}
			]
		},
		{
			"name":"Object_3.008",
			"primitives":[
				{
					"attributes":{
						"POSITION":74,
						"NORMAL":75,
						"TEXCOORD_0":76
					},
					"indices":77,
					"material":7
				}
			]
		},
		{
			"name":"Object_2.012",
			"primitives":[
				{
					"attributes":{
						"POSITION":78,
						"NORMAL":79,
						"TEXCOORD_0":80
					},
					"indices":73,
					"material":6
				}
			]
		},
		{
			"name":"Object_3.009",
			"primitives":[
				{
					"attributes":{
						"POSITION":81,
						"NORMAL":82,
						"TEXCOORD_0":83
					},
					"indices":77,
					"material":7
				}
			]
		},
		{
			"name":"Object_2.013",
			"primitives":[
				{
					"attributes":{
						"POSITION":84,
						"NORMAL":85,
						"TEXCOORD_0":86
					},
					"indices":73,
					"material":6
				}
			]
		},
		{
			"name":"Object_3.010",
			"primitives":[
				{
					"attributes":{
						"POSITION":87,
						"NORMAL":88,
						"TEXCOORD_0":89
					},
					"indices":77,
					"material":7
				}
			]
		},
		{
			"name":"Object_2.014",
			"primitives":[
				{
					"attributes":{
						"POSITION":90,
						"NORMAL":91,
						"TEXCOORD_0":92
					},
					"indices":73,
					"material":6
				}
			]
		},
		{
			"name":"Object_3.011",
			"primitives":[
				{
					"attributes":{
						"POSITION":93,
						"NORMAL":94,
						"TEXCOORD_0":95
					},
					"indices":77,
					"material":7
				}
			]
		}
	],
	"textures":[
		{
			"sampler":0,
			"source":0
		},
		{
			"sampler":0,
			"source":1
		},
		{
			"sampler":0,
			"source":2
		}
	],
	"images":[
		{
			"mimeType":"image/png",
			"name":"Image_1",
			"uri":"Image_1.png"
		},
		{
			"mimeType":"image/png",
			"name":"Image_2",
			"uri":"Image_2.png"
		},
		{
			"mimeType":"image/png",
			"name":"Image_3",
			"uri":"Image_3.png"
		}
	],
	"accessors":[
		{
			"bufferView":0,
			"componentType":5126,
			"count":822,
			"max":[
				60.000003814697266,
				59.88163757324219,
				74.45518493652344
			],
			"min":[
				-60.000030517578125,
				-59.881629943847656,
				-1.9275819063186646
			],
			"type":"VEC3"
		},
		{
			"bufferView":1,
			"componentType":5126,
			"count":822,
			"type":"VEC3"
		},
		{
			"bufferView":2,
			"componentType":5126,
			"count":822,
			"type":"VEC2"
		},
		{
			"bufferView":3,
			"componentType":5126,
			"count":822,
			"type":"VEC2"
		},
		{
			"bufferView":4,
			"componentType":5123,
			"count":1776,
			"type":"SCALAR"
		},
		{
			"bufferView":5,
			"componentType":5126,
			"count":582,
			"max":[
				4.968100070953369,
				5.205399990081787,
				-15.326600074768066
			],
			"min":[
				-4.968100070953369,
				-3.043299913406372,
				-16.82390022277832
			],
			"type":"VEC3"
		},
		{
			"bufferView":6,
			"componentType":5126,
			"count":582,
			"type":"VEC3"
		},
		{
			"bufferView":7,
			"componentType":5126,
			"count":582,
			"type":"VEC2"
		},
		{
			"bufferView":8,
			"componentType":5123,
			"count":720,
			"type":"SCALAR"
		},
		{
			"bufferView":9,
			"componentType":5126,
			"count":2476,
			"max":[
				9.238100051879883,
				10.030099868774414,
				-15.460399627685547
			],
			"min":[
				-9.238100051879883,
				-10.030099868774414,
				-31.76020050048828
			],
			"type":"VEC3"
		},
		{
			"bufferView":10,
			"componentType":5126,
			"count":2476,
			"type":"VEC3"
		},
		{
			"bufferView":11,
			"componentType":5126,
			"count":2476,
			"type":"VEC2"
		},
		{
			"bufferView":12,
			"componentType":5123,
			"count":11334,
			"type":"SCALAR"
		},
		{
			"bufferView":13,
			"componentType":5126,
			"count":2890,
			"max":[
				8.043600082397461,
				8.515800476074219,
				-0.28450000286102295
			],
			"min":[
				-7.97730016708374,
				-7.582799911499023,
				-14.674200057983398
			],
			"type":"VEC3"
		},
		{
			"bufferView":14,
			"componentType":5126,
			"count":2890,
			"type":"VEC3"
		},
		{
			"bufferView":15,
			"componentType":5126,
			"count":2890,
			"type":"VEC2"
		},
		{
			"bufferView":16,
			"componentType":5123,
			"count":4611,
			"type":"SCALAR"
		},
		{
			"bufferView":17,
			"componentType":5126,
			"count":5810,
			"max":[
				8.043700218200684,
				8.515999794006348,
				0
			],
			"min":[
				-7.977399826049805,
				-7.583000183105469,
				-16.15250015258789
			],
			"type":"VEC3"
		},
		{
			"bufferView":18,
			"componentType":5126,
			"count":5810,
			"type":"VEC3"
		},
		{
			"bufferView":19,
			"componentType":5126,
			"count":5810,
			"type":"VEC2"
		},
		{
			"bufferView":20,
			"componentType":5123,
			"count":8979,
			"type":"SCALAR"
		},
		{
			"bufferView":21,
			"componentType":5126,
			"count":582,
			"max":[
				4.968100070953369,
				5.205399990081787,
				-15.326600074768066
			],
			"min":[
				-4.968100070953369,
				-3.043299913406372,
				-16.82390022277832
			],
			"type":"VEC3"
		},
		{
			"bufferView":22,
			"componentType":5126,
			"count":582,
			"type":"VEC3"
		},
		{
			"bufferView":23,
			"componentType":5126,
			"count":582,
			"type":"VEC2"
		},
		{
			"bufferView":24,
			"componentType":5126,
			"count":2476,
			"max":[
				9.238100051879883,
				10.030099868774414,
				-15.460399627685547
			],
			"min":[
				-9.238100051879883,
				-10.030099868774414,
				-31.76020050048828
			],
			"type":"VEC3"
		},
		{
			"bufferView":25,
			"componentType":5126,
			"count":2476,
			"type":"VEC3"
		},
		{
			"bufferView":26,
			"componentType":5126,
			"count":2476,
			"type":"VEC2"
		},
		{
			"bufferView":27,
			"componentType":5126,
			"count":2890,
			"max":[
				8.043600082397461,
				8.515800476074219,
				-0.28450000286102295
			],
			"min":[
				-7.97730016708374,
				-7.582799911499023,
				-14.674200057983398
			],
			"type":"VEC3"
		},
		{
			"bufferView":28,
			"componentType":5126,
			"count":2890,
			"type":"VEC3"
		},
		{
			"bufferView":29,
			"componentType":5126,
			"count":2890,
			"type":"VEC2"
		},
		{
			"bufferView":30,
			"componentType":5126,
			"count":5810,
			"max":[
				8.043700218200684,
				8.515999794006348,
				0
			],
			"min":[
				-7.977399826049805,
				-7.583000183105469,
				-16.15250015258789
			],
			"type":"VEC3"
		},
		{
			"bufferView":31,
			"componentType":5126,
			"count":5810,
			"type":"VEC3"
		},
		{
			"bufferView":32,
			"componentType":5126,
			"count":5810,
			"type":"VEC2"
		},
		{
			"bufferView":33,
			"componentType":5126,
			"count":582,
			"max":[
				4.968100070953369,
				5.205399990081787,
				-15.326600074768066
			],
			"min":[
				-4.968100070953369,
				-3.043299913406372,
				-16.82390022277832
			],
			"type":"VEC3"
		},
		{
			"bufferView":34,
			"componentType":5126,
			"count":582,
			"type":"VEC3"
		},
		{
			"bufferView":35,
			"componentType":5126,
			"count":582,
			"type":"VEC2"
		},
		{
			"bufferView":36,
			"componentType":5126,
			"count":2476,
			"max":[
				9.238100051879883,
				10.030099868774414,
				-15.460399627685547
			],
			"min":[
				-9.238100051879883,
				-10.030099868774414,
				-31.76020050048828
			],
			"type":"VEC3"
		},
		{
			"bufferView":37,
			"componentType":5126,
			"count":2476,
			"type":"VEC3"
		},
		{
			"bufferView":38,
			"componentType":5126,
			"count":2476,
			"type":"VEC2"
		},
		{
			"bufferView":39,
			"componentType":5126,
			"count":2890,
			"max":[
				8.043600082397461,
				8.515800476074219,
				-0.28450000286102295
			],
			"min":[
				-7.97730016708374,
				-7.582799911499023,
				-14.674200057983398
			],
			"type":"VEC3"
		},
		{
			"bufferView":40,
			"componentType":5126,
			"count":2890,
			"type":"VEC3"
		},
		{
			"bufferView":41,
			"componentType":5126,
			"count":2890,
			"type":"VEC2"
		},
		{
			"bufferView":42,
			"componentType":5126,
			"count":5810,
			"max":[
				8.043700218200684,
				8.515999794006348,
				0
			],
			"min":[
				-7.977399826049805,
				-7.583000183105469,
				-16.15250015258789
			],
			"type":"VEC3"
		},
		{
			"bufferView":43,
			"componentType":5126,
			"count":5810,
			"type":"VEC3"
		},
		{
			"bufferView":44,
			"componentType":5126,
			"count":5810,
			"type":"VEC2"
		},
		{
			"bufferView":45,
			"componentType":5126,
			"count":582,
			"max":[
				4.968100070953369,
				5.205399990081787,
				-15.326600074768066
			],
			"min":[
				-4.968100070953369,
				-3.043299913406372,
				-16.82390022277832
			],
			"type":"VEC3"
		},
		{
			"bufferView":46,
			"componentType":5126,
			"count":582,
			"type":"VEC3"
		},
		{
			"bufferView":47,
			"componentType":5126,
			"count":582,
			"type":"VEC2"
		},
		{
			"bufferView":48,
			"componentType":5126,
			"count":2476,
			"max":[
				9.238100051879883,
				10.030099868774414,
				-15.460399627685547
			],
			"min":[
				-9.238100051879883,
				-10.030099868774414,
				-31.76020050048828
			],
			"type":"VEC3"
		},
		{
			"bufferView":49,
			"componentType":5126,
			"count":2476,
			"type":"VEC3"
		},
		{
			"bufferView":50,
			"componentType":5126,
			"count":2476,
			"type":"VEC2"
		},
		{
			"bufferView":51,
			"componentType":5126,
			"count":2890,
			"max":[
				8.043600082397461,
				8.515800476074219,
				-0.28450000286102295
			],
			"min":[
				-7.97730016708374,
				-7.582799911499023,
				-14.674200057983398
			],
			"type":"VEC3"
		},
		{
			"bufferView":52,
			"componentType":5126,
			"count":2890,
			"type":"VEC3"
		},
		{
			"bufferView":53,
			"componentType":5126,
			"count":2890,
			"type":"VEC2"
		},
		{
			"bufferView":54,
			"componentType":5126,
			"count":5810,
			"max":[
				8.043700218200684,
				8.515999794006348,
				0
			],
			"min":[
				-7.977399826049805,
				-7.583000183105469,
				-16.15250015258789
			],
			"type":"VEC3"
		},
		{
			"bufferView":55,
			"componentType":5126,
			"count":5810,
			"type":"VEC3"
		},
		{
			"bufferView":56,
			"componentType":5126,
			"count":5810,
			"type":"VEC2"
		},
		{
			"bufferView":57,
			"componentType":5126,
			"count":522,
			"max":[
				1.092453956604004,
				0.8943670988082886,
				0.6711301803588867
			],
			"min":[
				-1.7524750232696533,
				-1.018968939781189,
				-0.02810577116906643
			],
			"type":"VEC3"
		},
		{
			"bufferView":58,
			"componentType":5126,
			"count":522,
			"type":"VEC3"
		},
		{
			"bufferView":59,
			"componentType":5126,
			"count":522,
			"type":"VEC2"
		},
		{
			"bufferView":60,
			"componentType":5123,
			"count":1974,
			"type":"SCALAR"
		},
		{
			"bufferView":61,
			"componentType":5126,
			"count":522,
			"max":[
				1.092453956604004,
				0.8943670988082886,
				0.6711301803588867
			],
			"min":[
				-1.7524750232696533,
				-1.018968939781189,
				-0.02810577116906643
			],
			"type":"VEC3"
		},
		{
			"bufferView":62,
			"componentType":5126,
			"count":522,
			"type":"VEC3"
		},
		{
			"bufferView":63,
			"componentType":5126,
			"count":522,
			"type":"VEC2"
		},
		{
			"bufferView":64,
			"componentType":5126,
			"count":522,
			"max":[
				1.092453956604004,
				0.8943670988082886,
				0.6711301803588867
			],
			"min":[
				-1.7524750232696533,
				-1.018968939781189,
				-0.02810577116906643
			],
			"type":"VEC3"
		},
		{
			"bufferView":65,
			"componentType":5126,
			"count":522,
			"type":"VEC3"
		},
		{
			"bufferView":66,
			"componentType":5126,
			"count":522,
			"type":"VEC2"
		},
		{
			"bufferView":67,
			"componentType":5126,
			"count":522,
			"max":[
				1.092453956604004,
				0.8943670988082886,
				0.6711301803588867
			],
			"min":[
				-1.7524750232696533,
				-1.018968939781189,
				-0.02810577116906643
			],
			"type":"VEC3"
		},
		{
			"bufferView":68,
			"componentType":5126,
			"count":522,
			"type":"VEC3"
		},
		{
			"bufferView":69,
			"componentType":5126,
			"count":522,
			"type":"VEC2"
		},
		{
			"bufferView":70,
			"componentType":5126,
			"count":568,
			"max":[
				3.6431760787963867,
				2.0737431049346924,
				2.2535040378570557
			],
			"min":[
				1.5343049764633179,
				-0.0032550001051276922,
				1.9057459831237793
			],
			"type":"VEC3"
		},
		{
			"bufferView":71,
			"componentType":5126,
			"count":568,
			"type":"VEC3"
		},
		{
			"bufferView":72,
			"componentType":5126,
			"count":568,
			"type":"VEC2"
		},
		{
			"bufferView":73,
			"componentType":5123,
			"count":2100,
			"type":"SCALAR"
		},
		{
			"bufferView":74,
			"componentType":5126,
			"count":552,
			"max":[
				3.774876117706299,
				1.4689699411392212,
				2.279299020767212
			],
			"min":[
				2.237355947494507,
				0.18277600407600403,
				1.9538609981536865
			],
			"type":"VEC3"
		},
		{
			"bufferView":75,
			"componentType":5126,
			"count":552,
			"type":"VEC3"
		},
		{
			"bufferView":76,
			"componentType":5126,
			"count":552,
			"type":"VEC2"
		},
		{
			"bufferView":77,
			"componentType":5123,
			"count":2616,
			"type":"SCALAR"
		},
		{
			"bufferView":78,
			"componentType":5126,
			"count":568,
			"max":[
				3.6431760787963867,
				2.0737431049346924,
				2.2535040378570557
			],
			"min":[
				1.5343049764633179,
				-0.0032550001051276922,
				1.9057459831237793
			],
			"type":"VEC3"
		},
		{
			"bufferView":79,
			"componentType":5126,
			"count":568,
			"type":"VEC3"
		},
		{
			"bufferView":80,
			"componentType":5126,
			"count":568,
			"type":"VEC2"
		},
		{
			"bufferView":81,
			"componentType":5126,
			"count":552,
			"max":[
				3.774876117706299,
				1.4689699411392212,
				2.279299020767212
			],
			"min":[
				2.237355947494507,
				0.18277600407600403,
				1.9538609981536865
			],
			"type":"VEC3"
		},
		{
			"bufferView":82,
			"componentType":5126,
			"count":552,
			"type":"VEC3"
		},
		{
			"bufferView":83,
			"componentType":5126,
			"count":552,
			"type":"VEC2"
		},
		{
			"bufferView":84,
			"componentType":5126,
			"count":568,
			"max":[
				3.6431760787963867,
				2.0737431049346924,
				2.2535040378570557
			],
			"min":[
				1.5343049764633179,
				-0.0032550001051276922,
				1.9057459831237793
			],
			"type":"VEC3"
		},
		{
			"bufferView":85,
			"componentType":5126,
			"count":568,
			"type":"VEC3"
		},
		{
			"bufferView":86,
			"componentType":5126,
			"count":568,
			"type":"VEC2"
		},
		{
			"bufferView":87,
			"componentType":5126,
			"count":552,
			"max":[
				3.774876117706299,
				1.4689699411392212,
				2.279299020767212
			],
			"min":[
				2.237355947494507,
				0.18277600407600403,
				1.9538609981536865
			],
			"type":"VEC3"
		},
		{
			"bufferView":88,
			"componentType":5126,
			"count":552,
			"type":"VEC3"
		},
		{
			"bufferView":89,
			"componentType":5126,
			"count":552,
			"type":"VEC2"
		},
		{
			"bufferView":90,
			"componentType":5126,
			"count":568,
			"max":[
				3.6431760787963867,
				2.0737431049346924,
				2.2535040378570557
			],
			"min":[
				1.5343049764633179,
				-0.0032550001051276922,
				1.9057459831237793
			],
			"type":"VEC3"
		},
		{
			"bufferView":91,
			"componentType":5126,
			"count":568,
			"type":"VEC3"
		},
		{
			"bufferView":92,
			"componentType":5126,
			"count":568,
			"type":"VEC2"
		},
		{
			"bufferView":93,
			"componentType":5126,
			"count":552,
			"max":[
				3.774876117706299,
				1.4689699411392212,
				2.279299020767212
			],
			"min":[
				2.237355947494507,
				0.18277600407600403,
				1.9538609981536865
			],
			"type":"VEC3"
		},
		{
			"bufferView":94,
			"componentType":5126,
			"count":552,
			"type":"VEC3"
		},
		{
			"bufferView":95,
			"componentType":5126,
			"count":552,
			"type":"VEC2"
		}
	],
	"bufferViews":[
		{
			"buffer":0,
			"byteLength":9864,
			"byteOffset":0,
			"target":34962
		},
		{
			"buffer":0,
			"byteLength":9864,
			"byteOffset":9864,
			"target":34962
		},
		{
			"buffer":0,
			"byteLength":6576,
			"byteOffset":19728,
			"target":34962
		},
		{
			"buffer":0,
			"byteLength":6576,
			"byteOffset":26304,
			"target":34962
		},
		{
			"buffer":0,
			"byteLength":3552,
			"byteOffset":32880,
			"target":34963
		},
		{
			"buffer":0,
			"byteLength":6984,
			"byteOffset":36432,
			"target":34962
		},
		{
			"buffer":0,
			"byteLength":6984,
			"byteOffset":43416,
			"target":34962
		},
		{
			"buffer":0,
			"byteLength":4656,
			"byteOffset":50400,
			"target":34962
		},
		{
			"buffer":0,
			"byteLength":1440,
			"byteOffset":55056,
			"target":34963
		},
		{
			"buffer":0,
			"byteLength":29712,
			"byteOffset":56496,
			"target":34962
		},
		{
			"buffer":0,
			"byteLength":29712,
			"byteOffset":86208,
			"target":34962
		},
		{
			"buffer":0,
			"byteLength":19808,
			"byteOffset":115920,
			"target":34962
		},
		{
			"buffer":0,
			"byteLength":22668,
			"byteOffset":135728,
			"target":34963
		},
		{
			"buffer":0,
			"byteLength":34680,
			"byteOffset":158396,
			"target":34962
		},
		{
			"buffer":0,
			"byteLength":34680,
			"byteOffset":193076,
			"target":34962
		},
		{
			"buffer":0,
			"byteLength":23120,
			"byteOffset":227756,
			"target":34962
		},
		{
			"buffer":0,
			"byteLength":9222,
			"byteOffset":250876,
			"target":34963
		},
		{
			"buffer":0,
			"byteLength":69720,
			"byteOffset":260100,
			"target":34962
		},
		{
			"buffer":0,
			"byteLength":69720,
			"byteOffset":329820,
			"target":34962
		},
		{
			"buffer":0,
			"byteLength":46480,
			"byteOffset":399540,
			"target":34962
		},
		{
			"buffer":0,
			"byteLength":17958,
			"byteOffset":446020,
			"target":34963
		},
		{
			"buffer":0,
			"byteLength":6984,
			"byteOffset":463980,
			"target":34962
		},
		{
			"buffer":0,
			"byteLength":6984,
			"byteOffset":470964,
			"target":34962
		},
		{
			"buffer":0,
			"byteLength":4656,
			"byteOffset":477948,
			"target":34962
		},
		{
			"buffer":0,
			"byteLength":29712,
			"byteOffset":482604,
			"target":34962
		},
		{
			"buffer":0,
			"byteLength":29712,
			"byteOffset":512316,
			"target":34962
		},
		{
			"buffer":0,
			"byteLength":19808,
			"byteOffset":542028,
			"target":34962
		},
		{
			"buffer":0,
			"byteLength":34680,
			"byteOffset":561836,
			"target":34962
		},
		{
			"buffer":0,
			"byteLength":34680,
			"byteOffset":596516,
			"target":34962
		},
		{
			"buffer":0,
			"byteLength":23120,
			"byteOffset":631196,
			"target":34962
		},
		{
			"buffer":0,
			"byteLength":69720,
			"byteOffset":654316,
			"target":34962
		},
		{
			"buffer":0,
			"byteLength":69720,
			"byteOffset":724036,
			"target":34962
		},
		{
			"buffer":0,
			"byteLength":46480,
			"byteOffset":793756,
			"target":34962
		},
		{
			"buffer":0,
			"byteLength":6984,
			"byteOffset":840236,
			"target":34962
		},
		{
			"buffer":0,
			"byteLength":6984,
			"byteOffset":847220,
			"target":34962
		},
		{
			"buffer":0,
			"byteLength":4656,
			"byteOffset":854204,
			"target":34962
		},
		{
			"buffer":0,
			"byteLength":29712,
			"byteOffset":858860,
			"target":34962
		},
		{
			"buffer":0,
			"byteLength":29712,
			"byteOffset":888572,
			"target":34962
		},
		{
			"buffer":0,
			"byteLength":19808,
			"byteOffset":918284,
			"target":34962
		},
		{
			"buffer":0,
			"byteLength":34680,
			"byteOffset":938092,
			"target":34962
		},
		{
			"buffer":0,
			"byteLength":34680,
			"byteOffset":972772,
			"target":34962
		},
		{
			"buffer":0,
			"byteLength":23120,
			"byteOffset":1007452,
			"target":34962
		},
		{
			"buffer":0,
			"byteLength":69720,
			"byteOffset":1030572,
			"target":34962
		},
		{
			"buffer":0,
			"byteLength":69720,
			"byteOffset":1100292,
			"target":34962
		},
		{
			"buffer":0,
			"byteLength":46480,
			"byteOffset":1170012,
			"target":34962
		},
		{
			"buffer":0,
			"byteLength":6984,
			"byteOffset":1216492,
			"target":34962
		},
		{
			"buffer":0,
			"byteLength":6984,
			"byteOffset":1223476,
			"target":34962
		},
		{
			"buffer":0,
			"byteLength":4656,
			"byteOffset":1230460,
			"target":34962
		},
		{
			"buffer":0,
			"byteLength":29712,
			"byteOffset":1235116,
			"target":34962
		},
		{
			"buffer":0,
			"byteLength":29712,
			"byteOffset":1264828,
			"target":34962
		},
		{
			"buffer":0,
			"byteLength":19808,
			"byteOffset":1294540,
			"target":34962
		},
		{
			"buffer":0,
			"byteLength":34680,
			"byteOffset":1314348,
			"target":34962
		},
		{
			"buffer":0,
			"byteLength":34680,
			"byteOffset":1349028,
			"target":34962
		},
		{
			"buffer":0,
			"byteLength":23120,
			"byteOffset":1383708,
			"target":34962
		},
		{
			"buffer":0,
			"byteLength":69720,
			"byteOffset":1406828,
			"target":34962
		},
		{
			"buffer":0,
			"byteLength":69720,
			"byteOffset":1476548,
			"target":34962
		},
		{
			"buffer":0,
			"byteLength":46480,
			"byteOffset":1546268,
			"target":34962
		},
		{
			"buffer":0,
			"byteLength":6264,
			"byteOffset":1592748,
			"target":34962
		},
		{
			"buffer":0,
			"byteLength":6264,
			"byteOffset":1599012,
			"target":34962
		},
		{
			"buffer":0,
			"byteLength":4176,
			"byteOffset":1605276,
			"target":34962
		},
		{
			"buffer":0,
			"byteLength":3948,
			"byteOffset":1609452,
			"target":34963
		},
		{
			"buffer":0,
			"byteLength":6264,
			"byteOffset":1613400,
			"target":34962
		},
		{
			"buffer":0,
			"byteLength":6264,
			"byteOffset":1619664,
			"target":34962
		},
		{
			"buffer":0,
			"byteLength":4176,
			"byteOffset":1625928,
			"target":34962
		},
		{
			"buffer":0,
			"byteLength":6264,
			"byteOffset":1630104,
			"target":34962
		},
		{
			"buffer":0,
			"byteLength":6264,
			"byteOffset":1636368,
			"target":34962
		},
		{
			"buffer":0,
			"byteLength":4176,
			"byteOffset":1642632,
			"target":34962
		},
		{
			"buffer":0,
			"byteLength":6264,
			"byteOffset":1646808,
			"target":34962
		},
		{
			"buffer":0,
			"byteLength":6264,
			"byteOffset":1653072,
			"target":34962
		},
		{
			"buffer":0,
			"byteLength":4176,
			"byteOffset":1659336,
			"target":34962
		},
		{
			"buffer":0,
			"byteLength":6816,
			"byteOffset":1663512,
			"target":34962
		},
		{
			"buffer":0,
			"byteLength":6816,
			"byteOffset":1670328,
			"target":34962
		},
		{
			"buffer":0,
			"byteLength":4544,
			"byteOffset":1677144,
			"target":34962
		},
		{
			"buffer":0,
			"byteLength":4200,
			"byteOffset":1681688,
			"target":34963
		},
		{
			"buffer":0,
			"byteLength":6624,
			"byteOffset":1685888,
			"target":34962
		},
		{
			"buffer":0,
			"byteLength":6624,
			"byteOffset":1692512,
			"target":34962
		},
		{
			"buffer":0,
			"byteLength":4416,
			"byteOffset":1699136,
			"target":34962
		},
		{
			"buffer":0,
			"byteLength":5232,
			"byteOffset":1703552,
			"target":34963
		},
		{
			"buffer":0,
			"byteLength":6816,
			"byteOffset":1708784,
			"target":34962
		},
		{
			"buffer":0,
			"byteLength":6816,
			"byteOffset":1715600,
			"target":34962
		},
		{
			"buffer":0,
			"byteLength":4544,
			"byteOffset":1722416,
			"target":34962
		},
		{
			"buffer":0,
			"byteLength":6624,
			"byteOffset":1726960,
			"target":34962
		},
		{
			"buffer":0,
			"byteLength":6624,
			"byteOffset":1733584,
			"target":34962
		},
		{
			"buffer":0,
			"byteLength":4416,
			"byteOffset":1740208,
			"target":34962
		},
		{
			"buffer":0,
			"byteLength":6816,
			"byteOffset":1744624,
			"target":34962
		},
		{
			"buffer":0,
			"byteLength":6816,
			"byteOffset":1751440,
			"target":34962
		},
		{
			"buffer":0,
			"byteLength":4544,
			"byteOffset":1758256,
			"target":34962
		},
		{
			"buffer":0,
			"byteLength":6624,
			"byteOffset":1762800,
			"target":34962
		},
		{
			"buffer":0,
			"byteLength":6624,
			"byteOffset":1769424,
			"target":34962
		},
		{
			"buffer":0,
			"byteLength":4416,
			"byteOffset":1776048,
			"target":34962
		},
		{
			"buffer":0,
			"byteLength":6816,
			"byteOffset":1780464,
			"target":34962
		},
		{
			"buffer":0,
			"byteLength":6816,
			"byteOffset":1787280,
			"target":34962
		},
		{
			"buffer":0,
			"byteLength":4544,
			"byteOffset":1794096,
			"target":34962
		},
		{
			"buffer":0,
			"byteLength":6624,
			"byteOffset":1798640,
			"target":34962
		},
		{
			"buffer":0,
			"byteLength":6624,
			"byteOffset":1805264,
			"target":34962
		},
		{
			"buffer":0,
			"byteLength":4416,
			"byteOffset":1811888,
			"target":34962
		}
	],
	"samplers":[
		{
			"magFilter":9729,
			"minFilter":9987
		}
	],
	"buffers":[
		{
			"byteLength":1816304,
			"uri":"EG_Fr%C3%BChst%C3%BCcksecke.bin"
		}
	]
}
