{
	"asset":{
		"generator":"Khronos glTF Blender I/O v5.1.18",
		"version":"2.0"
	},
	"scene":0,
	"scenes":[
		{
			"name":"Scene",
			"nodes":[
				0,
				1,
				2,
				3,
				4,
				5,
				6
			]
		}
	],
	"nodes":[
		{
			"mesh":0,
			"name":"holzfassade.016",
			"scale":[
				1,
				0.3444444239139557,
				1
			],
			"translation":[
				25.800809860229492,
				-0.2999999523162842,
				-16.947114944458008
			]
		},
		{
			"mesh":1,
			"name":"holzfassade.017",
			"rotation":[
				0,
				-0.7071068286895752,
				0,
				0.7071068286895752
			],
			"scale":[
				0.9900000095367432,
				0.3444444239139557,
				1
			],
			"translation":[
				25.800811767578125,
				-0.29999998211860657,
				-11.869331359863281
			]
		},
		{
			"mesh":2,
			"name":"holzfassade.018",
			"rotation":[
				0,
				-1,
				0,
				4.371138828673793e-08
			],
			"scale":[
				1.100000023841858,
				0.3444444239139557,
				1
			],
			"translation":[
				24.934370040893555,
				-0.29999998211860657,
				-11.869331359863281
			]
		},
		{
			"mesh":3,
			"name":"holzfassade.019",
			"rotation":[
				0,
				-0.7071068286895752,
				0,
				0.7071068286895752
			],
			"scale":[
				1,
				0.3444444239139557,
				1
			],
			"translation":[
				24.934370040893555,
				-0.29999998211860657,
				-5.278964519500732
			]
		},
		{
			"mesh":4,
			"name":"holzfassade.022",
			"scale":[
				1.100000023841858,
				0.3444444239139557,
				1
			],
			"translation":[
				25.800432205200195,
				-0.29999998211860657,
				-5.278964519500732
			]
		},
		{
			"mesh":5,
			"name":"holzfassade.023",
			"rotation":[
				0,
				-1,
				0,
				4.371138828673793e-08
			],
			"scale":[
				1,
				0.3444444239139557,
				1
			],
			"translation":[
				15.82508659362793,
				-0.29999998211860657,
				-4.998964786529541
			]
		},
		{
			"mesh":6,
			"name":"holzfassade.024",
			"rotation":[
				0,
				0.7071068286895752,
				0,
				0.7071068286895752
			],
			"scale":[
				1,
				0.3444444239139557,
				1
			],
			"translation":[
				15.885086059570312,
				-0.2999999523162842,
				-16.950763702392578
			]
		}
	],
	"materials":[
		{
			"doubleSided":true,
			"name":"fichte",
			"pbrMetallicRoughness":{
				"baseColorTexture":{
					"index":0
				},
				"metallicFactor":0,
				"roughnessFactor":0.5
			}
		},
		{
			"doubleSided":true,
			"name":"fichte.001",
			"pbrMetallicRoughness":{
				"baseColorTexture":{
					"index":1
				},
				"metallicFactor":0,
				"roughnessFactor":0.5
			}
		}
	],
	"meshes":[
		{
			"name":"Cube.866",
			"primitives":[
				{
					"attributes":{
						"POSITION":0,
						"NORMAL":1,
						"TEXCOORD_0":2
					},
					"indices":3,
					"material":0
				}
			]
		},
		{
			"name":"Cube.867",
			"primitives":[
				{
					"attributes":{
						"POSITION":4,
						"NORMAL":5,
						"TEXCOORD_0":6
					},
					"indices":7,
					"material":1
				}
			]
		},
		{
			"name":"Cube.868",
			"primitives":[
				{
					"attributes":{
						"POSITION":8,
						"NORMAL":9,
						"TEXCOORD_0":10
					},
					"indices":11,
					"material":1
				}
			]
		},
		{
			"name":"Cube.869",
			"primitives":[
				{
					"attributes":{
						"POSITION":12,
						"NORMAL":13,
						"TEXCOORD_0":14
					},
					"indices":15,
					"material":1
				}
			]
		},
		{
			"name":"Cube.870",
			"primitives":[
				{
					"attributes":{
						"POSITION":16,
						"NORMAL":17,
						"TEXCOORD_0":18
					},
					"indices":11,
					"material":1
				}
			]
		},
		{
			"name":"Cube.871",
			"primitives":[
				{
					"attributes":{
						"POSITION":19,
						"NORMAL":20,
						"TEXCOORD_0":21
					},
					"indices":22,
					"material":1
				}
			]
		},
		{
			"name":"Cube.872",
			"primitives":[
				{
					"attributes":{
						"POSITION":23,
						"NORMAL":24,
						"TEXCOORD_0":25
					},
					"indices":26,
					"material":0
				}
			]
		}
	],
	"textures":[
		{
			"sampler":0,
			"source":0
		},
		{
			"sampler":0,
			"source":0
		}
	],
	"images":[
		{
			"mimeType":"image/jpeg",
			"name":"fichte - grau",
			"uri":"fichte%20-%20grau.jpg"
		}
	],
	"accessors":[
		{
			"bufferView":0,
			"componentType":5126,
			"count":4984,
			"max":[
				0,
				9,
				0
			],
			"min":[
				-9.994998931884766,
				0,
				-0.019999999552965164
			],
			"type":"VEC3"
		},
		{
			"bufferView":1,
			"componentType":5126,
			"count":4984,
			"type":"VEC3"
		},
		{
			"bufferView":2,
			"componentType":5126,
			"count":4984,
			"type":"VEC2"
		},
		{
			"bufferView":3,
			"componentType":5123,
			"count":6960,
			"type":"SCALAR"
		},
		{
			"bufferView":4,
			"componentType":5126,
			"count":2872,
			"max":[
				0,
				9,
				0
			],
			"min":[
				-5.194999694824219,
				0,
				-0.019999999552965164
			],
			"type":"VEC3"
		},
		{
			"bufferView":5,
			"componentType":5126,
			"count":2872,
			"type":"VEC3"
		},
		{
			"bufferView":6,
			"componentType":5126,
			"count":2872,
			"type":"VEC2"
		},
		{
			"bufferView":7,
			"componentType":5123,
			"count":4128,
			"type":"SCALAR"
		},
		{
			"bufferView":8,
			"componentType":5126,
			"count":384,
			"max":[
				0,
				9,
				0
			],
			"min":[
				-0.7949999570846558,
				0,
				-0.019999999552965164
			],
			"type":"VEC3"
		},
		{
			"bufferView":9,
			"componentType":5126,
			"count":384,
			"type":"VEC3"
		},
		{
			"bufferView":10,
			"componentType":5126,
			"count":384,
			"type":"VEC2"
		},
		{
			"bufferView":11,
			"componentType":5123,
			"count":528,
			"type":"SCALAR"
		},
		{
			"bufferView":12,
			"componentType":5126,
			"count":3720,
			"max":[
				0,
				9,
				0
			],
			"min":[
				-6.59499979019165,
				0,
				-0.019999999552965164
			],
			"type":"VEC3"
		},
		{
			"bufferView":13,
			"componentType":5126,
			"count":3720,
			"type":"VEC3"
		},
		{
			"bufferView":14,
			"componentType":5126,
			"count":3720,
			"type":"VEC2"
		},
		{
			"bufferView":15,
			"componentType":5123,
			"count":5340,
			"type":"SCALAR"
		},
		{
			"bufferView":16,
			"componentType":5126,
			"count":384,
			"max":[
				0,
				9,
				0
			],
			"min":[
				-0.7949999570846558,
				0,
				-0.019999999552965164
			],
			"type":"VEC3"
		},
		{
			"bufferView":17,
			"componentType":5126,
			"count":384,
			"type":"VEC3"
		},
		{
			"bufferView":18,
			"componentType":5126,
			"count":384,
			"type":"VEC2"
		},
		{
			"bufferView":19,
			"componentType":5126,
			"count":5392,
			"max":[
				0,
				9,
				0
			],
			"min":[
				-9.994998931884766,
				0,
				-0.019999999552965164
			],
			"type":"VEC3"
		},
		{
			"bufferView":20,
			"componentType":5126,
			"count":5392,
			"type":"VEC3"
		},
		{
			"bufferView":21,
			"componentType":5126,
			"count":5392,
			"type":"VEC2"
		},
		{
			"bufferView":22,
			"componentType":5123,
			"count":7692,
			"type":"SCALAR"
		},
		{
			"bufferView":23,
			"componentType":5126,
			"count":7328,
			"max":[
				0,
				9,
				0
			],
			"min":[
				-11.994998931884766,
				0,
				-0.019999999552965164
			],
			"type":"VEC3"
		},
		{
			"bufferView":24,
			"componentType":5126,
			"count":7328,
			"type":"VEC3"
		},
		{
			"bufferView":25,
			"componentType":5126,
			"count":7328,
			"type":"VEC2"
		},
		{
			"bufferView":26,
			"componentType":5123,
			"count":10740,
			"type":"SCALAR"
		}
	],
	"bufferViews":[
		{
			"buffer":0,
			"byteLength":59808,
			"byteOffset":0,
			"target":34962
		},
		{
			"buffer":0,
			"byteLength":59808,
			"byteOffset":59808,
			"target":34962
		},
		{
			"buffer":0,
			"byteLength":39872,
			"byteOffset":119616,
			"target":34962
		},
		{
			"buffer":0,
			"byteLength":13920,
			"byteOffset":159488,
			"target":34963
		},
		{
			"buffer":0,
			"byteLength":34464,
			"byteOffset":173408,
			"target":34962
		},
		{
			"buffer":0,
			"byteLength":34464,
			"byteOffset":207872,
			"target":34962
		},
		{
			"buffer":0,
			"byteLength":22976,
			"byteOffset":242336,
			"target":34962
		},
		{
			"buffer":0,
			"byteLength":8256,
			"byteOffset":265312,
			"target":34963
		},
		{
			"buffer":0,
			"byteLength":4608,
			"byteOffset":273568,
			"target":34962
		},
		{
			"buffer":0,
			"byteLength":4608,
			"byteOffset":278176,
			"target":34962
		},
		{
			"buffer":0,
			"byteLength":3072,
			"byteOffset":282784,
			"target":34962
		},
		{
			"buffer":0,
			"byteLength":1056,
			"byteOffset":285856,
			"target":34963
		},
		{
			"buffer":0,
			"byteLength":44640,
			"byteOffset":286912,
			"target":34962
		},
		{
			"buffer":0,
			"byteLength":44640,
			"byteOffset":331552,
			"target":34962
		},
		{
			"buffer":0,
			"byteLength":29760,
			"byteOffset":376192,
			"target":34962
		},
		{
			"buffer":0,
			"byteLength":10680,
			"byteOffset":405952,
			"target":34963
		},
		{
			"buffer":0,
			"byteLength":4608,
			"byteOffset":416632,
			"target":34962
		},
		{
			"buffer":0,
			"byteLength":4608,
			"byteOffset":421240,
			"target":34962
		},
		{
			"buffer":0,
			"byteLength":3072,
			"byteOffset":425848,
			"target":34962
		},
		{
			"buffer":0,
			"byteLength":64704,
			"byteOffset":428920,
			"target":34962
		},
		{
			"buffer":0,
			"byteLength":64704,
			"byteOffset":493624,
			"target":34962
		},
		{
			"buffer":0,
			"byteLength":43136,
			"byteOffset":558328,
			"target":34962
		},
		{
			"buffer":0,
			"byteLength":15384,
			"byteOffset":601464,
			"target":34963
		},
		{
			"buffer":0,
			"byteLength":87936,
			"byteOffset":616848,
			"target":34962
		},
		{
			"buffer":0,
			"byteLength":87936,
			"byteOffset":704784,
			"target":34962
		},
		{
			"buffer":0,
			"byteLength":58624,
			"byteOffset":792720,
			"target":34962
		},
		{
			"buffer":0,
			"byteLength":21480,
			"byteOffset":851344,
			"target":34963
		}
	],
	"samplers":[
		{
			"magFilter":9729,
			"minFilter":9987
		}
	],
	"buffers":[
		{
			"byteLength":872824,
			"uri":"EG_Fassade.bin"
		}
	]
}
