{
	"asset":{
		"generator":"Khronos glTF Blender I/O v5.1.18",
		"version":"2.0"
	},
	"scene":0,
	"scenes":[
		{
			"name":"Scene",
			"nodes":[
				0,
				1,
				2,
				3,
				4,
				5,
				6,
				7
			]
		}
	],
	"nodes":[
		{
			"mesh":0,
			"name":"_Leuchte.005",
			"scale":[
				1.5999999046325684,
				0.019999999552965164,
				0.019999999552965164
			],
			"translation":[
				19.250200271606445,
				2.549999952316284,
				-14.561004638671875
			]
		},
		{
			"mesh":1,
			"name":"_Leuchte.008",
			"scale":[
				1.5999999046325684,
				0.019999999552965164,
				0.019999999552965164
			],
			"translation":[
				19.250200271606445,
				2.549999952316284,
				-9.682519912719727
			]
		},
		{
			"mesh":2,
			"name":"_Leuchte.009",
			"scale":[
				1.5999999046325684,
				0.019999999552965164,
				0.019999999552965164
			],
			"translation":[
				19.250200271606445,
				2.7821426391601562,
				-11.972420692443848
			]
		},
		{
			"mesh":3,
			"name":"_Leuchte.010",
			"scale":[
				1.5999999046325684,
				0.019999999552965164,
				0.019999999552965164
			],
			"translation":[
				19.250200271606445,
				2.549999952316284,
				-5.748733043670654
			]
		},
		{
			"mesh":4,
			"name":"_Leuchte.011",
			"rotation":[
				0,
				0.7071068286895752,
				0,
				0.7071068286895752
			],
			"scale":[
				1.5999999046325684,
				0.019999999552965164,
				0.019999999552965164
			],
			"translation":[
				22.790143966674805,
				2.549999952316284,
				-10.644942283630371
			]
		},
		{
			"mesh":5,
			"name":"_Leuchte.012",
			"scale":[
				0.7999999523162842,
				0.019999999552965164,
				0.019999999552965164
			],
			"translation":[
				23.89637565612793,
				2.549999952316284,
				-14.472505569458008
			]
		},
		{
			"mesh":6,
			"name":"Sphere.002",
			"scale":[
				0.15000008046627045,
				0.14999999105930328,
				0.15000005066394806
			],
			"translation":[
				23.468122482299805,
				1.997363805770874,
				-6.551388740539551
			]
		},
		{
			"mesh":7,
			"name":"Sphere.003",
			"scale":[
				0.15000008046627045,
				0.14999999105930328,
				0.15000005066394806
			],
			"translation":[
				19.789073944091797,
				2,
				-9.685399055480957
			]
		}
	],
	"materials":[
		{
			"doubleSided":true,
			"name":"BlackRough.016",
			"pbrMetallicRoughness":{
				"baseColorFactor":[
					0.005572829861193895,
					0.005572829861193895,
					0.005572829861193895,
					1
				],
				"metallicFactor":0,
				"roughnessFactor":0.5670458674430847
			}
		},
		{
			"doubleSided":true,
			"name":"Material",
			"pbrMetallicRoughness":{
				"baseColorFactor":[
					0.800000011920929,
					0.800000011920929,
					0.800000011920929,
					1
				],
				"metallicFactor":0,
				"roughnessFactor":0.5
			}
		},
		{
			"doubleSided":true,
			"name":"BlackRough.017",
			"pbrMetallicRoughness":{
				"baseColorFactor":[
					0.005572829861193895,
					0.005572829861193895,
					0.005572829861193895,
					1
				],
				"metallicFactor":0,
				"roughnessFactor":0.5670458674430847
			}
		},
		{
			"doubleSided":true,
			"emissiveFactor":[
				1,
				1,
				1
			],
			"name":"Glow",
			"pbrMetallicRoughness":{
				"baseColorFactor":[
					0,
					0,
					0,
					1
				]
			}
		},
		{
			"doubleSided":true,
			"name":"BlackRough.018",
			"pbrMetallicRoughness":{
				"baseColorFactor":[
					0.005572829861193895,
					0.005572829861193895,
					0.005572829861193895,
					1
				],
				"metallicFactor":0,
				"roughnessFactor":0.5670458674430847
			}
		},
		{
			"doubleSided":true,
			"name":"BlackRough.019",
			"pbrMetallicRoughness":{
				"baseColorFactor":[
					0.005572829861193895,
					0.005572829861193895,
					0.005572829861193895,
					1
				],
				"metallicFactor":0,
				"roughnessFactor":0.5670458674430847
			}
		},
		{
			"doubleSided":true,
			"name":"BlackRough.020",
			"pbrMetallicRoughness":{
				"baseColorFactor":[
					0.005572829861193895,
					0.005572829861193895,
					0.005572829861193895,
					1
				],
				"metallicFactor":0,
				"roughnessFactor":0.5670458674430847
			}
		},
		{
			"doubleSided":true,
			"name":"BlackRough.021",
			"pbrMetallicRoughness":{
				"baseColorFactor":[
					0.005572829861193895,
					0.005572829861193895,
					0.005572829861193895,
					1
				],
				"metallicFactor":0,
				"roughnessFactor":0.5670458674430847
			}
		}
	],
	"meshes":[
		{
			"name":"Cube.909",
			"primitives":[
				{
					"attributes":{
						"POSITION":0,
						"NORMAL":1,
						"TEXCOORD_0":2
					},
					"indices":3,
					"material":0
				},
				{
					"attributes":{
						"POSITION":4,
						"NORMAL":5,
						"TEXCOORD_0":6
					},
					"indices":7,
					"material":1
				}
			]
		},
		{
			"name":"Cube.910",
			"primitives":[
				{
					"attributes":{
						"POSITION":8,
						"NORMAL":9,
						"TEXCOORD_0":10
					},
					"indices":3,
					"material":2
				},
				{
					"attributes":{
						"POSITION":11,
						"NORMAL":12,
						"TEXCOORD_0":13
					},
					"indices":7,
					"material":3
				}
			]
		},
		{
			"name":"Cube.911",
			"primitives":[
				{
					"attributes":{
						"POSITION":14,
						"NORMAL":15,
						"TEXCOORD_0":16
					},
					"indices":3,
					"material":4
				},
				{
					"attributes":{
						"POSITION":17,
						"NORMAL":18,
						"TEXCOORD_0":19
					},
					"indices":7,
					"material":1
				}
			]
		},
		{
			"name":"Cube.912",
			"primitives":[
				{
					"attributes":{
						"POSITION":20,
						"NORMAL":21,
						"TEXCOORD_0":22
					},
					"indices":3,
					"material":5
				},
				{
					"attributes":{
						"POSITION":23,
						"NORMAL":24,
						"TEXCOORD_0":25
					},
					"indices":7,
					"material":1
				}
			]
		},
		{
			"name":"Cube.913",
			"primitives":[
				{
					"attributes":{
						"POSITION":26,
						"NORMAL":27,
						"TEXCOORD_0":28
					},
					"indices":3,
					"material":6
				},
				{
					"attributes":{
						"POSITION":29,
						"NORMAL":30,
						"TEXCOORD_0":31
					},
					"indices":7,
					"material":1
				}
			]
		},
		{
			"name":"Cube.914",
			"primitives":[
				{
					"attributes":{
						"POSITION":32,
						"NORMAL":33,
						"TEXCOORD_0":34
					},
					"indices":3,
					"material":7
				},
				{
					"attributes":{
						"POSITION":35,
						"NORMAL":36,
						"TEXCOORD_0":37
					},
					"indices":7,
					"material":1
				}
			]
		},
		{
			"name":"Sphere.008",
			"primitives":[
				{
					"attributes":{
						"POSITION":38,
						"NORMAL":39,
						"TEXCOORD_0":40
					},
					"indices":41,
					"material":3
				}
			]
		},
		{
			"name":"Sphere.009",
			"primitives":[
				{
					"attributes":{
						"POSITION":42,
						"NORMAL":43,
						"TEXCOORD_0":44
					},
					"indices":41,
					"material":3
				}
			]
		}
	],
	"accessors":[
		{
			"bufferView":0,
			"componentType":5126,
			"count":20,
			"max":[
				1,
				1,
				1
			],
			"min":[
				-1,
				-1,
				-1
			],
			"type":"VEC3"
		},
		{
			"bufferView":1,
			"componentType":5126,
			"count":20,
			"type":"VEC3"
		},
		{
			"bufferView":2,
			"componentType":5126,
			"count":20,
			"type":"VEC2"
		},
		{
			"bufferView":3,
			"componentType":5123,
			"count":30,
			"type":"SCALAR"
		},
		{
			"bufferView":4,
			"componentType":5126,
			"count":4,
			"max":[
				1,
				-1,
				1
			],
			"min":[
				-1,
				-1,
				-1
			],
			"type":"VEC3"
		},
		{
			"bufferView":5,
			"componentType":5126,
			"count":4,
			"type":"VEC3"
		},
		{
			"bufferView":6,
			"componentType":5126,
			"count":4,
			"type":"VEC2"
		},
		{
			"bufferView":7,
			"componentType":5123,
			"count":6,
			"type":"SCALAR"
		},
		{
			"bufferView":8,
			"componentType":5126,
			"count":20,
			"max":[
				1,
				1,
				1
			],
			"min":[
				-1,
				-1,
				-1
			],
			"type":"VEC3"
		},
		{
			"bufferView":9,
			"componentType":5126,
			"count":20,
			"type":"VEC3"
		},
		{
			"bufferView":10,
			"componentType":5126,
			"count":20,
			"type":"VEC2"
		},
		{
			"bufferView":11,
			"componentType":5126,
			"count":4,
			"max":[
				1,
				-1,
				1
			],
			"min":[
				-1,
				-1,
				-1
			],
			"type":"VEC3"
		},
		{
			"bufferView":12,
			"componentType":5126,
			"count":4,
			"type":"VEC3"
		},
		{
			"bufferView":13,
			"componentType":5126,
			"count":4,
			"type":"VEC2"
		},
		{
			"bufferView":14,
			"componentType":5126,
			"count":20,
			"max":[
				1,
				1,
				1
			],
			"min":[
				-1,
				-1,
				-1
			],
			"type":"VEC3"
		},
		{
			"bufferView":15,
			"componentType":5126,
			"count":20,
			"type":"VEC3"
		},
		{
			"bufferView":16,
			"componentType":5126,
			"count":20,
			"type":"VEC2"
		},
		{
			"bufferView":17,
			"componentType":5126,
			"count":4,
			"max":[
				1,
				-1,
				1
			],
			"min":[
				-1,
				-1,
				-1
			],
			"type":"VEC3"
		},
		{
			"bufferView":18,
			"componentType":5126,
			"count":4,
			"type":"VEC3"
		},
		{
			"bufferView":19,
			"componentType":5126,
			"count":4,
			"type":"VEC2"
		},
		{
			"bufferView":20,
			"componentType":5126,
			"count":20,
			"max":[
				1,
				1,
				1
			],
			"min":[
				-1,
				-1,
				-1
			],
			"type":"VEC3"
		},
		{
			"bufferView":21,
			"componentType":5126,
			"count":20,
			"type":"VEC3"
		},
		{
			"bufferView":22,
			"componentType":5126,
			"count":20,
			"type":"VEC2"
		},
		{
			"bufferView":23,
			"componentType":5126,
			"count":4,
			"max":[
				1,
				-1,
				1
			],
			"min":[
				-1,
				-1,
				-1
			],
			"type":"VEC3"
		},
		{
			"bufferView":24,
			"componentType":5126,
			"count":4,
			"type":"VEC3"
		},
		{
			"bufferView":25,
			"componentType":5126,
			"count":4,
			"type":"VEC2"
		},
		{
			"bufferView":26,
			"componentType":5126,
			"count":20,
			"max":[
				1,
				1,
				1
			],
			"min":[
				-1,
				-1,
				-1
			],
			"type":"VEC3"
		},
		{
			"bufferView":27,
			"componentType":5126,
			"count":20,
			"type":"VEC3"
		},
		{
			"bufferView":28,
			"componentType":5126,
			"count":20,
			"type":"VEC2"
		},
		{
			"bufferView":29,
			"componentType":5126,
			"count":4,
			"max":[
				1,
				-1,
				1
			],
			"min":[
				-1,
				-1,
				-1
			],
			"type":"VEC3"
		},
		{
			"bufferView":30,
			"componentType":5126,
			"count":4,
			"type":"VEC3"
		},
		{
			"bufferView":31,
			"componentType":5126,
			"count":4,
			"type":"VEC2"
		},
		{
			"bufferView":32,
			"componentType":5126,
			"count":20,
			"max":[
				1,
				1,
				1
			],
			"min":[
				-1,
				-1,
				-1
			],
			"type":"VEC3"
		},
		{
			"bufferView":33,
			"componentType":5126,
			"count":20,
			"type":"VEC3"
		},
		{
			"bufferView":34,
			"componentType":5126,
			"count":20,
			"type":"VEC2"
		},
		{
			"bufferView":35,
			"componentType":5126,
			"count":4,
			"max":[
				1,
				-1,
				1
			],
			"min":[
				-1,
				-1,
				-1
			],
			"type":"VEC3"
		},
		{
			"bufferView":36,
			"componentType":5126,
			"count":4,
			"type":"VEC3"
		},
		{
			"bufferView":37,
			"componentType":5126,
			"count":4,
			"type":"VEC2"
		},
		{
			"bufferView":38,
			"componentType":5126,
			"count":1984,
			"max":[
				0.9999997019767761,
				1,
				0.9999993443489075
			],
			"min":[
				-0.9999990463256836,
				-1,
				-1
			],
			"type":"VEC3"
		},
		{
			"bufferView":39,
			"componentType":5126,
			"count":1984,
			"type":"VEC3"
		},
		{
			"bufferView":40,
			"componentType":5126,
			"count":1984,
			"type":"VEC2"
		},
		{
			"bufferView":41,
			"componentType":5123,
			"count":2880,
			"type":"SCALAR"
		},
		{
			"bufferView":42,
			"componentType":5126,
			"count":1984,
			"max":[
				0.9999997019767761,
				1,
				0.9999993443489075
			],
			"min":[
				-0.9999990463256836,
				-1,
				-1
			],
			"type":"VEC3"
		},
		{
			"bufferView":43,
			"componentType":5126,
			"count":1984,
			"type":"VEC3"
		},
		{
			"bufferView":44,
			"componentType":5126,
			"count":1984,
			"type":"VEC2"
		}
	],
	"bufferViews":[
		{
			"buffer":0,
			"byteLength":240,
			"byteOffset":0,
			"target":34962
		},
		{
			"buffer":0,
			"byteLength":240,
			"byteOffset":240,
			"target":34962
		},
		{
			"buffer":0,
			"byteLength":160,
			"byteOffset":480,
			"target":34962
		},
		{
			"buffer":0,
			"byteLength":60,
			"byteOffset":640,
			"target":34963
		},
		{
			"buffer":0,
			"byteLength":48,
			"byteOffset":700,
			"target":34962
		},
		{
			"buffer":0,
			"byteLength":48,
			"byteOffset":748,
			"target":34962
		},
		{
			"buffer":0,
			"byteLength":32,
			"byteOffset":796,
			"target":34962
		},
		{
			"buffer":0,
			"byteLength":12,
			"byteOffset":828,
			"target":34963
		},
		{
			"buffer":0,
			"byteLength":240,
			"byteOffset":840,
			"target":34962
		},
		{
			"buffer":0,
			"byteLength":240,
			"byteOffset":1080,
			"target":34962
		},
		{
			"buffer":0,
			"byteLength":160,
			"byteOffset":1320,
			"target":34962
		},
		{
			"buffer":0,
			"byteLength":48,
			"byteOffset":1480,
			"target":34962
		},
		{
			"buffer":0,
			"byteLength":48,
			"byteOffset":1528,
			"target":34962
		},
		{
			"buffer":0,
			"byteLength":32,
			"byteOffset":1576,
			"target":34962
		},
		{
			"buffer":0,
			"byteLength":240,
			"byteOffset":1608,
			"target":34962
		},
		{
			"buffer":0,
			"byteLength":240,
			"byteOffset":1848,
			"target":34962
		},
		{
			"buffer":0,
			"byteLength":160,
			"byteOffset":2088,
			"target":34962
		},
		{
			"buffer":0,
			"byteLength":48,
			"byteOffset":2248,
			"target":34962
		},
		{
			"buffer":0,
			"byteLength":48,
			"byteOffset":2296,
			"target":34962
		},
		{
			"buffer":0,
			"byteLength":32,
			"byteOffset":2344,
			"target":34962
		},
		{
			"buffer":0,
			"byteLength":240,
			"byteOffset":2376,
			"target":34962
		},
		{
			"buffer":0,
			"byteLength":240,
			"byteOffset":2616,
			"target":34962
		},
		{
			"buffer":0,
			"byteLength":160,
			"byteOffset":2856,
			"target":34962
		},
		{
			"buffer":0,
			"byteLength":48,
			"byteOffset":3016,
			"target":34962
		},
		{
			"buffer":0,
			"byteLength":48,
			"byteOffset":3064,
			"target":34962
		},
		{
			"buffer":0,
			"byteLength":32,
			"byteOffset":3112,
			"target":34962
		},
		{
			"buffer":0,
			"byteLength":240,
			"byteOffset":3144,
			"target":34962
		},
		{
			"buffer":0,
			"byteLength":240,
			"byteOffset":3384,
			"target":34962
		},
		{
			"buffer":0,
			"byteLength":160,
			"byteOffset":3624,
			"target":34962
		},
		{
			"buffer":0,
			"byteLength":48,
			"byteOffset":3784,
			"target":34962
		},
		{
			"buffer":0,
			"byteLength":48,
			"byteOffset":3832,
			"target":34962
		},
		{
			"buffer":0,
			"byteLength":32,
			"byteOffset":3880,
			"target":34962
		},
		{
			"buffer":0,
			"byteLength":240,
			"byteOffset":3912,
			"target":34962
		},
		{
			"buffer":0,
			"byteLength":240,
			"byteOffset":4152,
			"target":34962
		},
		{
			"buffer":0,
			"byteLength":160,
			"byteOffset":4392,
			"target":34962
		},
		{
			"buffer":0,
			"byteLength":48,
			"byteOffset":4552,
			"target":34962
		},
		{
			"buffer":0,
			"byteLength":48,
			"byteOffset":4600,
			"target":34962
		},
		{
			"buffer":0,
			"byteLength":32,
			"byteOffset":4648,
			"target":34962
		},
		{
			"buffer":0,
			"byteLength":23808,
			"byteOffset":4680,
			"target":34962
		},
		{
			"buffer":0,
			"byteLength":23808,
			"byteOffset":28488,
			"target":34962
		},
		{
			"buffer":0,
			"byteLength":15872,
			"byteOffset":52296,
			"target":34962
		},
		{
			"buffer":0,
			"byteLength":5760,
			"byteOffset":68168,
			"target":34963
		},
		{
			"buffer":0,
			"byteLength":23808,
			"byteOffset":73928,
			"target":34962
		},
		{
			"buffer":0,
			"byteLength":23808,
			"byteOffset":97736,
			"target":34962
		},
		{
			"buffer":0,
			"byteLength":15872,
			"byteOffset":121544,
			"target":34962
		}
	],
	"buffers":[
		{
			"byteLength":137416,
			"uri":"EG_Licht.bin"
		}
	]
}
