{
	"asset":{
		"generator":"Khronos glTF Blender I/O v5.1.18",
		"version":"2.0"
	},
	"extensionsUsed":[
		"KHR_materials_specular"
	],
	"scene":0,
	"scenes":[
		{
			"name":"Scene",
			"nodes":[
				0,
				1,
				2,
				3,
				4,
				5,
				6,
				7,
				8,
				9,
				10,
				11,
				12,
				13,
				14
			]
		}
	],
	"nodes":[
		{
			"mesh":0,
			"name":"_Curve.014",
			"translation":[
				18.969310760498047,
				0.22499997913837433,
				-14.15851879119873
			]
		},
		{
			"mesh":1,
			"name":"3d-model.004",
			"rotation":[
				0.4331187605857849,
				0.5589348673820496,
				-0.5589348077774048,
				0.4331187903881073
			],
			"scale":[
				0.026634113863110542,
				0.026634113863110542,
				0.02663411572575569
			],
			"translation":[
				18.24395751953125,
				0,
				-9.63034725189209
			]
		},
		{
			"mesh":2,
			"name":"Loehr.001",
			"rotation":[
				0,
				-0.08981557190418243,
				0,
				0.9959585070610046
			],
			"scale":[
				10,
				10,
				10
			],
			"translation":[
				22.77646827697754,
				0,
				-13.678902626037598
			]
		},
		{
			"mesh":3,
			"name":"Gem\u00e4lde.010",
			"rotation":[
				0,
				-1,
				0,
				4.371138828673793e-08
			],
			"translation":[
				21.83599090576172,
				1.6399701833724976,
				-14.743148803710938
			]
		},
		{
			"mesh":4,
			"name":"Curve.067",
			"scale":[
				1,
				1,
				1.2500001192092896
			],
			"translation":[
				22.588769912719727,
				0.019999999552965164,
				-13.991673469543457
			]
		},
		{
			"mesh":5,
			"name":"Gem\u00e4lde.011",
			"rotation":[
				0,
				-1,
				0,
				4.371138828673793e-08
			],
			"translation":[
				18.78314781188965,
				1.635782241821289,
				-8.3645601272583
			]
		},
		{
			"mesh":6,
			"name":"Gem\u00e4lde.012",
			"rotation":[
				0,
				-1,
				0,
				4.371138828673793e-08
			],
			"translation":[
				20.70575714111328,
				1.639970302581787,
				-8.367532730102539
			]
		},
		{
			"mesh":7,
			"name":"Gem\u00e4lde.013",
			"scale":[
				1,
				1.4587724208831787,
				1.3335775136947632
			],
			"translation":[
				23.35650062561035,
				0.285494327545166,
				-9.971322059631348
			]
		},
		{
			"mesh":8,
			"name":"Curve.071",
			"scale":[
				3.9183831214904785,
				0.25,
				0.7989271879196167
			],
			"translation":[
				22.28006362915039,
				0.550000011920929,
				-16.08173942565918
			]
		},
		{
			"mesh":9,
			"name":"Loehr.004",
			"rotation":[
				0,
				0.18469546735286713,
				0,
				0.9827958345413208
			],
			"scale":[
				10,
				10,
				10
			],
			"translation":[
				25.17864418029785,
				0.0039724987000226974,
				-13.2859525680542
			]
		},
		{
			"mesh":10,
			"name":"Curve.072",
			"scale":[
				1.1248159408569336,
				1.6666666269302368,
				1.2002204656600952
			],
			"translation":[
				16.28132438659668,
				1.3310893774032593,
				-15.047441482543945
			]
		},
		{
			"mesh":11,
			"name":"Curve.073",
			"scale":[
				1,
				1,
				1.2500001192092896
			],
			"translation":[
				22.559490203857422,
				0.019999999552965164,
				-14.645150184631348
			]
		},
		{
			"mesh":12,
			"name":"Object_2.002",
			"rotation":[
				0,
				-1,
				0,
				4.371138828673793e-08
			],
			"translation":[
				24.966997146606445,
				-2.166571675843443e-06,
				-16.353321075439453
			]
		},
		{
			"mesh":13,
			"name":"CoatRack.001",
			"scale":[
				1,
				1.0664008855819702,
				1
			],
			"translation":[
				25.11833953857422,
				0,
				-12.633316993713379
			]
		},
		{
			"mesh":14,
			"name":"Sessel.002",
			"rotation":[
				0,
				-0.321574866771698,
				0,
				0.946884274482727
			],
			"scale":[
				1.2154067754745483,
				1.2154065370559692,
				1
			],
			"translation":[
				21.174728393554688,
				0,
				-15.393770217895508
			]
		}
	],
	"materials":[
		{
			"doubleSided":true,
			"name":"AussenMetall",
			"pbrMetallicRoughness":{
				"baseColorFactor":[
					0.03954596072435379,
					0.04817187413573265,
					0.05448030307888985,
					1
				],
				"roughnessFactor":0.654285728931427
			}
		},
		{
			"doubleSided":true,
			"extensions":{
				"KHR_materials_specular":{
					"specularFactor":0
				}
			},
			"name":"skp_front_default",
			"pbrMetallicRoughness":{
				"baseColorFactor":[
					0.800000011920929,
					0.800000011920929,
					0.800000011920929,
					1
				],
				"metallicFactor":0
			}
		},
		{
			"doubleSided":true,
			"extensions":{
				"KHR_materials_specular":{
					"specularFactor":0
				}
			},
			"name":"plastic_wit",
			"pbrMetallicRoughness":{
				"baseColorFactor":[
					0.800000011920929,
					0.800000011920929,
					0.800000011920929,
					1
				],
				"metallicFactor":0
			}
		},
		{
			"doubleSided":true,
			"extensions":{
				"KHR_materials_specular":{
					"specularFactor":0
				}
			},
			"name":"Material1",
			"pbrMetallicRoughness":{
				"baseColorFactor":[
					0.800000011920929,
					0.800000011920929,
					0.800000011920929,
					1
				],
				"metallicFactor":0
			}
		},
		{
			"doubleSided":true,
			"extensions":{
				"KHR_materials_specular":{
					"specularFactor":0
				}
			},
			"name":"onderstel",
			"pbrMetallicRoughness":{
				"baseColorFactor":[
					0.800000011920929,
					0.800000011920929,
					0.800000011920929,
					1
				],
				"metallicFactor":0
			}
		},
		{
			"doubleSided":true,
			"extensions":{
				"KHR_materials_specular":{
					"specularColorFactor":[
						2.0,
						2.0,
						2.0
					]
				}
			},
			"name":"3D Oak - Unfinished",
			"pbrMetallicRoughness":{
				"baseColorFactor":[
					0.1936958134174347,
					0.010502032935619354,
					0.010776638984680176,
					1
				],
				"metallicFactor":0.5,
				"roughnessFactor":0.9648739099502563
			}
		},
		{
			"doubleSided":true,
			"name":"Material.035",
			"pbrMetallicRoughness":{
				"baseColorTexture":{
					"index":0
				},
				"metallicFactor":0,
				"roughnessFactor":0.5
			}
		},
		{
			"doubleSided":true,
			"name":"white_plastic",
			"pbrMetallicRoughness":{
				"baseColorFactor":[
					0.800000011920929,
					0.800000011920929,
					0.800000011920929,
					1
				],
				"metallicFactor":0,
				"roughnessFactor":0.5
			}
		},
		{
			"doubleSided":true,
			"name":"Material.033",
			"pbrMetallicRoughness":{
				"baseColorTexture":{
					"index":1
				},
				"metallicFactor":0,
				"roughnessFactor":0.5
			}
		},
		{
			"doubleSided":true,
			"name":"Material.034",
			"pbrMetallicRoughness":{
				"baseColorTexture":{
					"index":2
				},
				"metallicFactor":0,
				"roughnessFactor":0.5
			}
		},
		{
			"doubleSided":true,
			"name":"Gem\u00e4lde",
			"pbrMetallicRoughness":{
				"baseColorTexture":{
					"index":3
				},
				"metallicFactor":0,
				"roughnessFactor":0.5
			}
		},
		{
			"doubleSided":true,
			"name":"AussenPutz",
			"pbrMetallicRoughness":{
				"baseColorFactor":[
					0.7766516208648682,
					0.7766516208648682,
					0.7766516208648682,
					1
				],
				"metallicFactor":0
			}
		},
		{
			"doubleSided":true,
			"extensions":{
				"KHR_materials_specular":{
					"specularColorFactor":[
						2.0,
						2.0,
						2.0
					]
				}
			},
			"name":"Plastic (10)",
			"pbrMetallicRoughness":{
				"baseColorFactor":[
					0.9411764740943909,
					0.9411764740943909,
					0.9411764740943909,
					1
				],
				"metallicFactor":0.3700000047683716,
				"roughnessFactor":0.21259921789169312
			}
		},
		{
			"doubleSided":true,
			"extensions":{
				"KHR_materials_specular":{
					"specularColorFactor":[
						2.0,
						2.0,
						2.0
					]
				}
			},
			"name":"Material_77",
			"pbrMetallicRoughness":{
				"baseColorFactor":[
					0.9803921580314636,
					0.9803921580314636,
					0.9803921580314636,
					1
				],
				"roughnessFactor":0.5527864098548889
			}
		},
		{
			"doubleSided":true,
			"extensions":{
				"KHR_materials_specular":{
					"specularColorFactor":[
						2.0,
						2.0,
						2.0
					]
				}
			},
			"name":"Plastic",
			"pbrMetallicRoughness":{
				"baseColorFactor":[
					0.5372549295425415,
					0.5372549295425415,
					0.5372549295425415,
					1
				],
				"metallicFactor":0.3499999940395355,
				"roughnessFactor":0.20000000298023224
			}
		},
		{
			"doubleSided":true,
			"extensions":{
				"KHR_materials_specular":{
					"specularColorFactor":[
						2.0,
						2.0,
						2.0
					]
				}
			},
			"name":"Plastic (1)",
			"pbrMetallicRoughness":{
				"baseColorFactor":[
					0.10980392247438431,
					0.10980392247438431,
					0.10980392247438431,
					1
				],
				"metallicFactor":0,
				"roughnessFactor":0
			}
		},
		{
			"alphaMode":"MASK",
			"doubleSided":true,
			"extensions":{
				"KHR_materials_specular":{
					"specularColorFactor":[
						2.0,
						2.0,
						2.0
					]
				}
			},
			"name":"Glass.001",
			"pbrMetallicRoughness":{
				"baseColorFactor":[
					0,
					0,
					0,
					0
				],
				"metallicFactor":0,
				"roughnessFactor":0.078045554459095
			}
		},
		{
			"doubleSided":true,
			"extensions":{
				"KHR_materials_specular":{
					"specularColorFactor":[
						2.0,
						2.0,
						2.0
					]
				}
			},
			"name":"Plastic (2)",
			"pbrMetallicRoughness":{
				"baseColorFactor":[
					0.13725490868091583,
					0.13725490868091583,
					0.13725490868091583,
					1
				],
				"metallicFactor":0.3400000035762787,
				"roughnessFactor":0.18146471679210663
			}
		},
		{
			"doubleSided":true,
			"extensions":{
				"KHR_materials_specular":{
					"specularColorFactor":[
						2.0,
						2.0,
						2.0
					]
				}
			},
			"name":"Plastic (3)",
			"pbrMetallicRoughness":{
				"baseColorFactor":[
					0.95686274766922,
					0.4000000059604645,
					0,
					1
				],
				"metallicFactor":0.3700000047683716,
				"roughnessFactor":0.2254033237695694
			}
		},
		{
			"doubleSided":true,
			"extensions":{
				"KHR_materials_specular":{
					"specularColorFactor":[
						2.0,
						2.0,
						2.0
					]
				}
			},
			"name":"Plastic (4)",
			"pbrMetallicRoughness":{
				"baseColorFactor":[
					0.9529411792755127,
					0.9529411792755127,
					0.9529411792755127,
					1
				],
				"metallicFactor":0.05999999865889549,
				"roughnessFactor":0.09446148574352264
			}
		},
		{
			"doubleSided":true,
			"extensions":{
				"KHR_materials_specular":{
					"specularColorFactor":[
						2.0,
						2.0,
						2.0
					]
				}
			},
			"name":"Metal",
			"pbrMetallicRoughness":{
				"baseColorFactor":[
					0,
					0,
					0,
					1
				],
				"metallicFactor":0,
				"roughnessFactor":0.1875961571931839
			}
		},
		{
			"doubleSided":true,
			"extensions":{
				"KHR_materials_specular":{
					"specularColorFactor":[
						2.0,
						2.0,
						2.0
					]
				}
			},
			"name":"Plastic (5)",
			"pbrMetallicRoughness":{
				"baseColorFactor":[
					0.46666666865348816,
					0.46666666865348816,
					0.46666666865348816,
					1
				],
				"metallicFactor":0.4399999976158142,
				"roughnessFactor":0.2189750373363495
			}
		},
		{
			"doubleSided":true,
			"extensions":{
				"KHR_materials_specular":{
					"specularColorFactor":[
						2.0,
						2.0,
						2.0
					]
				}
			},
			"name":"Plastic (7)",
			"pbrMetallicRoughness":{
				"baseColorFactor":[
					0.0470588244497776,
					0.0470588244497776,
					0.0470588244497776,
					1
				],
				"metallicFactor":0.2199999988079071,
				"roughnessFactor":0.11118055880069733
			}
		},
		{
			"doubleSided":true,
			"extensions":{
				"KHR_materials_specular":{
					"specularColorFactor":[
						2.0,
						2.0,
						2.0
					]
				}
			},
			"name":"Plastic (8)",
			"pbrMetallicRoughness":{
				"baseColorFactor":[
					0.3176470696926117,
					0.3176470696926117,
					0.3176470696926117,
					1
				],
				"metallicFactor":0.23999999463558197,
				"roughnessFactor":0.15147186815738678
			}
		},
		{
			"doubleSided":true,
			"extensions":{
				"KHR_materials_specular":{
					"specularColorFactor":[
						2.0,
						2.0,
						2.0
					]
				}
			},
			"name":"Plastic (9)",
			"pbrMetallicRoughness":{
				"baseColorFactor":[
					0.007843137718737125,
					0.7450980544090271,
					0.8470588326454163,
					1
				],
				"metallicFactor":0.30000001192092896,
				"roughnessFactor":0.11682391166687012
			}
		},
		{
			"doubleSided":true,
			"extensions":{
				"KHR_materials_specular":{
					"specularColorFactor":[
						2.0,
						2.0,
						2.0
					]
				}
			},
			"name":"Plastic (12)",
			"pbrMetallicRoughness":{
				"baseColorFactor":[
					0,
					0,
					0,
					1
				],
				"metallicFactor":0,
				"roughnessFactor":0
			}
		},
		{
			"doubleSided":true,
			"extensions":{
				"KHR_materials_specular":{
					"specularColorFactor":[
						2.0,
						2.0,
						2.0
					]
				}
			},
			"name":"Plastic (13)",
			"pbrMetallicRoughness":{
				"baseColorFactor":[
					0.7529411911964417,
					0.7529411911964417,
					0.7529411911964417,
					1
				],
				"metallicFactor":0,
				"roughnessFactor":0
			}
		},
		{
			"doubleSided":true,
			"extensions":{
				"KHR_materials_specular":{
					"specularColorFactor":[
						2.0,
						2.0,
						2.0
					]
				}
			},
			"name":"Plastic (14)",
			"pbrMetallicRoughness":{
				"baseColorFactor":[
					0.8039215803146362,
					0.8039215803146362,
					0.8039215803146362,
					1
				],
				"metallicFactor":0.07999999821186066,
				"roughnessFactor":0.03046402893960476
			}
		},
		{
			"doubleSided":true,
			"name":"Material.006",
			"pbrMetallicRoughness":{
				"baseColorFactor":[
					0.8000156879425049,
					0.04561670869588852,
					0.05421975255012512,
					1
				],
				"metallicFactor":0,
				"roughnessFactor":0.5
			}
		},
		{
			"name":"Material_0.002",
			"normalTexture":{
				"index":4
			},
			"occlusionTexture":{
				"index":5
			},
			"pbrMetallicRoughness":{
				"baseColorTexture":{
					"index":6
				},
				"metallicFactor":0
			}
		}
	],
	"meshes":[
		{
			"name":"Curve.351",
			"primitives":[
				{
					"attributes":{
						"POSITION":0,
						"NORMAL":1,
						"TEXCOORD_0":2
					},
					"indices":3,
					"material":0
				}
			]
		},
		{
			"name":"3d-model.020",
			"primitives":[
				{
					"attributes":{
						"POSITION":4,
						"NORMAL":5,
						"TEXCOORD_0":6
					},
					"indices":7,
					"material":1
				},
				{
					"attributes":{
						"POSITION":8,
						"NORMAL":9,
						"TEXCOORD_0":10
					},
					"indices":11,
					"material":2
				},
				{
					"attributes":{
						"POSITION":12,
						"NORMAL":13,
						"TEXCOORD_0":14
					},
					"indices":15,
					"material":3
				},
				{
					"attributes":{
						"POSITION":16,
						"NORMAL":17,
						"TEXCOORD_0":18
					},
					"indices":19,
					"material":4
				}
			]
		},
		{
			"name":"Platte.005",
			"primitives":[
				{
					"attributes":{
						"POSITION":20,
						"NORMAL":21,
						"TEXCOORD_0":22
					},
					"indices":23,
					"material":5
				}
			]
		},
		{
			"name":"Curve.352",
			"primitives":[
				{
					"attributes":{
						"POSITION":24,
						"NORMAL":25,
						"TEXCOORD_0":26
					},
					"indices":27,
					"material":6
				}
			]
		},
		{
			"name":"Curve.353",
			"primitives":[
				{
					"attributes":{
						"POSITION":28,
						"NORMAL":29,
						"TEXCOORD_0":30
					},
					"indices":31,
					"material":7
				}
			]
		},
		{
			"name":"Curve.354",
			"primitives":[
				{
					"attributes":{
						"POSITION":32,
						"NORMAL":33,
						"TEXCOORD_0":34
					},
					"indices":35,
					"material":8
				}
			]
		},
		{
			"name":"Curve.355",
			"primitives":[
				{
					"attributes":{
						"POSITION":36,
						"NORMAL":37,
						"TEXCOORD_0":38
					},
					"indices":39,
					"material":9
				}
			]
		},
		{
			"name":"Curve.356",
			"primitives":[
				{
					"attributes":{
						"POSITION":40,
						"NORMAL":41,
						"TEXCOORD_0":42
					},
					"indices":27,
					"material":10
				}
			]
		},
		{
			"name":"Curve.357",
			"primitives":[
				{
					"attributes":{
						"POSITION":43,
						"NORMAL":44,
						"TEXCOORD_0":45
					},
					"indices":46,
					"material":11
				}
			]
		},
		{
			"name":"Platte.006",
			"primitives":[
				{
					"attributes":{
						"POSITION":47,
						"NORMAL":48,
						"TEXCOORD_0":49
					},
					"indices":23,
					"material":5
				}
			]
		},
		{
			"name":"Curve.358",
			"primitives":[
				{
					"attributes":{
						"POSITION":50,
						"NORMAL":51,
						"TEXCOORD_0":52
					},
					"indices":53,
					"material":2
				}
			]
		},
		{
			"name":"Curve.361",
			"primitives":[
				{
					"attributes":{
						"POSITION":54,
						"NORMAL":55,
						"TEXCOORD_0":56
					},
					"indices":31,
					"material":7
				}
			]
		},
		{
			"name":"Object_2.010",
			"primitives":[
				{
					"attributes":{
						"POSITION":57,
						"NORMAL":58,
						"TEXCOORD_0":59
					},
					"indices":60,
					"material":12
				},
				{
					"attributes":{
						"POSITION":61,
						"NORMAL":62,
						"TEXCOORD_0":63
					},
					"indices":64,
					"material":13
				},
				{
					"attributes":{
						"POSITION":65,
						"NORMAL":66,
						"TEXCOORD_0":67
					},
					"indices":68,
					"material":14
				},
				{
					"attributes":{
						"POSITION":69,
						"NORMAL":70,
						"TEXCOORD_0":71
					},
					"indices":72,
					"material":15
				},
				{
					"attributes":{
						"POSITION":73,
						"NORMAL":74,
						"TEXCOORD_0":75
					},
					"indices":76,
					"material":16
				},
				{
					"attributes":{
						"POSITION":77,
						"NORMAL":78,
						"TEXCOORD_0":79
					},
					"indices":80,
					"material":17
				},
				{
					"attributes":{
						"POSITION":81,
						"NORMAL":82,
						"TEXCOORD_0":83
					},
					"indices":84,
					"material":18
				},
				{
					"attributes":{
						"POSITION":85,
						"NORMAL":86,
						"TEXCOORD_0":87
					},
					"indices":88,
					"material":19
				},
				{
					"attributes":{
						"POSITION":89,
						"NORMAL":90,
						"TEXCOORD_0":91
					},
					"indices":92,
					"material":20
				},
				{
					"attributes":{
						"POSITION":93,
						"NORMAL":94,
						"TEXCOORD_0":95
					},
					"indices":96,
					"material":21
				},
				{
					"attributes":{
						"POSITION":97,
						"NORMAL":98,
						"TEXCOORD_0":99
					},
					"indices":100,
					"material":22
				},
				{
					"attributes":{
						"POSITION":101,
						"NORMAL":102,
						"TEXCOORD_0":103
					},
					"indices":104,
					"material":23
				},
				{
					"attributes":{
						"POSITION":105,
						"NORMAL":106,
						"TEXCOORD_0":107
					},
					"indices":108,
					"material":24
				},
				{
					"attributes":{
						"POSITION":109,
						"NORMAL":110,
						"TEXCOORD_0":111
					},
					"indices":112,
					"material":25
				},
				{
					"attributes":{
						"POSITION":113,
						"NORMAL":114,
						"TEXCOORD_0":115
					},
					"indices":116,
					"material":26
				},
				{
					"attributes":{
						"POSITION":117,
						"NORMAL":118,
						"TEXCOORD_0":119
					},
					"indices":120,
					"material":27
				}
			]
		},
		{
			"name":"Cube.840",
			"primitives":[
				{
					"attributes":{
						"POSITION":121,
						"NORMAL":122,
						"TEXCOORD_0":123
					},
					"indices":124,
					"material":28
				}
			]
		},
		{
			"name":"Mesh_0.039",
			"primitives":[
				{
					"attributes":{
						"POSITION":125,
						"NORMAL":126,
						"TEXCOORD_0":127
					},
					"indices":128,
					"material":29
				}
			]
		}
	],
	"textures":[
		{
			"sampler":0,
			"source":0
		},
		{
			"sampler":0,
			"source":1
		},
		{
			"sampler":0,
			"source":2
		},
		{
			"sampler":0,
			"source":3
		},
		{
			"sampler":0,
			"source":4
		},
		{
			"sampler":0,
			"source":5
		},
		{
			"sampler":0,
			"source":6
		}
	],
	"images":[
		{
			"mimeType":"image/png",
			"name":"Screenshot 2026-06-26 181812",
			"uri":"Screenshot%202026-06-26%20181812.png"
		},
		{
			"mimeType":"image/png",
			"name":"Screenshot 2026-06-26 181827",
			"uri":"Screenshot%202026-06-26%20181827.png"
		},
		{
			"mimeType":"image/png",
			"name":"Screenshot 2026-06-26 181820",
			"uri":"Screenshot%202026-06-26%20181820.png"
		},
		{
			"mimeType":"image/jpeg",
			"name":"dornhege_1",
			"uri":"dornhege_1.jpg"
		},
		{
			"mimeType":"image/jpeg",
			"name":"ffa9b365b29767dbe632a597066d47b4",
			"uri":"ffa9b365b29767dbe632a597066d47b4.jpg"
		},
		{
			"mimeType":"image/jpeg",
			"name":"082a04ef39e190c3e0b74fa0b1b6b451",
			"uri":"082a04ef39e190c3e0b74fa0b1b6b451.jpg"
		},
		{
			"mimeType":"image/jpeg",
			"name":"5df5ff62f86ad07569725302f0e825cf",
			"uri":"5df5ff62f86ad07569725302f0e825cf.jpg"
		}
	],
	"accessors":[
		{
			"bufferView":0,
			"componentType":5126,
			"count":240,
			"max":[
				0.6672286987304688,
				0.22500000894069672,
				0.3671140670776367
			],
			"min":[
				-0.667236328125,
				-0.22499997913837433,
				-0.3671102523803711
			],
			"type":"VEC3"
		},
		{
			"bufferView":1,
			"componentType":5126,
			"count":240,
			"type":"VEC3"
		},
		{
			"bufferView":2,
			"componentType":5126,
			"count":240,
			"type":"VEC2"
		},
		{
			"bufferView":3,
			"componentType":5123,
			"count":468,
			"type":"SCALAR"
		},
		{
			"bufferView":4,
			"componentType":5126,
			"count":582,
			"max":[
				4.968100070953369,
				5.205399990081787,
				-15.326600074768066
			],
			"min":[
				-4.968100070953369,
				-3.043299913406372,
				-16.82390022277832
			],
			"type":"VEC3"
		},
		{
			"bufferView":5,
			"componentType":5126,
			"count":582,
			"type":"VEC3"
		},
		{
			"bufferView":6,
			"componentType":5126,
			"count":582,
			"type":"VEC2"
		},
		{
			"bufferView":7,
			"componentType":5123,
			"count":720,
			"type":"SCALAR"
		},
		{
			"bufferView":8,
			"componentType":5126,
			"count":2476,
			"max":[
				9.238100051879883,
				10.030099868774414,
				-15.460399627685547
			],
			"min":[
				-9.238100051879883,
				-10.030099868774414,
				-31.76020050048828
			],
			"type":"VEC3"
		},
		{
			"bufferView":9,
			"componentType":5126,
			"count":2476,
			"type":"VEC3"
		},
		{
			"bufferView":10,
			"componentType":5126,
			"count":2476,
			"type":"VEC2"
		},
		{
			"bufferView":11,
			"componentType":5123,
			"count":11334,
			"type":"SCALAR"
		},
		{
			"bufferView":12,
			"componentType":5126,
			"count":2890,
			"max":[
				8.043600082397461,
				8.515800476074219,
				-0.28450000286102295
			],
			"min":[
				-7.97730016708374,
				-7.582799911499023,
				-14.674200057983398
			],
			"type":"VEC3"
		},
		{
			"bufferView":13,
			"componentType":5126,
			"count":2890,
			"type":"VEC3"
		},
		{
			"bufferView":14,
			"componentType":5126,
			"count":2890,
			"type":"VEC2"
		},
		{
			"bufferView":15,
			"componentType":5123,
			"count":4611,
			"type":"SCALAR"
		},
		{
			"bufferView":16,
			"componentType":5126,
			"count":5810,
			"max":[
				8.043700218200684,
				8.515999794006348,
				0
			],
			"min":[
				-7.977399826049805,
				-7.583000183105469,
				-16.15250015258789
			],
			"type":"VEC3"
		},
		{
			"bufferView":17,
			"componentType":5126,
			"count":5810,
			"type":"VEC3"
		},
		{
			"bufferView":18,
			"componentType":5126,
			"count":5810,
			"type":"VEC2"
		},
		{
			"bufferView":19,
			"componentType":5123,
			"count":8979,
			"type":"SCALAR"
		},
		{
			"bufferView":20,
			"componentType":5126,
			"count":1015,
			"max":[
				0.01600000075995922,
				0.04620000347495079,
				0.017942633479833603
			],
			"min":[
				-0.019852468743920326,
				-1.4552535958500812e-06,
				-0.017942633479833603
			],
			"type":"VEC3"
		},
		{
			"bufferView":21,
			"componentType":5126,
			"count":1015,
			"type":"VEC3"
		},
		{
			"bufferView":22,
			"componentType":5126,
			"count":1015,
			"type":"VEC2"
		},
		{
			"bufferView":23,
			"componentType":5123,
			"count":2994,
			"type":"SCALAR"
		},
		{
			"bufferView":24,
			"componentType":5126,
			"count":24,
			"max":[
				0.022225379943847656,
				0.75,
				0.7498626708984375
			],
			"min":[
				-0.022225379943847656,
				-0.75,
				-0.7498626708984375
			],
			"type":"VEC3"
		},
		{
			"bufferView":25,
			"componentType":5126,
			"count":24,
			"type":"VEC3"
		},
		{
			"bufferView":26,
			"componentType":5126,
			"count":24,
			"type":"VEC2"
		},
		{
			"bufferView":27,
			"componentType":5123,
			"count":36,
			"type":"SCALAR"
		},
		{
			"bufferView":28,
			"componentType":5126,
			"count":96,
			"max":[
				2.106146712321788e-05,
				2.759999990463257,
				-1.3083082194498274e-05
			],
			"min":[
				-0.029978936538100243,
				0,
				-0.600013017654419
			],
			"type":"VEC3"
		},
		{
			"bufferView":29,
			"componentType":5126,
			"count":96,
			"type":"VEC3"
		},
		{
			"bufferView":30,
			"componentType":5126,
			"count":96,
			"type":"VEC2"
		},
		{
			"bufferView":31,
			"componentType":5123,
			"count":132,
			"type":"SCALAR"
		},
		{
			"bufferView":32,
			"componentType":5126,
			"count":32,
			"max":[
				0.7518501281738281,
				0.7541879415512085,
				0.01748371124267578
			],
			"min":[
				-0.7481899261474609,
				-0.7458120584487915,
				-0.02695751190185547
			],
			"type":"VEC3"
		},
		{
			"bufferView":33,
			"componentType":5126,
			"count":32,
			"type":"VEC3"
		},
		{
			"bufferView":34,
			"componentType":5126,
			"count":32,
			"type":"VEC2"
		},
		{
			"bufferView":35,
			"componentType":5123,
			"count":54,
			"type":"SCALAR"
		},
		{
			"bufferView":36,
			"componentType":5126,
			"count":24,
			"max":[
				0.7500219345092773,
				0.75,
				0.022220611572265625
			],
			"min":[
				-0.7500219345092773,
				-0.7500001192092896,
				-0.022220611572265625
			],
			"type":"VEC3"
		},
		{
			"bufferView":37,
			"componentType":5126,
			"count":24,
			"type":"VEC3"
		},
		{
			"bufferView":38,
			"componentType":5126,
			"count":24,
			"type":"VEC2"
		},
		{
			"bufferView":39,
			"componentType":5123,
			"count":36,
			"type":"SCALAR"
		},
		{
			"bufferView":40,
			"componentType":5126,
			"count":24,
			"max":[
				0.04445075988769531,
				1.5,
				0
			],
			"min":[
				0,
				0,
				-1.499725341796875
			],
			"type":"VEC3"
		},
		{
			"bufferView":41,
			"componentType":5126,
			"count":24,
			"type":"VEC3"
		},
		{
			"bufferView":42,
			"componentType":5126,
			"count":24,
			"type":"VEC2"
		},
		{
			"bufferView":43,
			"componentType":5126,
			"count":24,
			"max":[
				0.059973713010549545,
				1.3999998569488525,
				0.50067138671875
			],
			"min":[
				-0.05997372046113014,
				-1.4000000953674316,
				-0.50067138671875
			],
			"type":"VEC3"
		},
		{
			"bufferView":44,
			"componentType":5126,
			"count":24,
			"type":"VEC3"
		},
		{
			"bufferView":45,
			"componentType":5126,
			"count":24,
			"type":"VEC2"
		},
		{
			"bufferView":46,
			"componentType":5123,
			"count":36,
			"type":"SCALAR"
		},
		{
			"bufferView":47,
			"componentType":5126,
			"count":1015,
			"max":[
				0.01600000075995922,
				0.04620000347495079,
				0.017942633479833603
			],
			"min":[
				-0.019852468743920326,
				-1.4552535958500812e-06,
				-0.017942633479833603
			],
			"type":"VEC3"
		},
		{
			"bufferView":48,
			"componentType":5126,
			"count":1015,
			"type":"VEC3"
		},
		{
			"bufferView":49,
			"componentType":5126,
			"count":1015,
			"type":"VEC2"
		},
		{
			"bufferView":50,
			"componentType":5126,
			"count":24,
			"max":[
				0.022225379943847656,
				0.75,
				0.7498626708984375
			],
			"min":[
				-0.022226333618164062,
				-0.75,
				-0.7498617172241211
			],
			"type":"VEC3"
		},
		{
			"bufferView":51,
			"componentType":5126,
			"count":24,
			"type":"VEC3"
		},
		{
			"bufferView":52,
			"componentType":5126,
			"count":24,
			"type":"VEC2"
		},
		{
			"bufferView":53,
			"componentType":5123,
			"count":36,
			"type":"SCALAR"
		},
		{
			"bufferView":54,
			"componentType":5126,
			"count":96,
			"max":[
				2.106146712321788e-05,
				2.759999990463257,
				-1.3083082194498274e-05
			],
			"min":[
				-0.029978936538100243,
				0,
				-0.600013017654419
			],
			"type":"VEC3"
		},
		{
			"bufferView":55,
			"componentType":5126,
			"count":96,
			"type":"VEC3"
		},
		{
			"bufferView":56,
			"componentType":5126,
			"count":96,
			"type":"VEC2"
		},
		{
			"bufferView":57,
			"componentType":5126,
			"count":3453,
			"max":[
				0.20712512731552124,
				0.5623845458030701,
				0.21284154057502747
			],
			"min":[
				-0.16454559564590454,
				-1.8107453314542e-08,
				-0.27617397904396057
			],
			"type":"VEC3"
		},
		{
			"bufferView":58,
			"componentType":5126,
			"count":3453,
			"type":"VEC3"
		},
		{
			"bufferView":59,
			"componentType":5126,
			"count":3453,
			"type":"VEC2"
		},
		{
			"bufferView":60,
			"componentType":5123,
			"count":9123,
			"type":"SCALAR"
		},
		{
			"bufferView":61,
			"componentType":5126,
			"count":172,
			"max":[
				0.1558588296175003,
				0.09300144761800766,
				0.040232524275779724
			],
			"min":[
				-0.019786369055509567,
				0.04781457781791687,
				-0.1985243558883667
			],
			"type":"VEC3"
		},
		{
			"bufferView":62,
			"componentType":5126,
			"count":172,
			"type":"VEC3"
		},
		{
			"bufferView":63,
			"componentType":5126,
			"count":172,
			"type":"VEC2"
		},
		{
			"bufferView":64,
			"componentType":5123,
			"count":414,
			"type":"SCALAR"
		},
		{
			"bufferView":65,
			"componentType":5126,
			"count":16,
			"max":[
				0.034890059381723404,
				0.09510620683431625,
				-0.18049342930316925
			],
			"min":[
				0.002692220499739051,
				0.08881451189517975,
				-0.18380862474441528
			],
			"type":"VEC3"
		},
		{
			"bufferView":66,
			"componentType":5126,
			"count":16,
			"type":"VEC3"
		},
		{
			"bufferView":67,
			"componentType":5126,
			"count":16,
			"type":"VEC2"
		},
		{
			"bufferView":68,
			"componentType":5123,
			"count":18,
			"type":"SCALAR"
		},
		{
			"bufferView":69,
			"componentType":5126,
			"count":11,
			"max":[
				0.034091006964445114,
				0.09496369957923889,
				-0.18082496523857117
			],
			"min":[
				0.003232151735574007,
				0.08961990475654602,
				-0.1836758702993393
			],
			"type":"VEC3"
		},
		{
			"bufferView":70,
			"componentType":5126,
			"count":11,
			"type":"VEC3"
		},
		{
			"bufferView":71,
			"componentType":5126,
			"count":11,
			"type":"VEC2"
		},
		{
			"bufferView":72,
			"componentType":5123,
			"count":15,
			"type":"SCALAR"
		},
		{
			"bufferView":73,
			"componentType":5126,
			"count":16,
			"max":[
				0.048548128455877304,
				0.09670916199684143,
				-0.18261517584323883
			],
			"min":[
				-0.013326907530426979,
				0.03361210599541664,
				-0.2670498788356781
			],
			"type":"VEC3"
		},
		{
			"bufferView":74,
			"componentType":5126,
			"count":16,
			"type":"VEC3"
		},
		{
			"bufferView":75,
			"componentType":5126,
			"count":16,
			"type":"VEC2"
		},
		{
			"bufferView":76,
			"componentType":5123,
			"count":30,
			"type":"SCALAR"
		},
		{
			"bufferView":77,
			"componentType":5126,
			"count":30,
			"max":[
				0.03751271963119507,
				0.09677246958017349,
				-0.18068702518939972
			],
			"min":[
				0.0005825032712891698,
				0.08778697997331619,
				-0.18822938203811646
			],
			"type":"VEC3"
		},
		{
			"bufferView":78,
			"componentType":5126,
			"count":30,
			"type":"VEC3"
		},
		{
			"bufferView":79,
			"componentType":5126,
			"count":30,
			"type":"VEC2"
		},
		{
			"bufferView":80,
			"componentType":5123,
			"count":42,
			"type":"SCALAR"
		},
		{
			"bufferView":81,
			"componentType":5126,
			"count":61,
			"max":[
				0.0522574707865715,
				0.10097380727529526,
				-0.1263875514268875
			],
			"min":[
				-0.010109561495482922,
				0.080527663230896,
				-0.1893601417541504
			],
			"type":"VEC3"
		},
		{
			"bufferView":82,
			"componentType":5126,
			"count":61,
			"type":"VEC3"
		},
		{
			"bufferView":83,
			"componentType":5126,
			"count":61,
			"type":"VEC2"
		},
		{
			"bufferView":84,
			"componentType":5123,
			"count":165,
			"type":"SCALAR"
		},
		{
			"bufferView":85,
			"componentType":5126,
			"count":348,
			"max":[
				0.055745650082826614,
				0.10650385916233063,
				-0.12289126217365265
			],
			"min":[
				-0.014157331548631191,
				0.08360639214515686,
				-0.19215014576911926
			],
			"type":"VEC3"
		},
		{
			"bufferView":86,
			"componentType":5126,
			"count":348,
			"type":"VEC3"
		},
		{
			"bufferView":87,
			"componentType":5126,
			"count":348,
			"type":"VEC2"
		},
		{
			"bufferView":88,
			"componentType":5123,
			"count":768,
			"type":"SCALAR"
		},
		{
			"bufferView":89,
			"componentType":5126,
			"count":42,
			"max":[
				0.053110167384147644,
				0.10650695860385895,
				-0.12812349200248718
			],
			"min":[
				-0.010838852263987064,
				0.08353336155414581,
				-0.24217940866947174
			],
			"type":"VEC3"
		},
		{
			"bufferView":90,
			"componentType":5126,
			"count":42,
			"type":"VEC3"
		},
		{
			"bufferView":91,
			"componentType":5126,
			"count":42,
			"type":"VEC2"
		},
		{
			"bufferView":92,
			"componentType":5123,
			"count":102,
			"type":"SCALAR"
		},
		{
			"bufferView":93,
			"componentType":5126,
			"count":15,
			"max":[
				0.023522915318608284,
				0.08445779979228973,
				-0.22780990600585938
			],
			"min":[
				0.017754873260855675,
				0.08407116681337357,
				-0.2332809716463089
			],
			"type":"VEC3"
		},
		{
			"bufferView":94,
			"componentType":5126,
			"count":15,
			"type":"VEC3"
		},
		{
			"bufferView":95,
			"componentType":5126,
			"count":15,
			"type":"VEC2"
		},
		{
			"bufferView":96,
			"componentType":5123,
			"count":15,
			"type":"SCALAR"
		},
		{
			"bufferView":97,
			"componentType":5126,
			"count":220,
			"max":[
				0.09465301781892776,
				0.07720886915922165,
				-0.24140702188014984
			],
			"min":[
				-0.058374181389808655,
				0.030738208442926407,
				-0.26855936646461487
			],
			"type":"VEC3"
		},
		{
			"bufferView":98,
			"componentType":5126,
			"count":220,
			"type":"VEC3"
		},
		{
			"bufferView":99,
			"componentType":5126,
			"count":220,
			"type":"VEC2"
		},
		{
			"bufferView":100,
			"componentType":5123,
			"count":444,
			"type":"SCALAR"
		},
		{
			"bufferView":101,
			"componentType":5126,
			"count":28,
			"max":[
				0.030291367322206497,
				0.05960647389292717,
				-0.255180686712265
			],
			"min":[
				0.005455056205391884,
				0.04404178261756897,
				-0.2600007951259613
			],
			"type":"VEC3"
		},
		{
			"bufferView":102,
			"componentType":5126,
			"count":28,
			"type":"VEC3"
		},
		{
			"bufferView":103,
			"componentType":5126,
			"count":28,
			"type":"VEC2"
		},
		{
			"bufferView":104,
			"componentType":5123,
			"count":54,
			"type":"SCALAR"
		},
		{
			"bufferView":105,
			"componentType":5126,
			"count":6,
			"max":[
				0.019542723894119263,
				0.050993070006370544,
				-0.2566286027431488
			],
			"min":[
				0.01640133745968342,
				0.047962505370378494,
				-0.258197158575058
			],
			"type":"VEC3"
		},
		{
			"bufferView":106,
			"componentType":5126,
			"count":6,
			"type":"VEC3"
		},
		{
			"bufferView":107,
			"componentType":5126,
			"count":6,
			"type":"VEC2"
		},
		{
			"bufferView":108,
			"componentType":5123,
			"count":6,
			"type":"SCALAR"
		},
		{
			"bufferView":109,
			"componentType":5126,
			"count":81,
			"max":[
				0.18914783000946045,
				0.5266574621200562,
				0.08477175235748291
			],
			"min":[
				-0.032906558364629745,
				0.047524161636829376,
				-0.17630982398986816
			],
			"type":"VEC3"
		},
		{
			"bufferView":110,
			"componentType":5126,
			"count":81,
			"type":"VEC3"
		},
		{
			"bufferView":111,
			"componentType":5126,
			"count":81,
			"type":"VEC2"
		},
		{
			"bufferView":112,
			"componentType":5123,
			"count":159,
			"type":"SCALAR"
		},
		{
			"bufferView":113,
			"componentType":5126,
			"count":10,
			"max":[
				0.07349082827568054,
				0.08144865930080414,
				0.07952345907688141
			],
			"min":[
				-0.028724221512675285,
				0.07118023186922073,
				0.07366589456796646
			],
			"type":"VEC3"
		},
		{
			"bufferView":114,
			"componentType":5126,
			"count":10,
			"type":"VEC3"
		},
		{
			"bufferView":115,
			"componentType":5126,
			"count":10,
			"type":"VEC2"
		},
		{
			"bufferView":116,
			"componentType":5123,
			"count":18,
			"type":"SCALAR"
		},
		{
			"bufferView":117,
			"componentType":5126,
			"count":109,
			"max":[
				0.04320342466235161,
				0.4309900999069214,
				0.029306134209036827
			],
			"min":[
				0.0034213580656796694,
				0.10017045587301254,
				-0.03433225676417351
			],
			"type":"VEC3"
		},
		{
			"bufferView":118,
			"componentType":5126,
			"count":109,
			"type":"VEC3"
		},
		{
			"bufferView":119,
			"componentType":5126,
			"count":109,
			"type":"VEC2"
		},
		{
			"bufferView":120,
			"componentType":5123,
			"count":171,
			"type":"SCALAR"
		},
		{
			"bufferView":121,
			"componentType":5126,
			"count":120,
			"max":[
				0.2077307403087616,
				1.9731699228286743,
				0.1730096936225891
			],
			"min":[
				-0.3753288686275482,
				0.003929249942302704,
				-0.4247828722000122
			],
			"type":"VEC3"
		},
		{
			"bufferView":122,
			"componentType":5126,
			"count":120,
			"type":"VEC3"
		},
		{
			"bufferView":123,
			"componentType":5126,
			"count":120,
			"type":"VEC2"
		},
		{
			"bufferView":124,
			"componentType":5123,
			"count":180,
			"type":"SCALAR"
		},
		{
			"bufferView":125,
			"componentType":5126,
			"count":21923,
			"max":[
				0.3189062774181366,
				0.7977826595306396,
				0.5036272406578064
			],
			"min":[
				-0.37367063760757446,
				0.02487265132367611,
				-0.4084343910217285
			],
			"type":"VEC3"
		},
		{
			"bufferView":126,
			"componentType":5126,
			"count":21923,
			"type":"VEC3"
		},
		{
			"bufferView":127,
			"componentType":5126,
			"count":21923,
			"type":"VEC2"
		},
		{
			"bufferView":128,
			"componentType":5123,
			"count":21975,
			"type":"SCALAR"
		}
	],
	"bufferViews":[
		{
			"buffer":0,
			"byteLength":2880,
			"byteOffset":0,
			"target":34962
		},
		{
			"buffer":0,
			"byteLength":2880,
			"byteOffset":2880,
			"target":34962
		},
		{
			"buffer":0,
			"byteLength":1920,
			"byteOffset":5760,
			"target":34962
		},
		{
			"buffer":0,
			"byteLength":936,
			"byteOffset":7680,
			"target":34963
		},
		{
			"buffer":0,
			"byteLength":6984,
			"byteOffset":8616,
			"target":34962
		},
		{
			"buffer":0,
			"byteLength":6984,
			"byteOffset":15600,
			"target":34962
		},
		{
			"buffer":0,
			"byteLength":4656,
			"byteOffset":22584,
			"target":34962
		},
		{
			"buffer":0,
			"byteLength":1440,
			"byteOffset":27240,
			"target":34963
		},
		{
			"buffer":0,
			"byteLength":29712,
			"byteOffset":28680,
			"target":34962
		},
		{
			"buffer":0,
			"byteLength":29712,
			"byteOffset":58392,
			"target":34962
		},
		{
			"buffer":0,
			"byteLength":19808,
			"byteOffset":88104,
			"target":34962
		},
		{
			"buffer":0,
			"byteLength":22668,
			"byteOffset":107912,
			"target":34963
		},
		{
			"buffer":0,
			"byteLength":34680,
			"byteOffset":130580,
			"target":34962
		},
		{
			"buffer":0,
			"byteLength":34680,
			"byteOffset":165260,
			"target":34962
		},
		{
			"buffer":0,
			"byteLength":23120,
			"byteOffset":199940,
			"target":34962
		},
		{
			"buffer":0,
			"byteLength":9222,
			"byteOffset":223060,
			"target":34963
		},
		{
			"buffer":0,
			"byteLength":69720,
			"byteOffset":232284,
			"target":34962
		},
		{
			"buffer":0,
			"byteLength":69720,
			"byteOffset":302004,
			"target":34962
		},
		{
			"buffer":0,
			"byteLength":46480,
			"byteOffset":371724,
			"target":34962
		},
		{
			"buffer":0,
			"byteLength":17958,
			"byteOffset":418204,
			"target":34963
		},
		{
			"buffer":0,
			"byteLength":12180,
			"byteOffset":436164,
			"target":34962
		},
		{
			"buffer":0,
			"byteLength":12180,
			"byteOffset":448344,
			"target":34962
		},
		{
			"buffer":0,
			"byteLength":8120,
			"byteOffset":460524,
			"target":34962
		},
		{
			"buffer":0,
			"byteLength":5988,
			"byteOffset":468644,
			"target":34963
		},
		{
			"buffer":0,
			"byteLength":288,
			"byteOffset":474632,
			"target":34962
		},
		{
			"buffer":0,
			"byteLength":288,
			"byteOffset":474920,
			"target":34962
		},
		{
			"buffer":0,
			"byteLength":192,
			"byteOffset":475208,
			"target":34962
		},
		{
			"buffer":0,
			"byteLength":72,
			"byteOffset":475400,
			"target":34963
		},
		{
			"buffer":0,
			"byteLength":1152,
			"byteOffset":475472,
			"target":34962
		},
		{
			"buffer":0,
			"byteLength":1152,
			"byteOffset":476624,
			"target":34962
		},
		{
			"buffer":0,
			"byteLength":768,
			"byteOffset":477776,
			"target":34962
		},
		{
			"buffer":0,
			"byteLength":264,
			"byteOffset":478544,
			"target":34963
		},
		{
			"buffer":0,
			"byteLength":384,
			"byteOffset":478808,
			"target":34962
		},
		{
			"buffer":0,
			"byteLength":384,
			"byteOffset":479192,
			"target":34962
		},
		{
			"buffer":0,
			"byteLength":256,
			"byteOffset":479576,
			"target":34962
		},
		{
			"buffer":0,
			"byteLength":108,
			"byteOffset":479832,
			"target":34963
		},
		{
			"buffer":0,
			"byteLength":288,
			"byteOffset":479940,
			"target":34962
		},
		{
			"buffer":0,
			"byteLength":288,
			"byteOffset":480228,
			"target":34962
		},
		{
			"buffer":0,
			"byteLength":192,
			"byteOffset":480516,
			"target":34962
		},
		{
			"buffer":0,
			"byteLength":72,
			"byteOffset":480708,
			"target":34963
		},
		{
			"buffer":0,
			"byteLength":288,
			"byteOffset":480780,
			"target":34962
		},
		{
			"buffer":0,
			"byteLength":288,
			"byteOffset":481068,
			"target":34962
		},
		{
			"buffer":0,
			"byteLength":192,
			"byteOffset":481356,
			"target":34962
		},
		{
			"buffer":0,
			"byteLength":288,
			"byteOffset":481548,
			"target":34962
		},
		{
			"buffer":0,
			"byteLength":288,
			"byteOffset":481836,
			"target":34962
		},
		{
			"buffer":0,
			"byteLength":192,
			"byteOffset":482124,
			"target":34962
		},
		{
			"buffer":0,
			"byteLength":72,
			"byteOffset":482316,
			"target":34963
		},
		{
			"buffer":0,
			"byteLength":12180,
			"byteOffset":482388,
			"target":34962
		},
		{
			"buffer":0,
			"byteLength":12180,
			"byteOffset":494568,
			"target":34962
		},
		{
			"buffer":0,
			"byteLength":8120,
			"byteOffset":506748,
			"target":34962
		},
		{
			"buffer":0,
			"byteLength":288,
			"byteOffset":514868,
			"target":34962
		},
		{
			"buffer":0,
			"byteLength":288,
			"byteOffset":515156,
			"target":34962
		},
		{
			"buffer":0,
			"byteLength":192,
			"byteOffset":515444,
			"target":34962
		},
		{
			"buffer":0,
			"byteLength":72,
			"byteOffset":515636,
			"target":34963
		},
		{
			"buffer":0,
			"byteLength":1152,
			"byteOffset":515708,
			"target":34962
		},
		{
			"buffer":0,
			"byteLength":1152,
			"byteOffset":516860,
			"target":34962
		},
		{
			"buffer":0,
			"byteLength":768,
			"byteOffset":518012,
			"target":34962
		},
		{
			"buffer":0,
			"byteLength":41436,
			"byteOffset":518780,
			"target":34962
		},
		{
			"buffer":0,
			"byteLength":41436,
			"byteOffset":560216,
			"target":34962
		},
		{
			"buffer":0,
			"byteLength":27624,
			"byteOffset":601652,
			"target":34962
		},
		{
			"buffer":0,
			"byteLength":18246,
			"byteOffset":629276,
			"target":34963
		},
		{
			"buffer":0,
			"byteLength":2064,
			"byteOffset":647524,
			"target":34962
		},
		{
			"buffer":0,
			"byteLength":2064,
			"byteOffset":649588,
			"target":34962
		},
		{
			"buffer":0,
			"byteLength":1376,
			"byteOffset":651652,
			"target":34962
		},
		{
			"buffer":0,
			"byteLength":828,
			"byteOffset":653028,
			"target":34963
		},
		{
			"buffer":0,
			"byteLength":192,
			"byteOffset":653856,
			"target":34962
		},
		{
			"buffer":0,
			"byteLength":192,
			"byteOffset":654048,
			"target":34962
		},
		{
			"buffer":0,
			"byteLength":128,
			"byteOffset":654240,
			"target":34962
		},
		{
			"buffer":0,
			"byteLength":36,
			"byteOffset":654368,
			"target":34963
		},
		{
			"buffer":0,
			"byteLength":132,
			"byteOffset":654404,
			"target":34962
		},
		{
			"buffer":0,
			"byteLength":132,
			"byteOffset":654536,
			"target":34962
		},
		{
			"buffer":0,
			"byteLength":88,
			"byteOffset":654668,
			"target":34962
		},
		{
			"buffer":0,
			"byteLength":30,
			"byteOffset":654756,
			"target":34963
		},
		{
			"buffer":0,
			"byteLength":192,
			"byteOffset":654788,
			"target":34962
		},
		{
			"buffer":0,
			"byteLength":192,
			"byteOffset":654980,
			"target":34962
		},
		{
			"buffer":0,
			"byteLength":128,
			"byteOffset":655172,
			"target":34962
		},
		{
			"buffer":0,
			"byteLength":60,
			"byteOffset":655300,
			"target":34963
		},
		{
			"buffer":0,
			"byteLength":360,
			"byteOffset":655360,
			"target":34962
		},
		{
			"buffer":0,
			"byteLength":360,
			"byteOffset":655720,
			"target":34962
		},
		{
			"buffer":0,
			"byteLength":240,
			"byteOffset":656080,
			"target":34962
		},
		{
			"buffer":0,
			"byteLength":84,
			"byteOffset":656320,
			"target":34963
		},
		{
			"buffer":0,
			"byteLength":732,
			"byteOffset":656404,
			"target":34962
		},
		{
			"buffer":0,
			"byteLength":732,
			"byteOffset":657136,
			"target":34962
		},
		{
			"buffer":0,
			"byteLength":488,
			"byteOffset":657868,
			"target":34962
		},
		{
			"buffer":0,
			"byteLength":330,
			"byteOffset":658356,
			"target":34963
		},
		{
			"buffer":0,
			"byteLength":4176,
			"byteOffset":658688,
			"target":34962
		},
		{
			"buffer":0,
			"byteLength":4176,
			"byteOffset":662864,
			"target":34962
		},
		{
			"buffer":0,
			"byteLength":2784,
			"byteOffset":667040,
			"target":34962
		},
		{
			"buffer":0,
			"byteLength":1536,
			"byteOffset":669824,
			"target":34963
		},
		{
			"buffer":0,
			"byteLength":504,
			"byteOffset":671360,
			"target":34962
		},
		{
			"buffer":0,
			"byteLength":504,
			"byteOffset":671864,
			"target":34962
		},
		{
			"buffer":0,
			"byteLength":336,
			"byteOffset":672368,
			"target":34962
		},
		{
			"buffer":0,
			"byteLength":204,
			"byteOffset":672704,
			"target":34963
		},
		{
			"buffer":0,
			"byteLength":180,
			"byteOffset":672908,
			"target":34962
		},
		{
			"buffer":0,
			"byteLength":180,
			"byteOffset":673088,
			"target":34962
		},
		{
			"buffer":0,
			"byteLength":120,
			"byteOffset":673268,
			"target":34962
		},
		{
			"buffer":0,
			"byteLength":30,
			"byteOffset":673388,
			"target":34963
		},
		{
			"buffer":0,
			"byteLength":2640,
			"byteOffset":673420,
			"target":34962
		},
		{
			"buffer":0,
			"byteLength":2640,
			"byteOffset":676060,
			"target":34962
		},
		{
			"buffer":0,
			"byteLength":1760,
			"byteOffset":678700,
			"target":34962
		},
		{
			"buffer":0,
			"byteLength":888,
			"byteOffset":680460,
			"target":34963
		},
		{
			"buffer":0,
			"byteLength":336,
			"byteOffset":681348,
			"target":34962
		},
		{
			"buffer":0,
			"byteLength":336,
			"byteOffset":681684,
			"target":34962
		},
		{
			"buffer":0,
			"byteLength":224,
			"byteOffset":682020,
			"target":34962
		},
		{
			"buffer":0,
			"byteLength":108,
			"byteOffset":682244,
			"target":34963
		},
		{
			"buffer":0,
			"byteLength":72,
			"byteOffset":682352,
			"target":34962
		},
		{
			"buffer":0,
			"byteLength":72,
			"byteOffset":682424,
			"target":34962
		},
		{
			"buffer":0,
			"byteLength":48,
			"byteOffset":682496,
			"target":34962
		},
		{
			"buffer":0,
			"byteLength":12,
			"byteOffset":682544,
			"target":34963
		},
		{
			"buffer":0,
			"byteLength":972,
			"byteOffset":682556,
			"target":34962
		},
		{
			"buffer":0,
			"byteLength":972,
			"byteOffset":683528,
			"target":34962
		},
		{
			"buffer":0,
			"byteLength":648,
			"byteOffset":684500,
			"target":34962
		},
		{
			"buffer":0,
			"byteLength":318,
			"byteOffset":685148,
			"target":34963
		},
		{
			"buffer":0,
			"byteLength":120,
			"byteOffset":685468,
			"target":34962
		},
		{
			"buffer":0,
			"byteLength":120,
			"byteOffset":685588,
			"target":34962
		},
		{
			"buffer":0,
			"byteLength":80,
			"byteOffset":685708,
			"target":34962
		},
		{
			"buffer":0,
			"byteLength":36,
			"byteOffset":685788,
			"target":34963
		},
		{
			"buffer":0,
			"byteLength":1308,
			"byteOffset":685824,
			"target":34962
		},
		{
			"buffer":0,
			"byteLength":1308,
			"byteOffset":687132,
			"target":34962
		},
		{
			"buffer":0,
			"byteLength":872,
			"byteOffset":688440,
			"target":34962
		},
		{
			"buffer":0,
			"byteLength":342,
			"byteOffset":689312,
			"target":34963
		},
		{
			"buffer":0,
			"byteLength":1440,
			"byteOffset":689656,
			"target":34962
		},
		{
			"buffer":0,
			"byteLength":1440,
			"byteOffset":691096,
			"target":34962
		},
		{
			"buffer":0,
			"byteLength":960,
			"byteOffset":692536,
			"target":34962
		},
		{
			"buffer":0,
			"byteLength":360,
			"byteOffset":693496,
			"target":34963
		},
		{
			"buffer":0,
			"byteLength":263076,
			"byteOffset":693856,
			"target":34962
		},
		{
			"buffer":0,
			"byteLength":263076,
			"byteOffset":956932,
			"target":34962
		},
		{
			"buffer":0,
			"byteLength":175384,
			"byteOffset":1220008,
			"target":34962
		},
		{
			"buffer":0,
			"byteLength":43950,
			"byteOffset":1395392,
			"target":34963
		}
	],
	"samplers":[
		{
			"magFilter":9729,
			"minFilter":9987
		}
	],
	"buffers":[
		{
			"byteLength":1439344,
			"uri":"EG_M%C3%B6bel.bin"
		}
	]
}
