{
	"asset":{
		"generator":"Khronos glTF Blender I/O v5.1.18",
		"version":"2.0"
	},
	"scene":0,
	"scenes":[
		{
			"name":"Scene",
			"nodes":[
				0
			]
		}
	],
	"nodes":[
		{
			"mesh":0,
			"name":"Treppe.003",
			"translation":[
				24.569324493408203,
				3.1599998474121094,
				-12.239297866821289
			]
		}
	],
	"materials":[
		{
			"doubleSided":true,
			"name":"Beton_Rough",
			"pbrMetallicRoughness":{
				"baseColorFactor":[
					0.3583049178123474,
					0.3314575254917145,
					0.36859366297721863,
					1
				],
				"metallicFactor":0
			}
		}
	],
	"meshes":[
		{
			"name":"Cube.497",
			"primitives":[
				{
					"attributes":{
						"POSITION":0,
						"NORMAL":1,
						"TEXCOORD_0":2
					},
					"indices":3,
					"material":0
				}
			]
		}
	],
	"accessors":[
		{
			"bufferView":0,
			"componentType":5126,
			"count":420,
			"max":[
				0.0009436705731786788,
				-0.019999993965029716,
				4.223442077636719
			],
			"min":[
				-1.1911523342132568,
				-3.1875,
				-6.453361578451222e-08
			],
			"type":"VEC3"
		},
		{
			"bufferView":1,
			"componentType":5126,
			"count":420,
			"type":"VEC3"
		},
		{
			"bufferView":2,
			"componentType":5126,
			"count":420,
			"type":"VEC2"
		},
		{
			"bufferView":3,
			"componentType":5123,
			"count":636,
			"type":"SCALAR"
		}
	],
	"bufferViews":[
		{
			"buffer":0,
			"byteLength":5040,
			"byteOffset":0,
			"target":34962
		},
		{
			"buffer":0,
			"byteLength":5040,
			"byteOffset":5040,
			"target":34962
		},
		{
			"buffer":0,
			"byteLength":3360,
			"byteOffset":10080,
			"target":34962
		},
		{
			"buffer":0,
			"byteLength":1272,
			"byteOffset":13440,
			"target":34963
		}
	],
	"buffers":[
		{
			"byteLength":14712,
			"uri":"EG_Treppe.bin"
		}
	]
}
