{
	"asset":{
		"generator":"Khronos glTF Blender I/O v5.1.18",
		"version":"2.0"
	},
	"scene":0,
	"scenes":[
		{
			"name":"Scene",
			"nodes":[
				0,
				1,
				2,
				3,
				4,
				5,
				6
			]
		}
	],
	"nodes":[
		{
			"mesh":0,
			"name":"Vorbau_Balkon.001",
			"rotation":[
				0,
				-1,
				0,
				4.371138828673793e-08
			],
			"scale":[
				1,
				1,
				1.1200000047683716
			],
			"translation":[
				24.9354305267334,
				-0.5249999761581421,
				-4.998964309692383
			]
		},
		{
			"mesh":1,
			"name":"Vorbau_Balkon.002",
			"rotation":[
				0,
				-1,
				0,
				4.371138828673793e-08
			],
			"scale":[
				1,
				1,
				1.1200000047683716
			],
			"translation":[
				15.885087013244629,
				-0.5249999761581421,
				-4.998964786529541
			]
		},
		{
			"mesh":2,
			"name":"Bad.008",
			"scale":[
				0.0009999999310821295,
				0.0009999999310821295,
				0.75
			],
			"translation":[
				25.800809860229492,
				2.5,
				-13.669998168945312
			]
		},
		{
			"mesh":3,
			"name":"Cylinder.002",
			"scale":[
				0.044999998062849045,
				3.3999998569488525,
				0.044999998062849045
			],
			"translation":[
				25.753543853759766,
				2.6342241764068604,
				-17.045551300048828
			]
		},
		{
			"mesh":4,
			"name":"Cylinder.005",
			"scale":[
				0.05999999865889549,
				3.3999998569488525,
				0.05999999865889549
			],
			"translation":[
				15.82164478302002,
				2.6342241764068604,
				-16.686124801635742
			]
		},
		{
			"mesh":5,
			"name":"Cylinder.006",
			"scale":[
				0.05999999865889549,
				3.3999998569488525,
				0.05999999865889549
			],
			"translation":[
				15.81898021697998,
				2.6342241764068604,
				-5.31622314453125
			]
		},
		{
			"mesh":6,
			"name":"Vorbau_Balkon.003",
			"rotation":[
				0,
				-1,
				0,
				4.371138828673793e-08
			],
			"scale":[
				1,
				1,
				1.1200000047683716
			],
			"translation":[
				15.885085105895996,
				-0.5249999761581421,
				-16.666765213012695
			]
		}
	],
	"materials":[
		{
			"doubleSided":true,
			"name":"Besenputz",
			"pbrMetallicRoughness":{
				"metallicFactor":0
			}
		},
		{
			"doubleSided":true,
			"name":"MetalWhite",
			"pbrMetallicRoughness":{
				"baseColorFactor":[
					0.07787817716598511,
					0.07787817716598511,
					0.07787817716598511,
					1
				],
				"metallicFactor":0.260606050491333,
				"roughnessFactor":0.5638610124588013
			}
		},
		{
			"doubleSided":true,
			"name":"AussenMetall",
			"pbrMetallicRoughness":{
				"baseColorFactor":[
					0.03954596072435379,
					0.04817187413573265,
					0.05448030307888985,
					1
				],
				"roughnessFactor":0.654285728931427
			}
		}
	],
	"meshes":[
		{
			"name":"Cube.942",
			"primitives":[
				{
					"attributes":{
						"POSITION":0,
						"NORMAL":1,
						"TEXCOORD_0":2
					},
					"indices":3,
					"material":0
				}
			]
		},
		{
			"name":"Cube.943",
			"primitives":[
				{
					"attributes":{
						"POSITION":4,
						"NORMAL":5,
						"TEXCOORD_0":6
					},
					"indices":3,
					"material":0
				}
			]
		},
		{
			"name":"Cube.944",
			"primitives":[
				{
					"attributes":{
						"POSITION":7,
						"NORMAL":8,
						"TEXCOORD_0":9
					},
					"indices":10,
					"material":1
				}
			]
		},
		{
			"name":"Cylinder.089",
			"primitives":[
				{
					"attributes":{
						"POSITION":11,
						"NORMAL":12,
						"TEXCOORD_0":13
					},
					"indices":14,
					"material":2
				}
			]
		},
		{
			"name":"Cylinder.090",
			"primitives":[
				{
					"attributes":{
						"POSITION":15,
						"NORMAL":16,
						"TEXCOORD_0":17
					},
					"indices":14,
					"material":2
				}
			]
		},
		{
			"name":"Cylinder.091",
			"primitives":[
				{
					"attributes":{
						"POSITION":18,
						"NORMAL":19,
						"TEXCOORD_0":20
					},
					"indices":14,
					"material":2
				}
			]
		},
		{
			"name":"Cube.945",
			"primitives":[
				{
					"attributes":{
						"POSITION":21,
						"NORMAL":22,
						"TEXCOORD_0":23
					},
					"indices":3,
					"material":0
				}
			]
		}
	],
	"accessors":[
		{
			"bufferView":0,
			"componentType":5126,
			"count":24,
			"max":[
				-1.4369633163369144e-06,
				6.375,
				0.2500000596046448
			],
			"min":[
				-0.8650014400482178,
				0,
				5.949556580731041e-08
			],
			"type":"VEC3"
		},
		{
			"bufferView":1,
			"componentType":5126,
			"count":24,
			"type":"VEC3"
		},
		{
			"bufferView":2,
			"componentType":5126,
			"count":24,
			"type":"VEC2"
		},
		{
			"bufferView":3,
			"componentType":5123,
			"count":36,
			"type":"SCALAR"
		},
		{
			"bufferView":4,
			"componentType":5126,
			"count":24,
			"max":[
				0.4500008225440979,
				6.375,
				0.2500000596046448
			],
			"min":[
				8.409973020206962e-07,
				4.7497451305389404e-08,
				5.949556580731041e-08
			],
			"type":"VEC3"
		},
		{
			"bufferView":5,
			"componentType":5126,
			"count":24,
			"type":"VEC3"
		},
		{
			"bufferView":6,
			"componentType":5126,
			"count":24,
			"type":"VEC2"
		},
		{
			"bufferView":7,
			"componentType":5126,
			"count":44,
			"max":[
				902.0000610351562,
				1456.410400390625,
				0
			],
			"min":[
				0,
				0,
				-2
			],
			"type":"VEC3"
		},
		{
			"bufferView":8,
			"componentType":5126,
			"count":44,
			"type":"VEC3"
		},
		{
			"bufferView":9,
			"componentType":5126,
			"count":44,
			"type":"VEC2"
		},
		{
			"bufferView":10,
			"componentType":5123,
			"count":84,
			"type":"SCALAR"
		},
		{
			"bufferView":11,
			"componentType":5126,
			"count":192,
			"max":[
				1,
				1,
				1
			],
			"min":[
				-1,
				-1,
				-1
			],
			"type":"VEC3"
		},
		{
			"bufferView":12,
			"componentType":5126,
			"count":192,
			"type":"VEC3"
		},
		{
			"bufferView":13,
			"componentType":5126,
			"count":192,
			"type":"VEC2"
		},
		{
			"bufferView":14,
			"componentType":5123,
			"count":372,
			"type":"SCALAR"
		},
		{
			"bufferView":15,
			"componentType":5126,
			"count":192,
			"max":[
				1,
				1,
				1
			],
			"min":[
				-1,
				-1,
				-1
			],
			"type":"VEC3"
		},
		{
			"bufferView":16,
			"componentType":5126,
			"count":192,
			"type":"VEC3"
		},
		{
			"bufferView":17,
			"componentType":5126,
			"count":192,
			"type":"VEC2"
		},
		{
			"bufferView":18,
			"componentType":5126,
			"count":192,
			"max":[
				1,
				1,
				1
			],
			"min":[
				-1,
				-1,
				-1
			],
			"type":"VEC3"
		},
		{
			"bufferView":19,
			"componentType":5126,
			"count":192,
			"type":"VEC3"
		},
		{
			"bufferView":20,
			"componentType":5126,
			"count":192,
			"type":"VEC2"
		},
		{
			"bufferView":21,
			"componentType":5126,
			"count":24,
			"max":[
				0.4500008225440979,
				6.375,
				0.2500000596046448
			],
			"min":[
				8.409973020206962e-07,
				4.7497451305389404e-08,
				5.949556580731041e-08
			],
			"type":"VEC3"
		},
		{
			"bufferView":22,
			"componentType":5126,
			"count":24,
			"type":"VEC3"
		},
		{
			"bufferView":23,
			"componentType":5126,
			"count":24,
			"type":"VEC2"
		}
	],
	"bufferViews":[
		{
			"buffer":0,
			"byteLength":288,
			"byteOffset":0,
			"target":34962
		},
		{
			"buffer":0,
			"byteLength":288,
			"byteOffset":288,
			"target":34962
		},
		{
			"buffer":0,
			"byteLength":192,
			"byteOffset":576,
			"target":34962
		},
		{
			"buffer":0,
			"byteLength":72,
			"byteOffset":768,
			"target":34963
		},
		{
			"buffer":0,
			"byteLength":288,
			"byteOffset":840,
			"target":34962
		},
		{
			"buffer":0,
			"byteLength":288,
			"byteOffset":1128,
			"target":34962
		},
		{
			"buffer":0,
			"byteLength":192,
			"byteOffset":1416,
			"target":34962
		},
		{
			"buffer":0,
			"byteLength":528,
			"byteOffset":1608,
			"target":34962
		},
		{
			"buffer":0,
			"byteLength":528,
			"byteOffset":2136,
			"target":34962
		},
		{
			"buffer":0,
			"byteLength":352,
			"byteOffset":2664,
			"target":34962
		},
		{
			"buffer":0,
			"byteLength":168,
			"byteOffset":3016,
			"target":34963
		},
		{
			"buffer":0,
			"byteLength":2304,
			"byteOffset":3184,
			"target":34962
		},
		{
			"buffer":0,
			"byteLength":2304,
			"byteOffset":5488,
			"target":34962
		},
		{
			"buffer":0,
			"byteLength":1536,
			"byteOffset":7792,
			"target":34962
		},
		{
			"buffer":0,
			"byteLength":744,
			"byteOffset":9328,
			"target":34963
		},
		{
			"buffer":0,
			"byteLength":2304,
			"byteOffset":10072,
			"target":34962
		},
		{
			"buffer":0,
			"byteLength":2304,
			"byteOffset":12376,
			"target":34962
		},
		{
			"buffer":0,
			"byteLength":1536,
			"byteOffset":14680,
			"target":34962
		},
		{
			"buffer":0,
			"byteLength":2304,
			"byteOffset":16216,
			"target":34962
		},
		{
			"buffer":0,
			"byteLength":2304,
			"byteOffset":18520,
			"target":34962
		},
		{
			"buffer":0,
			"byteLength":1536,
			"byteOffset":20824,
			"target":34962
		},
		{
			"buffer":0,
			"byteLength":288,
			"byteOffset":22360,
			"target":34962
		},
		{
			"buffer":0,
			"byteLength":288,
			"byteOffset":22648,
			"target":34962
		},
		{
			"buffer":0,
			"byteLength":192,
			"byteOffset":22936,
			"target":34962
		}
	],
	"buffers":[
		{
			"byteLength":23128,
			"uri":"Fassade.bin"
		}
	]
}
