{
	"asset":{
		"generator":"Khronos glTF Blender I/O v5.1.18",
		"version":"2.0"
	},
	"scene":0,
	"scenes":[
		{
			"name":"Scene",
			"nodes":[
				0,
				1,
				2,
				3,
				4,
				5,
				6,
				7,
				8,
				9,
				10,
				11,
				12,
				13,
				14
			]
		}
	],
	"nodes":[
		{
			"mesh":0,
			"name":"Cut-Fr\u00fch.001",
			"rotation":[
				0,
				0.7071068286895752,
				0,
				0.7071068286895752
			],
			"translation":[
				24.30769920349121,
				0,
				-5.150000095367432
			]
		},
		{
			"mesh":1,
			"name":"Cut-Office.002",
			"rotation":[
				0,
				0.7071068286895752,
				0,
				0.7071068286895752
			],
			"scale":[
				0.009999999776482582,
				1.2972972393035889,
				0.42667055130004883
			],
			"translation":[
				23.1939697265625,
				1.2521439790725708,
				-16.779834747314453
			]
		},
		{
			"mesh":2,
			"name":"T\u00fcrElement.007",
			"translation":[
				16.049999237060547,
				0,
				-7.513609886169434
			]
		},
		{
			"mesh":3,
			"name":"T\u00fcrElement.008",
			"translation":[
				16.049999237060547,
				0,
				-12.08860969543457
			]
		},
		{
			"mesh":4,
			"name":"Cut-Fr\u00fch.003",
			"rotation":[
				0,
				0.7071068286895752,
				0,
				0.7071068286895752
			],
			"scale":[
				0.009999999776482582,
				1.1999999284744263,
				1
			],
			"translation":[
				23.30769920349121,
				1.2282872200012207,
				-5.199999809265137
			]
		},
		{
			"mesh":5,
			"name":"Cut-Office.003",
			"rotation":[
				0,
				0.7071068286895752,
				0,
				0.7071068286895752
			],
			"scale":[
				1,
				1,
				1.000002145767212
			],
			"translation":[
				20.998336791992188,
				0.949999988079071,
				-5.150000095367432
			]
		},
		{
			"mesh":6,
			"name":"Cut-Office.010",
			"rotation":[
				0,
				0.7071068286895752,
				0,
				0.7071068286895752
			],
			"scale":[
				0.009999999776482582,
				0.9835484623908997,
				1.045343041419983
			],
			"translation":[
				20.730070114135742,
				1.8437879085540771,
				-5.200000286102295
			]
		},
		{
			"mesh":7,
			"name":"T\u00fcrElement.009",
			"rotation":[
				0,
				-0.7071068286895752,
				0,
				0.7071068286895752
			],
			"translation":[
				19.73588752746582,
				-1.423421859741211,
				-5.150000095367432
			]
		},
		{
			"mesh":8,
			"name":"Cut-Office.011",
			"rotation":[
				0,
				0.7071068286895752,
				0,
				0.7071068286895752
			],
			"translation":[
				21.697532653808594,
				-1.4234219789505005,
				-5.150000095367432
			]
		},
		{
			"mesh":9,
			"name":"Cut-Office.021",
			"rotation":[
				0,
				0.7071068286895752,
				0,
				0.7071068286895752
			],
			"scale":[
				0.009999999776482582,
				0.6918918490409851,
				0.6933396458625793
			],
			"translation":[
				21.04753303527832,
				-1.0079456567764282,
				-5.200000286102295
			]
		},
		{
			"mesh":10,
			"name":"Glas.002",
			"scale":[
				0.009999999776482582,
				1.3000000715255737,
				1.059999942779541
			],
			"translation":[
				24.749998092651367,
				1.2000007629394531,
				-6.657930374145508
			]
		},
		{
			"mesh":11,
			"name":"Cut_BreakfastOffice.001",
			"scale":[
				1,
				0.9446808099746704,
				0.04245282709598541
			],
			"translation":[
				24.749998092651367,
				1.2000001668930054,
				-7.026175498962402
			]
		},
		{
			"mesh":12,
			"name":"Cut_BreakfastOffice.008",
			"translation":[
				24.69999885559082,
				0,
				-5.661464691162109
			]
		},
		{
			"mesh":13,
			"name":"Cut-Office.024",
			"rotation":[
				0,
				0.7071068286895752,
				0,
				0.7071068286895752
			],
			"scale":[
				1,
				1,
				0.9375000596046448
			],
			"translation":[
				23.1939697265625,
				1.2000099420547485,
				-16.779834747314453
			]
		},
		{
			"mesh":14,
			"name":"Cut-Office.025",
			"rotation":[
				0.5,
				0.5,
				-0.5,
				0.5
			],
			"scale":[
				0.029999999329447746,
				0.0486486442387104,
				0.6933396458625793
			],
			"translation":[
				21.04753303527832,
				-0.9413642883300781,
				-5.200000286102295
			]
		}
	],
	"materials":[
		{
			"doubleSided":true,
			"name":"MetalWhite",
			"pbrMetallicRoughness":{
				"baseColorFactor":[
					0.07787817716598511,
					0.07787817716598511,
					0.07787817716598511,
					1
				],
				"metallicFactor":0.260606050491333,
				"roughnessFactor":0.5638610124588013
			}
		},
		{
			"alphaMode":"BLEND",
			"doubleSided":true,
			"name":"Glass",
			"pbrMetallicRoughness":{
				"baseColorFactor":[
					0.800000011920929,
					0.800000011920929,
					0.800000011920929,
					0.10000000149011612
				],
				"metallicFactor":0,
				"roughnessFactor":0
			}
		},
		{
			"doubleSided":true,
			"name":"MetalWhite.003",
			"pbrMetallicRoughness":{
				"baseColorFactor":[
					0.1985045075416565,
					0.1729932725429535,
					0.1491243839263916,
					1
				],
				"metallicFactor":0.260606050491333,
				"roughnessFactor":0.5638610124588013
			}
		}
	],
	"meshes":[
		{
			"name":"Cube.847",
			"primitives":[
				{
					"attributes":{
						"POSITION":0,
						"NORMAL":1,
						"TEXCOORD_0":2
					},
					"indices":3,
					"material":0
				}
			]
		},
		{
			"name":"Cube.848",
			"primitives":[
				{
					"attributes":{
						"POSITION":4,
						"NORMAL":5,
						"TEXCOORD_0":6
					},
					"indices":7,
					"material":1
				}
			]
		},
		{
			"name":"Cube.849",
			"primitives":[
				{
					"attributes":{
						"POSITION":8,
						"NORMAL":9,
						"TEXCOORD_0":10
					},
					"indices":11,
					"material":0
				},
				{
					"attributes":{
						"POSITION":12,
						"NORMAL":13,
						"TEXCOORD_0":14
					},
					"indices":15,
					"material":1
				}
			]
		},
		{
			"name":"Cube.850",
			"primitives":[
				{
					"attributes":{
						"POSITION":16,
						"NORMAL":17,
						"TEXCOORD_0":18
					},
					"indices":19,
					"material":0
				},
				{
					"attributes":{
						"POSITION":20,
						"NORMAL":21,
						"TEXCOORD_0":22
					},
					"indices":15,
					"material":1
				}
			]
		},
		{
			"name":"Cube.851",
			"primitives":[
				{
					"attributes":{
						"POSITION":23,
						"NORMAL":24,
						"TEXCOORD_0":25
					},
					"indices":26,
					"material":1
				}
			]
		},
		{
			"name":"Cube.852",
			"primitives":[
				{
					"attributes":{
						"POSITION":27,
						"NORMAL":28,
						"TEXCOORD_0":29
					},
					"indices":30,
					"material":0
				}
			]
		},
		{
			"name":"Cube.853",
			"primitives":[
				{
					"attributes":{
						"POSITION":31,
						"NORMAL":32,
						"TEXCOORD_0":33
					},
					"indices":34,
					"material":1
				}
			]
		},
		{
			"name":"Cube.854",
			"primitives":[
				{
					"attributes":{
						"POSITION":35,
						"NORMAL":36,
						"TEXCOORD_0":37
					},
					"indices":38,
					"material":0
				},
				{
					"attributes":{
						"POSITION":39,
						"NORMAL":40,
						"TEXCOORD_0":41
					},
					"indices":15,
					"material":1
				}
			]
		},
		{
			"name":"Cube.855",
			"primitives":[
				{
					"attributes":{
						"POSITION":42,
						"NORMAL":43,
						"TEXCOORD_0":44
					},
					"indices":30,
					"material":0
				}
			]
		},
		{
			"name":"Cube.856",
			"primitives":[
				{
					"attributes":{
						"POSITION":45,
						"NORMAL":46,
						"TEXCOORD_0":47
					},
					"indices":34,
					"material":1
				}
			]
		},
		{
			"name":"Cube.857",
			"primitives":[
				{
					"attributes":{
						"POSITION":48,
						"NORMAL":49,
						"TEXCOORD_0":50
					},
					"indices":51,
					"material":1
				}
			]
		},
		{
			"name":"Cube.858",
			"primitives":[
				{
					"attributes":{
						"POSITION":52,
						"NORMAL":53,
						"TEXCOORD_0":54
					},
					"indices":55,
					"material":0
				}
			]
		},
		{
			"name":"Cube.859",
			"primitives":[
				{
					"attributes":{
						"POSITION":56,
						"NORMAL":57,
						"TEXCOORD_0":58
					},
					"indices":59,
					"material":0
				}
			]
		},
		{
			"name":"Cube.860",
			"primitives":[
				{
					"attributes":{
						"POSITION":60,
						"NORMAL":61,
						"TEXCOORD_0":62
					},
					"indices":63,
					"material":0
				}
			]
		},
		{
			"name":"Cube.861",
			"primitives":[
				{
					"attributes":{
						"POSITION":64,
						"NORMAL":65,
						"TEXCOORD_0":66
					},
					"indices":34,
					"material":2
				}
			]
		}
	],
	"accessors":[
		{
			"bufferView":0,
			"componentType":5126,
			"count":48,
			"max":[
				0.10000002384185791,
				2.4499998092651367,
				-1.0499999523162842
			],
			"min":[
				0,
				0,
				-2
			],
			"type":"VEC3"
		},
		{
			"bufferView":1,
			"componentType":5126,
			"count":48,
			"type":"VEC3"
		},
		{
			"bufferView":2,
			"componentType":5126,
			"count":48,
			"type":"VEC2"
		},
		{
			"bufferView":3,
			"componentType":5123,
			"count":96,
			"type":"SCALAR"
		},
		{
			"bufferView":4,
			"componentType":5126,
			"count":24,
			"max":[
				1,
				0.925000011920929,
				0.9374914169311523
			],
			"min":[
				-1,
				-0.925000011920929,
				-0.9374914169311523
			],
			"type":"VEC3"
		},
		{
			"bufferView":5,
			"componentType":5126,
			"count":24,
			"type":"VEC3"
		},
		{
			"bufferView":6,
			"componentType":5126,
			"count":24,
			"type":"VEC2"
		},
		{
			"bufferView":7,
			"componentType":5123,
			"count":36,
			"type":"SCALAR"
		},
		{
			"bufferView":8,
			"componentType":5126,
			"count":80,
			"max":[
				0.09999999403953552,
				2.4499995708465576,
				1.25
			],
			"min":[
				0,
				0,
				0
			],
			"type":"VEC3"
		},
		{
			"bufferView":9,
			"componentType":5126,
			"count":80,
			"type":"VEC3"
		},
		{
			"bufferView":10,
			"componentType":5126,
			"count":80,
			"type":"VEC2"
		},
		{
			"bufferView":11,
			"componentType":5123,
			"count":180,
			"type":"SCALAR"
		},
		{
			"bufferView":12,
			"componentType":5126,
			"count":24,
			"max":[
				0.060000188648700714,
				2.4499995708465576,
				1.25
			],
			"min":[
				0.04000019282102585,
				0,
				0
			],
			"type":"VEC3"
		},
		{
			"bufferView":13,
			"componentType":5126,
			"count":24,
			"type":"VEC3"
		},
		{
			"bufferView":14,
			"componentType":5126,
			"count":24,
			"type":"VEC2"
		},
		{
			"bufferView":15,
			"componentType":5123,
			"count":36,
			"type":"SCALAR"
		},
		{
			"bufferView":16,
			"componentType":5126,
			"count":144,
			"max":[
				0.09999999403953552,
				2.4499990940093994,
				3.75
			],
			"min":[
				0,
				0,
				-1.25
			],
			"type":"VEC3"
		},
		{
			"bufferView":17,
			"componentType":5126,
			"count":144,
			"type":"VEC3"
		},
		{
			"bufferView":18,
			"componentType":5126,
			"count":144,
			"type":"VEC2"
		},
		{
			"bufferView":19,
			"componentType":5123,
			"count":348,
			"type":"SCALAR"
		},
		{
			"bufferView":20,
			"componentType":5126,
			"count":24,
			"max":[
				0.060000188648700714,
				2.4499990940093994,
				3.75
			],
			"min":[
				0.04000019282102585,
				0,
				-1.25
			],
			"type":"VEC3"
		},
		{
			"bufferView":21,
			"componentType":5126,
			"count":24,
			"type":"VEC3"
		},
		{
			"bufferView":22,
			"componentType":5126,
			"count":24,
			"type":"VEC2"
		},
		{
			"bufferView":23,
			"componentType":5126,
			"count":24,
			"max":[
				1,
				1,
				1
			],
			"min":[
				-1,
				-1,
				-1
			],
			"type":"VEC3"
		},
		{
			"bufferView":24,
			"componentType":5126,
			"count":24,
			"type":"VEC3"
		},
		{
			"bufferView":25,
			"componentType":5126,
			"count":24,
			"type":"VEC2"
		},
		{
			"bufferView":26,
			"componentType":5123,
			"count":36,
			"type":"SCALAR"
		},
		{
			"bufferView":27,
			"componentType":5126,
			"count":48,
			"max":[
				0.10000000894069672,
				1.4999961853027344,
				6.612202128053468e-07
			],
			"min":[
				9.950024804084023e-09,
				0,
				-1.2549116611480713
			],
			"type":"VEC3"
		},
		{
			"bufferView":28,
			"componentType":5126,
			"count":48,
			"type":"VEC3"
		},
		{
			"bufferView":29,
			"componentType":5126,
			"count":48,
			"type":"VEC2"
		},
		{
			"bufferView":30,
			"componentType":5123,
			"count":96,
			"type":"SCALAR"
		},
		{
			"bufferView":31,
			"componentType":5126,
			"count":24,
			"max":[
				1,
				0.925000011920929,
				0.9374912977218628
			],
			"min":[
				-1,
				-0.925000011920929,
				-0.9374912977218628
			],
			"type":"VEC3"
		},
		{
			"bufferView":32,
			"componentType":5126,
			"count":24,
			"type":"VEC3"
		},
		{
			"bufferView":33,
			"componentType":5126,
			"count":24,
			"type":"VEC2"
		},
		{
			"bufferView":34,
			"componentType":5123,
			"count":36,
			"type":"SCALAR"
		},
		{
			"bufferView":35,
			"componentType":5126,
			"count":80,
			"max":[
				7.105427357601002e-15,
				0.9000002145767212,
				2.5
			],
			"min":[
				-0.10000038146972656,
				0,
				0
			],
			"type":"VEC3"
		},
		{
			"bufferView":36,
			"componentType":5126,
			"count":80,
			"type":"VEC3"
		},
		{
			"bufferView":37,
			"componentType":5126,
			"count":80,
			"type":"VEC2"
		},
		{
			"bufferView":38,
			"componentType":5123,
			"count":180,
			"type":"SCALAR"
		},
		{
			"bufferView":39,
			"componentType":5126,
			"count":24,
			"max":[
				-0.039999961853027344,
				0.9000002145767212,
				2.5
			],
			"min":[
				-0.06000041961669922,
				0,
				0
			],
			"type":"VEC3"
		},
		{
			"bufferView":40,
			"componentType":5126,
			"count":24,
			"type":"VEC3"
		},
		{
			"bufferView":41,
			"componentType":5126,
			"count":24,
			"type":"VEC2"
		},
		{
			"bufferView":42,
			"componentType":5126,
			"count":48,
			"max":[
				0.10000000894069672,
				0.9049999713897705,
				6.612202128053468e-07
			],
			"min":[
				1.192092824453539e-08,
				0,
				-1.2999991178512573
			],
			"type":"VEC3"
		},
		{
			"bufferView":43,
			"componentType":5126,
			"count":48,
			"type":"VEC3"
		},
		{
			"bufferView":44,
			"componentType":5126,
			"count":48,
			"type":"VEC2"
		},
		{
			"bufferView":45,
			"componentType":5126,
			"count":24,
			"max":[
				1,
				0.925000011920929,
				0.9374912977218628
			],
			"min":[
				-1,
				-0.925000011920929,
				-0.9374912977218628
			],
			"type":"VEC3"
		},
		{
			"bufferView":46,
			"componentType":5126,
			"count":24,
			"type":"VEC3"
		},
		{
			"bufferView":47,
			"componentType":5126,
			"count":24,
			"type":"VEC2"
		},
		{
			"bufferView":48,
			"componentType":5126,
			"count":24,
			"max":[
				1,
				0.9230771660804749,
				1
			],
			"min":[
				-1,
				-0.9230772852897644,
				-1
			],
			"type":"VEC3"
		},
		{
			"bufferView":49,
			"componentType":5126,
			"count":24,
			"type":"VEC3"
		},
		{
			"bufferView":50,
			"componentType":5126,
			"count":24,
			"type":"VEC2"
		},
		{
			"bufferView":51,
			"componentType":5123,
			"count":36,
			"type":"SCALAR"
		},
		{
			"bufferView":52,
			"componentType":5126,
			"count":24,
			"max":[
				0.04999999701976776,
				1.2808557748794556,
				1.0600000619888306
			],
			"min":[
				-0.05000000819563866,
				-1.1750001907348633,
				-1.0600000619888306
			],
			"type":"VEC3"
		},
		{
			"bufferView":53,
			"componentType":5126,
			"count":24,
			"type":"VEC3"
		},
		{
			"bufferView":54,
			"componentType":5126,
			"count":24,
			"type":"VEC2"
		},
		{
			"bufferView":55,
			"componentType":5123,
			"count":36,
			"type":"SCALAR"
		},
		{
			"bufferView":56,
			"componentType":5126,
			"count":48,
			"max":[
				0.10000001639127731,
				2.4499998092651367,
				0
			],
			"min":[
				1.1920929132713809e-08,
				0,
				-2.0500001907348633
			],
			"type":"VEC3"
		},
		{
			"bufferView":57,
			"componentType":5126,
			"count":48,
			"type":"VEC3"
		},
		{
			"bufferView":58,
			"componentType":5126,
			"count":48,
			"type":"VEC2"
		},
		{
			"bufferView":59,
			"componentType":5123,
			"count":96,
			"type":"SCALAR"
		},
		{
			"bufferView":60,
			"componentType":5126,
			"count":48,
			"max":[
				0.04999999701976776,
				1.25,
				0.3999999761581421
			],
			"min":[
				-0.04999999701976776,
				-1.1999999284744263,
				-0.3999999761581421
			],
			"type":"VEC3"
		},
		{
			"bufferView":61,
			"componentType":5126,
			"count":48,
			"type":"VEC3"
		},
		{
			"bufferView":62,
			"componentType":5126,
			"count":48,
			"type":"VEC2"
		},
		{
			"bufferView":63,
			"componentType":5123,
			"count":96,
			"type":"SCALAR"
		},
		{
			"bufferView":64,
			"componentType":5126,
			"count":24,
			"max":[
				1,
				0.925000011920929,
				0.9374912977218628
			],
			"min":[
				-1,
				-0.925000011920929,
				-0.9374912977218628
			],
			"type":"VEC3"
		},
		{
			"bufferView":65,
			"componentType":5126,
			"count":24,
			"type":"VEC3"
		},
		{
			"bufferView":66,
			"componentType":5126,
			"count":24,
			"type":"VEC2"
		}
	],
	"bufferViews":[
		{
			"buffer":0,
			"byteLength":576,
			"byteOffset":0,
			"target":34962
		},
		{
			"buffer":0,
			"byteLength":576,
			"byteOffset":576,
			"target":34962
		},
		{
			"buffer":0,
			"byteLength":384,
			"byteOffset":1152,
			"target":34962
		},
		{
			"buffer":0,
			"byteLength":192,
			"byteOffset":1536,
			"target":34963
		},
		{
			"buffer":0,
			"byteLength":288,
			"byteOffset":1728,
			"target":34962
		},
		{
			"buffer":0,
			"byteLength":288,
			"byteOffset":2016,
			"target":34962
		},
		{
			"buffer":0,
			"byteLength":192,
			"byteOffset":2304,
			"target":34962
		},
		{
			"buffer":0,
			"byteLength":72,
			"byteOffset":2496,
			"target":34963
		},
		{
			"buffer":0,
			"byteLength":960,
			"byteOffset":2568,
			"target":34962
		},
		{
			"buffer":0,
			"byteLength":960,
			"byteOffset":3528,
			"target":34962
		},
		{
			"buffer":0,
			"byteLength":640,
			"byteOffset":4488,
			"target":34962
		},
		{
			"buffer":0,
			"byteLength":360,
			"byteOffset":5128,
			"target":34963
		},
		{
			"buffer":0,
			"byteLength":288,
			"byteOffset":5488,
			"target":34962
		},
		{
			"buffer":0,
			"byteLength":288,
			"byteOffset":5776,
			"target":34962
		},
		{
			"buffer":0,
			"byteLength":192,
			"byteOffset":6064,
			"target":34962
		},
		{
			"buffer":0,
			"byteLength":72,
			"byteOffset":6256,
			"target":34963
		},
		{
			"buffer":0,
			"byteLength":1728,
			"byteOffset":6328,
			"target":34962
		},
		{
			"buffer":0,
			"byteLength":1728,
			"byteOffset":8056,
			"target":34962
		},
		{
			"buffer":0,
			"byteLength":1152,
			"byteOffset":9784,
			"target":34962
		},
		{
			"buffer":0,
			"byteLength":696,
			"byteOffset":10936,
			"target":34963
		},
		{
			"buffer":0,
			"byteLength":288,
			"byteOffset":11632,
			"target":34962
		},
		{
			"buffer":0,
			"byteLength":288,
			"byteOffset":11920,
			"target":34962
		},
		{
			"buffer":0,
			"byteLength":192,
			"byteOffset":12208,
			"target":34962
		},
		{
			"buffer":0,
			"byteLength":288,
			"byteOffset":12400,
			"target":34962
		},
		{
			"buffer":0,
			"byteLength":288,
			"byteOffset":12688,
			"target":34962
		},
		{
			"buffer":0,
			"byteLength":192,
			"byteOffset":12976,
			"target":34962
		},
		{
			"buffer":0,
			"byteLength":72,
			"byteOffset":13168,
			"target":34963
		},
		{
			"buffer":0,
			"byteLength":576,
			"byteOffset":13240,
			"target":34962
		},
		{
			"buffer":0,
			"byteLength":576,
			"byteOffset":13816,
			"target":34962
		},
		{
			"buffer":0,
			"byteLength":384,
			"byteOffset":14392,
			"target":34962
		},
		{
			"buffer":0,
			"byteLength":192,
			"byteOffset":14776,
			"target":34963
		},
		{
			"buffer":0,
			"byteLength":288,
			"byteOffset":14968,
			"target":34962
		},
		{
			"buffer":0,
			"byteLength":288,
			"byteOffset":15256,
			"target":34962
		},
		{
			"buffer":0,
			"byteLength":192,
			"byteOffset":15544,
			"target":34962
		},
		{
			"buffer":0,
			"byteLength":72,
			"byteOffset":15736,
			"target":34963
		},
		{
			"buffer":0,
			"byteLength":960,
			"byteOffset":15808,
			"target":34962
		},
		{
			"buffer":0,
			"byteLength":960,
			"byteOffset":16768,
			"target":34962
		},
		{
			"buffer":0,
			"byteLength":640,
			"byteOffset":17728,
			"target":34962
		},
		{
			"buffer":0,
			"byteLength":360,
			"byteOffset":18368,
			"target":34963
		},
		{
			"buffer":0,
			"byteLength":288,
			"byteOffset":18728,
			"target":34962
		},
		{
			"buffer":0,
			"byteLength":288,
			"byteOffset":19016,
			"target":34962
		},
		{
			"buffer":0,
			"byteLength":192,
			"byteOffset":19304,
			"target":34962
		},
		{
			"buffer":0,
			"byteLength":576,
			"byteOffset":19496,
			"target":34962
		},
		{
			"buffer":0,
			"byteLength":576,
			"byteOffset":20072,
			"target":34962
		},
		{
			"buffer":0,
			"byteLength":384,
			"byteOffset":20648,
			"target":34962
		},
		{
			"buffer":0,
			"byteLength":288,
			"byteOffset":21032,
			"target":34962
		},
		{
			"buffer":0,
			"byteLength":288,
			"byteOffset":21320,
			"target":34962
		},
		{
			"buffer":0,
			"byteLength":192,
			"byteOffset":21608,
			"target":34962
		},
		{
			"buffer":0,
			"byteLength":288,
			"byteOffset":21800,
			"target":34962
		},
		{
			"buffer":0,
			"byteLength":288,
			"byteOffset":22088,
			"target":34962
		},
		{
			"buffer":0,
			"byteLength":192,
			"byteOffset":22376,
			"target":34962
		},
		{
			"buffer":0,
			"byteLength":72,
			"byteOffset":22568,
			"target":34963
		},
		{
			"buffer":0,
			"byteLength":288,
			"byteOffset":22640,
			"target":34962
		},
		{
			"buffer":0,
			"byteLength":288,
			"byteOffset":22928,
			"target":34962
		},
		{
			"buffer":0,
			"byteLength":192,
			"byteOffset":23216,
			"target":34962
		},
		{
			"buffer":0,
			"byteLength":72,
			"byteOffset":23408,
			"target":34963
		},
		{
			"buffer":0,
			"byteLength":576,
			"byteOffset":23480,
			"target":34962
		},
		{
			"buffer":0,
			"byteLength":576,
			"byteOffset":24056,
			"target":34962
		},
		{
			"buffer":0,
			"byteLength":384,
			"byteOffset":24632,
			"target":34962
		},
		{
			"buffer":0,
			"byteLength":192,
			"byteOffset":25016,
			"target":34963
		},
		{
			"buffer":0,
			"byteLength":576,
			"byteOffset":25208,
			"target":34962
		},
		{
			"buffer":0,
			"byteLength":576,
			"byteOffset":25784,
			"target":34962
		},
		{
			"buffer":0,
			"byteLength":384,
			"byteOffset":26360,
			"target":34962
		},
		{
			"buffer":0,
			"byteLength":192,
			"byteOffset":26744,
			"target":34963
		},
		{
			"buffer":0,
			"byteLength":288,
			"byteOffset":26936,
			"target":34962
		},
		{
			"buffer":0,
			"byteLength":288,
			"byteOffset":27224,
			"target":34962
		},
		{
			"buffer":0,
			"byteLength":192,
			"byteOffset":27512,
			"target":34962
		}
	],
	"buffers":[
		{
			"byteLength":27704,
			"uri":"Fenster.bin"
		}
	]
}
