{
	"asset":{
		"generator":"Khronos glTF Blender I/O v5.1.18",
		"version":"2.0"
	},
	"scene":0,
	"scenes":[
		{
			"name":"Scene",
			"nodes":[
				0,
				1,
				2,
				3,
				4,
				5,
				6,
				7,
				8,
				9,
				10,
				11,
				12,
				13,
				14,
				15,
				16,
				17,
				18,
				19,
				20,
				21,
				22,
				23,
				24,
				25,
				26,
				27,
				28,
				29,
				30,
				31,
				32,
				33,
				34,
				35,
				36,
				37,
				38,
				39,
				40
			]
		}
	],
	"nodes":[
		{
			"mesh":0,
			"name":"_EingangTreppe.003",
			"scale":[
				1.0333335399627686,
				1,
				0.6545454859733582
			],
			"translation":[
				29.431350708007812,
				-0.5249999761581421,
				-12.540680885314941
			]
		},
		{
			"mesh":1,
			"name":"Material2.048",
			"rotation":[
				0.694159984588623,
				-0.13469189405441284,
				0.13469189405441284,
				0.6941600441932678
			],
			"scale":[
				-0.026866894215345383,
				-0.02686689794063568,
				-0.02686689794063568
			],
			"translation":[
				27.314212799072266,
				-0.5956928730010986,
				-4.206180095672607
			]
		},
		{
			"mesh":2,
			"name":"Material2.049",
			"rotation":[
				-0.6941600441932678,
				-0.13469189405441284,
				-0.13469189405441284,
				0.694159984588623
			],
			"scale":[
				0.026866894215345383,
				0.02686689794063568,
				0.02686689794063568
			],
			"translation":[
				27.2984561920166,
				-0.12794692814350128,
				-4.218176364898682
			]
		},
		{
			"mesh":3,
			"name":"Material2.050",
			"rotation":[
				-0.6941600441932678,
				-0.13469189405441284,
				-0.13469189405441284,
				0.694159984588623
			],
			"scale":[
				0.026866894215345383,
				0.02686689794063568,
				0.02686689794063568
			],
			"translation":[
				27.51792335510254,
				0.38912129402160645,
				-4.711345195770264
			]
		},
		{
			"mesh":4,
			"name":"Material2.051",
			"rotation":[
				-0.6941600441932678,
				-0.13469189405441284,
				-0.13469189405441284,
				0.694159984588623
			],
			"scale":[
				0.026866894215345383,
				0.02686689794063568,
				0.02686689794063568
			],
			"translation":[
				27.50128173828125,
				0.1625954508781433,
				-4.670079708099365
			]
		},
		{
			"mesh":5,
			"name":"Material2.052",
			"rotation":[
				-0.6941600441932678,
				-0.13469189405441284,
				-0.13469189405441284,
				0.694159984588623
			],
			"scale":[
				0.026866894215345383,
				0.02686689794063568,
				0.02686689794063568
			],
			"translation":[
				27.512374877929688,
				0.3136126399040222,
				-4.697589874267578
			]
		},
		{
			"mesh":6,
			"name":"Material2.053",
			"rotation":[
				-0.6941600441932678,
				-0.13469189405441284,
				-0.13469189405441284,
				0.694159984588623
			],
			"scale":[
				0.026866894215345383,
				0.02686689794063568,
				0.02686689794063568
			],
			"translation":[
				27.50682830810547,
				0.23810404539108276,
				-4.683835029602051
			]
		},
		{
			"mesh":7,
			"name":"Material2.047",
			"rotation":[
				-0.6941600441932678,
				-0.13469189405441284,
				-0.13469189405441284,
				0.694159984588623
			],
			"scale":[
				0.026866894215345383,
				0.02686689794063568,
				0.02686689794063568
			],
			"translation":[
				27.700428009033203,
				-0.5956928730010986,
				-4.050436496734619
			]
		},
		{
			"mesh":8,
			"name":"Material2.055",
			"rotation":[
				0.14630021154880524,
				0.6918064951896667,
				-0.6918065547943115,
				0.14630021154880524
			],
			"scale":[
				-0.026866896077990532,
				-0.02686689794063568,
				-0.02686689794063568
			],
			"translation":[
				27.033456802368164,
				-0.5956927537918091,
				-2.53501033782959
			]
		},
		{
			"mesh":9,
			"name":"Material2.056",
			"rotation":[
				-0.14630021154880524,
				0.6918065547943115,
				0.6918064951896667,
				0.14630021154880524
			],
			"scale":[
				0.026866896077990532,
				0.02686689794063568,
				0.02686689794063568
			],
			"translation":[
				27.043134689331055,
				-0.10849511623382568,
				-2.523688316345215
			]
		},
		{
			"mesh":10,
			"name":"Material2.057",
			"rotation":[
				-0.14630021154880524,
				0.6918065547943115,
				0.6918064951896667,
				0.14630021154880524
			],
			"scale":[
				0.026866896077990532,
				0.02686689794063568,
				0.02686689794063568
			],
			"translation":[
				26.81294059753418,
				0.38912153244018555,
				-2.036952257156372
			]
		},
		{
			"mesh":11,
			"name":"Material2.058",
			"rotation":[
				-0.14630021154880524,
				0.6918065547943115,
				0.6918064951896667,
				0.14630021154880524
			],
			"scale":[
				0.026866896077990532,
				0.02686689794063568,
				0.02686689794063568
			],
			"translation":[
				26.83095359802246,
				0.1625956892967224,
				-2.077637195587158
			]
		},
		{
			"mesh":12,
			"name":"Material2.059",
			"rotation":[
				-0.14630021154880524,
				0.6918065547943115,
				0.6918064951896667,
				0.14630021154880524
			],
			"scale":[
				0.026866896077990532,
				0.02686689794063568,
				0.02686689794063568
			],
			"translation":[
				26.818944931030273,
				0.3136128783226013,
				-2.050513982772827
			]
		},
		{
			"mesh":13,
			"name":"Material2.060",
			"rotation":[
				-0.14630021154880524,
				0.6918065547943115,
				0.6918064951896667,
				0.14630021154880524
			],
			"scale":[
				0.026866896077990532,
				0.02686689794063568,
				0.02686689794063568
			],
			"translation":[
				26.824949264526367,
				0.23810428380966187,
				-2.064075469970703
			]
		},
		{
			"mesh":14,
			"name":"Material2.054",
			"rotation":[
				-0.14630021154880524,
				0.6918065547943115,
				0.6918064951896667,
				0.14630021154880524
			],
			"scale":[
				0.026866896077990532,
				0.02686689794063568,
				0.02686689794063568
			],
			"translation":[
				26.652673721313477,
				-0.5956927537918091,
				-2.7036030292510986
			]
		},
		{
			"mesh":15,
			"name":"Material2.062",
			"rotation":[
				0.5926308631896973,
				0.3857312500476837,
				-0.3857312798500061,
				0.592630922794342
			],
			"scale":[
				-0.02686690352857113,
				-0.02686689980328083,
				-0.02686689794063568
			],
			"translation":[
				26.288400650024414,
				-0.5956928133964539,
				-3.6266028881073
			]
		},
		{
			"mesh":16,
			"name":"Material2.063",
			"rotation":[
				-0.5926309823989868,
				0.3857313394546509,
				0.3857313096523285,
				0.592630922794342
			],
			"scale":[
				0.02686690352857113,
				0.02686689980328083,
				0.02686689794063568
			],
			"translation":[
				26.277076721191406,
				-0.10849517583847046,
				-3.61692476272583
			]
		},
		{
			"mesh":17,
			"name":"Material2.064",
			"rotation":[
				-0.5926309823989868,
				0.3857313394546509,
				0.3857313096523285,
				0.592630922794342
			],
			"scale":[
				0.02686690352857113,
				0.02686689980328083,
				0.02686689794063568
			],
			"translation":[
				25.790342330932617,
				0.389121413230896,
				-3.8471193313598633
			]
		},
		{
			"mesh":18,
			"name":"Material2.065",
			"rotation":[
				-0.5926309823989868,
				0.3857313394546509,
				0.3857313096523285,
				0.592630922794342
			],
			"scale":[
				0.02686690352857113,
				0.02686689980328083,
				0.02686689794063568
			],
			"translation":[
				25.83102798461914,
				0.16259557008743286,
				-3.829106092453003
			]
		},
		{
			"mesh":19,
			"name":"Material2.066",
			"rotation":[
				-0.5926309823989868,
				0.3857313394546509,
				0.3857313096523285,
				0.592630922794342
			],
			"scale":[
				0.02686690352857113,
				0.02686689980328083,
				0.02686689794063568
			],
			"translation":[
				25.803903579711914,
				0.31361275911331177,
				-3.8411147594451904
			]
		},
		{
			"mesh":20,
			"name":"Material2.067",
			"rotation":[
				-0.5926309823989868,
				0.3857313394546509,
				0.3857313096523285,
				0.592630922794342
			],
			"scale":[
				0.02686690352857113,
				0.02686689980328083,
				0.02686689794063568
			],
			"translation":[
				25.81746482849121,
				0.23810416460037231,
				-3.8351104259490967
			]
		},
		{
			"mesh":21,
			"name":"Material2.061",
			"rotation":[
				-0.5926309823989868,
				0.3857313394546509,
				0.3857313096523285,
				0.592630922794342
			],
			"scale":[
				0.02686690352857113,
				0.02686689980328083,
				0.02686689794063568
			],
			"translation":[
				26.456993103027344,
				-0.5956928730010986,
				-4.007386684417725
			]
		},
		{
			"mesh":22,
			"name":"Material2.041",
			"rotation":[
				0.3589823842048645,
				-0.6092057824134827,
				0.6092057824134827,
				0.3589824140071869
			],
			"scale":[
				-0.02686690352857113,
				-0.02686689980328083,
				-0.02686689794063568
			],
			"translation":[
				27.875194549560547,
				-0.5956928133964539,
				-3.276726245880127
			]
		},
		{
			"mesh":23,
			"name":"Material2.042",
			"rotation":[
				-0.3589824140071869,
				-0.6092057824134827,
				-0.6092057824134827,
				0.3589823842048645
			],
			"scale":[
				0.02686690352857113,
				0.02686689980328083,
				0.02686689794063568
			],
			"translation":[
				27.887332916259766,
				-0.10849517583847046,
				-3.2853598594665527
			]
		},
		{
			"mesh":24,
			"name":"Material2.043",
			"rotation":[
				-0.3589824140071869,
				-0.6092057824134827,
				-0.6092057824134827,
				0.3589823842048645
			],
			"scale":[
				0.02686690352857113,
				0.02686689980328083,
				0.02686689794063568
			],
			"translation":[
				28.3516788482666,
				0.38912147283554077,
				-3.0128085613250732
			]
		},
		{
			"mesh":25,
			"name":"Material2.044",
			"rotation":[
				-0.3589824140071869,
				-0.6092057824134827,
				-0.6092057824134827,
				0.3589823842048645
			],
			"scale":[
				0.02686690352857113,
				0.02686689980328083,
				0.02686689794063568
			],
			"translation":[
				28.312755584716797,
				0.16259562969207764,
				-3.034367084503174
			]
		},
		{
			"mesh":26,
			"name":"Material2.045",
			"rotation":[
				-0.3589824140071869,
				-0.6092057824134827,
				-0.6092057824134827,
				0.3589823842048645
			],
			"scale":[
				0.02686690352857113,
				0.02686689980328083,
				0.02686689794063568
			],
			"translation":[
				28.33870506286621,
				0.31361281871795654,
				-3.0199949741363525
			]
		},
		{
			"mesh":27,
			"name":"Material2.046",
			"rotation":[
				-0.3589824140071869,
				-0.6092057824134827,
				-0.6092057824134827,
				0.3589823842048645
			],
			"scale":[
				0.02686690352857113,
				0.02686689980328083,
				0.02686689794063568
			],
			"translation":[
				28.325729370117188,
				0.2381042242050171,
				-3.0271811485290527
			]
		},
		{
			"mesh":28,
			"name":"Material2.040",
			"rotation":[
				-0.3589824140071869,
				-0.6092057824134827,
				-0.6092057824134827,
				0.3589823842048645
			],
			"scale":[
				0.02686690352857113,
				0.02686689980328083,
				0.02686689794063568
			],
			"translation":[
				27.673419952392578,
				-0.5956927537918091,
				-2.9124369621276855
			]
		},
		{
			"mesh":29,
			"name":"Material2.068",
			"rotation":[
				0.32361069321632385,
				-0.6287098526954651,
				0.6287099123001099,
				0.32361072301864624
			],
			"scale":[
				-0.02686689980328083,
				-0.02686689794063568,
				-0.02686689794063568
			],
			"translation":[
				27.368459701538086,
				-0.5956928133964539,
				-3.598625659942627
			]
		},
		{
			"mesh":30,
			"name":"Material2.069",
			"rotation":[
				0.6759424209594727,
				-0.20760981738567352,
				0.20760980248451233,
				0.6759425401687622
			],
			"scale":[
				-0.026866909116506577,
				-0.026866910979151726,
				-0.02686689794063568
			],
			"translation":[
				27.1238956451416,
				-0.5956928730010986,
				-3.6908953189849854
			]
		},
		{
			"mesh":31,
			"name":"Material2.070",
			"rotation":[
				0.14630021154880524,
				0.6918064951896667,
				-0.6918065547943115,
				0.14630021154880524
			],
			"scale":[
				-0.026866896077990532,
				-0.02686689794063568,
				-0.02686689794063568
			],
			"translation":[
				26.932281494140625,
				0.31778159737586975,
				-4.207984924316406
			]
		},
		{
			"mesh":32,
			"name":"Material2.071",
			"rotation":[
				0.14630021154880524,
				0.6918064951896667,
				-0.6918065547943115,
				0.14630021154880524
			],
			"scale":[
				-0.026866896077990532,
				-0.02686689794063568,
				-0.02686689794063568
			],
			"translation":[
				26.932281494140625,
				0.31778159737586975,
				-4.207984924316406
			]
		},
		{
			"mesh":33,
			"name":"Material2.072",
			"rotation":[
				0.14630021154880524,
				0.6918064951896667,
				-0.6918065547943115,
				0.14630021154880524
			],
			"scale":[
				-0.026866896077990532,
				-0.02686689794063568,
				-0.02686689794063568
			],
			"translation":[
				26.932281494140625,
				0.2774812579154968,
				-4.207984924316406
			]
		},
		{
			"mesh":34,
			"name":"Material2.073",
			"rotation":[
				0.14630021154880524,
				0.6918064951896667,
				-0.6918065547943115,
				0.14630021154880524
			],
			"scale":[
				-0.026866896077990532,
				-0.02686689794063568,
				-0.02686689794063568
			],
			"translation":[
				27.087764739990234,
				-0.034914612770080566,
				-3.797891616821289
			]
		},
		{
			"mesh":35,
			"name":"Material2.074",
			"rotation":[
				-0.44387051463127136,
				-0.5504353046417236,
				-0.5504352450370789,
				0.4438704550266266
			],
			"scale":[
				0.02686689980328083,
				0.026866896077990532,
				0.02686689794063568
			],
			"translation":[
				27.248403549194336,
				-0.5956928133964539,
				-3.3274712562561035
			]
		},
		{
			"mesh":36,
			"name":"Material2.075",
			"rotation":[
				-0.08381710946559906,
				0.7021216154098511,
				0.7021214962005615,
				0.08381711691617966
			],
			"scale":[
				0.026866907253861427,
				0.026866910979151726,
				0.02686689794063568
			],
			"translation":[
				27.015695571899414,
				-0.5956928730010986,
				-3.446514368057251
			]
		},
		{
			"mesh":37,
			"name":"Material2.076",
			"rotation":[
				-0.6918065547943115,
				-0.14630021154880524,
				-0.14630021154880524,
				0.6918064951896667
			],
			"scale":[
				0.026866896077990532,
				0.02686689794063568,
				0.02686689794063568
			],
			"translation":[
				26.50405502319336,
				0.3177817165851593,
				-3.2407922744750977
			]
		},
		{
			"mesh":38,
			"name":"Material2.077",
			"rotation":[
				-0.6918065547943115,
				-0.14630021154880524,
				-0.14630021154880524,
				0.6918064951896667
			],
			"scale":[
				0.026866896077990532,
				0.02686689794063568,
				0.02686689794063568
			],
			"translation":[
				26.50405502319336,
				0.3177817165851593,
				-3.2407922744750977
			]
		},
		{
			"mesh":39,
			"name":"Material2.078",
			"rotation":[
				-0.6918065547943115,
				-0.14630021154880524,
				-0.14630021154880524,
				0.6918064951896667
			],
			"scale":[
				0.026866896077990532,
				0.02686689794063568,
				0.02686689794063568
			],
			"translation":[
				26.50405502319336,
				0.2774813771247864,
				-3.2407922744750977
			]
		},
		{
			"mesh":40,
			"name":"Material2.079",
			"rotation":[
				-0.6918065547943115,
				-0.14630021154880524,
				-0.14630021154880524,
				0.6918064951896667
			],
			"scale":[
				0.026866896077990532,
				0.02686689794063568,
				0.02686689794063568
			],
			"translation":[
				26.912189483642578,
				-0.034914612770080566,
				-3.4013423919677734
			]
		}
	],
	"materials":[
		{
			"doubleSided":true,
			"name":"AussenMetall",
			"pbrMetallicRoughness":{
				"baseColorFactor":[
					0.03954596072435379,
					0.04817187413573265,
					0.05448030307888985,
					1
				],
				"roughnessFactor":0.654285728931427
			}
		},
		{
			"name":"0135_gris_mximo",
			"pbrMetallicRoughness":{
				"baseColorFactor":[
					0.012518225237727165,
					0.012518225237727165,
					0.012518225237727165,
					1
				],
				"roughnessFactor":0.6000000238418579
			}
		},
		{
			"name":"Color_C09",
			"pbrMetallicRoughness":{
				"baseColorFactor":[
					0.4099098742008209,
					0.4099098742008209,
					0.4099098742008209,
					1
				],
				"metallicFactor":0,
				"roughnessFactor":0.6000000238418579
			}
		},
		{
			"alphaMode":"BLEND",
			"name":"Vidrio",
			"pbrMetallicRoughness":{
				"baseColorFactor":[
					1,
					1,
					1,
					0.20000000298023224
				],
				"roughnessFactor":0
			}
		}
	],
	"meshes":[
		{
			"name":"Cube.764",
			"primitives":[
				{
					"attributes":{
						"POSITION":0,
						"NORMAL":1,
						"TEXCOORD_0":2
					},
					"indices":3,
					"material":0
				}
			]
		},
		{
			"name":"Material2.168",
			"primitives":[
				{
					"attributes":{
						"POSITION":4,
						"NORMAL":5
					},
					"indices":6,
					"material":1
				}
			]
		},
		{
			"name":"Material2.169",
			"primitives":[
				{
					"attributes":{
						"POSITION":7,
						"NORMAL":8
					},
					"indices":9,
					"material":2
				}
			]
		},
		{
			"name":"Material2.170",
			"primitives":[
				{
					"attributes":{
						"POSITION":10,
						"NORMAL":11
					},
					"indices":12,
					"material":1
				}
			]
		},
		{
			"name":"Material2.171",
			"primitives":[
				{
					"attributes":{
						"POSITION":13,
						"NORMAL":14
					},
					"indices":12,
					"material":1
				}
			]
		},
		{
			"name":"Material2.172",
			"primitives":[
				{
					"attributes":{
						"POSITION":15,
						"NORMAL":16
					},
					"indices":12,
					"material":1
				}
			]
		},
		{
			"name":"Material2.173",
			"primitives":[
				{
					"attributes":{
						"POSITION":17,
						"NORMAL":18
					},
					"indices":12,
					"material":1
				}
			]
		},
		{
			"name":"Material2.167",
			"primitives":[
				{
					"attributes":{
						"POSITION":19,
						"NORMAL":20
					},
					"indices":21,
					"material":1
				}
			]
		},
		{
			"name":"Material2.175",
			"primitives":[
				{
					"attributes":{
						"POSITION":22,
						"NORMAL":23
					},
					"indices":6,
					"material":1
				}
			]
		},
		{
			"name":"Material2.176",
			"primitives":[
				{
					"attributes":{
						"POSITION":24,
						"NORMAL":25
					},
					"indices":9,
					"material":2
				}
			]
		},
		{
			"name":"Material2.177",
			"primitives":[
				{
					"attributes":{
						"POSITION":26,
						"NORMAL":27
					},
					"indices":12,
					"material":1
				}
			]
		},
		{
			"name":"Material2.178",
			"primitives":[
				{
					"attributes":{
						"POSITION":28,
						"NORMAL":29
					},
					"indices":12,
					"material":1
				}
			]
		},
		{
			"name":"Material2.179",
			"primitives":[
				{
					"attributes":{
						"POSITION":30,
						"NORMAL":31
					},
					"indices":12,
					"material":1
				}
			]
		},
		{
			"name":"Material2.180",
			"primitives":[
				{
					"attributes":{
						"POSITION":32,
						"NORMAL":33
					},
					"indices":12,
					"material":1
				}
			]
		},
		{
			"name":"Material2.174",
			"primitives":[
				{
					"attributes":{
						"POSITION":34,
						"NORMAL":35
					},
					"indices":21,
					"material":1
				}
			]
		},
		{
			"name":"Material2.182",
			"primitives":[
				{
					"attributes":{
						"POSITION":36,
						"NORMAL":37
					},
					"indices":6,
					"material":1
				}
			]
		},
		{
			"name":"Material2.183",
			"primitives":[
				{
					"attributes":{
						"POSITION":38,
						"NORMAL":39
					},
					"indices":9,
					"material":2
				}
			]
		},
		{
			"name":"Material2.184",
			"primitives":[
				{
					"attributes":{
						"POSITION":40,
						"NORMAL":41
					},
					"indices":12,
					"material":1
				}
			]
		},
		{
			"name":"Material2.185",
			"primitives":[
				{
					"attributes":{
						"POSITION":42,
						"NORMAL":43
					},
					"indices":12,
					"material":1
				}
			]
		},
		{
			"name":"Material2.186",
			"primitives":[
				{
					"attributes":{
						"POSITION":44,
						"NORMAL":45
					},
					"indices":12,
					"material":1
				}
			]
		},
		{
			"name":"Material2.187",
			"primitives":[
				{
					"attributes":{
						"POSITION":46,
						"NORMAL":47
					},
					"indices":12,
					"material":1
				}
			]
		},
		{
			"name":"Material2.181",
			"primitives":[
				{
					"attributes":{
						"POSITION":48,
						"NORMAL":49
					},
					"indices":21,
					"material":1
				}
			]
		},
		{
			"name":"Material2.161",
			"primitives":[
				{
					"attributes":{
						"POSITION":50,
						"NORMAL":51
					},
					"indices":6,
					"material":1
				}
			]
		},
		{
			"name":"Material2.162",
			"primitives":[
				{
					"attributes":{
						"POSITION":52,
						"NORMAL":53
					},
					"indices":9,
					"material":2
				}
			]
		},
		{
			"name":"Material2.163",
			"primitives":[
				{
					"attributes":{
						"POSITION":54,
						"NORMAL":55
					},
					"indices":12,
					"material":1
				}
			]
		},
		{
			"name":"Material2.164",
			"primitives":[
				{
					"attributes":{
						"POSITION":56,
						"NORMAL":57
					},
					"indices":12,
					"material":1
				}
			]
		},
		{
			"name":"Material2.165",
			"primitives":[
				{
					"attributes":{
						"POSITION":58,
						"NORMAL":59
					},
					"indices":12,
					"material":1
				}
			]
		},
		{
			"name":"Material2.166",
			"primitives":[
				{
					"attributes":{
						"POSITION":60,
						"NORMAL":61
					},
					"indices":12,
					"material":1
				}
			]
		},
		{
			"name":"Material2.160",
			"primitives":[
				{
					"attributes":{
						"POSITION":62,
						"NORMAL":63
					},
					"indices":21,
					"material":1
				}
			]
		},
		{
			"name":"Material2.188",
			"primitives":[
				{
					"attributes":{
						"POSITION":64,
						"NORMAL":65
					},
					"indices":66,
					"material":1
				}
			]
		},
		{
			"name":"Material2.189",
			"primitives":[
				{
					"attributes":{
						"POSITION":67,
						"NORMAL":68
					},
					"indices":66,
					"material":1
				}
			]
		},
		{
			"name":"Material2.190",
			"primitives":[
				{
					"attributes":{
						"POSITION":69,
						"NORMAL":70
					},
					"indices":71,
					"material":3
				}
			]
		},
		{
			"name":"Material2.191",
			"primitives":[
				{
					"attributes":{
						"POSITION":72,
						"NORMAL":73
					},
					"indices":71,
					"material":3
				}
			]
		},
		{
			"name":"Material2.192",
			"primitives":[
				{
					"attributes":{
						"POSITION":74,
						"NORMAL":75
					},
					"indices":76,
					"material":1
				}
			]
		},
		{
			"name":"Material2.193",
			"primitives":[
				{
					"attributes":{
						"POSITION":77,
						"NORMAL":78
					},
					"indices":79,
					"material":1
				}
			]
		},
		{
			"name":"Material2.194",
			"primitives":[
				{
					"attributes":{
						"POSITION":80,
						"NORMAL":81
					},
					"indices":82,
					"material":1
				}
			]
		},
		{
			"name":"Material2.195",
			"primitives":[
				{
					"attributes":{
						"POSITION":83,
						"NORMAL":84
					},
					"indices":82,
					"material":1
				}
			]
		},
		{
			"name":"Material2.196",
			"primitives":[
				{
					"attributes":{
						"POSITION":85,
						"NORMAL":86
					},
					"indices":87,
					"material":3
				}
			]
		},
		{
			"name":"Material2.197",
			"primitives":[
				{
					"attributes":{
						"POSITION":88,
						"NORMAL":89
					},
					"indices":87,
					"material":3
				}
			]
		},
		{
			"name":"Material2.198",
			"primitives":[
				{
					"attributes":{
						"POSITION":90,
						"NORMAL":91
					},
					"indices":92,
					"material":1
				}
			]
		},
		{
			"name":"Material2.199",
			"primitives":[
				{
					"attributes":{
						"POSITION":93,
						"NORMAL":94
					},
					"indices":95,
					"material":1
				}
			]
		}
	],
	"accessors":[
		{
			"bufferView":0,
			"componentType":5126,
			"count":24,
			"max":[
				-9.967374126063078e-07,
				1.1999999284744263,
				2.750000476837158
			],
			"min":[
				-0.6000009179115295,
				0,
				6.544512416439829e-07
			],
			"type":"VEC3"
		},
		{
			"bufferView":1,
			"componentType":5126,
			"count":24,
			"type":"VEC3"
		},
		{
			"bufferView":2,
			"componentType":5126,
			"count":24,
			"type":"VEC2"
		},
		{
			"bufferView":3,
			"componentType":5123,
			"count":36,
			"type":"SCALAR"
		},
		{
			"bufferView":4,
			"componentType":5126,
			"count":400,
			"max":[
				2.5,
				20.955360412597656,
				38.158748626708984
			],
			"min":[
				-3.410605131648481e-13,
				-2.2737370254828637e-13,
				0
			],
			"type":"VEC3"
		},
		{
			"bufferView":5,
			"componentType":5126,
			"count":400,
			"type":"VEC3"
		},
		{
			"bufferView":6,
			"componentType":5123,
			"count":924,
			"type":"SCALAR"
		},
		{
			"bufferView":7,
			"componentType":5126,
			"count":26,
			"max":[
				16.5,
				18,
				2.5
			],
			"min":[
				0,
				0,
				0
			],
			"type":"VEC3"
		},
		{
			"bufferView":8,
			"componentType":5126,
			"count":26,
			"type":"VEC3"
		},
		{
			"bufferView":9,
			"componentType":5123,
			"count":72,
			"type":"SCALAR"
		},
		{
			"bufferView":10,
			"componentType":5126,
			"count":48,
			"max":[
				15.5,
				0.6272416114807129,
				1.3024439811706543
			],
			"min":[
				0,
				2.2737370254828637e-13,
				0
			],
			"type":"VEC3"
		},
		{
			"bufferView":11,
			"componentType":5126,
			"count":48,
			"type":"VEC3"
		},
		{
			"bufferView":12,
			"componentType":5123,
			"count":72,
			"type":"SCALAR"
		},
		{
			"bufferView":13,
			"componentType":5126,
			"count":48,
			"max":[
				15.5,
				0.6272416114807129,
				1.3024439811706543
			],
			"min":[
				0,
				2.2737370254828637e-13,
				0
			],
			"type":"VEC3"
		},
		{
			"bufferView":14,
			"componentType":5126,
			"count":48,
			"type":"VEC3"
		},
		{
			"bufferView":15,
			"componentType":5126,
			"count":48,
			"max":[
				15.5,
				0.6272416114807129,
				1.3024439811706543
			],
			"min":[
				0,
				2.2737370254828637e-13,
				0
			],
			"type":"VEC3"
		},
		{
			"bufferView":16,
			"componentType":5126,
			"count":48,
			"type":"VEC3"
		},
		{
			"bufferView":17,
			"componentType":5126,
			"count":48,
			"max":[
				15.5,
				0.6272416114807129,
				1.3024439811706543
			],
			"min":[
				0,
				2.2737370254828637e-13,
				0
			],
			"type":"VEC3"
		},
		{
			"bufferView":18,
			"componentType":5126,
			"count":48,
			"type":"VEC3"
		},
		{
			"bufferView":19,
			"componentType":5126,
			"count":400,
			"max":[
				2.5,
				20.955360412597656,
				38.158748626708984
			],
			"min":[
				-3.410605131648481e-13,
				-2.2737370254828637e-13,
				0
			],
			"type":"VEC3"
		},
		{
			"bufferView":20,
			"componentType":5126,
			"count":400,
			"type":"VEC3"
		},
		{
			"bufferView":21,
			"componentType":5123,
			"count":924,
			"type":"SCALAR"
		},
		{
			"bufferView":22,
			"componentType":5126,
			"count":400,
			"max":[
				2.5,
				20.955360412597656,
				38.158748626708984
			],
			"min":[
				-3.410605131648481e-13,
				-2.2737370254828637e-13,
				0
			],
			"type":"VEC3"
		},
		{
			"bufferView":23,
			"componentType":5126,
			"count":400,
			"type":"VEC3"
		},
		{
			"bufferView":24,
			"componentType":5126,
			"count":26,
			"max":[
				16.5,
				18,
				2.5
			],
			"min":[
				0,
				0,
				0
			],
			"type":"VEC3"
		},
		{
			"bufferView":25,
			"componentType":5126,
			"count":26,
			"type":"VEC3"
		},
		{
			"bufferView":26,
			"componentType":5126,
			"count":48,
			"max":[
				15.5,
				0.6272416114807129,
				1.3024439811706543
			],
			"min":[
				0,
				2.2737370254828637e-13,
				0
			],
			"type":"VEC3"
		},
		{
			"bufferView":27,
			"componentType":5126,
			"count":48,
			"type":"VEC3"
		},
		{
			"bufferView":28,
			"componentType":5126,
			"count":48,
			"max":[
				15.5,
				0.6272416114807129,
				1.3024439811706543
			],
			"min":[
				0,
				2.2737370254828637e-13,
				0
			],
			"type":"VEC3"
		},
		{
			"bufferView":29,
			"componentType":5126,
			"count":48,
			"type":"VEC3"
		},
		{
			"bufferView":30,
			"componentType":5126,
			"count":48,
			"max":[
				15.5,
				0.6272416114807129,
				1.3024439811706543
			],
			"min":[
				0,
				2.2737370254828637e-13,
				0
			],
			"type":"VEC3"
		},
		{
			"bufferView":31,
			"componentType":5126,
			"count":48,
			"type":"VEC3"
		},
		{
			"bufferView":32,
			"componentType":5126,
			"count":48,
			"max":[
				15.5,
				0.6272416114807129,
				1.3024439811706543
			],
			"min":[
				0,
				2.2737370254828637e-13,
				0
			],
			"type":"VEC3"
		},
		{
			"bufferView":33,
			"componentType":5126,
			"count":48,
			"type":"VEC3"
		},
		{
			"bufferView":34,
			"componentType":5126,
			"count":400,
			"max":[
				2.5,
				20.955360412597656,
				38.158748626708984
			],
			"min":[
				-3.410605131648481e-13,
				-2.2737370254828637e-13,
				0
			],
			"type":"VEC3"
		},
		{
			"bufferView":35,
			"componentType":5126,
			"count":400,
			"type":"VEC3"
		},
		{
			"bufferView":36,
			"componentType":5126,
			"count":400,
			"max":[
				2.5,
				20.955360412597656,
				38.158748626708984
			],
			"min":[
				-3.410605131648481e-13,
				-2.2737370254828637e-13,
				0
			],
			"type":"VEC3"
		},
		{
			"bufferView":37,
			"componentType":5126,
			"count":400,
			"type":"VEC3"
		},
		{
			"bufferView":38,
			"componentType":5126,
			"count":26,
			"max":[
				16.5,
				18,
				2.5
			],
			"min":[
				0,
				0,
				0
			],
			"type":"VEC3"
		},
		{
			"bufferView":39,
			"componentType":5126,
			"count":26,
			"type":"VEC3"
		},
		{
			"bufferView":40,
			"componentType":5126,
			"count":48,
			"max":[
				15.5,
				0.6272416114807129,
				1.3024439811706543
			],
			"min":[
				0,
				2.2737370254828637e-13,
				0
			],
			"type":"VEC3"
		},
		{
			"bufferView":41,
			"componentType":5126,
			"count":48,
			"type":"VEC3"
		},
		{
			"bufferView":42,
			"componentType":5126,
			"count":48,
			"max":[
				15.5,
				0.6272416114807129,
				1.3024439811706543
			],
			"min":[
				0,
				2.2737370254828637e-13,
				0
			],
			"type":"VEC3"
		},
		{
			"bufferView":43,
			"componentType":5126,
			"count":48,
			"type":"VEC3"
		},
		{
			"bufferView":44,
			"componentType":5126,
			"count":48,
			"max":[
				15.5,
				0.6272416114807129,
				1.3024439811706543
			],
			"min":[
				0,
				2.2737370254828637e-13,
				0
			],
			"type":"VEC3"
		},
		{
			"bufferView":45,
			"componentType":5126,
			"count":48,
			"type":"VEC3"
		},
		{
			"bufferView":46,
			"componentType":5126,
			"count":48,
			"max":[
				15.5,
				0.6272416114807129,
				1.3024439811706543
			],
			"min":[
				0,
				2.2737370254828637e-13,
				0
			],
			"type":"VEC3"
		},
		{
			"bufferView":47,
			"componentType":5126,
			"count":48,
			"type":"VEC3"
		},
		{
			"bufferView":48,
			"componentType":5126,
			"count":400,
			"max":[
				2.5,
				20.955360412597656,
				38.158748626708984
			],
			"min":[
				-3.410605131648481e-13,
				-2.2737370254828637e-13,
				0
			],
			"type":"VEC3"
		},
		{
			"bufferView":49,
			"componentType":5126,
			"count":400,
			"type":"VEC3"
		},
		{
			"bufferView":50,
			"componentType":5126,
			"count":400,
			"max":[
				2.5,
				20.955360412597656,
				38.158748626708984
			],
			"min":[
				-3.410605131648481e-13,
				-2.2737370254828637e-13,
				0
			],
			"type":"VEC3"
		},
		{
			"bufferView":51,
			"componentType":5126,
			"count":400,
			"type":"VEC3"
		},
		{
			"bufferView":52,
			"componentType":5126,
			"count":26,
			"max":[
				16.5,
				18,
				2.5
			],
			"min":[
				0,
				0,
				0
			],
			"type":"VEC3"
		},
		{
			"bufferView":53,
			"componentType":5126,
			"count":26,
			"type":"VEC3"
		},
		{
			"bufferView":54,
			"componentType":5126,
			"count":48,
			"max":[
				15.5,
				0.6272416114807129,
				1.3024439811706543
			],
			"min":[
				0,
				2.2737370254828637e-13,
				0
			],
			"type":"VEC3"
		},
		{
			"bufferView":55,
			"componentType":5126,
			"count":48,
			"type":"VEC3"
		},
		{
			"bufferView":56,
			"componentType":5126,
			"count":48,
			"max":[
				15.5,
				0.6272416114807129,
				1.3024439811706543
			],
			"min":[
				0,
				2.2737370254828637e-13,
				0
			],
			"type":"VEC3"
		},
		{
			"bufferView":57,
			"componentType":5126,
			"count":48,
			"type":"VEC3"
		},
		{
			"bufferView":58,
			"componentType":5126,
			"count":48,
			"max":[
				15.5,
				0.6272416114807129,
				1.3024439811706543
			],
			"min":[
				0,
				2.2737370254828637e-13,
				0
			],
			"type":"VEC3"
		},
		{
			"bufferView":59,
			"componentType":5126,
			"count":48,
			"type":"VEC3"
		},
		{
			"bufferView":60,
			"componentType":5126,
			"count":48,
			"max":[
				15.5,
				0.6272416114807129,
				1.3024439811706543
			],
			"min":[
				0,
				2.2737370254828637e-13,
				0
			],
			"type":"VEC3"
		},
		{
			"bufferView":61,
			"componentType":5126,
			"count":48,
			"type":"VEC3"
		},
		{
			"bufferView":62,
			"componentType":5126,
			"count":400,
			"max":[
				2.5,
				20.955360412597656,
				38.158748626708984
			],
			"min":[
				-3.410605131648481e-13,
				-2.2737370254828637e-13,
				0
			],
			"type":"VEC3"
		},
		{
			"bufferView":63,
			"componentType":5126,
			"count":400,
			"type":"VEC3"
		},
		{
			"bufferView":64,
			"componentType":5126,
			"count":296,
			"max":[
				10.600740432739258,
				7.9561052322387695,
				33.75
			],
			"min":[
				0.05657960847020149,
				-0.08245451748371124,
				0
			],
			"type":"VEC3"
		},
		{
			"bufferView":65,
			"componentType":5126,
			"count":296,
			"type":"VEC3"
		},
		{
			"bufferView":66,
			"componentType":5123,
			"count":828,
			"type":"SCALAR"
		},
		{
			"bufferView":67,
			"componentType":5126,
			"count":296,
			"max":[
				10.600740432739258,
				7.9561052322387695,
				33.75
			],
			"min":[
				0.05657960847020149,
				-0.08245451748371124,
				0
			],
			"type":"VEC3"
		},
		{
			"bufferView":68,
			"componentType":5126,
			"count":296,
			"type":"VEC3"
		},
		{
			"bufferView":69,
			"componentType":5126,
			"count":24,
			"max":[
				38.88536834716797,
				19.685039520263672,
				0.18307089805603027
			],
			"min":[
				0,
				-1.0658140189368556e-14,
				0.18307089805603027
			],
			"type":"VEC3"
		},
		{
			"bufferView":70,
			"componentType":5126,
			"count":24,
			"type":"VEC3"
		},
		{
			"bufferView":71,
			"componentType":5123,
			"count":60,
			"type":"SCALAR"
		},
		{
			"bufferView":72,
			"componentType":5126,
			"count":24,
			"max":[
				38.88536834716797,
				19.685039520263672,
				-0.2106298953294754
			],
			"min":[
				0,
				-1.0658140189368556e-14,
				-0.2106298953294754
			],
			"type":"VEC3"
		},
		{
			"bufferView":73,
			"componentType":5126,
			"count":24,
			"type":"VEC3"
		},
		{
			"bufferView":74,
			"componentType":5126,
			"count":192,
			"max":[
				39.27907180786133,
				19.685039520263672,
				1.6830710172653198
			],
			"min":[
				-0.39370080828666687,
				-0.39370080828666687,
				0
			],
			"type":"VEC3"
		},
		{
			"bufferView":75,
			"componentType":5126,
			"count":192,
			"type":"VEC3"
		},
		{
			"bufferView":76,
			"componentType":5123,
			"count":528,
			"type":"SCALAR"
		},
		{
			"bufferView":77,
			"componentType":5126,
			"count":192,
			"max":[
				15.942999839782715,
				8.070865631103516,
				1.1811020374298096
			],
			"min":[
				1.7053029724000551e-13,
				-2.2737370254828637e-13,
				0
			],
			"type":"VEC3"
		},
		{
			"bufferView":78,
			"componentType":5126,
			"count":192,
			"type":"VEC3"
		},
		{
			"bufferView":79,
			"componentType":5123,
			"count":528,
			"type":"SCALAR"
		},
		{
			"bufferView":80,
			"componentType":5126,
			"count":304,
			"max":[
				10.600740432739258,
				7.9561052322387695,
				33.75
			],
			"min":[
				0.05657960847020149,
				-0.08245451748371124,
				0
			],
			"type":"VEC3"
		},
		{
			"bufferView":81,
			"componentType":5126,
			"count":304,
			"type":"VEC3"
		},
		{
			"bufferView":82,
			"componentType":5123,
			"count":828,
			"type":"SCALAR"
		},
		{
			"bufferView":83,
			"componentType":5126,
			"count":304,
			"max":[
				10.600740432739258,
				7.9561052322387695,
				33.75
			],
			"min":[
				0.05657960847020149,
				-0.08245451748371124,
				0
			],
			"type":"VEC3"
		},
		{
			"bufferView":84,
			"componentType":5126,
			"count":304,
			"type":"VEC3"
		},
		{
			"bufferView":85,
			"componentType":5126,
			"count":24,
			"max":[
				38.88536834716797,
				19.685039520263672,
				0.18307089805603027
			],
			"min":[
				0,
				-1.0658140189368556e-14,
				0.18307089805603027
			],
			"type":"VEC3"
		},
		{
			"bufferView":86,
			"componentType":5126,
			"count":24,
			"type":"VEC3"
		},
		{
			"bufferView":87,
			"componentType":5123,
			"count":60,
			"type":"SCALAR"
		},
		{
			"bufferView":88,
			"componentType":5126,
			"count":24,
			"max":[
				38.88536834716797,
				19.685039520263672,
				-0.2106298953294754
			],
			"min":[
				0,
				-1.0658140189368556e-14,
				-0.2106298953294754
			],
			"type":"VEC3"
		},
		{
			"bufferView":89,
			"componentType":5126,
			"count":24,
			"type":"VEC3"
		},
		{
			"bufferView":90,
			"componentType":5126,
			"count":192,
			"max":[
				39.27907180786133,
				19.685039520263672,
				1.6830710172653198
			],
			"min":[
				-0.39370080828666687,
				-0.39370080828666687,
				0
			],
			"type":"VEC3"
		},
		{
			"bufferView":91,
			"componentType":5126,
			"count":192,
			"type":"VEC3"
		},
		{
			"bufferView":92,
			"componentType":5123,
			"count":528,
			"type":"SCALAR"
		},
		{
			"bufferView":93,
			"componentType":5126,
			"count":192,
			"max":[
				15.942999839782715,
				8.070865631103516,
				1.1811020374298096
			],
			"min":[
				1.7053029724000551e-13,
				-2.2737370254828637e-13,
				0
			],
			"type":"VEC3"
		},
		{
			"bufferView":94,
			"componentType":5126,
			"count":192,
			"type":"VEC3"
		},
		{
			"bufferView":95,
			"componentType":5123,
			"count":528,
			"type":"SCALAR"
		}
	],
	"bufferViews":[
		{
			"buffer":0,
			"byteLength":288,
			"byteOffset":0,
			"target":34962
		},
		{
			"buffer":0,
			"byteLength":288,
			"byteOffset":288,
			"target":34962
		},
		{
			"buffer":0,
			"byteLength":192,
			"byteOffset":576,
			"target":34962
		},
		{
			"buffer":0,
			"byteLength":72,
			"byteOffset":768,
			"target":34963
		},
		{
			"buffer":0,
			"byteLength":4800,
			"byteOffset":840,
			"target":34962
		},
		{
			"buffer":0,
			"byteLength":4800,
			"byteOffset":5640,
			"target":34962
		},
		{
			"buffer":0,
			"byteLength":1848,
			"byteOffset":10440,
			"target":34963
		},
		{
			"buffer":0,
			"byteLength":312,
			"byteOffset":12288,
			"target":34962
		},
		{
			"buffer":0,
			"byteLength":312,
			"byteOffset":12600,
			"target":34962
		},
		{
			"buffer":0,
			"byteLength":144,
			"byteOffset":12912,
			"target":34963
		},
		{
			"buffer":0,
			"byteLength":576,
			"byteOffset":13056,
			"target":34962
		},
		{
			"buffer":0,
			"byteLength":576,
			"byteOffset":13632,
			"target":34962
		},
		{
			"buffer":0,
			"byteLength":144,
			"byteOffset":14208,
			"target":34963
		},
		{
			"buffer":0,
			"byteLength":576,
			"byteOffset":14352,
			"target":34962
		},
		{
			"buffer":0,
			"byteLength":576,
			"byteOffset":14928,
			"target":34962
		},
		{
			"buffer":0,
			"byteLength":576,
			"byteOffset":15504,
			"target":34962
		},
		{
			"buffer":0,
			"byteLength":576,
			"byteOffset":16080,
			"target":34962
		},
		{
			"buffer":0,
			"byteLength":576,
			"byteOffset":16656,
			"target":34962
		},
		{
			"buffer":0,
			"byteLength":576,
			"byteOffset":17232,
			"target":34962
		},
		{
			"buffer":0,
			"byteLength":4800,
			"byteOffset":17808,
			"target":34962
		},
		{
			"buffer":0,
			"byteLength":4800,
			"byteOffset":22608,
			"target":34962
		},
		{
			"buffer":0,
			"byteLength":1848,
			"byteOffset":27408,
			"target":34963
		},
		{
			"buffer":0,
			"byteLength":4800,
			"byteOffset":29256,
			"target":34962
		},
		{
			"buffer":0,
			"byteLength":4800,
			"byteOffset":34056,
			"target":34962
		},
		{
			"buffer":0,
			"byteLength":312,
			"byteOffset":38856,
			"target":34962
		},
		{
			"buffer":0,
			"byteLength":312,
			"byteOffset":39168,
			"target":34962
		},
		{
			"buffer":0,
			"byteLength":576,
			"byteOffset":39480,
			"target":34962
		},
		{
			"buffer":0,
			"byteLength":576,
			"byteOffset":40056,
			"target":34962
		},
		{
			"buffer":0,
			"byteLength":576,
			"byteOffset":40632,
			"target":34962
		},
		{
			"buffer":0,
			"byteLength":576,
			"byteOffset":41208,
			"target":34962
		},
		{
			"buffer":0,
			"byteLength":576,
			"byteOffset":41784,
			"target":34962
		},
		{
			"buffer":0,
			"byteLength":576,
			"byteOffset":42360,
			"target":34962
		},
		{
			"buffer":0,
			"byteLength":576,
			"byteOffset":42936,
			"target":34962
		},
		{
			"buffer":0,
			"byteLength":576,
			"byteOffset":43512,
			"target":34962
		},
		{
			"buffer":0,
			"byteLength":4800,
			"byteOffset":44088,
			"target":34962
		},
		{
			"buffer":0,
			"byteLength":4800,
			"byteOffset":48888,
			"target":34962
		},
		{
			"buffer":0,
			"byteLength":4800,
			"byteOffset":53688,
			"target":34962
		},
		{
			"buffer":0,
			"byteLength":4800,
			"byteOffset":58488,
			"target":34962
		},
		{
			"buffer":0,
			"byteLength":312,
			"byteOffset":63288,
			"target":34962
		},
		{
			"buffer":0,
			"byteLength":312,
			"byteOffset":63600,
			"target":34962
		},
		{
			"buffer":0,
			"byteLength":576,
			"byteOffset":63912,
			"target":34962
		},
		{
			"buffer":0,
			"byteLength":576,
			"byteOffset":64488,
			"target":34962
		},
		{
			"buffer":0,
			"byteLength":576,
			"byteOffset":65064,
			"target":34962
		},
		{
			"buffer":0,
			"byteLength":576,
			"byteOffset":65640,
			"target":34962
		},
		{
			"buffer":0,
			"byteLength":576,
			"byteOffset":66216,
			"target":34962
		},
		{
			"buffer":0,
			"byteLength":576,
			"byteOffset":66792,
			"target":34962
		},
		{
			"buffer":0,
			"byteLength":576,
			"byteOffset":67368,
			"target":34962
		},
		{
			"buffer":0,
			"byteLength":576,
			"byteOffset":67944,
			"target":34962
		},
		{
			"buffer":0,
			"byteLength":4800,
			"byteOffset":68520,
			"target":34962
		},
		{
			"buffer":0,
			"byteLength":4800,
			"byteOffset":73320,
			"target":34962
		},
		{
			"buffer":0,
			"byteLength":4800,
			"byteOffset":78120,
			"target":34962
		},
		{
			"buffer":0,
			"byteLength":4800,
			"byteOffset":82920,
			"target":34962
		},
		{
			"buffer":0,
			"byteLength":312,
			"byteOffset":87720,
			"target":34962
		},
		{
			"buffer":0,
			"byteLength":312,
			"byteOffset":88032,
			"target":34962
		},
		{
			"buffer":0,
			"byteLength":576,
			"byteOffset":88344,
			"target":34962
		},
		{
			"buffer":0,
			"byteLength":576,
			"byteOffset":88920,
			"target":34962
		},
		{
			"buffer":0,
			"byteLength":576,
			"byteOffset":89496,
			"target":34962
		},
		{
			"buffer":0,
			"byteLength":576,
			"byteOffset":90072,
			"target":34962
		},
		{
			"buffer":0,
			"byteLength":576,
			"byteOffset":90648,
			"target":34962
		},
		{
			"buffer":0,
			"byteLength":576,
			"byteOffset":91224,
			"target":34962
		},
		{
			"buffer":0,
			"byteLength":576,
			"byteOffset":91800,
			"target":34962
		},
		{
			"buffer":0,
			"byteLength":576,
			"byteOffset":92376,
			"target":34962
		},
		{
			"buffer":0,
			"byteLength":4800,
			"byteOffset":92952,
			"target":34962
		},
		{
			"buffer":0,
			"byteLength":4800,
			"byteOffset":97752,
			"target":34962
		},
		{
			"buffer":0,
			"byteLength":3552,
			"byteOffset":102552,
			"target":34962
		},
		{
			"buffer":0,
			"byteLength":3552,
			"byteOffset":106104,
			"target":34962
		},
		{
			"buffer":0,
			"byteLength":1656,
			"byteOffset":109656,
			"target":34963
		},
		{
			"buffer":0,
			"byteLength":3552,
			"byteOffset":111312,
			"target":34962
		},
		{
			"buffer":0,
			"byteLength":3552,
			"byteOffset":114864,
			"target":34962
		},
		{
			"buffer":0,
			"byteLength":288,
			"byteOffset":118416,
			"target":34962
		},
		{
			"buffer":0,
			"byteLength":288,
			"byteOffset":118704,
			"target":34962
		},
		{
			"buffer":0,
			"byteLength":120,
			"byteOffset":118992,
			"target":34963
		},
		{
			"buffer":0,
			"byteLength":288,
			"byteOffset":119112,
			"target":34962
		},
		{
			"buffer":0,
			"byteLength":288,
			"byteOffset":119400,
			"target":34962
		},
		{
			"buffer":0,
			"byteLength":2304,
			"byteOffset":119688,
			"target":34962
		},
		{
			"buffer":0,
			"byteLength":2304,
			"byteOffset":121992,
			"target":34962
		},
		{
			"buffer":0,
			"byteLength":1056,
			"byteOffset":124296,
			"target":34963
		},
		{
			"buffer":0,
			"byteLength":2304,
			"byteOffset":125352,
			"target":34962
		},
		{
			"buffer":0,
			"byteLength":2304,
			"byteOffset":127656,
			"target":34962
		},
		{
			"buffer":0,
			"byteLength":1056,
			"byteOffset":129960,
			"target":34963
		},
		{
			"buffer":0,
			"byteLength":3648,
			"byteOffset":131016,
			"target":34962
		},
		{
			"buffer":0,
			"byteLength":3648,
			"byteOffset":134664,
			"target":34962
		},
		{
			"buffer":0,
			"byteLength":1656,
			"byteOffset":138312,
			"target":34963
		},
		{
			"buffer":0,
			"byteLength":3648,
			"byteOffset":139968,
			"target":34962
		},
		{
			"buffer":0,
			"byteLength":3648,
			"byteOffset":143616,
			"target":34962
		},
		{
			"buffer":0,
			"byteLength":288,
			"byteOffset":147264,
			"target":34962
		},
		{
			"buffer":0,
			"byteLength":288,
			"byteOffset":147552,
			"target":34962
		},
		{
			"buffer":0,
			"byteLength":120,
			"byteOffset":147840,
			"target":34963
		},
		{
			"buffer":0,
			"byteLength":288,
			"byteOffset":147960,
			"target":34962
		},
		{
			"buffer":0,
			"byteLength":288,
			"byteOffset":148248,
			"target":34962
		},
		{
			"buffer":0,
			"byteLength":2304,
			"byteOffset":148536,
			"target":34962
		},
		{
			"buffer":0,
			"byteLength":2304,
			"byteOffset":150840,
			"target":34962
		},
		{
			"buffer":0,
			"byteLength":1056,
			"byteOffset":153144,
			"target":34963
		},
		{
			"buffer":0,
			"byteLength":2304,
			"byteOffset":154200,
			"target":34962
		},
		{
			"buffer":0,
			"byteLength":2304,
			"byteOffset":156504,
			"target":34962
		},
		{
			"buffer":0,
			"byteLength":1056,
			"byteOffset":158808,
			"target":34963
		}
	],
	"buffers":[
		{
			"byteLength":159864,
			"uri":"Garten_Stuff.bin"
		}
	]
}
