{
	"asset":{
		"generator":"Khronos glTF Blender I/O v5.1.18",
		"version":"2.0"
	},
	"scene":0,
	"scenes":[
		{
			"name":"Scene",
			"nodes":[
				0,
				1,
				2,
				3,
				4,
				5,
				6,
				7,
				8,
				9,
				10,
				11,
				12,
				13,
				14,
				15,
				16
			]
		}
	],
	"nodes":[
		{
			"mesh":0,
			"name":"Mesh_0.001",
			"scale":[
				1.8965332508087158,
				3.1142172813415527,
				1.8965332508087158
			],
			"translation":[
				10.406278610229492,
				0,
				-6.66037130355835
			]
		},
		{
			"mesh":1,
			"name":"Mesh_0.009",
			"scale":[
				1.8965332508087158,
				3.1142172813415527,
				1.8965332508087158
			],
			"translation":[
				10.406278610229492,
				-0.8973565101623535,
				-7.2280426025390625
			]
		},
		{
			"mesh":2,
			"name":"Mesh_0.016",
			"scale":[
				1.8965332508087158,
				3.1142172813415527,
				1.8965332508087158
			],
			"translation":[
				9.64710807800293,
				-0.8973564505577087,
				-6.120344638824463
			]
		},
		{
			"mesh":3,
			"name":"Mesh_0.017",
			"scale":[
				1.8965332508087158,
				3.1142172813415527,
				1.8965332508087158
			],
			"translation":[
				10.576308250427246,
				-0.8973565697669983,
				-8.424003601074219
			]
		},
		{
			"mesh":4,
			"name":"_AppleTree.002",
			"scale":[
				2.918393611907959,
				2.918393611907959,
				2.918393611907959
			],
			"translation":[
				3.143449306488037,
				-0.6693841814994812,
				-12.936209678649902
			]
		},
		{
			"mesh":5,
			"name":"_AppleTree.003",
			"rotation":[
				0,
				-0.5273582339286804,
				0,
				0.8496430516242981
			],
			"scale":[
				2.918393850326538,
				2.918393611907959,
				2.918393850326538
			],
			"translation":[
				7.2988972663879395,
				-0.5896666646003723,
				-16.994291305541992
			]
		},
		{
			"mesh":6,
			"name":"Mesh_0.018",
			"scale":[
				2.5232183933258057,
				3.4795799255371094,
				2.5232183933258057
			],
			"translation":[
				1.6403183937072754,
				-0.6802870035171509,
				-7.955479145050049
			]
		},
		{
			"mesh":7,
			"name":"Mesh_0.019",
			"scale":[
				2.5232183933258057,
				2.5232183933258057,
				2.5232183933258057
			],
			"translation":[
				1.9491921663284302,
				0,
				-10.035392761230469
			]
		},
		{
			"mesh":8,
			"name":"Mesh_0.020",
			"scale":[
				2.5232183933258057,
				3.615527629852295,
				2.5232183933258057
			],
			"translation":[
				1.9491921663284302,
				0,
				-16.126853942871094
			]
		},
		{
			"mesh":9,
			"name":"Mesh_0.021",
			"scale":[
				2.5232183933258057,
				2.5232183933258057,
				2.5232183933258057
			],
			"translation":[
				3.9732017517089844,
				-0.7928252220153809,
				-6.034624099731445
			]
		},
		{
			"mesh":10,
			"name":"Mesh_0.022",
			"scale":[
				2.5232183933258057,
				3.9842848777770996,
				1.7390482425689697
			],
			"translation":[
				6.648482799530029,
				-0.9578851461410522,
				-0.9205821752548218
			]
		},
		{
			"mesh":11,
			"name":"Mesh_0.023",
			"scale":[
				3.0818989276885986,
				1.7875828742980957,
				1.7875828742980957
			],
			"translation":[
				4.203549385070801,
				0,
				-18.676528930664062
			]
		},
		{
			"mesh":12,
			"name":"Mesh_0.024",
			"scale":[
				2.5232183933258057,
				3.615527629852295,
				1.7736504077911377
			],
			"translation":[
				10.308958053588867,
				-0.5158207416534424,
				-18.57659339904785
			]
		},
		{
			"mesh":13,
			"name":"Mesh_0.025",
			"scale":[
				2.5232183933258057,
				3.615527629852295,
				1.7736504077911377
			],
			"translation":[
				7.219430446624756,
				-0.5158207416534424,
				-18.57659339904785
			]
		},
		{
			"mesh":14,
			"name":"Mesh_0.026",
			"scale":[
				2.5232183933258057,
				2.5232183933258057,
				2.5232183933258057
			],
			"translation":[
				2.0758113861083984,
				0,
				-17.93757438659668
			]
		},
		{
			"mesh":15,
			"name":"Mesh_0.027",
			"scale":[
				2.5232183933258057,
				2.5232183933258057,
				2.5232183933258057
			],
			"translation":[
				1.9491921663284302,
				-0.7928252220153809,
				-6.404690742492676
			]
		},
		{
			"mesh":16,
			"name":"_KieferMesh_0.002",
			"rotation":[
				0,
				-1,
				0,
				4.371138828673793e-08
			],
			"translation":[
				11.399999618530273,
				-0.5249998569488525,
				-3
			]
		}
	],
	"materials":[
		{
			"doubleSided":true,
			"name":"Material.022",
			"normalTexture":{
				"index":0
			},
			"pbrMetallicRoughness":{
				"baseColorTexture":{
					"index":1
				},
				"metallicFactor":0,
				"roughnessFactor":0.5
			}
		},
		{
			"doubleSided":true,
			"name":"Material.023",
			"normalTexture":{
				"index":2
			},
			"pbrMetallicRoughness":{
				"baseColorTexture":{
					"index":3
				},
				"metallicFactor":0,
				"roughnessFactor":0.5
			}
		},
		{
			"doubleSided":true,
			"name":"Material.024",
			"normalTexture":{
				"index":4
			},
			"pbrMetallicRoughness":{
				"baseColorTexture":{
					"index":5
				},
				"metallicFactor":0,
				"roughnessFactor":0.5
			}
		},
		{
			"doubleSided":true,
			"name":"Material.025",
			"normalTexture":{
				"index":6
			},
			"pbrMetallicRoughness":{
				"baseColorTexture":{
					"index":7
				},
				"metallicFactor":0,
				"roughnessFactor":0.5
			}
		},
		{
			"doubleSided":true,
			"name":"Material.005",
			"normalTexture":{
				"index":8
			},
			"pbrMetallicRoughness":{
				"baseColorTexture":{
					"index":9
				},
				"metallicFactor":0,
				"roughnessFactor":0.5
			}
		},
		{
			"doubleSided":true,
			"name":"Material.027",
			"normalTexture":{
				"index":10
			},
			"pbrMetallicRoughness":{
				"baseColorTexture":{
					"index":11
				},
				"metallicFactor":0,
				"roughnessFactor":0.5
			}
		},
		{
			"doubleSided":true,
			"name":"Material.009",
			"normalTexture":{
				"index":12
			},
			"pbrMetallicRoughness":{
				"baseColorTexture":{
					"index":13
				},
				"metallicFactor":0,
				"roughnessFactor":0.5
			}
		},
		{
			"doubleSided":true,
			"name":"Material.010",
			"normalTexture":{
				"index":14
			},
			"pbrMetallicRoughness":{
				"baseColorTexture":{
					"index":15
				},
				"metallicFactor":0,
				"roughnessFactor":0.5
			}
		},
		{
			"doubleSided":true,
			"name":"Material.011",
			"normalTexture":{
				"index":16
			},
			"pbrMetallicRoughness":{
				"baseColorTexture":{
					"index":17
				},
				"metallicFactor":0,
				"roughnessFactor":0.5
			}
		},
		{
			"doubleSided":true,
			"name":"Material.018",
			"normalTexture":{
				"index":18
			},
			"pbrMetallicRoughness":{
				"baseColorTexture":{
					"index":19
				},
				"metallicFactor":0,
				"roughnessFactor":0.5
			}
		},
		{
			"doubleSided":true,
			"name":"Material.019",
			"normalTexture":{
				"index":20
			},
			"pbrMetallicRoughness":{
				"baseColorTexture":{
					"index":21
				},
				"metallicFactor":0,
				"roughnessFactor":0.5
			}
		},
		{
			"doubleSided":true,
			"name":"Material.020",
			"normalTexture":{
				"index":22
			},
			"pbrMetallicRoughness":{
				"baseColorTexture":{
					"index":23
				},
				"metallicFactor":0,
				"roughnessFactor":0.5
			}
		},
		{
			"doubleSided":true,
			"name":"Material.026",
			"normalTexture":{
				"index":24
			},
			"pbrMetallicRoughness":{
				"baseColorTexture":{
					"index":25
				},
				"metallicFactor":0,
				"roughnessFactor":0.5
			}
		},
		{
			"doubleSided":true,
			"name":"Material.028",
			"normalTexture":{
				"index":26
			},
			"pbrMetallicRoughness":{
				"baseColorTexture":{
					"index":27
				},
				"metallicFactor":0,
				"roughnessFactor":0.5
			}
		},
		{
			"doubleSided":true,
			"name":"Material.007",
			"normalTexture":{
				"index":28
			},
			"pbrMetallicRoughness":{
				"baseColorTexture":{
					"index":29
				},
				"metallicFactor":0,
				"roughnessFactor":0.5
			}
		},
		{
			"doubleSided":true,
			"name":"Material.008",
			"normalTexture":{
				"index":30
			},
			"pbrMetallicRoughness":{
				"baseColorTexture":{
					"index":31
				},
				"metallicFactor":0,
				"roughnessFactor":0.5
			}
		},
		{
			"doubleSided":true,
			"name":"Kiefer",
			"pbrMetallicRoughness":{
				"baseColorTexture":{
					"index":32
				},
				"metallicFactor":0
			}
		}
	],
	"meshes":[
		{
			"name":"Mesh_0.002",
			"primitives":[
				{
					"attributes":{
						"POSITION":0,
						"NORMAL":1,
						"TEXCOORD_0":2
					},
					"indices":3,
					"material":0
				}
			]
		},
		{
			"name":"Mesh_0.011",
			"primitives":[
				{
					"attributes":{
						"POSITION":4,
						"NORMAL":5,
						"TEXCOORD_0":6
					},
					"indices":3,
					"material":1
				}
			]
		},
		{
			"name":"Mesh_0.019",
			"primitives":[
				{
					"attributes":{
						"POSITION":7,
						"NORMAL":8,
						"TEXCOORD_0":9
					},
					"indices":3,
					"material":2
				}
			]
		},
		{
			"name":"Mesh_0.020",
			"primitives":[
				{
					"attributes":{
						"POSITION":10,
						"NORMAL":11,
						"TEXCOORD_0":12
					},
					"indices":3,
					"material":3
				}
			]
		},
		{
			"name":"Mesh_0.021",
			"primitives":[
				{
					"attributes":{
						"POSITION":13,
						"NORMAL":14,
						"TEXCOORD_0":15
					},
					"indices":16,
					"material":4
				}
			]
		},
		{
			"name":"Mesh_0.022",
			"primitives":[
				{
					"attributes":{
						"POSITION":17,
						"NORMAL":18,
						"TEXCOORD_0":19
					},
					"indices":16,
					"material":5
				}
			]
		},
		{
			"name":"Mesh_0.023",
			"primitives":[
				{
					"attributes":{
						"POSITION":20,
						"NORMAL":21,
						"TEXCOORD_0":22
					},
					"indices":3,
					"material":6
				}
			]
		},
		{
			"name":"Mesh_0.024",
			"primitives":[
				{
					"attributes":{
						"POSITION":23,
						"NORMAL":24,
						"TEXCOORD_0":25
					},
					"indices":3,
					"material":7
				}
			]
		},
		{
			"name":"Mesh_0.025",
			"primitives":[
				{
					"attributes":{
						"POSITION":26,
						"NORMAL":27,
						"TEXCOORD_0":28
					},
					"indices":3,
					"material":8
				}
			]
		},
		{
			"name":"Mesh_0.026",
			"primitives":[
				{
					"attributes":{
						"POSITION":29,
						"NORMAL":30,
						"TEXCOORD_0":31
					},
					"indices":3,
					"material":9
				}
			]
		},
		{
			"name":"Mesh_0.027",
			"primitives":[
				{
					"attributes":{
						"POSITION":32,
						"NORMAL":33,
						"TEXCOORD_0":34
					},
					"indices":3,
					"material":10
				}
			]
		},
		{
			"name":"Mesh_0.028",
			"primitives":[
				{
					"attributes":{
						"POSITION":35,
						"NORMAL":36,
						"TEXCOORD_0":37
					},
					"indices":3,
					"material":11
				}
			]
		},
		{
			"name":"Mesh_0.029",
			"primitives":[
				{
					"attributes":{
						"POSITION":38,
						"NORMAL":39,
						"TEXCOORD_0":40
					},
					"indices":3,
					"material":12
				}
			]
		},
		{
			"name":"Mesh_0.030",
			"primitives":[
				{
					"attributes":{
						"POSITION":41,
						"NORMAL":42,
						"TEXCOORD_0":43
					},
					"indices":3,
					"material":13
				}
			]
		},
		{
			"name":"Mesh_0.031",
			"primitives":[
				{
					"attributes":{
						"POSITION":44,
						"NORMAL":45,
						"TEXCOORD_0":46
					},
					"indices":3,
					"material":14
				}
			]
		},
		{
			"name":"Mesh_0.032",
			"primitives":[
				{
					"attributes":{
						"POSITION":47,
						"NORMAL":48,
						"TEXCOORD_0":49
					},
					"indices":3,
					"material":15
				}
			]
		},
		{
			"name":"Mesh_0.033",
			"primitives":[
				{
					"attributes":{
						"POSITION":50,
						"NORMAL":51,
						"TEXCOORD_0":52
					},
					"indices":53,
					"material":16
				}
			]
		}
	],
	"textures":[
		{
			"sampler":0,
			"source":0
		},
		{
			"sampler":0,
			"source":1
		},
		{
			"sampler":0,
			"source":0
		},
		{
			"sampler":0,
			"source":1
		},
		{
			"sampler":0,
			"source":0
		},
		{
			"sampler":0,
			"source":1
		},
		{
			"sampler":0,
			"source":0
		},
		{
			"sampler":0,
			"source":1
		},
		{
			"sampler":0,
			"source":2
		},
		{
			"sampler":0,
			"source":1
		},
		{
			"sampler":0,
			"source":2
		},
		{
			"sampler":0,
			"source":3
		},
		{
			"sampler":0,
			"source":0
		},
		{
			"sampler":0,
			"source":1
		},
		{
			"sampler":0,
			"source":0
		},
		{
			"sampler":0,
			"source":1
		},
		{
			"sampler":0,
			"source":0
		},
		{
			"sampler":0,
			"source":1
		},
		{
			"sampler":0,
			"source":0
		},
		{
			"sampler":0,
			"source":1
		},
		{
			"sampler":0,
			"source":0
		},
		{
			"sampler":0,
			"source":1
		},
		{
			"sampler":0,
			"source":0
		},
		{
			"sampler":0,
			"source":1
		},
		{
			"sampler":0,
			"source":0
		},
		{
			"sampler":0,
			"source":1
		},
		{
			"sampler":0,
			"source":0
		},
		{
			"sampler":0,
			"source":1
		},
		{
			"sampler":0,
			"source":0
		},
		{
			"sampler":0,
			"source":1
		},
		{
			"sampler":0,
			"source":0
		},
		{
			"sampler":0,
			"source":1
		},
		{
			"sampler":0,
			"source":4
		}
	],
	"images":[
		{
			"mimeType":"image/jpeg",
			"name":"Image_2",
			"uri":"Image_2.jpg"
		},
		{
			"mimeType":"image/jpeg",
			"name":"Image_0",
			"uri":"Image_0.jpg"
		},
		{
			"mimeType":"image/jpeg",
			"name":"Image_2",
			"uri":"Image_2-4.jpg"
		},
		{
			"mimeType":"image/jpeg",
			"name":"Image_0",
			"uri":"Image_0-5.jpg"
		},
		{
			"mimeType":"image/png",
			"name":"Meshy_AI_Fichte_nicht_ganz_ge_0105121953_texture",
			"uri":"Meshy_AI_Fichte_nicht_ganz_ge_0105121953_texture.png"
		}
	],
	"accessors":[
		{
			"bufferView":0,
			"componentType":5126,
			"count":23311,
			"max":[
				0.7219531536102295,
				1.0015567541122437,
				0.6588322520256042
			],
			"min":[
				-0.7246390581130981,
				-1.0025912523269653,
				-0.6541263461112976
			],
			"type":"VEC3"
		},
		{
			"bufferView":1,
			"componentType":5126,
			"count":23311,
			"type":"VEC3"
		},
		{
			"bufferView":2,
			"componentType":5126,
			"count":23311,
			"type":"VEC2"
		},
		{
			"bufferView":3,
			"componentType":5123,
			"count":32829,
			"type":"SCALAR"
		},
		{
			"bufferView":4,
			"componentType":5126,
			"count":23311,
			"max":[
				0.7219531536102295,
				1.0015567541122437,
				0.6588322520256042
			],
			"min":[
				-0.7246390581130981,
				-1.0025912523269653,
				-0.6541263461112976
			],
			"type":"VEC3"
		},
		{
			"bufferView":5,
			"componentType":5126,
			"count":23311,
			"type":"VEC3"
		},
		{
			"bufferView":6,
			"componentType":5126,
			"count":23311,
			"type":"VEC2"
		},
		{
			"bufferView":7,
			"componentType":5126,
			"count":23311,
			"max":[
				0.7219531536102295,
				1.0015567541122437,
				0.6588322520256042
			],
			"min":[
				-0.7246390581130981,
				-1.0025912523269653,
				-0.6541263461112976
			],
			"type":"VEC3"
		},
		{
			"bufferView":8,
			"componentType":5126,
			"count":23311,
			"type":"VEC3"
		},
		{
			"bufferView":9,
			"componentType":5126,
			"count":23311,
			"type":"VEC2"
		},
		{
			"bufferView":10,
			"componentType":5126,
			"count":23311,
			"max":[
				0.7219531536102295,
				1.0015567541122437,
				0.6588322520256042
			],
			"min":[
				-0.7246390581130981,
				-1.0025912523269653,
				-0.6541263461112976
			],
			"type":"VEC3"
		},
		{
			"bufferView":11,
			"componentType":5126,
			"count":23311,
			"type":"VEC3"
		},
		{
			"bufferView":12,
			"componentType":5126,
			"count":23311,
			"type":"VEC2"
		},
		{
			"bufferView":13,
			"componentType":5126,
			"count":25524,
			"max":[
				0.7252224683761597,
				1.993180274963379,
				0.8073123097419739
			],
			"min":[
				-0.7373356819152832,
				0.15748846530914307,
				-0.8462187647819519
			],
			"type":"VEC3"
		},
		{
			"bufferView":14,
			"componentType":5126,
			"count":25524,
			"type":"VEC3"
		},
		{
			"bufferView":15,
			"componentType":5126,
			"count":25524,
			"type":"VEC2"
		},
		{
			"bufferView":16,
			"componentType":5123,
			"count":32550,
			"type":"SCALAR"
		},
		{
			"bufferView":17,
			"componentType":5126,
			"count":25524,
			"max":[
				0.7252224683761597,
				1.993180274963379,
				0.8073123097419739
			],
			"min":[
				-0.7373356819152832,
				0.15748846530914307,
				-0.8462187647819519
			],
			"type":"VEC3"
		},
		{
			"bufferView":18,
			"componentType":5126,
			"count":25524,
			"type":"VEC3"
		},
		{
			"bufferView":19,
			"componentType":5126,
			"count":25524,
			"type":"VEC2"
		},
		{
			"bufferView":20,
			"componentType":5126,
			"count":23311,
			"max":[
				0.7219531536102295,
				1.0015567541122437,
				0.6588322520256042
			],
			"min":[
				-0.7246390581130981,
				-1.0025912523269653,
				-0.6541263461112976
			],
			"type":"VEC3"
		},
		{
			"bufferView":21,
			"componentType":5126,
			"count":23311,
			"type":"VEC3"
		},
		{
			"bufferView":22,
			"componentType":5126,
			"count":23311,
			"type":"VEC2"
		},
		{
			"bufferView":23,
			"componentType":5126,
			"count":23311,
			"max":[
				0.7219531536102295,
				1.0015567541122437,
				0.6588322520256042
			],
			"min":[
				-0.7246390581130981,
				-1.0025912523269653,
				-0.6541263461112976
			],
			"type":"VEC3"
		},
		{
			"bufferView":24,
			"componentType":5126,
			"count":23311,
			"type":"VEC3"
		},
		{
			"bufferView":25,
			"componentType":5126,
			"count":23311,
			"type":"VEC2"
		},
		{
			"bufferView":26,
			"componentType":5126,
			"count":23311,
			"max":[
				0.7219531536102295,
				1.0015567541122437,
				0.6588322520256042
			],
			"min":[
				-0.7246390581130981,
				-1.0025912523269653,
				-0.6541263461112976
			],
			"type":"VEC3"
		},
		{
			"bufferView":27,
			"componentType":5126,
			"count":23311,
			"type":"VEC3"
		},
		{
			"bufferView":28,
			"componentType":5126,
			"count":23311,
			"type":"VEC2"
		},
		{
			"bufferView":29,
			"componentType":5126,
			"count":23311,
			"max":[
				0.7219531536102295,
				1.0015567541122437,
				0.6588322520256042
			],
			"min":[
				-0.7246390581130981,
				-1.0025912523269653,
				-0.6541263461112976
			],
			"type":"VEC3"
		},
		{
			"bufferView":30,
			"componentType":5126,
			"count":23311,
			"type":"VEC3"
		},
		{
			"bufferView":31,
			"componentType":5126,
			"count":23311,
			"type":"VEC2"
		},
		{
			"bufferView":32,
			"componentType":5126,
			"count":23311,
			"max":[
				0.7219531536102295,
				1.0015567541122437,
				0.6588322520256042
			],
			"min":[
				-0.7246390581130981,
				-1.0025912523269653,
				-0.6541263461112976
			],
			"type":"VEC3"
		},
		{
			"bufferView":33,
			"componentType":5126,
			"count":23311,
			"type":"VEC3"
		},
		{
			"bufferView":34,
			"componentType":5126,
			"count":23311,
			"type":"VEC2"
		},
		{
			"bufferView":35,
			"componentType":5126,
			"count":23311,
			"max":[
				0.7219531536102295,
				1.0015567541122437,
				0.6588322520256042
			],
			"min":[
				-0.7246390581130981,
				-1.0025912523269653,
				-0.6541263461112976
			],
			"type":"VEC3"
		},
		{
			"bufferView":36,
			"componentType":5126,
			"count":23311,
			"type":"VEC3"
		},
		{
			"bufferView":37,
			"componentType":5126,
			"count":23311,
			"type":"VEC2"
		},
		{
			"bufferView":38,
			"componentType":5126,
			"count":23311,
			"max":[
				0.7219531536102295,
				1.0015567541122437,
				0.6588322520256042
			],
			"min":[
				-0.7246390581130981,
				-1.0025912523269653,
				-0.6541263461112976
			],
			"type":"VEC3"
		},
		{
			"bufferView":39,
			"componentType":5126,
			"count":23311,
			"type":"VEC3"
		},
		{
			"bufferView":40,
			"componentType":5126,
			"count":23311,
			"type":"VEC2"
		},
		{
			"bufferView":41,
			"componentType":5126,
			"count":23311,
			"max":[
				0.7219531536102295,
				1.0015567541122437,
				0.6588322520256042
			],
			"min":[
				-0.7246390581130981,
				-1.0025912523269653,
				-0.6541263461112976
			],
			"type":"VEC3"
		},
		{
			"bufferView":42,
			"componentType":5126,
			"count":23311,
			"type":"VEC3"
		},
		{
			"bufferView":43,
			"componentType":5126,
			"count":23311,
			"type":"VEC2"
		},
		{
			"bufferView":44,
			"componentType":5126,
			"count":23311,
			"max":[
				0.7219531536102295,
				1.0015567541122437,
				0.6588322520256042
			],
			"min":[
				-0.7246390581130981,
				-1.0025912523269653,
				-0.6541263461112976
			],
			"type":"VEC3"
		},
		{
			"bufferView":45,
			"componentType":5126,
			"count":23311,
			"type":"VEC3"
		},
		{
			"bufferView":46,
			"componentType":5126,
			"count":23311,
			"type":"VEC2"
		},
		{
			"bufferView":47,
			"componentType":5126,
			"count":23311,
			"max":[
				0.7219531536102295,
				1.0015567541122437,
				0.6588322520256042
			],
			"min":[
				-0.7246390581130981,
				-1.0025912523269653,
				-0.6541263461112976
			],
			"type":"VEC3"
		},
		{
			"bufferView":48,
			"componentType":5126,
			"count":23311,
			"type":"VEC3"
		},
		{
			"bufferView":49,
			"componentType":5126,
			"count":23311,
			"type":"VEC2"
		},
		{
			"bufferView":50,
			"componentType":5126,
			"count":27304,
			"max":[
				3.5138378143310547,
				7.948212623596191,
				4.228255271911621
			],
			"min":[
				-3.7804176807403564,
				0.7861759662628174,
				-2.9560298919677734
			],
			"type":"VEC3"
		},
		{
			"bufferView":51,
			"componentType":5126,
			"count":27304,
			"type":"VEC3"
		},
		{
			"bufferView":52,
			"componentType":5126,
			"count":27304,
			"type":"VEC2"
		},
		{
			"bufferView":53,
			"componentType":5123,
			"count":43170,
			"type":"SCALAR"
		}
	],
	"bufferViews":[
		{
			"buffer":0,
			"byteLength":279732,
			"byteOffset":0,
			"target":34962
		},
		{
			"buffer":0,
			"byteLength":279732,
			"byteOffset":279732,
			"target":34962
		},
		{
			"buffer":0,
			"byteLength":186488,
			"byteOffset":559464,
			"target":34962
		},
		{
			"buffer":0,
			"byteLength":65658,
			"byteOffset":745952,
			"target":34963
		},
		{
			"buffer":0,
			"byteLength":279732,
			"byteOffset":811612,
			"target":34962
		},
		{
			"buffer":0,
			"byteLength":279732,
			"byteOffset":1091344,
			"target":34962
		},
		{
			"buffer":0,
			"byteLength":186488,
			"byteOffset":1371076,
			"target":34962
		},
		{
			"buffer":0,
			"byteLength":279732,
			"byteOffset":1557564,
			"target":34962
		},
		{
			"buffer":0,
			"byteLength":279732,
			"byteOffset":1837296,
			"target":34962
		},
		{
			"buffer":0,
			"byteLength":186488,
			"byteOffset":2117028,
			"target":34962
		},
		{
			"buffer":0,
			"byteLength":279732,
			"byteOffset":2303516,
			"target":34962
		},
		{
			"buffer":0,
			"byteLength":279732,
			"byteOffset":2583248,
			"target":34962
		},
		{
			"buffer":0,
			"byteLength":186488,
			"byteOffset":2862980,
			"target":34962
		},
		{
			"buffer":0,
			"byteLength":306288,
			"byteOffset":3049468,
			"target":34962
		},
		{
			"buffer":0,
			"byteLength":306288,
			"byteOffset":3355756,
			"target":34962
		},
		{
			"buffer":0,
			"byteLength":204192,
			"byteOffset":3662044,
			"target":34962
		},
		{
			"buffer":0,
			"byteLength":65100,
			"byteOffset":3866236,
			"target":34963
		},
		{
			"buffer":0,
			"byteLength":306288,
			"byteOffset":3931336,
			"target":34962
		},
		{
			"buffer":0,
			"byteLength":306288,
			"byteOffset":4237624,
			"target":34962
		},
		{
			"buffer":0,
			"byteLength":204192,
			"byteOffset":4543912,
			"target":34962
		},
		{
			"buffer":0,
			"byteLength":279732,
			"byteOffset":4748104,
			"target":34962
		},
		{
			"buffer":0,
			"byteLength":279732,
			"byteOffset":5027836,
			"target":34962
		},
		{
			"buffer":0,
			"byteLength":186488,
			"byteOffset":5307568,
			"target":34962
		},
		{
			"buffer":0,
			"byteLength":279732,
			"byteOffset":5494056,
			"target":34962
		},
		{
			"buffer":0,
			"byteLength":279732,
			"byteOffset":5773788,
			"target":34962
		},
		{
			"buffer":0,
			"byteLength":186488,
			"byteOffset":6053520,
			"target":34962
		},
		{
			"buffer":0,
			"byteLength":279732,
			"byteOffset":6240008,
			"target":34962
		},
		{
			"buffer":0,
			"byteLength":279732,
			"byteOffset":6519740,
			"target":34962
		},
		{
			"buffer":0,
			"byteLength":186488,
			"byteOffset":6799472,
			"target":34962
		},
		{
			"buffer":0,
			"byteLength":279732,
			"byteOffset":6985960,
			"target":34962
		},
		{
			"buffer":0,
			"byteLength":279732,
			"byteOffset":7265692,
			"target":34962
		},
		{
			"buffer":0,
			"byteLength":186488,
			"byteOffset":7545424,
			"target":34962
		},
		{
			"buffer":0,
			"byteLength":279732,
			"byteOffset":7731912,
			"target":34962
		},
		{
			"buffer":0,
			"byteLength":279732,
			"byteOffset":8011644,
			"target":34962
		},
		{
			"buffer":0,
			"byteLength":186488,
			"byteOffset":8291376,
			"target":34962
		},
		{
			"buffer":0,
			"byteLength":279732,
			"byteOffset":8477864,
			"target":34962
		},
		{
			"buffer":0,
			"byteLength":279732,
			"byteOffset":8757596,
			"target":34962
		},
		{
			"buffer":0,
			"byteLength":186488,
			"byteOffset":9037328,
			"target":34962
		},
		{
			"buffer":0,
			"byteLength":279732,
			"byteOffset":9223816,
			"target":34962
		},
		{
			"buffer":0,
			"byteLength":279732,
			"byteOffset":9503548,
			"target":34962
		},
		{
			"buffer":0,
			"byteLength":186488,
			"byteOffset":9783280,
			"target":34962
		},
		{
			"buffer":0,
			"byteLength":279732,
			"byteOffset":9969768,
			"target":34962
		},
		{
			"buffer":0,
			"byteLength":279732,
			"byteOffset":10249500,
			"target":34962
		},
		{
			"buffer":0,
			"byteLength":186488,
			"byteOffset":10529232,
			"target":34962
		},
		{
			"buffer":0,
			"byteLength":279732,
			"byteOffset":10715720,
			"target":34962
		},
		{
			"buffer":0,
			"byteLength":279732,
			"byteOffset":10995452,
			"target":34962
		},
		{
			"buffer":0,
			"byteLength":186488,
			"byteOffset":11275184,
			"target":34962
		},
		{
			"buffer":0,
			"byteLength":279732,
			"byteOffset":11461672,
			"target":34962
		},
		{
			"buffer":0,
			"byteLength":279732,
			"byteOffset":11741404,
			"target":34962
		},
		{
			"buffer":0,
			"byteLength":186488,
			"byteOffset":12021136,
			"target":34962
		},
		{
			"buffer":0,
			"byteLength":327648,
			"byteOffset":12207624,
			"target":34962
		},
		{
			"buffer":0,
			"byteLength":327648,
			"byteOffset":12535272,
			"target":34962
		},
		{
			"buffer":0,
			"byteLength":218432,
			"byteOffset":12862920,
			"target":34962
		},
		{
			"buffer":0,
			"byteLength":86340,
			"byteOffset":13081352,
			"target":34963
		}
	],
	"samplers":[
		{
			"magFilter":9729,
			"minFilter":9987
		}
	],
	"buffers":[
		{
			"byteLength":13167692,
			"uri":"Garten_Landschaft.bin"
		}
	]
}
