{
	"asset":{
		"generator":"Khronos glTF Blender I/O v5.1.18",
		"version":"2.0"
	},
	"scene":0,
	"scenes":[
		{
			"name":"Scene",
			"nodes":[
				0,
				1,
				2,
				3,
				4,
				5,
				6,
				7,
				8,
				9,
				10,
				11,
				12,
				13,
				14,
				15,
				16,
				17,
				18,
				19,
				20,
				21,
				22,
				23,
				24,
				25,
				26,
				27
			]
		}
	],
	"nodes":[
		{
			"mesh":0,
			"name":"_Zaun.010",
			"rotation":[
				0,
				0.006793090142309666,
				0,
				0.9999769330024719
			],
			"translation":[
				30,
				-0.4749999940395355,
				-19.771163940429688
			]
		},
		{
			"mesh":1,
			"name":"_Zaun.011",
			"scale":[
				0.800000011920929,
				0.8583333492279053,
				0.014545455574989319
			],
			"translation":[
				30,
				-0.5249999761581421,
				-17.150068283081055
			]
		},
		{
			"mesh":2,
			"name":"_Zaun.012",
			"scale":[
				0.800000011920929,
				0.8583333492279053,
				0.014545455574989319
			],
			"translation":[
				30,
				-0.5249999761581421,
				-19.86300277709961
			]
		},
		{
			"mesh":3,
			"name":"_Zaun.013",
			"rotation":[
				0,
				0.00021514100080821663,
				0,
				1
			],
			"translation":[
				30,
				-0.4749999940395355,
				-17.18429183959961
			]
		},
		{
			"mesh":4,
			"name":"_Zaun.014",
			"translation":[
				30,
				-0.4749999940395355,
				-17.079660415649414
			]
		},
		{
			"mesh":5,
			"name":"_Zaun.015",
			"scale":[
				0.800000011920929,
				0.8583333492279053,
				0.014545455574989319
			],
			"translation":[
				30,
				-0.5249999761581421,
				-13.790010452270508
			]
		},
		{
			"mesh":6,
			"name":"_Zaun.016",
			"scale":[
				0.800000011920929,
				0.8583333492279053,
				0.014545455574989319
			],
			"translation":[
				30,
				-0.5249999761581421,
				-12.865669250488281
			]
		},
		{
			"mesh":7,
			"name":"_Zaun.017",
			"rotation":[
				0,
				-0.05375927686691284,
				0,
				0.9985539317131042
			],
			"translation":[
				30,
				-0.4749999940395355,
				-15.084328651428223
			]
		},
		{
			"mesh":8,
			"name":"_Zaun.018",
			"translation":[
				30,
				-0.4749999940395355,
				-13.722952842712402
			]
		},
		{
			"mesh":9,
			"name":"_Zaun.019",
			"scale":[
				0.800000011920929,
				0.8583333492279053,
				0.014545455574989319
			],
			"translation":[
				30,
				-0.5249999761581421,
				-15.15643310546875
			]
		},
		{
			"mesh":10,
			"name":"GartenRasen.006",
			"translation":[
				29.99999237060547,
				-0.525000274181366,
				-12.5
			]
		},
		{
			"mesh":11,
			"name":"GartenRasen.007",
			"rotation":[
				0,
				-0.7071068286895752,
				0,
				0.7071068286895752
			],
			"scale":[
				1,
				1,
				1.0961405038833618
			],
			"translation":[
				25.00437355041504,
				-0.5249999761581421,
				-19.969518661499023
			]
		},
		{
			"mesh":12,
			"name":"GartenRasen.008",
			"scale":[
				0.8524220585823059,
				100,
				0.375
			],
			"translation":[
				30,
				-0.525000274181366,
				-20
			]
		},
		{
			"mesh":13,
			"name":"GartenRasen.009",
			"rotation":[
				0,
				-0.7071068286895752,
				0,
				0.7071068286895752
			],
			"translation":[
				25.793798446655273,
				-0.5249999761581421,
				-13.089420318603516
			]
		},
		{
			"mesh":14,
			"name":"GartenRasen.010"
		},
		{
			"mesh":15,
			"name":"GartenRasen.S\u00fcd.Orig.002"
		},
		{
			"mesh":16,
			"name":"Rasenstein.001",
			"scale":[
				0.22222165763378143,
				0.4000000059604645,
				0.9868420958518982
			],
			"translation":[
				29.98489761352539,
				-0.5860481262207031,
				-20
			]
		},
		{
			"mesh":17,
			"name":"Rasenstein.003",
			"scale":[
				0.22222165763378143,
				0.4000000059604645,
				0.3947368562221527
			],
			"translation":[
				25.781394958496094,
				-0.5860481262207031,
				-20
			]
		},
		{
			"mesh":18,
			"name":"_Zaunstange.010",
			"rotation":[
				0,
				0.006793090142309666,
				0,
				0.9999769330024719
			],
			"translation":[
				29.977006912231445,
				0.014999988488852978,
				-19.678977966308594
			]
		},
		{
			"mesh":19,
			"name":"_Zaunstange.011",
			"rotation":[
				0.7070904970169067,
				0.004803443793207407,
				-0.0048034354113042355,
				0.707090437412262
			],
			"translation":[
				29.984386444091797,
				-0.3736908733844757,
				-19.135848999023438
			]
		},
		{
			"mesh":20,
			"name":"_Zaunstange.012",
			"rotation":[
				0.7071068286895752,
				0.00015212767175398767,
				-0.0001521276863059029,
				0.7071068286895752
			],
			"translation":[
				29.975479125976562,
				-0.3736908435821533,
				-17.82923698425293
			]
		},
		{
			"mesh":21,
			"name":"_Zaunstange.013",
			"rotation":[
				0,
				0.00021514100080821663,
				0,
				1
			],
			"translation":[
				29.975244522094727,
				0.01500004157423973,
				-18.37241554260254
			]
		},
		{
			"mesh":22,
			"name":"_Zaunstange.014",
			"rotation":[
				0.7071068286895752,
				0,
				0,
				0.7071068286895752
			],
			"scale":[
				1,
				1.5573769807815552,
				1
			],
			"translation":[
				29.971118927001953,
				-0.3653920292854309,
				-16.12428855895996
			]
		},
		{
			"mesh":23,
			"name":"_Zaunstange.015",
			"translation":[
				29.97575569152832,
				0.014999985694885254,
				-16.987794876098633
			]
		},
		{
			"mesh":24,
			"name":"_Zaunstange.016",
			"rotation":[
				0,
				-0.05375927686691284,
				0,
				0.9985539317131042
			],
			"translation":[
				29.966032028198242,
				0.014999985694885254,
				-14.99559497833252
			]
		},
		{
			"mesh":25,
			"name":"_Zaunstange.017",
			"rotation":[
				0.7060842514038086,
				-0.03801354765892029,
				0.03801355138421059,
				0.7060842514038086
			],
			"translation":[
				29.90771484375,
				-0.3736909031867981,
				-14.455556869506836
			]
		},
		{
			"mesh":26,
			"name":"_Zaunstange.018",
			"rotation":[
				0.7071068286895752,
				0,
				0,
				0.7071068286895752
			],
			"scale":[
				1,
				0.6533950567245483,
				1
			],
			"translation":[
				29.97575569152832,
				-0.3736909031867981,
				-13.322190284729004
			]
		},
		{
			"mesh":27,
			"name":"_Zaunstange.019",
			"translation":[
				29.97575569152832,
				0.014999985694885254,
				-13.631087303161621
			]
		}
	],
	"materials":[
		{
			"doubleSided":true,
			"name":"AussenMetall",
			"pbrMetallicRoughness":{
				"baseColorFactor":[
					0.03954596072435379,
					0.04817187413573265,
					0.05448030307888985,
					1
				],
				"roughnessFactor":0.654285728931427
			}
		},
		{
			"doubleSided":true,
			"name":"AussenMetall.008",
			"pbrMetallicRoughness":{
				"baseColorFactor":[
					0.03954596072435379,
					0.04817187413573265,
					0.05448030307888985,
					1
				],
				"metallicFactor":0.6571428775787354,
				"roughnessFactor":0.654285728931427
			}
		},
		{
			"doubleSided":true,
			"name":"AussenMetall.016",
			"pbrMetallicRoughness":{
				"baseColorFactor":[
					0.03954596072435379,
					0.04817187413573265,
					0.05448030307888985,
					1
				],
				"metallicFactor":0.6571428775787354,
				"roughnessFactor":0.654285728931427
			}
		},
		{
			"doubleSided":true,
			"name":"AussenMetall.026",
			"pbrMetallicRoughness":{
				"baseColorFactor":[
					0.03954596072435379,
					0.04817187413573265,
					0.05448030307888985,
					1
				],
				"metallicFactor":0.6571428775787354,
				"roughnessFactor":0.654285728931427
			}
		},
		{
			"doubleSided":true,
			"name":"Grass",
			"pbrMetallicRoughness":{
				"baseColorTexture":{
					"index":0
				},
				"metallicFactor":0
			}
		},
		{
			"doubleSided":true,
			"name":"Grass.001",
			"pbrMetallicRoughness":{
				"baseColorTexture":{
					"index":1
				},
				"metallicFactor":0
			}
		},
		{
			"doubleSided":true,
			"name":"Beton_Rough",
			"pbrMetallicRoughness":{
				"baseColorFactor":[
					0.3583049178123474,
					0.3314575254917145,
					0.36859366297721863,
					1
				],
				"metallicFactor":0
			}
		},
		{
			"doubleSided":true,
			"name":"Beton_Rough.015",
			"pbrMetallicRoughness":{
				"baseColorFactor":[
					0.3583049178123474,
					0.3314575254917145,
					0.36859366297721863,
					1
				],
				"metallicFactor":0
			}
		}
	],
	"meshes":[
		{
			"name":"Cube.217",
			"primitives":[
				{
					"attributes":{
						"POSITION":0,
						"NORMAL":1,
						"TEXCOORD_0":2
					},
					"indices":3,
					"material":0
				}
			]
		},
		{
			"name":"Cube.218",
			"primitives":[
				{
					"attributes":{
						"POSITION":4,
						"NORMAL":5,
						"TEXCOORD_0":6
					},
					"indices":7,
					"material":0
				}
			]
		},
		{
			"name":"Cube.219",
			"primitives":[
				{
					"attributes":{
						"POSITION":8,
						"NORMAL":9,
						"TEXCOORD_0":10
					},
					"indices":7,
					"material":0
				}
			]
		},
		{
			"name":"Cube.220",
			"primitives":[
				{
					"attributes":{
						"POSITION":11,
						"NORMAL":12,
						"TEXCOORD_0":13
					},
					"indices":3,
					"material":0
				}
			]
		},
		{
			"name":"Cube.221",
			"primitives":[
				{
					"attributes":{
						"POSITION":14,
						"NORMAL":15,
						"TEXCOORD_0":16
					},
					"indices":3,
					"material":0
				}
			]
		},
		{
			"name":"Cube.222",
			"primitives":[
				{
					"attributes":{
						"POSITION":17,
						"NORMAL":18,
						"TEXCOORD_0":19
					},
					"indices":7,
					"material":0
				}
			]
		},
		{
			"name":"Cube.223",
			"primitives":[
				{
					"attributes":{
						"POSITION":20,
						"NORMAL":21,
						"TEXCOORD_0":22
					},
					"indices":7,
					"material":0
				}
			]
		},
		{
			"name":"Cube.224",
			"primitives":[
				{
					"attributes":{
						"POSITION":23,
						"NORMAL":24,
						"TEXCOORD_0":25
					},
					"indices":3,
					"material":1
				}
			]
		},
		{
			"name":"Cube.225",
			"primitives":[
				{
					"attributes":{
						"POSITION":26,
						"NORMAL":27,
						"TEXCOORD_0":28
					},
					"indices":3,
					"material":2
				}
			]
		},
		{
			"name":"Cube.226",
			"primitives":[
				{
					"attributes":{
						"POSITION":29,
						"NORMAL":30,
						"TEXCOORD_0":31
					},
					"indices":7,
					"material":3
				}
			]
		},
		{
			"name":"Cube.227",
			"primitives":[
				{
					"attributes":{
						"POSITION":32,
						"NORMAL":33,
						"TEXCOORD_0":34
					},
					"indices":35,
					"material":4
				}
			]
		},
		{
			"name":"Cube.228",
			"primitives":[
				{
					"attributes":{
						"POSITION":36,
						"NORMAL":37,
						"TEXCOORD_0":38
					},
					"indices":35,
					"material":4
				}
			]
		},
		{
			"name":"Cube.229",
			"primitives":[
				{
					"attributes":{
						"POSITION":39,
						"NORMAL":40,
						"TEXCOORD_0":41
					},
					"indices":35,
					"material":4
				}
			]
		},
		{
			"name":"Cube.230",
			"primitives":[
				{
					"attributes":{
						"POSITION":42,
						"NORMAL":43,
						"TEXCOORD_0":44
					},
					"indices":35,
					"material":4
				}
			]
		},
		{
			"name":"Cube.231",
			"primitives":[
				{
					"attributes":{
						"POSITION":45,
						"NORMAL":46,
						"TEXCOORD_0":47
					},
					"indices":35,
					"material":5
				}
			]
		},
		{
			"name":"Cube.232",
			"primitives":[
				{
					"attributes":{
						"POSITION":48,
						"NORMAL":49,
						"TEXCOORD_0":50
					},
					"indices":51,
					"material":4
				}
			]
		},
		{
			"name":"Cube.233",
			"primitives":[
				{
					"attributes":{
						"POSITION":52,
						"NORMAL":53,
						"TEXCOORD_0":54
					},
					"indices":55,
					"material":6
				}
			]
		},
		{
			"name":"Cube.234",
			"primitives":[
				{
					"attributes":{
						"POSITION":56,
						"NORMAL":57,
						"TEXCOORD_0":58
					},
					"indices":59,
					"material":7
				}
			]
		},
		{
			"name":"Cylinder.013",
			"primitives":[
				{
					"attributes":{
						"POSITION":60,
						"NORMAL":61,
						"TEXCOORD_0":62
					},
					"indices":63,
					"material":0
				}
			]
		},
		{
			"name":"Cylinder.016",
			"primitives":[
				{
					"attributes":{
						"POSITION":64,
						"NORMAL":65,
						"TEXCOORD_0":66
					},
					"indices":67,
					"material":0
				}
			]
		},
		{
			"name":"Cylinder.022",
			"primitives":[
				{
					"attributes":{
						"POSITION":68,
						"NORMAL":69,
						"TEXCOORD_0":70
					},
					"indices":67,
					"material":0
				}
			]
		},
		{
			"name":"Cylinder.023",
			"primitives":[
				{
					"attributes":{
						"POSITION":71,
						"NORMAL":72,
						"TEXCOORD_0":73
					},
					"indices":63,
					"material":0
				}
			]
		},
		{
			"name":"Cylinder.024",
			"primitives":[
				{
					"attributes":{
						"POSITION":74,
						"NORMAL":75,
						"TEXCOORD_0":76
					},
					"indices":67,
					"material":0
				}
			]
		},
		{
			"name":"Cylinder.025",
			"primitives":[
				{
					"attributes":{
						"POSITION":77,
						"NORMAL":78,
						"TEXCOORD_0":79
					},
					"indices":80,
					"material":0
				}
			]
		},
		{
			"name":"Cylinder.026",
			"primitives":[
				{
					"attributes":{
						"POSITION":81,
						"NORMAL":82,
						"TEXCOORD_0":83
					},
					"indices":63,
					"material":1
				}
			]
		},
		{
			"name":"Cylinder.027",
			"primitives":[
				{
					"attributes":{
						"POSITION":84,
						"NORMAL":85,
						"TEXCOORD_0":86
					},
					"indices":67,
					"material":1
				}
			]
		},
		{
			"name":"Cylinder.028",
			"primitives":[
				{
					"attributes":{
						"POSITION":87,
						"NORMAL":88,
						"TEXCOORD_0":89
					},
					"indices":67,
					"material":2
				}
			]
		},
		{
			"name":"Cylinder.029",
			"primitives":[
				{
					"attributes":{
						"POSITION":90,
						"NORMAL":91,
						"TEXCOORD_0":92
					},
					"indices":93,
					"material":2
				}
			]
		}
	],
	"textures":[
		{
			"sampler":0,
			"source":0
		},
		{
			"sampler":0,
			"source":1
		}
	],
	"images":[
		{
			"mimeType":"image/png",
			"name":"albedo",
			"uri":"albedo.png"
		},
		{
			"mimeType":"image/png",
			"name":"albedo.png",
			"uri":"albedo.png.png"
		}
	],
	"accessors":[
		{
			"bufferView":0,
			"componentType":5126,
			"count":48,
			"max":[
				-6.644916794584788e-08,
				0.9799999594688416,
				1.2720003128051758
			],
			"min":[
				-0.0400000624358654,
				0,
				3.027134596322867e-07
			],
			"type":"VEC3"
		},
		{
			"bufferView":1,
			"componentType":5126,
			"count":48,
			"type":"VEC3"
		},
		{
			"bufferView":2,
			"componentType":5126,
			"count":48,
			"type":"VEC2"
		},
		{
			"bufferView":3,
			"componentType":5123,
			"count":96,
			"type":"SCALAR"
		},
		{
			"bufferView":4,
			"componentType":5126,
			"count":24,
			"max":[
				-8.3061458155953e-08,
				1.1999999284744263,
				2.750000476837158
			],
			"min":[
				-0.05000007897615433,
				0,
				6.544512416439829e-07
			],
			"type":"VEC3"
		},
		{
			"bufferView":5,
			"componentType":5126,
			"count":24,
			"type":"VEC3"
		},
		{
			"bufferView":6,
			"componentType":5126,
			"count":24,
			"type":"VEC2"
		},
		{
			"bufferView":7,
			"componentType":5123,
			"count":36,
			"type":"SCALAR"
		},
		{
			"bufferView":8,
			"componentType":5126,
			"count":24,
			"max":[
				-8.3061458155953e-08,
				1.1999999284744263,
				2.750000476837158
			],
			"min":[
				-0.05000007897615433,
				0,
				6.544512416439829e-07
			],
			"type":"VEC3"
		},
		{
			"bufferView":9,
			"componentType":5126,
			"count":24,
			"type":"VEC3"
		},
		{
			"bufferView":10,
			"componentType":5126,
			"count":24,
			"type":"VEC2"
		},
		{
			"bufferView":11,
			"componentType":5126,
			"count":48,
			"max":[
				-6.644916794584788e-08,
				0.9799999594688416,
				-9.5367431640625e-07
			],
			"min":[
				-0.0400000624358654,
				0,
				-1.2720009088516235
			],
			"type":"VEC3"
		},
		{
			"bufferView":12,
			"componentType":5126,
			"count":48,
			"type":"VEC3"
		},
		{
			"bufferView":13,
			"componentType":5126,
			"count":48,
			"type":"VEC2"
		},
		{
			"bufferView":14,
			"componentType":5126,
			"count":48,
			"max":[
				-6.644916794584788e-08,
				0.9799999594688416,
				1.8995041847229004
			],
			"min":[
				-0.0400000624358654,
				0,
				3.027134596322867e-07
			],
			"type":"VEC3"
		},
		{
			"bufferView":15,
			"componentType":5126,
			"count":48,
			"type":"VEC3"
		},
		{
			"bufferView":16,
			"componentType":5126,
			"count":48,
			"type":"VEC2"
		},
		{
			"bufferView":17,
			"componentType":5126,
			"count":24,
			"max":[
				-8.3061458155953e-08,
				1.1999999284744263,
				2.750000476837158
			],
			"min":[
				-0.05000007897615433,
				0,
				6.544512416439829e-07
			],
			"type":"VEC3"
		},
		{
			"bufferView":18,
			"componentType":5126,
			"count":24,
			"type":"VEC3"
		},
		{
			"bufferView":19,
			"componentType":5126,
			"count":24,
			"type":"VEC2"
		},
		{
			"bufferView":20,
			"componentType":5126,
			"count":24,
			"max":[
				-8.3061458155953e-08,
				1.1999999284744263,
				2.750000476837158
			],
			"min":[
				-0.05000007897615433,
				0,
				6.544512416439829e-07
			],
			"type":"VEC3"
		},
		{
			"bufferView":21,
			"componentType":5126,
			"count":24,
			"type":"VEC3"
		},
		{
			"bufferView":22,
			"componentType":5126,
			"count":24,
			"type":"VEC2"
		},
		{
			"bufferView":23,
			"componentType":5126,
			"count":48,
			"max":[
				-6.644916794584788e-08,
				0.9799999594688416,
				1.2720003128051758
			],
			"min":[
				-0.0400000624358654,
				0,
				3.027134596322867e-07
			],
			"type":"VEC3"
		},
		{
			"bufferView":24,
			"componentType":5126,
			"count":48,
			"type":"VEC3"
		},
		{
			"bufferView":25,
			"componentType":5126,
			"count":48,
			"type":"VEC2"
		},
		{
			"bufferView":26,
			"componentType":5126,
			"count":48,
			"max":[
				-6.644916794584788e-08,
				0.9799999594688416,
				0.8277757167816162
			],
			"min":[
				-0.0400000624358654,
				0,
				3.027134596322867e-07
			],
			"type":"VEC3"
		},
		{
			"bufferView":27,
			"componentType":5126,
			"count":48,
			"type":"VEC3"
		},
		{
			"bufferView":28,
			"componentType":5126,
			"count":48,
			"type":"VEC2"
		},
		{
			"bufferView":29,
			"componentType":5126,
			"count":24,
			"max":[
				-8.3061458155953e-08,
				1.1999999284744263,
				2.750000476837158
			],
			"min":[
				-0.05000007897615433,
				0,
				6.544512416439829e-07
			],
			"type":"VEC3"
		},
		{
			"bufferView":30,
			"componentType":5126,
			"count":24,
			"type":"VEC3"
		},
		{
			"bufferView":31,
			"componentType":5126,
			"count":24,
			"type":"VEC2"
		},
		{
			"bufferView":32,
			"componentType":5126,
			"count":4,
			"max":[
				1.3691663980353042e-06,
				4.6566128730773926e-08,
				12.5
			],
			"min":[
				-4.210574150085449,
				4.6566128730773926e-08,
				5.960464477539062e-07
			],
			"type":"VEC3"
		},
		{
			"bufferView":33,
			"componentType":5126,
			"count":4,
			"type":"VEC3"
		},
		{
			"bufferView":34,
			"componentType":5126,
			"count":4,
			"type":"VEC2"
		},
		{
			"bufferView":35,
			"componentType":5123,
			"count":6,
			"type":"SCALAR"
		},
		{
			"bufferView":36,
			"componentType":5126,
			"count":4,
			"max":[
				2.972750425338745,
				-2.980232505223057e-09,
				9.049285888671875
			],
			"min":[
				-9.048287211044226e-06,
				-2.980232505223057e-09,
				-0.7201869487762451
			],
			"type":"VEC3"
		},
		{
			"bufferView":37,
			"componentType":5126,
			"count":4,
			"type":"VEC3"
		},
		{
			"bufferView":38,
			"componentType":5126,
			"count":4,
			"type":"VEC2"
		},
		{
			"bufferView":39,
			"componentType":5126,
			"count":4,
			"max":[
				-1.9073486328125e-06,
				4.656612873077393e-10,
				20.000003814697266
			],
			"min":[
				-4.939544200897217,
				4.656612873077393e-10,
				4.76837158203125e-06
			],
			"type":"VEC3"
		},
		{
			"bufferView":40,
			"componentType":5126,
			"count":4,
			"type":"VEC3"
		},
		{
			"bufferView":41,
			"componentType":5126,
			"count":4,
			"type":"VEC2"
		},
		{
			"bufferView":42,
			"componentType":5126,
			"count":4,
			"max":[
				7.872735500335693,
				-2.980232505223057e-09,
				0.8699999451637268
			],
			"min":[
				-2.3871194571256638e-05,
				-2.980232505223057e-09,
				-9.870761630281777e-08
			],
			"type":"VEC3"
		},
		{
			"bufferView":43,
			"componentType":5126,
			"count":4,
			"type":"VEC3"
		},
		{
			"bufferView":44,
			"componentType":5126,
			"count":4,
			"type":"VEC2"
		},
		{
			"bufferView":45,
			"componentType":5126,
			"count":4,
			"max":[
				15.085089683532715,
				-0.5249999165534973,
				0.030473709106445312
			],
			"min":[
				0.08509063720703125,
				-0.5249999165534973,
				-19.969526290893555
			],
			"type":"VEC3"
		},
		{
			"bufferView":46,
			"componentType":5126,
			"count":4,
			"type":"VEC3"
		},
		{
			"bufferView":47,
			"componentType":5126,
			"count":4,
			"type":"VEC2"
		},
		{
			"bufferView":48,
			"componentType":5126,
			"count":20,
			"max":[
				25.789424896240234,
				-0.5194375514984131,
				4.76837158203125e-07
			],
			"min":[
				15.085089683532715,
				-1.6178598403930664,
				-5.000035762786865
			],
			"type":"VEC3"
		},
		{
			"bufferView":49,
			"componentType":5126,
			"count":20,
			"type":"VEC3"
		},
		{
			"bufferView":50,
			"componentType":5126,
			"count":20,
			"type":"VEC2"
		},
		{
			"bufferView":51,
			"componentType":5123,
			"count":42,
			"type":"SCALAR"
		},
		{
			"bufferView":52,
			"componentType":5126,
			"count":552,
			"max":[
				-7.475531447198591e-07,
				0.19999998807907104,
				7.600001811981201
			],
			"min":[
				-18.48999786376953,
				0,
				1.808665274438681e-06
			],
			"type":"VEC3"
		},
		{
			"bufferView":53,
			"componentType":5126,
			"count":552,
			"type":"VEC3"
		},
		{
			"bufferView":54,
			"componentType":5126,
			"count":552,
			"type":"VEC2"
		},
		{
			"bufferView":55,
			"componentType":5123,
			"count":828,
			"type":"SCALAR"
		},
		{
			"bufferView":56,
			"componentType":5126,
			"count":1248,
			"max":[
				-7.475531447198591e-07,
				0.19999998807907104,
				7.600001811981201
			],
			"min":[
				-42.269989013671875,
				0,
				1.808665274438681e-06
			],
			"type":"VEC3"
		},
		{
			"bufferView":57,
			"componentType":5126,
			"count":1248,
			"type":"VEC3"
		},
		{
			"bufferView":58,
			"componentType":5126,
			"count":1248,
			"type":"VEC2"
		},
		{
			"bufferView":59,
			"componentType":5123,
			"count":1872,
			"type":"SCALAR"
		},
		{
			"bufferView":60,
			"componentType":5126,
			"count":4416,
			"max":[
				0.003000000026077032,
				0.49000000953674316,
				1.1030000448226929
			],
			"min":[
				-0.003000000026077032,
				-0.49000000953674316,
				-0.003000000026077032
			],
			"type":"VEC3"
		},
		{
			"bufferView":61,
			"componentType":5126,
			"count":4416,
			"type":"VEC3"
		},
		{
			"bufferView":62,
			"componentType":5126,
			"count":4416,
			"type":"VEC2"
		},
		{
			"bufferView":63,
			"componentType":5123,
			"count":8556,
			"type":"SCALAR"
		},
		{
			"bufferView":64,
			"componentType":5126,
			"count":960,
			"max":[
				0.003000000026077032,
				0.6100000143051147,
				0.003000000026077032
			],
			"min":[
				-0.003000000026077032,
				-0.6100000143051147,
				-0.8029999732971191
			],
			"type":"VEC3"
		},
		{
			"bufferView":65,
			"componentType":5126,
			"count":960,
			"type":"VEC3"
		},
		{
			"bufferView":66,
			"componentType":5126,
			"count":960,
			"type":"VEC2"
		},
		{
			"bufferView":67,
			"componentType":5123,
			"count":1860,
			"type":"SCALAR"
		},
		{
			"bufferView":68,
			"componentType":5126,
			"count":960,
			"max":[
				0.003000000026077032,
				0.6100000143051147,
				0.003000000026077032
			],
			"min":[
				-0.003000000026077032,
				-0.6100000143051147,
				-0.8029999732971191
			],
			"type":"VEC3"
		},
		{
			"bufferView":69,
			"componentType":5126,
			"count":960,
			"type":"VEC3"
		},
		{
			"bufferView":70,
			"componentType":5126,
			"count":960,
			"type":"VEC2"
		},
		{
			"bufferView":71,
			"componentType":5126,
			"count":4416,
			"max":[
				0.003000000026077032,
				0.49000000953674316,
				1.1030000448226929
			],
			"min":[
				-0.003000000026077032,
				-0.49000000953674316,
				-0.003000000026077032
			],
			"type":"VEC3"
		},
		{
			"bufferView":72,
			"componentType":5126,
			"count":4416,
			"type":"VEC3"
		},
		{
			"bufferView":73,
			"componentType":5126,
			"count":4416,
			"type":"VEC2"
		},
		{
			"bufferView":74,
			"componentType":5126,
			"count":960,
			"max":[
				0.003000000026077032,
				0.5955551266670227,
				0.0030000009573996067
			],
			"min":[
				-0.003000000026077032,
				-0.6100000143051147,
				-0.8029999732971191
			],
			"type":"VEC3"
		},
		{
			"bufferView":75,
			"componentType":5126,
			"count":960,
			"type":"VEC3"
		},
		{
			"bufferView":76,
			"componentType":5126,
			"count":960,
			"type":"VEC2"
		},
		{
			"bufferView":77,
			"componentType":5126,
			"count":6912,
			"max":[
				0.003000000026077032,
				0.49000000953674316,
				1.7529994249343872
			],
			"min":[
				-0.003000000026077032,
				-0.49000000953674316,
				-0.003000000026077032
			],
			"type":"VEC3"
		},
		{
			"bufferView":78,
			"componentType":5126,
			"count":6912,
			"type":"VEC3"
		},
		{
			"bufferView":79,
			"componentType":5126,
			"count":6912,
			"type":"VEC2"
		},
		{
			"bufferView":80,
			"componentType":5123,
			"count":13392,
			"type":"SCALAR"
		},
		{
			"bufferView":81,
			"componentType":5126,
			"count":4416,
			"max":[
				0.003000000026077032,
				0.49000000953674316,
				1.1030000448226929
			],
			"min":[
				-0.003000000026077032,
				-0.49000000953674316,
				-0.003000000026077032
			],
			"type":"VEC3"
		},
		{
			"bufferView":82,
			"componentType":5126,
			"count":4416,
			"type":"VEC3"
		},
		{
			"bufferView":83,
			"componentType":5126,
			"count":4416,
			"type":"VEC2"
		},
		{
			"bufferView":84,
			"componentType":5126,
			"count":960,
			"max":[
				0.003000000026077032,
				0.6100000143051147,
				0.003000000026077032
			],
			"min":[
				-0.003000000026077032,
				-0.6100000143051147,
				-0.8029999732971191
			],
			"type":"VEC3"
		},
		{
			"bufferView":85,
			"componentType":5126,
			"count":960,
			"type":"VEC3"
		},
		{
			"bufferView":86,
			"componentType":5126,
			"count":960,
			"type":"VEC2"
		},
		{
			"bufferView":87,
			"componentType":5126,
			"count":960,
			"max":[
				0.003000000026077032,
				0.6100000143051147,
				0.003000000026077032
			],
			"min":[
				-0.003000000026077032,
				-0.6100000143051147,
				-0.8029999732971191
			],
			"type":"VEC3"
		},
		{
			"bufferView":88,
			"componentType":5126,
			"count":960,
			"type":"VEC3"
		},
		{
			"bufferView":89,
			"componentType":5126,
			"count":960,
			"type":"VEC2"
		},
		{
			"bufferView":90,
			"componentType":5126,
			"count":2688,
			"max":[
				0.003000000026077032,
				0.49000000953674316,
				0.6530000567436218
			],
			"min":[
				-0.003000000026077032,
				-0.49000000953674316,
				-0.003000000026077032
			],
			"type":"VEC3"
		},
		{
			"bufferView":91,
			"componentType":5126,
			"count":2688,
			"type":"VEC3"
		},
		{
			"bufferView":92,
			"componentType":5126,
			"count":2688,
			"type":"VEC2"
		},
		{
			"bufferView":93,
			"componentType":5123,
			"count":5208,
			"type":"SCALAR"
		}
	],
	"bufferViews":[
		{
			"buffer":0,
			"byteLength":576,
			"byteOffset":0,
			"target":34962
		},
		{
			"buffer":0,
			"byteLength":576,
			"byteOffset":576,
			"target":34962
		},
		{
			"buffer":0,
			"byteLength":384,
			"byteOffset":1152,
			"target":34962
		},
		{
			"buffer":0,
			"byteLength":192,
			"byteOffset":1536,
			"target":34963
		},
		{
			"buffer":0,
			"byteLength":288,
			"byteOffset":1728,
			"target":34962
		},
		{
			"buffer":0,
			"byteLength":288,
			"byteOffset":2016,
			"target":34962
		},
		{
			"buffer":0,
			"byteLength":192,
			"byteOffset":2304,
			"target":34962
		},
		{
			"buffer":0,
			"byteLength":72,
			"byteOffset":2496,
			"target":34963
		},
		{
			"buffer":0,
			"byteLength":288,
			"byteOffset":2568,
			"target":34962
		},
		{
			"buffer":0,
			"byteLength":288,
			"byteOffset":2856,
			"target":34962
		},
		{
			"buffer":0,
			"byteLength":192,
			"byteOffset":3144,
			"target":34962
		},
		{
			"buffer":0,
			"byteLength":576,
			"byteOffset":3336,
			"target":34962
		},
		{
			"buffer":0,
			"byteLength":576,
			"byteOffset":3912,
			"target":34962
		},
		{
			"buffer":0,
			"byteLength":384,
			"byteOffset":4488,
			"target":34962
		},
		{
			"buffer":0,
			"byteLength":576,
			"byteOffset":4872,
			"target":34962
		},
		{
			"buffer":0,
			"byteLength":576,
			"byteOffset":5448,
			"target":34962
		},
		{
			"buffer":0,
			"byteLength":384,
			"byteOffset":6024,
			"target":34962
		},
		{
			"buffer":0,
			"byteLength":288,
			"byteOffset":6408,
			"target":34962
		},
		{
			"buffer":0,
			"byteLength":288,
			"byteOffset":6696,
			"target":34962
		},
		{
			"buffer":0,
			"byteLength":192,
			"byteOffset":6984,
			"target":34962
		},
		{
			"buffer":0,
			"byteLength":288,
			"byteOffset":7176,
			"target":34962
		},
		{
			"buffer":0,
			"byteLength":288,
			"byteOffset":7464,
			"target":34962
		},
		{
			"buffer":0,
			"byteLength":192,
			"byteOffset":7752,
			"target":34962
		},
		{
			"buffer":0,
			"byteLength":576,
			"byteOffset":7944,
			"target":34962
		},
		{
			"buffer":0,
			"byteLength":576,
			"byteOffset":8520,
			"target":34962
		},
		{
			"buffer":0,
			"byteLength":384,
			"byteOffset":9096,
			"target":34962
		},
		{
			"buffer":0,
			"byteLength":576,
			"byteOffset":9480,
			"target":34962
		},
		{
			"buffer":0,
			"byteLength":576,
			"byteOffset":10056,
			"target":34962
		},
		{
			"buffer":0,
			"byteLength":384,
			"byteOffset":10632,
			"target":34962
		},
		{
			"buffer":0,
			"byteLength":288,
			"byteOffset":11016,
			"target":34962
		},
		{
			"buffer":0,
			"byteLength":288,
			"byteOffset":11304,
			"target":34962
		},
		{
			"buffer":0,
			"byteLength":192,
			"byteOffset":11592,
			"target":34962
		},
		{
			"buffer":0,
			"byteLength":48,
			"byteOffset":11784,
			"target":34962
		},
		{
			"buffer":0,
			"byteLength":48,
			"byteOffset":11832,
			"target":34962
		},
		{
			"buffer":0,
			"byteLength":32,
			"byteOffset":11880,
			"target":34962
		},
		{
			"buffer":0,
			"byteLength":12,
			"byteOffset":11912,
			"target":34963
		},
		{
			"buffer":0,
			"byteLength":48,
			"byteOffset":11924,
			"target":34962
		},
		{
			"buffer":0,
			"byteLength":48,
			"byteOffset":11972,
			"target":34962
		},
		{
			"buffer":0,
			"byteLength":32,
			"byteOffset":12020,
			"target":34962
		},
		{
			"buffer":0,
			"byteLength":48,
			"byteOffset":12052,
			"target":34962
		},
		{
			"buffer":0,
			"byteLength":48,
			"byteOffset":12100,
			"target":34962
		},
		{
			"buffer":0,
			"byteLength":32,
			"byteOffset":12148,
			"target":34962
		},
		{
			"buffer":0,
			"byteLength":48,
			"byteOffset":12180,
			"target":34962
		},
		{
			"buffer":0,
			"byteLength":48,
			"byteOffset":12228,
			"target":34962
		},
		{
			"buffer":0,
			"byteLength":32,
			"byteOffset":12276,
			"target":34962
		},
		{
			"buffer":0,
			"byteLength":48,
			"byteOffset":12308,
			"target":34962
		},
		{
			"buffer":0,
			"byteLength":48,
			"byteOffset":12356,
			"target":34962
		},
		{
			"buffer":0,
			"byteLength":32,
			"byteOffset":12404,
			"target":34962
		},
		{
			"buffer":0,
			"byteLength":240,
			"byteOffset":12436,
			"target":34962
		},
		{
			"buffer":0,
			"byteLength":240,
			"byteOffset":12676,
			"target":34962
		},
		{
			"buffer":0,
			"byteLength":160,
			"byteOffset":12916,
			"target":34962
		},
		{
			"buffer":0,
			"byteLength":84,
			"byteOffset":13076,
			"target":34963
		},
		{
			"buffer":0,
			"byteLength":6624,
			"byteOffset":13160,
			"target":34962
		},
		{
			"buffer":0,
			"byteLength":6624,
			"byteOffset":19784,
			"target":34962
		},
		{
			"buffer":0,
			"byteLength":4416,
			"byteOffset":26408,
			"target":34962
		},
		{
			"buffer":0,
			"byteLength":1656,
			"byteOffset":30824,
			"target":34963
		},
		{
			"buffer":0,
			"byteLength":14976,
			"byteOffset":32480,
			"target":34962
		},
		{
			"buffer":0,
			"byteLength":14976,
			"byteOffset":47456,
			"target":34962
		},
		{
			"buffer":0,
			"byteLength":9984,
			"byteOffset":62432,
			"target":34962
		},
		{
			"buffer":0,
			"byteLength":3744,
			"byteOffset":72416,
			"target":34963
		},
		{
			"buffer":0,
			"byteLength":52992,
			"byteOffset":76160,
			"target":34962
		},
		{
			"buffer":0,
			"byteLength":52992,
			"byteOffset":129152,
			"target":34962
		},
		{
			"buffer":0,
			"byteLength":35328,
			"byteOffset":182144,
			"target":34962
		},
		{
			"buffer":0,
			"byteLength":17112,
			"byteOffset":217472,
			"target":34963
		},
		{
			"buffer":0,
			"byteLength":11520,
			"byteOffset":234584,
			"target":34962
		},
		{
			"buffer":0,
			"byteLength":11520,
			"byteOffset":246104,
			"target":34962
		},
		{
			"buffer":0,
			"byteLength":7680,
			"byteOffset":257624,
			"target":34962
		},
		{
			"buffer":0,
			"byteLength":3720,
			"byteOffset":265304,
			"target":34963
		},
		{
			"buffer":0,
			"byteLength":11520,
			"byteOffset":269024,
			"target":34962
		},
		{
			"buffer":0,
			"byteLength":11520,
			"byteOffset":280544,
			"target":34962
		},
		{
			"buffer":0,
			"byteLength":7680,
			"byteOffset":292064,
			"target":34962
		},
		{
			"buffer":0,
			"byteLength":52992,
			"byteOffset":299744,
			"target":34962
		},
		{
			"buffer":0,
			"byteLength":52992,
			"byteOffset":352736,
			"target":34962
		},
		{
			"buffer":0,
			"byteLength":35328,
			"byteOffset":405728,
			"target":34962
		},
		{
			"buffer":0,
			"byteLength":11520,
			"byteOffset":441056,
			"target":34962
		},
		{
			"buffer":0,
			"byteLength":11520,
			"byteOffset":452576,
			"target":34962
		},
		{
			"buffer":0,
			"byteLength":7680,
			"byteOffset":464096,
			"target":34962
		},
		{
			"buffer":0,
			"byteLength":82944,
			"byteOffset":471776,
			"target":34962
		},
		{
			"buffer":0,
			"byteLength":82944,
			"byteOffset":554720,
			"target":34962
		},
		{
			"buffer":0,
			"byteLength":55296,
			"byteOffset":637664,
			"target":34962
		},
		{
			"buffer":0,
			"byteLength":26784,
			"byteOffset":692960,
			"target":34963
		},
		{
			"buffer":0,
			"byteLength":52992,
			"byteOffset":719744,
			"target":34962
		},
		{
			"buffer":0,
			"byteLength":52992,
			"byteOffset":772736,
			"target":34962
		},
		{
			"buffer":0,
			"byteLength":35328,
			"byteOffset":825728,
			"target":34962
		},
		{
			"buffer":0,
			"byteLength":11520,
			"byteOffset":861056,
			"target":34962
		},
		{
			"buffer":0,
			"byteLength":11520,
			"byteOffset":872576,
			"target":34962
		},
		{
			"buffer":0,
			"byteLength":7680,
			"byteOffset":884096,
			"target":34962
		},
		{
			"buffer":0,
			"byteLength":11520,
			"byteOffset":891776,
			"target":34962
		},
		{
			"buffer":0,
			"byteLength":11520,
			"byteOffset":903296,
			"target":34962
		},
		{
			"buffer":0,
			"byteLength":7680,
			"byteOffset":914816,
			"target":34962
		},
		{
			"buffer":0,
			"byteLength":32256,
			"byteOffset":922496,
			"target":34962
		},
		{
			"buffer":0,
			"byteLength":32256,
			"byteOffset":954752,
			"target":34962
		},
		{
			"buffer":0,
			"byteLength":21504,
			"byteOffset":987008,
			"target":34962
		},
		{
			"buffer":0,
			"byteLength":10416,
			"byteOffset":1008512,
			"target":34963
		}
	],
	"samplers":[
		{
			"magFilter":9729,
			"minFilter":9987
		}
	],
	"buffers":[
		{
			"byteLength":1018928,
			"uri":"Garten_Zaun_Rasen.bin"
		}
	]
}
