{
	"asset":{
		"generator":"Khronos glTF Blender I/O v5.1.18",
		"version":"2.0"
	},
	"scene":0,
	"scenes":[
		{
			"name":"Scene",
			"nodes":[
				0,
				1,
				2,
				3,
				4,
				5,
				6,
				7,
				8,
				9,
				10,
				11,
				12,
				13,
				14,
				15,
				16,
				17,
				18,
				19
			]
		}
	],
	"nodes":[
		{
			"mesh":0,
			"name":"LONG skinny 1 mesh hedge.007",
			"rotation":[
				0,
				0.7071068286895752,
				0,
				0.7071068286895752
			],
			"scale":[
				1.3996424674987793,
				2.6872408390045166,
				1
			],
			"translation":[
				29.624553680419922,
				-0.5233670473098755,
				-2.2142324447631836
			]
		},
		{
			"mesh":1,
			"name":"LONG skinny 1 mesh hedge.021",
			"scale":[
				1.866189956665039,
				1.3232496976852417,
				1
			],
			"translation":[
				20.713592529296875,
				-0.5233670473098755,
				-0.3240293562412262
			]
		},
		{
			"mesh":2,
			"name":"LONG skinny 1 mesh hedge.022",
			"scale":[
				1.866189956665039,
				1.40595281124115,
				1
			],
			"translation":[
				14.952967643737793,
				-0.5233670473098755,
				-0.32403072714805603
			]
		},
		{
			"mesh":3,
			"name":"LONG skinny 1 mesh hedge.023",
			"scale":[
				2.561361074447632,
				1.488655924797058,
				1
			],
			"translation":[
				8.017520904541016,
				-0.5233670473098755,
				-0.32403236627578735
			]
		},
		{
			"mesh":4,
			"name":"LONG skinny 1 mesh hedge.024",
			"scale":[
				1.866189956665039,
				1.3232496976852417,
				1
			],
			"translation":[
				26.51921844482422,
				-0.5233670473098755,
				-0.32402798533439636
			]
		},
		{
			"mesh":5,
			"name":"LONG skinny 1 mesh hedge.025",
			"rotation":[
				0,
				0.7071068286895752,
				0,
				0.7071068286895752
			],
			"scale":[
				1.5865809917449951,
				2.716569423675537,
				1
			],
			"translation":[
				29.624553680419922,
				-0.5233670473098755,
				-6.581576347351074
			]
		},
		{
			"mesh":6,
			"name":"LONG skinny 1 mesh hedge.026",
			"rotation":[
				0,
				0.7071068286895752,
				0,
				0.7071068286895752
			],
			"scale":[
				1.2649229764938354,
				1.8194684982299805,
				1
			],
			"translation":[
				0.4613933861255646,
				-0.5233718156814575,
				-2.139063835144043
			]
		},
		{
			"mesh":7,
			"name":"LONG skinny 1 mesh hedge.027",
			"rotation":[
				0,
				0.7071068286895752,
				0,
				0.7071068286895752
			],
			"scale":[
				1.2649229764938354,
				1.8194684982299805,
				1
			],
			"translation":[
				0.46139320731163025,
				-0.5233718156814575,
				-6.063198089599609
			]
		},
		{
			"mesh":8,
			"name":"LONG skinny 1 mesh hedge.028",
			"rotation":[
				0,
				0.7071068286895752,
				0,
				0.7071068286895752
			],
			"scale":[
				1.2649229764938354,
				1.8194684982299805,
				1
			],
			"translation":[
				0.4613930284976959,
				-0.5233718156814575,
				-9.928762435913086
			]
		},
		{
			"mesh":9,
			"name":"LONG skinny 1 mesh hedge.029",
			"rotation":[
				0,
				0.7071068286895752,
				0,
				0.7071068286895752
			],
			"scale":[
				1.2649229764938354,
				1.8194684982299805,
				1
			],
			"translation":[
				0.4613928496837616,
				-0.5233718156814575,
				-13.823613166809082
			]
		},
		{
			"mesh":10,
			"name":"LONG skinny 1 mesh hedge.030",
			"rotation":[
				0,
				0.7071068286895752,
				0,
				0.7071068286895752
			],
			"scale":[
				1.2649229764938354,
				1.8194684982299805,
				1
			],
			"translation":[
				0.46139267086982727,
				-0.5233718156814575,
				-17.806316375732422
			]
		},
		{
			"mesh":11,
			"name":"LONG skinny 1 mesh hedge.031",
			"scale":[
				1.1580147743225098,
				1.8194684982299805,
				1
			],
			"translation":[
				13.576821327209473,
				-0.523373544216156,
				-19.544374465942383
			]
		},
		{
			"mesh":12,
			"name":"LONG skinny 1 mesh hedge.032",
			"scale":[
				1.7290183305740356,
				1.819468379020691,
				1
			],
			"translation":[
				9.772788047790527,
				-0.523373544216156,
				-19.544374465942383
			]
		},
		{
			"mesh":13,
			"name":"LONG skinny 1 mesh hedge.033",
			"scale":[
				1.1580147743225098,
				1.8194684982299805,
				1
			],
			"translation":[
				5.948009490966797,
				-0.523373544216156,
				-19.544374465942383
			]
		},
		{
			"mesh":14,
			"name":"LONG skinny 1 mesh hedge.034",
			"scale":[
				1.1580147743225098,
				1.8194684982299805,
				1
			],
			"translation":[
				2.409153461456299,
				-0.523373544216156,
				-19.544374465942383
			]
		},
		{
			"mesh":15,
			"name":"LONG skinny 1 mesh hedge.035",
			"scale":[
				1.5186606645584106,
				1.40595281124115,
				1
			],
			"translation":[
				13.824590682983398,
				-0.7367887496948242,
				-4.691797733306885
			]
		},
		{
			"mesh":16,
			"name":"LONG skinny 1 mesh hedge.036",
			"rotation":[
				0,
				-0.7071067094802856,
				0,
				0.7071068286895752
			],
			"scale":[
				1.4444881677627563,
				2.390984535217285,
				1
			],
			"translation":[
				29.630949020385742,
				-0.5233680605888367,
				-10.888175010681152
			]
		},
		{
			"mesh":17,
			"name":"LONG skinny 1 mesh hedge.037",
			"rotation":[
				0,
				0.7071066498756409,
				0,
				0.70710688829422
			],
			"scale":[
				1.79356849193573,
				1.40595281124115,
				1
			],
			"translation":[
				11.619111061096191,
				-0.7367891669273376,
				-7.123434543609619
			]
		},
		{
			"mesh":18,
			"name":"LONG skinny 1 mesh hedge.038",
			"rotation":[
				0,
				0.7071066498756409,
				0,
				0.70710688829422
			],
			"scale":[
				1.1010080575942993,
				1.40595281124115,
				1
			],
			"translation":[
				11.619112968444824,
				-0.7367904782295227,
				-14.984369277954102
			]
		},
		{
			"mesh":19,
			"name":"LONG skinny 1 mesh hedge.039",
			"rotation":[
				0,
				-0.7071067094802856,
				0,
				0.7071068286895752
			],
			"scale":[
				0.5461580753326416,
				2.6151788234710693,
				1
			],
			"translation":[
				29.630949020385742,
				-0.5233680605888367,
				-16.148408889770508
			]
		}
	],
	"materials":[
		{
			"doubleSided":true,
			"name":"MET",
			"pbrMetallicRoughness":{
				"baseColorTexture":{
					"index":0
				},
				"metallicFactor":0
			}
		},
		{
			"doubleSided":true,
			"name":"MET.004",
			"pbrMetallicRoughness":{
				"baseColorTexture":{
					"index":1
				},
				"metallicFactor":0
			}
		},
		{
			"doubleSided":true,
			"name":"MET.003",
			"pbrMetallicRoughness":{
				"baseColorTexture":{
					"index":2
				},
				"metallicFactor":0
			}
		},
		{
			"doubleSided":true,
			"name":"MET.007",
			"pbrMetallicRoughness":{
				"baseColorTexture":{
					"index":3
				},
				"metallicFactor":0
			}
		},
		{
			"doubleSided":true,
			"name":"MET.008",
			"pbrMetallicRoughness":{
				"baseColorTexture":{
					"index":4
				},
				"metallicFactor":0
			}
		},
		{
			"doubleSided":true,
			"name":"MET.009",
			"pbrMetallicRoughness":{
				"baseColorTexture":{
					"index":5
				},
				"metallicFactor":0
			}
		}
	],
	"meshes":[
		{
			"name":"Cube.400",
			"primitives":[
				{
					"attributes":{
						"POSITION":0,
						"NORMAL":1,
						"TEXCOORD_0":2
					},
					"indices":3,
					"material":0
				}
			]
		},
		{
			"name":"Cube.401",
			"primitives":[
				{
					"attributes":{
						"POSITION":4,
						"NORMAL":5,
						"TEXCOORD_0":6
					},
					"indices":3,
					"material":0
				}
			]
		},
		{
			"name":"Cube.402",
			"primitives":[
				{
					"attributes":{
						"POSITION":7,
						"NORMAL":8,
						"TEXCOORD_0":9
					},
					"indices":3,
					"material":0
				}
			]
		},
		{
			"name":"Cube.403",
			"primitives":[
				{
					"attributes":{
						"POSITION":10,
						"NORMAL":11,
						"TEXCOORD_0":12
					},
					"indices":3,
					"material":0
				}
			]
		},
		{
			"name":"Cube.404",
			"primitives":[
				{
					"attributes":{
						"POSITION":13,
						"NORMAL":14,
						"TEXCOORD_0":15
					},
					"indices":3,
					"material":0
				}
			]
		},
		{
			"name":"Cube.405",
			"primitives":[
				{
					"attributes":{
						"POSITION":16,
						"NORMAL":17,
						"TEXCOORD_0":18
					},
					"indices":3,
					"material":0
				}
			]
		},
		{
			"name":"Cube.406",
			"primitives":[
				{
					"attributes":{
						"POSITION":19,
						"NORMAL":20,
						"TEXCOORD_0":21
					},
					"indices":3,
					"material":0
				}
			]
		},
		{
			"name":"Cube.407",
			"primitives":[
				{
					"attributes":{
						"POSITION":22,
						"NORMAL":23,
						"TEXCOORD_0":24
					},
					"indices":3,
					"material":0
				}
			]
		},
		{
			"name":"Cube.408",
			"primitives":[
				{
					"attributes":{
						"POSITION":25,
						"NORMAL":26,
						"TEXCOORD_0":27
					},
					"indices":3,
					"material":0
				}
			]
		},
		{
			"name":"Cube.409",
			"primitives":[
				{
					"attributes":{
						"POSITION":28,
						"NORMAL":29,
						"TEXCOORD_0":30
					},
					"indices":3,
					"material":0
				}
			]
		},
		{
			"name":"Cube.410",
			"primitives":[
				{
					"attributes":{
						"POSITION":31,
						"NORMAL":32,
						"TEXCOORD_0":33
					},
					"indices":3,
					"material":0
				}
			]
		},
		{
			"name":"Cube.411",
			"primitives":[
				{
					"attributes":{
						"POSITION":34,
						"NORMAL":35,
						"TEXCOORD_0":36
					},
					"indices":3,
					"material":0
				}
			]
		},
		{
			"name":"Cube.412",
			"primitives":[
				{
					"attributes":{
						"POSITION":37,
						"NORMAL":38,
						"TEXCOORD_0":39
					},
					"indices":3,
					"material":0
				}
			]
		},
		{
			"name":"Cube.413",
			"primitives":[
				{
					"attributes":{
						"POSITION":40,
						"NORMAL":41,
						"TEXCOORD_0":42
					},
					"indices":3,
					"material":0
				}
			]
		},
		{
			"name":"Cube.414",
			"primitives":[
				{
					"attributes":{
						"POSITION":43,
						"NORMAL":44,
						"TEXCOORD_0":45
					},
					"indices":3,
					"material":0
				}
			]
		},
		{
			"name":"Cube.415",
			"primitives":[
				{
					"attributes":{
						"POSITION":46,
						"NORMAL":47,
						"TEXCOORD_0":48
					},
					"indices":3,
					"material":1
				}
			]
		},
		{
			"name":"Cube.416",
			"primitives":[
				{
					"attributes":{
						"POSITION":49,
						"NORMAL":50,
						"TEXCOORD_0":51
					},
					"indices":3,
					"material":2
				}
			]
		},
		{
			"name":"Cube.417",
			"primitives":[
				{
					"attributes":{
						"POSITION":52,
						"NORMAL":53,
						"TEXCOORD_0":54
					},
					"indices":3,
					"material":3
				}
			]
		},
		{
			"name":"Cube.418",
			"primitives":[
				{
					"attributes":{
						"POSITION":55,
						"NORMAL":56,
						"TEXCOORD_0":57
					},
					"indices":3,
					"material":4
				}
			]
		},
		{
			"name":"Cube.419",
			"primitives":[
				{
					"attributes":{
						"POSITION":58,
						"NORMAL":59,
						"TEXCOORD_0":60
					},
					"indices":3,
					"material":5
				}
			]
		}
	],
	"textures":[
		{
			"sampler":0,
			"source":0
		},
		{
			"sampler":0,
			"source":0
		},
		{
			"sampler":0,
			"source":0
		},
		{
			"sampler":0,
			"source":0
		},
		{
			"sampler":0,
			"source":0
		},
		{
			"sampler":0,
			"source":0
		}
	],
	"images":[
		{
			"mimeType":"image/jpeg",
			"name":"model.jpeg",
			"uri":"model.jpeg.jpg"
		}
	],
	"accessors":[
		{
			"bufferView":0,
			"componentType":5126,
			"count":9199,
			"max":[
				1.6388752460479736,
				1.1618479490280151,
				0.33967915177345276
			],
			"min":[
				-1.5864336490631104,
				-0.04874033108353615,
				-0.3430456519126892
			],
			"type":"VEC3"
		},
		{
			"bufferView":1,
			"componentType":5126,
			"count":9199,
			"type":"VEC3"
		},
		{
			"bufferView":2,
			"componentType":5126,
			"count":9199,
			"type":"VEC2"
		},
		{
			"bufferView":3,
			"componentType":5123,
			"count":19644,
			"type":"SCALAR"
		},
		{
			"bufferView":4,
			"componentType":5126,
			"count":9199,
			"max":[
				1.6388752460479736,
				1.1618479490280151,
				0.33967915177345276
			],
			"min":[
				-1.5864336490631104,
				-0.04874033108353615,
				-0.3430456519126892
			],
			"type":"VEC3"
		},
		{
			"bufferView":5,
			"componentType":5126,
			"count":9199,
			"type":"VEC3"
		},
		{
			"bufferView":6,
			"componentType":5126,
			"count":9199,
			"type":"VEC2"
		},
		{
			"bufferView":7,
			"componentType":5126,
			"count":9199,
			"max":[
				1.6388752460479736,
				1.1618479490280151,
				0.33967915177345276
			],
			"min":[
				-1.5864336490631104,
				-0.04874033108353615,
				-0.3430456519126892
			],
			"type":"VEC3"
		},
		{
			"bufferView":8,
			"componentType":5126,
			"count":9199,
			"type":"VEC3"
		},
		{
			"bufferView":9,
			"componentType":5126,
			"count":9199,
			"type":"VEC2"
		},
		{
			"bufferView":10,
			"componentType":5126,
			"count":9199,
			"max":[
				1.6388752460479736,
				1.1618479490280151,
				0.33967915177345276
			],
			"min":[
				-1.5864336490631104,
				-0.04874033108353615,
				-0.3430456519126892
			],
			"type":"VEC3"
		},
		{
			"bufferView":11,
			"componentType":5126,
			"count":9199,
			"type":"VEC3"
		},
		{
			"bufferView":12,
			"componentType":5126,
			"count":9199,
			"type":"VEC2"
		},
		{
			"bufferView":13,
			"componentType":5126,
			"count":9199,
			"max":[
				1.6388752460479736,
				1.1618479490280151,
				0.33967915177345276
			],
			"min":[
				-1.5864336490631104,
				-0.04874033108353615,
				-0.3430456519126892
			],
			"type":"VEC3"
		},
		{
			"bufferView":14,
			"componentType":5126,
			"count":9199,
			"type":"VEC3"
		},
		{
			"bufferView":15,
			"componentType":5126,
			"count":9199,
			"type":"VEC2"
		},
		{
			"bufferView":16,
			"componentType":5126,
			"count":9199,
			"max":[
				1.6388752460479736,
				1.1618479490280151,
				0.33967915177345276
			],
			"min":[
				-1.5864336490631104,
				-0.04874033108353615,
				-0.3430456519126892
			],
			"type":"VEC3"
		},
		{
			"bufferView":17,
			"componentType":5126,
			"count":9199,
			"type":"VEC3"
		},
		{
			"bufferView":18,
			"componentType":5126,
			"count":9199,
			"type":"VEC2"
		},
		{
			"bufferView":19,
			"componentType":5126,
			"count":9199,
			"max":[
				1.6388752460479736,
				1.1618479490280151,
				0.33967915177345276
			],
			"min":[
				-1.5864336490631104,
				-0.04874033108353615,
				-0.3430456519126892
			],
			"type":"VEC3"
		},
		{
			"bufferView":20,
			"componentType":5126,
			"count":9199,
			"type":"VEC3"
		},
		{
			"bufferView":21,
			"componentType":5126,
			"count":9199,
			"type":"VEC2"
		},
		{
			"bufferView":22,
			"componentType":5126,
			"count":9199,
			"max":[
				1.6388752460479736,
				1.1618479490280151,
				0.33967915177345276
			],
			"min":[
				-1.5864336490631104,
				-0.04874033108353615,
				-0.3430456519126892
			],
			"type":"VEC3"
		},
		{
			"bufferView":23,
			"componentType":5126,
			"count":9199,
			"type":"VEC3"
		},
		{
			"bufferView":24,
			"componentType":5126,
			"count":9199,
			"type":"VEC2"
		},
		{
			"bufferView":25,
			"componentType":5126,
			"count":9199,
			"max":[
				1.6388752460479736,
				1.1618479490280151,
				0.33967915177345276
			],
			"min":[
				-1.5864336490631104,
				-0.04874033108353615,
				-0.3430456519126892
			],
			"type":"VEC3"
		},
		{
			"bufferView":26,
			"componentType":5126,
			"count":9199,
			"type":"VEC3"
		},
		{
			"bufferView":27,
			"componentType":5126,
			"count":9199,
			"type":"VEC2"
		},
		{
			"bufferView":28,
			"componentType":5126,
			"count":9199,
			"max":[
				1.6388752460479736,
				1.1618479490280151,
				0.33967915177345276
			],
			"min":[
				-1.5864336490631104,
				-0.04874033108353615,
				-0.3430456519126892
			],
			"type":"VEC3"
		},
		{
			"bufferView":29,
			"componentType":5126,
			"count":9199,
			"type":"VEC3"
		},
		{
			"bufferView":30,
			"componentType":5126,
			"count":9199,
			"type":"VEC2"
		},
		{
			"bufferView":31,
			"componentType":5126,
			"count":9199,
			"max":[
				1.6388752460479736,
				1.1618479490280151,
				0.33967915177345276
			],
			"min":[
				-1.5864336490631104,
				-0.04874033108353615,
				-0.3430456519126892
			],
			"type":"VEC3"
		},
		{
			"bufferView":32,
			"componentType":5126,
			"count":9199,
			"type":"VEC3"
		},
		{
			"bufferView":33,
			"componentType":5126,
			"count":9199,
			"type":"VEC2"
		},
		{
			"bufferView":34,
			"componentType":5126,
			"count":9199,
			"max":[
				1.6388752460479736,
				1.1618479490280151,
				0.33967915177345276
			],
			"min":[
				-1.5864336490631104,
				-0.04874033108353615,
				-0.3430456519126892
			],
			"type":"VEC3"
		},
		{
			"bufferView":35,
			"componentType":5126,
			"count":9199,
			"type":"VEC3"
		},
		{
			"bufferView":36,
			"componentType":5126,
			"count":9199,
			"type":"VEC2"
		},
		{
			"bufferView":37,
			"componentType":5126,
			"count":9199,
			"max":[
				1.6388752460479736,
				1.1618479490280151,
				0.33967915177345276
			],
			"min":[
				-1.5864336490631104,
				-0.04874033108353615,
				-0.3430456519126892
			],
			"type":"VEC3"
		},
		{
			"bufferView":38,
			"componentType":5126,
			"count":9199,
			"type":"VEC3"
		},
		{
			"bufferView":39,
			"componentType":5126,
			"count":9199,
			"type":"VEC2"
		},
		{
			"bufferView":40,
			"componentType":5126,
			"count":9199,
			"max":[
				1.6388752460479736,
				1.1618479490280151,
				0.33967915177345276
			],
			"min":[
				-1.5864336490631104,
				-0.04874033108353615,
				-0.3430456519126892
			],
			"type":"VEC3"
		},
		{
			"bufferView":41,
			"componentType":5126,
			"count":9199,
			"type":"VEC3"
		},
		{
			"bufferView":42,
			"componentType":5126,
			"count":9199,
			"type":"VEC2"
		},
		{
			"bufferView":43,
			"componentType":5126,
			"count":9199,
			"max":[
				1.6388752460479736,
				1.1618479490280151,
				0.33967915177345276
			],
			"min":[
				-1.5864336490631104,
				-0.04874033108353615,
				-0.3430456519126892
			],
			"type":"VEC3"
		},
		{
			"bufferView":44,
			"componentType":5126,
			"count":9199,
			"type":"VEC3"
		},
		{
			"bufferView":45,
			"componentType":5126,
			"count":9199,
			"type":"VEC2"
		},
		{
			"bufferView":46,
			"componentType":5126,
			"count":9199,
			"max":[
				1.6388752460479736,
				1.1618479490280151,
				0.33967915177345276
			],
			"min":[
				-1.5864336490631104,
				-0.04874033108353615,
				-0.3430456519126892
			],
			"type":"VEC3"
		},
		{
			"bufferView":47,
			"componentType":5126,
			"count":9199,
			"type":"VEC3"
		},
		{
			"bufferView":48,
			"componentType":5126,
			"count":9199,
			"type":"VEC2"
		},
		{
			"bufferView":49,
			"componentType":5126,
			"count":9199,
			"max":[
				1.6388752460479736,
				1.1618479490280151,
				0.33967915177345276
			],
			"min":[
				-1.5864336490631104,
				-0.04874033108353615,
				-0.3430456519126892
			],
			"type":"VEC3"
		},
		{
			"bufferView":50,
			"componentType":5126,
			"count":9199,
			"type":"VEC3"
		},
		{
			"bufferView":51,
			"componentType":5126,
			"count":9199,
			"type":"VEC2"
		},
		{
			"bufferView":52,
			"componentType":5126,
			"count":9199,
			"max":[
				1.6388752460479736,
				1.1618479490280151,
				0.33967915177345276
			],
			"min":[
				-1.5864336490631104,
				-0.04874033108353615,
				-0.3430456519126892
			],
			"type":"VEC3"
		},
		{
			"bufferView":53,
			"componentType":5126,
			"count":9199,
			"type":"VEC3"
		},
		{
			"bufferView":54,
			"componentType":5126,
			"count":9199,
			"type":"VEC2"
		},
		{
			"bufferView":55,
			"componentType":5126,
			"count":9199,
			"max":[
				1.6388752460479736,
				1.1618479490280151,
				0.33967915177345276
			],
			"min":[
				-1.5864336490631104,
				-0.04874033108353615,
				-0.3430456519126892
			],
			"type":"VEC3"
		},
		{
			"bufferView":56,
			"componentType":5126,
			"count":9199,
			"type":"VEC3"
		},
		{
			"bufferView":57,
			"componentType":5126,
			"count":9199,
			"type":"VEC2"
		},
		{
			"bufferView":58,
			"componentType":5126,
			"count":9199,
			"max":[
				1.6388752460479736,
				1.1618479490280151,
				0.33967915177345276
			],
			"min":[
				-1.5864336490631104,
				-0.04874033108353615,
				-0.3430456519126892
			],
			"type":"VEC3"
		},
		{
			"bufferView":59,
			"componentType":5126,
			"count":9199,
			"type":"VEC3"
		},
		{
			"bufferView":60,
			"componentType":5126,
			"count":9199,
			"type":"VEC2"
		}
	],
	"bufferViews":[
		{
			"buffer":0,
			"byteLength":110388,
			"byteOffset":0,
			"target":34962
		},
		{
			"buffer":0,
			"byteLength":110388,
			"byteOffset":110388,
			"target":34962
		},
		{
			"buffer":0,
			"byteLength":73592,
			"byteOffset":220776,
			"target":34962
		},
		{
			"buffer":0,
			"byteLength":39288,
			"byteOffset":294368,
			"target":34963
		},
		{
			"buffer":0,
			"byteLength":110388,
			"byteOffset":333656,
			"target":34962
		},
		{
			"buffer":0,
			"byteLength":110388,
			"byteOffset":444044,
			"target":34962
		},
		{
			"buffer":0,
			"byteLength":73592,
			"byteOffset":554432,
			"target":34962
		},
		{
			"buffer":0,
			"byteLength":110388,
			"byteOffset":628024,
			"target":34962
		},
		{
			"buffer":0,
			"byteLength":110388,
			"byteOffset":738412,
			"target":34962
		},
		{
			"buffer":0,
			"byteLength":73592,
			"byteOffset":848800,
			"target":34962
		},
		{
			"buffer":0,
			"byteLength":110388,
			"byteOffset":922392,
			"target":34962
		},
		{
			"buffer":0,
			"byteLength":110388,
			"byteOffset":1032780,
			"target":34962
		},
		{
			"buffer":0,
			"byteLength":73592,
			"byteOffset":1143168,
			"target":34962
		},
		{
			"buffer":0,
			"byteLength":110388,
			"byteOffset":1216760,
			"target":34962
		},
		{
			"buffer":0,
			"byteLength":110388,
			"byteOffset":1327148,
			"target":34962
		},
		{
			"buffer":0,
			"byteLength":73592,
			"byteOffset":1437536,
			"target":34962
		},
		{
			"buffer":0,
			"byteLength":110388,
			"byteOffset":1511128,
			"target":34962
		},
		{
			"buffer":0,
			"byteLength":110388,
			"byteOffset":1621516,
			"target":34962
		},
		{
			"buffer":0,
			"byteLength":73592,
			"byteOffset":1731904,
			"target":34962
		},
		{
			"buffer":0,
			"byteLength":110388,
			"byteOffset":1805496,
			"target":34962
		},
		{
			"buffer":0,
			"byteLength":110388,
			"byteOffset":1915884,
			"target":34962
		},
		{
			"buffer":0,
			"byteLength":73592,
			"byteOffset":2026272,
			"target":34962
		},
		{
			"buffer":0,
			"byteLength":110388,
			"byteOffset":2099864,
			"target":34962
		},
		{
			"buffer":0,
			"byteLength":110388,
			"byteOffset":2210252,
			"target":34962
		},
		{
			"buffer":0,
			"byteLength":73592,
			"byteOffset":2320640,
			"target":34962
		},
		{
			"buffer":0,
			"byteLength":110388,
			"byteOffset":2394232,
			"target":34962
		},
		{
			"buffer":0,
			"byteLength":110388,
			"byteOffset":2504620,
			"target":34962
		},
		{
			"buffer":0,
			"byteLength":73592,
			"byteOffset":2615008,
			"target":34962
		},
		{
			"buffer":0,
			"byteLength":110388,
			"byteOffset":2688600,
			"target":34962
		},
		{
			"buffer":0,
			"byteLength":110388,
			"byteOffset":2798988,
			"target":34962
		},
		{
			"buffer":0,
			"byteLength":73592,
			"byteOffset":2909376,
			"target":34962
		},
		{
			"buffer":0,
			"byteLength":110388,
			"byteOffset":2982968,
			"target":34962
		},
		{
			"buffer":0,
			"byteLength":110388,
			"byteOffset":3093356,
			"target":34962
		},
		{
			"buffer":0,
			"byteLength":73592,
			"byteOffset":3203744,
			"target":34962
		},
		{
			"buffer":0,
			"byteLength":110388,
			"byteOffset":3277336,
			"target":34962
		},
		{
			"buffer":0,
			"byteLength":110388,
			"byteOffset":3387724,
			"target":34962
		},
		{
			"buffer":0,
			"byteLength":73592,
			"byteOffset":3498112,
			"target":34962
		},
		{
			"buffer":0,
			"byteLength":110388,
			"byteOffset":3571704,
			"target":34962
		},
		{
			"buffer":0,
			"byteLength":110388,
			"byteOffset":3682092,
			"target":34962
		},
		{
			"buffer":0,
			"byteLength":73592,
			"byteOffset":3792480,
			"target":34962
		},
		{
			"buffer":0,
			"byteLength":110388,
			"byteOffset":3866072,
			"target":34962
		},
		{
			"buffer":0,
			"byteLength":110388,
			"byteOffset":3976460,
			"target":34962
		},
		{
			"buffer":0,
			"byteLength":73592,
			"byteOffset":4086848,
			"target":34962
		},
		{
			"buffer":0,
			"byteLength":110388,
			"byteOffset":4160440,
			"target":34962
		},
		{
			"buffer":0,
			"byteLength":110388,
			"byteOffset":4270828,
			"target":34962
		},
		{
			"buffer":0,
			"byteLength":73592,
			"byteOffset":4381216,
			"target":34962
		},
		{
			"buffer":0,
			"byteLength":110388,
			"byteOffset":4454808,
			"target":34962
		},
		{
			"buffer":0,
			"byteLength":110388,
			"byteOffset":4565196,
			"target":34962
		},
		{
			"buffer":0,
			"byteLength":73592,
			"byteOffset":4675584,
			"target":34962
		},
		{
			"buffer":0,
			"byteLength":110388,
			"byteOffset":4749176,
			"target":34962
		},
		{
			"buffer":0,
			"byteLength":110388,
			"byteOffset":4859564,
			"target":34962
		},
		{
			"buffer":0,
			"byteLength":73592,
			"byteOffset":4969952,
			"target":34962
		},
		{
			"buffer":0,
			"byteLength":110388,
			"byteOffset":5043544,
			"target":34962
		},
		{
			"buffer":0,
			"byteLength":110388,
			"byteOffset":5153932,
			"target":34962
		},
		{
			"buffer":0,
			"byteLength":73592,
			"byteOffset":5264320,
			"target":34962
		},
		{
			"buffer":0,
			"byteLength":110388,
			"byteOffset":5337912,
			"target":34962
		},
		{
			"buffer":0,
			"byteLength":110388,
			"byteOffset":5448300,
			"target":34962
		},
		{
			"buffer":0,
			"byteLength":73592,
			"byteOffset":5558688,
			"target":34962
		},
		{
			"buffer":0,
			"byteLength":110388,
			"byteOffset":5632280,
			"target":34962
		},
		{
			"buffer":0,
			"byteLength":110388,
			"byteOffset":5742668,
			"target":34962
		},
		{
			"buffer":0,
			"byteLength":73592,
			"byteOffset":5853056,
			"target":34962
		}
	],
	"samplers":[
		{
			"magFilter":9729,
			"minFilter":9987
		}
	],
	"buffers":[
		{
			"byteLength":5926648,
			"uri":"Hecken.bin"
		}
	]
}
