{
	"asset":{
		"generator":"Khronos glTF Blender I/O v5.1.18",
		"version":"2.0"
	},
	"extensionsUsed":[
		"KHR_materials_specular"
	],
	"scene":0,
	"scenes":[
		{
			"name":"Scene",
			"nodes":[
				0,
				1,
				2,
				3,
				4
			]
		}
	],
	"nodes":[
		{
			"mesh":0,
			"name":"OG.002",
			"scale":[
				1,
				0.9180327653884888,
				1
			],
			"translation":[
				15.885087013244629,
				2.799999952316284,
				-4.998964786529541
			]
		},
		{
			"mesh":1,
			"name":"Boden.Orig.001",
			"translation":[
				16.250099182128906,
				2.799999952316284,
				-5.364019870758057
			]
		},
		{
			"mesh":2,
			"name":"Boden.Parkett.002",
			"scale":[
				1,
				1.25,
				1
			],
			"translation":[
				16.250099182128906,
				3.1599998474121094,
				-5.364019870758057
			]
		},
		{
			"mesh":3,
			"name":"toilet.006",
			"rotation":[
				0,
				-0.7071066498756409,
				-0.70710688829422,
				5.3385068810030134e-08
			],
			"scale":[
				22,
				22,
				22
			],
			"translation":[
				25.402021408081055,
				3.1599998474121094,
				-16.581708908081055
			]
		},
		{
			"mesh":4,
			"name":"Metall-Tr\u00e4ger-Schicht.001",
			"scale":[
				1,
				0.6666666865348816,
				1
			],
			"translation":[
				16.250099182128906,
				2.819000005722046,
				-5.364019870758057
			]
		}
	],
	"materials":[
		{
			"doubleSided":true,
			"name":"AussenPutz",
			"pbrMetallicRoughness":{
				"baseColorFactor":[
					0.7766516208648682,
					0.7766516208648682,
					0.7766516208648682,
					1
				],
				"metallicFactor":0
			}
		},
		{
			"doubleSided":true,
			"name":"Fichte",
			"pbrMetallicRoughness":{
				"baseColorTexture":{
					"index":0
				},
				"metallicFactor":0,
				"roughnessFactor":0.5
			}
		},
		{
			"doubleSided":true,
			"name":"Parkett",
			"pbrMetallicRoughness":{
				"baseColorTexture":{
					"index":1
				},
				"metallicFactor":0
			}
		},
		{
			"doubleSided":true,
			"extensions":{
				"KHR_materials_specular":{
					"specularFactor":0.4254545569419861
				}
			},
			"name":"metal",
			"pbrMetallicRoughness":{
				"baseColorFactor":[
					0.800000011920929,
					0.800000011920929,
					0.800000011920929,
					1
				],
				"roughnessFactor":0
			}
		},
		{
			"doubleSided":true,
			"name":"white_plastic",
			"pbrMetallicRoughness":{
				"baseColorFactor":[
					0.800000011920929,
					0.800000011920929,
					0.800000011920929,
					1
				],
				"metallicFactor":0,
				"roughnessFactor":0.5
			}
		},
		{
			"doubleSided":true,
			"name":"AussenMetall",
			"pbrMetallicRoughness":{
				"baseColorFactor":[
					0.03954596072435379,
					0.04817187413573265,
					0.05448030307888985,
					1
				],
				"roughnessFactor":0.654285728931427
			}
		}
	],
	"meshes":[
		{
			"name":"Curve.231",
			"primitives":[
				{
					"attributes":{
						"POSITION":0,
						"NORMAL":1,
						"TEXCOORD_0":2
					},
					"indices":3,
					"material":0
				}
			]
		},
		{
			"name":"B\u00e9zierCurve.003",
			"primitives":[
				{
					"attributes":{
						"POSITION":4,
						"NORMAL":5,
						"TEXCOORD_0":6
					},
					"indices":7,
					"material":1
				}
			]
		},
		{
			"name":"B\u00e9zierCurve.012",
			"primitives":[
				{
					"attributes":{
						"POSITION":8,
						"NORMAL":9,
						"TEXCOORD_0":10
					},
					"indices":11,
					"material":2
				}
			]
		},
		{
			"name":"Cube.480",
			"primitives":[
				{
					"attributes":{
						"POSITION":12,
						"NORMAL":13,
						"TEXCOORD_0":14
					},
					"indices":15
				},
				{
					"attributes":{
						"POSITION":16,
						"NORMAL":17,
						"TEXCOORD_0":18
					},
					"indices":19,
					"material":3
				},
				{
					"attributes":{
						"POSITION":20,
						"NORMAL":21,
						"TEXCOORD_0":22
					},
					"indices":23,
					"material":4
				},
				{
					"attributes":{
						"POSITION":24,
						"NORMAL":25,
						"TEXCOORD_0":26
					},
					"indices":27,
					"material":0
				}
			]
		},
		{
			"name":"B\u00e9zierCurve.013",
			"primitives":[
				{
					"attributes":{
						"POSITION":28,
						"NORMAL":29,
						"TEXCOORD_0":30
					},
					"indices":31,
					"material":5
				}
			]
		}
	],
	"textures":[
		{
			"sampler":0,
			"source":0
		},
		{
			"sampler":1,
			"source":1
		}
	],
	"images":[
		{
			"mimeType":"image/jpeg",
			"name":"spruce-knotty_random_match",
			"uri":"spruce-knotty_random_match.jpg"
		},
		{
			"mimeType":"image/jpeg",
			"name":"eicheindustrie.jpg",
			"uri":"eicheindustrie.jpg.jpg"
		}
	],
	"accessors":[
		{
			"bufferView":0,
			"componentType":5126,
			"count":644,
			"max":[
				9.915724754333496,
				3.049999952316284,
				9.5367431640625e-07
			],
			"min":[
				-9.5367431640625e-07,
				0,
				-11.948149681091309
			],
			"type":"VEC3"
		},
		{
			"bufferView":1,
			"componentType":5126,
			"count":644,
			"type":"VEC3"
		},
		{
			"bufferView":2,
			"componentType":5126,
			"count":644,
			"type":"VEC2"
		},
		{
			"bufferView":3,
			"componentType":5123,
			"count":1728,
			"type":"SCALAR"
		},
		{
			"bufferView":4,
			"componentType":5126,
			"count":68,
			"max":[
				9.18558120727539,
				0.35999998450279236,
				4.76837158203125e-07
			],
			"min":[
				0,
				0,
				-11.267688751220703
			],
			"type":"VEC3"
		},
		{
			"bufferView":5,
			"componentType":5126,
			"count":68,
			"type":"VEC3"
		},
		{
			"bufferView":6,
			"componentType":5126,
			"count":68,
			"type":"VEC2"
		},
		{
			"bufferView":7,
			"componentType":5123,
			"count":132,
			"type":"SCALAR"
		},
		{
			"bufferView":8,
			"componentType":5126,
			"count":60,
			"max":[
				9.18558120727539,
				0.003999999724328518,
				4.76837158203125e-07
			],
			"min":[
				0,
				0,
				-11.267688751220703
			],
			"type":"VEC3"
		},
		{
			"bufferView":9,
			"componentType":5126,
			"count":60,
			"type":"VEC3"
		},
		{
			"bufferView":10,
			"componentType":5126,
			"count":60,
			"type":"VEC2"
		},
		{
			"bufferView":11,
			"componentType":5123,
			"count":108,
			"type":"SCALAR"
		},
		{
			"bufferView":12,
			"componentType":5126,
			"count":4753,
			"max":[
				0.03421685844659805,
				0.03311349079012871,
				0.05629074200987816
			],
			"min":[
				-0.00042046140879392624,
				0.01311348844319582,
				0.003122691996395588
			],
			"type":"VEC3"
		},
		{
			"bufferView":13,
			"componentType":5126,
			"count":4753,
			"type":"VEC3"
		},
		{
			"bufferView":14,
			"componentType":5126,
			"count":4753,
			"type":"VEC2"
		},
		{
			"bufferView":15,
			"componentType":5123,
			"count":26922,
			"type":"SCALAR"
		},
		{
			"bufferView":16,
			"componentType":5126,
			"count":1731,
			"max":[
				0.007686542347073555,
				0.028855619952082634,
				0.02459101192653179
			],
			"min":[
				0.005701965652406216,
				0.01737136021256447,
				0.022214418277144432
			],
			"type":"VEC3"
		},
		{
			"bufferView":17,
			"componentType":5126,
			"count":1731,
			"type":"VEC3"
		},
		{
			"bufferView":18,
			"componentType":5126,
			"count":1731,
			"type":"VEC2"
		},
		{
			"bufferView":19,
			"componentType":5123,
			"count":9984,
			"type":"SCALAR"
		},
		{
			"bufferView":20,
			"componentType":5126,
			"count":4347,
			"max":[
				0.034220270812511444,
				0.03311349079012871,
				0.0251445509493351
			],
			"min":[
				0.00764373829588294,
				0.013113487511873245,
				0.022998236119747162
			],
			"type":"VEC3"
		},
		{
			"bufferView":21,
			"componentType":5126,
			"count":4347,
			"type":"VEC3"
		},
		{
			"bufferView":22,
			"componentType":5126,
			"count":4347,
			"type":"VEC2"
		},
		{
			"bufferView":23,
			"componentType":5123,
			"count":24960,
			"type":"SCALAR"
		},
		{
			"bufferView":24,
			"componentType":5126,
			"count":24,
			"max":[
				0.005452163051813841,
				0.04551564157009125,
				0.05772728472948074
			],
			"min":[
				-9.85054635540094e-24,
				4.328727243319008e-08,
				-1.862645149230957e-09
			],
			"type":"VEC3"
		},
		{
			"bufferView":25,
			"componentType":5126,
			"count":24,
			"type":"VEC3"
		},
		{
			"bufferView":26,
			"componentType":5126,
			"count":24,
			"type":"VEC2"
		},
		{
			"bufferView":27,
			"componentType":5123,
			"count":36,
			"type":"SCALAR"
		},
		{
			"bufferView":28,
			"componentType":5126,
			"count":50,
			"max":[
				9.185583114624023,
				0.29999998211860657,
				4.76837158203125e-07
			],
			"min":[
				0,
				0,
				-11.267688751220703
			],
			"type":"VEC3"
		},
		{
			"bufferView":29,
			"componentType":5126,
			"count":50,
			"type":"VEC3"
		},
		{
			"bufferView":30,
			"componentType":5126,
			"count":50,
			"type":"VEC2"
		},
		{
			"bufferView":31,
			"componentType":5123,
			"count":108,
			"type":"SCALAR"
		}
	],
	"bufferViews":[
		{
			"buffer":0,
			"byteLength":7728,
			"byteOffset":0,
			"target":34962
		},
		{
			"buffer":0,
			"byteLength":7728,
			"byteOffset":7728,
			"target":34962
		},
		{
			"buffer":0,
			"byteLength":5152,
			"byteOffset":15456,
			"target":34962
		},
		{
			"buffer":0,
			"byteLength":3456,
			"byteOffset":20608,
			"target":34963
		},
		{
			"buffer":0,
			"byteLength":816,
			"byteOffset":24064,
			"target":34962
		},
		{
			"buffer":0,
			"byteLength":816,
			"byteOffset":24880,
			"target":34962
		},
		{
			"buffer":0,
			"byteLength":544,
			"byteOffset":25696,
			"target":34962
		},
		{
			"buffer":0,
			"byteLength":264,
			"byteOffset":26240,
			"target":34963
		},
		{
			"buffer":0,
			"byteLength":720,
			"byteOffset":26504,
			"target":34962
		},
		{
			"buffer":0,
			"byteLength":720,
			"byteOffset":27224,
			"target":34962
		},
		{
			"buffer":0,
			"byteLength":480,
			"byteOffset":27944,
			"target":34962
		},
		{
			"buffer":0,
			"byteLength":216,
			"byteOffset":28424,
			"target":34963
		},
		{
			"buffer":0,
			"byteLength":57036,
			"byteOffset":28640,
			"target":34962
		},
		{
			"buffer":0,
			"byteLength":57036,
			"byteOffset":85676,
			"target":34962
		},
		{
			"buffer":0,
			"byteLength":38024,
			"byteOffset":142712,
			"target":34962
		},
		{
			"buffer":0,
			"byteLength":53844,
			"byteOffset":180736,
			"target":34963
		},
		{
			"buffer":0,
			"byteLength":20772,
			"byteOffset":234580,
			"target":34962
		},
		{
			"buffer":0,
			"byteLength":20772,
			"byteOffset":255352,
			"target":34962
		},
		{
			"buffer":0,
			"byteLength":13848,
			"byteOffset":276124,
			"target":34962
		},
		{
			"buffer":0,
			"byteLength":19968,
			"byteOffset":289972,
			"target":34963
		},
		{
			"buffer":0,
			"byteLength":52164,
			"byteOffset":309940,
			"target":34962
		},
		{
			"buffer":0,
			"byteLength":52164,
			"byteOffset":362104,
			"target":34962
		},
		{
			"buffer":0,
			"byteLength":34776,
			"byteOffset":414268,
			"target":34962
		},
		{
			"buffer":0,
			"byteLength":49920,
			"byteOffset":449044,
			"target":34963
		},
		{
			"buffer":0,
			"byteLength":288,
			"byteOffset":498964,
			"target":34962
		},
		{
			"buffer":0,
			"byteLength":288,
			"byteOffset":499252,
			"target":34962
		},
		{
			"buffer":0,
			"byteLength":192,
			"byteOffset":499540,
			"target":34962
		},
		{
			"buffer":0,
			"byteLength":72,
			"byteOffset":499732,
			"target":34963
		},
		{
			"buffer":0,
			"byteLength":600,
			"byteOffset":499804,
			"target":34962
		},
		{
			"buffer":0,
			"byteLength":600,
			"byteOffset":500404,
			"target":34962
		},
		{
			"buffer":0,
			"byteLength":400,
			"byteOffset":501004,
			"target":34962
		},
		{
			"buffer":0,
			"byteLength":216,
			"byteOffset":501404,
			"target":34963
		}
	],
	"samplers":[
		{
			"magFilter":9729,
			"minFilter":9987,
			"wrapS":33648,
			"wrapT":33648
		},
		{
			"magFilter":9729,
			"minFilter":9987
		}
	],
	"buffers":[
		{
			"byteLength":501620,
			"uri":"OG.bin"
		}
	]
}
