{
	"asset":{
		"generator":"Khronos glTF Blender I/O v5.1.18",
		"version":"2.0"
	},
	"scene":0,
	"scenes":[
		{
			"name":"Scene",
			"nodes":[
				0,
				1,
				2,
				3,
				4,
				5,
				6,
				7,
				8,
				9,
				10,
				11,
				12,
				13,
				14,
				15,
				16,
				17,
				18,
				19,
				20,
				21,
				22
			]
		}
	],
	"nodes":[
		{
			"mesh":0,
			"name":"Curve.067",
			"scale":[
				124.99998474121094,
				155.18577575683594,
				124.99998474121094
			],
			"translation":[
				18.117557525634766,
				3.1600000858306885,
				-11.989087104797363
			]
		},
		{
			"mesh":1,
			"name":"_BadewanneCurve.001",
			"scale":[
				108.3337631225586,
				124.99998474121094,
				112.30919647216797
			],
			"translation":[
				24.600297927856445,
				3.1599996089935303,
				-13.510988235473633
			]
		},
		{
			"mesh":2,
			"name":"_.008",
			"scale":[
				1,
				0.9074074625968933,
				1
			],
			"translation":[
				21.87042999267578,
				5.599999904632568,
				-15.631420135498047
			]
		},
		{
			"mesh":3,
			"name":"Badspiegel.002",
			"rotation":[
				0,
				-0.7071068286895752,
				0,
				0.7071068286895752
			],
			"scale":[
				1.100000023841858,
				1.611111044883728,
				0.040016695857048035
			],
			"translation":[
				22.045413970947266,
				4,
				-13.434036254882812
			]
		},
		{
			"mesh":4,
			"name":"Waschtisch.001",
			"rotation":[
				0,
				-0.7071068286895752,
				0,
				0.7071068286895752
			],
			"scale":[
				1.0972222089767456,
				1,
				1.2005008459091187
			],
			"translation":[
				22.0454158782959,
				3.1599998474121094,
				-13.434036254882812
			]
		},
		{
			"mesh":5,
			"name":"_.009",
			"scale":[
				458.2556457519531,
				0.04545453563332558,
				2302.072998046875
			],
			"translation":[
				25.594818115234375,
				3.1050000190734863,
				-16.631412506103516
			]
		},
		{
			"mesh":6,
			"name":"_.010",
			"rotation":[
				0,
				0.7071068286895752,
				0,
				0.7071068286895752
			],
			"scale":[
				129.1077423095703,
				0.45454537868499756,
				1000.32373046875
			],
			"translation":[
				22.04561996459961,
				3.1599998474121094,
				-16.5814208984375
			]
		},
		{
			"mesh":7,
			"name":"Curve.071",
			"rotation":[
				0,
				-0.7071068286895752,
				0,
				0.7071068286895752
			],
			"scale":[
				28.888999938964844,
				312.49993896484375,
				142.9033966064453
			],
			"translation":[
				25.435680389404297,
				4.460000038146973,
				-15.581713676452637
			]
		},
		{
			"mesh":8,
			"name":"Curve.072",
			"rotation":[
				0,
				-0.7071068286895752,
				0,
				0.7071068286895752
			],
			"scale":[
				2.8889002799987793,
				297.9165954589844,
				142.90338134765625
			],
			"translation":[
				25.435680389404297,
				4.400000095367432,
				-16.6317138671875
			]
		},
		{
			"mesh":9,
			"name":"Curve.073",
			"rotation":[
				0,
				-0.7071068286895752,
				0,
				0.7071068286895752
			],
			"scale":[
				0.9799999594688416,
				0.9448277354240417,
				1
			],
			"translation":[
				25.23604393005371,
				4.460000514984131,
				-15.57957649230957
			]
		},
		{
			"mesh":10,
			"name":"Curve.074",
			"rotation":[
				0,
				-0.7071068286895752,
				0,
				0.7071068286895752
			],
			"scale":[
				0.9799999594688416,
				0.9448277354240417,
				1
			],
			"translation":[
				25.23567771911621,
				4.4599995613098145,
				-16.561716079711914
			]
		},
		{
			"mesh":11,
			"name":"Curve.075",
			"rotation":[
				0,
				-0.7071068286895752,
				0,
				0.7071068286895752
			],
			"scale":[
				173.33399963378906,
				270.833251953125,
				142.90338134765625
			],
			"translation":[
				25.435680389404297,
				3.1599998474121094,
				-16.581714630126953
			]
		},
		{
			"mesh":12,
			"name":"Curve.076",
			"scale":[
				4.33335018157959,
				124.99996185302734,
				1393.30810546875
			],
			"translation":[
				24.570650100708008,
				3.1599996089935303,
				-15.381421089172363
			]
		},
		{
			"mesh":13,
			"name":"Curve.077",
			"scale":[
				121.33380889892578,
				124.99996185302734,
				50.01618957519531
			],
			"translation":[
				24.600650787353516,
				3.1599996089935303,
				-15.381421089172363
			]
		},
		{
			"mesh":14,
			"name":"Curve.078",
			"scale":[
				13.00005054473877,
				124.99996185302734,
				1286.1304931640625
			],
			"translation":[
				25.350296020507812,
				3.1599996089935303,
				-15.310988426208496
			]
		},
		{
			"mesh":15,
			"name":"Curve.079",
			"scale":[
				14.444499969482422,
				20.83332633972168,
				71.45169830322266
			],
			"translation":[
				24.600650787353516,
				3.1599998474121094,
				-13.510988235473633
			]
		},
		{
			"mesh":16,
			"name":"Curve.080",
			"scale":[
				124.99998474121094,
				833.3331298828125,
				107.17754364013672
			],
			"translation":[
				24.570650100708008,
				3.1600005626678467,
				-15.381421089172363
			]
		},
		{
			"mesh":17,
			"name":"Badspiegel.005",
			"rotation":[
				0,
				0,
				-0.7071068286895752,
				0.7071068286895752
			],
			"scale":[
				0.35999998450279236,
				0.04999999701976776,
				0.35999998450279236
			],
			"translation":[
				22.090534210205078,
				4.6320881843566895,
				-14.908780097961426
			]
		},
		{
			"mesh":18,
			"name":"_.011",
			"rotation":[
				0,
				0.7071068286895752,
				0,
				0.7071068286895752
			],
			"scale":[
				129.1077423095703,
				22.72726821899414,
				142.90338134765625
			],
			"translation":[
				22.04561996459961,
				3.1599998474121094,
				-16.5814208984375
			]
		},
		{
			"mesh":19,
			"name":"_.012",
			"rotation":[
				0,
				0.7071068286895752,
				0,
				0.7071068286895752
			],
			"scale":[
				413.1447448730469,
				0.31818175315856934,
				2429.357666015625
			],
			"translation":[
				22.04561996459961,
				3.1599998474121094,
				-16.5814208984375
			]
		},
		{
			"mesh":20,
			"name":"Curve.081",
			"rotation":[
				0,
				0.7071067094802856,
				0,
				0.7071068286895752
			],
			"scale":[
				17.333398818969727,
				447.9165344238281,
				57.16135787963867
			],
			"translation":[
				24.570297241210938,
				3.1600000858306885,
				-13.284034729003906
			]
		},
		{
			"mesh":21,
			"name":"Curve.082",
			"scale":[
				121.33380889892578,
				124.99996185302734,
				57.16135787963867
			],
			"translation":[
				24.600296020507812,
				3.7599997520446777,
				-13.510988235473633
			]
		},
		{
			"mesh":22,
			"name":"_Waschtisch.002",
			"rotation":[
				0,
				-0.7071068286895752,
				0,
				0.7071068286895752
			],
			"scale":[
				0.9753086566925049,
				1,
				0.9400182962417603
			],
			"translation":[
				22.398117065429688,
				4.131543159484863,
				-14.88712215423584
			]
		}
	],
	"materials":[
		{
			"doubleSided":true,
			"name":"Spiegel",
			"pbrMetallicRoughness":{
				"baseColorFactor":[
					0.800000011920929,
					0.800000011920929,
					0.800000011920929,
					1
				],
				"roughnessFactor":0
			}
		},
		{
			"doubleSided":true,
			"name":"AussenPutz",
			"pbrMetallicRoughness":{
				"baseColorFactor":[
					0.7766516208648682,
					0.7766516208648682,
					0.7766516208648682,
					1
				],
				"metallicFactor":0
			}
		},
		{
			"doubleSided":true,
			"name":"white_plastic.001",
			"pbrMetallicRoughness":{
				"baseColorFactor":[
					0.800000011920929,
					0.800000011920929,
					0.800000011920929,
					1
				],
				"metallicFactor":0,
				"roughnessFactor":0.5
			}
		}
	],
	"meshes":[
		{
			"name":"Curve.249",
			"primitives":[
				{
					"attributes":{
						"POSITION":0,
						"NORMAL":1,
						"TEXCOORD_0":2
					},
					"indices":3,
					"material":0
				}
			]
		},
		{
			"name":"Curve.250",
			"primitives":[
				{
					"attributes":{
						"POSITION":4,
						"NORMAL":5,
						"TEXCOORD_0":6
					},
					"indices":7
				}
			]
		},
		{
			"name":"Curve.252",
			"primitives":[
				{
					"attributes":{
						"POSITION":8,
						"NORMAL":9,
						"TEXCOORD_0":10
					},
					"indices":11,
					"material":1
				}
			]
		},
		{
			"name":"Curve.253",
			"primitives":[
				{
					"attributes":{
						"POSITION":12,
						"NORMAL":13,
						"TEXCOORD_0":14
					},
					"indices":15,
					"material":0
				}
			]
		},
		{
			"name":"Curve.254",
			"primitives":[
				{
					"attributes":{
						"POSITION":16,
						"NORMAL":17,
						"TEXCOORD_0":18
					},
					"indices":19
				}
			]
		},
		{
			"name":"Curve.257",
			"primitives":[
				{
					"attributes":{
						"POSITION":20,
						"NORMAL":21,
						"TEXCOORD_0":22
					},
					"indices":23,
					"material":1
				}
			]
		},
		{
			"name":"Curve.258",
			"primitives":[
				{
					"attributes":{
						"POSITION":24,
						"NORMAL":25,
						"TEXCOORD_0":26
					},
					"indices":23
				}
			]
		},
		{
			"name":"Curve.259",
			"primitives":[
				{
					"attributes":{
						"POSITION":27,
						"NORMAL":28,
						"TEXCOORD_0":29
					},
					"indices":30
				}
			]
		},
		{
			"name":"Curve.260",
			"primitives":[
				{
					"attributes":{
						"POSITION":31,
						"NORMAL":32,
						"TEXCOORD_0":33
					},
					"indices":30
				}
			]
		},
		{
			"name":"Curve.261",
			"primitives":[
				{
					"attributes":{
						"POSITION":34,
						"NORMAL":35,
						"TEXCOORD_0":36
					},
					"indices":37
				}
			]
		},
		{
			"name":"Curve.262",
			"primitives":[
				{
					"attributes":{
						"POSITION":38,
						"NORMAL":39,
						"TEXCOORD_0":40
					},
					"indices":41
				}
			]
		},
		{
			"name":"Curve.263",
			"primitives":[
				{
					"attributes":{
						"POSITION":42,
						"NORMAL":43,
						"TEXCOORD_0":44
					},
					"indices":30
				}
			]
		},
		{
			"name":"Curve.264",
			"primitives":[
				{
					"attributes":{
						"POSITION":45,
						"NORMAL":46,
						"TEXCOORD_0":47
					},
					"indices":30
				}
			]
		},
		{
			"name":"Curve.265",
			"primitives":[
				{
					"attributes":{
						"POSITION":48,
						"NORMAL":49,
						"TEXCOORD_0":50
					},
					"indices":30
				}
			]
		},
		{
			"name":"Curve.266",
			"primitives":[
				{
					"attributes":{
						"POSITION":51,
						"NORMAL":52,
						"TEXCOORD_0":53
					},
					"indices":30
				}
			]
		},
		{
			"name":"Curve.267",
			"primitives":[
				{
					"attributes":{
						"POSITION":54,
						"NORMAL":55,
						"TEXCOORD_0":56
					},
					"indices":30
				}
			]
		},
		{
			"name":"Curve.268",
			"primitives":[
				{
					"attributes":{
						"POSITION":57,
						"NORMAL":58,
						"TEXCOORD_0":59
					},
					"indices":30
				}
			]
		},
		{
			"name":"Cylinder.036",
			"primitives":[
				{
					"attributes":{
						"POSITION":60,
						"NORMAL":61,
						"TEXCOORD_0":62
					},
					"indices":63
				},
				{
					"attributes":{
						"POSITION":64,
						"NORMAL":65,
						"TEXCOORD_0":66
					},
					"indices":63,
					"material":0
				}
			]
		},
		{
			"name":"Curve.269",
			"primitives":[
				{
					"attributes":{
						"POSITION":67,
						"NORMAL":68,
						"TEXCOORD_0":69
					},
					"indices":23
				}
			]
		},
		{
			"name":"Curve.270",
			"primitives":[
				{
					"attributes":{
						"POSITION":70,
						"NORMAL":71,
						"TEXCOORD_0":72
					},
					"indices":23,
					"material":2
				}
			]
		},
		{
			"name":"Curve.271",
			"primitives":[
				{
					"attributes":{
						"POSITION":73,
						"NORMAL":74,
						"TEXCOORD_0":75
					},
					"indices":30
				}
			]
		},
		{
			"name":"Curve.272",
			"primitives":[
				{
					"attributes":{
						"POSITION":76,
						"NORMAL":77,
						"TEXCOORD_0":78
					},
					"indices":30
				}
			]
		},
		{
			"name":"Curve.256",
			"primitives":[
				{
					"attributes":{
						"POSITION":79,
						"NORMAL":80,
						"TEXCOORD_0":81
					},
					"indices":82
				}
			]
		}
	],
	"accessors":[
		{
			"bufferView":0,
			"componentType":5126,
			"count":24,
			"max":[
				0.011201635003089905,
				0.01610972359776497,
				0.00042044371366500854
			],
			"min":[
				0,
				0,
				7.450580596923828e-09
			],
			"type":"VEC3"
		},
		{
			"bufferView":1,
			"componentType":5126,
			"count":24,
			"type":"VEC3"
		},
		{
			"bufferView":2,
			"componentType":5126,
			"count":24,
			"type":"VEC2"
		},
		{
			"bufferView":3,
			"componentType":5123,
			"count":36,
			"type":"SCALAR"
		},
		{
			"bufferView":4,
			"componentType":5126,
			"count":1104,
			"max":[
				0.0069230347871780396,
				0.004800002556294203,
				0
			],
			"min":[
				-1.4901161193847656e-08,
				1.862645149230957e-09,
				-0.016027182340621948
			],
			"type":"VEC3"
		},
		{
			"bufferView":5,
			"componentType":5126,
			"count":1104,
			"type":"VEC3"
		},
		{
			"bufferView":6,
			"componentType":5126,
			"count":1104,
			"type":"VEC2"
		},
		{
			"bufferView":7,
			"componentType":5123,
			"count":1716,
			"type":"SCALAR"
		},
		{
			"bufferView":8,
			"componentType":5126,
			"count":24,
			"max":[
				0.17497825622558594,
				0,
				0
			],
			"min":[
				-1.9073486328125e-06,
				-2.6999998092651367,
				-1.0009899139404297
			],
			"type":"VEC3"
		},
		{
			"bufferView":9,
			"componentType":5126,
			"count":24,
			"type":"VEC3"
		},
		{
			"bufferView":10,
			"componentType":5126,
			"count":24,
			"type":"VEC2"
		},
		{
			"bufferView":11,
			"componentType":5123,
			"count":36,
			"type":"SCALAR"
		},
		{
			"bufferView":12,
			"componentType":5126,
			"count":24,
			"max":[
				0,
				0.9000002145767212,
				1.8626449218572816e-06
			],
			"min":[
				-1.7999999523162842,
				2.328306152321602e-07,
				-0.4997895359992981
			],
			"type":"VEC3"
		},
		{
			"bufferView":13,
			"componentType":5126,
			"count":24,
			"type":"VEC3"
		},
		{
			"bufferView":14,
			"componentType":5126,
			"count":24,
			"type":"VEC2"
		},
		{
			"bufferView":15,
			"componentType":5123,
			"count":36,
			"type":"SCALAR"
		},
		{
			"bufferView":16,
			"componentType":5126,
			"count":888,
			"max":[
				0,
				0.9000002145767212,
				1.8626449218572816e-06
			],
			"min":[
				-1.7999999523162842,
				2.328306152321602e-07,
				-0.4997895359992981
			],
			"type":"VEC3"
		},
		{
			"bufferView":17,
			"componentType":5126,
			"count":888,
			"type":"VEC3"
		},
		{
			"bufferView":18,
			"componentType":5126,
			"count":888,
			"type":"VEC2"
		},
		{
			"bufferView":19,
			"componentType":5123,
			"count":1380,
			"type":"SCALAR"
		},
		{
			"bufferView":20,
			"componentType":5126,
			"count":24,
			"max":[
				0,
				0.02199547551572323,
				0.0013995463959872723
			],
			"min":[
				-0.0077454689890146255,
				-4.5280903577804565e-06,
				-4.656612873077393e-10
			],
			"type":"VEC3"
		},
		{
			"bufferView":21,
			"componentType":5126,
			"count":24,
			"type":"VEC3"
		},
		{
			"bufferView":22,
			"componentType":5126,
			"count":24,
			"type":"VEC2"
		},
		{
			"bufferView":23,
			"componentType":5123,
			"count":36,
			"type":"SCALAR"
		},
		{
			"bufferView":24,
			"componentType":5126,
			"count":24,
			"max":[
				-1.4901161193847656e-08,
				0.022000005468726158,
				0.0013995468616485596
			],
			"min":[
				-0.007745483890175819,
				1.862645149230957e-09,
				0
			],
			"type":"VEC3"
		},
		{
			"bufferView":25,
			"componentType":5126,
			"count":24,
			"type":"VEC3"
		},
		{
			"bufferView":26,
			"componentType":5126,
			"count":24,
			"type":"VEC2"
		},
		{
			"bufferView":27,
			"componentType":5126,
			"count":24,
			"max":[
				0.0069230347871780396,
				0.0048000020906329155,
				0.0013995543122291565
			],
			"min":[
				-1.4901161193847656e-08,
				1.1641532182693481e-09,
				7.450580596923828e-09
			],
			"type":"VEC3"
		},
		{
			"bufferView":28,
			"componentType":5126,
			"count":24,
			"type":"VEC3"
		},
		{
			"bufferView":29,
			"componentType":5126,
			"count":24,
			"type":"VEC2"
		},
		{
			"bufferView":30,
			"componentType":5123,
			"count":36,
			"type":"SCALAR"
		},
		{
			"bufferView":31,
			"componentType":5126,
			"count":24,
			"max":[
				0.0069230347871780396,
				0.0048000020906329155,
				0.0013995543122291565
			],
			"min":[
				-1.4901161193847656e-08,
				1.1641532182693481e-09,
				7.450580596923828e-09
			],
			"type":"VEC3"
		},
		{
			"bufferView":32,
			"componentType":5126,
			"count":24,
			"type":"VEC3"
		},
		{
			"bufferView":33,
			"componentType":5126,
			"count":24,
			"type":"VEC2"
		},
		{
			"bufferView":34,
			"componentType":5126,
			"count":216,
			"max":[
				-1.7881393432617188e-06,
				1.4499998092651367,
				1.8008772713073995e-06
			],
			"min":[
				-0.5000017881393433,
				-3.9329222545347875e-08,
				-0.019998198375105858
			],
			"type":"VEC3"
		},
		{
			"bufferView":35,
			"componentType":5126,
			"count":216,
			"type":"VEC3"
		},
		{
			"bufferView":36,
			"componentType":5126,
			"count":216,
			"type":"VEC2"
		},
		{
			"bufferView":37,
			"componentType":5123,
			"count":324,
			"type":"SCALAR"
		},
		{
			"bufferView":38,
			"componentType":5126,
			"count":216,
			"max":[
				0.500001072883606,
				1.4500007629394531,
				-1.0647132597796372e-07
			],
			"min":[
				1.0761991688923445e-06,
				9.143450938609021e-07,
				-0.02000010572373867
			],
			"type":"VEC3"
		},
		{
			"bufferView":39,
			"componentType":5126,
			"count":216,
			"type":"VEC3"
		},
		{
			"bufferView":40,
			"componentType":5126,
			"count":216,
			"type":"VEC2"
		},
		{
			"bufferView":41,
			"componentType":5123,
			"count":324,
			"type":"SCALAR"
		},
		{
			"bufferView":42,
			"componentType":5126,
			"count":24,
			"max":[
				0.0069230347871780396,
				0.0048000020906329155,
				0.0013995543122291565
			],
			"min":[
				-1.4901161193847656e-08,
				1.1641532182693481e-09,
				7.450580596923828e-09
			],
			"type":"VEC3"
		},
		{
			"bufferView":43,
			"componentType":5126,
			"count":24,
			"type":"VEC3"
		},
		{
			"bufferView":44,
			"componentType":5126,
			"count":24,
			"type":"VEC2"
		},
		{
			"bufferView":45,
			"componentType":5126,
			"count":24,
			"max":[
				0.0069230347871780396,
				0.0048000020906329155,
				0.0013995543122291565
			],
			"min":[
				-1.4901161193847656e-08,
				1.1641532182693481e-09,
				7.450580596923828e-09
			],
			"type":"VEC3"
		},
		{
			"bufferView":46,
			"componentType":5126,
			"count":24,
			"type":"VEC3"
		},
		{
			"bufferView":47,
			"componentType":5126,
			"count":24,
			"type":"VEC2"
		},
		{
			"bufferView":48,
			"componentType":5126,
			"count":24,
			"max":[
				0.0069230347871780396,
				0.0048000020906329155,
				0.0013995543122291565
			],
			"min":[
				-1.4901161193847656e-08,
				1.1641532182693481e-09,
				7.450580596923828e-09
			],
			"type":"VEC3"
		},
		{
			"bufferView":49,
			"componentType":5126,
			"count":24,
			"type":"VEC3"
		},
		{
			"bufferView":50,
			"componentType":5126,
			"count":24,
			"type":"VEC2"
		},
		{
			"bufferView":51,
			"componentType":5126,
			"count":24,
			"max":[
				0.0069230347871780396,
				0.0048000020906329155,
				0.0013995543122291565
			],
			"min":[
				-1.4901161193847656e-08,
				1.1641532182693481e-09,
				7.450580596923828e-09
			],
			"type":"VEC3"
		},
		{
			"bufferView":52,
			"componentType":5126,
			"count":24,
			"type":"VEC3"
		},
		{
			"bufferView":53,
			"componentType":5126,
			"count":24,
			"type":"VEC2"
		},
		{
			"bufferView":54,
			"componentType":5126,
			"count":24,
			"max":[
				0.0069230347871780396,
				0.0048000020906329155,
				0.0013995543122291565
			],
			"min":[
				-1.4901161193847656e-08,
				1.1641532182693481e-09,
				7.450580596923828e-09
			],
			"type":"VEC3"
		},
		{
			"bufferView":55,
			"componentType":5126,
			"count":24,
			"type":"VEC3"
		},
		{
			"bufferView":56,
			"componentType":5126,
			"count":24,
			"type":"VEC2"
		},
		{
			"bufferView":57,
			"componentType":5126,
			"count":24,
			"max":[
				0.006923049688339233,
				0.0036545051261782646,
				0
			],
			"min":[
				0,
				0,
				-0.0013995468616485596
			],
			"type":"VEC3"
		},
		{
			"bufferView":58,
			"componentType":5126,
			"count":24,
			"type":"VEC3"
		},
		{
			"bufferView":59,
			"componentType":5126,
			"count":24,
			"type":"VEC2"
		},
		{
			"bufferView":60,
			"componentType":5126,
			"count":192,
			"max":[
				1,
				1,
				1
			],
			"min":[
				-1,
				-1,
				-1
			],
			"type":"VEC3"
		},
		{
			"bufferView":61,
			"componentType":5126,
			"count":192,
			"type":"VEC3"
		},
		{
			"bufferView":62,
			"componentType":5126,
			"count":192,
			"type":"VEC2"
		},
		{
			"bufferView":63,
			"componentType":5123,
			"count":372,
			"type":"SCALAR"
		},
		{
			"bufferView":64,
			"componentType":5126,
			"count":192,
			"max":[
				0.9999998211860657,
				1.2092101573944092,
				1
			],
			"min":[
				-1.000000238418579,
				1.1092102527618408,
				-1
			],
			"type":"VEC3"
		},
		{
			"bufferView":65,
			"componentType":5126,
			"count":192,
			"type":"VEC3"
		},
		{
			"bufferView":66,
			"componentType":5126,
			"count":192,
			"type":"VEC2"
		},
		{
			"bufferView":67,
			"componentType":5126,
			"count":24,
			"max":[
				-1.4901161193847656e-08,
				0.022000005468726158,
				0.0013995468616485596
			],
			"min":[
				-0.007745483890175819,
				1.862645149230957e-09,
				0
			],
			"type":"VEC3"
		},
		{
			"bufferView":68,
			"componentType":5126,
			"count":24,
			"type":"VEC3"
		},
		{
			"bufferView":69,
			"componentType":5126,
			"count":24,
			"type":"VEC2"
		},
		{
			"bufferView":70,
			"componentType":5126,
			"count":24,
			"max":[
				-1.4901161193847656e-08,
				0.022000005468726158,
				0.0013995468616485596
			],
			"min":[
				-0.007745483890175819,
				1.862645149230957e-09,
				0
			],
			"type":"VEC3"
		},
		{
			"bufferView":71,
			"componentType":5126,
			"count":24,
			"type":"VEC3"
		},
		{
			"bufferView":72,
			"componentType":5126,
			"count":24,
			"type":"VEC2"
		},
		{
			"bufferView":73,
			"componentType":5126,
			"count":24,
			"max":[
				0,
				0.004800000227987766,
				0.0013995543122291565
			],
			"min":[
				-0.006923050619661808,
				-6.984919309616089e-10,
				7.450580596923828e-09
			],
			"type":"VEC3"
		},
		{
			"bufferView":74,
			"componentType":5126,
			"count":24,
			"type":"VEC3"
		},
		{
			"bufferView":75,
			"componentType":5126,
			"count":24,
			"type":"VEC2"
		},
		{
			"bufferView":76,
			"componentType":5126,
			"count":24,
			"max":[
				0.006923049688339233,
				9.313225746154785e-10,
				0.0013995543122291565
			],
			"min":[
				0,
				-0.004800000227987766,
				7.450580596923828e-09
			],
			"type":"VEC3"
		},
		{
			"bufferView":77,
			"componentType":5126,
			"count":24,
			"type":"VEC3"
		},
		{
			"bufferView":78,
			"componentType":5126,
			"count":24,
			"type":"VEC2"
		},
		{
			"bufferView":79,
			"componentType":5126,
			"count":1536,
			"max":[
				0.3808565139770508,
				0.18780243396759033,
				0.21936489641666412
			],
			"min":[
				-0.38085660338401794,
				-0.18780240416526794,
				-0.21936491131782532
			],
			"type":"VEC3"
		},
		{
			"bufferView":80,
			"componentType":5126,
			"count":1536,
			"type":"VEC3"
		},
		{
			"bufferView":81,
			"componentType":5126,
			"count":1536,
			"type":"VEC2"
		},
		{
			"bufferView":82,
			"componentType":5123,
			"count":2292,
			"type":"SCALAR"
		}
	],
	"bufferViews":[
		{
			"buffer":0,
			"byteLength":288,
			"byteOffset":0,
			"target":34962
		},
		{
			"buffer":0,
			"byteLength":288,
			"byteOffset":288,
			"target":34962
		},
		{
			"buffer":0,
			"byteLength":192,
			"byteOffset":576,
			"target":34962
		},
		{
			"buffer":0,
			"byteLength":72,
			"byteOffset":768,
			"target":34963
		},
		{
			"buffer":0,
			"byteLength":13248,
			"byteOffset":840,
			"target":34962
		},
		{
			"buffer":0,
			"byteLength":13248,
			"byteOffset":14088,
			"target":34962
		},
		{
			"buffer":0,
			"byteLength":8832,
			"byteOffset":27336,
			"target":34962
		},
		{
			"buffer":0,
			"byteLength":3432,
			"byteOffset":36168,
			"target":34963
		},
		{
			"buffer":0,
			"byteLength":288,
			"byteOffset":39600,
			"target":34962
		},
		{
			"buffer":0,
			"byteLength":288,
			"byteOffset":39888,
			"target":34962
		},
		{
			"buffer":0,
			"byteLength":192,
			"byteOffset":40176,
			"target":34962
		},
		{
			"buffer":0,
			"byteLength":72,
			"byteOffset":40368,
			"target":34963
		},
		{
			"buffer":0,
			"byteLength":288,
			"byteOffset":40440,
			"target":34962
		},
		{
			"buffer":0,
			"byteLength":288,
			"byteOffset":40728,
			"target":34962
		},
		{
			"buffer":0,
			"byteLength":192,
			"byteOffset":41016,
			"target":34962
		},
		{
			"buffer":0,
			"byteLength":72,
			"byteOffset":41208,
			"target":34963
		},
		{
			"buffer":0,
			"byteLength":10656,
			"byteOffset":41280,
			"target":34962
		},
		{
			"buffer":0,
			"byteLength":10656,
			"byteOffset":51936,
			"target":34962
		},
		{
			"buffer":0,
			"byteLength":7104,
			"byteOffset":62592,
			"target":34962
		},
		{
			"buffer":0,
			"byteLength":2760,
			"byteOffset":69696,
			"target":34963
		},
		{
			"buffer":0,
			"byteLength":288,
			"byteOffset":72456,
			"target":34962
		},
		{
			"buffer":0,
			"byteLength":288,
			"byteOffset":72744,
			"target":34962
		},
		{
			"buffer":0,
			"byteLength":192,
			"byteOffset":73032,
			"target":34962
		},
		{
			"buffer":0,
			"byteLength":72,
			"byteOffset":73224,
			"target":34963
		},
		{
			"buffer":0,
			"byteLength":288,
			"byteOffset":73296,
			"target":34962
		},
		{
			"buffer":0,
			"byteLength":288,
			"byteOffset":73584,
			"target":34962
		},
		{
			"buffer":0,
			"byteLength":192,
			"byteOffset":73872,
			"target":34962
		},
		{
			"buffer":0,
			"byteLength":288,
			"byteOffset":74064,
			"target":34962
		},
		{
			"buffer":0,
			"byteLength":288,
			"byteOffset":74352,
			"target":34962
		},
		{
			"buffer":0,
			"byteLength":192,
			"byteOffset":74640,
			"target":34962
		},
		{
			"buffer":0,
			"byteLength":72,
			"byteOffset":74832,
			"target":34963
		},
		{
			"buffer":0,
			"byteLength":288,
			"byteOffset":74904,
			"target":34962
		},
		{
			"buffer":0,
			"byteLength":288,
			"byteOffset":75192,
			"target":34962
		},
		{
			"buffer":0,
			"byteLength":192,
			"byteOffset":75480,
			"target":34962
		},
		{
			"buffer":0,
			"byteLength":2592,
			"byteOffset":75672,
			"target":34962
		},
		{
			"buffer":0,
			"byteLength":2592,
			"byteOffset":78264,
			"target":34962
		},
		{
			"buffer":0,
			"byteLength":1728,
			"byteOffset":80856,
			"target":34962
		},
		{
			"buffer":0,
			"byteLength":648,
			"byteOffset":82584,
			"target":34963
		},
		{
			"buffer":0,
			"byteLength":2592,
			"byteOffset":83232,
			"target":34962
		},
		{
			"buffer":0,
			"byteLength":2592,
			"byteOffset":85824,
			"target":34962
		},
		{
			"buffer":0,
			"byteLength":1728,
			"byteOffset":88416,
			"target":34962
		},
		{
			"buffer":0,
			"byteLength":648,
			"byteOffset":90144,
			"target":34963
		},
		{
			"buffer":0,
			"byteLength":288,
			"byteOffset":90792,
			"target":34962
		},
		{
			"buffer":0,
			"byteLength":288,
			"byteOffset":91080,
			"target":34962
		},
		{
			"buffer":0,
			"byteLength":192,
			"byteOffset":91368,
			"target":34962
		},
		{
			"buffer":0,
			"byteLength":288,
			"byteOffset":91560,
			"target":34962
		},
		{
			"buffer":0,
			"byteLength":288,
			"byteOffset":91848,
			"target":34962
		},
		{
			"buffer":0,
			"byteLength":192,
			"byteOffset":92136,
			"target":34962
		},
		{
			"buffer":0,
			"byteLength":288,
			"byteOffset":92328,
			"target":34962
		},
		{
			"buffer":0,
			"byteLength":288,
			"byteOffset":92616,
			"target":34962
		},
		{
			"buffer":0,
			"byteLength":192,
			"byteOffset":92904,
			"target":34962
		},
		{
			"buffer":0,
			"byteLength":288,
			"byteOffset":93096,
			"target":34962
		},
		{
			"buffer":0,
			"byteLength":288,
			"byteOffset":93384,
			"target":34962
		},
		{
			"buffer":0,
			"byteLength":192,
			"byteOffset":93672,
			"target":34962
		},
		{
			"buffer":0,
			"byteLength":288,
			"byteOffset":93864,
			"target":34962
		},
		{
			"buffer":0,
			"byteLength":288,
			"byteOffset":94152,
			"target":34962
		},
		{
			"buffer":0,
			"byteLength":192,
			"byteOffset":94440,
			"target":34962
		},
		{
			"buffer":0,
			"byteLength":288,
			"byteOffset":94632,
			"target":34962
		},
		{
			"buffer":0,
			"byteLength":288,
			"byteOffset":94920,
			"target":34962
		},
		{
			"buffer":0,
			"byteLength":192,
			"byteOffset":95208,
			"target":34962
		},
		{
			"buffer":0,
			"byteLength":2304,
			"byteOffset":95400,
			"target":34962
		},
		{
			"buffer":0,
			"byteLength":2304,
			"byteOffset":97704,
			"target":34962
		},
		{
			"buffer":0,
			"byteLength":1536,
			"byteOffset":100008,
			"target":34962
		},
		{
			"buffer":0,
			"byteLength":744,
			"byteOffset":101544,
			"target":34963
		},
		{
			"buffer":0,
			"byteLength":2304,
			"byteOffset":102288,
			"target":34962
		},
		{
			"buffer":0,
			"byteLength":2304,
			"byteOffset":104592,
			"target":34962
		},
		{
			"buffer":0,
			"byteLength":1536,
			"byteOffset":106896,
			"target":34962
		},
		{
			"buffer":0,
			"byteLength":288,
			"byteOffset":108432,
			"target":34962
		},
		{
			"buffer":0,
			"byteLength":288,
			"byteOffset":108720,
			"target":34962
		},
		{
			"buffer":0,
			"byteLength":192,
			"byteOffset":109008,
			"target":34962
		},
		{
			"buffer":0,
			"byteLength":288,
			"byteOffset":109200,
			"target":34962
		},
		{
			"buffer":0,
			"byteLength":288,
			"byteOffset":109488,
			"target":34962
		},
		{
			"buffer":0,
			"byteLength":192,
			"byteOffset":109776,
			"target":34962
		},
		{
			"buffer":0,
			"byteLength":288,
			"byteOffset":109968,
			"target":34962
		},
		{
			"buffer":0,
			"byteLength":288,
			"byteOffset":110256,
			"target":34962
		},
		{
			"buffer":0,
			"byteLength":192,
			"byteOffset":110544,
			"target":34962
		},
		{
			"buffer":0,
			"byteLength":288,
			"byteOffset":110736,
			"target":34962
		},
		{
			"buffer":0,
			"byteLength":288,
			"byteOffset":111024,
			"target":34962
		},
		{
			"buffer":0,
			"byteLength":192,
			"byteOffset":111312,
			"target":34962
		},
		{
			"buffer":0,
			"byteLength":18432,
			"byteOffset":111504,
			"target":34962
		},
		{
			"buffer":0,
			"byteLength":18432,
			"byteOffset":129936,
			"target":34962
		},
		{
			"buffer":0,
			"byteLength":12288,
			"byteOffset":148368,
			"target":34962
		},
		{
			"buffer":0,
			"byteLength":4584,
			"byteOffset":160656,
			"target":34963
		}
	],
	"buffers":[
		{
			"byteLength":165240,
			"uri":"OG_3D.bin"
		}
	]
}
