{
	"asset":{
		"generator":"Khronos glTF Blender I/O v5.1.18",
		"version":"2.0"
	},
	"scene":0,
	"scenes":[
		{
			"name":"Scene",
			"nodes":[
				0,
				1,
				2,
				3
			]
		}
	],
	"nodes":[
		{
			"mesh":0,
			"name":"FG.004",
			"scale":[
				0.014999999664723873,
				0.44999998807907104,
				0.5
			],
			"translation":[
				24.799999237060547,
				3.1599998474121094,
				-5.591464519500732
			]
		},
		{
			"mesh":1,
			"name":"FG.007",
			"rotation":[
				0,
				-1,
				0,
				4.371138828673793e-08
			],
			"scale":[
				0.014999999664723873,
				0.44999998807907104,
				0.5
			],
			"translation":[
				16.04344940185547,
				3.1599998474121094,
				-15.934139251708984
			]
		},
		{
			"mesh":2,
			"name":"FG.005",
			"scale":[
				0.7499998807907104,
				1,
				0.7499998807907104
			],
			"translation":[
				24.819421768188477,
				3.159999370574951,
				-5.591466903686523
			]
		},
		{
			"mesh":3,
			"name":"FG.006",
			"rotation":[
				0,
				-1,
				0,
				4.371138473402425e-08
			],
			"scale":[
				0.7499998807907104,
				1,
				0.7499998807907104
			],
			"translation":[
				16.024023056030273,
				3.159999370574951,
				-15.934135437011719
			]
		}
	],
	"materials":[
		{
			"doubleSided":true,
			"name":"AussenMetall",
			"pbrMetallicRoughness":{
				"baseColorFactor":[
					0.03954596072435379,
					0.04817187413573265,
					0.05448030307888985,
					1
				],
				"roughnessFactor":0.654285728931427
			}
		}
	],
	"meshes":[
		{
			"name":"Cube.295",
			"primitives":[
				{
					"attributes":{
						"POSITION":0,
						"NORMAL":1,
						"TEXCOORD_0":2
					},
					"indices":3,
					"material":0
				}
			]
		},
		{
			"name":"Cube.298",
			"primitives":[
				{
					"attributes":{
						"POSITION":4,
						"NORMAL":5,
						"TEXCOORD_0":6
					},
					"indices":3,
					"material":0
				}
			]
		},
		{
			"name":"Cube.296",
			"primitives":[
				{
					"attributes":{
						"POSITION":7,
						"NORMAL":8,
						"TEXCOORD_0":9
					},
					"indices":10,
					"material":0
				}
			]
		},
		{
			"name":"Cube.297",
			"primitives":[
				{
					"attributes":{
						"POSITION":11,
						"NORMAL":12,
						"TEXCOORD_0":13
					},
					"indices":14,
					"material":0
				}
			]
		}
	],
	"accessors":[
		{
			"bufferView":0,
			"componentType":5126,
			"count":48,
			"max":[
				2.0000343322753906,
				2,
				-2.2737367544323206e-13
			],
			"min":[
				3.445148468017578e-05,
				0,
				-4.239999771118164
			],
			"type":"VEC3"
		},
		{
			"bufferView":1,
			"componentType":5126,
			"count":48,
			"type":"VEC3"
		},
		{
			"bufferView":2,
			"componentType":5126,
			"count":48,
			"type":"VEC2"
		},
		{
			"bufferView":3,
			"componentType":5123,
			"count":96,
			"type":"SCALAR"
		},
		{
			"bufferView":4,
			"componentType":5126,
			"count":48,
			"max":[
				2.0000343322753906,
				2,
				-2.2737367544323206e-13
			],
			"min":[
				3.445148468017578e-05,
				0,
				-2.489999771118164
			],
			"type":"VEC3"
		},
		{
			"bufferView":5,
			"componentType":5126,
			"count":48,
			"type":"VEC3"
		},
		{
			"bufferView":6,
			"componentType":5126,
			"count":48,
			"type":"VEC2"
		},
		{
			"bufferView":7,
			"componentType":5126,
			"count":672,
			"max":[
				0.014097366482019424,
				0.8999999761581421,
				9.53674295089968e-09
			],
			"min":[
				-0.025902632623910904,
				0,
				-2.7099995613098145
			],
			"type":"VEC3"
		},
		{
			"bufferView":8,
			"componentType":5126,
			"count":672,
			"type":"VEC3"
		},
		{
			"bufferView":9,
			"componentType":5126,
			"count":672,
			"type":"VEC2"
		},
		{
			"bufferView":10,
			"componentType":5123,
			"count":1008,
			"type":"SCALAR"
		},
		{
			"bufferView":11,
			"componentType":5126,
			"count":408,
			"max":[
				0.014097366482019424,
				0.8999999761581421,
				9.53674295089968e-09
			],
			"min":[
				-0.025902632623910904,
				0,
				-1.6100001335144043
			],
			"type":"VEC3"
		},
		{
			"bufferView":12,
			"componentType":5126,
			"count":408,
			"type":"VEC3"
		},
		{
			"bufferView":13,
			"componentType":5126,
			"count":408,
			"type":"VEC2"
		},
		{
			"bufferView":14,
			"componentType":5123,
			"count":612,
			"type":"SCALAR"
		}
	],
	"bufferViews":[
		{
			"buffer":0,
			"byteLength":576,
			"byteOffset":0,
			"target":34962
		},
		{
			"buffer":0,
			"byteLength":576,
			"byteOffset":576,
			"target":34962
		},
		{
			"buffer":0,
			"byteLength":384,
			"byteOffset":1152,
			"target":34962
		},
		{
			"buffer":0,
			"byteLength":192,
			"byteOffset":1536,
			"target":34963
		},
		{
			"buffer":0,
			"byteLength":576,
			"byteOffset":1728,
			"target":34962
		},
		{
			"buffer":0,
			"byteLength":576,
			"byteOffset":2304,
			"target":34962
		},
		{
			"buffer":0,
			"byteLength":384,
			"byteOffset":2880,
			"target":34962
		},
		{
			"buffer":0,
			"byteLength":8064,
			"byteOffset":3264,
			"target":34962
		},
		{
			"buffer":0,
			"byteLength":8064,
			"byteOffset":11328,
			"target":34962
		},
		{
			"buffer":0,
			"byteLength":5376,
			"byteOffset":19392,
			"target":34962
		},
		{
			"buffer":0,
			"byteLength":2016,
			"byteOffset":24768,
			"target":34963
		},
		{
			"buffer":0,
			"byteLength":4896,
			"byteOffset":26784,
			"target":34962
		},
		{
			"buffer":0,
			"byteLength":4896,
			"byteOffset":31680,
			"target":34962
		},
		{
			"buffer":0,
			"byteLength":3264,
			"byteOffset":36576,
			"target":34962
		},
		{
			"buffer":0,
			"byteLength":1224,
			"byteOffset":39840,
			"target":34963
		}
	],
	"buffers":[
		{
			"byteLength":41064,
			"uri":"OG_Fallgitter.bin"
		}
	]
}
