{
	"asset":{
		"generator":"Khronos glTF Blender I/O v5.1.18",
		"version":"2.0"
	},
	"scene":0,
	"scenes":[
		{
			"name":"Scene",
			"nodes":[
				0,
				1,
				2,
				3,
				4,
				5,
				6,
				7,
				8
			]
		}
	],
	"nodes":[
		{
			"mesh":0,
			"name":"holzfassade.016",
			"scale":[
				1,
				0.301111102104187,
				1
			],
			"translation":[
				25.800809860229492,
				2.809999942779541,
				-16.947114944458008
			]
		},
		{
			"mesh":1,
			"name":"holzfassade.017",
			"rotation":[
				0,
				-0.7071068286895752,
				0,
				0.7071068286895752
			],
			"scale":[
				0.9900000095367432,
				0.3055555522441864,
				1
			],
			"translation":[
				25.800811767578125,
				2.809999942779541,
				-11.869331359863281
			]
		},
		{
			"mesh":2,
			"name":"holzfassade.018",
			"rotation":[
				0,
				-1,
				0,
				4.371138828673793e-08
			],
			"scale":[
				1.100000023841858,
				0.3055555522441864,
				1
			],
			"translation":[
				24.934370040893555,
				2.799999952316284,
				-11.86929988861084
			]
		},
		{
			"mesh":3,
			"name":"holzfassade.019",
			"rotation":[
				0,
				-0.7071068286895752,
				0,
				0.7071068286895752
			],
			"scale":[
				1,
				0.3055555522441864,
				1
			],
			"translation":[
				24.934370040893555,
				2.799999952316284,
				-5.278964519500732
			]
		},
		{
			"mesh":4,
			"name":"holzfassade.022",
			"scale":[
				1.100000023841858,
				0.3444444239139557,
				1
			],
			"translation":[
				25.800432205200195,
				2.799999952316284,
				-5.278964519500732
			]
		},
		{
			"mesh":5,
			"name":"holzfassade.023",
			"rotation":[
				0,
				-0.7071068286895752,
				0,
				0.7071068286895752
			],
			"scale":[
				1.5,
				0.3055555522441864,
				1
			],
			"translation":[
				25.800432205200195,
				2.799999952316284,
				-4.998964309692383
			]
		},
		{
			"mesh":6,
			"name":"holzfassade.024",
			"rotation":[
				0,
				-0.7071068286895752,
				0,
				0.7071068286895752
			],
			"scale":[
				1.5,
				0.3444444239139557,
				1
			],
			"translation":[
				25.800432205200195,
				-0.2999999523162842,
				-4.998964309692383
			]
		},
		{
			"mesh":7,
			"name":"holzfassade.025",
			"rotation":[
				0,
				-1,
				0,
				4.371138828673793e-08
			],
			"scale":[
				1,
				0.30222222208976746,
				1
			],
			"translation":[
				15.82508659362793,
				2.799999952316284,
				-4.998964786529541
			]
		},
		{
			"mesh":8,
			"name":"holzfassade.029",
			"rotation":[
				0,
				0.7071068286895752,
				0,
				0.7071068286895752
			],
			"scale":[
				1,
				0.3055555522441864,
				1
			],
			"translation":[
				15.885086059570312,
				2.799999952316284,
				-16.950763702392578
			]
		}
	],
	"materials":[
		{
			"doubleSided":true,
			"name":"fichte",
			"pbrMetallicRoughness":{
				"baseColorTexture":{
					"index":0
				},
				"metallicFactor":0,
				"roughnessFactor":0.5
			}
		},
		{
			"doubleSided":true,
			"name":"fichte.001",
			"pbrMetallicRoughness":{
				"baseColorTexture":{
					"index":1
				},
				"metallicFactor":0,
				"roughnessFactor":0.5
			}
		}
	],
	"meshes":[
		{
			"name":"Cube.517",
			"primitives":[
				{
					"attributes":{
						"POSITION":0,
						"NORMAL":1,
						"TEXCOORD_0":2
					},
					"indices":3,
					"material":0
				}
			]
		},
		{
			"name":"Cube.518",
			"primitives":[
				{
					"attributes":{
						"POSITION":4,
						"NORMAL":5,
						"TEXCOORD_0":6
					},
					"indices":7,
					"material":1
				}
			]
		},
		{
			"name":"Cube.519",
			"primitives":[
				{
					"attributes":{
						"POSITION":8,
						"NORMAL":9,
						"TEXCOORD_0":10
					},
					"indices":11,
					"material":1
				}
			]
		},
		{
			"name":"Cube.520",
			"primitives":[
				{
					"attributes":{
						"POSITION":12,
						"NORMAL":13,
						"TEXCOORD_0":14
					},
					"indices":15,
					"material":1
				}
			]
		},
		{
			"name":"Cube.521",
			"primitives":[
				{
					"attributes":{
						"POSITION":16,
						"NORMAL":17,
						"TEXCOORD_0":18
					},
					"indices":11,
					"material":1
				}
			]
		},
		{
			"name":"Cube.522",
			"primitives":[
				{
					"attributes":{
						"POSITION":19,
						"NORMAL":20,
						"TEXCOORD_0":21
					},
					"indices":22,
					"material":1
				}
			]
		},
		{
			"name":"Cube.523",
			"primitives":[
				{
					"attributes":{
						"POSITION":23,
						"NORMAL":24,
						"TEXCOORD_0":25
					},
					"indices":22,
					"material":1
				}
			]
		},
		{
			"name":"Cube.524",
			"primitives":[
				{
					"attributes":{
						"POSITION":26,
						"NORMAL":27,
						"TEXCOORD_0":28
					},
					"indices":29,
					"material":1
				}
			]
		},
		{
			"name":"Cube.525",
			"primitives":[
				{
					"attributes":{
						"POSITION":30,
						"NORMAL":31,
						"TEXCOORD_0":32
					},
					"indices":33,
					"material":1
				}
			]
		}
	],
	"textures":[
		{
			"sampler":0,
			"source":0
		},
		{
			"sampler":0,
			"source":0
		}
	],
	"images":[
		{
			"mimeType":"image/jpeg",
			"name":"fichte - grau",
			"uri":"fichte%20-%20grau.jpg"
		}
	],
	"accessors":[
		{
			"bufferView":0,
			"componentType":5126,
			"count":4800,
			"max":[
				0,
				9,
				0
			],
			"min":[
				-9.994998931884766,
				0,
				-0.019999999552965164
			],
			"type":"VEC3"
		},
		{
			"bufferView":1,
			"componentType":5126,
			"count":4800,
			"type":"VEC3"
		},
		{
			"bufferView":2,
			"componentType":5126,
			"count":4800,
			"type":"VEC2"
		},
		{
			"bufferView":3,
			"componentType":5123,
			"count":6600,
			"type":"SCALAR"
		},
		{
			"bufferView":4,
			"componentType":5126,
			"count":2856,
			"max":[
				0,
				9,
				0
			],
			"min":[
				-5.194999694824219,
				0,
				-0.019999999552965164
			],
			"type":"VEC3"
		},
		{
			"bufferView":5,
			"componentType":5126,
			"count":2856,
			"type":"VEC3"
		},
		{
			"bufferView":6,
			"componentType":5126,
			"count":2856,
			"type":"VEC2"
		},
		{
			"bufferView":7,
			"componentType":5123,
			"count":4080,
			"type":"SCALAR"
		},
		{
			"bufferView":8,
			"componentType":5126,
			"count":384,
			"max":[
				0,
				9,
				0
			],
			"min":[
				-0.7949999570846558,
				0,
				-0.019999999552965164
			],
			"type":"VEC3"
		},
		{
			"bufferView":9,
			"componentType":5126,
			"count":384,
			"type":"VEC3"
		},
		{
			"bufferView":10,
			"componentType":5126,
			"count":384,
			"type":"VEC2"
		},
		{
			"bufferView":11,
			"componentType":5123,
			"count":528,
			"type":"SCALAR"
		},
		{
			"bufferView":12,
			"componentType":5126,
			"count":4224,
			"max":[
				0,
				9,
				0
			],
			"min":[
				-6.59499979019165,
				0,
				-0.019999999552965164
			],
			"type":"VEC3"
		},
		{
			"bufferView":13,
			"componentType":5126,
			"count":4224,
			"type":"VEC3"
		},
		{
			"bufferView":14,
			"componentType":5126,
			"count":4224,
			"type":"VEC2"
		},
		{
			"bufferView":15,
			"componentType":5123,
			"count":6276,
			"type":"SCALAR"
		},
		{
			"bufferView":16,
			"componentType":5126,
			"count":384,
			"max":[
				0,
				9,
				0
			],
			"min":[
				-0.7949999570846558,
				0,
				-0.019999999552965164
			],
			"type":"VEC3"
		},
		{
			"bufferView":17,
			"componentType":5126,
			"count":384,
			"type":"VEC3"
		},
		{
			"bufferView":18,
			"componentType":5126,
			"count":384,
			"type":"VEC2"
		},
		{
			"bufferView":19,
			"componentType":5126,
			"count":96,
			"max":[
				0,
				9,
				0
			],
			"min":[
				-0.19499999284744263,
				0,
				-0.019999999552965164
			],
			"type":"VEC3"
		},
		{
			"bufferView":20,
			"componentType":5126,
			"count":96,
			"type":"VEC3"
		},
		{
			"bufferView":21,
			"componentType":5126,
			"count":96,
			"type":"VEC2"
		},
		{
			"bufferView":22,
			"componentType":5123,
			"count":132,
			"type":"SCALAR"
		},
		{
			"bufferView":23,
			"componentType":5126,
			"count":96,
			"max":[
				0,
				9,
				0
			],
			"min":[
				-0.19499999284744263,
				0,
				-0.019999999552965164
			],
			"type":"VEC3"
		},
		{
			"bufferView":24,
			"componentType":5126,
			"count":96,
			"type":"VEC3"
		},
		{
			"bufferView":25,
			"componentType":5126,
			"count":96,
			"type":"VEC2"
		},
		{
			"bufferView":26,
			"componentType":5126,
			"count":5442,
			"max":[
				0,
				9,
				0
			],
			"min":[
				-9.994998931884766,
				0,
				-0.019999999552965164
			],
			"type":"VEC3"
		},
		{
			"bufferView":27,
			"componentType":5126,
			"count":5442,
			"type":"VEC3"
		},
		{
			"bufferView":28,
			"componentType":5126,
			"count":5442,
			"type":"VEC2"
		},
		{
			"bufferView":29,
			"componentType":5123,
			"count":7836,
			"type":"SCALAR"
		},
		{
			"bufferView":30,
			"componentType":5126,
			"count":7664,
			"max":[
				0,
				9,
				0
			],
			"min":[
				-11.994998931884766,
				0,
				-0.019999999552965164
			],
			"type":"VEC3"
		},
		{
			"bufferView":31,
			"componentType":5126,
			"count":7664,
			"type":"VEC3"
		},
		{
			"bufferView":32,
			"componentType":5126,
			"count":7664,
			"type":"VEC2"
		},
		{
			"bufferView":33,
			"componentType":5123,
			"count":11352,
			"type":"SCALAR"
		}
	],
	"bufferViews":[
		{
			"buffer":0,
			"byteLength":57600,
			"byteOffset":0,
			"target":34962
		},
		{
			"buffer":0,
			"byteLength":57600,
			"byteOffset":57600,
			"target":34962
		},
		{
			"buffer":0,
			"byteLength":38400,
			"byteOffset":115200,
			"target":34962
		},
		{
			"buffer":0,
			"byteLength":13200,
			"byteOffset":153600,
			"target":34963
		},
		{
			"buffer":0,
			"byteLength":34272,
			"byteOffset":166800,
			"target":34962
		},
		{
			"buffer":0,
			"byteLength":34272,
			"byteOffset":201072,
			"target":34962
		},
		{
			"buffer":0,
			"byteLength":22848,
			"byteOffset":235344,
			"target":34962
		},
		{
			"buffer":0,
			"byteLength":8160,
			"byteOffset":258192,
			"target":34963
		},
		{
			"buffer":0,
			"byteLength":4608,
			"byteOffset":266352,
			"target":34962
		},
		{
			"buffer":0,
			"byteLength":4608,
			"byteOffset":270960,
			"target":34962
		},
		{
			"buffer":0,
			"byteLength":3072,
			"byteOffset":275568,
			"target":34962
		},
		{
			"buffer":0,
			"byteLength":1056,
			"byteOffset":278640,
			"target":34963
		},
		{
			"buffer":0,
			"byteLength":50688,
			"byteOffset":279696,
			"target":34962
		},
		{
			"buffer":0,
			"byteLength":50688,
			"byteOffset":330384,
			"target":34962
		},
		{
			"buffer":0,
			"byteLength":33792,
			"byteOffset":381072,
			"target":34962
		},
		{
			"buffer":0,
			"byteLength":12552,
			"byteOffset":414864,
			"target":34963
		},
		{
			"buffer":0,
			"byteLength":4608,
			"byteOffset":427416,
			"target":34962
		},
		{
			"buffer":0,
			"byteLength":4608,
			"byteOffset":432024,
			"target":34962
		},
		{
			"buffer":0,
			"byteLength":3072,
			"byteOffset":436632,
			"target":34962
		},
		{
			"buffer":0,
			"byteLength":1152,
			"byteOffset":439704,
			"target":34962
		},
		{
			"buffer":0,
			"byteLength":1152,
			"byteOffset":440856,
			"target":34962
		},
		{
			"buffer":0,
			"byteLength":768,
			"byteOffset":442008,
			"target":34962
		},
		{
			"buffer":0,
			"byteLength":264,
			"byteOffset":442776,
			"target":34963
		},
		{
			"buffer":0,
			"byteLength":1152,
			"byteOffset":443040,
			"target":34962
		},
		{
			"buffer":0,
			"byteLength":1152,
			"byteOffset":444192,
			"target":34962
		},
		{
			"buffer":0,
			"byteLength":768,
			"byteOffset":445344,
			"target":34962
		},
		{
			"buffer":0,
			"byteLength":65304,
			"byteOffset":446112,
			"target":34962
		},
		{
			"buffer":0,
			"byteLength":65304,
			"byteOffset":511416,
			"target":34962
		},
		{
			"buffer":0,
			"byteLength":43536,
			"byteOffset":576720,
			"target":34962
		},
		{
			"buffer":0,
			"byteLength":15672,
			"byteOffset":620256,
			"target":34963
		},
		{
			"buffer":0,
			"byteLength":91968,
			"byteOffset":635928,
			"target":34962
		},
		{
			"buffer":0,
			"byteLength":91968,
			"byteOffset":727896,
			"target":34962
		},
		{
			"buffer":0,
			"byteLength":61312,
			"byteOffset":819864,
			"target":34962
		},
		{
			"buffer":0,
			"byteLength":22704,
			"byteOffset":881176,
			"target":34963
		}
	],
	"samplers":[
		{
			"magFilter":9729,
			"minFilter":9987
		}
	],
	"buffers":[
		{
			"byteLength":903880,
			"uri":"OG_Fassade.bin"
		}
	]
}
