{
	"asset":{
		"generator":"Khronos glTF Blender I/O v5.1.18",
		"version":"2.0"
	},
	"scene":0,
	"scenes":[
		{
			"name":"Scene",
			"nodes":[
				0,
				1,
				2,
				3,
				4,
				5,
				6,
				7,
				8,
				9,
				10,
				11,
				12,
				13,
				14
			]
		}
	],
	"nodes":[
		{
			"mesh":0,
			"name":"Raffstores.001",
			"scale":[
				0.009999999776482582,
				0.009999999776482582,
				0.009999999776482582
			],
			"translation":[
				25.72587013244629,
				4.552559852600098,
				-14.532962799072266
			]
		},
		{
			"mesh":1,
			"name":"a.004",
			"rotation":[
				0,
				-1,
				0,
				4.371138828673793e-08
			],
			"scale":[
				0.09999999403953552,
				1,
				1
			],
			"translation":[
				24.69999885559082,
				3.1599998474121094,
				-11.456068992614746
			]
		},
		{
			"mesh":2,
			"name":"a.005",
			"rotation":[
				0,
				-1,
				0,
				4.371138828673793e-08
			],
			"scale":[
				0.019999999552965164,
				1,
				1
			],
			"translation":[
				24.749998092651367,
				4.274999618530273,
				-11.143569946289062
			]
		},
		{
			"mesh":3,
			"name":"Bad.008",
			"scale":[
				0.009999999776482582,
				0.7749999761581421,
				0.75
			],
			"translation":[
				25.622095108032227,
				4.674999713897705,
				-14.419998168945312
			]
		},
		{
			"mesh":4,
			"name":"Bad.009",
			"scale":[
				0.05000000074505806,
				0.675000011920929,
				0.044999998062849045
			],
			"translation":[
				25.622095108032227,
				4.698530197143555,
				-14.458063125610352
			]
		},
		{
			"mesh":5,
			"name":"Cut-Office.002",
			"scale":[
				0.010000000707805157,
				1.1749999523162842,
				0.3125
			],
			"translation":[
				16.089998245239258,
				3.0999996662139893,
				-11.554455757141113
			]
		},
		{
			"mesh":6,
			"name":"Cut-Office.003",
			"translation":[
				16.049999237060547,
				3.1599998474121094,
				-11.554455757141113
			]
		},
		{
			"mesh":7,
			"name":"Cut_BreakfastOffice.001",
			"translation":[
				24.69999885559082,
				3.1599998474121094,
				-5.591464519500732
			]
		},
		{
			"mesh":8,
			"name":"Cut_BreakfastOffice.008",
			"scale":[
				1,
				0.9234041571617126,
				0.04245282709598541
			],
			"translation":[
				24.749998092651367,
				4.335000038146973,
				-6.696464538574219
			]
		},
		{
			"mesh":9,
			"name":"Glas.002",
			"scale":[
				0.009999999776482582,
				1.272916316986084,
				1.059999942779541
			],
			"translation":[
				24.749998092651367,
				4.275000095367432,
				-6.651464462280273
			]
		},
		{
			"mesh":10,
			"name":"T\u00fcrElement.007",
			"translation":[
				16.049999237060547,
				3.1599998474121094,
				-15.934139251708984
			]
		},
		{
			"mesh":11,
			"name":"T\u00fcrElement.008",
			"rotation":[
				0,
				-0.7071068286895752,
				0,
				0.7071068286895752
			],
			"translation":[
				24.307697296142578,
				3.9592771530151367,
				-5.150000095367432
			]
		},
		{
			"mesh":12,
			"name":"T\u00fcrElement.009",
			"rotation":[
				0,
				-1,
				0,
				4.371138828673793e-08
			],
			"translation":[
				16.049999237060547,
				3.9592771530151367,
				-5.638609886169434
			]
		},
		{
			"mesh":13,
			"name":"T\u00fcrElement.010",
			"rotation":[
				0,
				-0.7071068286895752,
				0,
				0.7071068286895752
			],
			"translation":[
				18.975980758666992,
				3.9592771530151367,
				-5.150000095367432
			]
		},
		{
			"mesh":14,
			"name":"Bad.010",
			"translation":[
				25.622095108032227,
				4.73427677154541,
				-14.419998168945312
			]
		}
	],
	"materials":[
		{
			"doubleSided":true,
			"name":"Blinds",
			"normalTexture":{
				"index":0
			},
			"occlusionTexture":{
				"index":1
			},
			"pbrMetallicRoughness":{
				"baseColorTexture":{
					"index":2
				},
				"metallicRoughnessTexture":{
					"index":1
				}
			}
		},
		{
			"doubleSided":true,
			"name":"MetalWhite",
			"pbrMetallicRoughness":{
				"baseColorFactor":[
					0.07787817716598511,
					0.07787817716598511,
					0.07787817716598511,
					1
				],
				"metallicFactor":0.260606050491333,
				"roughnessFactor":0.5638610124588013
			}
		},
		{
			"alphaMode":"BLEND",
			"doubleSided":true,
			"name":"Glass",
			"pbrMetallicRoughness":{
				"baseColorFactor":[
					0.800000011920929,
					0.800000011920929,
					0.800000011920929,
					0.10000000149011612
				],
				"metallicFactor":0,
				"roughnessFactor":0
			}
		}
	],
	"meshes":[
		{
			"name":"defaultMaterial.012",
			"primitives":[
				{
					"attributes":{
						"POSITION":0,
						"NORMAL":1,
						"TEXCOORD_0":2
					},
					"indices":3,
					"material":0
				}
			]
		},
		{
			"name":"Cube.840",
			"primitives":[
				{
					"attributes":{
						"POSITION":4,
						"NORMAL":5,
						"TEXCOORD_0":6
					},
					"indices":7,
					"material":1
				}
			]
		},
		{
			"name":"Cube.841",
			"primitives":[
				{
					"attributes":{
						"POSITION":8,
						"NORMAL":9,
						"TEXCOORD_0":10
					},
					"indices":11,
					"material":2
				}
			]
		},
		{
			"name":"Cube.842",
			"primitives":[
				{
					"attributes":{
						"POSITION":12,
						"NORMAL":13,
						"TEXCOORD_0":14
					},
					"indices":15,
					"material":2
				}
			]
		},
		{
			"name":"Cube.843",
			"primitives":[
				{
					"attributes":{
						"POSITION":16,
						"NORMAL":17,
						"TEXCOORD_0":18
					},
					"indices":15,
					"material":1
				}
			]
		},
		{
			"name":"Cube.844",
			"primitives":[
				{
					"attributes":{
						"POSITION":19,
						"NORMAL":20,
						"TEXCOORD_0":21
					},
					"indices":15,
					"material":2
				}
			]
		},
		{
			"name":"Cube.845",
			"primitives":[
				{
					"attributes":{
						"POSITION":22,
						"NORMAL":23,
						"TEXCOORD_0":24
					},
					"indices":25,
					"material":1
				}
			]
		},
		{
			"name":"Cube.846",
			"primitives":[
				{
					"attributes":{
						"POSITION":26,
						"NORMAL":27,
						"TEXCOORD_0":28
					},
					"indices":29,
					"material":1
				}
			]
		},
		{
			"name":"Cube.847",
			"primitives":[
				{
					"attributes":{
						"POSITION":30,
						"NORMAL":31,
						"TEXCOORD_0":32
					},
					"indices":33,
					"material":1
				}
			]
		},
		{
			"name":"Cube.848",
			"primitives":[
				{
					"attributes":{
						"POSITION":34,
						"NORMAL":35,
						"TEXCOORD_0":36
					},
					"indices":33,
					"material":2
				}
			]
		},
		{
			"name":"Cube.849",
			"primitives":[
				{
					"attributes":{
						"POSITION":37,
						"NORMAL":38,
						"TEXCOORD_0":39
					},
					"indices":40,
					"material":1
				},
				{
					"attributes":{
						"POSITION":41,
						"NORMAL":42,
						"TEXCOORD_0":43
					},
					"indices":44,
					"material":2
				}
			]
		},
		{
			"name":"Cube.850",
			"primitives":[
				{
					"attributes":{
						"POSITION":45,
						"NORMAL":46,
						"TEXCOORD_0":47
					},
					"indices":48,
					"material":1
				},
				{
					"attributes":{
						"POSITION":49,
						"NORMAL":50,
						"TEXCOORD_0":51
					},
					"indices":44,
					"material":2
				}
			]
		},
		{
			"name":"Cube.851",
			"primitives":[
				{
					"attributes":{
						"POSITION":52,
						"NORMAL":53,
						"TEXCOORD_0":54
					},
					"indices":40,
					"material":1
				},
				{
					"attributes":{
						"POSITION":55,
						"NORMAL":56,
						"TEXCOORD_0":57
					},
					"indices":44,
					"material":2
				}
			]
		},
		{
			"name":"Cube.852",
			"primitives":[
				{
					"attributes":{
						"POSITION":58,
						"NORMAL":59,
						"TEXCOORD_0":60
					},
					"indices":48,
					"material":1
				},
				{
					"attributes":{
						"POSITION":61,
						"NORMAL":62,
						"TEXCOORD_0":63
					},
					"indices":44,
					"material":2
				}
			]
		},
		{
			"name":"Cube.853",
			"primitives":[
				{
					"attributes":{
						"POSITION":64,
						"NORMAL":65,
						"TEXCOORD_0":66
					},
					"indices":67,
					"material":1
				}
			]
		}
	],
	"textures":[
		{
			"sampler":0,
			"source":0
		},
		{
			"sampler":0,
			"source":1
		},
		{
			"sampler":0,
			"source":2
		}
	],
	"images":[
		{
			"mimeType":"image/png",
			"name":"Blinds_normal",
			"uri":"Blinds_normal.png"
		},
		{
			"mimeType":"image/png",
			"name":"Blinds_metallicRoughness",
			"uri":"Blinds_metallicRoughness.png"
		},
		{
			"mimeType":"image/jpeg",
			"name":"Blinds_baseColor",
			"uri":"Blinds_baseColor.jpg"
		}
	],
	"accessors":[
		{
			"bufferView":0,
			"componentType":5126,
			"count":1442,
			"max":[
				5.348236083984375,
				98.95503997802734,
				104.3446044921875
			],
			"min":[
				-5.348236083984375,
				-98.95502471923828,
				-104.3446273803711
			],
			"type":"VEC3"
		},
		{
			"bufferView":1,
			"componentType":5126,
			"count":1442,
			"type":"VEC3"
		},
		{
			"bufferView":2,
			"componentType":5126,
			"count":1442,
			"type":"VEC2"
		},
		{
			"bufferView":3,
			"componentType":5123,
			"count":2316,
			"type":"SCALAR"
		},
		{
			"bufferView":4,
			"componentType":5126,
			"count":144,
			"max":[
				1.9073486328125e-06,
				2.299999952316284,
				1.3246885828266386e-06
			],
			"min":[
				-0.9999980926513672,
				0,
				-3.1249985694885254
			],
			"type":"VEC3"
		},
		{
			"bufferView":5,
			"componentType":5126,
			"count":144,
			"type":"VEC3"
		},
		{
			"bufferView":6,
			"componentType":5126,
			"count":144,
			"type":"VEC2"
		},
		{
			"bufferView":7,
			"componentType":5123,
			"count":288,
			"type":"SCALAR"
		},
		{
			"bufferView":8,
			"componentType":5126,
			"count":72,
			"max":[
				0.5,
				1.1749999523162842,
				0.3125
			],
			"min":[
				-0.4999999701976776,
				-1.1749999523162842,
				-2.8125
			],
			"type":"VEC3"
		},
		{
			"bufferView":9,
			"componentType":5126,
			"count":72,
			"type":"VEC3"
		},
		{
			"bufferView":10,
			"componentType":5126,
			"count":72,
			"type":"VEC2"
		},
		{
			"bufferView":11,
			"componentType":5123,
			"count":108,
			"type":"SCALAR"
		},
		{
			"bufferView":12,
			"componentType":5126,
			"count":24,
			"max":[
				1,
				1,
				1
			],
			"min":[
				-1,
				-1,
				-1
			],
			"type":"VEC3"
		},
		{
			"bufferView":13,
			"componentType":5126,
			"count":24,
			"type":"VEC3"
		},
		{
			"bufferView":14,
			"componentType":5126,
			"count":24,
			"type":"VEC2"
		},
		{
			"bufferView":15,
			"componentType":5123,
			"count":36,
			"type":"SCALAR"
		},
		{
			"bufferView":16,
			"componentType":5126,
			"count":24,
			"max":[
				1,
				1,
				1
			],
			"min":[
				-1,
				-1,
				-1
			],
			"type":"VEC3"
		},
		{
			"bufferView":17,
			"componentType":5126,
			"count":24,
			"type":"VEC3"
		},
		{
			"bufferView":18,
			"componentType":5126,
			"count":24,
			"type":"VEC2"
		},
		{
			"bufferView":19,
			"componentType":5126,
			"count":24,
			"max":[
				1.999999761581421,
				2,
				2
			],
			"min":[
				0,
				0,
				0
			],
			"type":"VEC3"
		},
		{
			"bufferView":20,
			"componentType":5126,
			"count":24,
			"type":"VEC3"
		},
		{
			"bufferView":21,
			"componentType":5126,
			"count":24,
			"type":"VEC2"
		},
		{
			"bufferView":22,
			"componentType":5126,
			"count":48,
			"max":[
				0.09999997913837433,
				2.299999952316284,
				0.625
			],
			"min":[
				0,
				0,
				0
			],
			"type":"VEC3"
		},
		{
			"bufferView":23,
			"componentType":5126,
			"count":48,
			"type":"VEC3"
		},
		{
			"bufferView":24,
			"componentType":5126,
			"count":48,
			"type":"VEC2"
		},
		{
			"bufferView":25,
			"componentType":5123,
			"count":96,
			"type":"SCALAR"
		},
		{
			"bufferView":26,
			"componentType":5126,
			"count":48,
			"max":[
				0.10000001639127731,
				2.3000001907348633,
				0
			],
			"min":[
				1.1920929132713809e-08,
				0,
				-2.120000123977661
			],
			"type":"VEC3"
		},
		{
			"bufferView":27,
			"componentType":5126,
			"count":48,
			"type":"VEC3"
		},
		{
			"bufferView":28,
			"componentType":5126,
			"count":48,
			"type":"VEC2"
		},
		{
			"bufferView":29,
			"componentType":5123,
			"count":96,
			"type":"SCALAR"
		},
		{
			"bufferView":30,
			"componentType":5126,
			"count":24,
			"max":[
				0.04999999701976776,
				1.1208524703979492,
				1.0600000619888306
			],
			"min":[
				-0.05000000819563866,
				-1.1750001907348633,
				-1.0600000619888306
			],
			"type":"VEC3"
		},
		{
			"bufferView":31,
			"componentType":5126,
			"count":24,
			"type":"VEC3"
		},
		{
			"bufferView":32,
			"componentType":5126,
			"count":24,
			"type":"VEC2"
		},
		{
			"bufferView":33,
			"componentType":5123,
			"count":36,
			"type":"SCALAR"
		},
		{
			"bufferView":34,
			"componentType":5126,
			"count":24,
			"max":[
				0.9999998807907104,
				0.9230771064758301,
				1.000000238418579
			],
			"min":[
				-1.0000001192092896,
				-0.9230773448944092,
				-1
			],
			"type":"VEC3"
		},
		{
			"bufferView":35,
			"componentType":5126,
			"count":24,
			"type":"VEC3"
		},
		{
			"bufferView":36,
			"componentType":5126,
			"count":24,
			"type":"VEC2"
		},
		{
			"bufferView":37,
			"componentType":5126,
			"count":112,
			"max":[
				0.09999999403953552,
				2.299999952316284,
				3.75
			],
			"min":[
				0,
				0,
				0
			],
			"type":"VEC3"
		},
		{
			"bufferView":38,
			"componentType":5126,
			"count":112,
			"type":"VEC3"
		},
		{
			"bufferView":39,
			"componentType":5126,
			"count":112,
			"type":"VEC2"
		},
		{
			"bufferView":40,
			"componentType":5123,
			"count":264,
			"type":"SCALAR"
		},
		{
			"bufferView":41,
			"componentType":5126,
			"count":24,
			"max":[
				0.060000188648700714,
				2.299999952316284,
				3.75
			],
			"min":[
				0.04000019282102585,
				0,
				0
			],
			"type":"VEC3"
		},
		{
			"bufferView":42,
			"componentType":5126,
			"count":24,
			"type":"VEC3"
		},
		{
			"bufferView":43,
			"componentType":5126,
			"count":24,
			"type":"VEC2"
		},
		{
			"bufferView":44,
			"componentType":5123,
			"count":36,
			"type":"SCALAR"
		},
		{
			"bufferView":45,
			"componentType":5126,
			"count":80,
			"max":[
				7.105427357601002e-15,
				1.500000238418579,
				2
			],
			"min":[
				-0.10000038146972656,
				0,
				0
			],
			"type":"VEC3"
		},
		{
			"bufferView":46,
			"componentType":5126,
			"count":80,
			"type":"VEC3"
		},
		{
			"bufferView":47,
			"componentType":5126,
			"count":80,
			"type":"VEC2"
		},
		{
			"bufferView":48,
			"componentType":5123,
			"count":180,
			"type":"SCALAR"
		},
		{
			"bufferView":49,
			"componentType":5126,
			"count":24,
			"max":[
				-0.039999961853027344,
				1.500000238418579,
				2
			],
			"min":[
				-0.06000041961669922,
				0,
				0
			],
			"type":"VEC3"
		},
		{
			"bufferView":50,
			"componentType":5126,
			"count":24,
			"type":"VEC3"
		},
		{
			"bufferView":51,
			"componentType":5126,
			"count":24,
			"type":"VEC2"
		},
		{
			"bufferView":52,
			"componentType":5126,
			"count":112,
			"max":[
				0,
				1.500000238418579,
				3.25
			],
			"min":[
				-0.10000038146972656,
				0,
				0
			],
			"type":"VEC3"
		},
		{
			"bufferView":53,
			"componentType":5126,
			"count":112,
			"type":"VEC3"
		},
		{
			"bufferView":54,
			"componentType":5126,
			"count":112,
			"type":"VEC2"
		},
		{
			"bufferView":55,
			"componentType":5126,
			"count":24,
			"max":[
				-0.039999961853027344,
				1.500000238418579,
				3.25
			],
			"min":[
				-0.06000041961669922,
				0,
				0
			],
			"type":"VEC3"
		},
		{
			"bufferView":56,
			"componentType":5126,
			"count":24,
			"type":"VEC3"
		},
		{
			"bufferView":57,
			"componentType":5126,
			"count":24,
			"type":"VEC2"
		},
		{
			"bufferView":58,
			"componentType":5126,
			"count":80,
			"max":[
				7.105427357601002e-15,
				1.500000238418579,
				2.5
			],
			"min":[
				-0.10000038146972656,
				0,
				0
			],
			"type":"VEC3"
		},
		{
			"bufferView":59,
			"componentType":5126,
			"count":80,
			"type":"VEC3"
		},
		{
			"bufferView":60,
			"componentType":5126,
			"count":80,
			"type":"VEC2"
		},
		{
			"bufferView":61,
			"componentType":5126,
			"count":24,
			"max":[
				-0.039999961853027344,
				1.500000238418579,
				2.5
			],
			"min":[
				-0.06000041961669922,
				0,
				0
			],
			"type":"VEC3"
		},
		{
			"bufferView":62,
			"componentType":5126,
			"count":24,
			"type":"VEC3"
		},
		{
			"bufferView":63,
			"componentType":5126,
			"count":24,
			"type":"VEC2"
		},
		{
			"bufferView":64,
			"componentType":5126,
			"count":48,
			"max":[
				0.04999999701976776,
				0.7249999642372131,
				0.75
			],
			"min":[
				-0.04999999701976776,
				-0.7749999761581421,
				-0.75
			],
			"type":"VEC3"
		},
		{
			"bufferView":65,
			"componentType":5126,
			"count":48,
			"type":"VEC3"
		},
		{
			"bufferView":66,
			"componentType":5126,
			"count":48,
			"type":"VEC2"
		},
		{
			"bufferView":67,
			"componentType":5123,
			"count":96,
			"type":"SCALAR"
		}
	],
	"bufferViews":[
		{
			"buffer":0,
			"byteLength":17304,
			"byteOffset":0,
			"target":34962
		},
		{
			"buffer":0,
			"byteLength":17304,
			"byteOffset":17304,
			"target":34962
		},
		{
			"buffer":0,
			"byteLength":11536,
			"byteOffset":34608,
			"target":34962
		},
		{
			"buffer":0,
			"byteLength":4632,
			"byteOffset":46144,
			"target":34963
		},
		{
			"buffer":0,
			"byteLength":1728,
			"byteOffset":50776,
			"target":34962
		},
		{
			"buffer":0,
			"byteLength":1728,
			"byteOffset":52504,
			"target":34962
		},
		{
			"buffer":0,
			"byteLength":1152,
			"byteOffset":54232,
			"target":34962
		},
		{
			"buffer":0,
			"byteLength":576,
			"byteOffset":55384,
			"target":34963
		},
		{
			"buffer":0,
			"byteLength":864,
			"byteOffset":55960,
			"target":34962
		},
		{
			"buffer":0,
			"byteLength":864,
			"byteOffset":56824,
			"target":34962
		},
		{
			"buffer":0,
			"byteLength":576,
			"byteOffset":57688,
			"target":34962
		},
		{
			"buffer":0,
			"byteLength":216,
			"byteOffset":58264,
			"target":34963
		},
		{
			"buffer":0,
			"byteLength":288,
			"byteOffset":58480,
			"target":34962
		},
		{
			"buffer":0,
			"byteLength":288,
			"byteOffset":58768,
			"target":34962
		},
		{
			"buffer":0,
			"byteLength":192,
			"byteOffset":59056,
			"target":34962
		},
		{
			"buffer":0,
			"byteLength":72,
			"byteOffset":59248,
			"target":34963
		},
		{
			"buffer":0,
			"byteLength":288,
			"byteOffset":59320,
			"target":34962
		},
		{
			"buffer":0,
			"byteLength":288,
			"byteOffset":59608,
			"target":34962
		},
		{
			"buffer":0,
			"byteLength":192,
			"byteOffset":59896,
			"target":34962
		},
		{
			"buffer":0,
			"byteLength":288,
			"byteOffset":60088,
			"target":34962
		},
		{
			"buffer":0,
			"byteLength":288,
			"byteOffset":60376,
			"target":34962
		},
		{
			"buffer":0,
			"byteLength":192,
			"byteOffset":60664,
			"target":34962
		},
		{
			"buffer":0,
			"byteLength":576,
			"byteOffset":60856,
			"target":34962
		},
		{
			"buffer":0,
			"byteLength":576,
			"byteOffset":61432,
			"target":34962
		},
		{
			"buffer":0,
			"byteLength":384,
			"byteOffset":62008,
			"target":34962
		},
		{
			"buffer":0,
			"byteLength":192,
			"byteOffset":62392,
			"target":34963
		},
		{
			"buffer":0,
			"byteLength":576,
			"byteOffset":62584,
			"target":34962
		},
		{
			"buffer":0,
			"byteLength":576,
			"byteOffset":63160,
			"target":34962
		},
		{
			"buffer":0,
			"byteLength":384,
			"byteOffset":63736,
			"target":34962
		},
		{
			"buffer":0,
			"byteLength":192,
			"byteOffset":64120,
			"target":34963
		},
		{
			"buffer":0,
			"byteLength":288,
			"byteOffset":64312,
			"target":34962
		},
		{
			"buffer":0,
			"byteLength":288,
			"byteOffset":64600,
			"target":34962
		},
		{
			"buffer":0,
			"byteLength":192,
			"byteOffset":64888,
			"target":34962
		},
		{
			"buffer":0,
			"byteLength":72,
			"byteOffset":65080,
			"target":34963
		},
		{
			"buffer":0,
			"byteLength":288,
			"byteOffset":65152,
			"target":34962
		},
		{
			"buffer":0,
			"byteLength":288,
			"byteOffset":65440,
			"target":34962
		},
		{
			"buffer":0,
			"byteLength":192,
			"byteOffset":65728,
			"target":34962
		},
		{
			"buffer":0,
			"byteLength":1344,
			"byteOffset":65920,
			"target":34962
		},
		{
			"buffer":0,
			"byteLength":1344,
			"byteOffset":67264,
			"target":34962
		},
		{
			"buffer":0,
			"byteLength":896,
			"byteOffset":68608,
			"target":34962
		},
		{
			"buffer":0,
			"byteLength":528,
			"byteOffset":69504,
			"target":34963
		},
		{
			"buffer":0,
			"byteLength":288,
			"byteOffset":70032,
			"target":34962
		},
		{
			"buffer":0,
			"byteLength":288,
			"byteOffset":70320,
			"target":34962
		},
		{
			"buffer":0,
			"byteLength":192,
			"byteOffset":70608,
			"target":34962
		},
		{
			"buffer":0,
			"byteLength":72,
			"byteOffset":70800,
			"target":34963
		},
		{
			"buffer":0,
			"byteLength":960,
			"byteOffset":70872,
			"target":34962
		},
		{
			"buffer":0,
			"byteLength":960,
			"byteOffset":71832,
			"target":34962
		},
		{
			"buffer":0,
			"byteLength":640,
			"byteOffset":72792,
			"target":34962
		},
		{
			"buffer":0,
			"byteLength":360,
			"byteOffset":73432,
			"target":34963
		},
		{
			"buffer":0,
			"byteLength":288,
			"byteOffset":73792,
			"target":34962
		},
		{
			"buffer":0,
			"byteLength":288,
			"byteOffset":74080,
			"target":34962
		},
		{
			"buffer":0,
			"byteLength":192,
			"byteOffset":74368,
			"target":34962
		},
		{
			"buffer":0,
			"byteLength":1344,
			"byteOffset":74560,
			"target":34962
		},
		{
			"buffer":0,
			"byteLength":1344,
			"byteOffset":75904,
			"target":34962
		},
		{
			"buffer":0,
			"byteLength":896,
			"byteOffset":77248,
			"target":34962
		},
		{
			"buffer":0,
			"byteLength":288,
			"byteOffset":78144,
			"target":34962
		},
		{
			"buffer":0,
			"byteLength":288,
			"byteOffset":78432,
			"target":34962
		},
		{
			"buffer":0,
			"byteLength":192,
			"byteOffset":78720,
			"target":34962
		},
		{
			"buffer":0,
			"byteLength":960,
			"byteOffset":78912,
			"target":34962
		},
		{
			"buffer":0,
			"byteLength":960,
			"byteOffset":79872,
			"target":34962
		},
		{
			"buffer":0,
			"byteLength":640,
			"byteOffset":80832,
			"target":34962
		},
		{
			"buffer":0,
			"byteLength":288,
			"byteOffset":81472,
			"target":34962
		},
		{
			"buffer":0,
			"byteLength":288,
			"byteOffset":81760,
			"target":34962
		},
		{
			"buffer":0,
			"byteLength":192,
			"byteOffset":82048,
			"target":34962
		},
		{
			"buffer":0,
			"byteLength":576,
			"byteOffset":82240,
			"target":34962
		},
		{
			"buffer":0,
			"byteLength":576,
			"byteOffset":82816,
			"target":34962
		},
		{
			"buffer":0,
			"byteLength":384,
			"byteOffset":83392,
			"target":34962
		},
		{
			"buffer":0,
			"byteLength":192,
			"byteOffset":83776,
			"target":34963
		}
	],
	"samplers":[
		{
			"magFilter":9729,
			"minFilter":9987
		}
	],
	"buffers":[
		{
			"byteLength":83968,
			"uri":"OG_Fenster.bin"
		}
	]
}
