{
	"asset":{
		"generator":"Khronos glTF Blender I/O v5.1.18",
		"version":"2.0"
	},
	"extensionsUsed":[
		"KHR_materials_specular"
	],
	"scene":0,
	"scenes":[
		{
			"name":"Scene",
			"nodes":[
				0,
				1,
				2,
				3,
				4,
				5,
				6,
				7,
				8,
				9,
				10,
				11,
				12,
				13,
				14,
				15,
				16,
				17,
				18
			]
		}
	],
	"nodes":[
		{
			"mesh":0,
			"name":"_.008",
			"scale":[
				180.7771759033203,
				236.36358642578125,
				107.17752838134766
			],
			"translation":[
				23.44561767578125,
				3.1000003814697266,
				-15.406420707702637
			]
		},
		{
			"mesh":1,
			"name":"_Curve.014",
			"rotation":[
				0,
				-0.7071068286895752,
				0,
				0.7071068286895752
			],
			"scale":[
				166.7411346435547,
				111.36361694335938,
				124.99998474121094
			],
			"translation":[
				21.870121002197266,
				5.599999904632568,
				-13.434033393859863
			]
		},
		{
			"mesh":2,
			"name":"_Wand-T\u00fcren.004",
			"scale":[
				124.99998474121094,
				111.36361694335938,
				85.74066925048828
			],
			"translation":[
				24.569610595703125,
				3.1599998474121094,
				-8.064020156860352
			]
		},
		{
			"mesh":3,
			"name":"_Wand-T\u00fcren.005",
			"scale":[
				124.99998474121094,
				115.90908813476562,
				124.99998474121094
			],
			"translation":[
				22.045063018798828,
				3.1599996089935303,
				-9.515813827514648
			]
		},
		{
			"mesh":4,
			"name":"_Wand-T\u00fcren.006",
			"scale":[
				165.0552215576172,
				111.36361694335938,
				107.17868041992188
			],
			"translation":[
				25.43568229675293,
				5.599999904632568,
				-13.434037208557129
			]
		},
		{
			"mesh":5,
			"name":"Curve.067",
			"rotation":[
				0,
				0.7071067094802856,
				0,
				0.7071068286895752
			],
			"scale":[
				42.86234664916992,
				113.63634490966797,
				20.21100616455078
			],
			"translation":[
				21.870084762573242,
				3.1599998474121094,
				-8.004493713378906
			]
		},
		{
			"mesh":6,
			"name":"Curve.071",
			"translation":[
				0.800000011920929,
				3.0999999046325684,
				0.04999999701976776
			]
		},
		{
			"mesh":7,
			"name":"Curve.072",
			"scale":[
				124.99998474121094,
				151.46128845214844,
				124.99998474121094
			],
			"translation":[
				16.25092124938965,
				3.1599998474121094,
				-11.803397178649902
			]
		},
		{
			"mesh":8,
			"name":"_.009",
			"rotation":[
				0,
				0.7071068286895752,
				0,
				0.7071068286895752
			],
			"scale":[
				135.56312561035156,
				98.18179321289062,
				35.72584915161133
			],
			"translation":[
				24.604135513305664,
				3.1499998569488525,
				-13.279158592224121
			]
		},
		{
			"mesh":9,
			"name":"Curve.073",
			"scale":[
				1,
				0.943396270275116,
				0.0312500037252903
			],
			"translation":[
				21.28997230529785,
				3.1599998474121094,
				-7.444019794464111
			]
		},
		{
			"mesh":10,
			"name":"Curve.074",
			"translation":[
				21.41745376586914,
				3.1599998474121094,
				-5.364020347595215
			]
		},
		{
			"mesh":11,
			"name":"Curve.075",
			"rotation":[
				0,
				0.7071067094802856,
				0,
				0.7071068286895752
			],
			"scale":[
				42.86234664916992,
				113.63634490966797,
				27.98299217224121
			],
			"translation":[
				22.045061111450195,
				3.1599998474121094,
				-8.064494132995605
			]
		},
		{
			"mesh":12,
			"name":"_Wand-T\u00fcren.007",
			"scale":[
				124.99998474121094,
				110.90908813476562,
				124.99998474121094
			],
			"translation":[
				21.87008285522461,
				3.1599996089935303,
				-13.284034729003906
			]
		},
		{
			"mesh":13,
			"name":"Curve.076",
			"scale":[
				1,
				0.943396270275116,
				0.0312500037252903
			],
			"translation":[
				21.28997230529785,
				3.1599996089935303,
				-6.16402006149292
			]
		},
		{
			"mesh":14,
			"name":"Curve.077",
			"scale":[
				1,
				0.09056603908538818,
				0.9375000596046448
			],
			"translation":[
				21.289274215698242,
				5.432620048522949,
				-6.201273441314697
			]
		},
		{
			"mesh":15,
			"name":"Curve.078",
			"scale":[
				1,
				0.7132076025009155,
				0.9375000596046448
			],
			"translation":[
				21.28997230529785,
				3.5399999618530273,
				-6.204020023345947
			]
		},
		{
			"mesh":16,
			"name":"Curve.079",
			"scale":[
				1,
				0.14339622855186462,
				0.9375000596046448
			],
			"translation":[
				21.28997230529785,
				3.1599996089935303,
				-6.204020023345947
			]
		},
		{
			"mesh":17,
			"name":"_Curve.015",
			"rotation":[
				0,
				-0.7071068286895752,
				0,
				0.7071068286895752
			],
			"scale":[
				79.6737060546875,
				10.909088134765625,
				124.99998474121094
			],
			"translation":[
				24.570302963256836,
				5.309999465942383,
				-12.234037399291992
			]
		},
		{
			"mesh":18,
			"name":"Curve.080",
			"rotation":[
				0,
				-1,
				0,
				4.371138828673793e-08
			],
			"scale":[
				0.145833358168602,
				2.4000000953674316,
				0.626505970954895
			],
			"translation":[
				21.87008285522461,
				5.659999847412109,
				-7.944019317626953
			]
		}
	],
	"materials":[
		{
			"doubleSided":true,
			"name":"AussenPutz",
			"pbrMetallicRoughness":{
				"baseColorFactor":[
					0.7766516208648682,
					0.7766516208648682,
					0.7766516208648682,
					1
				],
				"metallicFactor":0
			}
		},
		{
			"doubleSided":true,
			"extensions":{
				"KHR_materials_specular":{
					"specularFactor":0
				}
			},
			"name":"plastic_wit",
			"pbrMetallicRoughness":{
				"baseColorFactor":[
					0.800000011920929,
					0.800000011920929,
					0.800000011920929,
					1
				],
				"metallicFactor":0
			}
		},
		{
			"doubleSided":true,
			"name":"Fichte",
			"pbrMetallicRoughness":{
				"baseColorTexture":{
					"index":0
				},
				"metallicFactor":0,
				"roughnessFactor":0.5
			}
		},
		{
			"doubleSided":true,
			"name":"ROLLO",
			"pbrMetallicRoughness":{
				"baseColorTexture":{
					"index":1
				},
				"metallicFactor":0,
				"roughnessFactor":0.5
			}
		},
		{
			"doubleSided":true,
			"name":"mdf green",
			"pbrMetallicRoughness":{
				"baseColorFactor":[
					0.162029430270195,
					0.22322800755500793,
					0.14126333594322205,
					1
				],
				"metallicFactor":0,
				"roughnessFactor":0.5
			}
		},
		{
			"doubleSided":true,
			"name":"mdf green.002",
			"pbrMetallicRoughness":{
				"baseColorFactor":[
					0.162029430270195,
					0.22322800755500793,
					0.14126333594322205,
					1
				],
				"metallicFactor":0,
				"roughnessFactor":0.5
			}
		},
		{
			"doubleSided":true,
			"name":"AussenPutz.035",
			"pbrMetallicRoughness":{
				"baseColorFactor":[
					0.7766516208648682,
					0.7766516208648682,
					0.7766516208648682,
					1
				],
				"metallicFactor":0
			}
		},
		{
			"doubleSided":true,
			"name":"AussenPutz.036",
			"pbrMetallicRoughness":{
				"baseColorFactor":[
					0.7766516208648682,
					0.7766516208648682,
					0.7766516208648682,
					1
				],
				"metallicFactor":0
			}
		},
		{
			"doubleSided":true,
			"name":"Fichte.001",
			"pbrMetallicRoughness":{
				"baseColorTexture":{
					"index":2
				},
				"metallicFactor":0,
				"roughnessFactor":0.5
			}
		}
	],
	"meshes":[
		{
			"name":"Curve.273",
			"primitives":[
				{
					"attributes":{
						"POSITION":0,
						"NORMAL":1,
						"TEXCOORD_0":2
					},
					"indices":3
				}
			]
		},
		{
			"name":"Curve.274",
			"primitives":[
				{
					"attributes":{
						"POSITION":4,
						"NORMAL":5,
						"TEXCOORD_0":6
					},
					"indices":7,
					"material":0
				}
			]
		},
		{
			"name":"Curve.275",
			"primitives":[
				{
					"attributes":{
						"POSITION":8,
						"NORMAL":9,
						"TEXCOORD_0":10
					},
					"indices":11,
					"material":0
				}
			]
		},
		{
			"name":"Curve.276",
			"primitives":[
				{
					"attributes":{
						"POSITION":12,
						"NORMAL":13,
						"TEXCOORD_0":14
					},
					"indices":15,
					"material":1
				}
			]
		},
		{
			"name":"Curve.277",
			"primitives":[
				{
					"attributes":{
						"POSITION":16,
						"NORMAL":17,
						"TEXCOORD_0":18
					},
					"indices":19,
					"material":0
				}
			]
		},
		{
			"name":"Curve.278",
			"primitives":[
				{
					"attributes":{
						"POSITION":20,
						"NORMAL":21,
						"TEXCOORD_0":22
					},
					"indices":23,
					"material":2
				}
			]
		},
		{
			"name":"Curve.279",
			"primitives":[
				{
					"attributes":{
						"POSITION":24,
						"NORMAL":25,
						"TEXCOORD_0":26
					},
					"indices":27,
					"material":0
				}
			]
		},
		{
			"name":"Curve.280",
			"primitives":[
				{
					"attributes":{
						"POSITION":28,
						"NORMAL":29,
						"TEXCOORD_0":30
					},
					"indices":31,
					"material":0
				}
			]
		},
		{
			"name":"Curve.281",
			"primitives":[
				{
					"attributes":{
						"POSITION":32,
						"NORMAL":33,
						"TEXCOORD_0":34
					},
					"indices":3,
					"material":3
				}
			]
		},
		{
			"name":"Curve.282",
			"primitives":[
				{
					"attributes":{
						"POSITION":35,
						"NORMAL":36,
						"TEXCOORD_0":37
					},
					"indices":23,
					"material":4
				}
			]
		},
		{
			"name":"Curve.283",
			"primitives":[
				{
					"attributes":{
						"POSITION":38,
						"NORMAL":39,
						"TEXCOORD_0":40
					},
					"indices":23,
					"material":2
				}
			]
		},
		{
			"name":"Curve.284",
			"primitives":[
				{
					"attributes":{
						"POSITION":41,
						"NORMAL":42,
						"TEXCOORD_0":43
					},
					"indices":23,
					"material":5
				}
			]
		},
		{
			"name":"Curve.285",
			"primitives":[
				{
					"attributes":{
						"POSITION":44,
						"NORMAL":45,
						"TEXCOORD_0":46
					},
					"indices":47,
					"material":6
				}
			]
		},
		{
			"name":"Curve.286",
			"primitives":[
				{
					"attributes":{
						"POSITION":48,
						"NORMAL":49,
						"TEXCOORD_0":50
					},
					"indices":23,
					"material":4
				}
			]
		},
		{
			"name":"Curve.287",
			"primitives":[
				{
					"attributes":{
						"POSITION":51,
						"NORMAL":52,
						"TEXCOORD_0":53
					},
					"indices":23,
					"material":4
				}
			]
		},
		{
			"name":"Curve.288",
			"primitives":[
				{
					"attributes":{
						"POSITION":54,
						"NORMAL":55,
						"TEXCOORD_0":56
					},
					"indices":23,
					"material":4
				}
			]
		},
		{
			"name":"Curve.289",
			"primitives":[
				{
					"attributes":{
						"POSITION":57,
						"NORMAL":58,
						"TEXCOORD_0":59
					},
					"indices":23,
					"material":4
				}
			]
		},
		{
			"name":"Curve.290",
			"primitives":[
				{
					"attributes":{
						"POSITION":60,
						"NORMAL":61,
						"TEXCOORD_0":62
					},
					"indices":7,
					"material":7
				}
			]
		},
		{
			"name":"Curve.291",
			"primitives":[
				{
					"attributes":{
						"POSITION":63,
						"NORMAL":64,
						"TEXCOORD_0":65
					},
					"indices":66,
					"material":8
				}
			]
		}
	],
	"textures":[
		{
			"sampler":0,
			"source":0
		},
		{
			"sampler":1,
			"source":1
		},
		{
			"sampler":0,
			"source":2
		}
	],
	"images":[
		{
			"mimeType":"image/jpeg",
			"name":"spruce-knotty_random_match",
			"uri":"spruce-knotty_random_match.jpg"
		},
		{
			"mimeType":"image/png",
			"name":"Screenshot 2026-06-26 090935",
			"uri":"Screenshot%202026-06-26%20090935.png"
		},
		{
			"mimeType":"image/jpeg",
			"name":"spruce-knotty_random_match.jpg",
			"uri":"spruce-knotty_random_match.jpg.jpg"
		}
	],
	"accessors":[
		{
			"bufferView":0,
			"componentType":5126,
			"count":24,
			"max":[
				0,
				0.019463295117020607,
				0
			],
			"min":[
				-0.0077454689890146255,
				0,
				-0.0013995469780638814
			],
			"type":"VEC3"
		},
		{
			"bufferView":1,
			"componentType":5126,
			"count":24,
			"type":"VEC3"
		},
		{
			"bufferView":2,
			"componentType":5126,
			"count":24,
			"type":"VEC2"
		},
		{
			"bufferView":3,
			"componentType":5123,
			"count":36,
			"type":"SCALAR"
		},
		{
			"bufferView":4,
			"componentType":5126,
			"count":24,
			"max":[
				0,
				1.862645149230957e-09,
				0
			],
			"min":[
				-0.013178750872612,
				-0.02200000174343586,
				-0.0013995319604873657
			],
			"type":"VEC3"
		},
		{
			"bufferView":5,
			"componentType":5126,
			"count":24,
			"type":"VEC3"
		},
		{
			"bufferView":6,
			"componentType":5126,
			"count":24,
			"type":"VEC2"
		},
		{
			"bufferView":7,
			"componentType":5123,
			"count":36,
			"type":"SCALAR"
		},
		{
			"bufferView":8,
			"componentType":5126,
			"count":48,
			"max":[
				-1.4901161193847656e-08,
				0.022000005468726158,
				0.0013995766639709473
			],
			"min":[
				-0.020196398720145226,
				1.862645149230957e-09,
				7.450580596923828e-09
			],
			"type":"VEC3"
		},
		{
			"bufferView":9,
			"componentType":5126,
			"count":48,
			"type":"VEC3"
		},
		{
			"bufferView":10,
			"componentType":5126,
			"count":48,
			"type":"VEC2"
		},
		{
			"bufferView":11,
			"componentType":5123,
			"count":84,
			"type":"SCALAR"
		},
		{
			"bufferView":12,
			"componentType":5126,
			"count":48,
			"max":[
				0,
				0.02199999801814556,
				0.012570559047162533
			],
			"min":[
				-0.0013998448848724365,
				-1.8626449271863521e-09,
				0
			],
			"type":"VEC3"
		},
		{
			"bufferView":13,
			"componentType":5126,
			"count":48,
			"type":"VEC3"
		},
		{
			"bufferView":14,
			"componentType":5126,
			"count":48,
			"type":"VEC2"
		},
		{
			"bufferView":15,
			"componentType":5123,
			"count":96,
			"type":"SCALAR"
		},
		{
			"bufferView":16,
			"componentType":5126,
			"count":48,
			"max":[
				2.7567148208618164e-06,
				1.862645149230957e-09,
				0.0013995543122291565
			],
			"min":[
				-0.021601764485239983,
				-0.02200000174343586,
				2.2351741790771484e-08
			],
			"type":"VEC3"
		},
		{
			"bufferView":17,
			"componentType":5126,
			"count":48,
			"type":"VEC3"
		},
		{
			"bufferView":18,
			"componentType":5126,
			"count":48,
			"type":"VEC2"
		},
		{
			"bufferView":19,
			"componentType":5123,
			"count":96,
			"type":"SCALAR"
		},
		{
			"bufferView":20,
			"componentType":5126,
			"count":24,
			"max":[
				1.4901161193847656e-08,
				0.022000005468726158,
				0
			],
			"min":[
				-0.0013998150825500488,
				1.862645149230957e-09,
				-0.022513674572110176
			],
			"type":"VEC3"
		},
		{
			"bufferView":21,
			"componentType":5126,
			"count":24,
			"type":"VEC3"
		},
		{
			"bufferView":22,
			"componentType":5126,
			"count":24,
			"type":"VEC2"
		},
		{
			"bufferView":23,
			"componentType":5123,
			"count":36,
			"type":"SCALAR"
		},
		{
			"bufferView":24,
			"componentType":5126,
			"count":24,
			"max":[
				21.07008171081543,
				4.561585426330566,
				-9.558450698852539
			],
			"min":[
				15.450216293334961,
				0,
				-9.733397483825684
			],
			"type":"VEC3"
		},
		{
			"bufferView":25,
			"componentType":5126,
			"count":24,
			"type":"VEC3"
		},
		{
			"bufferView":26,
			"componentType":5126,
			"count":24,
			"type":"VEC2"
		},
		{
			"bufferView":27,
			"componentType":5123,
			"count":36,
			"type":"SCALAR"
		},
		{
			"bufferView":28,
			"componentType":5126,
			"count":48,
			"max":[
				0.04506335407495499,
				0.016109729185700417,
				4.470348358154297e-08
			],
			"min":[
				0,
				1.8626450382086546e-09,
				-0.0009593591094017029
			],
			"type":"VEC3"
		},
		{
			"bufferView":29,
			"componentType":5126,
			"count":48,
			"type":"VEC3"
		},
		{
			"bufferView":30,
			"componentType":5126,
			"count":48,
			"type":"VEC2"
		},
		{
			"bufferView":31,
			"componentType":5123,
			"count":72,
			"type":"SCALAR"
		},
		{
			"bufferView":32,
			"componentType":5126,
			"count":24,
			"max":[
				-1.4901161193847656e-08,
				0.022000005468726158,
				0.0013995468616485596
			],
			"min":[
				-0.007745483890175819,
				1.862645149230957e-09,
				0
			],
			"type":"VEC3"
		},
		{
			"bufferView":33,
			"componentType":5126,
			"count":24,
			"type":"VEC3"
		},
		{
			"bufferView":34,
			"componentType":5126,
			"count":24,
			"type":"VEC2"
		},
		{
			"bufferView":35,
			"componentType":5126,
			"count":24,
			"max":[
				0,
				2.6499996185302734,
				1.2800003290176392
			],
			"min":[
				-0.5999999642372131,
				-2.2436400115566357e-07,
				4.235978963151865e-07
			],
			"type":"VEC3"
		},
		{
			"bufferView":36,
			"componentType":5126,
			"count":24,
			"type":"VEC3"
		},
		{
			"bufferView":37,
			"componentType":5126,
			"count":24,
			"type":"VEC2"
		},
		{
			"bufferView":38,
			"componentType":5126,
			"count":24,
			"max":[
				1.277397473131714e-06,
				2.500000238418579,
				0
			],
			"min":[
				-0.11999871581792831,
				2.11664186622329e-07,
				-2.700000047683716
			],
			"type":"VEC3"
		},
		{
			"bufferView":39,
			"componentType":5126,
			"count":24,
			"type":"VEC3"
		},
		{
			"bufferView":40,
			"componentType":5126,
			"count":24,
			"type":"VEC2"
		},
		{
			"bufferView":41,
			"componentType":5126,
			"count":24,
			"max":[
				1.4901161193847656e-08,
				0.022000005468726158,
				0
			],
			"min":[
				-0.0013998150825500488,
				1.862645149230957e-09,
				-0.022513674572110176
			],
			"type":"VEC3"
		},
		{
			"bufferView":42,
			"componentType":5126,
			"count":24,
			"type":"VEC3"
		},
		{
			"bufferView":43,
			"componentType":5126,
			"count":24,
			"type":"VEC2"
		},
		{
			"bufferView":44,
			"componentType":5126,
			"count":48,
			"max":[
				0.0013998448848724365,
				0.02200000174343586,
				0.03014577180147171
			],
			"min":[
				0,
				0,
				0
			],
			"type":"VEC3"
		},
		{
			"bufferView":45,
			"componentType":5126,
			"count":48,
			"type":"VEC3"
		},
		{
			"bufferView":46,
			"componentType":5126,
			"count":48,
			"type":"VEC2"
		},
		{
			"bufferView":47,
			"componentType":5123,
			"count":96,
			"type":"SCALAR"
		},
		{
			"bufferView":48,
			"componentType":5126,
			"count":24,
			"max":[
				0,
				2.6499998569488525,
				1.5497207641601562e-06
			],
			"min":[
				-0.5999999642372131,
				1.4054577945898927e-08,
				-1.2799983024597168
			],
			"type":"VEC3"
		},
		{
			"bufferView":49,
			"componentType":5126,
			"count":24,
			"type":"VEC3"
		},
		{
			"bufferView":50,
			"componentType":5126,
			"count":24,
			"type":"VEC2"
		},
		{
			"bufferView":51,
			"componentType":5126,
			"count":24,
			"max":[
				0,
				2.6499998569488525,
				1.5497207641601562e-06
			],
			"min":[
				-0.5999999642372131,
				1.4054577945898927e-08,
				-1.2799983024597168
			],
			"type":"VEC3"
		},
		{
			"bufferView":52,
			"componentType":5126,
			"count":24,
			"type":"VEC3"
		},
		{
			"bufferView":53,
			"componentType":5126,
			"count":24,
			"type":"VEC2"
		},
		{
			"bufferView":54,
			"componentType":5126,
			"count":24,
			"max":[
				0,
				2.6499998569488525,
				1.5497207641601562e-06
			],
			"min":[
				-0.5999999642372131,
				1.4054577945898927e-08,
				-1.2799983024597168
			],
			"type":"VEC3"
		},
		{
			"bufferView":55,
			"componentType":5126,
			"count":24,
			"type":"VEC3"
		},
		{
			"bufferView":56,
			"componentType":5126,
			"count":24,
			"type":"VEC2"
		},
		{
			"bufferView":57,
			"componentType":5126,
			"count":24,
			"max":[
				0,
				2.6499998569488525,
				1.5497207641601562e-06
			],
			"min":[
				-0.5999999642372131,
				1.4054577945898927e-08,
				-1.2799983024597168
			],
			"type":"VEC3"
		},
		{
			"bufferView":58,
			"componentType":5126,
			"count":24,
			"type":"VEC3"
		},
		{
			"bufferView":59,
			"componentType":5126,
			"count":24,
			"type":"VEC2"
		},
		{
			"bufferView":60,
			"componentType":5126,
			"count":24,
			"max":[
				0,
				0.022000018507242203,
				0
			],
			"min":[
				-0.013178750872612,
				1.30385160446167e-08,
				-0.0013995319604873657
			],
			"type":"VEC3"
		},
		{
			"bufferView":61,
			"componentType":5126,
			"count":24,
			"type":"VEC3"
		},
		{
			"bufferView":62,
			"componentType":5126,
			"count":24,
			"type":"VEC2"
		},
		{
			"bufferView":63,
			"componentType":5126,
			"count":24,
			"max":[
				-1.0027105190602015e-06,
				0.10000000894069672,
				-5.2453660970286364e-08
			],
			"min":[
				-1.2000007629394531,
				1.4457119945632257e-08,
				-4.150000095367432
			],
			"type":"VEC3"
		},
		{
			"bufferView":64,
			"componentType":5126,
			"count":24,
			"type":"VEC3"
		},
		{
			"bufferView":65,
			"componentType":5126,
			"count":24,
			"type":"VEC2"
		},
		{
			"bufferView":66,
			"componentType":5123,
			"count":36,
			"type":"SCALAR"
		}
	],
	"bufferViews":[
		{
			"buffer":0,
			"byteLength":288,
			"byteOffset":0,
			"target":34962
		},
		{
			"buffer":0,
			"byteLength":288,
			"byteOffset":288,
			"target":34962
		},
		{
			"buffer":0,
			"byteLength":192,
			"byteOffset":576,
			"target":34962
		},
		{
			"buffer":0,
			"byteLength":72,
			"byteOffset":768,
			"target":34963
		},
		{
			"buffer":0,
			"byteLength":288,
			"byteOffset":840,
			"target":34962
		},
		{
			"buffer":0,
			"byteLength":288,
			"byteOffset":1128,
			"target":34962
		},
		{
			"buffer":0,
			"byteLength":192,
			"byteOffset":1416,
			"target":34962
		},
		{
			"buffer":0,
			"byteLength":72,
			"byteOffset":1608,
			"target":34963
		},
		{
			"buffer":0,
			"byteLength":576,
			"byteOffset":1680,
			"target":34962
		},
		{
			"buffer":0,
			"byteLength":576,
			"byteOffset":2256,
			"target":34962
		},
		{
			"buffer":0,
			"byteLength":384,
			"byteOffset":2832,
			"target":34962
		},
		{
			"buffer":0,
			"byteLength":168,
			"byteOffset":3216,
			"target":34963
		},
		{
			"buffer":0,
			"byteLength":576,
			"byteOffset":3384,
			"target":34962
		},
		{
			"buffer":0,
			"byteLength":576,
			"byteOffset":3960,
			"target":34962
		},
		{
			"buffer":0,
			"byteLength":384,
			"byteOffset":4536,
			"target":34962
		},
		{
			"buffer":0,
			"byteLength":192,
			"byteOffset":4920,
			"target":34963
		},
		{
			"buffer":0,
			"byteLength":576,
			"byteOffset":5112,
			"target":34962
		},
		{
			"buffer":0,
			"byteLength":576,
			"byteOffset":5688,
			"target":34962
		},
		{
			"buffer":0,
			"byteLength":384,
			"byteOffset":6264,
			"target":34962
		},
		{
			"buffer":0,
			"byteLength":192,
			"byteOffset":6648,
			"target":34963
		},
		{
			"buffer":0,
			"byteLength":288,
			"byteOffset":6840,
			"target":34962
		},
		{
			"buffer":0,
			"byteLength":288,
			"byteOffset":7128,
			"target":34962
		},
		{
			"buffer":0,
			"byteLength":192,
			"byteOffset":7416,
			"target":34962
		},
		{
			"buffer":0,
			"byteLength":72,
			"byteOffset":7608,
			"target":34963
		},
		{
			"buffer":0,
			"byteLength":288,
			"byteOffset":7680,
			"target":34962
		},
		{
			"buffer":0,
			"byteLength":288,
			"byteOffset":7968,
			"target":34962
		},
		{
			"buffer":0,
			"byteLength":192,
			"byteOffset":8256,
			"target":34962
		},
		{
			"buffer":0,
			"byteLength":72,
			"byteOffset":8448,
			"target":34963
		},
		{
			"buffer":0,
			"byteLength":576,
			"byteOffset":8520,
			"target":34962
		},
		{
			"buffer":0,
			"byteLength":576,
			"byteOffset":9096,
			"target":34962
		},
		{
			"buffer":0,
			"byteLength":384,
			"byteOffset":9672,
			"target":34962
		},
		{
			"buffer":0,
			"byteLength":144,
			"byteOffset":10056,
			"target":34963
		},
		{
			"buffer":0,
			"byteLength":288,
			"byteOffset":10200,
			"target":34962
		},
		{
			"buffer":0,
			"byteLength":288,
			"byteOffset":10488,
			"target":34962
		},
		{
			"buffer":0,
			"byteLength":192,
			"byteOffset":10776,
			"target":34962
		},
		{
			"buffer":0,
			"byteLength":288,
			"byteOffset":10968,
			"target":34962
		},
		{
			"buffer":0,
			"byteLength":288,
			"byteOffset":11256,
			"target":34962
		},
		{
			"buffer":0,
			"byteLength":192,
			"byteOffset":11544,
			"target":34962
		},
		{
			"buffer":0,
			"byteLength":288,
			"byteOffset":11736,
			"target":34962
		},
		{
			"buffer":0,
			"byteLength":288,
			"byteOffset":12024,
			"target":34962
		},
		{
			"buffer":0,
			"byteLength":192,
			"byteOffset":12312,
			"target":34962
		},
		{
			"buffer":0,
			"byteLength":288,
			"byteOffset":12504,
			"target":34962
		},
		{
			"buffer":0,
			"byteLength":288,
			"byteOffset":12792,
			"target":34962
		},
		{
			"buffer":0,
			"byteLength":192,
			"byteOffset":13080,
			"target":34962
		},
		{
			"buffer":0,
			"byteLength":576,
			"byteOffset":13272,
			"target":34962
		},
		{
			"buffer":0,
			"byteLength":576,
			"byteOffset":13848,
			"target":34962
		},
		{
			"buffer":0,
			"byteLength":384,
			"byteOffset":14424,
			"target":34962
		},
		{
			"buffer":0,
			"byteLength":192,
			"byteOffset":14808,
			"target":34963
		},
		{
			"buffer":0,
			"byteLength":288,
			"byteOffset":15000,
			"target":34962
		},
		{
			"buffer":0,
			"byteLength":288,
			"byteOffset":15288,
			"target":34962
		},
		{
			"buffer":0,
			"byteLength":192,
			"byteOffset":15576,
			"target":34962
		},
		{
			"buffer":0,
			"byteLength":288,
			"byteOffset":15768,
			"target":34962
		},
		{
			"buffer":0,
			"byteLength":288,
			"byteOffset":16056,
			"target":34962
		},
		{
			"buffer":0,
			"byteLength":192,
			"byteOffset":16344,
			"target":34962
		},
		{
			"buffer":0,
			"byteLength":288,
			"byteOffset":16536,
			"target":34962
		},
		{
			"buffer":0,
			"byteLength":288,
			"byteOffset":16824,
			"target":34962
		},
		{
			"buffer":0,
			"byteLength":192,
			"byteOffset":17112,
			"target":34962
		},
		{
			"buffer":0,
			"byteLength":288,
			"byteOffset":17304,
			"target":34962
		},
		{
			"buffer":0,
			"byteLength":288,
			"byteOffset":17592,
			"target":34962
		},
		{
			"buffer":0,
			"byteLength":192,
			"byteOffset":17880,
			"target":34962
		},
		{
			"buffer":0,
			"byteLength":288,
			"byteOffset":18072,
			"target":34962
		},
		{
			"buffer":0,
			"byteLength":288,
			"byteOffset":18360,
			"target":34962
		},
		{
			"buffer":0,
			"byteLength":192,
			"byteOffset":18648,
			"target":34962
		},
		{
			"buffer":0,
			"byteLength":288,
			"byteOffset":18840,
			"target":34962
		},
		{
			"buffer":0,
			"byteLength":288,
			"byteOffset":19128,
			"target":34962
		},
		{
			"buffer":0,
			"byteLength":192,
			"byteOffset":19416,
			"target":34962
		},
		{
			"buffer":0,
			"byteLength":72,
			"byteOffset":19608,
			"target":34963
		}
	],
	"samplers":[
		{
			"magFilter":9729,
			"minFilter":9987,
			"wrapS":33648,
			"wrapT":33648
		},
		{
			"magFilter":9729,
			"minFilter":9987
		}
	],
	"buffers":[
		{
			"byteLength":19680,
			"uri":"OG_Innenw%C3%A4nde.bin"
		}
	]
}
