{
	"asset":{
		"generator":"Khronos glTF Blender I/O v5.1.18",
		"version":"2.0"
	},
	"extensionsUsed":[
		"KHR_materials_specular",
		"KHR_materials_ior"
	],
	"scene":0,
	"scenes":[
		{
			"name":"Scene",
			"nodes":[
				0,
				1,
				2,
				3,
				4,
				5,
				6,
				7,
				8,
				9,
				10,
				11,
				12,
				13,
				14,
				15,
				16,
				17,
				18,
				19,
				20,
				21,
				22,
				23,
				24
			]
		}
	],
	"nodes":[
		{
			"mesh":0,
			"name":"3d-model.004",
			"rotation":[
				0.7057693600654602,
				0.043469298630952835,
				-0.043469298630952835,
				0.705769419670105
			],
			"scale":[
				0.02663411572575569,
				0.02663411572575569,
				0.02663411572575569
			],
			"translation":[
				22.791078567504883,
				3.1599998474121094,
				-6.54276704788208
			]
		},
		{
			"mesh":1,
			"name":"3d-model.005",
			"rotation":[
				0.5494104027748108,
				-0.44513845443725586,
				0.4451383948326111,
				0.5494104027748108
			],
			"scale":[
				0.02663411758840084,
				0.02663411758840084,
				0.02663411572575569
			],
			"translation":[
				17.148311614990234,
				3.1599998474121094,
				-8.10045337677002
			]
		},
		{
			"mesh":2,
			"name":"3d-model.006",
			"rotation":[
				0.6618314385414124,
				-0.24895600974559784,
				0.24895599484443665,
				0.6618314981460571
			],
			"scale":[
				0.02663411758840084,
				0.02663411758840084,
				0.02663411572575569
			],
			"translation":[
				18.210798263549805,
				3.1000001430511475,
				-9.173270225524902
			]
		},
		{
			"mesh":3,
			"name":"3d-model.007",
			"rotation":[
				0.6432307958602905,
				-0.29369062185287476,
				0.29369059205055237,
				0.6432307958602905
			],
			"scale":[
				0.026634113863110542,
				0.026634113863110542,
				0.02663411572575569
			],
			"translation":[
				23.936485290527344,
				3.0999999046325684,
				-6.130306243896484
			]
		},
		{
			"mesh":4,
			"name":"Curve.050",
			"rotation":[
				0,
				-0.7071067094802856,
				0,
				0.7071068286895752
			],
			"translation":[
				17.147518157958984,
				3.109999895095825,
				-14.83281421661377
			]
		},
		{
			"mesh":5,
			"name":"Curve.051",
			"rotation":[
				0,
				-0.7071067094802856,
				0,
				0.7071068286895752
			],
			"translation":[
				16.99401092529297,
				3.109999895095825,
				-13.016992568969727
			]
		},
		{
			"mesh":6,
			"name":"_Curve.010",
			"scale":[
				1,
				1.1041665077209473,
				1
			],
			"translation":[
				21.28997230529785,
				3.1599996089935303,
				-8.064020156860352
			]
		},
		{
			"mesh":7,
			"name":"_Curve.011",
			"rotation":[
				0,
				-1,
				0,
				4.371138828673793e-08
			],
			"scale":[
				156.22747802734375,
				3.1046431064605713,
				113.26176452636719
			],
			"translation":[
				21.417457580566406,
				3.869999885559082,
				-5.364020347595215
			]
		},
		{
			"mesh":8,
			"name":"_Curve.012",
			"rotation":[
				0,
				-1,
				0,
				4.371138828673793e-08
			],
			"scale":[
				124.99998474121094,
				3.1046431064605713,
				113.26176452636719
			],
			"translation":[
				21.417455673217773,
				5.010799884796143,
				-5.364021301269531
			]
		},
		{
			"mesh":9,
			"name":"Curve.052",
			"rotation":[
				0,
				0.7071068286895752,
				0,
				0.7071068286895752
			],
			"scale":[
				324.24310302734375,
				124.99998474121094,
				93.75626373291016
			],
			"translation":[
				16.250219345092773,
				3.869999647140503,
				-9.508450508117676
			]
		},
		{
			"mesh":10,
			"name":"Curve.053",
			"translation":[
				22.167457580566406,
				3.9099998474121094,
				-5.364021301269531
			]
		},
		{
			"mesh":11,
			"name":"Curve.054",
			"scale":[
				111.15972137451172,
				124.99998474121094,
				128.2410125732422
			],
			"translation":[
				23.56897735595703,
				3.1599998474121094,
				-11.937204360961914
			]
		},
		{
			"mesh":12,
			"name":"Curve.055",
			"scale":[
				67.19351196289062,
				97.72724914550781,
				124.99998474121094
			],
			"translation":[
				19.282337188720703,
				3.166909694671631,
				-9.725319862365723
			]
		},
		{
			"mesh":13,
			"name":"Curve.056",
			"scale":[
				124.99998474121094,
				124.99998474121094,
				124.99998474121094
			],
			"translation":[
				20.849956512451172,
				3.3849997520446777,
				-14.388693809509277
			]
		},
		{
			"mesh":14,
			"name":"Heizk\u00f6rper.002",
			"scale":[
				0.02250000089406967,
				0.7999997735023499,
				0.014999999664723873
			],
			"translation":[
				24.40804100036621,
				4.357997417449951,
				-16.539714813232422
			]
		},
		{
			"mesh":15,
			"name":"Curve.057",
			"scale":[
				124.99998474121094,
				124.99998474121094,
				124.99998474121094
			],
			"translation":[
				23.38337516784668,
				3.0999999046325684,
				-9.57890796661377
			]
		},
		{
			"mesh":16,
			"name":"Curve.058",
			"scale":[
				124.99998474121094,
				124.99998474121094,
				124.99998474121094
			],
			"translation":[
				23.38337516784668,
				3.0999999046325684,
				-8.64669418334961
			]
		},
		{
			"mesh":17,
			"name":"_Curve.014",
			"rotation":[
				0,
				-1,
				0,
				4.371138828673793e-08
			],
			"scale":[
				124.99998474121094,
				3.1046431064605713,
				113.26176452636719
			],
			"translation":[
				21.417455673217773,
				5.41874361038208,
				-5.364020347595215
			]
		},
		{
			"mesh":18,
			"name":"3d-model.009",
			"rotation":[
				0.6155532002449036,
				0.34798598289489746,
				-0.3479859530925751,
				0.6155532598495483
			],
			"scale":[
				0.026634113863110542,
				0.026634113863110542,
				0.02663411572575569
			],
			"translation":[
				16.67410659790039,
				3.0999999046325684,
				-11.496390342712402
			]
		},
		{
			"mesh":19,
			"name":"Kleiderschrank_202.001",
			"scale":[
				44.94400405883789,
				97.72724914550781,
				124.99998474121094
			],
			"translation":[
				19.2936954498291,
				3.16690993309021,
				-9.725319862365723
			]
		},
		{
			"mesh":20,
			"name":"Curve.059",
			"rotation":[
				0,
				-0.7071068286895752,
				0,
				0.7071068286895752
			],
			"scale":[
				28.125885009765625,
				180.55552673339844,
				388.9903869628906
			],
			"translation":[
				21.86311912536621,
				3.999999761581421,
				-16.581708908081055
			]
		},
		{
			"mesh":21,
			"name":"30\"Screen.002",
			"rotation":[
				0,
				0.774924635887146,
				0,
				0.6320536136627197
			],
			"scale":[
				0.3536593019962311,
				0.3536593019962311,
				0.3536593019962311
			],
			"translation":[
				21.56424903869629,
				3.9099998474121094,
				-6.362257957458496
			]
		},
		{
			"mesh":22,
			"name":"Curve.060",
			"scale":[
				442.9109191894531,
				119.9999771118164,
				35.533958435058594
			],
			"translation":[
				21.297454833984375,
				3.1599998474121094,
				-5.364020347595215
			]
		},
		{
			"mesh":23,
			"name":"ID5.001",
			"rotation":[
				0,
				-0.7071068286895752,
				0.7071068286895752,
				3.090862321641907e-08
			],
			"translation":[
				18.242740631103516,
				3.159999370574951,
				-11.787758827209473
			]
		},
		{
			"mesh":24,
			"name":"Curve.061",
			"scale":[
				62.490875244140625,
				55.866878509521484,
				124.99998474121094
			],
			"translation":[
				17.374343872070312,
				3.8999998569488525,
				-11.709784507751465
			]
		}
	],
	"materials":[
		{
			"doubleSided":true,
			"extensions":{
				"KHR_materials_specular":{
					"specularFactor":0
				}
			},
			"name":"skp_front_default",
			"pbrMetallicRoughness":{
				"baseColorFactor":[
					0.800000011920929,
					0.800000011920929,
					0.800000011920929,
					1
				],
				"metallicFactor":0
			}
		},
		{
			"doubleSided":true,
			"extensions":{
				"KHR_materials_specular":{
					"specularFactor":0
				}
			},
			"name":"plastic_wit",
			"pbrMetallicRoughness":{
				"baseColorFactor":[
					0.800000011920929,
					0.800000011920929,
					0.800000011920929,
					1
				],
				"metallicFactor":0
			}
		},
		{
			"doubleSided":true,
			"extensions":{
				"KHR_materials_specular":{
					"specularFactor":0
				}
			},
			"name":"Material1",
			"pbrMetallicRoughness":{
				"baseColorFactor":[
					0.800000011920929,
					0.800000011920929,
					0.800000011920929,
					1
				],
				"metallicFactor":0
			}
		},
		{
			"doubleSided":true,
			"extensions":{
				"KHR_materials_specular":{
					"specularFactor":0
				}
			},
			"name":"onderstel",
			"pbrMetallicRoughness":{
				"baseColorFactor":[
					0.800000011920929,
					0.800000011920929,
					0.800000011920929,
					1
				],
				"metallicFactor":0
			}
		},
		{
			"doubleSided":true,
			"name":"Bark",
			"pbrMetallicRoughness":{
				"baseColorFactor":[
					0.12180545181035995,
					0.07247968763113022,
					0.04598655924201012,
					1
				],
				"metallicFactor":0,
				"roughnessFactor":0.5
			}
		},
		{
			"doubleSided":true,
			"name":"white_plastic",
			"pbrMetallicRoughness":{
				"baseColorFactor":[
					0.800000011920929,
					0.800000011920929,
					0.800000011920929,
					1
				],
				"metallicFactor":0,
				"roughnessFactor":0.5
			}
		},
		{
			"doubleSided":true,
			"name":"AussenMetall",
			"pbrMetallicRoughness":{
				"baseColorFactor":[
					0.03954596072435379,
					0.04817187413573265,
					0.05448030307888985,
					1
				],
				"roughnessFactor":0.654285728931427
			}
		},
		{
			"doubleSided":true,
			"extensions":{
				"KHR_materials_specular":{
					"specularColorFactor":[
						2.0,
						2.0,
						2.0
					]
				}
			},
			"name":"3D Oak - Unfinished",
			"pbrMetallicRoughness":{
				"baseColorFactor":[
					0.1936958134174347,
					0.010502032935619354,
					0.010776638984680176,
					1
				],
				"metallicFactor":0.5,
				"roughnessFactor":0.9648739099502563
			}
		},
		{
			"doubleSided":true,
			"extensions":{
				"KHR_materials_specular":{
					"specularColorFactor":[
						0.05000000074505806,
						0.05000000074505806,
						0.05000000074505806
					]
				},
				"KHR_materials_ior":{
					"ior":1000
				}
			},
			"name":"lambert1",
			"occlusionTexture":{
				"index":0
			},
			"pbrMetallicRoughness":{
				"baseColorTexture":{
					"index":1
				},
				"metallicFactor":0,
				"roughnessFactor":0.6000000238418579
			}
		},
		{
			"doubleSided":true,
			"extensions":{
				"KHR_materials_specular":{
					"specularFactor":0
				}
			},
			"name":"ikea_malm_natural",
			"pbrMetallicRoughness":{
				"baseColorFactor":[
					0.800000011920929,
					0.800000011920929,
					0.800000011920929,
					1
				],
				"metallicFactor":0
			}
		},
		{
			"doubleSided":true,
			"extensions":{
				"KHR_materials_specular":{
					"specularFactor":0
				}
			},
			"name":"material.026",
			"pbrMetallicRoughness":{
				"baseColorFactor":[
					0.800000011920929,
					0.800000011920929,
					0.800000011920929,
					1
				],
				"metallicFactor":0
			}
		},
		{
			"doubleSided":true,
			"extensions":{
				"KHR_materials_specular":{
					"specularFactor":0
				}
			},
			"name":"Color_000",
			"pbrMetallicRoughness":{
				"baseColorFactor":[
					0.800000011920929,
					0.800000011920929,
					0.800000011920929,
					1
				],
				"metallicFactor":0
			}
		},
		{
			"doubleSided":true,
			"extensions":{
				"KHR_materials_specular":{
					"specularFactor":0
				}
			},
			"name":"material_0_material",
			"pbrMetallicRoughness":{
				"baseColorFactor":[
					0.800000011920929,
					0.800000011920929,
					0.800000011920929,
					1
				],
				"metallicFactor":0
			}
		},
		{
			"doubleSided":true,
			"name":"Spiegel.003",
			"pbrMetallicRoughness":{
				"baseColorFactor":[
					0.800000011920929,
					0.800000011920929,
					0.800000011920929,
					1
				],
				"roughnessFactor":0
			}
		}
	],
	"meshes":[
		{
			"name":"3d-model.004",
			"primitives":[
				{
					"attributes":{
						"POSITION":0,
						"NORMAL":1,
						"TEXCOORD_0":2
					},
					"indices":3,
					"material":0
				},
				{
					"attributes":{
						"POSITION":4,
						"NORMAL":5,
						"TEXCOORD_0":6
					},
					"indices":7,
					"material":1
				},
				{
					"attributes":{
						"POSITION":8,
						"NORMAL":9,
						"TEXCOORD_0":10
					},
					"indices":11,
					"material":2
				},
				{
					"attributes":{
						"POSITION":12,
						"NORMAL":13,
						"TEXCOORD_0":14
					},
					"indices":15,
					"material":3
				}
			]
		},
		{
			"name":"3d-model.005",
			"primitives":[
				{
					"attributes":{
						"POSITION":16,
						"NORMAL":17,
						"TEXCOORD_0":18
					},
					"indices":3,
					"material":0
				},
				{
					"attributes":{
						"POSITION":19,
						"NORMAL":20,
						"TEXCOORD_0":21
					},
					"indices":7,
					"material":1
				},
				{
					"attributes":{
						"POSITION":22,
						"NORMAL":23,
						"TEXCOORD_0":24
					},
					"indices":11,
					"material":2
				},
				{
					"attributes":{
						"POSITION":25,
						"NORMAL":26,
						"TEXCOORD_0":27
					},
					"indices":15,
					"material":3
				}
			]
		},
		{
			"name":"3d-model.006",
			"primitives":[
				{
					"attributes":{
						"POSITION":28,
						"NORMAL":29,
						"TEXCOORD_0":30
					},
					"indices":3,
					"material":0
				},
				{
					"attributes":{
						"POSITION":31,
						"NORMAL":32,
						"TEXCOORD_0":33
					},
					"indices":7,
					"material":1
				},
				{
					"attributes":{
						"POSITION":34,
						"NORMAL":35,
						"TEXCOORD_0":36
					},
					"indices":11,
					"material":2
				},
				{
					"attributes":{
						"POSITION":37,
						"NORMAL":38,
						"TEXCOORD_0":39
					},
					"indices":15,
					"material":3
				}
			]
		},
		{
			"name":"3d-model.007",
			"primitives":[
				{
					"attributes":{
						"POSITION":40,
						"NORMAL":41,
						"TEXCOORD_0":42
					},
					"indices":3,
					"material":0
				},
				{
					"attributes":{
						"POSITION":43,
						"NORMAL":44,
						"TEXCOORD_0":45
					},
					"indices":7,
					"material":1
				},
				{
					"attributes":{
						"POSITION":46,
						"NORMAL":47,
						"TEXCOORD_0":48
					},
					"indices":11,
					"material":2
				},
				{
					"attributes":{
						"POSITION":49,
						"NORMAL":50,
						"TEXCOORD_0":51
					},
					"indices":15,
					"material":3
				}
			]
		},
		{
			"name":"Curve.111",
			"primitives":[
				{
					"attributes":{
						"POSITION":52,
						"NORMAL":53,
						"TEXCOORD_0":54
					},
					"indices":55,
					"material":4
				}
			]
		},
		{
			"name":"Curve.112",
			"primitives":[
				{
					"attributes":{
						"POSITION":56,
						"NORMAL":57,
						"TEXCOORD_0":58
					},
					"indices":55,
					"material":4
				}
			]
		},
		{
			"name":"Curve.113",
			"primitives":[
				{
					"attributes":{
						"POSITION":59,
						"NORMAL":60,
						"TEXCOORD_0":61
					},
					"indices":62,
					"material":5
				}
			]
		},
		{
			"name":"Curve.114",
			"primitives":[
				{
					"attributes":{
						"POSITION":63,
						"NORMAL":64,
						"TEXCOORD_0":65
					},
					"indices":66,
					"material":6
				}
			]
		},
		{
			"name":"Curve.115",
			"primitives":[
				{
					"attributes":{
						"POSITION":67,
						"NORMAL":68,
						"TEXCOORD_0":69
					},
					"indices":66,
					"material":6
				}
			]
		},
		{
			"name":"Curve.116",
			"primitives":[
				{
					"attributes":{
						"POSITION":70,
						"NORMAL":71,
						"TEXCOORD_0":72
					},
					"indices":73
				}
			]
		},
		{
			"name":"Curve.117",
			"primitives":[
				{
					"attributes":{
						"POSITION":74,
						"NORMAL":75,
						"TEXCOORD_0":76
					},
					"indices":77,
					"material":6
				}
			]
		},
		{
			"name":"Curve.118",
			"primitives":[
				{
					"attributes":{
						"POSITION":78,
						"NORMAL":79,
						"TEXCOORD_0":80
					},
					"indices":81
				}
			]
		},
		{
			"name":"Curve.119",
			"primitives":[
				{
					"attributes":{
						"POSITION":82,
						"NORMAL":83,
						"TEXCOORD_0":84
					},
					"indices":85,
					"material":5
				}
			]
		},
		{
			"name":"Curve.120",
			"primitives":[
				{
					"attributes":{
						"POSITION":86,
						"NORMAL":87,
						"TEXCOORD_0":88
					},
					"indices":85,
					"material":7
				}
			]
		},
		{
			"name":"Cylinder.032",
			"primitives":[
				{
					"attributes":{
						"POSITION":89,
						"NORMAL":90,
						"TEXCOORD_0":91
					},
					"indices":92,
					"material":5
				}
			]
		},
		{
			"name":"Curve.121",
			"primitives":[
				{
					"attributes":{
						"POSITION":93,
						"NORMAL":94,
						"TEXCOORD_0":95
					},
					"indices":96
				}
			]
		},
		{
			"name":"Curve.122",
			"primitives":[
				{
					"attributes":{
						"POSITION":97,
						"NORMAL":98,
						"TEXCOORD_0":99
					},
					"indices":100
				}
			]
		},
		{
			"name":"Curve.123",
			"primitives":[
				{
					"attributes":{
						"POSITION":101,
						"NORMAL":102,
						"TEXCOORD_0":103
					},
					"indices":66,
					"material":6
				}
			]
		},
		{
			"name":"3d-model.008",
			"primitives":[
				{
					"attributes":{
						"POSITION":104,
						"NORMAL":105,
						"TEXCOORD_0":106
					},
					"indices":3,
					"material":0
				},
				{
					"attributes":{
						"POSITION":107,
						"NORMAL":108,
						"TEXCOORD_0":109
					},
					"indices":7,
					"material":1
				},
				{
					"attributes":{
						"POSITION":110,
						"NORMAL":111,
						"TEXCOORD_0":112
					},
					"indices":11,
					"material":2
				},
				{
					"attributes":{
						"POSITION":113,
						"NORMAL":114,
						"TEXCOORD_0":115
					},
					"indices":15,
					"material":3
				}
			]
		},
		{
			"name":"Curve.124",
			"primitives":[
				{
					"attributes":{
						"POSITION":116,
						"NORMAL":117,
						"TEXCOORD_0":118
					},
					"indices":85,
					"material":5
				}
			]
		},
		{
			"name":"Curve.125",
			"primitives":[
				{
					"attributes":{
						"POSITION":119,
						"NORMAL":120,
						"TEXCOORD_0":121
					},
					"indices":85
				}
			]
		},
		{
			"name":"defaultMaterial.004",
			"primitives":[
				{
					"attributes":{
						"POSITION":122,
						"NORMAL":123,
						"TEXCOORD_0":124
					},
					"indices":125,
					"material":8
				}
			]
		},
		{
			"name":"Curve.128",
			"primitives":[
				{
					"attributes":{
						"POSITION":126,
						"NORMAL":127,
						"TEXCOORD_0":128
					},
					"indices":96
				}
			]
		},
		{
			"name":"ID5.001",
			"primitives":[
				{
					"attributes":{
						"POSITION":129,
						"NORMAL":130,
						"TEXCOORD_0":131
					},
					"indices":132,
					"material":9
				},
				{
					"attributes":{
						"POSITION":133,
						"NORMAL":134,
						"TEXCOORD_0":135
					},
					"indices":136,
					"material":10
				},
				{
					"attributes":{
						"POSITION":137,
						"NORMAL":138,
						"TEXCOORD_0":139
					},
					"indices":140,
					"material":11
				},
				{
					"attributes":{
						"POSITION":141,
						"NORMAL":142,
						"TEXCOORD_0":143
					},
					"indices":144,
					"material":12
				}
			]
		},
		{
			"name":"Curve.130",
			"primitives":[
				{
					"attributes":{
						"POSITION":145,
						"NORMAL":146,
						"TEXCOORD_0":147
					},
					"indices":73,
					"material":13
				}
			]
		}
	],
	"textures":[
		{
			"sampler":0,
			"source":0
		},
		{
			"sampler":0,
			"source":1
		}
	],
	"images":[
		{
			"mimeType":"image/png",
			"name":"Image_1",
			"uri":"Image_1.png"
		},
		{
			"mimeType":"image/png",
			"name":"Image_0",
			"uri":"Image_0.png"
		}
	],
	"accessors":[
		{
			"bufferView":0,
			"componentType":5126,
			"count":582,
			"max":[
				4.968100070953369,
				5.205399990081787,
				-15.326600074768066
			],
			"min":[
				-4.968100070953369,
				-3.043299913406372,
				-16.82390022277832
			],
			"type":"VEC3"
		},
		{
			"bufferView":1,
			"componentType":5126,
			"count":582,
			"type":"VEC3"
		},
		{
			"bufferView":2,
			"componentType":5126,
			"count":582,
			"type":"VEC2"
		},
		{
			"bufferView":3,
			"componentType":5123,
			"count":720,
			"type":"SCALAR"
		},
		{
			"bufferView":4,
			"componentType":5126,
			"count":2476,
			"max":[
				9.238100051879883,
				10.030099868774414,
				-15.460399627685547
			],
			"min":[
				-9.238100051879883,
				-10.030099868774414,
				-31.76020050048828
			],
			"type":"VEC3"
		},
		{
			"bufferView":5,
			"componentType":5126,
			"count":2476,
			"type":"VEC3"
		},
		{
			"bufferView":6,
			"componentType":5126,
			"count":2476,
			"type":"VEC2"
		},
		{
			"bufferView":7,
			"componentType":5123,
			"count":11334,
			"type":"SCALAR"
		},
		{
			"bufferView":8,
			"componentType":5126,
			"count":2890,
			"max":[
				8.043600082397461,
				8.515800476074219,
				-0.28450000286102295
			],
			"min":[
				-7.97730016708374,
				-7.582799911499023,
				-14.674200057983398
			],
			"type":"VEC3"
		},
		{
			"bufferView":9,
			"componentType":5126,
			"count":2890,
			"type":"VEC3"
		},
		{
			"bufferView":10,
			"componentType":5126,
			"count":2890,
			"type":"VEC2"
		},
		{
			"bufferView":11,
			"componentType":5123,
			"count":4611,
			"type":"SCALAR"
		},
		{
			"bufferView":12,
			"componentType":5126,
			"count":5810,
			"max":[
				8.043700218200684,
				8.515999794006348,
				0
			],
			"min":[
				-7.977399826049805,
				-7.583000183105469,
				-16.15250015258789
			],
			"type":"VEC3"
		},
		{
			"bufferView":13,
			"componentType":5126,
			"count":5810,
			"type":"VEC3"
		},
		{
			"bufferView":14,
			"componentType":5126,
			"count":5810,
			"type":"VEC2"
		},
		{
			"bufferView":15,
			"componentType":5123,
			"count":8979,
			"type":"SCALAR"
		},
		{
			"bufferView":16,
			"componentType":5126,
			"count":582,
			"max":[
				4.968100070953369,
				5.205399990081787,
				-15.326600074768066
			],
			"min":[
				-4.968100070953369,
				-3.043299913406372,
				-16.82390022277832
			],
			"type":"VEC3"
		},
		{
			"bufferView":17,
			"componentType":5126,
			"count":582,
			"type":"VEC3"
		},
		{
			"bufferView":18,
			"componentType":5126,
			"count":582,
			"type":"VEC2"
		},
		{
			"bufferView":19,
			"componentType":5126,
			"count":2476,
			"max":[
				9.238100051879883,
				10.030099868774414,
				-15.460399627685547
			],
			"min":[
				-9.238100051879883,
				-10.030099868774414,
				-31.76020050048828
			],
			"type":"VEC3"
		},
		{
			"bufferView":20,
			"componentType":5126,
			"count":2476,
			"type":"VEC3"
		},
		{
			"bufferView":21,
			"componentType":5126,
			"count":2476,
			"type":"VEC2"
		},
		{
			"bufferView":22,
			"componentType":5126,
			"count":2890,
			"max":[
				8.043600082397461,
				8.515800476074219,
				-0.28450000286102295
			],
			"min":[
				-7.97730016708374,
				-7.582799911499023,
				-14.674200057983398
			],
			"type":"VEC3"
		},
		{
			"bufferView":23,
			"componentType":5126,
			"count":2890,
			"type":"VEC3"
		},
		{
			"bufferView":24,
			"componentType":5126,
			"count":2890,
			"type":"VEC2"
		},
		{
			"bufferView":25,
			"componentType":5126,
			"count":5810,
			"max":[
				8.043700218200684,
				8.515999794006348,
				0
			],
			"min":[
				-7.977399826049805,
				-7.583000183105469,
				-16.15250015258789
			],
			"type":"VEC3"
		},
		{
			"bufferView":26,
			"componentType":5126,
			"count":5810,
			"type":"VEC3"
		},
		{
			"bufferView":27,
			"componentType":5126,
			"count":5810,
			"type":"VEC2"
		},
		{
			"bufferView":28,
			"componentType":5126,
			"count":582,
			"max":[
				4.968100070953369,
				5.205399990081787,
				-15.326600074768066
			],
			"min":[
				-4.968100070953369,
				-3.043299913406372,
				-16.82390022277832
			],
			"type":"VEC3"
		},
		{
			"bufferView":29,
			"componentType":5126,
			"count":582,
			"type":"VEC3"
		},
		{
			"bufferView":30,
			"componentType":5126,
			"count":582,
			"type":"VEC2"
		},
		{
			"bufferView":31,
			"componentType":5126,
			"count":2476,
			"max":[
				9.238100051879883,
				10.030099868774414,
				-15.460399627685547
			],
			"min":[
				-9.238100051879883,
				-10.030099868774414,
				-31.76020050048828
			],
			"type":"VEC3"
		},
		{
			"bufferView":32,
			"componentType":5126,
			"count":2476,
			"type":"VEC3"
		},
		{
			"bufferView":33,
			"componentType":5126,
			"count":2476,
			"type":"VEC2"
		},
		{
			"bufferView":34,
			"componentType":5126,
			"count":2890,
			"max":[
				8.043600082397461,
				8.515800476074219,
				-0.28450000286102295
			],
			"min":[
				-7.97730016708374,
				-7.582799911499023,
				-14.674200057983398
			],
			"type":"VEC3"
		},
		{
			"bufferView":35,
			"componentType":5126,
			"count":2890,
			"type":"VEC3"
		},
		{
			"bufferView":36,
			"componentType":5126,
			"count":2890,
			"type":"VEC2"
		},
		{
			"bufferView":37,
			"componentType":5126,
			"count":5810,
			"max":[
				8.043700218200684,
				8.515999794006348,
				0
			],
			"min":[
				-7.977399826049805,
				-7.583000183105469,
				-16.15250015258789
			],
			"type":"VEC3"
		},
		{
			"bufferView":38,
			"componentType":5126,
			"count":5810,
			"type":"VEC3"
		},
		{
			"bufferView":39,
			"componentType":5126,
			"count":5810,
			"type":"VEC2"
		},
		{
			"bufferView":40,
			"componentType":5126,
			"count":582,
			"max":[
				4.968100070953369,
				5.205399990081787,
				-15.326600074768066
			],
			"min":[
				-4.968100070953369,
				-3.043299913406372,
				-16.82390022277832
			],
			"type":"VEC3"
		},
		{
			"bufferView":41,
			"componentType":5126,
			"count":582,
			"type":"VEC3"
		},
		{
			"bufferView":42,
			"componentType":5126,
			"count":582,
			"type":"VEC2"
		},
		{
			"bufferView":43,
			"componentType":5126,
			"count":2476,
			"max":[
				9.238100051879883,
				10.030099868774414,
				-15.460399627685547
			],
			"min":[
				-9.238100051879883,
				-10.030099868774414,
				-31.76020050048828
			],
			"type":"VEC3"
		},
		{
			"bufferView":44,
			"componentType":5126,
			"count":2476,
			"type":"VEC3"
		},
		{
			"bufferView":45,
			"componentType":5126,
			"count":2476,
			"type":"VEC2"
		},
		{
			"bufferView":46,
			"componentType":5126,
			"count":2890,
			"max":[
				8.043600082397461,
				8.515800476074219,
				-0.28450000286102295
			],
			"min":[
				-7.97730016708374,
				-7.582799911499023,
				-14.674200057983398
			],
			"type":"VEC3"
		},
		{
			"bufferView":47,
			"componentType":5126,
			"count":2890,
			"type":"VEC3"
		},
		{
			"bufferView":48,
			"componentType":5126,
			"count":2890,
			"type":"VEC2"
		},
		{
			"bufferView":49,
			"componentType":5126,
			"count":5810,
			"max":[
				8.043700218200684,
				8.515999794006348,
				0
			],
			"min":[
				-7.977399826049805,
				-7.583000183105469,
				-16.15250015258789
			],
			"type":"VEC3"
		},
		{
			"bufferView":50,
			"componentType":5126,
			"count":5810,
			"type":"VEC3"
		},
		{
			"bufferView":51,
			"componentType":5126,
			"count":5810,
			"type":"VEC2"
		},
		{
			"bufferView":52,
			"componentType":5126,
			"count":24,
			"max":[
				3.2604782518319553e-07,
				1.2935034154892833e-09,
				1.7230009916602285e-06
			],
			"min":[
				-0.6299995183944702,
				-0.004999998491257429,
				-1.8499982357025146
			],
			"type":"VEC3"
		},
		{
			"bufferView":53,
			"componentType":5126,
			"count":24,
			"type":"VEC3"
		},
		{
			"bufferView":54,
			"componentType":5126,
			"count":24,
			"type":"VEC2"
		},
		{
			"bufferView":55,
			"componentType":5123,
			"count":36,
			"type":"SCALAR"
		},
		{
			"bufferView":56,
			"componentType":5126,
			"count":24,
			"max":[
				3.2604782518319553e-07,
				1.2935034154892833e-09,
				1.7230009916602285e-06
			],
			"min":[
				-0.6299995183944702,
				-0.004999998491257429,
				-1.8499982357025146
			],
			"type":"VEC3"
		},
		{
			"bufferView":57,
			"componentType":5126,
			"count":24,
			"type":"VEC3"
		},
		{
			"bufferView":58,
			"componentType":5126,
			"count":24,
			"type":"VEC2"
		},
		{
			"bufferView":59,
			"componentType":5126,
			"count":132,
			"max":[
				0,
				2.4000003337860107,
				2.700000762939453
			],
			"min":[
				-0.6000864505767822,
				3.469708929060289e-07,
				8.935051027947338e-07
			],
			"type":"VEC3"
		},
		{
			"bufferView":60,
			"componentType":5126,
			"count":132,
			"type":"VEC3"
		},
		{
			"bufferView":61,
			"componentType":5126,
			"count":132,
			"type":"VEC2"
		},
		{
			"bufferView":62,
			"componentType":5123,
			"count":252,
			"type":"SCALAR"
		},
		{
			"bufferView":63,
			"componentType":5126,
			"count":24,
			"max":[
				0,
				0.012883930467069149,
				0.0225142240524292
			],
			"min":[
				-0.004800692200660706,
				1.862645149230957e-09,
				7.450580596923828e-09
			],
			"type":"VEC3"
		},
		{
			"bufferView":64,
			"componentType":5126,
			"count":24,
			"type":"VEC3"
		},
		{
			"bufferView":65,
			"componentType":5126,
			"count":24,
			"type":"VEC2"
		},
		{
			"bufferView":66,
			"componentType":5123,
			"count":36,
			"type":"SCALAR"
		},
		{
			"bufferView":67,
			"componentType":5126,
			"count":24,
			"max":[
				0,
				0.012883930467069149,
				0.0225142240524292
			],
			"min":[
				-0.004800692200660706,
				1.862645149230957e-09,
				7.450580596923828e-09
			],
			"type":"VEC3"
		},
		{
			"bufferView":68,
			"componentType":5126,
			"count":24,
			"type":"VEC3"
		},
		{
			"bufferView":69,
			"componentType":5126,
			"count":24,
			"type":"VEC2"
		},
		{
			"bufferView":70,
			"componentType":5126,
			"count":24,
			"max":[
				7.450580596923828e-09,
				0.00032000005012378097,
				0.006399556994438171
			],
			"min":[
				-0.012799032032489777,
				0,
				-1.4901161193847656e-08
			],
			"type":"VEC3"
		},
		{
			"bufferView":71,
			"componentType":5126,
			"count":24,
			"type":"VEC3"
		},
		{
			"bufferView":72,
			"componentType":5126,
			"count":24,
			"type":"VEC2"
		},
		{
			"bufferView":73,
			"componentType":5123,
			"count":36,
			"type":"SCALAR"
		},
		{
			"bufferView":74,
			"componentType":5126,
			"count":72,
			"max":[
				2.3642635345458984,
				-6.548361142222348e-08,
				4.1402978467885987e-07
			],
			"min":[
				-1.8626449218572816e-06,
				-0.0400000661611557,
				-0.7999995350837708
			],
			"type":"VEC3"
		},
		{
			"bufferView":75,
			"componentType":5126,
			"count":72,
			"type":"VEC3"
		},
		{
			"bufferView":76,
			"componentType":5126,
			"count":72,
			"type":"VEC2"
		},
		{
			"bufferView":77,
			"componentType":5123,
			"count":132,
			"type":"SCALAR"
		},
		{
			"bufferView":78,
			"componentType":5126,
			"count":63,
			"max":[
				-5.587935447692871e-09,
				0.007200000807642937,
				0.030231904238462448
			],
			"min":[
				-0.003238588571548462,
				0,
				-0.0009593665599822998
			],
			"type":"VEC3"
		},
		{
			"bufferView":79,
			"componentType":5126,
			"count":63,
			"type":"VEC3"
		},
		{
			"bufferView":80,
			"componentType":5126,
			"count":63,
			"type":"VEC2"
		},
		{
			"bufferView":81,
			"componentType":5123,
			"count":144,
			"type":"SCALAR"
		},
		{
			"bufferView":82,
			"componentType":5126,
			"count":24,
			"max":[
				7.450580596923828e-09,
				0.02200000360608101,
				-7.450580596923828e-09
			],
			"min":[
				-0.04494480788707733,
				0,
				-0.004799686372280121
			],
			"type":"VEC3"
		},
		{
			"bufferView":83,
			"componentType":5126,
			"count":24,
			"type":"VEC3"
		},
		{
			"bufferView":84,
			"componentType":5126,
			"count":24,
			"type":"VEC2"
		},
		{
			"bufferView":85,
			"componentType":5123,
			"count":36,
			"type":"SCALAR"
		},
		{
			"bufferView":86,
			"componentType":5126,
			"count":24,
			"max":[
				0.007999748922884464,
				0.0018000002019107342,
				0.007198121398687363
			],
			"min":[
				-0.007999747060239315,
				-0.0018000002019107342,
				-0.007198121398687363
			],
			"type":"VEC3"
		},
		{
			"bufferView":87,
			"componentType":5126,
			"count":24,
			"type":"VEC3"
		},
		{
			"bufferView":88,
			"componentType":5126,
			"count":24,
			"type":"VEC2"
		},
		{
			"bufferView":89,
			"componentType":5126,
			"count":6144,
			"max":[
				1.3675155639648438,
				1,
				1.9722900390625
			],
			"min":[
				-38.63248062133789,
				-1.0000004768371582,
				-1.3233642578125
			],
			"type":"VEC3"
		},
		{
			"bufferView":90,
			"componentType":5126,
			"count":6144,
			"type":"VEC3"
		},
		{
			"bufferView":91,
			"componentType":5126,
			"count":6144,
			"type":"VEC2"
		},
		{
			"bufferView":92,
			"componentType":5123,
			"count":9204,
			"type":"SCALAR"
		},
		{
			"bufferView":93,
			"componentType":5126,
			"count":24,
			"max":[
				0.0013998597860336304,
				0.0068000010214746,
				0.0037387311458587646
			],
			"min":[
				-0.0013998448848724365,
				0,
				-0.0037387311458587646
			],
			"type":"VEC3"
		},
		{
			"bufferView":94,
			"componentType":5126,
			"count":24,
			"type":"VEC3"
		},
		{
			"bufferView":95,
			"componentType":5126,
			"count":24,
			"type":"VEC2"
		},
		{
			"bufferView":96,
			"componentType":5123,
			"count":36,
			"type":"SCALAR"
		},
		{
			"bufferView":97,
			"componentType":5126,
			"count":24,
			"max":[
				0.0013998448848724365,
				0.0068000010214746,
				0.0037387311458587646
			],
			"min":[
				-0.0013998448848724365,
				0,
				-0.0037387311458587646
			],
			"type":"VEC3"
		},
		{
			"bufferView":98,
			"componentType":5126,
			"count":24,
			"type":"VEC3"
		},
		{
			"bufferView":99,
			"componentType":5126,
			"count":24,
			"type":"VEC2"
		},
		{
			"bufferView":100,
			"componentType":5123,
			"count":36,
			"type":"SCALAR"
		},
		{
			"bufferView":101,
			"componentType":5126,
			"count":24,
			"max":[
				0,
				0.012883930467069149,
				0.0225142240524292
			],
			"min":[
				-0.004800692200660706,
				1.862645149230957e-09,
				7.450580596923828e-09
			],
			"type":"VEC3"
		},
		{
			"bufferView":102,
			"componentType":5126,
			"count":24,
			"type":"VEC3"
		},
		{
			"bufferView":103,
			"componentType":5126,
			"count":24,
			"type":"VEC2"
		},
		{
			"bufferView":104,
			"componentType":5126,
			"count":582,
			"max":[
				4.968100070953369,
				5.205399990081787,
				-15.326600074768066
			],
			"min":[
				-4.968100070953369,
				-3.043299913406372,
				-16.82390022277832
			],
			"type":"VEC3"
		},
		{
			"bufferView":105,
			"componentType":5126,
			"count":582,
			"type":"VEC3"
		},
		{
			"bufferView":106,
			"componentType":5126,
			"count":582,
			"type":"VEC2"
		},
		{
			"bufferView":107,
			"componentType":5126,
			"count":2476,
			"max":[
				9.238100051879883,
				10.030099868774414,
				-15.460399627685547
			],
			"min":[
				-9.238100051879883,
				-10.030099868774414,
				-31.76020050048828
			],
			"type":"VEC3"
		},
		{
			"bufferView":108,
			"componentType":5126,
			"count":2476,
			"type":"VEC3"
		},
		{
			"bufferView":109,
			"componentType":5126,
			"count":2476,
			"type":"VEC2"
		},
		{
			"bufferView":110,
			"componentType":5126,
			"count":2890,
			"max":[
				8.043600082397461,
				8.515800476074219,
				-0.28450000286102295
			],
			"min":[
				-7.97730016708374,
				-7.582799911499023,
				-14.674200057983398
			],
			"type":"VEC3"
		},
		{
			"bufferView":111,
			"componentType":5126,
			"count":2890,
			"type":"VEC3"
		},
		{
			"bufferView":112,
			"componentType":5126,
			"count":2890,
			"type":"VEC2"
		},
		{
			"bufferView":113,
			"componentType":5126,
			"count":5810,
			"max":[
				8.043700218200684,
				8.515999794006348,
				0
			],
			"min":[
				-7.977399826049805,
				-7.583000183105469,
				-16.15250015258789
			],
			"type":"VEC3"
		},
		{
			"bufferView":114,
			"componentType":5126,
			"count":5810,
			"type":"VEC3"
		},
		{
			"bufferView":115,
			"componentType":5126,
			"count":5810,
			"type":"VEC2"
		},
		{
			"bufferView":116,
			"componentType":5126,
			"count":24,
			"max":[
				0.04494478553533554,
				0.02199999988079071,
				0
			],
			"min":[
				-2.9802322387695312e-08,
				-3.725290298461914e-09,
				-0.004799678921699524
			],
			"type":"VEC3"
		},
		{
			"bufferView":117,
			"componentType":5126,
			"count":24,
			"type":"VEC3"
		},
		{
			"bufferView":118,
			"componentType":5126,
			"count":24,
			"type":"VEC2"
		},
		{
			"bufferView":119,
			"componentType":5126,
			"count":24,
			"max":[
				0.01599953882396221,
				9.313225746154785e-10,
				0.014396235346794128
			],
			"min":[
				4.284083843231201e-08,
				-0.0035999994724988937,
				-7.450580596923828e-09
			],
			"type":"VEC3"
		},
		{
			"bufferView":120,
			"componentType":5126,
			"count":24,
			"type":"VEC3"
		},
		{
			"bufferView":121,
			"componentType":5126,
			"count":24,
			"type":"VEC2"
		},
		{
			"bufferView":122,
			"componentType":5126,
			"count":275,
			"max":[
				0.9780693054199219,
				1.5239558219909668,
				0.22398999333381653
			],
			"min":[
				-1.0219306945800781,
				-5.960464477539063e-08,
				-0.22398999333381653
			],
			"type":"VEC3"
		},
		{
			"bufferView":123,
			"componentType":5126,
			"count":275,
			"type":"VEC3"
		},
		{
			"bufferView":124,
			"componentType":5126,
			"count":275,
			"type":"VEC2"
		},
		{
			"bufferView":125,
			"componentType":5123,
			"count":720,
			"type":"SCALAR"
		},
		{
			"bufferView":126,
			"componentType":5126,
			"count":24,
			"max":[
				1.4901161193847656e-08,
				0.022000005468726158,
				0
			],
			"min":[
				-0.004291674587875605,
				1.862645149230957e-09,
				-0.022513674572110176
			],
			"type":"VEC3"
		},
		{
			"bufferView":127,
			"componentType":5126,
			"count":24,
			"type":"VEC3"
		},
		{
			"bufferView":128,
			"componentType":5126,
			"count":24,
			"type":"VEC2"
		},
		{
			"bufferView":129,
			"componentType":5126,
			"count":186,
			"max":[
				1.005000114440918,
				-1.8488279195761443e-15,
				-0.03500001132488251
			],
			"min":[
				0.03500001132488251,
				-0.5,
				-0.7049999237060547
			],
			"type":"VEC3"
		},
		{
			"bufferView":130,
			"componentType":5126,
			"count":186,
			"type":"VEC3"
		},
		{
			"bufferView":131,
			"componentType":5126,
			"count":186,
			"type":"VEC2"
		},
		{
			"bufferView":132,
			"componentType":5123,
			"count":186,
			"type":"SCALAR"
		},
		{
			"bufferView":133,
			"componentType":5126,
			"count":762,
			"max":[
				1.0399999618530273,
				1.576516912019915e-16,
				-4.452814448513714e-31
			],
			"min":[
				0,
				-0.5,
				-0.7500001192092896
			],
			"type":"VEC3"
		},
		{
			"bufferView":134,
			"componentType":5126,
			"count":762,
			"type":"VEC3"
		},
		{
			"bufferView":135,
			"componentType":5126,
			"count":762,
			"type":"VEC2"
		},
		{
			"bufferView":136,
			"componentType":5123,
			"count":762,
			"type":"SCALAR"
		},
		{
			"bufferView":137,
			"componentType":5126,
			"count":753,
			"max":[
				1.0399999618530273,
				1.576516912019915e-16,
				-4.452814448513714e-31
			],
			"min":[
				0,
				-0.5,
				-0.7500001192092896
			],
			"type":"VEC3"
		},
		{
			"bufferView":138,
			"componentType":5126,
			"count":753,
			"type":"VEC3"
		},
		{
			"bufferView":139,
			"componentType":5126,
			"count":753,
			"type":"VEC2"
		},
		{
			"bufferView":140,
			"componentType":5123,
			"count":753,
			"type":"SCALAR"
		},
		{
			"bufferView":141,
			"componentType":5126,
			"count":159,
			"max":[
				1.0399999618530273,
				1.576516912019915e-16,
				-0.02999999187886715
			],
			"min":[
				0,
				-0.5,
				-0.7100000977516174
			],
			"type":"VEC3"
		},
		{
			"bufferView":142,
			"componentType":5126,
			"count":159,
			"type":"VEC3"
		},
		{
			"bufferView":143,
			"componentType":5126,
			"count":159,
			"type":"VEC2"
		},
		{
			"bufferView":144,
			"componentType":5123,
			"count":159,
			"type":"SCALAR"
		},
		{
			"bufferView":145,
			"componentType":5126,
			"count":24,
			"max":[
				0.011201635003089905,
				0.01610972359776497,
				0.00042044371366500854
			],
			"min":[
				0,
				0,
				7.450580596923828e-09
			],
			"type":"VEC3"
		},
		{
			"bufferView":146,
			"componentType":5126,
			"count":24,
			"type":"VEC3"
		},
		{
			"bufferView":147,
			"componentType":5126,
			"count":24,
			"type":"VEC2"
		}
	],
	"bufferViews":[
		{
			"buffer":0,
			"byteLength":6984,
			"byteOffset":0,
			"target":34962
		},
		{
			"buffer":0,
			"byteLength":6984,
			"byteOffset":6984,
			"target":34962
		},
		{
			"buffer":0,
			"byteLength":4656,
			"byteOffset":13968,
			"target":34962
		},
		{
			"buffer":0,
			"byteLength":1440,
			"byteOffset":18624,
			"target":34963
		},
		{
			"buffer":0,
			"byteLength":29712,
			"byteOffset":20064,
			"target":34962
		},
		{
			"buffer":0,
			"byteLength":29712,
			"byteOffset":49776,
			"target":34962
		},
		{
			"buffer":0,
			"byteLength":19808,
			"byteOffset":79488,
			"target":34962
		},
		{
			"buffer":0,
			"byteLength":22668,
			"byteOffset":99296,
			"target":34963
		},
		{
			"buffer":0,
			"byteLength":34680,
			"byteOffset":121964,
			"target":34962
		},
		{
			"buffer":0,
			"byteLength":34680,
			"byteOffset":156644,
			"target":34962
		},
		{
			"buffer":0,
			"byteLength":23120,
			"byteOffset":191324,
			"target":34962
		},
		{
			"buffer":0,
			"byteLength":9222,
			"byteOffset":214444,
			"target":34963
		},
		{
			"buffer":0,
			"byteLength":69720,
			"byteOffset":223668,
			"target":34962
		},
		{
			"buffer":0,
			"byteLength":69720,
			"byteOffset":293388,
			"target":34962
		},
		{
			"buffer":0,
			"byteLength":46480,
			"byteOffset":363108,
			"target":34962
		},
		{
			"buffer":0,
			"byteLength":17958,
			"byteOffset":409588,
			"target":34963
		},
		{
			"buffer":0,
			"byteLength":6984,
			"byteOffset":427548,
			"target":34962
		},
		{
			"buffer":0,
			"byteLength":6984,
			"byteOffset":434532,
			"target":34962
		},
		{
			"buffer":0,
			"byteLength":4656,
			"byteOffset":441516,
			"target":34962
		},
		{
			"buffer":0,
			"byteLength":29712,
			"byteOffset":446172,
			"target":34962
		},
		{
			"buffer":0,
			"byteLength":29712,
			"byteOffset":475884,
			"target":34962
		},
		{
			"buffer":0,
			"byteLength":19808,
			"byteOffset":505596,
			"target":34962
		},
		{
			"buffer":0,
			"byteLength":34680,
			"byteOffset":525404,
			"target":34962
		},
		{
			"buffer":0,
			"byteLength":34680,
			"byteOffset":560084,
			"target":34962
		},
		{
			"buffer":0,
			"byteLength":23120,
			"byteOffset":594764,
			"target":34962
		},
		{
			"buffer":0,
			"byteLength":69720,
			"byteOffset":617884,
			"target":34962
		},
		{
			"buffer":0,
			"byteLength":69720,
			"byteOffset":687604,
			"target":34962
		},
		{
			"buffer":0,
			"byteLength":46480,
			"byteOffset":757324,
			"target":34962
		},
		{
			"buffer":0,
			"byteLength":6984,
			"byteOffset":803804,
			"target":34962
		},
		{
			"buffer":0,
			"byteLength":6984,
			"byteOffset":810788,
			"target":34962
		},
		{
			"buffer":0,
			"byteLength":4656,
			"byteOffset":817772,
			"target":34962
		},
		{
			"buffer":0,
			"byteLength":29712,
			"byteOffset":822428,
			"target":34962
		},
		{
			"buffer":0,
			"byteLength":29712,
			"byteOffset":852140,
			"target":34962
		},
		{
			"buffer":0,
			"byteLength":19808,
			"byteOffset":881852,
			"target":34962
		},
		{
			"buffer":0,
			"byteLength":34680,
			"byteOffset":901660,
			"target":34962
		},
		{
			"buffer":0,
			"byteLength":34680,
			"byteOffset":936340,
			"target":34962
		},
		{
			"buffer":0,
			"byteLength":23120,
			"byteOffset":971020,
			"target":34962
		},
		{
			"buffer":0,
			"byteLength":69720,
			"byteOffset":994140,
			"target":34962
		},
		{
			"buffer":0,
			"byteLength":69720,
			"byteOffset":1063860,
			"target":34962
		},
		{
			"buffer":0,
			"byteLength":46480,
			"byteOffset":1133580,
			"target":34962
		},
		{
			"buffer":0,
			"byteLength":6984,
			"byteOffset":1180060,
			"target":34962
		},
		{
			"buffer":0,
			"byteLength":6984,
			"byteOffset":1187044,
			"target":34962
		},
		{
			"buffer":0,
			"byteLength":4656,
			"byteOffset":1194028,
			"target":34962
		},
		{
			"buffer":0,
			"byteLength":29712,
			"byteOffset":1198684,
			"target":34962
		},
		{
			"buffer":0,
			"byteLength":29712,
			"byteOffset":1228396,
			"target":34962
		},
		{
			"buffer":0,
			"byteLength":19808,
			"byteOffset":1258108,
			"target":34962
		},
		{
			"buffer":0,
			"byteLength":34680,
			"byteOffset":1277916,
			"target":34962
		},
		{
			"buffer":0,
			"byteLength":34680,
			"byteOffset":1312596,
			"target":34962
		},
		{
			"buffer":0,
			"byteLength":23120,
			"byteOffset":1347276,
			"target":34962
		},
		{
			"buffer":0,
			"byteLength":69720,
			"byteOffset":1370396,
			"target":34962
		},
		{
			"buffer":0,
			"byteLength":69720,
			"byteOffset":1440116,
			"target":34962
		},
		{
			"buffer":0,
			"byteLength":46480,
			"byteOffset":1509836,
			"target":34962
		},
		{
			"buffer":0,
			"byteLength":288,
			"byteOffset":1556316,
			"target":34962
		},
		{
			"buffer":0,
			"byteLength":288,
			"byteOffset":1556604,
			"target":34962
		},
		{
			"buffer":0,
			"byteLength":192,
			"byteOffset":1556892,
			"target":34962
		},
		{
			"buffer":0,
			"byteLength":72,
			"byteOffset":1557084,
			"target":34963
		},
		{
			"buffer":0,
			"byteLength":288,
			"byteOffset":1557156,
			"target":34962
		},
		{
			"buffer":0,
			"byteLength":288,
			"byteOffset":1557444,
			"target":34962
		},
		{
			"buffer":0,
			"byteLength":192,
			"byteOffset":1557732,
			"target":34962
		},
		{
			"buffer":0,
			"byteLength":1584,
			"byteOffset":1557924,
			"target":34962
		},
		{
			"buffer":0,
			"byteLength":1584,
			"byteOffset":1559508,
			"target":34962
		},
		{
			"buffer":0,
			"byteLength":1056,
			"byteOffset":1561092,
			"target":34962
		},
		{
			"buffer":0,
			"byteLength":504,
			"byteOffset":1562148,
			"target":34963
		},
		{
			"buffer":0,
			"byteLength":288,
			"byteOffset":1562652,
			"target":34962
		},
		{
			"buffer":0,
			"byteLength":288,
			"byteOffset":1562940,
			"target":34962
		},
		{
			"buffer":0,
			"byteLength":192,
			"byteOffset":1563228,
			"target":34962
		},
		{
			"buffer":0,
			"byteLength":72,
			"byteOffset":1563420,
			"target":34963
		},
		{
			"buffer":0,
			"byteLength":288,
			"byteOffset":1563492,
			"target":34962
		},
		{
			"buffer":0,
			"byteLength":288,
			"byteOffset":1563780,
			"target":34962
		},
		{
			"buffer":0,
			"byteLength":192,
			"byteOffset":1564068,
			"target":34962
		},
		{
			"buffer":0,
			"byteLength":288,
			"byteOffset":1564260,
			"target":34962
		},
		{
			"buffer":0,
			"byteLength":288,
			"byteOffset":1564548,
			"target":34962
		},
		{
			"buffer":0,
			"byteLength":192,
			"byteOffset":1564836,
			"target":34962
		},
		{
			"buffer":0,
			"byteLength":72,
			"byteOffset":1565028,
			"target":34963
		},
		{
			"buffer":0,
			"byteLength":864,
			"byteOffset":1565100,
			"target":34962
		},
		{
			"buffer":0,
			"byteLength":864,
			"byteOffset":1565964,
			"target":34962
		},
		{
			"buffer":0,
			"byteLength":576,
			"byteOffset":1566828,
			"target":34962
		},
		{
			"buffer":0,
			"byteLength":264,
			"byteOffset":1567404,
			"target":34963
		},
		{
			"buffer":0,
			"byteLength":756,
			"byteOffset":1567668,
			"target":34962
		},
		{
			"buffer":0,
			"byteLength":756,
			"byteOffset":1568424,
			"target":34962
		},
		{
			"buffer":0,
			"byteLength":504,
			"byteOffset":1569180,
			"target":34962
		},
		{
			"buffer":0,
			"byteLength":288,
			"byteOffset":1569684,
			"target":34963
		},
		{
			"buffer":0,
			"byteLength":288,
			"byteOffset":1569972,
			"target":34962
		},
		{
			"buffer":0,
			"byteLength":288,
			"byteOffset":1570260,
			"target":34962
		},
		{
			"buffer":0,
			"byteLength":192,
			"byteOffset":1570548,
			"target":34962
		},
		{
			"buffer":0,
			"byteLength":72,
			"byteOffset":1570740,
			"target":34963
		},
		{
			"buffer":0,
			"byteLength":288,
			"byteOffset":1570812,
			"target":34962
		},
		{
			"buffer":0,
			"byteLength":288,
			"byteOffset":1571100,
			"target":34962
		},
		{
			"buffer":0,
			"byteLength":192,
			"byteOffset":1571388,
			"target":34962
		},
		{
			"buffer":0,
			"byteLength":73728,
			"byteOffset":1571580,
			"target":34962
		},
		{
			"buffer":0,
			"byteLength":73728,
			"byteOffset":1645308,
			"target":34962
		},
		{
			"buffer":0,
			"byteLength":49152,
			"byteOffset":1719036,
			"target":34962
		},
		{
			"buffer":0,
			"byteLength":18408,
			"byteOffset":1768188,
			"target":34963
		},
		{
			"buffer":0,
			"byteLength":288,
			"byteOffset":1786596,
			"target":34962
		},
		{
			"buffer":0,
			"byteLength":288,
			"byteOffset":1786884,
			"target":34962
		},
		{
			"buffer":0,
			"byteLength":192,
			"byteOffset":1787172,
			"target":34962
		},
		{
			"buffer":0,
			"byteLength":72,
			"byteOffset":1787364,
			"target":34963
		},
		{
			"buffer":0,
			"byteLength":288,
			"byteOffset":1787436,
			"target":34962
		},
		{
			"buffer":0,
			"byteLength":288,
			"byteOffset":1787724,
			"target":34962
		},
		{
			"buffer":0,
			"byteLength":192,
			"byteOffset":1788012,
			"target":34962
		},
		{
			"buffer":0,
			"byteLength":72,
			"byteOffset":1788204,
			"target":34963
		},
		{
			"buffer":0,
			"byteLength":288,
			"byteOffset":1788276,
			"target":34962
		},
		{
			"buffer":0,
			"byteLength":288,
			"byteOffset":1788564,
			"target":34962
		},
		{
			"buffer":0,
			"byteLength":192,
			"byteOffset":1788852,
			"target":34962
		},
		{
			"buffer":0,
			"byteLength":6984,
			"byteOffset":1789044,
			"target":34962
		},
		{
			"buffer":0,
			"byteLength":6984,
			"byteOffset":1796028,
			"target":34962
		},
		{
			"buffer":0,
			"byteLength":4656,
			"byteOffset":1803012,
			"target":34962
		},
		{
			"buffer":0,
			"byteLength":29712,
			"byteOffset":1807668,
			"target":34962
		},
		{
			"buffer":0,
			"byteLength":29712,
			"byteOffset":1837380,
			"target":34962
		},
		{
			"buffer":0,
			"byteLength":19808,
			"byteOffset":1867092,
			"target":34962
		},
		{
			"buffer":0,
			"byteLength":34680,
			"byteOffset":1886900,
			"target":34962
		},
		{
			"buffer":0,
			"byteLength":34680,
			"byteOffset":1921580,
			"target":34962
		},
		{
			"buffer":0,
			"byteLength":23120,
			"byteOffset":1956260,
			"target":34962
		},
		{
			"buffer":0,
			"byteLength":69720,
			"byteOffset":1979380,
			"target":34962
		},
		{
			"buffer":0,
			"byteLength":69720,
			"byteOffset":2049100,
			"target":34962
		},
		{
			"buffer":0,
			"byteLength":46480,
			"byteOffset":2118820,
			"target":34962
		},
		{
			"buffer":0,
			"byteLength":288,
			"byteOffset":2165300,
			"target":34962
		},
		{
			"buffer":0,
			"byteLength":288,
			"byteOffset":2165588,
			"target":34962
		},
		{
			"buffer":0,
			"byteLength":192,
			"byteOffset":2165876,
			"target":34962
		},
		{
			"buffer":0,
			"byteLength":288,
			"byteOffset":2166068,
			"target":34962
		},
		{
			"buffer":0,
			"byteLength":288,
			"byteOffset":2166356,
			"target":34962
		},
		{
			"buffer":0,
			"byteLength":192,
			"byteOffset":2166644,
			"target":34962
		},
		{
			"buffer":0,
			"byteLength":3300,
			"byteOffset":2166836,
			"target":34962
		},
		{
			"buffer":0,
			"byteLength":3300,
			"byteOffset":2170136,
			"target":34962
		},
		{
			"buffer":0,
			"byteLength":2200,
			"byteOffset":2173436,
			"target":34962
		},
		{
			"buffer":0,
			"byteLength":1440,
			"byteOffset":2175636,
			"target":34963
		},
		{
			"buffer":0,
			"byteLength":288,
			"byteOffset":2177076,
			"target":34962
		},
		{
			"buffer":0,
			"byteLength":288,
			"byteOffset":2177364,
			"target":34962
		},
		{
			"buffer":0,
			"byteLength":192,
			"byteOffset":2177652,
			"target":34962
		},
		{
			"buffer":0,
			"byteLength":2232,
			"byteOffset":2177844,
			"target":34962
		},
		{
			"buffer":0,
			"byteLength":2232,
			"byteOffset":2180076,
			"target":34962
		},
		{
			"buffer":0,
			"byteLength":1488,
			"byteOffset":2182308,
			"target":34962
		},
		{
			"buffer":0,
			"byteLength":372,
			"byteOffset":2183796,
			"target":34963
		},
		{
			"buffer":0,
			"byteLength":9144,
			"byteOffset":2184168,
			"target":34962
		},
		{
			"buffer":0,
			"byteLength":9144,
			"byteOffset":2193312,
			"target":34962
		},
		{
			"buffer":0,
			"byteLength":6096,
			"byteOffset":2202456,
			"target":34962
		},
		{
			"buffer":0,
			"byteLength":1524,
			"byteOffset":2208552,
			"target":34963
		},
		{
			"buffer":0,
			"byteLength":9036,
			"byteOffset":2210076,
			"target":34962
		},
		{
			"buffer":0,
			"byteLength":9036,
			"byteOffset":2219112,
			"target":34962
		},
		{
			"buffer":0,
			"byteLength":6024,
			"byteOffset":2228148,
			"target":34962
		},
		{
			"buffer":0,
			"byteLength":1506,
			"byteOffset":2234172,
			"target":34963
		},
		{
			"buffer":0,
			"byteLength":1908,
			"byteOffset":2235680,
			"target":34962
		},
		{
			"buffer":0,
			"byteLength":1908,
			"byteOffset":2237588,
			"target":34962
		},
		{
			"buffer":0,
			"byteLength":1272,
			"byteOffset":2239496,
			"target":34962
		},
		{
			"buffer":0,
			"byteLength":318,
			"byteOffset":2240768,
			"target":34963
		},
		{
			"buffer":0,
			"byteLength":288,
			"byteOffset":2241088,
			"target":34962
		},
		{
			"buffer":0,
			"byteLength":288,
			"byteOffset":2241376,
			"target":34962
		},
		{
			"buffer":0,
			"byteLength":192,
			"byteOffset":2241664,
			"target":34962
		}
	],
	"samplers":[
		{
			"magFilter":9729,
			"minFilter":9987
		}
	],
	"buffers":[
		{
			"byteLength":2241856,
			"uri":"OG_M%C3%B6bel.bin"
		}
	]
}
