{
	"asset":{
		"generator":"Khronos glTF Blender I/O v5.1.18",
		"version":"2.0"
	},
	"scene":0,
	"scenes":[
		{
			"name":"Scene",
			"nodes":[
				0,
				1,
				2,
				3,
				4,
				5,
				6,
				7,
				8,
				9,
				10,
				11,
				12,
				13,
				14,
				15,
				16,
				17,
				18,
				19,
				20
			]
		}
	],
	"nodes":[
		{
			"mesh":0,
			"name":"Bild.006",
			"translation":[
				21.870121002197266,
				4.322858810424805,
				-15.399989128112793
			]
		},
		{
			"mesh":1,
			"name":"Bild.007",
			"rotation":[
				0,
				0.7071068286895752,
				0,
				0.7071068286895752
			],
			"scale":[
				1.8750592470169067,
				374.9999694824219,
				125.03263854980469
			],
			"translation":[
				20.02488136291504,
				4.232865810394287,
				-16.553064346313477
			]
		},
		{
			"mesh":2,
			"name":"Curve.071",
			"rotation":[
				0,
				-0.7071068286895752,
				0,
				0.7071068286895752
			],
			"scale":[
				1,
				0.5777777433395386,
				1
			],
			"translation":[
				17.933141708374023,
				3.428821563720703,
				-16.581707000732422
			]
		},
		{
			"mesh":3,
			"name":"Regal.014",
			"rotation":[
				0,
				-0.7071068286895752,
				0,
				0.7071068286895752
			],
			"scale":[
				16.250513076782227,
				11.111109733581543,
				111.1401138305664
			],
			"translation":[
				16.333852767944336,
				4.670417785644531,
				-16.581708908081055
			]
		},
		{
			"mesh":4,
			"name":"Regal.015",
			"rotation":[
				0,
				-0.7071068286895752,
				0,
				0.7071068286895752
			],
			"scale":[
				16.250513076782227,
				11.111109733581543,
				111.1401138305664
			],
			"translation":[
				16.334558486938477,
				4.997299671173096,
				-16.581708908081055
			]
		},
		{
			"mesh":5,
			"name":"Regal.016",
			"rotation":[
				0,
				-0.7071068286895752,
				0,
				0.7071068286895752
			],
			"scale":[
				16.250513076782227,
				11.111109733581543,
				111.1401138305664
			],
			"translation":[
				16.336896896362305,
				4.326051235198975,
				-16.581708908081055
			]
		},
		{
			"mesh":6,
			"name":"Curve.072",
			"rotation":[
				0,
				-0.7071068286895752,
				0,
				0.7071068286895752
			],
			"scale":[
				1,
				0.5777777433395386,
				1
			],
			"translation":[
				17.933141708374023,
				3.947319984436035,
				-16.581708908081055
			]
		},
		{
			"mesh":7,
			"name":"Curve.073",
			"rotation":[
				0,
				-0.7071068286895752,
				0,
				0.7071068286895752
			],
			"scale":[
				1,
				0.5777777433395386,
				1
			],
			"translation":[
				17.933141708374023,
				3.687321424484253,
				-16.581708908081055
			]
		},
		{
			"mesh":8,
			"name":"Curve.074",
			"rotation":[
				0,
				-0.7071068286895752,
				0,
				0.7071068286895752
			],
			"scale":[
				1,
				0.5777777433395386,
				1
			],
			"translation":[
				21.799379348754883,
				3.687321424484253,
				-16.581708908081055
			]
		},
		{
			"mesh":9,
			"name":"Curve.075",
			"rotation":[
				0,
				-0.7071068286895752,
				0,
				0.7071068286895752
			],
			"scale":[
				1,
				0.5777777433395386,
				1
			],
			"translation":[
				21.799379348754883,
				3.947319984436035,
				-16.581708908081055
			]
		},
		{
			"mesh":10,
			"name":"Curve.076",
			"rotation":[
				0,
				-0.7071068286895752,
				0,
				0.7071068286895752
			],
			"scale":[
				1,
				0.5777777433395386,
				1
			],
			"translation":[
				21.799379348754883,
				3.428821563720703,
				-16.581707000732422
			]
		},
		{
			"mesh":11,
			"name":"Regal.017",
			"rotation":[
				0,
				-0.7071068286895752,
				0,
				0.7071068286895752
			],
			"scale":[
				16.250513076782227,
				11.111109733581543,
				111.1401138305664
			],
			"translation":[
				20.187360763549805,
				4.326051235198975,
				-16.581708908081055
			]
		},
		{
			"mesh":12,
			"name":"Regal.018",
			"rotation":[
				0,
				-0.7071068286895752,
				0,
				0.7071068286895752
			],
			"scale":[
				16.250513076782227,
				11.111109733581543,
				111.1401138305664
			],
			"translation":[
				20.185022354125977,
				4.997299671173096,
				-16.581708908081055
			]
		},
		{
			"mesh":13,
			"name":"Regal.019",
			"rotation":[
				0,
				-0.7071068286895752,
				0,
				0.7071068286895752
			],
			"scale":[
				16.250513076782227,
				11.111109733581543,
				111.1401138305664
			],
			"translation":[
				20.184316635131836,
				4.670417785644531,
				-16.581708908081055
			]
		},
		{
			"mesh":14,
			"name":"BettZeugs.012",
			"rotation":[
				0,
				0.7071068286895752,
				0,
				0.7071068286895752
			],
			"translation":[
				19.119140625,
				3.5635128021240234,
				-15.538568496704102
			]
		},
		{
			"mesh":15,
			"name":"BettZeugs.013",
			"rotation":[
				0,
				0.7071068286895752,
				0,
				0.7071068286895752
			],
			"scale":[
				0.19999998807907104,
				0.09999999403953552,
				0.29999998211860657
			],
			"translation":[
				18.75470733642578,
				3.657196521759033,
				-16.204530715942383
			]
		},
		{
			"mesh":16,
			"name":"BettZeugs.014",
			"rotation":[
				0,
				0.7071068286895752,
				0,
				0.7071068286895752
			],
			"scale":[
				0.19999998807907104,
				0.09999999403953552,
				0.29999998211860657
			],
			"translation":[
				19.512550354003906,
				3.657196521759033,
				-16.206830978393555
			]
		},
		{
			"mesh":17,
			"name":"BettZeugs.015",
			"rotation":[
				0,
				0.7071068286895752,
				0,
				0.7071068286895752
			],
			"scale":[
				1,
				0.5,
				1.1404677629470825
			],
			"translation":[
				19.12649917602539,
				3.574434995651245,
				-15.352560043334961
			]
		},
		{
			"mesh":18,
			"name":"Curve.067",
			"rotation":[
				0,
				0.7071068286895752,
				0,
				0.7071068286895752
			],
			"translation":[
				19.114967346191406,
				3.3849997520446777,
				-15.40916633605957
			]
		},
		{
			"mesh":19,
			"name":"Cube.270",
			"rotation":[
				0.38617146015167236,
				0.5892641544342041,
				-0.38030245900154114,
				0.5991739630699158
			],
			"scale":[
				1.0450472831726074,
				1.0450472831726074,
				1.0450471639633179
			],
			"translation":[
				20.553024291992188,
				5.1451826095581055,
				-16.420454025268555
			]
		},
		{
			"mesh":20,
			"name":"Cube.271",
			"rotation":[
				0.3857482969760895,
				0.5892143249511719,
				-0.3782782256603241,
				0.6007748246192932
			],
			"translation":[
				20.91721534729004,
				4.820870399475098,
				-16.424942016601562
			]
		}
	],
	"materials":[
		{
			"doubleSided":true,
			"name":"Material.031",
			"pbrMetallicRoughness":{
				"baseColorTexture":{
					"index":0
				},
				"metallicFactor":0,
				"roughnessFactor":0.5
			}
		},
		{
			"doubleSided":true,
			"name":"Material.032",
			"pbrMetallicRoughness":{
				"baseColorTexture":{
					"index":1
				},
				"metallicFactor":0
			}
		},
		{
			"doubleSided":true,
			"name":"mdf green",
			"pbrMetallicRoughness":{
				"baseColorFactor":[
					0.162029430270195,
					0.22322800755500793,
					0.14126333594322205,
					1
				],
				"metallicFactor":0,
				"roughnessFactor":0.5
			}
		},
		{
			"doubleSided":true,
			"name":"book cover",
			"pbrMetallicRoughness":{
				"metallicFactor":0
			}
		},
		{
			"doubleSided":true,
			"name":"stacked paper",
			"pbrMetallicRoughness":{
				"metallicFactor":0,
				"roughnessFactor":0.7583333253860474
			}
		}
	],
	"meshes":[
		{
			"name":"Curve.302",
			"primitives":[
				{
					"attributes":{
						"POSITION":0,
						"NORMAL":1,
						"TEXCOORD_0":2
					},
					"indices":3,
					"material":0
				}
			]
		},
		{
			"name":"Curve.303",
			"primitives":[
				{
					"attributes":{
						"POSITION":4,
						"NORMAL":5,
						"TEXCOORD_0":6
					},
					"indices":3,
					"material":1
				}
			]
		},
		{
			"name":"Curve.304",
			"primitives":[
				{
					"attributes":{
						"POSITION":7,
						"NORMAL":8,
						"TEXCOORD_0":9
					},
					"indices":10
				}
			]
		},
		{
			"name":"Curve.305",
			"primitives":[
				{
					"attributes":{
						"POSITION":11,
						"NORMAL":12,
						"TEXCOORD_0":13
					},
					"indices":3
				}
			]
		},
		{
			"name":"Curve.306",
			"primitives":[
				{
					"attributes":{
						"POSITION":14,
						"NORMAL":15,
						"TEXCOORD_0":16
					},
					"indices":3
				}
			]
		},
		{
			"name":"Curve.307",
			"primitives":[
				{
					"attributes":{
						"POSITION":17,
						"NORMAL":18,
						"TEXCOORD_0":19
					},
					"indices":3
				}
			]
		},
		{
			"name":"Curve.308",
			"primitives":[
				{
					"attributes":{
						"POSITION":20,
						"NORMAL":21,
						"TEXCOORD_0":22
					},
					"indices":10
				}
			]
		},
		{
			"name":"Curve.309",
			"primitives":[
				{
					"attributes":{
						"POSITION":23,
						"NORMAL":24,
						"TEXCOORD_0":25
					},
					"indices":10
				}
			]
		},
		{
			"name":"Curve.310",
			"primitives":[
				{
					"attributes":{
						"POSITION":26,
						"NORMAL":27,
						"TEXCOORD_0":28
					},
					"indices":10
				}
			]
		},
		{
			"name":"Curve.311",
			"primitives":[
				{
					"attributes":{
						"POSITION":29,
						"NORMAL":30,
						"TEXCOORD_0":31
					},
					"indices":10
				}
			]
		},
		{
			"name":"Curve.312",
			"primitives":[
				{
					"attributes":{
						"POSITION":32,
						"NORMAL":33,
						"TEXCOORD_0":34
					},
					"indices":10
				}
			]
		},
		{
			"name":"Curve.313",
			"primitives":[
				{
					"attributes":{
						"POSITION":35,
						"NORMAL":36,
						"TEXCOORD_0":37
					},
					"indices":3
				}
			]
		},
		{
			"name":"Curve.314",
			"primitives":[
				{
					"attributes":{
						"POSITION":38,
						"NORMAL":39,
						"TEXCOORD_0":40
					},
					"indices":3
				}
			]
		},
		{
			"name":"Curve.315",
			"primitives":[
				{
					"attributes":{
						"POSITION":41,
						"NORMAL":42,
						"TEXCOORD_0":43
					},
					"indices":3
				}
			]
		},
		{
			"name":"Cube.626",
			"primitives":[
				{
					"attributes":{
						"POSITION":44,
						"NORMAL":45,
						"TEXCOORD_0":46
					},
					"indices":47
				}
			]
		},
		{
			"name":"Cube.627",
			"primitives":[
				{
					"attributes":{
						"POSITION":48,
						"NORMAL":49,
						"TEXCOORD_0":50
					},
					"indices":51
				}
			]
		},
		{
			"name":"Cube.628",
			"primitives":[
				{
					"attributes":{
						"POSITION":52,
						"NORMAL":53,
						"TEXCOORD_0":54
					},
					"indices":55
				}
			]
		},
		{
			"name":"Cube.629",
			"primitives":[
				{
					"attributes":{
						"POSITION":56,
						"NORMAL":57,
						"TEXCOORD_0":58
					},
					"indices":59
				}
			]
		},
		{
			"name":"Curve.301",
			"primitives":[
				{
					"attributes":{
						"POSITION":60,
						"NORMAL":61,
						"TEXCOORD_0":62
					},
					"indices":63,
					"material":2
				}
			]
		},
		{
			"name":"Cube.630",
			"primitives":[
				{
					"attributes":{
						"POSITION":64,
						"NORMAL":65,
						"TEXCOORD_0":66,
						"COLOR_0":67,
						"COLOR_1":68
					},
					"indices":69,
					"material":3
				},
				{
					"attributes":{
						"POSITION":70,
						"NORMAL":71,
						"TEXCOORD_0":72,
						"COLOR_0":73,
						"COLOR_1":74
					},
					"indices":75,
					"material":4
				}
			]
		},
		{
			"name":"Cube.631",
			"primitives":[
				{
					"attributes":{
						"POSITION":76,
						"NORMAL":77,
						"TEXCOORD_0":78
					},
					"indices":79,
					"material":3
				},
				{
					"attributes":{
						"POSITION":80,
						"NORMAL":81,
						"TEXCOORD_0":82
					},
					"indices":83,
					"material":4
				}
			]
		}
	],
	"textures":[
		{
			"sampler":0,
			"source":0
		},
		{
			"sampler":0,
			"source":1
		}
	],
	"images":[
		{
			"mimeType":"image/png",
			"name":"Screenshot 2026-06-24 151951",
			"uri":"Screenshot%202026-06-24%20151951.png"
		},
		{
			"mimeType":"image/png",
			"name":"Screenshot 2026-06-24 152532",
			"uri":"Screenshot%202026-06-24%20152532.png"
		}
	],
	"accessors":[
		{
			"bufferView":0,
			"componentType":5126,
			"count":24,
			"max":[
				9.451635918367174e-08,
				0.7999999523162842,
				1.999999761581421
			],
			"min":[
				-0.030000075697898865,
				0,
				7.022592194040741e-15
			],
			"type":"VEC3"
		},
		{
			"bufferView":1,
			"componentType":5126,
			"count":24,
			"type":"VEC3"
		},
		{
			"bufferView":2,
			"componentType":5126,
			"count":24,
			"type":"VEC2"
		},
		{
			"bufferView":3,
			"componentType":5123,
			"count":36,
			"type":"SCALAR"
		},
		{
			"bufferView":4,
			"componentType":5126,
			"count":24,
			"max":[
				0.015999536961317062,
				0.0036000004038214684,
				0
			],
			"min":[
				4.2840827774170975e-08,
				0,
				-0.014396240934729576
			],
			"type":"VEC3"
		},
		{
			"bufferView":5,
			"componentType":5126,
			"count":24,
			"type":"VEC3"
		},
		{
			"bufferView":6,
			"componentType":5126,
			"count":24,
			"type":"VEC2"
		},
		{
			"bufferView":7,
			"componentType":5126,
			"count":192,
			"max":[
				0.4700012505054474,
				1.164153076160801e-07,
				1.5999994277954102
			],
			"min":[
				1.2584893056555302e-06,
				-0.4499998688697815,
				-4.0962459024740383e-07
			],
			"type":"VEC3"
		},
		{
			"bufferView":8,
			"componentType":5126,
			"count":192,
			"type":"VEC3"
		},
		{
			"bufferView":9,
			"componentType":5126,
			"count":192,
			"type":"VEC2"
		},
		{
			"bufferView":10,
			"componentType":5123,
			"count":264,
			"type":"SCALAR"
		},
		{
			"bufferView":11,
			"componentType":5126,
			"count":24,
			"max":[
				0.015999536961317062,
				0.0036000004038214684,
				0
			],
			"min":[
				4.2840827774170975e-08,
				0,
				-0.014396240934729576
			],
			"type":"VEC3"
		},
		{
			"bufferView":12,
			"componentType":5126,
			"count":24,
			"type":"VEC3"
		},
		{
			"bufferView":13,
			"componentType":5126,
			"count":24,
			"type":"VEC2"
		},
		{
			"bufferView":14,
			"componentType":5126,
			"count":24,
			"max":[
				0.015999536961317062,
				0.0036000004038214684,
				0
			],
			"min":[
				4.2840827774170975e-08,
				0,
				-0.014396240934729576
			],
			"type":"VEC3"
		},
		{
			"bufferView":15,
			"componentType":5126,
			"count":24,
			"type":"VEC3"
		},
		{
			"bufferView":16,
			"componentType":5126,
			"count":24,
			"type":"VEC2"
		},
		{
			"bufferView":17,
			"componentType":5126,
			"count":24,
			"max":[
				0.015999536961317062,
				0.0036000004038214684,
				0
			],
			"min":[
				4.2840827774170975e-08,
				0,
				-0.014396240934729576
			],
			"type":"VEC3"
		},
		{
			"bufferView":18,
			"componentType":5126,
			"count":24,
			"type":"VEC3"
		},
		{
			"bufferView":19,
			"componentType":5126,
			"count":24,
			"type":"VEC2"
		},
		{
			"bufferView":20,
			"componentType":5126,
			"count":192,
			"max":[
				0.4700012505054474,
				1.164153076160801e-07,
				1.5999994277954102
			],
			"min":[
				1.2584893056555302e-06,
				-0.4499998688697815,
				-4.0962459024740383e-07
			],
			"type":"VEC3"
		},
		{
			"bufferView":21,
			"componentType":5126,
			"count":192,
			"type":"VEC3"
		},
		{
			"bufferView":22,
			"componentType":5126,
			"count":192,
			"type":"VEC2"
		},
		{
			"bufferView":23,
			"componentType":5126,
			"count":192,
			"max":[
				0.4700012505054474,
				1.164153076160801e-07,
				1.5999994277954102
			],
			"min":[
				1.2584893056555302e-06,
				-0.4499998688697815,
				-4.0962459024740383e-07
			],
			"type":"VEC3"
		},
		{
			"bufferView":24,
			"componentType":5126,
			"count":192,
			"type":"VEC3"
		},
		{
			"bufferView":25,
			"componentType":5126,
			"count":192,
			"type":"VEC2"
		},
		{
			"bufferView":26,
			"componentType":5126,
			"count":192,
			"max":[
				0.4700012505054474,
				1.164153076160801e-07,
				1.5999994277954102
			],
			"min":[
				1.2584893056555302e-06,
				-0.4499998688697815,
				-4.0962459024740383e-07
			],
			"type":"VEC3"
		},
		{
			"bufferView":27,
			"componentType":5126,
			"count":192,
			"type":"VEC3"
		},
		{
			"bufferView":28,
			"componentType":5126,
			"count":192,
			"type":"VEC2"
		},
		{
			"bufferView":29,
			"componentType":5126,
			"count":192,
			"max":[
				0.4700012505054474,
				1.164153076160801e-07,
				1.5999994277954102
			],
			"min":[
				1.2584893056555302e-06,
				-0.4499998688697815,
				-4.0962459024740383e-07
			],
			"type":"VEC3"
		},
		{
			"bufferView":30,
			"componentType":5126,
			"count":192,
			"type":"VEC3"
		},
		{
			"bufferView":31,
			"componentType":5126,
			"count":192,
			"type":"VEC2"
		},
		{
			"bufferView":32,
			"componentType":5126,
			"count":192,
			"max":[
				0.4700012505054474,
				1.164153076160801e-07,
				1.5999994277954102
			],
			"min":[
				1.2584893056555302e-06,
				-0.4499998688697815,
				-4.0962459024740383e-07
			],
			"type":"VEC3"
		},
		{
			"bufferView":33,
			"componentType":5126,
			"count":192,
			"type":"VEC3"
		},
		{
			"bufferView":34,
			"componentType":5126,
			"count":192,
			"type":"VEC2"
		},
		{
			"bufferView":35,
			"componentType":5126,
			"count":24,
			"max":[
				0.015999536961317062,
				0.0036000004038214684,
				0
			],
			"min":[
				4.2840827774170975e-08,
				0,
				-0.014396240934729576
			],
			"type":"VEC3"
		},
		{
			"bufferView":36,
			"componentType":5126,
			"count":24,
			"type":"VEC3"
		},
		{
			"bufferView":37,
			"componentType":5126,
			"count":24,
			"type":"VEC2"
		},
		{
			"bufferView":38,
			"componentType":5126,
			"count":24,
			"max":[
				0.015999536961317062,
				0.0036000004038214684,
				0
			],
			"min":[
				4.2840827774170975e-08,
				0,
				-0.014396240934729576
			],
			"type":"VEC3"
		},
		{
			"bufferView":39,
			"componentType":5126,
			"count":24,
			"type":"VEC3"
		},
		{
			"bufferView":40,
			"componentType":5126,
			"count":24,
			"type":"VEC2"
		},
		{
			"bufferView":41,
			"componentType":5126,
			"count":24,
			"max":[
				0.015999536961317062,
				0.0036000004038214684,
				0
			],
			"min":[
				4.2840827774170975e-08,
				0,
				-0.014396240934729576
			],
			"type":"VEC3"
		},
		{
			"bufferView":42,
			"componentType":5126,
			"count":24,
			"type":"VEC3"
		},
		{
			"bufferView":43,
			"componentType":5126,
			"count":24,
			"type":"VEC2"
		},
		{
			"bufferView":44,
			"componentType":5126,
			"count":384,
			"max":[
				0.949999988079071,
				0.009999999776482582,
				0.8499999642372131
			],
			"min":[
				-0.949999988079071,
				-0.009999999776482582,
				-0.8499999642372131
			],
			"type":"VEC3"
		},
		{
			"bufferView":45,
			"componentType":5126,
			"count":384,
			"type":"VEC3"
		},
		{
			"bufferView":46,
			"componentType":5126,
			"count":384,
			"type":"VEC2"
		},
		{
			"bufferView":47,
			"componentType":5123,
			"count":564,
			"type":"SCALAR"
		},
		{
			"bufferView":48,
			"componentType":5126,
			"count":784,
			"max":[
				1,
				1.3216506242752075,
				1
			],
			"min":[
				-1,
				-0.6927880048751831,
				-1
			],
			"type":"VEC3"
		},
		{
			"bufferView":49,
			"componentType":5126,
			"count":784,
			"type":"VEC3"
		},
		{
			"bufferView":50,
			"componentType":5126,
			"count":784,
			"type":"VEC2"
		},
		{
			"bufferView":51,
			"componentType":5123,
			"count":1284,
			"type":"SCALAR"
		},
		{
			"bufferView":52,
			"componentType":5126,
			"count":784,
			"max":[
				1,
				0.9524341225624084,
				1
			],
			"min":[
				-1,
				-1.0475847721099854,
				-1
			],
			"type":"VEC3"
		},
		{
			"bufferView":53,
			"componentType":5126,
			"count":784,
			"type":"VEC3"
		},
		{
			"bufferView":54,
			"componentType":5126,
			"count":784,
			"type":"VEC2"
		},
		{
			"bufferView":55,
			"componentType":5123,
			"count":1284,
			"type":"SCALAR"
		},
		{
			"bufferView":56,
			"componentType":5126,
			"count":784,
			"max":[
				0.7193006277084351,
				0.13850626349449158,
				0.7119068503379822
			],
			"min":[
				-0.7193006277084351,
				-0.09738311916589737,
				-0.7119068503379822
			],
			"type":"VEC3"
		},
		{
			"bufferView":57,
			"componentType":5126,
			"count":784,
			"type":"VEC3"
		},
		{
			"bufferView":58,
			"componentType":5126,
			"count":784,
			"type":"VEC2"
		},
		{
			"bufferView":59,
			"componentType":5123,
			"count":1284,
			"type":"SCALAR"
		},
		{
			"bufferView":60,
			"componentType":5126,
			"count":68,
			"max":[
				1.1699684858322144,
				0.6150003671646118,
				0.8997650742530823
			],
			"min":[
				-0.8699682950973511,
				-0.22499999403953552,
				-0.8997650742530823
			],
			"type":"VEC3"
		},
		{
			"bufferView":61,
			"componentType":5126,
			"count":68,
			"type":"VEC3"
		},
		{
			"bufferView":62,
			"componentType":5126,
			"count":68,
			"type":"VEC2"
		},
		{
			"bufferView":63,
			"componentType":5123,
			"count":132,
			"type":"SCALAR"
		},
		{
			"bufferView":64,
			"componentType":5126,
			"count":1696,
			"max":[
				0.0779585987329483,
				0.006016033701598644,
				0.09951478242874146
			],
			"min":[
				-0.07400302588939667,
				-0.006037367973476648,
				-0.09979613870382309
			],
			"type":"VEC3"
		},
		{
			"bufferView":65,
			"componentType":5126,
			"count":1696,
			"type":"VEC3"
		},
		{
			"bufferView":66,
			"componentType":5126,
			"count":1696,
			"type":"VEC2"
		},
		{
			"bufferView":67,
			"componentType":5121,
			"count":1696,
			"normalized":true,
			"type":"VEC4"
		},
		{
			"bufferView":68,
			"componentType":5123,
			"count":1696,
			"normalized":true,
			"type":"VEC4"
		},
		{
			"bufferView":69,
			"componentType":5123,
			"count":9600,
			"type":"SCALAR"
		},
		{
			"bufferView":70,
			"componentType":5126,
			"count":304,
			"max":[
				0.07390221953392029,
				0.004116105381399393,
				0.09522208571434021
			],
			"min":[
				-0.07087823748588562,
				-0.0041374401189386845,
				-0.09546928852796555
			],
			"type":"VEC3"
		},
		{
			"bufferView":71,
			"componentType":5126,
			"count":304,
			"type":"VEC3"
		},
		{
			"bufferView":72,
			"componentType":5126,
			"count":304,
			"type":"VEC2"
		},
		{
			"bufferView":73,
			"componentType":5121,
			"count":304,
			"normalized":true,
			"type":"VEC4"
		},
		{
			"bufferView":74,
			"componentType":5123,
			"count":304,
			"normalized":true,
			"type":"VEC4"
		},
		{
			"bufferView":75,
			"componentType":5123,
			"count":960,
			"type":"SCALAR"
		},
		{
			"bufferView":76,
			"componentType":5126,
			"count":1928,
			"max":[
				0.07858747988939285,
				0.007496214937418699,
				0.11420632153749466
			],
			"min":[
				-0.07451021671295166,
				-0.00750378705561161,
				-0.11424045264720917
			],
			"type":"VEC3"
		},
		{
			"bufferView":77,
			"componentType":5126,
			"count":1928,
			"type":"VEC3"
		},
		{
			"bufferView":78,
			"componentType":5126,
			"count":1928,
			"type":"VEC2"
		},
		{
			"bufferView":79,
			"componentType":5123,
			"count":10944,
			"type":"SCALAR"
		},
		{
			"bufferView":80,
			"componentType":5126,
			"count":304,
			"max":[
				0.07453108578920364,
				0.005596288479864597,
				0.10991360992193222
			],
			"min":[
				-0.07176019996404648,
				-0.005603861063718796,
				-0.10991361737251282
			],
			"type":"VEC3"
		},
		{
			"bufferView":81,
			"componentType":5126,
			"count":304,
			"type":"VEC3"
		},
		{
			"bufferView":82,
			"componentType":5126,
			"count":304,
			"type":"VEC2"
		},
		{
			"bufferView":83,
			"componentType":5123,
			"count":960,
			"type":"SCALAR"
		}
	],
	"bufferViews":[
		{
			"buffer":0,
			"byteLength":288,
			"byteOffset":0,
			"target":34962
		},
		{
			"buffer":0,
			"byteLength":288,
			"byteOffset":288,
			"target":34962
		},
		{
			"buffer":0,
			"byteLength":192,
			"byteOffset":576,
			"target":34962
		},
		{
			"buffer":0,
			"byteLength":72,
			"byteOffset":768,
			"target":34963
		},
		{
			"buffer":0,
			"byteLength":288,
			"byteOffset":840,
			"target":34962
		},
		{
			"buffer":0,
			"byteLength":288,
			"byteOffset":1128,
			"target":34962
		},
		{
			"buffer":0,
			"byteLength":192,
			"byteOffset":1416,
			"target":34962
		},
		{
			"buffer":0,
			"byteLength":2304,
			"byteOffset":1608,
			"target":34962
		},
		{
			"buffer":0,
			"byteLength":2304,
			"byteOffset":3912,
			"target":34962
		},
		{
			"buffer":0,
			"byteLength":1536,
			"byteOffset":6216,
			"target":34962
		},
		{
			"buffer":0,
			"byteLength":528,
			"byteOffset":7752,
			"target":34963
		},
		{
			"buffer":0,
			"byteLength":288,
			"byteOffset":8280,
			"target":34962
		},
		{
			"buffer":0,
			"byteLength":288,
			"byteOffset":8568,
			"target":34962
		},
		{
			"buffer":0,
			"byteLength":192,
			"byteOffset":8856,
			"target":34962
		},
		{
			"buffer":0,
			"byteLength":288,
			"byteOffset":9048,
			"target":34962
		},
		{
			"buffer":0,
			"byteLength":288,
			"byteOffset":9336,
			"target":34962
		},
		{
			"buffer":0,
			"byteLength":192,
			"byteOffset":9624,
			"target":34962
		},
		{
			"buffer":0,
			"byteLength":288,
			"byteOffset":9816,
			"target":34962
		},
		{
			"buffer":0,
			"byteLength":288,
			"byteOffset":10104,
			"target":34962
		},
		{
			"buffer":0,
			"byteLength":192,
			"byteOffset":10392,
			"target":34962
		},
		{
			"buffer":0,
			"byteLength":2304,
			"byteOffset":10584,
			"target":34962
		},
		{
			"buffer":0,
			"byteLength":2304,
			"byteOffset":12888,
			"target":34962
		},
		{
			"buffer":0,
			"byteLength":1536,
			"byteOffset":15192,
			"target":34962
		},
		{
			"buffer":0,
			"byteLength":2304,
			"byteOffset":16728,
			"target":34962
		},
		{
			"buffer":0,
			"byteLength":2304,
			"byteOffset":19032,
			"target":34962
		},
		{
			"buffer":0,
			"byteLength":1536,
			"byteOffset":21336,
			"target":34962
		},
		{
			"buffer":0,
			"byteLength":2304,
			"byteOffset":22872,
			"target":34962
		},
		{
			"buffer":0,
			"byteLength":2304,
			"byteOffset":25176,
			"target":34962
		},
		{
			"buffer":0,
			"byteLength":1536,
			"byteOffset":27480,
			"target":34962
		},
		{
			"buffer":0,
			"byteLength":2304,
			"byteOffset":29016,
			"target":34962
		},
		{
			"buffer":0,
			"byteLength":2304,
			"byteOffset":31320,
			"target":34962
		},
		{
			"buffer":0,
			"byteLength":1536,
			"byteOffset":33624,
			"target":34962
		},
		{
			"buffer":0,
			"byteLength":2304,
			"byteOffset":35160,
			"target":34962
		},
		{
			"buffer":0,
			"byteLength":2304,
			"byteOffset":37464,
			"target":34962
		},
		{
			"buffer":0,
			"byteLength":1536,
			"byteOffset":39768,
			"target":34962
		},
		{
			"buffer":0,
			"byteLength":288,
			"byteOffset":41304,
			"target":34962
		},
		{
			"buffer":0,
			"byteLength":288,
			"byteOffset":41592,
			"target":34962
		},
		{
			"buffer":0,
			"byteLength":192,
			"byteOffset":41880,
			"target":34962
		},
		{
			"buffer":0,
			"byteLength":288,
			"byteOffset":42072,
			"target":34962
		},
		{
			"buffer":0,
			"byteLength":288,
			"byteOffset":42360,
			"target":34962
		},
		{
			"buffer":0,
			"byteLength":192,
			"byteOffset":42648,
			"target":34962
		},
		{
			"buffer":0,
			"byteLength":288,
			"byteOffset":42840,
			"target":34962
		},
		{
			"buffer":0,
			"byteLength":288,
			"byteOffset":43128,
			"target":34962
		},
		{
			"buffer":0,
			"byteLength":192,
			"byteOffset":43416,
			"target":34962
		},
		{
			"buffer":0,
			"byteLength":4608,
			"byteOffset":43608,
			"target":34962
		},
		{
			"buffer":0,
			"byteLength":4608,
			"byteOffset":48216,
			"target":34962
		},
		{
			"buffer":0,
			"byteLength":3072,
			"byteOffset":52824,
			"target":34962
		},
		{
			"buffer":0,
			"byteLength":1128,
			"byteOffset":55896,
			"target":34963
		},
		{
			"buffer":0,
			"byteLength":9408,
			"byteOffset":57024,
			"target":34962
		},
		{
			"buffer":0,
			"byteLength":9408,
			"byteOffset":66432,
			"target":34962
		},
		{
			"buffer":0,
			"byteLength":6272,
			"byteOffset":75840,
			"target":34962
		},
		{
			"buffer":0,
			"byteLength":2568,
			"byteOffset":82112,
			"target":34963
		},
		{
			"buffer":0,
			"byteLength":9408,
			"byteOffset":84680,
			"target":34962
		},
		{
			"buffer":0,
			"byteLength":9408,
			"byteOffset":94088,
			"target":34962
		},
		{
			"buffer":0,
			"byteLength":6272,
			"byteOffset":103496,
			"target":34962
		},
		{
			"buffer":0,
			"byteLength":2568,
			"byteOffset":109768,
			"target":34963
		},
		{
			"buffer":0,
			"byteLength":9408,
			"byteOffset":112336,
			"target":34962
		},
		{
			"buffer":0,
			"byteLength":9408,
			"byteOffset":121744,
			"target":34962
		},
		{
			"buffer":0,
			"byteLength":6272,
			"byteOffset":131152,
			"target":34962
		},
		{
			"buffer":0,
			"byteLength":2568,
			"byteOffset":137424,
			"target":34963
		},
		{
			"buffer":0,
			"byteLength":816,
			"byteOffset":139992,
			"target":34962
		},
		{
			"buffer":0,
			"byteLength":816,
			"byteOffset":140808,
			"target":34962
		},
		{
			"buffer":0,
			"byteLength":544,
			"byteOffset":141624,
			"target":34962
		},
		{
			"buffer":0,
			"byteLength":264,
			"byteOffset":142168,
			"target":34963
		},
		{
			"buffer":0,
			"byteLength":20352,
			"byteOffset":142432,
			"target":34962
		},
		{
			"buffer":0,
			"byteLength":20352,
			"byteOffset":162784,
			"target":34962
		},
		{
			"buffer":0,
			"byteLength":13568,
			"byteOffset":183136,
			"target":34962
		},
		{
			"buffer":0,
			"byteLength":6784,
			"byteOffset":196704,
			"target":34962
		},
		{
			"buffer":0,
			"byteLength":13568,
			"byteOffset":203488,
			"target":34962
		},
		{
			"buffer":0,
			"byteLength":19200,
			"byteOffset":217056,
			"target":34963
		},
		{
			"buffer":0,
			"byteLength":3648,
			"byteOffset":236256,
			"target":34962
		},
		{
			"buffer":0,
			"byteLength":3648,
			"byteOffset":239904,
			"target":34962
		},
		{
			"buffer":0,
			"byteLength":2432,
			"byteOffset":243552,
			"target":34962
		},
		{
			"buffer":0,
			"byteLength":1216,
			"byteOffset":245984,
			"target":34962
		},
		{
			"buffer":0,
			"byteLength":2432,
			"byteOffset":247200,
			"target":34962
		},
		{
			"buffer":0,
			"byteLength":1920,
			"byteOffset":249632,
			"target":34963
		},
		{
			"buffer":0,
			"byteLength":23136,
			"byteOffset":251552,
			"target":34962
		},
		{
			"buffer":0,
			"byteLength":23136,
			"byteOffset":274688,
			"target":34962
		},
		{
			"buffer":0,
			"byteLength":15424,
			"byteOffset":297824,
			"target":34962
		},
		{
			"buffer":0,
			"byteLength":21888,
			"byteOffset":313248,
			"target":34963
		},
		{
			"buffer":0,
			"byteLength":3648,
			"byteOffset":335136,
			"target":34962
		},
		{
			"buffer":0,
			"byteLength":3648,
			"byteOffset":338784,
			"target":34962
		},
		{
			"buffer":0,
			"byteLength":2432,
			"byteOffset":342432,
			"target":34962
		},
		{
			"buffer":0,
			"byteLength":1920,
			"byteOffset":344864,
			"target":34963
		}
	],
	"samplers":[
		{
			"magFilter":9729,
			"minFilter":9987
		}
	],
	"buffers":[
		{
			"byteLength":346784,
			"uri":"SchlafzimmerLayout_02.bin"
		}
	]
}
