{
	"asset":{
		"generator":"Khronos glTF Blender I/O v5.1.18",
		"version":"2.0"
	},
	"scene":0,
	"scenes":[
		{
			"name":"Scene",
			"nodes":[
				0,
				1,
				2,
				3,
				4,
				5,
				6,
				7,
				8,
				9,
				10,
				11,
				12,
				13,
				14,
				15,
				16
			]
		}
	],
	"nodes":[
		{
			"mesh":0,
			"name":"Bild.006",
			"translation":[
				21.870121002197266,
				4.4837164878845215,
				-15.555366516113281
			]
		},
		{
			"mesh":1,
			"name":"Bild.007",
			"rotation":[
				0,
				0.7071068286895752,
				0,
				0.7071068286895752
			],
			"scale":[
				1.8750592470169067,
				374.9999694824219,
				125.03263854980469
			],
			"translation":[
				20.02488136291504,
				4.232865810394287,
				-16.553064346313477
			]
		},
		{
			"mesh":2,
			"name":"Regal.014",
			"rotation":[
				0,
				1,
				0,
				1.6292068494294654e-07
			],
			"scale":[
				16.250513076782227,
				11.111109733581543,
				62.516319274902344
			],
			"translation":[
				21.856563568115234,
				4.546277046203613,
				-16.58296012878418
			]
		},
		{
			"mesh":3,
			"name":"Regal.015",
			"rotation":[
				0,
				1,
				0,
				1.6292068494294654e-07
			],
			"scale":[
				16.250513076782227,
				11.111109733581543,
				62.516319274902344
			],
			"translation":[
				21.856563568115234,
				4.873158931732178,
				-16.58225440979004
			]
		},
		{
			"mesh":4,
			"name":"Regal.016",
			"rotation":[
				0,
				1,
				0,
				1.6292068494294654e-07
			],
			"scale":[
				16.250513076782227,
				11.111109733581543,
				62.516319274902344
			],
			"translation":[
				21.856563568115234,
				4.201910495758057,
				-16.57991600036621
			]
		},
		{
			"mesh":5,
			"name":"Cube.270",
			"rotation":[
				0.38617146015167236,
				0.5892641544342041,
				-0.38030245900154114,
				0.5991739630699158
			],
			"scale":[
				1.0450472831726074,
				1.0450472831726074,
				1.0450471639633179
			],
			"translation":[
				-0.7249919772148132,
				0.09700003266334534,
				-0.37639886140823364
			]
		},
		{
			"mesh":6,
			"name":"Cube.271",
			"rotation":[
				0.3857482969760895,
				0.5892143249511719,
				-0.3782782256603241,
				0.6007748246192932
			],
			"translation":[
				-0.7139937281608582,
				0.10655700415372849,
				-0.3808867335319519
			]
		},
		{
			"mesh":7,
			"name":"Curve.071",
			"rotation":[
				0,
				1,
				0,
				1.6292068494294654e-07
			],
			"scale":[
				1,
				0.5777777433395386,
				1
			],
			"translation":[
				21.842121124267578,
				3.687321424484253,
				-13.352951049804688
			]
		},
		{
			"mesh":8,
			"name":"Curve.072",
			"rotation":[
				0,
				1,
				0,
				1.6292068494294654e-07
			],
			"scale":[
				1,
				0.5777777433395386,
				1
			],
			"translation":[
				21.842121124267578,
				3.947319984436035,
				-13.352951049804688
			]
		},
		{
			"mesh":9,
			"name":"Curve.073",
			"rotation":[
				0,
				1,
				0,
				1.6292068494294654e-07
			],
			"scale":[
				1,
				0.5777777433395386,
				1
			],
			"translation":[
				21.842119216918945,
				3.428821563720703,
				-13.352951049804688
			]
		},
		{
			"mesh":10,
			"name":"Regal.017",
			"rotation":[
				0,
				1,
				0,
				1.6292068494294654e-07
			],
			"scale":[
				16.250513076782227,
				11.111109733581543,
				62.516319274902344
			],
			"translation":[
				21.856563568115234,
				5.23594331741333,
				-16.58225440979004
			]
		},
		{
			"mesh":11,
			"name":"Mesh_0.009",
			"rotation":[
				0,
				0.39007875323295593,
				0,
				0.9207815527915955
			],
			"scale":[
				1.215406894683838,
				0,
				1
			],
			"translation":[
				17.063007354736328,
				3.1599998474121094,
				-15.99962329864502
			]
		},
		{
			"mesh":12,
			"name":"BettZeugs.012",
			"rotation":[
				0,
				0.7071068286895752,
				0,
				0.7071068286895752
			],
			"scale":[
				1.0526316165924072,
				1,
				1.058823585510254
			],
			"translation":[
				19.119140625,
				3.5635128021240234,
				-15.486017227172852
			]
		},
		{
			"mesh":13,
			"name":"BettZeugs.013",
			"rotation":[
				0,
				0.7071068286895752,
				0,
				0.7071068286895752
			],
			"scale":[
				0.19999998807907104,
				0.09999999403953552,
				0.29999998211860657
			],
			"translation":[
				18.75470733642578,
				3.657196521759033,
				-16.151979446411133
			]
		},
		{
			"mesh":14,
			"name":"BettZeugs.014",
			"rotation":[
				0,
				0.7071068286895752,
				0,
				0.7071068286895752
			],
			"scale":[
				0.19999998807907104,
				0.09999999403953552,
				0.29999998211860657
			],
			"translation":[
				19.512550354003906,
				3.657196521759033,
				-16.154279708862305
			]
		},
		{
			"mesh":15,
			"name":"BettZeugs.015",
			"rotation":[
				0,
				0.7071068286895752,
				0,
				0.7071068286895752
			],
			"scale":[
				1,
				0.5,
				1.1404677629470825
			],
			"translation":[
				19.12649917602539,
				3.574434995651245,
				-15.300008773803711
			]
		},
		{
			"mesh":16,
			"name":"Curve.067",
			"rotation":[
				0,
				0.7071068286895752,
				0,
				0.7071068286895752
			],
			"translation":[
				19.114967346191406,
				3.3849997520446777,
				-15.35661506652832
			]
		}
	],
	"materials":[
		{
			"doubleSided":true,
			"name":"Material.031",
			"pbrMetallicRoughness":{
				"baseColorTexture":{
					"index":0
				},
				"metallicFactor":0,
				"roughnessFactor":0.5
			}
		},
		{
			"doubleSided":true,
			"name":"Material.032",
			"pbrMetallicRoughness":{
				"baseColorTexture":{
					"index":1
				},
				"metallicFactor":0
			}
		},
		{
			"doubleSided":true,
			"name":"book cover",
			"pbrMetallicRoughness":{
				"metallicFactor":0
			}
		},
		{
			"doubleSided":true,
			"name":"stacked paper",
			"pbrMetallicRoughness":{
				"metallicFactor":0,
				"roughnessFactor":0.7583333253860474
			}
		},
		{
			"name":"Material_0",
			"normalTexture":{
				"index":2
			},
			"occlusionTexture":{
				"index":3
			},
			"pbrMetallicRoughness":{
				"baseColorTexture":{
					"index":4
				},
				"metallicFactor":0
			}
		},
		{
			"doubleSided":true,
			"name":"mdf green",
			"pbrMetallicRoughness":{
				"baseColorFactor":[
					0.162029430270195,
					0.22322800755500793,
					0.14126333594322205,
					1
				],
				"metallicFactor":0,
				"roughnessFactor":0.5
			}
		}
	],
	"meshes":[
		{
			"name":"Curve.317",
			"primitives":[
				{
					"attributes":{
						"POSITION":0,
						"NORMAL":1,
						"TEXCOORD_0":2
					},
					"indices":3,
					"material":0
				}
			]
		},
		{
			"name":"Curve.318",
			"primitives":[
				{
					"attributes":{
						"POSITION":4,
						"NORMAL":5,
						"TEXCOORD_0":6
					},
					"indices":3,
					"material":1
				}
			]
		},
		{
			"name":"Curve.319",
			"primitives":[
				{
					"attributes":{
						"POSITION":7,
						"NORMAL":8,
						"TEXCOORD_0":9
					},
					"indices":3
				}
			]
		},
		{
			"name":"Curve.320",
			"primitives":[
				{
					"attributes":{
						"POSITION":10,
						"NORMAL":11,
						"TEXCOORD_0":12
					},
					"indices":3
				}
			]
		},
		{
			"name":"Curve.321",
			"primitives":[
				{
					"attributes":{
						"POSITION":13,
						"NORMAL":14,
						"TEXCOORD_0":15
					},
					"indices":3
				}
			]
		},
		{
			"name":"Cube.799",
			"primitives":[
				{
					"attributes":{
						"POSITION":16,
						"NORMAL":17,
						"TEXCOORD_0":18,
						"COLOR_0":19,
						"COLOR_1":20
					},
					"indices":21,
					"material":2
				},
				{
					"attributes":{
						"POSITION":22,
						"NORMAL":23,
						"TEXCOORD_0":24,
						"COLOR_0":25,
						"COLOR_1":26
					},
					"indices":27,
					"material":3
				}
			]
		},
		{
			"name":"Cube.800",
			"primitives":[
				{
					"attributes":{
						"POSITION":28,
						"NORMAL":29,
						"TEXCOORD_0":30
					},
					"indices":31,
					"material":2
				},
				{
					"attributes":{
						"POSITION":32,
						"NORMAL":33,
						"TEXCOORD_0":34
					},
					"indices":35,
					"material":3
				}
			]
		},
		{
			"name":"Curve.322",
			"primitives":[
				{
					"attributes":{
						"POSITION":36,
						"NORMAL":37,
						"TEXCOORD_0":38
					},
					"indices":39
				}
			]
		},
		{
			"name":"Curve.323",
			"primitives":[
				{
					"attributes":{
						"POSITION":40,
						"NORMAL":41,
						"TEXCOORD_0":42
					},
					"indices":39
				}
			]
		},
		{
			"name":"Curve.324",
			"primitives":[
				{
					"attributes":{
						"POSITION":43,
						"NORMAL":44,
						"TEXCOORD_0":45
					},
					"indices":39
				}
			]
		},
		{
			"name":"Curve.325",
			"primitives":[
				{
					"attributes":{
						"POSITION":46,
						"NORMAL":47,
						"TEXCOORD_0":48
					},
					"indices":3
				}
			]
		},
		{
			"name":"Mesh_0.038",
			"primitives":[
				{
					"attributes":{
						"POSITION":49,
						"NORMAL":50,
						"TEXCOORD_0":51
					},
					"indices":52,
					"material":4
				}
			]
		},
		{
			"name":"Cube.795",
			"primitives":[
				{
					"attributes":{
						"POSITION":53,
						"NORMAL":54,
						"TEXCOORD_0":55
					},
					"indices":56
				}
			]
		},
		{
			"name":"Cube.796",
			"primitives":[
				{
					"attributes":{
						"POSITION":57,
						"NORMAL":58,
						"TEXCOORD_0":59
					},
					"indices":60
				}
			]
		},
		{
			"name":"Cube.797",
			"primitives":[
				{
					"attributes":{
						"POSITION":61,
						"NORMAL":62,
						"TEXCOORD_0":63
					},
					"indices":64
				}
			]
		},
		{
			"name":"Cube.798",
			"primitives":[
				{
					"attributes":{
						"POSITION":65,
						"NORMAL":66,
						"TEXCOORD_0":67
					},
					"indices":68
				}
			]
		},
		{
			"name":"Curve.316",
			"primitives":[
				{
					"attributes":{
						"POSITION":69,
						"NORMAL":70,
						"TEXCOORD_0":71
					},
					"indices":72,
					"material":5
				}
			]
		}
	],
	"textures":[
		{
			"sampler":0,
			"source":0
		},
		{
			"sampler":0,
			"source":1
		},
		{
			"sampler":0,
			"source":2
		},
		{
			"sampler":0,
			"source":3
		},
		{
			"sampler":0,
			"source":4
		}
	],
	"images":[
		{
			"mimeType":"image/png",
			"name":"Screenshot 2026-06-24 151951",
			"uri":"Screenshot%202026-06-24%20151951.png"
		},
		{
			"mimeType":"image/png",
			"name":"Screenshot 2026-06-24 152532",
			"uri":"Screenshot%202026-06-24%20152532.png"
		},
		{
			"mimeType":"image/jpeg",
			"name":"ffa9b365b29767dbe632a597066d47b4",
			"uri":"ffa9b365b29767dbe632a597066d47b4.jpg"
		},
		{
			"mimeType":"image/jpeg",
			"name":"082a04ef39e190c3e0b74fa0b1b6b451",
			"uri":"082a04ef39e190c3e0b74fa0b1b6b451.jpg"
		},
		{
			"mimeType":"image/jpeg",
			"name":"5df5ff62f86ad07569725302f0e825cf",
			"uri":"5df5ff62f86ad07569725302f0e825cf.jpg"
		}
	],
	"accessors":[
		{
			"bufferView":0,
			"componentType":5126,
			"count":24,
			"max":[
				9.451635918367174e-08,
				0.7999999523162842,
				1.999999761581421
			],
			"min":[
				-0.030000075697898865,
				0,
				7.022592194040741e-15
			],
			"type":"VEC3"
		},
		{
			"bufferView":1,
			"componentType":5126,
			"count":24,
			"type":"VEC3"
		},
		{
			"bufferView":2,
			"componentType":5126,
			"count":24,
			"type":"VEC2"
		},
		{
			"bufferView":3,
			"componentType":5123,
			"count":36,
			"type":"SCALAR"
		},
		{
			"bufferView":4,
			"componentType":5126,
			"count":24,
			"max":[
				0.015999536961317062,
				0.0036000004038214684,
				0
			],
			"min":[
				4.2840827774170975e-08,
				0,
				-0.014396240934729576
			],
			"type":"VEC3"
		},
		{
			"bufferView":5,
			"componentType":5126,
			"count":24,
			"type":"VEC3"
		},
		{
			"bufferView":6,
			"componentType":5126,
			"count":24,
			"type":"VEC2"
		},
		{
			"bufferView":7,
			"componentType":5126,
			"count":24,
			"max":[
				0.015999536961317062,
				0.0036000004038214684,
				0
			],
			"min":[
				4.2840827774170975e-08,
				0,
				-0.014396240934729576
			],
			"type":"VEC3"
		},
		{
			"bufferView":8,
			"componentType":5126,
			"count":24,
			"type":"VEC3"
		},
		{
			"bufferView":9,
			"componentType":5126,
			"count":24,
			"type":"VEC2"
		},
		{
			"bufferView":10,
			"componentType":5126,
			"count":24,
			"max":[
				0.015999536961317062,
				0.0036000004038214684,
				0
			],
			"min":[
				4.2840827774170975e-08,
				0,
				-0.014396240934729576
			],
			"type":"VEC3"
		},
		{
			"bufferView":11,
			"componentType":5126,
			"count":24,
			"type":"VEC3"
		},
		{
			"bufferView":12,
			"componentType":5126,
			"count":24,
			"type":"VEC2"
		},
		{
			"bufferView":13,
			"componentType":5126,
			"count":24,
			"max":[
				0.015999536961317062,
				0.0036000004038214684,
				0
			],
			"min":[
				4.2840827774170975e-08,
				0,
				-0.014396240934729576
			],
			"type":"VEC3"
		},
		{
			"bufferView":14,
			"componentType":5126,
			"count":24,
			"type":"VEC3"
		},
		{
			"bufferView":15,
			"componentType":5126,
			"count":24,
			"type":"VEC2"
		},
		{
			"bufferView":16,
			"componentType":5126,
			"count":1696,
			"max":[
				0.0779585987329483,
				0.006016033701598644,
				0.09951478242874146
			],
			"min":[
				-0.07400302588939667,
				-0.006037367973476648,
				-0.09979613870382309
			],
			"type":"VEC3"
		},
		{
			"bufferView":17,
			"componentType":5126,
			"count":1696,
			"type":"VEC3"
		},
		{
			"bufferView":18,
			"componentType":5126,
			"count":1696,
			"type":"VEC2"
		},
		{
			"bufferView":19,
			"componentType":5121,
			"count":1696,
			"normalized":true,
			"type":"VEC4"
		},
		{
			"bufferView":20,
			"componentType":5123,
			"count":1696,
			"normalized":true,
			"type":"VEC4"
		},
		{
			"bufferView":21,
			"componentType":5123,
			"count":9600,
			"type":"SCALAR"
		},
		{
			"bufferView":22,
			"componentType":5126,
			"count":304,
			"max":[
				0.07390221953392029,
				0.004116105381399393,
				0.09522208571434021
			],
			"min":[
				-0.07087823748588562,
				-0.0041374401189386845,
				-0.09546928852796555
			],
			"type":"VEC3"
		},
		{
			"bufferView":23,
			"componentType":5126,
			"count":304,
			"type":"VEC3"
		},
		{
			"bufferView":24,
			"componentType":5126,
			"count":304,
			"type":"VEC2"
		},
		{
			"bufferView":25,
			"componentType":5121,
			"count":304,
			"normalized":true,
			"type":"VEC4"
		},
		{
			"bufferView":26,
			"componentType":5123,
			"count":304,
			"normalized":true,
			"type":"VEC4"
		},
		{
			"bufferView":27,
			"componentType":5123,
			"count":960,
			"type":"SCALAR"
		},
		{
			"bufferView":28,
			"componentType":5126,
			"count":1928,
			"max":[
				0.07858747988939285,
				0.007496214937418699,
				0.11420632153749466
			],
			"min":[
				-0.07451021671295166,
				-0.00750378705561161,
				-0.11424045264720917
			],
			"type":"VEC3"
		},
		{
			"bufferView":29,
			"componentType":5126,
			"count":1928,
			"type":"VEC3"
		},
		{
			"bufferView":30,
			"componentType":5126,
			"count":1928,
			"type":"VEC2"
		},
		{
			"bufferView":31,
			"componentType":5123,
			"count":10944,
			"type":"SCALAR"
		},
		{
			"bufferView":32,
			"componentType":5126,
			"count":304,
			"max":[
				0.07453108578920364,
				0.005596288479864597,
				0.10991360992193222
			],
			"min":[
				-0.07176019996404648,
				-0.005603861063718796,
				-0.10991361737251282
			],
			"type":"VEC3"
		},
		{
			"bufferView":33,
			"componentType":5126,
			"count":304,
			"type":"VEC3"
		},
		{
			"bufferView":34,
			"componentType":5126,
			"count":304,
			"type":"VEC2"
		},
		{
			"bufferView":35,
			"componentType":5123,
			"count":960,
			"type":"SCALAR"
		},
		{
			"bufferView":36,
			"componentType":5126,
			"count":384,
			"max":[
				0.4700012505054474,
				1.164153076160801e-07,
				3.1999993324279785
			],
			"min":[
				1.2584893056555302e-06,
				-0.4499998688697815,
				-4.0962459024740383e-07
			],
			"type":"VEC3"
		},
		{
			"bufferView":37,
			"componentType":5126,
			"count":384,
			"type":"VEC3"
		},
		{
			"bufferView":38,
			"componentType":5126,
			"count":384,
			"type":"VEC2"
		},
		{
			"bufferView":39,
			"componentType":5123,
			"count":528,
			"type":"SCALAR"
		},
		{
			"bufferView":40,
			"componentType":5126,
			"count":384,
			"max":[
				0.4700012505054474,
				1.164153076160801e-07,
				3.1999993324279785
			],
			"min":[
				1.2584893056555302e-06,
				-0.4499998688697815,
				-4.0962459024740383e-07
			],
			"type":"VEC3"
		},
		{
			"bufferView":41,
			"componentType":5126,
			"count":384,
			"type":"VEC3"
		},
		{
			"bufferView":42,
			"componentType":5126,
			"count":384,
			"type":"VEC2"
		},
		{
			"bufferView":43,
			"componentType":5126,
			"count":384,
			"max":[
				0.4700012505054474,
				1.164153076160801e-07,
				3.1999993324279785
			],
			"min":[
				1.2584893056555302e-06,
				-0.4499998688697815,
				-4.0962459024740383e-07
			],
			"type":"VEC3"
		},
		{
			"bufferView":44,
			"componentType":5126,
			"count":384,
			"type":"VEC3"
		},
		{
			"bufferView":45,
			"componentType":5126,
			"count":384,
			"type":"VEC2"
		},
		{
			"bufferView":46,
			"componentType":5126,
			"count":24,
			"max":[
				0.015999536961317062,
				0.0036000004038214684,
				0
			],
			"min":[
				4.2840827774170975e-08,
				0,
				-0.014396240934729576
			],
			"type":"VEC3"
		},
		{
			"bufferView":47,
			"componentType":5126,
			"count":24,
			"type":"VEC3"
		},
		{
			"bufferView":48,
			"componentType":5126,
			"count":24,
			"type":"VEC2"
		},
		{
			"bufferView":49,
			"componentType":5126,
			"count":21923,
			"max":[
				0.3189062774181366,
				0.7977826595306396,
				0.5036272406578064
			],
			"min":[
				-0.37367063760757446,
				0.02487265132367611,
				-0.4084343910217285
			],
			"type":"VEC3"
		},
		{
			"bufferView":50,
			"componentType":5126,
			"count":21923,
			"type":"VEC3"
		},
		{
			"bufferView":51,
			"componentType":5126,
			"count":21923,
			"type":"VEC2"
		},
		{
			"bufferView":52,
			"componentType":5123,
			"count":21975,
			"type":"SCALAR"
		},
		{
			"bufferView":53,
			"componentType":5126,
			"count":384,
			"max":[
				0.949999988079071,
				0.009999999776482582,
				0.8499999642372131
			],
			"min":[
				-0.949999988079071,
				-0.009999999776482582,
				-0.8499999642372131
			],
			"type":"VEC3"
		},
		{
			"bufferView":54,
			"componentType":5126,
			"count":384,
			"type":"VEC3"
		},
		{
			"bufferView":55,
			"componentType":5126,
			"count":384,
			"type":"VEC2"
		},
		{
			"bufferView":56,
			"componentType":5123,
			"count":564,
			"type":"SCALAR"
		},
		{
			"bufferView":57,
			"componentType":5126,
			"count":784,
			"max":[
				1,
				1.3216506242752075,
				1
			],
			"min":[
				-1,
				-0.6927880048751831,
				-1
			],
			"type":"VEC3"
		},
		{
			"bufferView":58,
			"componentType":5126,
			"count":784,
			"type":"VEC3"
		},
		{
			"bufferView":59,
			"componentType":5126,
			"count":784,
			"type":"VEC2"
		},
		{
			"bufferView":60,
			"componentType":5123,
			"count":1284,
			"type":"SCALAR"
		},
		{
			"bufferView":61,
			"componentType":5126,
			"count":784,
			"max":[
				1,
				0.9524341225624084,
				1
			],
			"min":[
				-1,
				-1.0475847721099854,
				-1
			],
			"type":"VEC3"
		},
		{
			"bufferView":62,
			"componentType":5126,
			"count":784,
			"type":"VEC3"
		},
		{
			"bufferView":63,
			"componentType":5126,
			"count":784,
			"type":"VEC2"
		},
		{
			"bufferView":64,
			"componentType":5123,
			"count":1284,
			"type":"SCALAR"
		},
		{
			"bufferView":65,
			"componentType":5126,
			"count":784,
			"max":[
				0.7193006277084351,
				0.13850626349449158,
				0.7119068503379822
			],
			"min":[
				-0.7193006277084351,
				-0.09738311916589737,
				-0.7119068503379822
			],
			"type":"VEC3"
		},
		{
			"bufferView":66,
			"componentType":5126,
			"count":784,
			"type":"VEC3"
		},
		{
			"bufferView":67,
			"componentType":5126,
			"count":784,
			"type":"VEC2"
		},
		{
			"bufferView":68,
			"componentType":5123,
			"count":1284,
			"type":"SCALAR"
		},
		{
			"bufferView":69,
			"componentType":5126,
			"count":68,
			"max":[
				1.2049684524536133,
				0.6150003671646118,
				0.9247650504112244
			],
			"min":[
				-0.91996830701828,
				-0.22499999403953552,
				-0.9247650504112244
			],
			"type":"VEC3"
		},
		{
			"bufferView":70,
			"componentType":5126,
			"count":68,
			"type":"VEC3"
		},
		{
			"bufferView":71,
			"componentType":5126,
			"count":68,
			"type":"VEC2"
		},
		{
			"bufferView":72,
			"componentType":5123,
			"count":132,
			"type":"SCALAR"
		}
	],
	"bufferViews":[
		{
			"buffer":0,
			"byteLength":288,
			"byteOffset":0,
			"target":34962
		},
		{
			"buffer":0,
			"byteLength":288,
			"byteOffset":288,
			"target":34962
		},
		{
			"buffer":0,
			"byteLength":192,
			"byteOffset":576,
			"target":34962
		},
		{
			"buffer":0,
			"byteLength":72,
			"byteOffset":768,
			"target":34963
		},
		{
			"buffer":0,
			"byteLength":288,
			"byteOffset":840,
			"target":34962
		},
		{
			"buffer":0,
			"byteLength":288,
			"byteOffset":1128,
			"target":34962
		},
		{
			"buffer":0,
			"byteLength":192,
			"byteOffset":1416,
			"target":34962
		},
		{
			"buffer":0,
			"byteLength":288,
			"byteOffset":1608,
			"target":34962
		},
		{
			"buffer":0,
			"byteLength":288,
			"byteOffset":1896,
			"target":34962
		},
		{
			"buffer":0,
			"byteLength":192,
			"byteOffset":2184,
			"target":34962
		},
		{
			"buffer":0,
			"byteLength":288,
			"byteOffset":2376,
			"target":34962
		},
		{
			"buffer":0,
			"byteLength":288,
			"byteOffset":2664,
			"target":34962
		},
		{
			"buffer":0,
			"byteLength":192,
			"byteOffset":2952,
			"target":34962
		},
		{
			"buffer":0,
			"byteLength":288,
			"byteOffset":3144,
			"target":34962
		},
		{
			"buffer":0,
			"byteLength":288,
			"byteOffset":3432,
			"target":34962
		},
		{
			"buffer":0,
			"byteLength":192,
			"byteOffset":3720,
			"target":34962
		},
		{
			"buffer":0,
			"byteLength":20352,
			"byteOffset":3912,
			"target":34962
		},
		{
			"buffer":0,
			"byteLength":20352,
			"byteOffset":24264,
			"target":34962
		},
		{
			"buffer":0,
			"byteLength":13568,
			"byteOffset":44616,
			"target":34962
		},
		{
			"buffer":0,
			"byteLength":6784,
			"byteOffset":58184,
			"target":34962
		},
		{
			"buffer":0,
			"byteLength":13568,
			"byteOffset":64968,
			"target":34962
		},
		{
			"buffer":0,
			"byteLength":19200,
			"byteOffset":78536,
			"target":34963
		},
		{
			"buffer":0,
			"byteLength":3648,
			"byteOffset":97736,
			"target":34962
		},
		{
			"buffer":0,
			"byteLength":3648,
			"byteOffset":101384,
			"target":34962
		},
		{
			"buffer":0,
			"byteLength":2432,
			"byteOffset":105032,
			"target":34962
		},
		{
			"buffer":0,
			"byteLength":1216,
			"byteOffset":107464,
			"target":34962
		},
		{
			"buffer":0,
			"byteLength":2432,
			"byteOffset":108680,
			"target":34962
		},
		{
			"buffer":0,
			"byteLength":1920,
			"byteOffset":111112,
			"target":34963
		},
		{
			"buffer":0,
			"byteLength":23136,
			"byteOffset":113032,
			"target":34962
		},
		{
			"buffer":0,
			"byteLength":23136,
			"byteOffset":136168,
			"target":34962
		},
		{
			"buffer":0,
			"byteLength":15424,
			"byteOffset":159304,
			"target":34962
		},
		{
			"buffer":0,
			"byteLength":21888,
			"byteOffset":174728,
			"target":34963
		},
		{
			"buffer":0,
			"byteLength":3648,
			"byteOffset":196616,
			"target":34962
		},
		{
			"buffer":0,
			"byteLength":3648,
			"byteOffset":200264,
			"target":34962
		},
		{
			"buffer":0,
			"byteLength":2432,
			"byteOffset":203912,
			"target":34962
		},
		{
			"buffer":0,
			"byteLength":1920,
			"byteOffset":206344,
			"target":34963
		},
		{
			"buffer":0,
			"byteLength":4608,
			"byteOffset":208264,
			"target":34962
		},
		{
			"buffer":0,
			"byteLength":4608,
			"byteOffset":212872,
			"target":34962
		},
		{
			"buffer":0,
			"byteLength":3072,
			"byteOffset":217480,
			"target":34962
		},
		{
			"buffer":0,
			"byteLength":1056,
			"byteOffset":220552,
			"target":34963
		},
		{
			"buffer":0,
			"byteLength":4608,
			"byteOffset":221608,
			"target":34962
		},
		{
			"buffer":0,
			"byteLength":4608,
			"byteOffset":226216,
			"target":34962
		},
		{
			"buffer":0,
			"byteLength":3072,
			"byteOffset":230824,
			"target":34962
		},
		{
			"buffer":0,
			"byteLength":4608,
			"byteOffset":233896,
			"target":34962
		},
		{
			"buffer":0,
			"byteLength":4608,
			"byteOffset":238504,
			"target":34962
		},
		{
			"buffer":0,
			"byteLength":3072,
			"byteOffset":243112,
			"target":34962
		},
		{
			"buffer":0,
			"byteLength":288,
			"byteOffset":246184,
			"target":34962
		},
		{
			"buffer":0,
			"byteLength":288,
			"byteOffset":246472,
			"target":34962
		},
		{
			"buffer":0,
			"byteLength":192,
			"byteOffset":246760,
			"target":34962
		},
		{
			"buffer":0,
			"byteLength":263076,
			"byteOffset":246952,
			"target":34962
		},
		{
			"buffer":0,
			"byteLength":263076,
			"byteOffset":510028,
			"target":34962
		},
		{
			"buffer":0,
			"byteLength":175384,
			"byteOffset":773104,
			"target":34962
		},
		{
			"buffer":0,
			"byteLength":43950,
			"byteOffset":948488,
			"target":34963
		},
		{
			"buffer":0,
			"byteLength":4608,
			"byteOffset":992440,
			"target":34962
		},
		{
			"buffer":0,
			"byteLength":4608,
			"byteOffset":997048,
			"target":34962
		},
		{
			"buffer":0,
			"byteLength":3072,
			"byteOffset":1001656,
			"target":34962
		},
		{
			"buffer":0,
			"byteLength":1128,
			"byteOffset":1004728,
			"target":34963
		},
		{
			"buffer":0,
			"byteLength":9408,
			"byteOffset":1005856,
			"target":34962
		},
		{
			"buffer":0,
			"byteLength":9408,
			"byteOffset":1015264,
			"target":34962
		},
		{
			"buffer":0,
			"byteLength":6272,
			"byteOffset":1024672,
			"target":34962
		},
		{
			"buffer":0,
			"byteLength":2568,
			"byteOffset":1030944,
			"target":34963
		},
		{
			"buffer":0,
			"byteLength":9408,
			"byteOffset":1033512,
			"target":34962
		},
		{
			"buffer":0,
			"byteLength":9408,
			"byteOffset":1042920,
			"target":34962
		},
		{
			"buffer":0,
			"byteLength":6272,
			"byteOffset":1052328,
			"target":34962
		},
		{
			"buffer":0,
			"byteLength":2568,
			"byteOffset":1058600,
			"target":34963
		},
		{
			"buffer":0,
			"byteLength":9408,
			"byteOffset":1061168,
			"target":34962
		},
		{
			"buffer":0,
			"byteLength":9408,
			"byteOffset":1070576,
			"target":34962
		},
		{
			"buffer":0,
			"byteLength":6272,
			"byteOffset":1079984,
			"target":34962
		},
		{
			"buffer":0,
			"byteLength":2568,
			"byteOffset":1086256,
			"target":34963
		},
		{
			"buffer":0,
			"byteLength":816,
			"byteOffset":1088824,
			"target":34962
		},
		{
			"buffer":0,
			"byteLength":816,
			"byteOffset":1089640,
			"target":34962
		},
		{
			"buffer":0,
			"byteLength":544,
			"byteOffset":1090456,
			"target":34962
		},
		{
			"buffer":0,
			"byteLength":264,
			"byteOffset":1091000,
			"target":34963
		}
	],
	"samplers":[
		{
			"magFilter":9729,
			"minFilter":9987
		}
	],
	"buffers":[
		{
			"byteLength":1091264,
			"uri":"SchlafzimmerLayout_03.bin"
		}
	]
}
