{
	"asset":{
		"generator":"Khronos glTF Blender I/O v5.1.18",
		"version":"2.0"
	},
	"scene":0,
	"scenes":[
		{
			"name":"Scene",
			"nodes":[
				0,
				1,
				2,
				3,
				4,
				5,
				6,
				7,
				8,
				9,
				10,
				11,
				12,
				13,
				14
			]
		}
	],
	"nodes":[
		{
			"mesh":0,
			"name":"Bild.006",
			"rotation":[
				0,
				0.7071068286895752,
				0,
				0.7071068286895752
			],
			"translation":[
				19.48664665222168,
				4.322858810424805,
				-16.585264205932617
			]
		},
		{
			"mesh":1,
			"name":"Bild.007",
			"rotation":[
				0,
				-1,
				0,
				4.371138828673793e-08
			],
			"scale":[
				1.8750592470169067,
				374.9999694824219,
				125.03263854980469
			],
			"translation":[
				21.87027931213379,
				4.232865810394287,
				-15.31467056274414
			]
		},
		{
			"mesh":2,
			"name":"Curve.071",
			"rotation":[
				0,
				-0.7071068286895752,
				0,
				0.7071068286895752
			],
			"scale":[
				1,
				0.5,
				1
			],
			"translation":[
				21.85649871826172,
				3.748821496963501,
				-16.581707000732422
			]
		},
		{
			"mesh":3,
			"name":"Regal.014",
			"rotation":[
				0,
				-0.7071068286895752,
				0,
				0.7071068286895752
			],
			"scale":[
				30.000947952270508,
				5.5555548667907715,
				388.99041748046875
			],
			"translation":[
				16.250219345092773,
				3.975752115249634,
				-16.581708908081055
			]
		},
		{
			"mesh":4,
			"name":"Regal.015",
			"rotation":[
				0,
				-0.7071068286895752,
				0,
				0.7071068286895752
			],
			"scale":[
				16.250513076782227,
				11.111109733581543,
				131.97889709472656
			],
			"translation":[
				16.577831268310547,
				4.670417785644531,
				-16.581708908081055
			]
		},
		{
			"mesh":5,
			"name":"Regal.016",
			"rotation":[
				0,
				-0.7071068286895752,
				0,
				0.7071068286895752
			],
			"scale":[
				16.250513076782227,
				11.111109733581543,
				131.97889709472656
			],
			"translation":[
				17.20733070373535,
				4.997299671173096,
				-16.581708908081055
			]
		},
		{
			"mesh":6,
			"name":"Regal.017",
			"rotation":[
				0,
				-0.7071068286895752,
				0,
				0.7071068286895752
			],
			"scale":[
				16.250513076782227,
				11.111109733581543,
				131.97889709472656
			],
			"translation":[
				17.239526748657227,
				4.326051235198975,
				-16.581708908081055
			]
		},
		{
			"mesh":7,
			"name":"Curve.072",
			"rotation":[
				0,
				-0.7071068286895752,
				0,
				0.7071068286895752
			],
			"scale":[
				1,
				0.5,
				1
			],
			"translation":[
				21.85649871826172,
				3.9713213443756104,
				-16.581708908081055
			]
		},
		{
			"mesh":8,
			"name":"BettZeugs.012",
			"translation":[
				20.80335807800293,
				3.5635128021240234,
				-14.4109525680542
			]
		},
		{
			"mesh":9,
			"name":"BettZeugs.013",
			"scale":[
				0.19999998807907104,
				0.09999999403953552,
				0.29999998211860657
			],
			"translation":[
				21.46932029724121,
				3.657196521759033,
				-14.77538776397705
			]
		},
		{
			"mesh":10,
			"name":"BettZeugs.014",
			"scale":[
				0.19999998807907104,
				0.09999999403953552,
				0.29999998211860657
			],
			"translation":[
				21.471620559692383,
				3.657196521759033,
				-14.017544746398926
			]
		},
		{
			"mesh":11,
			"name":"BettZeugs.015",
			"scale":[
				1,
				0.5,
				1.1404677629470825
			],
			"translation":[
				20.61734962463379,
				3.574434995651245,
				-14.403595924377441
			]
		},
		{
			"mesh":12,
			"name":"Curve.067",
			"translation":[
				20.6739559173584,
				3.3849997520446777,
				-14.41512680053711
			]
		},
		{
			"mesh":13,
			"name":"Cube.270",
			"rotation":[
				0.38617146015167236,
				0.5892641544342041,
				-0.38030245900154114,
				0.5991739630699158
			],
			"scale":[
				1.0450472831726074,
				1.0450472831726074,
				1.0450471639633179
			],
			"translation":[
				18.018396377563477,
				5.1451826095581055,
				-16.420454025268555
			]
		},
		{
			"mesh":14,
			"name":"Cube.271",
			"rotation":[
				0.3857482969760895,
				0.5892143249511719,
				-0.3782782256603241,
				0.6007748246192932
			],
			"translation":[
				17.159337997436523,
				4.820870399475098,
				-16.424942016601562
			]
		}
	],
	"materials":[
		{
			"doubleSided":true,
			"name":"Material.031",
			"pbrMetallicRoughness":{
				"baseColorTexture":{
					"index":0
				},
				"metallicFactor":0,
				"roughnessFactor":0.5
			}
		},
		{
			"doubleSided":true,
			"name":"Material.032",
			"pbrMetallicRoughness":{
				"baseColorTexture":{
					"index":1
				},
				"metallicFactor":0
			}
		},
		{
			"doubleSided":true,
			"name":"mdf green",
			"pbrMetallicRoughness":{
				"baseColorFactor":[
					0.162029430270195,
					0.22322800755500793,
					0.14126333594322205,
					1
				],
				"metallicFactor":0,
				"roughnessFactor":0.5
			}
		},
		{
			"doubleSided":true,
			"name":"book cover",
			"pbrMetallicRoughness":{
				"metallicFactor":0
			}
		},
		{
			"doubleSided":true,
			"name":"stacked paper",
			"pbrMetallicRoughness":{
				"metallicFactor":0,
				"roughnessFactor":0.7583333253860474
			}
		}
	],
	"meshes":[
		{
			"name":"Curve.293",
			"primitives":[
				{
					"attributes":{
						"POSITION":0,
						"NORMAL":1,
						"TEXCOORD_0":2
					},
					"indices":3,
					"material":0
				}
			]
		},
		{
			"name":"Curve.294",
			"primitives":[
				{
					"attributes":{
						"POSITION":4,
						"NORMAL":5,
						"TEXCOORD_0":6
					},
					"indices":3,
					"material":1
				}
			]
		},
		{
			"name":"Curve.295",
			"primitives":[
				{
					"attributes":{
						"POSITION":7,
						"NORMAL":8,
						"TEXCOORD_0":9
					},
					"indices":10
				}
			]
		},
		{
			"name":"Curve.296",
			"primitives":[
				{
					"attributes":{
						"POSITION":11,
						"NORMAL":12,
						"TEXCOORD_0":13
					},
					"indices":3,
					"material":2
				}
			]
		},
		{
			"name":"Curve.297",
			"primitives":[
				{
					"attributes":{
						"POSITION":14,
						"NORMAL":15,
						"TEXCOORD_0":16
					},
					"indices":3
				}
			]
		},
		{
			"name":"Curve.298",
			"primitives":[
				{
					"attributes":{
						"POSITION":17,
						"NORMAL":18,
						"TEXCOORD_0":19
					},
					"indices":3
				}
			]
		},
		{
			"name":"Curve.299",
			"primitives":[
				{
					"attributes":{
						"POSITION":20,
						"NORMAL":21,
						"TEXCOORD_0":22
					},
					"indices":3
				}
			]
		},
		{
			"name":"Curve.300",
			"primitives":[
				{
					"attributes":{
						"POSITION":23,
						"NORMAL":24,
						"TEXCOORD_0":25
					},
					"indices":10
				}
			]
		},
		{
			"name":"Cube.526",
			"primitives":[
				{
					"attributes":{
						"POSITION":26,
						"NORMAL":27,
						"TEXCOORD_0":28
					},
					"indices":29
				}
			]
		},
		{
			"name":"Cube.527",
			"primitives":[
				{
					"attributes":{
						"POSITION":30,
						"NORMAL":31,
						"TEXCOORD_0":32
					},
					"indices":33
				}
			]
		},
		{
			"name":"Cube.528",
			"primitives":[
				{
					"attributes":{
						"POSITION":34,
						"NORMAL":35,
						"TEXCOORD_0":36
					},
					"indices":37
				}
			]
		},
		{
			"name":"Cube.529",
			"primitives":[
				{
					"attributes":{
						"POSITION":38,
						"NORMAL":39,
						"TEXCOORD_0":40
					},
					"indices":41
				}
			]
		},
		{
			"name":"Curve.292",
			"primitives":[
				{
					"attributes":{
						"POSITION":42,
						"NORMAL":43,
						"TEXCOORD_0":44
					},
					"indices":45,
					"material":2
				}
			]
		},
		{
			"name":"Cube.530",
			"primitives":[
				{
					"attributes":{
						"POSITION":46,
						"NORMAL":47,
						"TEXCOORD_0":48,
						"COLOR_0":49,
						"COLOR_1":50
					},
					"indices":51,
					"material":3
				},
				{
					"attributes":{
						"POSITION":52,
						"NORMAL":53,
						"TEXCOORD_0":54,
						"COLOR_0":55,
						"COLOR_1":56
					},
					"indices":57,
					"material":4
				}
			]
		},
		{
			"name":"Cube.531",
			"primitives":[
				{
					"attributes":{
						"POSITION":58,
						"NORMAL":59,
						"TEXCOORD_0":60
					},
					"indices":61,
					"material":3
				},
				{
					"attributes":{
						"POSITION":62,
						"NORMAL":63,
						"TEXCOORD_0":64
					},
					"indices":65,
					"material":4
				}
			]
		}
	],
	"textures":[
		{
			"sampler":0,
			"source":0
		},
		{
			"sampler":0,
			"source":1
		}
	],
	"images":[
		{
			"mimeType":"image/png",
			"name":"Screenshot 2026-06-24 151951",
			"uri":"Screenshot%202026-06-24%20151951.png"
		},
		{
			"mimeType":"image/png",
			"name":"Screenshot 2026-06-24 152532",
			"uri":"Screenshot%202026-06-24%20152532.png"
		}
	],
	"accessors":[
		{
			"bufferView":0,
			"componentType":5126,
			"count":24,
			"max":[
				9.451635918367174e-08,
				0.7999999523162842,
				1.999999761581421
			],
			"min":[
				-0.030000075697898865,
				0,
				7.022592194040741e-15
			],
			"type":"VEC3"
		},
		{
			"bufferView":1,
			"componentType":5126,
			"count":24,
			"type":"VEC3"
		},
		{
			"bufferView":2,
			"componentType":5126,
			"count":24,
			"type":"VEC2"
		},
		{
			"bufferView":3,
			"componentType":5123,
			"count":36,
			"type":"SCALAR"
		},
		{
			"bufferView":4,
			"componentType":5126,
			"count":24,
			"max":[
				0.015999536961317062,
				0.0036000004038214684,
				0
			],
			"min":[
				4.2840827774170975e-08,
				0,
				-0.014396240934729576
			],
			"type":"VEC3"
		},
		{
			"bufferView":5,
			"componentType":5126,
			"count":24,
			"type":"VEC3"
		},
		{
			"bufferView":6,
			"componentType":5126,
			"count":24,
			"type":"VEC2"
		},
		{
			"bufferView":7,
			"componentType":5126,
			"count":672,
			"max":[
				0.4700012505054474,
				1.164153076160801e-07,
				5.59999942779541
			],
			"min":[
				1.2584893056555302e-06,
				-0.4499998688697815,
				-4.0962459024740383e-07
			],
			"type":"VEC3"
		},
		{
			"bufferView":8,
			"componentType":5126,
			"count":672,
			"type":"VEC3"
		},
		{
			"bufferView":9,
			"componentType":5126,
			"count":672,
			"type":"VEC2"
		},
		{
			"bufferView":10,
			"componentType":5123,
			"count":924,
			"type":"SCALAR"
		},
		{
			"bufferView":11,
			"componentType":5126,
			"count":24,
			"max":[
				0.015999536961317062,
				0.0036000004038214684,
				0
			],
			"min":[
				4.2840827774170975e-08,
				0,
				-0.014396240934729576
			],
			"type":"VEC3"
		},
		{
			"bufferView":12,
			"componentType":5126,
			"count":24,
			"type":"VEC3"
		},
		{
			"bufferView":13,
			"componentType":5126,
			"count":24,
			"type":"VEC2"
		},
		{
			"bufferView":14,
			"componentType":5126,
			"count":24,
			"max":[
				0.015999536961317062,
				0.0036000004038214684,
				0
			],
			"min":[
				4.2840827774170975e-08,
				0,
				-0.014396240934729576
			],
			"type":"VEC3"
		},
		{
			"bufferView":15,
			"componentType":5126,
			"count":24,
			"type":"VEC3"
		},
		{
			"bufferView":16,
			"componentType":5126,
			"count":24,
			"type":"VEC2"
		},
		{
			"bufferView":17,
			"componentType":5126,
			"count":24,
			"max":[
				0.015999536961317062,
				0.0036000004038214684,
				0
			],
			"min":[
				4.2840827774170975e-08,
				0,
				-0.014396240934729576
			],
			"type":"VEC3"
		},
		{
			"bufferView":18,
			"componentType":5126,
			"count":24,
			"type":"VEC3"
		},
		{
			"bufferView":19,
			"componentType":5126,
			"count":24,
			"type":"VEC2"
		},
		{
			"bufferView":20,
			"componentType":5126,
			"count":24,
			"max":[
				0.015999536961317062,
				0.0036000004038214684,
				0
			],
			"min":[
				4.2840827774170975e-08,
				0,
				-0.014396240934729576
			],
			"type":"VEC3"
		},
		{
			"bufferView":21,
			"componentType":5126,
			"count":24,
			"type":"VEC3"
		},
		{
			"bufferView":22,
			"componentType":5126,
			"count":24,
			"type":"VEC2"
		},
		{
			"bufferView":23,
			"componentType":5126,
			"count":672,
			"max":[
				0.4700012505054474,
				1.164153076160801e-07,
				5.59999942779541
			],
			"min":[
				1.2584893056555302e-06,
				-0.4499998688697815,
				-4.0962459024740383e-07
			],
			"type":"VEC3"
		},
		{
			"bufferView":24,
			"componentType":5126,
			"count":672,
			"type":"VEC3"
		},
		{
			"bufferView":25,
			"componentType":5126,
			"count":672,
			"type":"VEC2"
		},
		{
			"bufferView":26,
			"componentType":5126,
			"count":384,
			"max":[
				0.949999988079071,
				0.009999999776482582,
				0.8499999642372131
			],
			"min":[
				-0.949999988079071,
				-0.009999999776482582,
				-0.8499999642372131
			],
			"type":"VEC3"
		},
		{
			"bufferView":27,
			"componentType":5126,
			"count":384,
			"type":"VEC3"
		},
		{
			"bufferView":28,
			"componentType":5126,
			"count":384,
			"type":"VEC2"
		},
		{
			"bufferView":29,
			"componentType":5123,
			"count":564,
			"type":"SCALAR"
		},
		{
			"bufferView":30,
			"componentType":5126,
			"count":784,
			"max":[
				1,
				1.3216506242752075,
				1
			],
			"min":[
				-1,
				-0.6927880048751831,
				-1
			],
			"type":"VEC3"
		},
		{
			"bufferView":31,
			"componentType":5126,
			"count":784,
			"type":"VEC3"
		},
		{
			"bufferView":32,
			"componentType":5126,
			"count":784,
			"type":"VEC2"
		},
		{
			"bufferView":33,
			"componentType":5123,
			"count":1284,
			"type":"SCALAR"
		},
		{
			"bufferView":34,
			"componentType":5126,
			"count":784,
			"max":[
				1,
				0.9524341225624084,
				1
			],
			"min":[
				-1,
				-1.0475847721099854,
				-1
			],
			"type":"VEC3"
		},
		{
			"bufferView":35,
			"componentType":5126,
			"count":784,
			"type":"VEC3"
		},
		{
			"bufferView":36,
			"componentType":5126,
			"count":784,
			"type":"VEC2"
		},
		{
			"bufferView":37,
			"componentType":5123,
			"count":1284,
			"type":"SCALAR"
		},
		{
			"bufferView":38,
			"componentType":5126,
			"count":784,
			"max":[
				0.7193006277084351,
				0.13850626349449158,
				0.7119068503379822
			],
			"min":[
				-0.7193006277084351,
				-0.09738311916589737,
				-0.7119068503379822
			],
			"type":"VEC3"
		},
		{
			"bufferView":39,
			"componentType":5126,
			"count":784,
			"type":"VEC3"
		},
		{
			"bufferView":40,
			"componentType":5126,
			"count":784,
			"type":"VEC2"
		},
		{
			"bufferView":41,
			"componentType":5123,
			"count":1284,
			"type":"SCALAR"
		},
		{
			"bufferView":42,
			"componentType":5126,
			"count":68,
			"max":[
				1.1699684858322144,
				0.6150003671646118,
				0.8997650742530823
			],
			"min":[
				-0.8699682950973511,
				-0.22499999403953552,
				-0.8997650742530823
			],
			"type":"VEC3"
		},
		{
			"bufferView":43,
			"componentType":5126,
			"count":68,
			"type":"VEC3"
		},
		{
			"bufferView":44,
			"componentType":5126,
			"count":68,
			"type":"VEC2"
		},
		{
			"bufferView":45,
			"componentType":5123,
			"count":132,
			"type":"SCALAR"
		},
		{
			"bufferView":46,
			"componentType":5126,
			"count":1696,
			"max":[
				0.0779585987329483,
				0.006016033701598644,
				0.09951478242874146
			],
			"min":[
				-0.07400302588939667,
				-0.006037367973476648,
				-0.09979613870382309
			],
			"type":"VEC3"
		},
		{
			"bufferView":47,
			"componentType":5126,
			"count":1696,
			"type":"VEC3"
		},
		{
			"bufferView":48,
			"componentType":5126,
			"count":1696,
			"type":"VEC2"
		},
		{
			"bufferView":49,
			"componentType":5121,
			"count":1696,
			"normalized":true,
			"type":"VEC4"
		},
		{
			"bufferView":50,
			"componentType":5123,
			"count":1696,
			"normalized":true,
			"type":"VEC4"
		},
		{
			"bufferView":51,
			"componentType":5123,
			"count":9600,
			"type":"SCALAR"
		},
		{
			"bufferView":52,
			"componentType":5126,
			"count":304,
			"max":[
				0.07390221953392029,
				0.004116105381399393,
				0.09522208571434021
			],
			"min":[
				-0.07087823748588562,
				-0.0041374401189386845,
				-0.09546928852796555
			],
			"type":"VEC3"
		},
		{
			"bufferView":53,
			"componentType":5126,
			"count":304,
			"type":"VEC3"
		},
		{
			"bufferView":54,
			"componentType":5126,
			"count":304,
			"type":"VEC2"
		},
		{
			"bufferView":55,
			"componentType":5121,
			"count":304,
			"normalized":true,
			"type":"VEC4"
		},
		{
			"bufferView":56,
			"componentType":5123,
			"count":304,
			"normalized":true,
			"type":"VEC4"
		},
		{
			"bufferView":57,
			"componentType":5123,
			"count":960,
			"type":"SCALAR"
		},
		{
			"bufferView":58,
			"componentType":5126,
			"count":1928,
			"max":[
				0.07858747988939285,
				0.007496214937418699,
				0.11420632153749466
			],
			"min":[
				-0.07451021671295166,
				-0.00750378705561161,
				-0.11424045264720917
			],
			"type":"VEC3"
		},
		{
			"bufferView":59,
			"componentType":5126,
			"count":1928,
			"type":"VEC3"
		},
		{
			"bufferView":60,
			"componentType":5126,
			"count":1928,
			"type":"VEC2"
		},
		{
			"bufferView":61,
			"componentType":5123,
			"count":10944,
			"type":"SCALAR"
		},
		{
			"bufferView":62,
			"componentType":5126,
			"count":304,
			"max":[
				0.07453108578920364,
				0.005596288479864597,
				0.10991360992193222
			],
			"min":[
				-0.07176019996404648,
				-0.005603861063718796,
				-0.10991361737251282
			],
			"type":"VEC3"
		},
		{
			"bufferView":63,
			"componentType":5126,
			"count":304,
			"type":"VEC3"
		},
		{
			"bufferView":64,
			"componentType":5126,
			"count":304,
			"type":"VEC2"
		},
		{
			"bufferView":65,
			"componentType":5123,
			"count":960,
			"type":"SCALAR"
		}
	],
	"bufferViews":[
		{
			"buffer":0,
			"byteLength":288,
			"byteOffset":0,
			"target":34962
		},
		{
			"buffer":0,
			"byteLength":288,
			"byteOffset":288,
			"target":34962
		},
		{
			"buffer":0,
			"byteLength":192,
			"byteOffset":576,
			"target":34962
		},
		{
			"buffer":0,
			"byteLength":72,
			"byteOffset":768,
			"target":34963
		},
		{
			"buffer":0,
			"byteLength":288,
			"byteOffset":840,
			"target":34962
		},
		{
			"buffer":0,
			"byteLength":288,
			"byteOffset":1128,
			"target":34962
		},
		{
			"buffer":0,
			"byteLength":192,
			"byteOffset":1416,
			"target":34962
		},
		{
			"buffer":0,
			"byteLength":8064,
			"byteOffset":1608,
			"target":34962
		},
		{
			"buffer":0,
			"byteLength":8064,
			"byteOffset":9672,
			"target":34962
		},
		{
			"buffer":0,
			"byteLength":5376,
			"byteOffset":17736,
			"target":34962
		},
		{
			"buffer":0,
			"byteLength":1848,
			"byteOffset":23112,
			"target":34963
		},
		{
			"buffer":0,
			"byteLength":288,
			"byteOffset":24960,
			"target":34962
		},
		{
			"buffer":0,
			"byteLength":288,
			"byteOffset":25248,
			"target":34962
		},
		{
			"buffer":0,
			"byteLength":192,
			"byteOffset":25536,
			"target":34962
		},
		{
			"buffer":0,
			"byteLength":288,
			"byteOffset":25728,
			"target":34962
		},
		{
			"buffer":0,
			"byteLength":288,
			"byteOffset":26016,
			"target":34962
		},
		{
			"buffer":0,
			"byteLength":192,
			"byteOffset":26304,
			"target":34962
		},
		{
			"buffer":0,
			"byteLength":288,
			"byteOffset":26496,
			"target":34962
		},
		{
			"buffer":0,
			"byteLength":288,
			"byteOffset":26784,
			"target":34962
		},
		{
			"buffer":0,
			"byteLength":192,
			"byteOffset":27072,
			"target":34962
		},
		{
			"buffer":0,
			"byteLength":288,
			"byteOffset":27264,
			"target":34962
		},
		{
			"buffer":0,
			"byteLength":288,
			"byteOffset":27552,
			"target":34962
		},
		{
			"buffer":0,
			"byteLength":192,
			"byteOffset":27840,
			"target":34962
		},
		{
			"buffer":0,
			"byteLength":8064,
			"byteOffset":28032,
			"target":34962
		},
		{
			"buffer":0,
			"byteLength":8064,
			"byteOffset":36096,
			"target":34962
		},
		{
			"buffer":0,
			"byteLength":5376,
			"byteOffset":44160,
			"target":34962
		},
		{
			"buffer":0,
			"byteLength":4608,
			"byteOffset":49536,
			"target":34962
		},
		{
			"buffer":0,
			"byteLength":4608,
			"byteOffset":54144,
			"target":34962
		},
		{
			"buffer":0,
			"byteLength":3072,
			"byteOffset":58752,
			"target":34962
		},
		{
			"buffer":0,
			"byteLength":1128,
			"byteOffset":61824,
			"target":34963
		},
		{
			"buffer":0,
			"byteLength":9408,
			"byteOffset":62952,
			"target":34962
		},
		{
			"buffer":0,
			"byteLength":9408,
			"byteOffset":72360,
			"target":34962
		},
		{
			"buffer":0,
			"byteLength":6272,
			"byteOffset":81768,
			"target":34962
		},
		{
			"buffer":0,
			"byteLength":2568,
			"byteOffset":88040,
			"target":34963
		},
		{
			"buffer":0,
			"byteLength":9408,
			"byteOffset":90608,
			"target":34962
		},
		{
			"buffer":0,
			"byteLength":9408,
			"byteOffset":100016,
			"target":34962
		},
		{
			"buffer":0,
			"byteLength":6272,
			"byteOffset":109424,
			"target":34962
		},
		{
			"buffer":0,
			"byteLength":2568,
			"byteOffset":115696,
			"target":34963
		},
		{
			"buffer":0,
			"byteLength":9408,
			"byteOffset":118264,
			"target":34962
		},
		{
			"buffer":0,
			"byteLength":9408,
			"byteOffset":127672,
			"target":34962
		},
		{
			"buffer":0,
			"byteLength":6272,
			"byteOffset":137080,
			"target":34962
		},
		{
			"buffer":0,
			"byteLength":2568,
			"byteOffset":143352,
			"target":34963
		},
		{
			"buffer":0,
			"byteLength":816,
			"byteOffset":145920,
			"target":34962
		},
		{
			"buffer":0,
			"byteLength":816,
			"byteOffset":146736,
			"target":34962
		},
		{
			"buffer":0,
			"byteLength":544,
			"byteOffset":147552,
			"target":34962
		},
		{
			"buffer":0,
			"byteLength":264,
			"byteOffset":148096,
			"target":34963
		},
		{
			"buffer":0,
			"byteLength":20352,
			"byteOffset":148360,
			"target":34962
		},
		{
			"buffer":0,
			"byteLength":20352,
			"byteOffset":168712,
			"target":34962
		},
		{
			"buffer":0,
			"byteLength":13568,
			"byteOffset":189064,
			"target":34962
		},
		{
			"buffer":0,
			"byteLength":6784,
			"byteOffset":202632,
			"target":34962
		},
		{
			"buffer":0,
			"byteLength":13568,
			"byteOffset":209416,
			"target":34962
		},
		{
			"buffer":0,
			"byteLength":19200,
			"byteOffset":222984,
			"target":34963
		},
		{
			"buffer":0,
			"byteLength":3648,
			"byteOffset":242184,
			"target":34962
		},
		{
			"buffer":0,
			"byteLength":3648,
			"byteOffset":245832,
			"target":34962
		},
		{
			"buffer":0,
			"byteLength":2432,
			"byteOffset":249480,
			"target":34962
		},
		{
			"buffer":0,
			"byteLength":1216,
			"byteOffset":251912,
			"target":34962
		},
		{
			"buffer":0,
			"byteLength":2432,
			"byteOffset":253128,
			"target":34962
		},
		{
			"buffer":0,
			"byteLength":1920,
			"byteOffset":255560,
			"target":34963
		},
		{
			"buffer":0,
			"byteLength":23136,
			"byteOffset":257480,
			"target":34962
		},
		{
			"buffer":0,
			"byteLength":23136,
			"byteOffset":280616,
			"target":34962
		},
		{
			"buffer":0,
			"byteLength":15424,
			"byteOffset":303752,
			"target":34962
		},
		{
			"buffer":0,
			"byteLength":21888,
			"byteOffset":319176,
			"target":34963
		},
		{
			"buffer":0,
			"byteLength":3648,
			"byteOffset":341064,
			"target":34962
		},
		{
			"buffer":0,
			"byteLength":3648,
			"byteOffset":344712,
			"target":34962
		},
		{
			"buffer":0,
			"byteLength":2432,
			"byteOffset":348360,
			"target":34962
		},
		{
			"buffer":0,
			"byteLength":1920,
			"byteOffset":350792,
			"target":34963
		}
	],
	"samplers":[
		{
			"magFilter":9729,
			"minFilter":9987
		}
	],
	"buffers":[
		{
			"byteLength":352712,
			"uri":"SchlafzimmerLayout_01.bin"
		}
	]
}
