{
	"asset":{
		"generator":"Khronos glTF Blender I/O v5.1.18",
		"version":"2.0"
	},
	"extensionsUsed":[
		"KHR_materials_specular"
	],
	"scene":0,
	"scenes":[
		{
			"name":"Scene",
			"nodes":[
				0,
				1,
				2,
				3,
				4,
				5,
				6,
				7,
				8,
				9,
				10,
				11,
				12,
				13,
				14,
				15,
				16,
				17,
				18,
				19,
				20,
				21,
				22,
				23,
				24,
				25,
				26,
				27,
				28,
				29,
				30,
				31,
				32,
				33,
				34,
				35,
				36,
				37,
				38,
				39
			]
		}
	],
	"nodes":[
		{
			"mesh":0,
			"name":"UG.002",
			"translation":[
				0.800000011920929,
				-3.0999999046325684,
				0
			]
		},
		{
			"mesh":1,
			"name":"Boden.005",
			"scale":[
				1,
				0.29999998211860657,
				1
			],
			"translation":[
				16.250099182128906,
				-3.0999999046325684,
				-5.364019870758057
			]
		},
		{
			"mesh":2,
			"name":"Treppe.003",
			"scale":[
				1,
				0.8839778900146484,
				0.9616899490356445
			],
			"translation":[
				24.570110321044922,
				0,
				-11.978229522705078
			]
		},
		{
			"mesh":3,
			"name":"Cube.017",
			"scale":[
				0.699999988079071,
				1,
				0.19999998807907104
			],
			"translation":[
				16.728565216064453,
				-2.4944748878479004,
				-16.946765899658203
			]
		},
		{
			"mesh":4,
			"name":"Cube.018",
			"scale":[
				0.699999988079071,
				1,
				0.19999998807907104
			],
			"translation":[
				19.69800567626953,
				-2.4944748878479004,
				-16.946765899658203
			]
		},
		{
			"mesh":5,
			"name":"Blockzarge.033",
			"rotation":[
				0,
				-1,
				0,
				7.549789415861596e-08
			],
			"scale":[
				0.019999999552965164,
				1.0674999952316284,
				0.019999999552965164
			]
		},
		{
			"mesh":6,
			"name":"Blockzarge.034",
			"scale":[
				0.019999999552965164,
				1.0674999952316284,
				0.019999999552965164
			],
			"translation":[
				0,
				0,
				-0.6989994049072266
			]
		},
		{
			"mesh":7,
			"name":"Blockzarge.035",
			"rotation":[
				-0.7071068286895752,
				0,
				0,
				0.7071068286895752
			],
			"scale":[
				0.019999999552965164,
				0.34950000047683716,
				0.019999999552965164
			],
			"translation":[
				0,
				2.134999990463257,
				0
			]
		},
		{
			"mesh":8,
			"name":"T\u00fcrblatt.011",
			"scale":[
				0.029999999329447746,
				1.0499999523162842,
				0.34950000047683716
			]
		},
		{
			"mesh":9,
			"name":"Door.011",
			"rotation":[
				0.5,
				-0.5,
				0.5,
				0.5
			],
			"scale":[
				-0.8666666150093079,
				-1.6450296640396118,
				-1
			],
			"translation":[
				0.029999732971191406,
				1.070811152458191,
				-0.6448554992675781
			]
		},
		{
			"mesh":5,
			"name":"Blockzarge.036",
			"rotation":[
				0,
				-1,
				0,
				7.549789415861596e-08
			],
			"scale":[
				0.019999999552965164,
				1.0674999952316284,
				0.019999999552965164
			]
		},
		{
			"mesh":6,
			"name":"Blockzarge.037",
			"scale":[
				0.019999999552965164,
				1.0674999952316284,
				0.019999999552965164
			],
			"translation":[
				0,
				0,
				-0.6989994049072266
			]
		},
		{
			"mesh":7,
			"name":"Blockzarge.038",
			"rotation":[
				-0.7071068286895752,
				0,
				0,
				0.7071068286895752
			],
			"scale":[
				0.019999999552965164,
				0.34950000047683716,
				0.019999999552965164
			],
			"translation":[
				0,
				2.134999990463257,
				0
			]
		},
		{
			"mesh":8,
			"name":"T\u00fcrblatt.012",
			"scale":[
				0.029999999329447746,
				1.0499999523162842,
				0.34950000047683716
			]
		},
		{
			"mesh":9,
			"name":"Door.012",
			"rotation":[
				0.5,
				-0.5,
				0.5,
				0.5
			],
			"scale":[
				-0.8666666150093079,
				-1.6450296640396118,
				-1
			],
			"translation":[
				0.029999732971191406,
				1.070811152458191,
				-0.6448554992675781
			]
		},
		{
			"mesh":5,
			"name":"Blockzarge.039",
			"rotation":[
				0,
				-1,
				0,
				7.549789415861596e-08
			],
			"scale":[
				0.019999999552965164,
				1.0674999952316284,
				0.019999999552965164
			]
		},
		{
			"mesh":6,
			"name":"Blockzarge.040",
			"scale":[
				0.019999999552965164,
				1.0674999952316284,
				0.019999999552965164
			],
			"translation":[
				0,
				0,
				-0.6990013122558594
			]
		},
		{
			"mesh":7,
			"name":"Blockzarge.041",
			"rotation":[
				-0.7071068286895752,
				0,
				0,
				0.7071068286895752
			],
			"scale":[
				0.019999999552965164,
				0.34950000047683716,
				0.019999999552965164
			],
			"translation":[
				0,
				2.134999990463257,
				0
			]
		},
		{
			"mesh":8,
			"name":"T\u00fcrblatt.013",
			"scale":[
				0.029999999329447746,
				1.0499999523162842,
				0.34950000047683716
			]
		},
		{
			"mesh":9,
			"name":"Door.013",
			"rotation":[
				0.5,
				-0.5,
				0.5,
				0.5
			],
			"scale":[
				-0.8666666150093079,
				-1.6450296640396118,
				-1
			],
			"translation":[
				0.030000686645507812,
				1.070811152458191,
				-0.6448554992675781
			]
		},
		{
			"mesh":5,
			"name":"Blockzarge.042",
			"rotation":[
				0,
				-1,
				0,
				7.549789415861596e-08
			],
			"scale":[
				0.019999999552965164,
				1.0674999952316284,
				0.019999999552965164
			]
		},
		{
			"mesh":6,
			"name":"Blockzarge.043",
			"scale":[
				0.019999999552965164,
				1.0674999952316284,
				0.019999999552965164
			],
			"translation":[
				0,
				0,
				-0.6989994049072266
			]
		},
		{
			"mesh":7,
			"name":"Blockzarge.044",
			"rotation":[
				-0.7071068286895752,
				0,
				0,
				0.7071068286895752
			],
			"scale":[
				0.019999999552965164,
				0.34950000047683716,
				0.019999999552965164
			],
			"translation":[
				0,
				2.134999990463257,
				0
			]
		},
		{
			"mesh":8,
			"name":"T\u00fcrblatt.014",
			"scale":[
				0.029999999329447746,
				1.0499999523162842,
				0.34950000047683716
			]
		},
		{
			"mesh":9,
			"name":"Door.014",
			"rotation":[
				0.5,
				-0.5,
				0.5,
				0.5
			],
			"scale":[
				-0.8666666150093079,
				-1.6450296640396118,
				-1
			],
			"translation":[
				0.029999732971191406,
				1.070811152458191,
				-0.6448554992675781
			]
		},
		{
			"mesh":5,
			"name":"Blockzarge.045",
			"rotation":[
				0,
				-1,
				0,
				7.549789415861596e-08
			],
			"scale":[
				0.019999999552965164,
				1.0674999952316284,
				0.019999999552965164
			]
		},
		{
			"mesh":6,
			"name":"Blockzarge.046",
			"scale":[
				0.019999999552965164,
				1.0674999952316284,
				0.019999999552965164
			],
			"translation":[
				0,
				0,
				-0.6989994049072266
			]
		},
		{
			"mesh":7,
			"name":"Blockzarge.047",
			"rotation":[
				-0.7071068286895752,
				0,
				0,
				0.7071068286895752
			],
			"scale":[
				0.019999999552965164,
				0.34950000047683716,
				0.019999999552965164
			],
			"translation":[
				0,
				2.134999990463257,
				0
			]
		},
		{
			"mesh":8,
			"name":"T\u00fcrblatt.015",
			"scale":[
				0.029999999329447746,
				1.0499999523162842,
				0.34950000047683716
			]
		},
		{
			"mesh":9,
			"name":"Door.015",
			"rotation":[
				0.5,
				-0.5,
				0.5,
				0.5
			],
			"scale":[
				-0.8666666150093079,
				-1.6450296640396118,
				-1
			],
			"translation":[
				0.029999732971191406,
				1.070811152458191,
				-0.6448554992675781
			]
		},
		{
			"mesh":5,
			"name":"Blockzarge.048",
			"rotation":[
				0,
				-1,
				0,
				7.549789415861596e-08
			],
			"scale":[
				0.019999999552965164,
				1.0674999952316284,
				0.019999999552965164
			]
		},
		{
			"mesh":6,
			"name":"Blockzarge.049",
			"scale":[
				0.019999999552965164,
				1.0674999952316284,
				0.019999999552965164
			],
			"translation":[
				0,
				0,
				-0.6989994049072266
			]
		},
		{
			"mesh":7,
			"name":"Blockzarge.050",
			"rotation":[
				-0.7071068286895752,
				0,
				0,
				0.7071068286895752
			],
			"scale":[
				0.019999999552965164,
				0.34950000047683716,
				0.019999999552965164
			],
			"translation":[
				0,
				2.134999990463257,
				0
			]
		},
		{
			"mesh":8,
			"name":"T\u00fcrblatt.016",
			"scale":[
				0.029999999329447746,
				1.0499999523162842,
				0.34950000047683716
			]
		},
		{
			"mesh":9,
			"name":"Door.016",
			"rotation":[
				0.5,
				-0.5,
				0.5,
				0.5
			],
			"scale":[
				-0.8666666150093079,
				-1.6450296640396118,
				-1
			],
			"translation":[
				0.029999732971191406,
				1.070811152458191,
				-0.6448554992675781
			]
		},
		{
			"mesh":5,
			"name":"Blockzarge.051",
			"rotation":[
				0,
				-1,
				0,
				7.549789415861596e-08
			],
			"scale":[
				0.019999999552965164,
				1.0674999952316284,
				0.019999999552965164
			]
		},
		{
			"mesh":6,
			"name":"Blockzarge.052",
			"scale":[
				0.019999999552965164,
				1.0674999952316284,
				0.019999999552965164
			],
			"translation":[
				0,
				0,
				-0.699000358581543
			]
		},
		{
			"mesh":7,
			"name":"Blockzarge.053",
			"rotation":[
				-0.7071068286895752,
				0,
				0,
				0.7071068286895752
			],
			"scale":[
				0.019999999552965164,
				0.34950000047683716,
				0.019999999552965164
			],
			"translation":[
				0,
				2.134999990463257,
				0
			]
		},
		{
			"mesh":8,
			"name":"T\u00fcrblatt.017",
			"scale":[
				0.029999999329447746,
				1.0499999523162842,
				0.34950000047683716
			]
		},
		{
			"mesh":9,
			"name":"Door.017",
			"rotation":[
				0.5,
				-0.5,
				0.5,
				0.5
			],
			"scale":[
				-0.8666666150093079,
				-1.6450296640396118,
				-1
			],
			"translation":[
				0.030000686645507812,
				1.070811152458191,
				-0.6448564529418945
			]
		}
	],
	"materials":[
		{
			"doubleSided":true,
			"name":"Besenputz",
			"pbrMetallicRoughness":{
				"metallicFactor":0
			}
		},
		{
			"doubleSided":true,
			"name":"AussenPutz",
			"pbrMetallicRoughness":{
				"baseColorFactor":[
					0.7766516208648682,
					0.7766516208648682,
					0.7766516208648682,
					1
				],
				"metallicFactor":0
			}
		},
		{
			"doubleSided":true,
			"extensions":{
				"KHR_materials_specular":{
					"specularColorFactor":[
						0.8116995096206665,
						0.800999641418457,
						1.0
					]
				}
			},
			"name":"Terrazzo",
			"pbrMetallicRoughness":{
				"metallicFactor":0
			}
		},
		{
			"doubleSided":true,
			"name":"Beton_Rough",
			"pbrMetallicRoughness":{
				"baseColorFactor":[
					0.3583049178123474,
					0.3314575254917145,
					0.36859366297721863,
					1
				],
				"metallicFactor":0
			}
		},
		{
			"doubleSided":true,
			"name":"Black.Matt.004",
			"pbrMetallicRoughness":{
				"baseColorFactor":[
					0.010681908577680588,
					0.010681908577680588,
					0.010681908577680588,
					1
				],
				"metallicFactor":0.39263802766799927,
				"roughnessFactor":0.6840490698814392
			}
		}
	],
	"meshes":[
		{
			"name":"Curve.639",
			"primitives":[
				{
					"attributes":{
						"POSITION":0,
						"NORMAL":1,
						"TEXCOORD_0":2
					},
					"indices":3,
					"material":0
				},
				{
					"attributes":{
						"POSITION":4,
						"NORMAL":5,
						"TEXCOORD_0":6
					},
					"indices":7,
					"material":1
				}
			]
		},
		{
			"name":"B\u00e9zierCurve.028",
			"primitives":[
				{
					"attributes":{
						"POSITION":8,
						"NORMAL":9,
						"TEXCOORD_0":10
					},
					"indices":11,
					"material":2
				}
			]
		},
		{
			"name":"Cube.935",
			"primitives":[
				{
					"attributes":{
						"POSITION":12,
						"NORMAL":13,
						"TEXCOORD_0":14
					},
					"indices":15,
					"material":3
				}
			]
		},
		{
			"name":"Cube.936",
			"primitives":[
				{
					"attributes":{
						"POSITION":16,
						"NORMAL":17,
						"TEXCOORD_0":18
					},
					"indices":19
				}
			]
		},
		{
			"name":"Cube.937",
			"primitives":[
				{
					"attributes":{
						"POSITION":20,
						"NORMAL":21,
						"TEXCOORD_0":22
					},
					"indices":19
				}
			]
		},
		{
			"name":"Cube.546",
			"primitives":[
				{
					"attributes":{
						"POSITION":23,
						"NORMAL":24,
						"TEXCOORD_0":25
					},
					"indices":19,
					"material":4
				}
			]
		},
		{
			"name":"Cube.547",
			"primitives":[
				{
					"attributes":{
						"POSITION":26,
						"NORMAL":27,
						"TEXCOORD_0":28
					},
					"indices":19,
					"material":4
				}
			]
		},
		{
			"name":"Cube.548",
			"primitives":[
				{
					"attributes":{
						"POSITION":29,
						"NORMAL":30,
						"TEXCOORD_0":31
					},
					"indices":19,
					"material":4
				}
			]
		},
		{
			"name":"Cube.545",
			"primitives":[
				{
					"attributes":{
						"POSITION":32,
						"NORMAL":33,
						"TEXCOORD_0":34
					},
					"indices":19
				}
			]
		},
		{
			"name":"Plane.001_Glossy_0.003",
			"primitives":[
				{
					"attributes":{
						"POSITION":35,
						"NORMAL":36,
						"TEXCOORD_0":37,
						"TEXCOORD_1":38,
						"TEXCOORD_2":39
					},
					"indices":40,
					"material":4
				}
			]
		}
	],
	"accessors":[
		{
			"bufferView":0,
			"componentType":5126,
			"count":199,
			"max":[
				25.000810623168945,
				2.799999952316284,
				-4.998963832855225
			],
			"min":[
				15.085084915161133,
				0,
				-16.947114944458008
			],
			"type":"VEC3"
		},
		{
			"bufferView":1,
			"componentType":5126,
			"count":199,
			"type":"VEC3"
		},
		{
			"bufferView":2,
			"componentType":5126,
			"count":199,
			"type":"VEC2"
		},
		{
			"bufferView":3,
			"componentType":5123,
			"count":417,
			"type":"SCALAR"
		},
		{
			"bufferView":4,
			"componentType":5126,
			"count":47,
			"max":[
				24.63568115234375,
				2.799999952316284,
				-5.364019870758057
			],
			"min":[
				15.450217247009277,
				0,
				-16.947114944458008
			],
			"type":"VEC3"
		},
		{
			"bufferView":5,
			"componentType":5126,
			"count":47,
			"type":"VEC3"
		},
		{
			"bufferView":6,
			"componentType":5126,
			"count":47,
			"type":"VEC2"
		},
		{
			"bufferView":7,
			"componentType":5123,
			"count":99,
			"type":"SCALAR"
		},
		{
			"bufferView":8,
			"componentType":5126,
			"count":26,
			"max":[
				9.18558120727539,
				1,
				4.76837158203125e-07
			],
			"min":[
				0,
				0,
				-11.267688751220703
			],
			"type":"VEC3"
		},
		{
			"bufferView":9,
			"componentType":5126,
			"count":26,
			"type":"VEC3"
		},
		{
			"bufferView":10,
			"componentType":5126,
			"count":26,
			"type":"VEC2"
		},
		{
			"bufferView":11,
			"componentType":5123,
			"count":60,
			"type":"SCALAR"
		},
		{
			"bufferView":12,
			"componentType":5126,
			"count":420,
			"max":[
				0.0009436705731786788,
				-0.019999993965029716,
				3.982572555541992
			],
			"min":[
				-1.191152572631836,
				-3.1875,
				-6.453361578451222e-08
			],
			"type":"VEC3"
		},
		{
			"bufferView":13,
			"componentType":5126,
			"count":420,
			"type":"VEC3"
		},
		{
			"bufferView":14,
			"componentType":5126,
			"count":420,
			"type":"VEC2"
		},
		{
			"bufferView":15,
			"componentType":5123,
			"count":636,
			"type":"SCALAR"
		},
		{
			"bufferView":16,
			"componentType":5126,
			"count":24,
			"max":[
				2,
				2,
				0
			],
			"min":[
				0,
				0,
				-2
			],
			"type":"VEC3"
		},
		{
			"bufferView":17,
			"componentType":5126,
			"count":24,
			"type":"VEC3"
		},
		{
			"bufferView":18,
			"componentType":5126,
			"count":24,
			"type":"VEC2"
		},
		{
			"bufferView":19,
			"componentType":5123,
			"count":36,
			"type":"SCALAR"
		},
		{
			"bufferView":20,
			"componentType":5126,
			"count":24,
			"max":[
				2,
				2,
				0
			],
			"min":[
				0,
				0,
				-2
			],
			"type":"VEC3"
		},
		{
			"bufferView":21,
			"componentType":5126,
			"count":24,
			"type":"VEC3"
		},
		{
			"bufferView":22,
			"componentType":5126,
			"count":24,
			"type":"VEC2"
		},
		{
			"bufferView":23,
			"componentType":5126,
			"count":24,
			"max":[
				1,
				2,
				0
			],
			"min":[
				-1,
				0,
				-2
			],
			"type":"VEC3"
		},
		{
			"bufferView":24,
			"componentType":5126,
			"count":24,
			"type":"VEC3"
		},
		{
			"bufferView":25,
			"componentType":5126,
			"count":24,
			"type":"VEC2"
		},
		{
			"bufferView":26,
			"componentType":5126,
			"count":24,
			"max":[
				1,
				2,
				0
			],
			"min":[
				-1,
				0,
				-2
			],
			"type":"VEC3"
		},
		{
			"bufferView":27,
			"componentType":5126,
			"count":24,
			"type":"VEC3"
		},
		{
			"bufferView":28,
			"componentType":5126,
			"count":24,
			"type":"VEC2"
		},
		{
			"bufferView":29,
			"componentType":5126,
			"count":24,
			"max":[
				1,
				2,
				0
			],
			"min":[
				-1,
				0,
				-2
			],
			"type":"VEC3"
		},
		{
			"bufferView":30,
			"componentType":5126,
			"count":24,
			"type":"VEC3"
		},
		{
			"bufferView":31,
			"componentType":5126,
			"count":24,
			"type":"VEC2"
		},
		{
			"bufferView":32,
			"componentType":5126,
			"count":24,
			"max":[
				1,
				2,
				0
			],
			"min":[
				-1,
				0,
				-2
			],
			"type":"VEC3"
		},
		{
			"bufferView":33,
			"componentType":5126,
			"count":24,
			"type":"VEC3"
		},
		{
			"bufferView":34,
			"componentType":5126,
			"count":24,
			"type":"VEC2"
		},
		{
			"bufferView":35,
			"componentType":5126,
			"count":1896,
			"max":[
				0.05747199058532715,
				0.058709338307380676,
				0.05469536781311035
			],
			"min":[
				-0.10081350803375244,
				-0.058709368109703064,
				-0.08812892436981201
			],
			"type":"VEC3"
		},
		{
			"bufferView":36,
			"componentType":5126,
			"count":1896,
			"type":"VEC3"
		},
		{
			"bufferView":37,
			"componentType":5126,
			"count":1896,
			"type":"VEC2"
		},
		{
			"bufferView":38,
			"componentType":5126,
			"count":1896,
			"type":"VEC2"
		},
		{
			"bufferView":39,
			"componentType":5126,
			"count":1896,
			"type":"VEC2"
		},
		{
			"bufferView":40,
			"componentType":5123,
			"count":7056,
			"type":"SCALAR"
		}
	],
	"bufferViews":[
		{
			"buffer":0,
			"byteLength":2388,
			"byteOffset":0,
			"target":34962
		},
		{
			"buffer":0,
			"byteLength":2388,
			"byteOffset":2388,
			"target":34962
		},
		{
			"buffer":0,
			"byteLength":1592,
			"byteOffset":4776,
			"target":34962
		},
		{
			"buffer":0,
			"byteLength":834,
			"byteOffset":6368,
			"target":34963
		},
		{
			"buffer":0,
			"byteLength":564,
			"byteOffset":7204,
			"target":34962
		},
		{
			"buffer":0,
			"byteLength":564,
			"byteOffset":7768,
			"target":34962
		},
		{
			"buffer":0,
			"byteLength":376,
			"byteOffset":8332,
			"target":34962
		},
		{
			"buffer":0,
			"byteLength":198,
			"byteOffset":8708,
			"target":34963
		},
		{
			"buffer":0,
			"byteLength":312,
			"byteOffset":8908,
			"target":34962
		},
		{
			"buffer":0,
			"byteLength":312,
			"byteOffset":9220,
			"target":34962
		},
		{
			"buffer":0,
			"byteLength":208,
			"byteOffset":9532,
			"target":34962
		},
		{
			"buffer":0,
			"byteLength":120,
			"byteOffset":9740,
			"target":34963
		},
		{
			"buffer":0,
			"byteLength":5040,
			"byteOffset":9860,
			"target":34962
		},
		{
			"buffer":0,
			"byteLength":5040,
			"byteOffset":14900,
			"target":34962
		},
		{
			"buffer":0,
			"byteLength":3360,
			"byteOffset":19940,
			"target":34962
		},
		{
			"buffer":0,
			"byteLength":1272,
			"byteOffset":23300,
			"target":34963
		},
		{
			"buffer":0,
			"byteLength":288,
			"byteOffset":24572,
			"target":34962
		},
		{
			"buffer":0,
			"byteLength":288,
			"byteOffset":24860,
			"target":34962
		},
		{
			"buffer":0,
			"byteLength":192,
			"byteOffset":25148,
			"target":34962
		},
		{
			"buffer":0,
			"byteLength":72,
			"byteOffset":25340,
			"target":34963
		},
		{
			"buffer":0,
			"byteLength":288,
			"byteOffset":25412,
			"target":34962
		},
		{
			"buffer":0,
			"byteLength":288,
			"byteOffset":25700,
			"target":34962
		},
		{
			"buffer":0,
			"byteLength":192,
			"byteOffset":25988,
			"target":34962
		},
		{
			"buffer":0,
			"byteLength":288,
			"byteOffset":26180,
			"target":34962
		},
		{
			"buffer":0,
			"byteLength":288,
			"byteOffset":26468,
			"target":34962
		},
		{
			"buffer":0,
			"byteLength":192,
			"byteOffset":26756,
			"target":34962
		},
		{
			"buffer":0,
			"byteLength":288,
			"byteOffset":26948,
			"target":34962
		},
		{
			"buffer":0,
			"byteLength":288,
			"byteOffset":27236,
			"target":34962
		},
		{
			"buffer":0,
			"byteLength":192,
			"byteOffset":27524,
			"target":34962
		},
		{
			"buffer":0,
			"byteLength":288,
			"byteOffset":27716,
			"target":34962
		},
		{
			"buffer":0,
			"byteLength":288,
			"byteOffset":28004,
			"target":34962
		},
		{
			"buffer":0,
			"byteLength":192,
			"byteOffset":28292,
			"target":34962
		},
		{
			"buffer":0,
			"byteLength":288,
			"byteOffset":28484,
			"target":34962
		},
		{
			"buffer":0,
			"byteLength":288,
			"byteOffset":28772,
			"target":34962
		},
		{
			"buffer":0,
			"byteLength":192,
			"byteOffset":29060,
			"target":34962
		},
		{
			"buffer":0,
			"byteLength":22752,
			"byteOffset":29252,
			"target":34962
		},
		{
			"buffer":0,
			"byteLength":22752,
			"byteOffset":52004,
			"target":34962
		},
		{
			"buffer":0,
			"byteLength":15168,
			"byteOffset":74756,
			"target":34962
		},
		{
			"buffer":0,
			"byteLength":15168,
			"byteOffset":89924,
			"target":34962
		},
		{
			"buffer":0,
			"byteLength":15168,
			"byteOffset":105092,
			"target":34962
		},
		{
			"buffer":0,
			"byteLength":14112,
			"byteOffset":120260,
			"target":34963
		}
	],
	"buffers":[
		{
			"byteLength":134372,
			"uri":"UG.bin"
		}
	]
}
