{
	"asset":{
		"generator":"Khronos glTF Blender I/O v5.1.18",
		"version":"2.0"
	},
	"extensionsUsed":[
		"KHR_materials_specular"
	],
	"scene":0,
	"scenes":[
		{
			"name":"Scene",
			"nodes":[
				0,
				1,
				2,
				3,
				4,
				5,
				6,
				7,
				8,
				9,
				10,
				11,
				12,
				13,
				14,
				15,
				16,
				17,
				18,
				19,
				20,
				21,
				22,
				23,
				24,
				25,
				26,
				27,
				28,
				29,
				30,
				31,
				32,
				33,
				34,
				35,
				36,
				37,
				38
			]
		}
	],
	"nodes":[
		{
			"mesh":0,
			"name":"toilet.006",
			"rotation":[
				-0.70710688829422,
				0,
				0,
				0.7071066498756409
			],
			"scale":[
				22,
				22,
				22
			],
			"translation":[
				20.283981323242188,
				-2.798701524734497,
				-5.314022064208984
			]
		},
		{
			"mesh":1,
			"name":"_Wand.010",
			"rotation":[
				0,
				-0.7071068286895752,
				0,
				0.7071068286895752
			],
			"scale":[
				11.429742813110352,
				0.4399999976158142,
				0.07635831832885742
			],
			"translation":[
				20.175371170043945,
				-2.799999952316284,
				-5.364022731781006
			]
		},
		{
			"mesh":2,
			"name":"_Wand.012",
			"scale":[
				0.9854361414909363,
				1,
				1
			],
			"translation":[
				24.57205581665039,
				-2.799999952316284,
				-7.983252048492432
			]
		},
		{
			"mesh":3,
			"name":"_Wand.013",
			"translation":[
				22.044353485107422,
				-2.799999952316284,
				-9.39453411102295
			]
		},
		{
			"mesh":4,
			"name":"_Wand.014",
			"translation":[
				21.870079040527344,
				-2.799999952316284,
				-16.586650848388672
			]
		},
		{
			"mesh":5,
			"name":"_Wand.015",
			"translation":[
				24.572765350341797,
				-2.799999952316284,
				-12.234036445617676
			]
		},
		{
			"mesh":6,
			"name":"_Wand.016",
			"scale":[
				0.6572101712226868,
				1,
				0.6563422679901123
			],
			"translation":[
				21.895299911499023,
				-2.799999952316284,
				-7.983252048492432
			]
		},
		{
			"mesh":7,
			"name":"_KellerRegal.004",
			"scale":[
				0.75,
				1,
				1.1092896461486816
			],
			"translation":[
				22.91029930114746,
				-2.799999952316284,
				-6.379372596740723
			]
		},
		{
			"mesh":8,
			"name":"_Wand.017",
			"rotation":[
				0,
				0.7071068286895752,
				0,
				0.7071068286895752
			],
			"scale":[
				0.6572101712226868,
				1,
				0.3436586856842041
			],
			"translation":[
				22.010299682617188,
				-2.799999952316284,
				-6.2643723487854
			]
		},
		{
			"mesh":9,
			"name":"KS+TK.001",
			"rotation":[
				0,
				0.7071068286895752,
				0,
				0.7071068286895752
			],
			"scale":[
				1,
				1.1111111640930176,
				1
			],
			"translation":[
				22.610300064086914,
				-2.799999952316284,
				-6.3793721199035645
			]
		},
		{
			"mesh":10,
			"name":"_Wand.018",
			"scale":[
				0.6572101712226868,
				1,
				0.3436586856842041
			],
			"translation":[
				22.795299530029297,
				-2.799999952316284,
				-6.2643723487854
			]
		},
		{
			"mesh":11,
			"name":"_KellerRegal.005",
			"rotation":[
				0,
				0.7071068286895752,
				0,
				0.7071068286895752
			],
			"scale":[
				1.5,
				1,
				0.6557376980781555
			],
			"translation":[
				22.010299682617188,
				-2.799999952316284,
				-6.3793721199035645
			]
		},
		{
			"mesh":12,
			"name":"_KellerRegal.006",
			"rotation":[
				0,
				-1,
				0,
				4.371138828673793e-08
			],
			"scale":[
				0.75,
				1,
				2.404371738433838
			],
			"translation":[
				24.57029914855957,
				-2.799999952316284,
				-5.764372825622559
			]
		},
		{
			"mesh":13,
			"name":"toilet.007",
			"rotation":[
				-0.70710688829422,
				0,
				0,
				0.7071066498756409
			],
			"scale":[
				22,
				22,
				22
			],
			"translation":[
				20.1676082611084,
				-2.998699903488159,
				-5.314022064208984
			]
		},
		{
			"mesh":14,
			"name":"toilet.008",
			"rotation":[
				-0.70710688829422,
				0,
				0,
				0.7071066498756409
			],
			"scale":[
				22,
				22,
				22
			],
			"translation":[
				20.283981323242188,
				-2.798701524734497,
				-5.314022064208984
			]
		},
		{
			"mesh":15,
			"name":"toilet.009",
			"rotation":[
				-0.70710688829422,
				0,
				0,
				0.7071066498756409
			],
			"scale":[
				22,
				22,
				22
			],
			"translation":[
				20.283981323242188,
				-2.798701524734497,
				-5.314022064208984
			]
		},
		{
			"mesh":16,
			"name":"_Wand.019",
			"translation":[
				20.000389099121094,
				-2.799999952316284,
				-9.444530487060547
			]
		},
		{
			"mesh":17,
			"name":"_Wand.020",
			"scale":[
				5.143383979797363,
				0.03999999910593033,
				0.3436124622821808
			],
			"translation":[
				22.795299530029297,
				-2.799999952316284,
				-5.364372253417969
			]
		},
		{
			"mesh":18,
			"name":"_KellerRegal.007",
			"rotation":[
				0,
				0.7071068286895752,
				0,
				0.7071068286895752
			],
			"scale":[
				1,
				1,
				1.4863388538360596
			],
			"translation":[
				23.210298538208008,
				-2.799999952316284,
				-5.364372730255127
			]
		},
		{
			"mesh":19,
			"name":"_Wand.021",
			"rotation":[
				0,
				-0.7071068286895752,
				0,
				0.7071068286895752
			],
			"scale":[
				2.2859482765197754,
				0.800000011920929,
				0.057268738746643066
			],
			"translation":[
				20.175371170043945,
				-2.799999952316284,
				-7.492762088775635
			]
		},
		{
			"mesh":20,
			"name":"Curve.049",
			"scale":[
				1,
				0.3610822558403015,
				1
			],
			"translation":[
				16.870052337646484,
				-2.799999952316284,
				-9.412074089050293
			]
		},
		{
			"mesh":21,
			"name":"Curve.050",
			"translation":[
				17.559276580810547,
				-2.799999952316284,
				-5.419747352600098
			]
		},
		{
			"mesh":22,
			"name":"Curve.051",
			"translation":[
				19.464906692504883,
				-2.799999952316284,
				-5.622358322143555
			]
		},
		{
			"mesh":23,
			"name":"WaschBecken.001",
			"scale":[
				2.8002867698669434,
				0.25599998235702515,
				0.3130691349506378
			],
			"translation":[
				20.3753719329834,
				-2.559999942779541,
				-7.214042663574219
			]
		},
		{
			"mesh":24,
			"name":"Curve.052",
			"scale":[
				1.3339217901229858,
				1,
				1
			],
			"translation":[
				23.155431747436523,
				-2.799999952316284,
				-11.980870246887207
			]
		},
		{
			"mesh":25,
			"name":"W\u00e4scheRohr.001",
			"scale":[
				0.14999999105930328,
				3.0999999046325684,
				0.14999999105930328
			],
			"translation":[
				22.25004768371582,
				-2.799999952316284,
				-13.725025177001953
			]
		},
		{
			"mesh":26,
			"name":"Curve.053",
			"scale":[
				0.5000380277633667,
				1.644444465637207,
				1.2002904415130615
			],
			"translation":[
				16.25021743774414,
				-2.799999237060547,
				-9.56953239440918
			]
		},
		{
			"mesh":27,
			"name":"Curve.054",
			"scale":[
				0.5000380277633667,
				1.644444465637207,
				1.2002904415130615
			],
			"translation":[
				16.25021743774414,
				-2.799999237060547,
				-11.969532012939453
			]
		},
		{
			"mesh":28,
			"name":"Curve.055",
			"scale":[
				0.5000380277633667,
				1.644444465637207,
				1.2002904415130615
			],
			"translation":[
				16.25021743774414,
				-2.799999237060547,
				-14.369531631469727
			]
		},
		{
			"mesh":29,
			"name":"Curve.056",
			"rotation":[
				0,
				0.7071068286895752,
				0,
				0.7071068286895752
			],
			"scale":[
				0.5625427961349487,
				4.222222328186035,
				0.250060498714447
			],
			"translation":[
				21.870079040527344,
				-2.799999237060547,
				-15.637866020202637
			]
		},
		{
			"mesh":30,
			"name":"Curve.057",
			"rotation":[
				0,
				0.7071068286895752,
				0,
				0.7071068286895752
			],
			"scale":[
				0.5625427961349487,
				4.222222328186035,
				0.250060498714447
			],
			"translation":[
				21.870079040527344,
				-2.799999237060547,
				-14.669593811035156
			]
		},
		{
			"mesh":31,
			"name":"Curve.058",
			"rotation":[
				0,
				0.7071068286895752,
				0,
				0.7071068286895752
			],
			"scale":[
				0.5625427961349487,
				4.222222328186035,
				0.250060498714447
			],
			"translation":[
				21.870079040527344,
				-2.799999237060547,
				-13.679145812988281
			]
		},
		{
			"mesh":32,
			"name":"Curve.059",
			"rotation":[
				0,
				0.7071068286895752,
				0,
				0.7071068286895752
			],
			"scale":[
				0.5625427961349487,
				4.222222328186035,
				0.250060498714447
			],
			"translation":[
				21.870079040527344,
				-2.799999237060547,
				-12.725656509399414
			]
		},
		{
			"mesh":33,
			"name":"Curve.060",
			"rotation":[
				0,
				0.7071068286895752,
				0,
				0.7071068286895752
			],
			"scale":[
				0.5625427961349487,
				4.222222328186035,
				0.250060498714447
			],
			"translation":[
				21.870079040527344,
				-2.799999237060547,
				-11.749993324279785
			]
		},
		{
			"mesh":34,
			"name":"Gem\u00e4lde.010",
			"scale":[
				0.5,
				0.5,
				1
			],
			"translation":[
				20.663986206054688,
				-1.4299007654190063,
				-9.389309883117676
			]
		},
		{
			"mesh":35,
			"name":"Gem\u00e4lde.011",
			"scale":[
				0.5,
				0.5,
				1
			],
			"translation":[
				21.548154830932617,
				-1.4299007654190063,
				-9.389309883117676
			]
		},
		{
			"mesh":36,
			"name":"Gem\u00e4lde.012",
			"rotation":[
				0,
				0.7071068286895752,
				0,
				0.7071068286895752
			],
			"scale":[
				0.6666488647460938,
				0.6666666865348816,
				1
			],
			"translation":[
				16.259746551513672,
				-1.1384825706481934,
				-8.690361022949219
			]
		},
		{
			"mesh":37,
			"name":"Gem\u00e4lde.013",
			"rotation":[
				0,
				0.7071068286895752,
				0,
				0.7071068286895752
			],
			"scale":[
				0.6666488647460938,
				0.6666666865348816,
				1
			],
			"translation":[
				16.259746551513672,
				-1.1384825706481934,
				-7.442751407623291
			]
		},
		{
			"mesh":38,
			"name":"Gem\u00e4lde.014",
			"rotation":[
				0,
				0.7071068286895752,
				0,
				0.7071068286895752
			],
			"scale":[
				0.6666488647460938,
				0.6666666865348816,
				1
			],
			"translation":[
				16.259746551513672,
				-1.1384825706481934,
				-6.1580095291137695
			]
		}
	],
	"materials":[
		{
			"doubleSided":true,
			"name":"AussenMetall",
			"pbrMetallicRoughness":{
				"baseColorFactor":[
					0.03954596072435379,
					0.04817187413573265,
					0.05448030307888985,
					1
				],
				"roughnessFactor":0.654285728931427
			}
		},
		{
			"doubleSided":true,
			"extensions":{
				"KHR_materials_specular":{
					"specularFactor":0.4254545569419861
				}
			},
			"name":"metal",
			"pbrMetallicRoughness":{
				"baseColorFactor":[
					0.800000011920929,
					0.800000011920929,
					0.800000011920929,
					1
				],
				"roughnessFactor":0
			}
		},
		{
			"doubleSided":true,
			"name":"white_plastic",
			"pbrMetallicRoughness":{
				"baseColorFactor":[
					0.800000011920929,
					0.800000011920929,
					0.800000011920929,
					1
				],
				"metallicFactor":0,
				"roughnessFactor":0.5
			}
		},
		{
			"doubleSided":true,
			"extensions":{
				"KHR_materials_specular":{
					"specularFactor":0
				}
			},
			"name":"plastic_wit",
			"pbrMetallicRoughness":{
				"baseColorFactor":[
					0.800000011920929,
					0.800000011920929,
					0.800000011920929,
					1
				],
				"metallicFactor":0
			}
		},
		{
			"doubleSided":true,
			"extensions":{
				"KHR_materials_specular":{
					"specularColorFactor":[
						2.0,
						2.0,
						2.0
					]
				}
			},
			"name":"3D Oak - Unfinished",
			"pbrMetallicRoughness":{
				"baseColorFactor":[
					0.1936958134174347,
					0.010502032935619354,
					0.010776638984680176,
					1
				],
				"metallicFactor":0.5,
				"roughnessFactor":0.9648739099502563
			}
		},
		{
			"doubleSided":true,
			"name":"SVGMat",
			"pbrMetallicRoughness":{
				"baseColorFactor":[
					0,
					0,
					0,
					1
				],
				"metallicFactor":0,
				"roughnessFactor":0.4000000059604645
			}
		},
		{
			"doubleSided":true,
			"name":"holz",
			"pbrMetallicRoughness":{
				"baseColorFactor":[
					0.1879299283027649,
					0.13530103862285614,
					0.07264609634876251,
					1
				],
				"metallicFactor":0
			}
		},
		{
			"doubleSided":true,
			"name":"Black.Matt",
			"pbrMetallicRoughness":{
				"baseColorFactor":[
					0.010681908577680588,
					0.010681908577680588,
					0.010681908577680588,
					1
				],
				"metallicFactor":0.39263802766799927,
				"roughnessFactor":0.6840490698814392
			}
		},
		{
			"doubleSided":true,
			"name":"Black.Matt.001",
			"pbrMetallicRoughness":{
				"baseColorFactor":[
					0.010681908577680588,
					0.010681908577680588,
					0.010681908577680588,
					1
				],
				"metallicFactor":0.39263802766799927,
				"roughnessFactor":0.6840490698814392
			}
		},
		{
			"doubleSided":true,
			"name":"Gem\u00e4lde.001",
			"pbrMetallicRoughness":{
				"baseColorTexture":{
					"index":0
				},
				"metallicFactor":0,
				"roughnessFactor":0.5
			}
		},
		{
			"doubleSided":true,
			"name":"Gem\u00e4lde.002",
			"pbrMetallicRoughness":{
				"baseColorTexture":{
					"index":1
				},
				"metallicFactor":0,
				"roughnessFactor":0.5
			}
		},
		{
			"doubleSided":true,
			"name":"Gem\u00e4lde.003",
			"pbrMetallicRoughness":{
				"baseColorTexture":{
					"index":2
				},
				"metallicFactor":0,
				"roughnessFactor":0.5
			}
		},
		{
			"doubleSided":true,
			"name":"Gem\u00e4lde.004",
			"pbrMetallicRoughness":{
				"baseColorTexture":{
					"index":3
				},
				"metallicFactor":0,
				"roughnessFactor":0.5
			}
		},
		{
			"doubleSided":true,
			"name":"Gem\u00e4lde.005",
			"pbrMetallicRoughness":{
				"baseColorTexture":{
					"index":4
				},
				"metallicFactor":0,
				"roughnessFactor":0.5
			}
		}
	],
	"meshes":[
		{
			"name":"Cube.938",
			"primitives":[
				{
					"attributes":{
						"POSITION":0,
						"NORMAL":1,
						"TEXCOORD_0":2
					},
					"indices":3
				}
			]
		},
		{
			"name":"Curve.640",
			"primitives":[
				{
					"attributes":{
						"POSITION":4,
						"NORMAL":5,
						"TEXCOORD_0":6
					},
					"indices":7
				}
			]
		},
		{
			"name":"Curve.641",
			"primitives":[
				{
					"attributes":{
						"POSITION":8,
						"NORMAL":9,
						"TEXCOORD_0":10
					},
					"indices":11
				}
			]
		},
		{
			"name":"Curve.642",
			"primitives":[
				{
					"attributes":{
						"POSITION":12,
						"NORMAL":13,
						"TEXCOORD_0":14
					},
					"indices":15
				}
			]
		},
		{
			"name":"Curve.643",
			"primitives":[
				{
					"attributes":{
						"POSITION":16,
						"NORMAL":17,
						"TEXCOORD_0":18
					},
					"indices":19
				}
			]
		},
		{
			"name":"Curve.644",
			"primitives":[
				{
					"attributes":{
						"POSITION":20,
						"NORMAL":21,
						"TEXCOORD_0":22
					},
					"indices":23
				}
			]
		},
		{
			"name":"Curve.645",
			"primitives":[
				{
					"attributes":{
						"POSITION":24,
						"NORMAL":25,
						"TEXCOORD_0":26
					},
					"indices":7
				}
			]
		},
		{
			"name":"Curve.646",
			"primitives":[
				{
					"attributes":{
						"POSITION":27,
						"NORMAL":28,
						"TEXCOORD_0":29
					},
					"indices":30,
					"material":0
				}
			]
		},
		{
			"name":"Curve.647",
			"primitives":[
				{
					"attributes":{
						"POSITION":31,
						"NORMAL":32,
						"TEXCOORD_0":33
					},
					"indices":7
				}
			]
		},
		{
			"name":"Curve.648",
			"primitives":[
				{
					"attributes":{
						"POSITION":34,
						"NORMAL":35,
						"TEXCOORD_0":36
					},
					"indices":37
				}
			]
		},
		{
			"name":"Curve.649",
			"primitives":[
				{
					"attributes":{
						"POSITION":38,
						"NORMAL":39,
						"TEXCOORD_0":40
					},
					"indices":7
				}
			]
		},
		{
			"name":"Curve.650",
			"primitives":[
				{
					"attributes":{
						"POSITION":41,
						"NORMAL":42,
						"TEXCOORD_0":43
					},
					"indices":30,
					"material":0
				}
			]
		},
		{
			"name":"Curve.651",
			"primitives":[
				{
					"attributes":{
						"POSITION":44,
						"NORMAL":45,
						"TEXCOORD_0":46
					},
					"indices":30,
					"material":0
				}
			]
		},
		{
			"name":"Cube.939",
			"primitives":[
				{
					"attributes":{
						"POSITION":47,
						"NORMAL":48,
						"TEXCOORD_0":49
					},
					"indices":50
				}
			]
		},
		{
			"name":"Cube.940",
			"primitives":[
				{
					"attributes":{
						"POSITION":51,
						"NORMAL":52,
						"TEXCOORD_0":53
					},
					"indices":54,
					"material":1
				},
				{
					"attributes":{
						"POSITION":55,
						"NORMAL":56,
						"TEXCOORD_0":57
					},
					"indices":58,
					"material":2
				}
			]
		},
		{
			"name":"Cube.941",
			"primitives":[
				{
					"attributes":{
						"POSITION":59,
						"NORMAL":60,
						"TEXCOORD_0":61
					},
					"indices":62,
					"material":1
				},
				{
					"attributes":{
						"POSITION":63,
						"NORMAL":64,
						"TEXCOORD_0":65
					},
					"indices":66,
					"material":2
				}
			]
		},
		{
			"name":"Curve.652",
			"primitives":[
				{
					"attributes":{
						"POSITION":67,
						"NORMAL":68,
						"TEXCOORD_0":69
					},
					"indices":70
				}
			]
		},
		{
			"name":"Curve.653",
			"primitives":[
				{
					"attributes":{
						"POSITION":71,
						"NORMAL":72,
						"TEXCOORD_0":73
					},
					"indices":7
				}
			]
		},
		{
			"name":"Curve.654",
			"primitives":[
				{
					"attributes":{
						"POSITION":74,
						"NORMAL":75,
						"TEXCOORD_0":76
					},
					"indices":30,
					"material":0
				}
			]
		},
		{
			"name":"Curve.655",
			"primitives":[
				{
					"attributes":{
						"POSITION":77,
						"NORMAL":78,
						"TEXCOORD_0":79
					},
					"indices":7
				}
			]
		},
		{
			"name":"Curve.656",
			"primitives":[
				{
					"attributes":{
						"POSITION":80,
						"NORMAL":81,
						"TEXCOORD_0":82
					},
					"indices":83,
					"material":3
				}
			]
		},
		{
			"name":"Curve.657",
			"primitives":[
				{
					"attributes":{
						"POSITION":84,
						"NORMAL":85,
						"TEXCOORD_0":86
					},
					"indices":87,
					"material":4
				}
			]
		},
		{
			"name":"Curve.658",
			"primitives":[
				{
					"attributes":{
						"POSITION":88,
						"NORMAL":89,
						"TEXCOORD_0":90
					},
					"indices":91,
					"material":4
				}
			]
		},
		{
			"name":"Curve.659",
			"primitives":[
				{
					"attributes":{
						"POSITION":92,
						"NORMAL":93,
						"TEXCOORD_0":94
					},
					"indices":95
				}
			]
		},
		{
			"name":"Curve.662",
			"primitives":[
				{
					"attributes":{
						"POSITION":96,
						"NORMAL":97,
						"TEXCOORD_0":98
					},
					"indices":99,
					"material":5
				}
			]
		},
		{
			"name":"Cylinder.088",
			"primitives":[
				{
					"attributes":{
						"POSITION":100,
						"NORMAL":101,
						"TEXCOORD_0":102
					},
					"indices":103
				}
			]
		},
		{
			"name":"Curve.664",
			"primitives":[
				{
					"attributes":{
						"POSITION":104,
						"NORMAL":105,
						"TEXCOORD_0":106
					},
					"indices":87,
					"material":6
				}
			]
		},
		{
			"name":"Curve.665",
			"primitives":[
				{
					"attributes":{
						"POSITION":107,
						"NORMAL":108,
						"TEXCOORD_0":109
					},
					"indices":87,
					"material":6
				}
			]
		},
		{
			"name":"Curve.666",
			"primitives":[
				{
					"attributes":{
						"POSITION":110,
						"NORMAL":111,
						"TEXCOORD_0":112
					},
					"indices":87,
					"material":6
				}
			]
		},
		{
			"name":"Curve.667",
			"primitives":[
				{
					"attributes":{
						"POSITION":113,
						"NORMAL":114,
						"TEXCOORD_0":115
					},
					"indices":87,
					"material":7
				}
			]
		},
		{
			"name":"Curve.668",
			"primitives":[
				{
					"attributes":{
						"POSITION":116,
						"NORMAL":117,
						"TEXCOORD_0":118
					},
					"indices":87,
					"material":7
				}
			]
		},
		{
			"name":"Curve.670",
			"primitives":[
				{
					"attributes":{
						"POSITION":119,
						"NORMAL":120,
						"TEXCOORD_0":121
					},
					"indices":87,
					"material":7
				}
			]
		},
		{
			"name":"Curve.671",
			"primitives":[
				{
					"attributes":{
						"POSITION":122,
						"NORMAL":123,
						"TEXCOORD_0":124
					},
					"indices":87,
					"material":7
				}
			]
		},
		{
			"name":"Curve.672",
			"primitives":[
				{
					"attributes":{
						"POSITION":125,
						"NORMAL":126,
						"TEXCOORD_0":127
					},
					"indices":87,
					"material":8
				}
			]
		},
		{
			"name":"Curve.673",
			"primitives":[
				{
					"attributes":{
						"POSITION":128,
						"NORMAL":129,
						"TEXCOORD_0":130
					},
					"indices":131,
					"material":9
				}
			]
		},
		{
			"name":"Curve.674",
			"primitives":[
				{
					"attributes":{
						"POSITION":132,
						"NORMAL":133,
						"TEXCOORD_0":134
					},
					"indices":131,
					"material":10
				}
			]
		},
		{
			"name":"Curve.675",
			"primitives":[
				{
					"attributes":{
						"POSITION":135,
						"NORMAL":136,
						"TEXCOORD_0":137
					},
					"indices":131,
					"material":11
				}
			]
		},
		{
			"name":"Curve.676",
			"primitives":[
				{
					"attributes":{
						"POSITION":138,
						"NORMAL":139,
						"TEXCOORD_0":140
					},
					"indices":131,
					"material":12
				}
			]
		},
		{
			"name":"Curve.677",
			"primitives":[
				{
					"attributes":{
						"POSITION":141,
						"NORMAL":142,
						"TEXCOORD_0":143
					},
					"indices":131,
					"material":13
				}
			]
		}
	],
	"textures":[
		{
			"sampler":0,
			"source":0
		},
		{
			"sampler":0,
			"source":0
		},
		{
			"sampler":0,
			"source":0
		},
		{
			"sampler":0,
			"source":0
		},
		{
			"sampler":0,
			"source":0
		}
	],
	"images":[
		{
			"mimeType":"image/jpeg",
			"name":"dornhege_1.jpg",
			"uri":"dornhege_1.jpg.jpg"
		}
	],
	"accessors":[
		{
			"bufferView":0,
			"componentType":5126,
			"count":4345,
			"max":[
				0.03830764815211296,
				0.03311343118548393,
				0.023122694343328476
			],
			"min":[
				-0.000420580618083477,
				0.01311342790722847,
				0.003122691996395588
			],
			"type":"VEC3"
		},
		{
			"bufferView":1,
			"componentType":5126,
			"count":4345,
			"type":"VEC3"
		},
		{
			"bufferView":2,
			"componentType":5126,
			"count":4345,
			"type":"VEC2"
		},
		{
			"bufferView":3,
			"componentType":5123,
			"count":25152,
			"type":"SCALAR"
		},
		{
			"bufferView":4,
			"componentType":5126,
			"count":24,
			"max":[
				-1.9073486328125e-06,
				2.499999523162842,
				4.76837158203125e-07
			],
			"min":[
				-0.17498397827148438,
				-4.76837158203125e-07,
				-2.619229316711426
			],
			"type":"VEC3"
		},
		{
			"bufferView":5,
			"componentType":5126,
			"count":24,
			"type":"VEC3"
		},
		{
			"bufferView":6,
			"componentType":5126,
			"count":24,
			"type":"VEC2"
		},
		{
			"bufferView":7,
			"componentType":5123,
			"count":36,
			"type":"SCALAR"
		},
		{
			"bufferView":8,
			"componentType":5126,
			"count":72,
			"max":[
				1.9073486328125e-06,
				2.5,
				0
			],
			"min":[
				-4.463077545166016,
				0,
				-0.17494535446166992
			],
			"type":"VEC3"
		},
		{
			"bufferView":9,
			"componentType":5126,
			"count":72,
			"type":"VEC3"
		},
		{
			"bufferView":10,
			"componentType":5126,
			"count":72,
			"type":"VEC2"
		},
		{
			"bufferView":11,
			"componentType":5123,
			"count":132,
			"type":"SCALAR"
		},
		{
			"bufferView":12,
			"componentType":5126,
			"count":48,
			"max":[
				1.9073486328125e-06,
				2.5,
				0
			],
			"min":[
				-5.794137001037598,
				0,
				-0.1749429702758789
			],
			"type":"VEC3"
		},
		{
			"bufferView":13,
			"componentType":5126,
			"count":48,
			"type":"VEC3"
		},
		{
			"bufferView":14,
			"componentType":5126,
			"count":48,
			"type":"VEC2"
		},
		{
			"bufferView":15,
			"componentType":5123,
			"count":84,
			"type":"SCALAR"
		},
		{
			"bufferView":16,
			"componentType":5126,
			"count":48,
			"max":[
				0.17498207092285156,
				2.5,
				7.017172813415527
			],
			"min":[
				0,
				0,
				0
			],
			"type":"VEC3"
		},
		{
			"bufferView":17,
			"componentType":5126,
			"count":48,
			"type":"VEC3"
		},
		{
			"bufferView":18,
			"componentType":5126,
			"count":48,
			"type":"VEC2"
		},
		{
			"bufferView":19,
			"componentType":5123,
			"count":84,
			"type":"SCALAR"
		},
		{
			"bufferView":20,
			"componentType":5126,
			"count":48,
			"max":[
				1.9073486328125e-06,
				2.5,
				0.17494487762451172
			],
			"min":[
				-2.528409957885742,
				0,
				0
			],
			"type":"VEC3"
		},
		{
			"bufferView":21,
			"componentType":5126,
			"count":48,
			"type":"VEC3"
		},
		{
			"bufferView":22,
			"componentType":5126,
			"count":48,
			"type":"VEC2"
		},
		{
			"bufferView":23,
			"componentType":5123,
			"count":84,
			"type":"SCALAR"
		},
		{
			"bufferView":24,
			"componentType":5126,
			"count":24,
			"max":[
				0.17498207092285156,
				2.5,
				2.618877410888672
			],
			"min":[
				0,
				0,
				0
			],
			"type":"VEC3"
		},
		{
			"bufferView":25,
			"componentType":5126,
			"count":24,
			"type":"VEC3"
		},
		{
			"bufferView":26,
			"componentType":5126,
			"count":24,
			"type":"VEC2"
		},
		{
			"bufferView":27,
			"componentType":5126,
			"count":120,
			"max":[
				0.3999999761581421,
				2.0199999809265137,
				0.9149999618530273
			],
			"min":[
				0,
				0,
				0
			],
			"type":"VEC3"
		},
		{
			"bufferView":28,
			"componentType":5126,
			"count":120,
			"type":"VEC3"
		},
		{
			"bufferView":29,
			"componentType":5126,
			"count":120,
			"type":"VEC2"
		},
		{
			"bufferView":30,
			"componentType":5123,
			"count":180,
			"type":"SCALAR"
		},
		{
			"bufferView":31,
			"componentType":5126,
			"count":24,
			"max":[
				0.17498207092285156,
				2.5,
				2.618877410888672
			],
			"min":[
				0,
				0,
				0
			],
			"type":"VEC3"
		},
		{
			"bufferView":32,
			"componentType":5126,
			"count":24,
			"type":"VEC3"
		},
		{
			"bufferView":33,
			"componentType":5126,
			"count":24,
			"type":"VEC2"
		},
		{
			"bufferView":34,
			"componentType":5126,
			"count":216,
			"max":[
				0.5999999642372131,
				1.7999999523162842,
				0.5999999642372131
			],
			"min":[
				0,
				0,
				0
			],
			"type":"VEC3"
		},
		{
			"bufferView":35,
			"componentType":5126,
			"count":216,
			"type":"VEC3"
		},
		{
			"bufferView":36,
			"componentType":5126,
			"count":216,
			"type":"VEC2"
		},
		{
			"bufferView":37,
			"componentType":5123,
			"count":324,
			"type":"SCALAR"
		},
		{
			"bufferView":38,
			"componentType":5126,
			"count":24,
			"max":[
				0.17498207092285156,
				2.5,
				2.618877410888672
			],
			"min":[
				0,
				0,
				0
			],
			"type":"VEC3"
		},
		{
			"bufferView":39,
			"componentType":5126,
			"count":24,
			"type":"VEC3"
		},
		{
			"bufferView":40,
			"componentType":5126,
			"count":24,
			"type":"VEC2"
		},
		{
			"bufferView":41,
			"componentType":5126,
			"count":120,
			"max":[
				0.3999999761581421,
				2.0199999809265137,
				0.9149999618530273
			],
			"min":[
				0,
				0,
				0
			],
			"type":"VEC3"
		},
		{
			"bufferView":42,
			"componentType":5126,
			"count":120,
			"type":"VEC3"
		},
		{
			"bufferView":43,
			"componentType":5126,
			"count":120,
			"type":"VEC2"
		},
		{
			"bufferView":44,
			"componentType":5126,
			"count":120,
			"max":[
				0.3999999761581421,
				2.0199999809265137,
				0.9149999618530273
			],
			"min":[
				0,
				0,
				0
			],
			"type":"VEC3"
		},
		{
			"bufferView":45,
			"componentType":5126,
			"count":120,
			"type":"VEC3"
		},
		{
			"bufferView":46,
			"componentType":5126,
			"count":120,
			"type":"VEC2"
		},
		{
			"bufferView":47,
			"componentType":5126,
			"count":408,
			"max":[
				0.010376717895269394,
				0.027658870443701744,
				0.05629074200987816
			],
			"min":[
				0.009470174089074135,
				0.01856796257197857,
				0.04992710426449776
			],
			"type":"VEC3"
		},
		{
			"bufferView":48,
			"componentType":5126,
			"count":408,
			"type":"VEC3"
		},
		{
			"bufferView":49,
			"componentType":5126,
			"count":408,
			"type":"VEC2"
		},
		{
			"bufferView":50,
			"componentType":5123,
			"count":1770,
			"type":"SCALAR"
		},
		{
			"bufferView":51,
			"componentType":5126,
			"count":1041,
			"max":[
				0.011777332052588463,
				0.02885556034743786,
				0.02459101192653179
			],
			"min":[
				0.009792755357921124,
				0.017371300607919693,
				0.022214418277144432
			],
			"type":"VEC3"
		},
		{
			"bufferView":52,
			"componentType":5126,
			"count":1041,
			"type":"VEC3"
		},
		{
			"bufferView":53,
			"componentType":5126,
			"count":1041,
			"type":"VEC2"
		},
		{
			"bufferView":54,
			"componentType":5123,
			"count":5952,
			"type":"SCALAR"
		},
		{
			"bufferView":55,
			"componentType":5126,
			"count":2637,
			"max":[
				0.03831106051802635,
				0.03311343118548393,
				0.0251445509493351
			],
			"min":[
				0.011776240542531013,
				0.01311342790722847,
				0.023921139538288116
			],
			"type":"VEC3"
		},
		{
			"bufferView":56,
			"componentType":5126,
			"count":2637,
			"type":"VEC3"
		},
		{
			"bufferView":57,
			"componentType":5126,
			"count":2637,
			"type":"VEC2"
		},
		{
			"bufferView":58,
			"componentType":5123,
			"count":14784,
			"type":"SCALAR"
		},
		{
			"bufferView":59,
			"componentType":5126,
			"count":690,
			"max":[
				0.011743694543838501,
				0.02666667103767395,
				0.02358078584074974
			],
			"min":[
				0.010054944083094597,
				0.019560188055038452,
				0.022506657987833023
			],
			"type":"VEC3"
		},
		{
			"bufferView":60,
			"componentType":5126,
			"count":690,
			"type":"VEC3"
		},
		{
			"bufferView":61,
			"componentType":5126,
			"count":690,
			"type":"VEC2"
		},
		{
			"bufferView":62,
			"componentType":5123,
			"count":4032,
			"type":"SCALAR"
		},
		{
			"bufferView":63,
			"componentType":5126,
			"count":1710,
			"max":[
				0.038307610899209976,
				0.03311343118548393,
				0.024115929380059242
			],
			"min":[
				0.011734528467059135,
				0.01311342790722847,
				0.022998236119747162
			],
			"type":"VEC3"
		},
		{
			"bufferView":64,
			"componentType":5126,
			"count":1710,
			"type":"VEC3"
		},
		{
			"bufferView":65,
			"componentType":5126,
			"count":1710,
			"type":"VEC2"
		},
		{
			"bufferView":66,
			"componentType":5123,
			"count":10176,
			"type":"SCALAR"
		},
		{
			"bufferView":67,
			"componentType":5126,
			"count":48,
			"max":[
				0.17498207092285156,
				2.5,
				4.080507755279541
			],
			"min":[
				0,
				0,
				0
			],
			"type":"VEC3"
		},
		{
			"bufferView":68,
			"componentType":5126,
			"count":48,
			"type":"VEC3"
		},
		{
			"bufferView":69,
			"componentType":5126,
			"count":48,
			"type":"VEC2"
		},
		{
			"bufferView":70,
			"componentType":5123,
			"count":84,
			"type":"SCALAR"
		},
		{
			"bufferView":71,
			"componentType":5126,
			"count":24,
			"max":[
				-1.9073486328125e-06,
				2.499999523162842,
				4.76837158203125e-07
			],
			"min":[
				-0.17498397827148438,
				-4.76837158203125e-07,
				-2.619229316711426
			],
			"type":"VEC3"
		},
		{
			"bufferView":72,
			"componentType":5126,
			"count":24,
			"type":"VEC3"
		},
		{
			"bufferView":73,
			"componentType":5126,
			"count":24,
			"type":"VEC2"
		},
		{
			"bufferView":74,
			"componentType":5126,
			"count":120,
			"max":[
				0.3999999761581421,
				2.0199999809265137,
				0.9149999618530273
			],
			"min":[
				0,
				0,
				0
			],
			"type":"VEC3"
		},
		{
			"bufferView":75,
			"componentType":5126,
			"count":120,
			"type":"VEC3"
		},
		{
			"bufferView":76,
			"componentType":5126,
			"count":120,
			"type":"VEC2"
		},
		{
			"bufferView":77,
			"componentType":5126,
			"count":24,
			"max":[
				-1.9073486328125e-06,
				2.499999523162842,
				4.76837158203125e-07
			],
			"min":[
				-0.17498397827148438,
				-4.76837158203125e-07,
				-2.619229316711426
			],
			"type":"VEC3"
		},
		{
			"bufferView":78,
			"componentType":5126,
			"count":24,
			"type":"VEC3"
		},
		{
			"bufferView":79,
			"componentType":5126,
			"count":24,
			"type":"VEC2"
		},
		{
			"bufferView":80,
			"componentType":5126,
			"count":24,
			"max":[
				9.5367431640625e-07,
				2.492506742477417,
				4.036418914794922
			],
			"min":[
				-0.619842529296875,
				0,
				0
			],
			"type":"VEC3"
		},
		{
			"bufferView":81,
			"componentType":5126,
			"count":24,
			"type":"VEC3"
		},
		{
			"bufferView":82,
			"componentType":5126,
			"count":24,
			"type":"VEC2"
		},
		{
			"bufferView":83,
			"componentType":5123,
			"count":36,
			"type":"SCALAR"
		},
		{
			"bufferView":84,
			"componentType":5126,
			"count":24,
			"max":[
				1.5998783111572266,
				0.44999998807907104,
				0
			],
			"min":[
				0,
				0,
				-1.9995160102844238
			],
			"type":"VEC3"
		},
		{
			"bufferView":85,
			"componentType":5126,
			"count":24,
			"type":"VEC3"
		},
		{
			"bufferView":86,
			"componentType":5126,
			"count":24,
			"type":"VEC2"
		},
		{
			"bufferView":87,
			"componentType":5123,
			"count":36,
			"type":"SCALAR"
		},
		{
			"bufferView":88,
			"componentType":5126,
			"count":240,
			"max":[
				0.20189666748046875,
				0.44999998807907104,
				0.2018566131591797
			],
			"min":[
				-0.2019023895263672,
				0,
				-0.20185613632202148
			],
			"type":"VEC3"
		},
		{
			"bufferView":89,
			"componentType":5126,
			"count":240,
			"type":"VEC3"
		},
		{
			"bufferView":90,
			"componentType":5126,
			"count":240,
			"type":"VEC2"
		},
		{
			"bufferView":91,
			"componentType":5123,
			"count":468,
			"type":"SCALAR"
		},
		{
			"bufferView":92,
			"componentType":5126,
			"count":440,
			"max":[
				0.17498207092285156,
				2.5,
				2.619229793548584
			],
			"min":[
				0,
				0,
				0
			],
			"type":"VEC3"
		},
		{
			"bufferView":93,
			"componentType":5126,
			"count":440,
			"type":"VEC3"
		},
		{
			"bufferView":94,
			"componentType":5126,
			"count":440,
			"type":"VEC2"
		},
		{
			"bufferView":95,
			"componentType":5123,
			"count":708,
			"type":"SCALAR"
		},
		{
			"bufferView":96,
			"componentType":5126,
			"count":5760,
			"max":[
				0.2998676300048828,
				2.5,
				2.999999761581421
			],
			"min":[
				0,
				0,
				0
			],
			"type":"VEC3"
		},
		{
			"bufferView":97,
			"componentType":5126,
			"count":5760,
			"type":"VEC3"
		},
		{
			"bufferView":98,
			"componentType":5126,
			"count":5760,
			"type":"VEC2"
		},
		{
			"bufferView":99,
			"componentType":5123,
			"count":11520,
			"type":"SCALAR"
		},
		{
			"bufferView":100,
			"componentType":5126,
			"count":192,
			"max":[
				1,
				2.000000476837158,
				1
			],
			"min":[
				-1,
				3.5762786865234375e-07,
				-1
			],
			"type":"VEC3"
		},
		{
			"bufferView":101,
			"componentType":5126,
			"count":192,
			"type":"VEC3"
		},
		{
			"bufferView":102,
			"componentType":5126,
			"count":192,
			"type":"VEC2"
		},
		{
			"bufferView":103,
			"componentType":5123,
			"count":372,
			"type":"SCALAR"
		},
		{
			"bufferView":104,
			"componentType":5126,
			"count":24,
			"max":[
				1.5998783111572266,
				0.44999998807907104,
				0
			],
			"min":[
				0,
				0,
				-1.9995160102844238
			],
			"type":"VEC3"
		},
		{
			"bufferView":105,
			"componentType":5126,
			"count":24,
			"type":"VEC3"
		},
		{
			"bufferView":106,
			"componentType":5126,
			"count":24,
			"type":"VEC2"
		},
		{
			"bufferView":107,
			"componentType":5126,
			"count":24,
			"max":[
				1.5998783111572266,
				0.44999998807907104,
				0
			],
			"min":[
				0,
				0,
				-1.9995160102844238
			],
			"type":"VEC3"
		},
		{
			"bufferView":108,
			"componentType":5126,
			"count":24,
			"type":"VEC3"
		},
		{
			"bufferView":109,
			"componentType":5126,
			"count":24,
			"type":"VEC2"
		},
		{
			"bufferView":110,
			"componentType":5126,
			"count":24,
			"max":[
				1.5998783111572266,
				0.44999998807907104,
				0
			],
			"min":[
				0,
				0,
				-1.9995160102844238
			],
			"type":"VEC3"
		},
		{
			"bufferView":111,
			"componentType":5126,
			"count":24,
			"type":"VEC3"
		},
		{
			"bufferView":112,
			"componentType":5126,
			"count":24,
			"type":"VEC2"
		},
		{
			"bufferView":113,
			"componentType":5126,
			"count":24,
			"max":[
				1.5998783111572266,
				0.44999998807907104,
				0
			],
			"min":[
				0,
				0,
				-1.9995160102844238
			],
			"type":"VEC3"
		},
		{
			"bufferView":114,
			"componentType":5126,
			"count":24,
			"type":"VEC3"
		},
		{
			"bufferView":115,
			"componentType":5126,
			"count":24,
			"type":"VEC2"
		},
		{
			"bufferView":116,
			"componentType":5126,
			"count":24,
			"max":[
				1.5998783111572266,
				0.44999998807907104,
				0
			],
			"min":[
				0,
				0,
				-1.9995160102844238
			],
			"type":"VEC3"
		},
		{
			"bufferView":117,
			"componentType":5126,
			"count":24,
			"type":"VEC3"
		},
		{
			"bufferView":118,
			"componentType":5126,
			"count":24,
			"type":"VEC2"
		},
		{
			"bufferView":119,
			"componentType":5126,
			"count":24,
			"max":[
				1.5998783111572266,
				0.44999998807907104,
				0
			],
			"min":[
				0,
				0,
				-1.9995160102844238
			],
			"type":"VEC3"
		},
		{
			"bufferView":120,
			"componentType":5126,
			"count":24,
			"type":"VEC3"
		},
		{
			"bufferView":121,
			"componentType":5126,
			"count":24,
			"type":"VEC2"
		},
		{
			"bufferView":122,
			"componentType":5126,
			"count":24,
			"max":[
				1.5998783111572266,
				0.44999998807907104,
				0
			],
			"min":[
				0,
				0,
				-1.9995160102844238
			],
			"type":"VEC3"
		},
		{
			"bufferView":123,
			"componentType":5126,
			"count":24,
			"type":"VEC3"
		},
		{
			"bufferView":124,
			"componentType":5126,
			"count":24,
			"type":"VEC2"
		},
		{
			"bufferView":125,
			"componentType":5126,
			"count":24,
			"max":[
				1.5998783111572266,
				0.44999998807907104,
				0
			],
			"min":[
				0,
				0,
				-1.9995160102844238
			],
			"type":"VEC3"
		},
		{
			"bufferView":126,
			"componentType":5126,
			"count":24,
			"type":"VEC3"
		},
		{
			"bufferView":127,
			"componentType":5126,
			"count":24,
			"type":"VEC2"
		},
		{
			"bufferView":128,
			"componentType":5126,
			"count":24,
			"max":[
				0.7500209808349609,
				0.75,
				0.022220611572265625
			],
			"min":[
				-0.7500190734863281,
				-0.75,
				-0.022220611572265625
			],
			"type":"VEC3"
		},
		{
			"bufferView":129,
			"componentType":5126,
			"count":24,
			"type":"VEC3"
		},
		{
			"bufferView":130,
			"componentType":5126,
			"count":24,
			"type":"VEC2"
		},
		{
			"bufferView":131,
			"componentType":5123,
			"count":36,
			"type":"SCALAR"
		},
		{
			"bufferView":132,
			"componentType":5126,
			"count":24,
			"max":[
				0.7500209808349609,
				0.75,
				0.022220611572265625
			],
			"min":[
				-0.7500190734863281,
				-0.75,
				-0.022220611572265625
			],
			"type":"VEC3"
		},
		{
			"bufferView":133,
			"componentType":5126,
			"count":24,
			"type":"VEC3"
		},
		{
			"bufferView":134,
			"componentType":5126,
			"count":24,
			"type":"VEC2"
		},
		{
			"bufferView":135,
			"componentType":5126,
			"count":24,
			"max":[
				0.7500209808349609,
				0.75,
				0.022220611572265625
			],
			"min":[
				-0.7500190734863281,
				-0.75,
				-0.022220611572265625
			],
			"type":"VEC3"
		},
		{
			"bufferView":136,
			"componentType":5126,
			"count":24,
			"type":"VEC3"
		},
		{
			"bufferView":137,
			"componentType":5126,
			"count":24,
			"type":"VEC2"
		},
		{
			"bufferView":138,
			"componentType":5126,
			"count":24,
			"max":[
				0.7500209808349609,
				0.75,
				0.022220611572265625
			],
			"min":[
				-0.7500190734863281,
				-0.75,
				-0.022220611572265625
			],
			"type":"VEC3"
		},
		{
			"bufferView":139,
			"componentType":5126,
			"count":24,
			"type":"VEC3"
		},
		{
			"bufferView":140,
			"componentType":5126,
			"count":24,
			"type":"VEC2"
		},
		{
			"bufferView":141,
			"componentType":5126,
			"count":24,
			"max":[
				0.7500209808349609,
				0.75,
				0.022220611572265625
			],
			"min":[
				-0.7500190734863281,
				-0.75,
				-0.022220611572265625
			],
			"type":"VEC3"
		},
		{
			"bufferView":142,
			"componentType":5126,
			"count":24,
			"type":"VEC3"
		},
		{
			"bufferView":143,
			"componentType":5126,
			"count":24,
			"type":"VEC2"
		}
	],
	"bufferViews":[
		{
			"buffer":0,
			"byteLength":52140,
			"byteOffset":0,
			"target":34962
		},
		{
			"buffer":0,
			"byteLength":52140,
			"byteOffset":52140,
			"target":34962
		},
		{
			"buffer":0,
			"byteLength":34760,
			"byteOffset":104280,
			"target":34962
		},
		{
			"buffer":0,
			"byteLength":50304,
			"byteOffset":139040,
			"target":34963
		},
		{
			"buffer":0,
			"byteLength":288,
			"byteOffset":189344,
			"target":34962
		},
		{
			"buffer":0,
			"byteLength":288,
			"byteOffset":189632,
			"target":34962
		},
		{
			"buffer":0,
			"byteLength":192,
			"byteOffset":189920,
			"target":34962
		},
		{
			"buffer":0,
			"byteLength":72,
			"byteOffset":190112,
			"target":34963
		},
		{
			"buffer":0,
			"byteLength":864,
			"byteOffset":190184,
			"target":34962
		},
		{
			"buffer":0,
			"byteLength":864,
			"byteOffset":191048,
			"target":34962
		},
		{
			"buffer":0,
			"byteLength":576,
			"byteOffset":191912,
			"target":34962
		},
		{
			"buffer":0,
			"byteLength":264,
			"byteOffset":192488,
			"target":34963
		},
		{
			"buffer":0,
			"byteLength":576,
			"byteOffset":192752,
			"target":34962
		},
		{
			"buffer":0,
			"byteLength":576,
			"byteOffset":193328,
			"target":34962
		},
		{
			"buffer":0,
			"byteLength":384,
			"byteOffset":193904,
			"target":34962
		},
		{
			"buffer":0,
			"byteLength":168,
			"byteOffset":194288,
			"target":34963
		},
		{
			"buffer":0,
			"byteLength":576,
			"byteOffset":194456,
			"target":34962
		},
		{
			"buffer":0,
			"byteLength":576,
			"byteOffset":195032,
			"target":34962
		},
		{
			"buffer":0,
			"byteLength":384,
			"byteOffset":195608,
			"target":34962
		},
		{
			"buffer":0,
			"byteLength":168,
			"byteOffset":195992,
			"target":34963
		},
		{
			"buffer":0,
			"byteLength":576,
			"byteOffset":196160,
			"target":34962
		},
		{
			"buffer":0,
			"byteLength":576,
			"byteOffset":196736,
			"target":34962
		},
		{
			"buffer":0,
			"byteLength":384,
			"byteOffset":197312,
			"target":34962
		},
		{
			"buffer":0,
			"byteLength":168,
			"byteOffset":197696,
			"target":34963
		},
		{
			"buffer":0,
			"byteLength":288,
			"byteOffset":197864,
			"target":34962
		},
		{
			"buffer":0,
			"byteLength":288,
			"byteOffset":198152,
			"target":34962
		},
		{
			"buffer":0,
			"byteLength":192,
			"byteOffset":198440,
			"target":34962
		},
		{
			"buffer":0,
			"byteLength":1440,
			"byteOffset":198632,
			"target":34962
		},
		{
			"buffer":0,
			"byteLength":1440,
			"byteOffset":200072,
			"target":34962
		},
		{
			"buffer":0,
			"byteLength":960,
			"byteOffset":201512,
			"target":34962
		},
		{
			"buffer":0,
			"byteLength":360,
			"byteOffset":202472,
			"target":34963
		},
		{
			"buffer":0,
			"byteLength":288,
			"byteOffset":202832,
			"target":34962
		},
		{
			"buffer":0,
			"byteLength":288,
			"byteOffset":203120,
			"target":34962
		},
		{
			"buffer":0,
			"byteLength":192,
			"byteOffset":203408,
			"target":34962
		},
		{
			"buffer":0,
			"byteLength":2592,
			"byteOffset":203600,
			"target":34962
		},
		{
			"buffer":0,
			"byteLength":2592,
			"byteOffset":206192,
			"target":34962
		},
		{
			"buffer":0,
			"byteLength":1728,
			"byteOffset":208784,
			"target":34962
		},
		{
			"buffer":0,
			"byteLength":648,
			"byteOffset":210512,
			"target":34963
		},
		{
			"buffer":0,
			"byteLength":288,
			"byteOffset":211160,
			"target":34962
		},
		{
			"buffer":0,
			"byteLength":288,
			"byteOffset":211448,
			"target":34962
		},
		{
			"buffer":0,
			"byteLength":192,
			"byteOffset":211736,
			"target":34962
		},
		{
			"buffer":0,
			"byteLength":1440,
			"byteOffset":211928,
			"target":34962
		},
		{
			"buffer":0,
			"byteLength":1440,
			"byteOffset":213368,
			"target":34962
		},
		{
			"buffer":0,
			"byteLength":960,
			"byteOffset":214808,
			"target":34962
		},
		{
			"buffer":0,
			"byteLength":1440,
			"byteOffset":215768,
			"target":34962
		},
		{
			"buffer":0,
			"byteLength":1440,
			"byteOffset":217208,
			"target":34962
		},
		{
			"buffer":0,
			"byteLength":960,
			"byteOffset":218648,
			"target":34962
		},
		{
			"buffer":0,
			"byteLength":4896,
			"byteOffset":219608,
			"target":34962
		},
		{
			"buffer":0,
			"byteLength":4896,
			"byteOffset":224504,
			"target":34962
		},
		{
			"buffer":0,
			"byteLength":3264,
			"byteOffset":229400,
			"target":34962
		},
		{
			"buffer":0,
			"byteLength":3540,
			"byteOffset":232664,
			"target":34963
		},
		{
			"buffer":0,
			"byteLength":12492,
			"byteOffset":236204,
			"target":34962
		},
		{
			"buffer":0,
			"byteLength":12492,
			"byteOffset":248696,
			"target":34962
		},
		{
			"buffer":0,
			"byteLength":8328,
			"byteOffset":261188,
			"target":34962
		},
		{
			"buffer":0,
			"byteLength":11904,
			"byteOffset":269516,
			"target":34963
		},
		{
			"buffer":0,
			"byteLength":31644,
			"byteOffset":281420,
			"target":34962
		},
		{
			"buffer":0,
			"byteLength":31644,
			"byteOffset":313064,
			"target":34962
		},
		{
			"buffer":0,
			"byteLength":21096,
			"byteOffset":344708,
			"target":34962
		},
		{
			"buffer":0,
			"byteLength":29568,
			"byteOffset":365804,
			"target":34963
		},
		{
			"buffer":0,
			"byteLength":8280,
			"byteOffset":395372,
			"target":34962
		},
		{
			"buffer":0,
			"byteLength":8280,
			"byteOffset":403652,
			"target":34962
		},
		{
			"buffer":0,
			"byteLength":5520,
			"byteOffset":411932,
			"target":34962
		},
		{
			"buffer":0,
			"byteLength":8064,
			"byteOffset":417452,
			"target":34963
		},
		{
			"buffer":0,
			"byteLength":20520,
			"byteOffset":425516,
			"target":34962
		},
		{
			"buffer":0,
			"byteLength":20520,
			"byteOffset":446036,
			"target":34962
		},
		{
			"buffer":0,
			"byteLength":13680,
			"byteOffset":466556,
			"target":34962
		},
		{
			"buffer":0,
			"byteLength":20352,
			"byteOffset":480236,
			"target":34963
		},
		{
			"buffer":0,
			"byteLength":576,
			"byteOffset":500588,
			"target":34962
		},
		{
			"buffer":0,
			"byteLength":576,
			"byteOffset":501164,
			"target":34962
		},
		{
			"buffer":0,
			"byteLength":384,
			"byteOffset":501740,
			"target":34962
		},
		{
			"buffer":0,
			"byteLength":168,
			"byteOffset":502124,
			"target":34963
		},
		{
			"buffer":0,
			"byteLength":288,
			"byteOffset":502292,
			"target":34962
		},
		{
			"buffer":0,
			"byteLength":288,
			"byteOffset":502580,
			"target":34962
		},
		{
			"buffer":0,
			"byteLength":192,
			"byteOffset":502868,
			"target":34962
		},
		{
			"buffer":0,
			"byteLength":1440,
			"byteOffset":503060,
			"target":34962
		},
		{
			"buffer":0,
			"byteLength":1440,
			"byteOffset":504500,
			"target":34962
		},
		{
			"buffer":0,
			"byteLength":960,
			"byteOffset":505940,
			"target":34962
		},
		{
			"buffer":0,
			"byteLength":288,
			"byteOffset":506900,
			"target":34962
		},
		{
			"buffer":0,
			"byteLength":288,
			"byteOffset":507188,
			"target":34962
		},
		{
			"buffer":0,
			"byteLength":192,
			"byteOffset":507476,
			"target":34962
		},
		{
			"buffer":0,
			"byteLength":288,
			"byteOffset":507668,
			"target":34962
		},
		{
			"buffer":0,
			"byteLength":288,
			"byteOffset":507956,
			"target":34962
		},
		{
			"buffer":0,
			"byteLength":192,
			"byteOffset":508244,
			"target":34962
		},
		{
			"buffer":0,
			"byteLength":72,
			"byteOffset":508436,
			"target":34963
		},
		{
			"buffer":0,
			"byteLength":288,
			"byteOffset":508508,
			"target":34962
		},
		{
			"buffer":0,
			"byteLength":288,
			"byteOffset":508796,
			"target":34962
		},
		{
			"buffer":0,
			"byteLength":192,
			"byteOffset":509084,
			"target":34962
		},
		{
			"buffer":0,
			"byteLength":72,
			"byteOffset":509276,
			"target":34963
		},
		{
			"buffer":0,
			"byteLength":2880,
			"byteOffset":509348,
			"target":34962
		},
		{
			"buffer":0,
			"byteLength":2880,
			"byteOffset":512228,
			"target":34962
		},
		{
			"buffer":0,
			"byteLength":1920,
			"byteOffset":515108,
			"target":34962
		},
		{
			"buffer":0,
			"byteLength":936,
			"byteOffset":517028,
			"target":34963
		},
		{
			"buffer":0,
			"byteLength":5280,
			"byteOffset":517964,
			"target":34962
		},
		{
			"buffer":0,
			"byteLength":5280,
			"byteOffset":523244,
			"target":34962
		},
		{
			"buffer":0,
			"byteLength":3520,
			"byteOffset":528524,
			"target":34962
		},
		{
			"buffer":0,
			"byteLength":1416,
			"byteOffset":532044,
			"target":34963
		},
		{
			"buffer":0,
			"byteLength":69120,
			"byteOffset":533460,
			"target":34962
		},
		{
			"buffer":0,
			"byteLength":69120,
			"byteOffset":602580,
			"target":34962
		},
		{
			"buffer":0,
			"byteLength":46080,
			"byteOffset":671700,
			"target":34962
		},
		{
			"buffer":0,
			"byteLength":23040,
			"byteOffset":717780,
			"target":34963
		},
		{
			"buffer":0,
			"byteLength":2304,
			"byteOffset":740820,
			"target":34962
		},
		{
			"buffer":0,
			"byteLength":2304,
			"byteOffset":743124,
			"target":34962
		},
		{
			"buffer":0,
			"byteLength":1536,
			"byteOffset":745428,
			"target":34962
		},
		{
			"buffer":0,
			"byteLength":744,
			"byteOffset":746964,
			"target":34963
		},
		{
			"buffer":0,
			"byteLength":288,
			"byteOffset":747708,
			"target":34962
		},
		{
			"buffer":0,
			"byteLength":288,
			"byteOffset":747996,
			"target":34962
		},
		{
			"buffer":0,
			"byteLength":192,
			"byteOffset":748284,
			"target":34962
		},
		{
			"buffer":0,
			"byteLength":288,
			"byteOffset":748476,
			"target":34962
		},
		{
			"buffer":0,
			"byteLength":288,
			"byteOffset":748764,
			"target":34962
		},
		{
			"buffer":0,
			"byteLength":192,
			"byteOffset":749052,
			"target":34962
		},
		{
			"buffer":0,
			"byteLength":288,
			"byteOffset":749244,
			"target":34962
		},
		{
			"buffer":0,
			"byteLength":288,
			"byteOffset":749532,
			"target":34962
		},
		{
			"buffer":0,
			"byteLength":192,
			"byteOffset":749820,
			"target":34962
		},
		{
			"buffer":0,
			"byteLength":288,
			"byteOffset":750012,
			"target":34962
		},
		{
			"buffer":0,
			"byteLength":288,
			"byteOffset":750300,
			"target":34962
		},
		{
			"buffer":0,
			"byteLength":192,
			"byteOffset":750588,
			"target":34962
		},
		{
			"buffer":0,
			"byteLength":288,
			"byteOffset":750780,
			"target":34962
		},
		{
			"buffer":0,
			"byteLength":288,
			"byteOffset":751068,
			"target":34962
		},
		{
			"buffer":0,
			"byteLength":192,
			"byteOffset":751356,
			"target":34962
		},
		{
			"buffer":0,
			"byteLength":288,
			"byteOffset":751548,
			"target":34962
		},
		{
			"buffer":0,
			"byteLength":288,
			"byteOffset":751836,
			"target":34962
		},
		{
			"buffer":0,
			"byteLength":192,
			"byteOffset":752124,
			"target":34962
		},
		{
			"buffer":0,
			"byteLength":288,
			"byteOffset":752316,
			"target":34962
		},
		{
			"buffer":0,
			"byteLength":288,
			"byteOffset":752604,
			"target":34962
		},
		{
			"buffer":0,
			"byteLength":192,
			"byteOffset":752892,
			"target":34962
		},
		{
			"buffer":0,
			"byteLength":288,
			"byteOffset":753084,
			"target":34962
		},
		{
			"buffer":0,
			"byteLength":288,
			"byteOffset":753372,
			"target":34962
		},
		{
			"buffer":0,
			"byteLength":192,
			"byteOffset":753660,
			"target":34962
		},
		{
			"buffer":0,
			"byteLength":288,
			"byteOffset":753852,
			"target":34962
		},
		{
			"buffer":0,
			"byteLength":288,
			"byteOffset":754140,
			"target":34962
		},
		{
			"buffer":0,
			"byteLength":192,
			"byteOffset":754428,
			"target":34962
		},
		{
			"buffer":0,
			"byteLength":72,
			"byteOffset":754620,
			"target":34963
		},
		{
			"buffer":0,
			"byteLength":288,
			"byteOffset":754692,
			"target":34962
		},
		{
			"buffer":0,
			"byteLength":288,
			"byteOffset":754980,
			"target":34962
		},
		{
			"buffer":0,
			"byteLength":192,
			"byteOffset":755268,
			"target":34962
		},
		{
			"buffer":0,
			"byteLength":288,
			"byteOffset":755460,
			"target":34962
		},
		{
			"buffer":0,
			"byteLength":288,
			"byteOffset":755748,
			"target":34962
		},
		{
			"buffer":0,
			"byteLength":192,
			"byteOffset":756036,
			"target":34962
		},
		{
			"buffer":0,
			"byteLength":288,
			"byteOffset":756228,
			"target":34962
		},
		{
			"buffer":0,
			"byteLength":288,
			"byteOffset":756516,
			"target":34962
		},
		{
			"buffer":0,
			"byteLength":192,
			"byteOffset":756804,
			"target":34962
		},
		{
			"buffer":0,
			"byteLength":288,
			"byteOffset":756996,
			"target":34962
		},
		{
			"buffer":0,
			"byteLength":288,
			"byteOffset":757284,
			"target":34962
		},
		{
			"buffer":0,
			"byteLength":192,
			"byteOffset":757572,
			"target":34962
		}
	],
	"samplers":[
		{
			"magFilter":9729,
			"minFilter":9987
		}
	],
	"buffers":[
		{
			"byteLength":757764,
			"uri":"UG_3D.002.bin"
		}
	]
}
