{
	"asset":{
		"generator":"Khronos glTF Blender I/O v5.1.18",
		"version":"2.0"
	},
	"extensionsUsed":[
		"KHR_materials_specular",
		"KHR_materials_ior"
	],
	"scene":0,
	"scenes":[
		{
			"name":"Scene",
			"nodes":[
				0,
				1,
				2
			]
		}
	],
	"nodes":[
		{
			"mesh":0,
			"name":"Material_Tile-142-63-1-1_1.001",
			"rotation":[
				0,
				0.02548680640757084,
				0,
				0.9996751546859741
			],
			"translation":[
				29.883228302001953,
				-0.31449586153030396,
				-1.2732625007629395
			]
		},
		{
			"mesh":1,
			"name":"Cube.270",
			"scale":[
				5,
				3.5,
				5
			],
			"translation":[
				25,
				-0.5249999761581421,
				-24
			]
		},
		{
			"mesh":2,
			"name":"Cube.271",
			"scale":[
				1.9086451530456543,
				1.2284804582595825,
				1.2218149900436401
			],
			"translation":[
				25.02452850341797,
				-0.5249999761581421,
				-20.29638671875
			]
		}
	],
	"materials":[
		{
			"doubleSided":true,
			"name":"Material_Tile-142-63-1-1_1",
			"pbrMetallicRoughness":{
				"baseColorTexture":{
					"index":0
				},
				"metallicFactor":0
			}
		},
		{
			"doubleSided":true,
			"extensions":{
				"KHR_materials_specular":{
					"specularFactor":0
				},
				"KHR_materials_ior":{
					"ior":1
				}
			},
			"name":"Material_Tile-142-63-1-1_0",
			"pbrMetallicRoughness":{
				"baseColorTexture":{
					"index":1
				},
				"metallicFactor":0
			}
		}
	],
	"meshes":[
		{
			"name":"Mesh.060",
			"primitives":[
				{
					"attributes":{
						"POSITION":0,
						"NORMAL":1,
						"TEXCOORD_0":2
					},
					"indices":3,
					"material":0
				},
				{
					"attributes":{
						"POSITION":4,
						"NORMAL":5,
						"TEXCOORD_0":6
					},
					"indices":7,
					"material":1
				}
			]
		},
		{
			"name":"Cube.438",
			"primitives":[
				{
					"attributes":{
						"POSITION":8,
						"NORMAL":9,
						"TEXCOORD_0":10
					},
					"indices":11
				}
			]
		},
		{
			"name":"Cube.442",
			"primitives":[
				{
					"attributes":{
						"POSITION":12,
						"NORMAL":13,
						"TEXCOORD_0":14
					},
					"indices":11
				}
			]
		}
	],
	"textures":[
		{
			"sampler":0,
			"source":0
		},
		{
			"sampler":0,
			"source":1
		}
	],
	"images":[
		{
			"mimeType":"image/jpeg",
			"name":"Tile-142-63-1-1_00001_Diffuse",
			"uri":"Tile-142-63-1-1_00001_Diffuse.jpg"
		},
		{
			"mimeType":"image/jpeg",
			"name":"Tile-142-63-1-1_00000_Diffuse",
			"uri":"Tile-142-63-1-1_00000_Diffuse.jpg"
		}
	],
	"accessors":[
		{
			"bufferView":0,
			"componentType":5126,
			"count":10605,
			"max":[
				5.917216777801514,
				16.324174880981445,
				10.621638298034668
			],
			"min":[
				-62.08936309814453,
				-1.1558656692504883,
				-63.382442474365234
			],
			"type":"VEC3"
		},
		{
			"bufferView":1,
			"componentType":5126,
			"count":10605,
			"type":"VEC3"
		},
		{
			"bufferView":2,
			"componentType":5126,
			"count":10605,
			"type":"VEC2"
		},
		{
			"bufferView":3,
			"componentType":5123,
			"count":21882,
			"type":"SCALAR"
		},
		{
			"bufferView":4,
			"componentType":5126,
			"count":77725,
			"max":[
				46.44578170776367,
				19.28835678100586,
				56.169132232666016
			],
			"min":[
				-64.60897064208984,
				-1.0742895603179932,
				-65.3824462890625
			],
			"type":"VEC3"
		},
		{
			"bufferView":5,
			"componentType":5126,
			"count":77725,
			"type":"VEC3"
		},
		{
			"bufferView":6,
			"componentType":5126,
			"count":77725,
			"type":"VEC2"
		},
		{
			"bufferView":7,
			"componentType":5125,
			"count":153855,
			"type":"SCALAR"
		},
		{
			"bufferView":8,
			"componentType":5126,
			"count":34,
			"max":[
				0,
				2.889524221420288,
				0
			],
			"min":[
				-2,
				0,
				-2
			],
			"type":"VEC3"
		},
		{
			"bufferView":9,
			"componentType":5126,
			"count":34,
			"type":"VEC3"
		},
		{
			"bufferView":10,
			"componentType":5126,
			"count":34,
			"type":"VEC2"
		},
		{
			"bufferView":11,
			"componentType":5123,
			"count":48,
			"type":"SCALAR"
		},
		{
			"bufferView":12,
			"componentType":5126,
			"count":34,
			"max":[
				0,
				2.189992666244507,
				0
			],
			"min":[
				-2,
				0,
				-2
			],
			"type":"VEC3"
		},
		{
			"bufferView":13,
			"componentType":5126,
			"count":34,
			"type":"VEC3"
		},
		{
			"bufferView":14,
			"componentType":5126,
			"count":34,
			"type":"VEC2"
		}
	],
	"bufferViews":[
		{
			"buffer":0,
			"byteLength":127260,
			"byteOffset":0,
			"target":34962
		},
		{
			"buffer":0,
			"byteLength":127260,
			"byteOffset":127260,
			"target":34962
		},
		{
			"buffer":0,
			"byteLength":84840,
			"byteOffset":254520,
			"target":34962
		},
		{
			"buffer":0,
			"byteLength":43764,
			"byteOffset":339360,
			"target":34963
		},
		{
			"buffer":0,
			"byteLength":932700,
			"byteOffset":383124,
			"target":34962
		},
		{
			"buffer":0,
			"byteLength":932700,
			"byteOffset":1315824,
			"target":34962
		},
		{
			"buffer":0,
			"byteLength":621800,
			"byteOffset":2248524,
			"target":34962
		},
		{
			"buffer":0,
			"byteLength":615420,
			"byteOffset":2870324,
			"target":34963
		},
		{
			"buffer":0,
			"byteLength":408,
			"byteOffset":3485744,
			"target":34962
		},
		{
			"buffer":0,
			"byteLength":408,
			"byteOffset":3486152,
			"target":34962
		},
		{
			"buffer":0,
			"byteLength":272,
			"byteOffset":3486560,
			"target":34962
		},
		{
			"buffer":0,
			"byteLength":96,
			"byteOffset":3486832,
			"target":34963
		},
		{
			"buffer":0,
			"byteLength":408,
			"byteOffset":3486928,
			"target":34962
		},
		{
			"buffer":0,
			"byteLength":408,
			"byteOffset":3487336,
			"target":34962
		},
		{
			"buffer":0,
			"byteLength":272,
			"byteOffset":3487744,
			"target":34962
		}
	],
	"samplers":[
		{
			"magFilter":9729,
			"minFilter":9987
		}
	],
	"buffers":[
		{
			"byteLength":3488016,
			"uri":"Umgebung.bin"
		}
	]
}
