{
	"asset":{
		"generator":"Khronos glTF Blender I/O v5.1.18",
		"version":"2.0"
	},
	"scene":0,
	"scenes":[
		{
			"name":"Scene",
			"nodes":[
				0,
				1,
				2,
				3
			]
		}
	],
	"nodes":[
		{
			"mesh":0,
			"name":"Dach.Ziegel.004",
			"scale":[
				1,
				1,
				6.099998950958252
			],
			"translation":[
				15.885087013244629,
				5.999999523162842,
				-4.900000095367432
			]
		},
		{
			"mesh":1,
			"name":"Dach.Ziegel.005",
			"rotation":[
				0,
				0,
				-0.015156978741288185,
				0.9998851418495178
			],
			"scale":[
				1,
				1,
				6.099998950958252
			],
			"translation":[
				22.0402889251709,
				8.250807762145996,
				-4.998967170715332
			]
		},
		{
			"mesh":2,
			"name":"Unterdecke.001",
			"scale":[
				1,
				1,
				5.999999523162842
			],
			"translation":[
				15.885087013244629,
				5.804820537567139,
				-4.998967170715332
			]
		},
		{
			"mesh":3,
			"name":"UnterDecke.001",
			"scale":[
				1,
				1,
				5.999999523162842
			],
			"translation":[
				15.885087013244629,
				5.94871187210083,
				-4.998967170715332
			]
		}
	],
	"materials":[
		{
			"doubleSided":true,
			"name":"Dach.002",
			"pbrMetallicRoughness":{
				"baseColorFactor":[
					0.010100176557898521,
					0.010100176557898521,
					0.010100176557898521,
					1
				],
				"metallicFactor":0,
				"roughnessFactor":0.8114285469055176
			}
		},
		{
			"doubleSided":true,
			"name":"Dach.003",
			"pbrMetallicRoughness":{
				"baseColorFactor":[
					0.010100176557898521,
					0.010100176557898521,
					0.010100176557898521,
					1
				],
				"metallicFactor":0
			}
		},
		{
			"doubleSided":true,
			"name":"AussenPutz",
			"pbrMetallicRoughness":{
				"baseColorFactor":[
					0.7766516208648682,
					0.7766516208648682,
					0.7766516208648682,
					1
				],
				"metallicFactor":0
			}
		}
	],
	"meshes":[
		{
			"name":"Cube.235",
			"primitives":[
				{
					"attributes":{
						"POSITION":0,
						"NORMAL":1,
						"TEXCOORD_0":2
					},
					"indices":3,
					"material":0
				}
			]
		},
		{
			"name":"Cube.236",
			"primitives":[
				{
					"attributes":{
						"POSITION":4,
						"NORMAL":5,
						"TEXCOORD_0":6
					},
					"indices":7,
					"material":1
				}
			]
		},
		{
			"name":"Cube.237",
			"primitives":[
				{
					"attributes":{
						"POSITION":8,
						"NORMAL":9,
						"TEXCOORD_0":10
					},
					"indices":11,
					"material":2
				}
			]
		},
		{
			"name":"Cube.238",
			"primitives":[
				{
					"attributes":{
						"POSITION":12,
						"NORMAL":13,
						"TEXCOORD_0":14
					},
					"indices":15,
					"material":2
				}
			]
		}
	],
	"accessors":[
		{
			"bufferView":0,
			"componentType":5126,
			"count":132,
			"max":[
				10.036792755126953,
				2.658022165298462,
				2.3129649103626136e-17
			],
			"min":[
				6.120445728302002,
				7.450580596923828e-09,
				-2.000000238418579
			],
			"type":"VEC3"
		},
		{
			"bufferView":1,
			"componentType":5126,
			"count":132,
			"type":"VEC3"
		},
		{
			"bufferView":2,
			"componentType":5126,
			"count":132,
			"type":"VEC2"
		},
		{
			"bufferView":3,
			"componentType":5123,
			"count":312,
			"type":"SCALAR"
		},
		{
			"bufferView":4,
			"componentType":5126,
			"count":142,
			"max":[
				4.76837158203125e-07,
				0.40597182512283325,
				0.016307130455970764
			],
			"min":[
				-6.615180015563965,
				-2.484769821166992,
				-1.9837760925292969
			],
			"type":"VEC3"
		},
		{
			"bufferView":5,
			"componentType":5126,
			"count":142,
			"type":"VEC3"
		},
		{
			"bufferView":6,
			"componentType":5126,
			"count":142,
			"type":"VEC2"
		},
		{
			"bufferView":7,
			"componentType":5123,
			"count":324,
			"type":"SCALAR"
		},
		{
			"bufferView":8,
			"componentType":5126,
			"count":128,
			"max":[
				9.894580841064453,
				2.457479953765869,
				-0.044074952602386475
			],
			"min":[
				5.953271389007568,
				0.04339572414755821,
				-1.9559252262115479
			],
			"type":"VEC3"
		},
		{
			"bufferView":9,
			"componentType":5126,
			"count":128,
			"type":"VEC3"
		},
		{
			"bufferView":10,
			"componentType":5126,
			"count":128,
			"type":"VEC2"
		},
		{
			"bufferView":11,
			"componentType":5123,
			"count":300,
			"type":"SCALAR"
		},
		{
			"bufferView":12,
			"componentType":5126,
			"count":140,
			"max":[
				6.1552042961120605,
				2.344728708267212,
				-0.044074952602386475
			],
			"min":[
				-0.03434348106384277,
				0,
				-1.9559252262115479
			],
			"type":"VEC3"
		},
		{
			"bufferView":13,
			"componentType":5126,
			"count":140,
			"type":"VEC3"
		},
		{
			"bufferView":14,
			"componentType":5126,
			"count":140,
			"type":"VEC2"
		},
		{
			"bufferView":15,
			"componentType":5123,
			"count":336,
			"type":"SCALAR"
		}
	],
	"bufferViews":[
		{
			"buffer":0,
			"byteLength":1584,
			"byteOffset":0,
			"target":34962
		},
		{
			"buffer":0,
			"byteLength":1584,
			"byteOffset":1584,
			"target":34962
		},
		{
			"buffer":0,
			"byteLength":1056,
			"byteOffset":3168,
			"target":34962
		},
		{
			"buffer":0,
			"byteLength":624,
			"byteOffset":4224,
			"target":34963
		},
		{
			"buffer":0,
			"byteLength":1704,
			"byteOffset":4848,
			"target":34962
		},
		{
			"buffer":0,
			"byteLength":1704,
			"byteOffset":6552,
			"target":34962
		},
		{
			"buffer":0,
			"byteLength":1136,
			"byteOffset":8256,
			"target":34962
		},
		{
			"buffer":0,
			"byteLength":648,
			"byteOffset":9392,
			"target":34963
		},
		{
			"buffer":0,
			"byteLength":1536,
			"byteOffset":10040,
			"target":34962
		},
		{
			"buffer":0,
			"byteLength":1536,
			"byteOffset":11576,
			"target":34962
		},
		{
			"buffer":0,
			"byteLength":1024,
			"byteOffset":13112,
			"target":34962
		},
		{
			"buffer":0,
			"byteLength":600,
			"byteOffset":14136,
			"target":34963
		},
		{
			"buffer":0,
			"byteLength":1680,
			"byteOffset":14736,
			"target":34962
		},
		{
			"buffer":0,
			"byteLength":1680,
			"byteOffset":16416,
			"target":34962
		},
		{
			"buffer":0,
			"byteLength":1120,
			"byteOffset":18096,
			"target":34962
		},
		{
			"buffer":0,
			"byteLength":672,
			"byteOffset":19216,
			"target":34963
		}
	],
	"buffers":[
		{
			"byteLength":19888,
			"uri":"Dach_Aussen.bin"
		}
	]
}
