{
	"asset":{
		"generator":"Khronos glTF Blender I/O v5.1.18",
		"version":"2.0"
	},
	"extensionsUsed":[
		"KHR_materials_specular",
		"KHR_texture_transform"
	],
	"extensionsRequired":[
		"KHR_texture_transform"
	],
	"scene":0,
	"scenes":[
		{
			"name":"Scene",
			"nodes":[
				0,
				1,
				2,
				3,
				4,
				5,
				6,
				7
			]
		}
	],
	"nodes":[
		{
			"mesh":0,
			"name":"KinderTreppe.001",
			"translation":[
				18.59310531616211,
				3.1599998474121094,
				-5.2524213790893555
			]
		},
		{
			"mesh":1,
			"name":"Curve.065",
			"rotation":[
				0,
				-0.7071068286895752,
				0,
				0.7071068286895752
			],
			"scale":[
				125.0001220703125,
				31.046428680419922,
				157.0117950439453
			],
			"translation":[
				21.870084762573242,
				5.909999847412109,
				-7.489048004150391
			]
		},
		{
			"mesh":2,
			"name":"Curve.066",
			"translation":[
				20.67008399963379,
				5.809999465942383,
				-6.114022254943848
			]
		},
		{
			"mesh":3,
			"name":"Curve.067",
			"rotation":[
				0,
				0.7071068286895752,
				0,
				0.7071068286895752
			],
			"scale":[
				212.506591796875,
				54.33125305175781,
				11.215128898620605
			],
			"translation":[
				19.970083236694336,
				5.909999847412109,
				-9.514021873474121
			]
		},
		{
			"mesh":4,
			"name":"Curve.068",
			"rotation":[
				0,
				-1,
				0,
				4.371138828673793e-08
			],
			"scale":[
				43.75135803222656,
				54.33125305175781,
				11.215128898620605
			],
			"translation":[
				20.070083618164062,
				5.909999370574951,
				-6.114022731781006
			]
		},
		{
			"mesh":5,
			"name":"Curve.069",
			"translation":[
				21.870084762573242,
				5.809999465942383,
				-5.364022254943848
			]
		},
		{
			"mesh":6,
			"name":"Curve.070",
			"rotation":[
				0,
				0.7071068286895752,
				0,
				0.7071068286895752
			],
			"scale":[
				169.92616271972656,
				83.615966796875,
				11.215128898620605
			],
			"translation":[
				24.10564422607422,
				5.909999847412109,
				-7.97052001953125
			]
		},
		{
			"mesh":7,
			"name":"_Curve.012",
			"translation":[
				18.882354736328125,
				3.3730008602142334,
				-5.744059085845947
			]
		}
	],
	"materials":[
		{
			"doubleSided":true,
			"name":"wood_table_worn",
			"normalTexture":{
				"extensions":{
					"KHR_texture_transform":{
						"offset":[
							-0.999999999999999,
							1.00000004371139
						],
						"rotation":1.5707963705062866
					}
				},
				"index":0
			},
			"pbrMetallicRoughness":{
				"baseColorTexture":{
					"extensions":{
						"KHR_texture_transform":{
							"offset":[
								-0.999999999999999,
								1.00000004371139
							],
							"rotation":1.5707963705062866
						}
					},
					"index":1
				},
				"metallicFactor":0,
				"metallicRoughnessTexture":{
					"extensions":{
						"KHR_texture_transform":{
							"offset":[
								-0.999999999999999,
								1.00000004371139
							],
							"rotation":1.5707963705062866
						}
					},
					"index":2
				}
			}
		},
		{
			"doubleSided":true,
			"extensions":{
				"KHR_materials_specular":{
					"specularColorFactor":[
						2.0,
						2.0,
						2.0
					]
				}
			},
			"name":"3D Oak - Unfinished",
			"pbrMetallicRoughness":{
				"baseColorFactor":[
					0.1936958134174347,
					0.010502032935619354,
					0.010776638984680176,
					1
				],
				"metallicFactor":0.5,
				"roughnessFactor":0.9648739099502563
			}
		},
		{
			"doubleSided":true,
			"name":"mdf green",
			"pbrMetallicRoughness":{
				"baseColorFactor":[
					0.162029430270195,
					0.22322800755500793,
					0.14126333594322205,
					1
				],
				"metallicFactor":0,
				"roughnessFactor":0.5
			}
		},
		{
			"doubleSided":true,
			"name":"mdf green.003",
			"pbrMetallicRoughness":{
				"baseColorFactor":[
					0.162029430270195,
					0.22322800755500793,
					0.14126333594322205,
					1
				],
				"metallicFactor":0,
				"roughnessFactor":0.5
			}
		}
	],
	"meshes":[
		{
			"name":"Curve.130",
			"primitives":[
				{
					"attributes":{
						"POSITION":0,
						"NORMAL":1,
						"TEXCOORD_0":2
					},
					"indices":3,
					"material":0
				}
			]
		},
		{
			"name":"Curve.134",
			"primitives":[
				{
					"attributes":{
						"POSITION":4,
						"NORMAL":5,
						"TEXCOORD_0":6
					},
					"indices":7,
					"material":1
				}
			]
		},
		{
			"name":"Curve.138",
			"primitives":[
				{
					"attributes":{
						"POSITION":8,
						"NORMAL":9,
						"TEXCOORD_0":10
					},
					"indices":11,
					"material":2
				}
			]
		},
		{
			"name":"Curve.139",
			"primitives":[
				{
					"attributes":{
						"POSITION":12,
						"NORMAL":13,
						"TEXCOORD_0":14
					},
					"indices":7,
					"material":2
				}
			]
		},
		{
			"name":"Curve.140",
			"primitives":[
				{
					"attributes":{
						"POSITION":15,
						"NORMAL":16,
						"TEXCOORD_0":17
					},
					"indices":7,
					"material":2
				}
			]
		},
		{
			"name":"Curve.141",
			"primitives":[
				{
					"attributes":{
						"POSITION":18,
						"NORMAL":19,
						"TEXCOORD_0":20
					},
					"indices":11,
					"material":2
				}
			]
		},
		{
			"name":"Curve.142",
			"primitives":[
				{
					"attributes":{
						"POSITION":21,
						"NORMAL":22,
						"TEXCOORD_0":23
					},
					"indices":7,
					"material":3
				}
			]
		},
		{
			"name":"Curve.128",
			"primitives":[
				{
					"attributes":{
						"POSITION":24,
						"NORMAL":25,
						"TEXCOORD_0":26
					},
					"indices":27,
					"material":0
				}
			]
		}
	],
	"textures":[
		{
			"sampler":0,
			"source":0
		},
		{
			"sampler":0,
			"source":1
		},
		{
			"sampler":0,
			"source":2
		}
	],
	"images":[
		{
			"mimeType":"image/png",
			"name":"wood_table_worn_nor_gl_1k",
			"uri":"wood_table_worn_nor_gl_1k.png"
		},
		{
			"mimeType":"image/jpeg",
			"name":"wood_table_worn_diff_1k",
			"uri":"wood_table_worn_diff_1k.jpg"
		},
		{
			"mimeType":"image/png",
			"name":"wood_table_worn_rough_1k",
			"uri":"wood_table_worn_rough_1k.png"
		}
	],
	"accessors":[
		{
			"bufferView":0,
			"componentType":5126,
			"count":48,
			"max":[
				2.3104095458984375,
				2.750000238418579,
				5.800189839533232e-08
			],
			"min":[
				-1.335670617663709e-06,
				0,
				-0.9849998354911804
			],
			"type":"VEC3"
		},
		{
			"bufferView":1,
			"componentType":5126,
			"count":48,
			"type":"VEC3"
		},
		{
			"bufferView":2,
			"componentType":5126,
			"count":48,
			"type":"VEC2"
		},
		{
			"bufferView":3,
			"componentType":5123,
			"count":72,
			"type":"SCALAR"
		},
		{
			"bufferView":4,
			"componentType":5126,
			"count":24,
			"max":[
				0,
				0.012883930467069149,
				0.00891653448343277
			],
			"min":[
				-0.015999503433704376,
				1.862645149230957e-09,
				7.450580596923828e-09
			],
			"type":"VEC3"
		},
		{
			"bufferView":5,
			"componentType":5126,
			"count":24,
			"type":"VEC3"
		},
		{
			"bufferView":6,
			"componentType":5126,
			"count":24,
			"type":"VEC2"
		},
		{
			"bufferView":7,
			"componentType":5123,
			"count":36,
			"type":"SCALAR"
		},
		{
			"bufferView":8,
			"componentType":5126,
			"count":24,
			"max":[
				-5.849144031344622e-07,
				0.10000000894069672,
				-3.059797037963108e-08
			],
			"min":[
				-0.7000004053115845,
				1.4457119945632257e-08,
				-3.3999998569488525
			],
			"type":"VEC3"
		},
		{
			"bufferView":9,
			"componentType":5126,
			"count":24,
			"type":"VEC3"
		},
		{
			"bufferView":10,
			"componentType":5126,
			"count":24,
			"type":"VEC2"
		},
		{
			"bufferView":11,
			"componentType":5123,
			"count":36,
			"type":"SCALAR"
		},
		{
			"bufferView":12,
			"componentType":5126,
			"count":24,
			"max":[
				0,
				0.012883930467069149,
				0.00891653448343277
			],
			"min":[
				-0.015999503433704376,
				1.862645149230957e-09,
				7.450580596923828e-09
			],
			"type":"VEC3"
		},
		{
			"bufferView":13,
			"componentType":5126,
			"count":24,
			"type":"VEC3"
		},
		{
			"bufferView":14,
			"componentType":5126,
			"count":24,
			"type":"VEC2"
		},
		{
			"bufferView":15,
			"componentType":5126,
			"count":24,
			"max":[
				0,
				0.012883930467069149,
				0.00891653448343277
			],
			"min":[
				-0.015999503433704376,
				1.862645149230957e-09,
				7.450580596923828e-09
			],
			"type":"VEC3"
		},
		{
			"bufferView":16,
			"componentType":5126,
			"count":24,
			"type":"VEC3"
		},
		{
			"bufferView":17,
			"componentType":5126,
			"count":24,
			"type":"VEC2"
		},
		{
			"bufferView":18,
			"componentType":5126,
			"count":24,
			"max":[
				-1.0027105190602015e-06,
				0.10000000894069672,
				-5.2453660970286364e-08
			],
			"min":[
				-1.2000007629394531,
				1.4457119945632257e-08,
				-4.150000095367432
			],
			"type":"VEC3"
		},
		{
			"bufferView":19,
			"componentType":5126,
			"count":24,
			"type":"VEC3"
		},
		{
			"bufferView":20,
			"componentType":5126,
			"count":24,
			"type":"VEC2"
		},
		{
			"bufferView":21,
			"componentType":5126,
			"count":24,
			"max":[
				0,
				0.012883930467069149,
				0.00891653448343277
			],
			"min":[
				-0.015999503433704376,
				1.862645149230957e-09,
				7.450580596923828e-09
			],
			"type":"VEC3"
		},
		{
			"bufferView":22,
			"componentType":5126,
			"count":24,
			"type":"VEC3"
		},
		{
			"bufferView":23,
			"componentType":5126,
			"count":24,
			"type":"VEC2"
		},
		{
			"bufferView":24,
			"componentType":5126,
			"count":336,
			"max":[
				2.0500001907348633,
				2.528999090194702,
				0.375
			],
			"min":[
				-0.10000038146972656,
				-0.02000073343515396,
				-0.375
			],
			"type":"VEC3"
		},
		{
			"bufferView":25,
			"componentType":5126,
			"count":336,
			"type":"VEC3"
		},
		{
			"bufferView":26,
			"componentType":5126,
			"count":336,
			"type":"VEC2"
		},
		{
			"bufferView":27,
			"componentType":5123,
			"count":504,
			"type":"SCALAR"
		}
	],
	"bufferViews":[
		{
			"buffer":0,
			"byteLength":576,
			"byteOffset":0,
			"target":34962
		},
		{
			"buffer":0,
			"byteLength":576,
			"byteOffset":576,
			"target":34962
		},
		{
			"buffer":0,
			"byteLength":384,
			"byteOffset":1152,
			"target":34962
		},
		{
			"buffer":0,
			"byteLength":144,
			"byteOffset":1536,
			"target":34963
		},
		{
			"buffer":0,
			"byteLength":288,
			"byteOffset":1680,
			"target":34962
		},
		{
			"buffer":0,
			"byteLength":288,
			"byteOffset":1968,
			"target":34962
		},
		{
			"buffer":0,
			"byteLength":192,
			"byteOffset":2256,
			"target":34962
		},
		{
			"buffer":0,
			"byteLength":72,
			"byteOffset":2448,
			"target":34963
		},
		{
			"buffer":0,
			"byteLength":288,
			"byteOffset":2520,
			"target":34962
		},
		{
			"buffer":0,
			"byteLength":288,
			"byteOffset":2808,
			"target":34962
		},
		{
			"buffer":0,
			"byteLength":192,
			"byteOffset":3096,
			"target":34962
		},
		{
			"buffer":0,
			"byteLength":72,
			"byteOffset":3288,
			"target":34963
		},
		{
			"buffer":0,
			"byteLength":288,
			"byteOffset":3360,
			"target":34962
		},
		{
			"buffer":0,
			"byteLength":288,
			"byteOffset":3648,
			"target":34962
		},
		{
			"buffer":0,
			"byteLength":192,
			"byteOffset":3936,
			"target":34962
		},
		{
			"buffer":0,
			"byteLength":288,
			"byteOffset":4128,
			"target":34962
		},
		{
			"buffer":0,
			"byteLength":288,
			"byteOffset":4416,
			"target":34962
		},
		{
			"buffer":0,
			"byteLength":192,
			"byteOffset":4704,
			"target":34962
		},
		{
			"buffer":0,
			"byteLength":288,
			"byteOffset":4896,
			"target":34962
		},
		{
			"buffer":0,
			"byteLength":288,
			"byteOffset":5184,
			"target":34962
		},
		{
			"buffer":0,
			"byteLength":192,
			"byteOffset":5472,
			"target":34962
		},
		{
			"buffer":0,
			"byteLength":288,
			"byteOffset":5664,
			"target":34962
		},
		{
			"buffer":0,
			"byteLength":288,
			"byteOffset":5952,
			"target":34962
		},
		{
			"buffer":0,
			"byteLength":192,
			"byteOffset":6240,
			"target":34962
		},
		{
			"buffer":0,
			"byteLength":4032,
			"byteOffset":6432,
			"target":34962
		},
		{
			"buffer":0,
			"byteLength":4032,
			"byteOffset":10464,
			"target":34962
		},
		{
			"buffer":0,
			"byteLength":2688,
			"byteOffset":14496,
			"target":34962
		},
		{
			"buffer":0,
			"byteLength":1008,
			"byteOffset":17184,
			"target":34963
		}
	],
	"samplers":[
		{
			"magFilter":9729,
			"minFilter":9987
		}
	],
	"buffers":[
		{
			"byteLength":18192,
			"uri":"Dach_Hochbett.bin"
		}
	]
}
