{
	"asset":{
		"generator":"Khronos glTF Blender I/O v5.1.18",
		"version":"2.0"
	},
	"scene":0,
	"scenes":[
		{
			"name":"Scene",
			"nodes":[
				0,
				1,
				2,
				3
			]
		}
	],
	"nodes":[
		{
			"mesh":0,
			"name":"holzfassade.029",
			"scale":[
				1,
				0.3333333432674408,
				1
			],
			"translation":[
				25.800809860229492,
				5.920000076293945,
				-16.947114944458008
			]
		},
		{
			"mesh":1,
			"name":"holzfassade.030",
			"rotation":[
				0,
				-1,
				0,
				4.371138828673793e-08
			],
			"scale":[
				1,
				0.3333333432674408,
				1
			],
			"translation":[
				15.435086250305176,
				5.920000076293945,
				-4.999013900756836
			]
		},
		{
			"mesh":2,
			"name":"holzfassade.031",
			"rotation":[
				-0.5,
				0.5,
				-0.5,
				0.5
			],
			"scale":[
				1.5,
				1.2777777910232544,
				1
			],
			"translation":[
				15.435086250305176,
				5.799999713897705,
				-5.278964996337891
			]
		},
		{
			"mesh":3,
			"name":"holzfassade.032",
			"rotation":[
				0.5,
				-0.5,
				-0.5,
				0.5000000596046448
			],
			"scale":[
				1.5,
				1.2777777910232544,
				1
			],
			"translation":[
				25.800813674926758,
				5.799999713897705,
				-16.805177688598633
			]
		}
	],
	"materials":[
		{
			"doubleSided":true,
			"name":"fichte",
			"pbrMetallicRoughness":{
				"baseColorTexture":{
					"index":0
				},
				"metallicFactor":0,
				"roughnessFactor":0.5
			}
		},
		{
			"doubleSided":true,
			"name":"fichte.001",
			"pbrMetallicRoughness":{
				"baseColorTexture":{
					"index":1
				},
				"metallicFactor":0,
				"roughnessFactor":0.5
			}
		}
	],
	"meshes":[
		{
			"name":"Cube.266",
			"primitives":[
				{
					"attributes":{
						"POSITION":0,
						"NORMAL":1,
						"TEXCOORD_0":2
					},
					"indices":3,
					"material":0
				}
			]
		},
		{
			"name":"Cube.267",
			"primitives":[
				{
					"attributes":{
						"POSITION":4,
						"NORMAL":5,
						"TEXCOORD_0":6
					},
					"indices":7,
					"material":0
				}
			]
		},
		{
			"name":"Cube.268",
			"primitives":[
				{
					"attributes":{
						"POSITION":8,
						"NORMAL":9,
						"TEXCOORD_0":10
					},
					"indices":11,
					"material":1
				}
			]
		},
		{
			"name":"Cube.269",
			"primitives":[
				{
					"attributes":{
						"POSITION":12,
						"NORMAL":13,
						"TEXCOORD_0":14
					},
					"indices":11,
					"material":1
				}
			]
		}
	],
	"textures":[
		{
			"sampler":0,
			"source":0
		},
		{
			"sampler":0,
			"source":0
		}
	],
	"images":[
		{
			"mimeType":"image/jpeg",
			"name":"fichte - grau",
			"uri":"fichte%20-%20grau.jpg"
		}
	],
	"accessors":[
		{
			"bufferView":0,
			"componentType":5126,
			"count":3808,
			"max":[
				0,
				9,
				0
			],
			"min":[
				-10.394999504089355,
				0,
				-0.019999999552965164
			],
			"type":"VEC3"
		},
		{
			"bufferView":1,
			"componentType":5126,
			"count":3808,
			"type":"VEC3"
		},
		{
			"bufferView":2,
			"componentType":5126,
			"count":3808,
			"type":"VEC2"
		},
		{
			"bufferView":3,
			"componentType":5123,
			"count":5724,
			"type":"SCALAR"
		},
		{
			"bufferView":4,
			"componentType":5126,
			"count":3804,
			"max":[
				0,
				9,
				0
			],
			"min":[
				-10.394999504089355,
				0,
				-0.019999999552965164
			],
			"type":"VEC3"
		},
		{
			"bufferView":5,
			"componentType":5126,
			"count":3804,
			"type":"VEC3"
		},
		{
			"bufferView":6,
			"componentType":5126,
			"count":3804,
			"type":"VEC2"
		},
		{
			"bufferView":7,
			"componentType":5123,
			"count":5712,
			"type":"SCALAR"
		},
		{
			"bufferView":8,
			"componentType":5126,
			"count":96,
			"max":[
				0,
				9,
				0
			],
			"min":[
				-0.19499999284744263,
				0,
				-0.019999999552965164
			],
			"type":"VEC3"
		},
		{
			"bufferView":9,
			"componentType":5126,
			"count":96,
			"type":"VEC3"
		},
		{
			"bufferView":10,
			"componentType":5126,
			"count":96,
			"type":"VEC2"
		},
		{
			"bufferView":11,
			"componentType":5123,
			"count":132,
			"type":"SCALAR"
		},
		{
			"bufferView":12,
			"componentType":5126,
			"count":96,
			"max":[
				0,
				9,
				0
			],
			"min":[
				-0.19499999284744263,
				0,
				-0.019999999552965164
			],
			"type":"VEC3"
		},
		{
			"bufferView":13,
			"componentType":5126,
			"count":96,
			"type":"VEC3"
		},
		{
			"bufferView":14,
			"componentType":5126,
			"count":96,
			"type":"VEC2"
		}
	],
	"bufferViews":[
		{
			"buffer":0,
			"byteLength":45696,
			"byteOffset":0,
			"target":34962
		},
		{
			"buffer":0,
			"byteLength":45696,
			"byteOffset":45696,
			"target":34962
		},
		{
			"buffer":0,
			"byteLength":30464,
			"byteOffset":91392,
			"target":34962
		},
		{
			"buffer":0,
			"byteLength":11448,
			"byteOffset":121856,
			"target":34963
		},
		{
			"buffer":0,
			"byteLength":45648,
			"byteOffset":133304,
			"target":34962
		},
		{
			"buffer":0,
			"byteLength":45648,
			"byteOffset":178952,
			"target":34962
		},
		{
			"buffer":0,
			"byteLength":30432,
			"byteOffset":224600,
			"target":34962
		},
		{
			"buffer":0,
			"byteLength":11424,
			"byteOffset":255032,
			"target":34963
		},
		{
			"buffer":0,
			"byteLength":1152,
			"byteOffset":266456,
			"target":34962
		},
		{
			"buffer":0,
			"byteLength":1152,
			"byteOffset":267608,
			"target":34962
		},
		{
			"buffer":0,
			"byteLength":768,
			"byteOffset":268760,
			"target":34962
		},
		{
			"buffer":0,
			"byteLength":264,
			"byteOffset":269528,
			"target":34963
		},
		{
			"buffer":0,
			"byteLength":1152,
			"byteOffset":269792,
			"target":34962
		},
		{
			"buffer":0,
			"byteLength":1152,
			"byteOffset":270944,
			"target":34962
		},
		{
			"buffer":0,
			"byteLength":768,
			"byteOffset":272096,
			"target":34962
		}
	],
	"samplers":[
		{
			"magFilter":9729,
			"minFilter":9987
		}
	],
	"buffers":[
		{
			"byteLength":272864,
			"uri":"DG_Fassade.bin"
		}
	]
}
