{
	"asset":{
		"generator":"Khronos glTF Blender I/O v5.1.18",
		"version":"2.0"
	},
	"scene":0,
	"scenes":[
		{
			"name":"Scene",
			"nodes":[
				0,
				1,
				2,
				3,
				4,
				5,
				6,
				7,
				8,
				9,
				10
			]
		}
	],
	"nodes":[
		{
			"mesh":0,
			"name":"holzfassade.029",
			"scale":[
				1,
				0.3444444239139557,
				1
			],
			"translation":[
				25.800809860229492,
				-0.2999999523162842,
				-16.947114944458008
			]
		},
		{
			"mesh":1,
			"name":"holzfassade.030",
			"rotation":[
				0,
				-0.7071068286895752,
				0,
				0.7071068286895752
			],
			"scale":[
				0.9900000095367432,
				0.3444444239139557,
				1
			],
			"translation":[
				25.800811767578125,
				-0.29999998211860657,
				-11.869331359863281
			]
		},
		{
			"mesh":2,
			"name":"holzfassade.031",
			"rotation":[
				0,
				-1,
				0,
				4.371138828673793e-08
			],
			"scale":[
				1.100000023841858,
				0.3444444239139557,
				1
			],
			"translation":[
				24.934370040893555,
				-0.29999998211860657,
				-11.869331359863281
			]
		},
		{
			"mesh":3,
			"name":"holzfassade.032",
			"rotation":[
				0,
				-0.7071068286895752,
				0,
				0.7071068286895752
			],
			"scale":[
				1,
				0.3444444239139557,
				1
			],
			"translation":[
				24.934370040893555,
				-0.29999998211860657,
				-5.278964519500732
			]
		},
		{
			"mesh":4,
			"name":"holzfassade.033",
			"scale":[
				1.100000023841858,
				0.3444444239139557,
				1
			],
			"translation":[
				25.800432205200195,
				-0.29999998211860657,
				-5.278964519500732
			]
		},
		{
			"mesh":5,
			"name":"holzfassade.034",
			"rotation":[
				0,
				-1,
				0,
				4.371138828673793e-08
			],
			"scale":[
				1,
				0.3444444239139557,
				1
			],
			"translation":[
				15.435086250305176,
				-0.29999998211860657,
				-4.998964786529541
			]
		},
		{
			"mesh":6,
			"name":"holzfassade.035",
			"rotation":[
				0,
				0.7071068286895752,
				0,
				0.7071068286895752
			],
			"scale":[
				1.5,
				0.3444444239139557,
				1
			],
			"translation":[
				15.435086250305176,
				-0.29999998211860657,
				-5.278964996337891
			]
		},
		{
			"mesh":7,
			"name":"holzfassade.036",
			"rotation":[
				0,
				-1,
				0,
				4.371138828673793e-08
			],
			"scale":[
				1.100000023841858,
				0.3444444239139557,
				1
			],
			"translation":[
				15.435084342956543,
				-0.2999999523162842,
				-16.666765213012695
			]
		},
		{
			"mesh":8,
			"name":"holzfassade.037",
			"rotation":[
				0,
				0.7071068286895752,
				0,
				0.7071068286895752
			],
			"scale":[
				1,
				0.3444444239139557,
				1
			],
			"translation":[
				15.885086059570312,
				-0.2999999523162842,
				-16.65076446533203
			]
		},
		{
			"mesh":9,
			"name":"holzfassade.038",
			"scale":[
				1.100000023841858,
				0.3444444239139557,
				1
			],
			"translation":[
				15.869086265563965,
				-0.2999999523162842,
				-5.273796081542969
			]
		},
		{
			"mesh":10,
			"name":"holzfassade.039",
			"rotation":[
				0,
				0.7071068286895752,
				0,
				0.7071068286895752
			],
			"scale":[
				1.5,
				0.3444444239139557,
				1
			],
			"translation":[
				15.435086250305176,
				-0.29999998211860657,
				-16.946765899658203
			]
		}
	],
	"materials":[
		{
			"doubleSided":true,
			"name":"fichte",
			"pbrMetallicRoughness":{
				"baseColorTexture":{
					"index":0
				},
				"metallicFactor":0,
				"roughnessFactor":0.5
			}
		},
		{
			"doubleSided":true,
			"name":"fichte.001",
			"pbrMetallicRoughness":{
				"baseColorTexture":{
					"index":1
				},
				"metallicFactor":0,
				"roughnessFactor":0.5
			}
		}
	],
	"meshes":[
		{
			"name":"Cube.391",
			"primitives":[
				{
					"attributes":{
						"POSITION":0,
						"NORMAL":1,
						"TEXCOORD_0":2
					},
					"indices":3,
					"material":0
				}
			]
		},
		{
			"name":"Cube.392",
			"primitives":[
				{
					"attributes":{
						"POSITION":4,
						"NORMAL":5,
						"TEXCOORD_0":6
					},
					"indices":7,
					"material":1
				}
			]
		},
		{
			"name":"Cube.393",
			"primitives":[
				{
					"attributes":{
						"POSITION":8,
						"NORMAL":9,
						"TEXCOORD_0":10
					},
					"indices":11,
					"material":1
				}
			]
		},
		{
			"name":"Cube.394",
			"primitives":[
				{
					"attributes":{
						"POSITION":12,
						"NORMAL":13,
						"TEXCOORD_0":14
					},
					"indices":15,
					"material":1
				}
			]
		},
		{
			"name":"Cube.395",
			"primitives":[
				{
					"attributes":{
						"POSITION":16,
						"NORMAL":17,
						"TEXCOORD_0":18
					},
					"indices":11,
					"material":1
				}
			]
		},
		{
			"name":"Cube.396",
			"primitives":[
				{
					"attributes":{
						"POSITION":19,
						"NORMAL":20,
						"TEXCOORD_0":21
					},
					"indices":22,
					"material":1
				}
			]
		},
		{
			"name":"Cube.397",
			"primitives":[
				{
					"attributes":{
						"POSITION":23,
						"NORMAL":24,
						"TEXCOORD_0":25
					},
					"indices":26,
					"material":1
				}
			]
		},
		{
			"name":"Cube.398",
			"primitives":[
				{
					"attributes":{
						"POSITION":27,
						"NORMAL":28,
						"TEXCOORD_0":29
					},
					"indices":30,
					"material":1
				}
			]
		},
		{
			"name":"Cube.399",
			"primitives":[
				{
					"attributes":{
						"POSITION":31,
						"NORMAL":32,
						"TEXCOORD_0":33
					},
					"indices":34,
					"material":0
				}
			]
		},
		{
			"name":"Cube.400",
			"primitives":[
				{
					"attributes":{
						"POSITION":35,
						"NORMAL":36,
						"TEXCOORD_0":37
					},
					"indices":30,
					"material":1
				}
			]
		},
		{
			"name":"Cube.401",
			"primitives":[
				{
					"attributes":{
						"POSITION":38,
						"NORMAL":39,
						"TEXCOORD_0":40
					},
					"indices":26,
					"material":1
				}
			]
		}
	],
	"textures":[
		{
			"sampler":0,
			"source":0
		},
		{
			"sampler":0,
			"source":0
		}
	],
	"images":[
		{
			"mimeType":"image/jpeg",
			"name":"fichte - grau",
			"uri":"fichte%20-%20grau.jpg"
		}
	],
	"accessors":[
		{
			"bufferView":0,
			"componentType":5126,
			"count":4992,
			"max":[
				0,
				9,
				0
			],
			"min":[
				-10.394999504089355,
				0,
				-0.019999999552965164
			],
			"type":"VEC3"
		},
		{
			"bufferView":1,
			"componentType":5126,
			"count":4992,
			"type":"VEC3"
		},
		{
			"bufferView":2,
			"componentType":5126,
			"count":4992,
			"type":"VEC2"
		},
		{
			"bufferView":3,
			"componentType":5123,
			"count":6864,
			"type":"SCALAR"
		},
		{
			"bufferView":4,
			"componentType":5126,
			"count":2872,
			"max":[
				0,
				9,
				0
			],
			"min":[
				-5.194999694824219,
				0,
				-0.019999999552965164
			],
			"type":"VEC3"
		},
		{
			"bufferView":5,
			"componentType":5126,
			"count":2872,
			"type":"VEC3"
		},
		{
			"bufferView":6,
			"componentType":5126,
			"count":2872,
			"type":"VEC2"
		},
		{
			"bufferView":7,
			"componentType":5123,
			"count":4128,
			"type":"SCALAR"
		},
		{
			"bufferView":8,
			"componentType":5126,
			"count":384,
			"max":[
				0,
				9,
				0
			],
			"min":[
				-0.7949999570846558,
				0,
				-0.019999999552965164
			],
			"type":"VEC3"
		},
		{
			"bufferView":9,
			"componentType":5126,
			"count":384,
			"type":"VEC3"
		},
		{
			"bufferView":10,
			"componentType":5126,
			"count":384,
			"type":"VEC2"
		},
		{
			"bufferView":11,
			"componentType":5123,
			"count":528,
			"type":"SCALAR"
		},
		{
			"bufferView":12,
			"componentType":5126,
			"count":3720,
			"max":[
				0,
				9,
				0
			],
			"min":[
				-6.59499979019165,
				0,
				-0.019999999552965164
			],
			"type":"VEC3"
		},
		{
			"bufferView":13,
			"componentType":5126,
			"count":3720,
			"type":"VEC3"
		},
		{
			"bufferView":14,
			"componentType":5126,
			"count":3720,
			"type":"VEC2"
		},
		{
			"bufferView":15,
			"componentType":5123,
			"count":5340,
			"type":"SCALAR"
		},
		{
			"bufferView":16,
			"componentType":5126,
			"count":384,
			"max":[
				0,
				9,
				0
			],
			"min":[
				-0.7949999570846558,
				0,
				-0.019999999552965164
			],
			"type":"VEC3"
		},
		{
			"bufferView":17,
			"componentType":5126,
			"count":384,
			"type":"VEC3"
		},
		{
			"bufferView":18,
			"componentType":5126,
			"count":384,
			"type":"VEC2"
		},
		{
			"bufferView":19,
			"componentType":5126,
			"count":6016,
			"max":[
				0,
				9,
				0
			],
			"min":[
				-10.394999504089355,
				0,
				-0.019999999552965164
			],
			"type":"VEC3"
		},
		{
			"bufferView":20,
			"componentType":5126,
			"count":6016,
			"type":"VEC3"
		},
		{
			"bufferView":21,
			"componentType":5126,
			"count":6016,
			"type":"VEC2"
		},
		{
			"bufferView":22,
			"componentType":5123,
			"count":8712,
			"type":"SCALAR"
		},
		{
			"bufferView":23,
			"componentType":5126,
			"count":96,
			"max":[
				0,
				9,
				0
			],
			"min":[
				-0.19499999284744263,
				0,
				-0.019999999552965164
			],
			"type":"VEC3"
		},
		{
			"bufferView":24,
			"componentType":5126,
			"count":96,
			"type":"VEC3"
		},
		{
			"bufferView":25,
			"componentType":5126,
			"count":96,
			"type":"VEC2"
		},
		{
			"bufferView":26,
			"componentType":5123,
			"count":132,
			"type":"SCALAR"
		},
		{
			"bufferView":27,
			"componentType":5126,
			"count":192,
			"max":[
				0,
				9,
				0
			],
			"min":[
				-0.39499998092651367,
				0,
				-0.019999999552965164
			],
			"type":"VEC3"
		},
		{
			"bufferView":28,
			"componentType":5126,
			"count":192,
			"type":"VEC3"
		},
		{
			"bufferView":29,
			"componentType":5126,
			"count":192,
			"type":"VEC2"
		},
		{
			"bufferView":30,
			"componentType":5123,
			"count":264,
			"type":"SCALAR"
		},
		{
			"bufferView":31,
			"componentType":5126,
			"count":7040,
			"max":[
				0,
				9,
				0
			],
			"min":[
				-11.394998550415039,
				0,
				-0.019999999552965164
			],
			"type":"VEC3"
		},
		{
			"bufferView":32,
			"componentType":5126,
			"count":7040,
			"type":"VEC3"
		},
		{
			"bufferView":33,
			"componentType":5126,
			"count":7040,
			"type":"VEC2"
		},
		{
			"bufferView":34,
			"componentType":5123,
			"count":10344,
			"type":"SCALAR"
		},
		{
			"bufferView":35,
			"componentType":5126,
			"count":192,
			"max":[
				0,
				9,
				0
			],
			"min":[
				-0.39499998092651367,
				0,
				-0.019999999552965164
			],
			"type":"VEC3"
		},
		{
			"bufferView":36,
			"componentType":5126,
			"count":192,
			"type":"VEC3"
		},
		{
			"bufferView":37,
			"componentType":5126,
			"count":192,
			"type":"VEC2"
		},
		{
			"bufferView":38,
			"componentType":5126,
			"count":96,
			"max":[
				0,
				9,
				0
			],
			"min":[
				-0.19499999284744263,
				0,
				-0.019999999552965164
			],
			"type":"VEC3"
		},
		{
			"bufferView":39,
			"componentType":5126,
			"count":96,
			"type":"VEC3"
		},
		{
			"bufferView":40,
			"componentType":5126,
			"count":96,
			"type":"VEC2"
		}
	],
	"bufferViews":[
		{
			"buffer":0,
			"byteLength":59904,
			"byteOffset":0,
			"target":34962
		},
		{
			"buffer":0,
			"byteLength":59904,
			"byteOffset":59904,
			"target":34962
		},
		{
			"buffer":0,
			"byteLength":39936,
			"byteOffset":119808,
			"target":34962
		},
		{
			"buffer":0,
			"byteLength":13728,
			"byteOffset":159744,
			"target":34963
		},
		{
			"buffer":0,
			"byteLength":34464,
			"byteOffset":173472,
			"target":34962
		},
		{
			"buffer":0,
			"byteLength":34464,
			"byteOffset":207936,
			"target":34962
		},
		{
			"buffer":0,
			"byteLength":22976,
			"byteOffset":242400,
			"target":34962
		},
		{
			"buffer":0,
			"byteLength":8256,
			"byteOffset":265376,
			"target":34963
		},
		{
			"buffer":0,
			"byteLength":4608,
			"byteOffset":273632,
			"target":34962
		},
		{
			"buffer":0,
			"byteLength":4608,
			"byteOffset":278240,
			"target":34962
		},
		{
			"buffer":0,
			"byteLength":3072,
			"byteOffset":282848,
			"target":34962
		},
		{
			"buffer":0,
			"byteLength":1056,
			"byteOffset":285920,
			"target":34963
		},
		{
			"buffer":0,
			"byteLength":44640,
			"byteOffset":286976,
			"target":34962
		},
		{
			"buffer":0,
			"byteLength":44640,
			"byteOffset":331616,
			"target":34962
		},
		{
			"buffer":0,
			"byteLength":29760,
			"byteOffset":376256,
			"target":34962
		},
		{
			"buffer":0,
			"byteLength":10680,
			"byteOffset":406016,
			"target":34963
		},
		{
			"buffer":0,
			"byteLength":4608,
			"byteOffset":416696,
			"target":34962
		},
		{
			"buffer":0,
			"byteLength":4608,
			"byteOffset":421304,
			"target":34962
		},
		{
			"buffer":0,
			"byteLength":3072,
			"byteOffset":425912,
			"target":34962
		},
		{
			"buffer":0,
			"byteLength":72192,
			"byteOffset":428984,
			"target":34962
		},
		{
			"buffer":0,
			"byteLength":72192,
			"byteOffset":501176,
			"target":34962
		},
		{
			"buffer":0,
			"byteLength":48128,
			"byteOffset":573368,
			"target":34962
		},
		{
			"buffer":0,
			"byteLength":17424,
			"byteOffset":621496,
			"target":34963
		},
		{
			"buffer":0,
			"byteLength":1152,
			"byteOffset":638920,
			"target":34962
		},
		{
			"buffer":0,
			"byteLength":1152,
			"byteOffset":640072,
			"target":34962
		},
		{
			"buffer":0,
			"byteLength":768,
			"byteOffset":641224,
			"target":34962
		},
		{
			"buffer":0,
			"byteLength":264,
			"byteOffset":641992,
			"target":34963
		},
		{
			"buffer":0,
			"byteLength":2304,
			"byteOffset":642256,
			"target":34962
		},
		{
			"buffer":0,
			"byteLength":2304,
			"byteOffset":644560,
			"target":34962
		},
		{
			"buffer":0,
			"byteLength":1536,
			"byteOffset":646864,
			"target":34962
		},
		{
			"buffer":0,
			"byteLength":528,
			"byteOffset":648400,
			"target":34963
		},
		{
			"buffer":0,
			"byteLength":84480,
			"byteOffset":648928,
			"target":34962
		},
		{
			"buffer":0,
			"byteLength":84480,
			"byteOffset":733408,
			"target":34962
		},
		{
			"buffer":0,
			"byteLength":56320,
			"byteOffset":817888,
			"target":34962
		},
		{
			"buffer":0,
			"byteLength":20688,
			"byteOffset":874208,
			"target":34963
		},
		{
			"buffer":0,
			"byteLength":2304,
			"byteOffset":894896,
			"target":34962
		},
		{
			"buffer":0,
			"byteLength":2304,
			"byteOffset":897200,
			"target":34962
		},
		{
			"buffer":0,
			"byteLength":1536,
			"byteOffset":899504,
			"target":34962
		},
		{
			"buffer":0,
			"byteLength":1152,
			"byteOffset":901040,
			"target":34962
		},
		{
			"buffer":0,
			"byteLength":1152,
			"byteOffset":902192,
			"target":34962
		},
		{
			"buffer":0,
			"byteLength":768,
			"byteOffset":903344,
			"target":34962
		}
	],
	"samplers":[
		{
			"magFilter":9729,
			"minFilter":9987
		}
	],
	"buffers":[
		{
			"byteLength":904112,
			"uri":"EG_Fassade.bin"
		}
	]
}
