{
	"asset":{
		"generator":"Khronos glTF Blender I/O v5.1.18",
		"version":"2.0"
	},
	"scene":0,
	"scenes":[
		{
			"name":"Scene",
			"nodes":[
				0,
				1,
				2,
				3,
				4,
				5
			]
		}
	],
	"nodes":[
		{
			"mesh":0,
			"name":"Curve.065",
			"rotation":[
				0,
				-0.7071068286895752,
				0,
				0.7071068286895752
			],
			"scale":[
				0.6572030186653137,
				1,
				1
			],
			"translation":[
				23.569324493408203,
				2.799999952316284,
				-12.124298095703125
			]
		},
		{
			"mesh":1,
			"name":"Blockzarge.012",
			"rotation":[
				0,
				-0.7071066498756409,
				0,
				0.70710688829422
			],
			"scale":[
				0.019999999552965164,
				1.1924999952316284,
				0.019999999552965164
			],
			"translation":[
				24.441858291625977,
				0,
				-12.209297180175781
			]
		},
		{
			"mesh":2,
			"name":"Blockzarge.013",
			"rotation":[
				0,
				0.7071067094802856,
				0,
				0.7071068286895752
			],
			"scale":[
				0.019999999552965164,
				1.1924999952316284,
				0.019999999552965164
			],
			"translation":[
				23.61785888671875,
				0,
				-12.209297180175781
			]
		},
		{
			"mesh":3,
			"name":"Blockzarge.014",
			"rotation":[
				-0.5,
				0.5,
				0.5,
				0.5
			],
			"scale":[
				0.019999999552965164,
				0.41200000047683716,
				0.019999999552965164
			],
			"translation":[
				24.441858291625977,
				2.385000228881836,
				-12.209297180175781
			]
		},
		{
			"mesh":4,
			"name":"T\u00fcrblatt.004",
			"rotation":[
				0,
				0.7071067094802856,
				0,
				0.7071068286895752
			],
			"scale":[
				0.029999999329447746,
				1.1749999523162842,
				0.41200000047683716
			],
			"translation":[
				24.441858291625977,
				0,
				-12.209297180175781
			]
		},
		{
			"mesh":5,
			"name":"Door.004",
			"rotation":[
				0.7071068286895752,
				0,
				0,
				0.7071068286895752
			],
			"scale":[
				-0.8666666150093079,
				-1.6450296640396118,
				-1
			],
			"translation":[
				23.712003707885742,
				1.07081139087677,
				-12.209297180175781
			]
		}
	],
	"materials":[
		{
			"doubleSided":true,
			"name":"mdf black",
			"pbrMetallicRoughness":{
				"baseColorFactor":[
					0.0110981035977602,
					0.0110981035977602,
					0.0110981035977602,
					1
				],
				"metallicFactor":0,
				"roughnessFactor":0.5
			}
		},
		{
			"doubleSided":true,
			"name":"Black.Matt.002",
			"pbrMetallicRoughness":{
				"baseColorFactor":[
					0.010681908577680588,
					0.010681908577680588,
					0.010681908577680588,
					1
				],
				"metallicFactor":0.39263802766799927,
				"roughnessFactor":0.6840490698814392
			}
		}
	],
	"meshes":[
		{
			"name":"Curve.249",
			"primitives":[
				{
					"attributes":{
						"POSITION":0,
						"NORMAL":1,
						"TEXCOORD_0":2
					},
					"indices":3,
					"material":0
				}
			]
		},
		{
			"name":"Cube.387",
			"primitives":[
				{
					"attributes":{
						"POSITION":4,
						"NORMAL":5,
						"TEXCOORD_0":6
					},
					"indices":7,
					"material":1
				}
			]
		},
		{
			"name":"Cube.388",
			"primitives":[
				{
					"attributes":{
						"POSITION":8,
						"NORMAL":9,
						"TEXCOORD_0":10
					},
					"indices":7,
					"material":1
				}
			]
		},
		{
			"name":"Cube.389",
			"primitives":[
				{
					"attributes":{
						"POSITION":11,
						"NORMAL":12,
						"TEXCOORD_0":13
					},
					"indices":7,
					"material":1
				}
			]
		},
		{
			"name":"Cube.390",
			"primitives":[
				{
					"attributes":{
						"POSITION":14,
						"NORMAL":15,
						"TEXCOORD_0":16
					},
					"indices":7,
					"material":0
				}
			]
		},
		{
			"name":"Plane.001_Glossy_0.009",
			"primitives":[
				{
					"attributes":{
						"POSITION":17,
						"NORMAL":18,
						"TEXCOORD_0":19,
						"TEXCOORD_1":20,
						"TEXCOORD_2":21
					},
					"indices":22,
					"material":1
				}
			]
		}
	],
	"accessors":[
		{
			"bufferView":0,
			"componentType":5126,
			"count":48,
			"max":[
				0,
				2.384185791015625e-07,
				0
			],
			"min":[
				-0.17498397827148438,
				-2.799999713897705,
				-1.0034433603286743
			],
			"type":"VEC3"
		},
		{
			"bufferView":1,
			"componentType":5126,
			"count":48,
			"type":"VEC3"
		},
		{
			"bufferView":2,
			"componentType":5126,
			"count":48,
			"type":"VEC2"
		},
		{
			"bufferView":3,
			"componentType":5123,
			"count":84,
			"type":"SCALAR"
		},
		{
			"bufferView":4,
			"componentType":5126,
			"count":24,
			"max":[
				1,
				2,
				0
			],
			"min":[
				-1,
				0,
				-2
			],
			"type":"VEC3"
		},
		{
			"bufferView":5,
			"componentType":5126,
			"count":24,
			"type":"VEC3"
		},
		{
			"bufferView":6,
			"componentType":5126,
			"count":24,
			"type":"VEC2"
		},
		{
			"bufferView":7,
			"componentType":5123,
			"count":36,
			"type":"SCALAR"
		},
		{
			"bufferView":8,
			"componentType":5126,
			"count":24,
			"max":[
				1,
				2,
				0
			],
			"min":[
				-1,
				0,
				-2
			],
			"type":"VEC3"
		},
		{
			"bufferView":9,
			"componentType":5126,
			"count":24,
			"type":"VEC3"
		},
		{
			"bufferView":10,
			"componentType":5126,
			"count":24,
			"type":"VEC2"
		},
		{
			"bufferView":11,
			"componentType":5126,
			"count":24,
			"max":[
				1,
				2,
				0
			],
			"min":[
				-1,
				0,
				-2
			],
			"type":"VEC3"
		},
		{
			"bufferView":12,
			"componentType":5126,
			"count":24,
			"type":"VEC3"
		},
		{
			"bufferView":13,
			"componentType":5126,
			"count":24,
			"type":"VEC2"
		},
		{
			"bufferView":14,
			"componentType":5126,
			"count":24,
			"max":[
				1,
				2,
				0
			],
			"min":[
				-1,
				0,
				-2
			],
			"type":"VEC3"
		},
		{
			"bufferView":15,
			"componentType":5126,
			"count":24,
			"type":"VEC3"
		},
		{
			"bufferView":16,
			"componentType":5126,
			"count":24,
			"type":"VEC2"
		},
		{
			"bufferView":17,
			"componentType":5126,
			"count":1896,
			"max":[
				0.05747199058532715,
				0.058709338307380676,
				0.05469536781311035
			],
			"min":[
				-0.10081350803375244,
				-0.058709368109703064,
				-0.08812892436981201
			],
			"type":"VEC3"
		},
		{
			"bufferView":18,
			"componentType":5126,
			"count":1896,
			"type":"VEC3"
		},
		{
			"bufferView":19,
			"componentType":5126,
			"count":1896,
			"type":"VEC2"
		},
		{
			"bufferView":20,
			"componentType":5126,
			"count":1896,
			"type":"VEC2"
		},
		{
			"bufferView":21,
			"componentType":5126,
			"count":1896,
			"type":"VEC2"
		},
		{
			"bufferView":22,
			"componentType":5123,
			"count":7056,
			"type":"SCALAR"
		}
	],
	"bufferViews":[
		{
			"buffer":0,
			"byteLength":576,
			"byteOffset":0,
			"target":34962
		},
		{
			"buffer":0,
			"byteLength":576,
			"byteOffset":576,
			"target":34962
		},
		{
			"buffer":0,
			"byteLength":384,
			"byteOffset":1152,
			"target":34962
		},
		{
			"buffer":0,
			"byteLength":168,
			"byteOffset":1536,
			"target":34963
		},
		{
			"buffer":0,
			"byteLength":288,
			"byteOffset":1704,
			"target":34962
		},
		{
			"buffer":0,
			"byteLength":288,
			"byteOffset":1992,
			"target":34962
		},
		{
			"buffer":0,
			"byteLength":192,
			"byteOffset":2280,
			"target":34962
		},
		{
			"buffer":0,
			"byteLength":72,
			"byteOffset":2472,
			"target":34963
		},
		{
			"buffer":0,
			"byteLength":288,
			"byteOffset":2544,
			"target":34962
		},
		{
			"buffer":0,
			"byteLength":288,
			"byteOffset":2832,
			"target":34962
		},
		{
			"buffer":0,
			"byteLength":192,
			"byteOffset":3120,
			"target":34962
		},
		{
			"buffer":0,
			"byteLength":288,
			"byteOffset":3312,
			"target":34962
		},
		{
			"buffer":0,
			"byteLength":288,
			"byteOffset":3600,
			"target":34962
		},
		{
			"buffer":0,
			"byteLength":192,
			"byteOffset":3888,
			"target":34962
		},
		{
			"buffer":0,
			"byteLength":288,
			"byteOffset":4080,
			"target":34962
		},
		{
			"buffer":0,
			"byteLength":288,
			"byteOffset":4368,
			"target":34962
		},
		{
			"buffer":0,
			"byteLength":192,
			"byteOffset":4656,
			"target":34962
		},
		{
			"buffer":0,
			"byteLength":22752,
			"byteOffset":4848,
			"target":34962
		},
		{
			"buffer":0,
			"byteLength":22752,
			"byteOffset":27600,
			"target":34962
		},
		{
			"buffer":0,
			"byteLength":15168,
			"byteOffset":50352,
			"target":34962
		},
		{
			"buffer":0,
			"byteLength":15168,
			"byteOffset":65520,
			"target":34962
		},
		{
			"buffer":0,
			"byteLength":15168,
			"byteOffset":80688,
			"target":34962
		},
		{
			"buffer":0,
			"byteLength":14112,
			"byteOffset":95856,
			"target":34963
		}
	],
	"buffers":[
		{
			"byteLength":109968,
			"uri":"EG_Kellereingang.bin"
		}
	]
}
