{
	"asset":{
		"generator":"Khronos glTF Blender I/O v5.1.18",
		"version":"2.0"
	},
	"scene":0,
	"scenes":[
		{
			"name":"Scene",
			"nodes":[
				0,
				1,
				2,
				3,
				4,
				5,
				6,
				7,
				8,
				9,
				10,
				11,
				12
			]
		}
	],
	"nodes":[
		{
			"mesh":0,
			"name":"holzfassade.029",
			"scale":[
				1,
				0.3444444239139557,
				1
			],
			"translation":[
				25.800809860229492,
				2.809999942779541,
				-16.947114944458008
			]
		},
		{
			"mesh":1,
			"name":"holzfassade.030",
			"rotation":[
				0,
				-0.7071068286895752,
				0,
				0.7071068286895752
			],
			"scale":[
				0.9900000095367432,
				0.3444444239139557,
				1
			],
			"translation":[
				25.800811767578125,
				2.809999942779541,
				-11.869331359863281
			]
		},
		{
			"mesh":2,
			"name":"holzfassade.031",
			"rotation":[
				0,
				-1,
				0,
				4.371138828673793e-08
			],
			"scale":[
				1.100000023841858,
				0.3444444239139557,
				1
			],
			"translation":[
				24.934370040893555,
				2.799999952316284,
				-11.86929988861084
			]
		},
		{
			"mesh":3,
			"name":"holzfassade.032",
			"rotation":[
				0,
				-0.7071068286895752,
				0,
				0.7071068286895752
			],
			"scale":[
				1,
				0.3444444239139557,
				1
			],
			"translation":[
				24.934370040893555,
				2.799999952316284,
				-5.278964519500732
			]
		},
		{
			"mesh":4,
			"name":"holzfassade.033",
			"scale":[
				1.100000023841858,
				0.3444444239139557,
				1
			],
			"translation":[
				25.800432205200195,
				2.799999952316284,
				-5.278964519500732
			]
		},
		{
			"mesh":5,
			"name":"holzfassade.034",
			"rotation":[
				0,
				-0.7071068286895752,
				0,
				0.7071068286895752
			],
			"scale":[
				1.5,
				0.3444444239139557,
				1
			],
			"translation":[
				25.800432205200195,
				2.799999952316284,
				-4.998964309692383
			]
		},
		{
			"mesh":6,
			"name":"holzfassade.035",
			"rotation":[
				0,
				-0.7071068286895752,
				0,
				0.7071068286895752
			],
			"scale":[
				1.5,
				0.3444444239139557,
				1
			],
			"translation":[
				25.800432205200195,
				-0.2999999523162842,
				-4.998964309692383
			]
		},
		{
			"mesh":7,
			"name":"holzfassade.036",
			"rotation":[
				0,
				-1,
				0,
				4.371138828673793e-08
			],
			"scale":[
				1,
				0.3444444239139557,
				1
			],
			"translation":[
				15.435086250305176,
				2.799999952316284,
				-4.998964786529541
			]
		},
		{
			"mesh":8,
			"name":"holzfassade.037",
			"rotation":[
				0,
				0.7071068286895752,
				0,
				0.7071068286895752
			],
			"scale":[
				1.5,
				0.3444444239139557,
				1
			],
			"translation":[
				15.435086250305176,
				2.799999952316284,
				-5.278964996337891
			]
		},
		{
			"mesh":9,
			"name":"holzfassade.038",
			"rotation":[
				0,
				-1,
				0,
				4.371138828673793e-08
			],
			"scale":[
				1.100000023841858,
				0.3444444239139557,
				1
			],
			"translation":[
				15.435084342956543,
				2.799999952316284,
				-16.666765213012695
			]
		},
		{
			"mesh":10,
			"name":"holzfassade.039",
			"rotation":[
				0,
				0.7071068286895752,
				0,
				0.7071068286895752
			],
			"scale":[
				1,
				0.3444444239139557,
				1
			],
			"translation":[
				15.885086059570312,
				2.799999952316284,
				-16.65076446533203
			]
		},
		{
			"mesh":11,
			"name":"holzfassade.040",
			"scale":[
				1.100000023841858,
				0.3444444239139557,
				1
			],
			"translation":[
				15.869086265563965,
				2.799999952316284,
				-5.273796081542969
			]
		},
		{
			"mesh":12,
			"name":"holzfassade.041",
			"rotation":[
				0,
				0.7071068286895752,
				0,
				0.7071068286895752
			],
			"scale":[
				1.5,
				0.3444444239139557,
				1
			],
			"translation":[
				15.435086250305176,
				2.799999952316284,
				-16.946765899658203
			]
		}
	],
	"materials":[
		{
			"doubleSided":true,
			"name":"fichte",
			"pbrMetallicRoughness":{
				"baseColorTexture":{
					"index":0
				},
				"metallicFactor":0,
				"roughnessFactor":0.5
			}
		},
		{
			"doubleSided":true,
			"name":"fichte.001",
			"pbrMetallicRoughness":{
				"baseColorTexture":{
					"index":1
				},
				"metallicFactor":0,
				"roughnessFactor":0.5
			}
		}
	],
	"meshes":[
		{
			"name":"Cube.316",
			"primitives":[
				{
					"attributes":{
						"POSITION":0,
						"NORMAL":1,
						"TEXCOORD_0":2
					},
					"indices":3,
					"material":0
				}
			]
		},
		{
			"name":"Cube.317",
			"primitives":[
				{
					"attributes":{
						"POSITION":4,
						"NORMAL":5,
						"TEXCOORD_0":6
					},
					"indices":7,
					"material":1
				}
			]
		},
		{
			"name":"Cube.318",
			"primitives":[
				{
					"attributes":{
						"POSITION":8,
						"NORMAL":9,
						"TEXCOORD_0":10
					},
					"indices":11,
					"material":1
				}
			]
		},
		{
			"name":"Cube.319",
			"primitives":[
				{
					"attributes":{
						"POSITION":12,
						"NORMAL":13,
						"TEXCOORD_0":14
					},
					"indices":15,
					"material":1
				}
			]
		},
		{
			"name":"Cube.320",
			"primitives":[
				{
					"attributes":{
						"POSITION":16,
						"NORMAL":17,
						"TEXCOORD_0":18
					},
					"indices":11,
					"material":1
				}
			]
		},
		{
			"name":"Cube.321",
			"primitives":[
				{
					"attributes":{
						"POSITION":19,
						"NORMAL":20,
						"TEXCOORD_0":21
					},
					"indices":22,
					"material":1
				}
			]
		},
		{
			"name":"Cube.322",
			"primitives":[
				{
					"attributes":{
						"POSITION":23,
						"NORMAL":24,
						"TEXCOORD_0":25
					},
					"indices":22,
					"material":1
				}
			]
		},
		{
			"name":"Cube.323",
			"primitives":[
				{
					"attributes":{
						"POSITION":26,
						"NORMAL":27,
						"TEXCOORD_0":28
					},
					"indices":29,
					"material":1
				}
			]
		},
		{
			"name":"Cube.324",
			"primitives":[
				{
					"attributes":{
						"POSITION":30,
						"NORMAL":31,
						"TEXCOORD_0":32
					},
					"indices":22,
					"material":1
				}
			]
		},
		{
			"name":"Cube.325",
			"primitives":[
				{
					"attributes":{
						"POSITION":33,
						"NORMAL":34,
						"TEXCOORD_0":35
					},
					"indices":36,
					"material":1
				}
			]
		},
		{
			"name":"Cube.326",
			"primitives":[
				{
					"attributes":{
						"POSITION":37,
						"NORMAL":38,
						"TEXCOORD_0":39
					},
					"indices":40,
					"material":1
				}
			]
		},
		{
			"name":"Cube.327",
			"primitives":[
				{
					"attributes":{
						"POSITION":41,
						"NORMAL":42,
						"TEXCOORD_0":43
					},
					"indices":36,
					"material":1
				}
			]
		},
		{
			"name":"Cube.328",
			"primitives":[
				{
					"attributes":{
						"POSITION":44,
						"NORMAL":45,
						"TEXCOORD_0":46
					},
					"indices":22,
					"material":1
				}
			]
		}
	],
	"textures":[
		{
			"sampler":0,
			"source":0
		},
		{
			"sampler":0,
			"source":0
		}
	],
	"images":[
		{
			"mimeType":"image/jpeg",
			"name":"fichte - grau",
			"uri":"fichte%20-%20grau.jpg"
		}
	],
	"accessors":[
		{
			"bufferView":0,
			"componentType":5126,
			"count":4992,
			"max":[
				0,
				9,
				0
			],
			"min":[
				-10.394999504089355,
				0,
				-0.019999999552965164
			],
			"type":"VEC3"
		},
		{
			"bufferView":1,
			"componentType":5126,
			"count":4992,
			"type":"VEC3"
		},
		{
			"bufferView":2,
			"componentType":5126,
			"count":4992,
			"type":"VEC2"
		},
		{
			"bufferView":3,
			"componentType":5123,
			"count":6864,
			"type":"SCALAR"
		},
		{
			"bufferView":4,
			"componentType":5126,
			"count":2856,
			"max":[
				0,
				9,
				0
			],
			"min":[
				-5.194999694824219,
				0,
				-0.019999999552965164
			],
			"type":"VEC3"
		},
		{
			"bufferView":5,
			"componentType":5126,
			"count":2856,
			"type":"VEC3"
		},
		{
			"bufferView":6,
			"componentType":5126,
			"count":2856,
			"type":"VEC2"
		},
		{
			"bufferView":7,
			"componentType":5123,
			"count":4080,
			"type":"SCALAR"
		},
		{
			"bufferView":8,
			"componentType":5126,
			"count":384,
			"max":[
				0,
				9,
				0
			],
			"min":[
				-0.7949999570846558,
				0,
				-0.019999999552965164
			],
			"type":"VEC3"
		},
		{
			"bufferView":9,
			"componentType":5126,
			"count":384,
			"type":"VEC3"
		},
		{
			"bufferView":10,
			"componentType":5126,
			"count":384,
			"type":"VEC2"
		},
		{
			"bufferView":11,
			"componentType":5123,
			"count":528,
			"type":"SCALAR"
		},
		{
			"bufferView":12,
			"componentType":5126,
			"count":4224,
			"max":[
				0,
				9,
				0
			],
			"min":[
				-6.59499979019165,
				0,
				-0.019999999552965164
			],
			"type":"VEC3"
		},
		{
			"bufferView":13,
			"componentType":5126,
			"count":4224,
			"type":"VEC3"
		},
		{
			"bufferView":14,
			"componentType":5126,
			"count":4224,
			"type":"VEC2"
		},
		{
			"bufferView":15,
			"componentType":5123,
			"count":6276,
			"type":"SCALAR"
		},
		{
			"bufferView":16,
			"componentType":5126,
			"count":384,
			"max":[
				0,
				9,
				0
			],
			"min":[
				-0.7949999570846558,
				0,
				-0.019999999552965164
			],
			"type":"VEC3"
		},
		{
			"bufferView":17,
			"componentType":5126,
			"count":384,
			"type":"VEC3"
		},
		{
			"bufferView":18,
			"componentType":5126,
			"count":384,
			"type":"VEC2"
		},
		{
			"bufferView":19,
			"componentType":5126,
			"count":96,
			"max":[
				0,
				9,
				0
			],
			"min":[
				-0.19499999284744263,
				0,
				-0.019999999552965164
			],
			"type":"VEC3"
		},
		{
			"bufferView":20,
			"componentType":5126,
			"count":96,
			"type":"VEC3"
		},
		{
			"bufferView":21,
			"componentType":5126,
			"count":96,
			"type":"VEC2"
		},
		{
			"bufferView":22,
			"componentType":5123,
			"count":132,
			"type":"SCALAR"
		},
		{
			"bufferView":23,
			"componentType":5126,
			"count":96,
			"max":[
				0,
				9,
				0
			],
			"min":[
				-0.19499999284744263,
				0,
				-0.019999999552965164
			],
			"type":"VEC3"
		},
		{
			"bufferView":24,
			"componentType":5126,
			"count":96,
			"type":"VEC3"
		},
		{
			"bufferView":25,
			"componentType":5126,
			"count":96,
			"type":"VEC2"
		},
		{
			"bufferView":26,
			"componentType":5126,
			"count":6064,
			"max":[
				0,
				9,
				0
			],
			"min":[
				-10.394999504089355,
				0,
				-0.019999999552965164
			],
			"type":"VEC3"
		},
		{
			"bufferView":27,
			"componentType":5126,
			"count":6064,
			"type":"VEC3"
		},
		{
			"bufferView":28,
			"componentType":5126,
			"count":6064,
			"type":"VEC2"
		},
		{
			"bufferView":29,
			"componentType":5123,
			"count":8856,
			"type":"SCALAR"
		},
		{
			"bufferView":30,
			"componentType":5126,
			"count":96,
			"max":[
				0,
				9,
				0
			],
			"min":[
				-0.19499999284744263,
				0,
				-0.019999999552965164
			],
			"type":"VEC3"
		},
		{
			"bufferView":31,
			"componentType":5126,
			"count":96,
			"type":"VEC3"
		},
		{
			"bufferView":32,
			"componentType":5126,
			"count":96,
			"type":"VEC2"
		},
		{
			"bufferView":33,
			"componentType":5126,
			"count":192,
			"max":[
				0,
				9,
				0
			],
			"min":[
				-0.39499998092651367,
				0,
				-0.019999999552965164
			],
			"type":"VEC3"
		},
		{
			"bufferView":34,
			"componentType":5126,
			"count":192,
			"type":"VEC3"
		},
		{
			"bufferView":35,
			"componentType":5126,
			"count":192,
			"type":"VEC2"
		},
		{
			"bufferView":36,
			"componentType":5123,
			"count":264,
			"type":"SCALAR"
		},
		{
			"bufferView":37,
			"componentType":5126,
			"count":7468,
			"max":[
				0,
				9,
				0
			],
			"min":[
				-11.394998550415039,
				0,
				-0.019999999552965164
			],
			"type":"VEC3"
		},
		{
			"bufferView":38,
			"componentType":5126,
			"count":7468,
			"type":"VEC3"
		},
		{
			"bufferView":39,
			"componentType":5126,
			"count":7468,
			"type":"VEC2"
		},
		{
			"bufferView":40,
			"componentType":5123,
			"count":11124,
			"type":"SCALAR"
		},
		{
			"bufferView":41,
			"componentType":5126,
			"count":192,
			"max":[
				0,
				9,
				0
			],
			"min":[
				-0.39499998092651367,
				0,
				-0.019999999552965164
			],
			"type":"VEC3"
		},
		{
			"bufferView":42,
			"componentType":5126,
			"count":192,
			"type":"VEC3"
		},
		{
			"bufferView":43,
			"componentType":5126,
			"count":192,
			"type":"VEC2"
		},
		{
			"bufferView":44,
			"componentType":5126,
			"count":96,
			"max":[
				0,
				9,
				0
			],
			"min":[
				-0.19499999284744263,
				0,
				-0.019999999552965164
			],
			"type":"VEC3"
		},
		{
			"bufferView":45,
			"componentType":5126,
			"count":96,
			"type":"VEC3"
		},
		{
			"bufferView":46,
			"componentType":5126,
			"count":96,
			"type":"VEC2"
		}
	],
	"bufferViews":[
		{
			"buffer":0,
			"byteLength":59904,
			"byteOffset":0,
			"target":34962
		},
		{
			"buffer":0,
			"byteLength":59904,
			"byteOffset":59904,
			"target":34962
		},
		{
			"buffer":0,
			"byteLength":39936,
			"byteOffset":119808,
			"target":34962
		},
		{
			"buffer":0,
			"byteLength":13728,
			"byteOffset":159744,
			"target":34963
		},
		{
			"buffer":0,
			"byteLength":34272,
			"byteOffset":173472,
			"target":34962
		},
		{
			"buffer":0,
			"byteLength":34272,
			"byteOffset":207744,
			"target":34962
		},
		{
			"buffer":0,
			"byteLength":22848,
			"byteOffset":242016,
			"target":34962
		},
		{
			"buffer":0,
			"byteLength":8160,
			"byteOffset":264864,
			"target":34963
		},
		{
			"buffer":0,
			"byteLength":4608,
			"byteOffset":273024,
			"target":34962
		},
		{
			"buffer":0,
			"byteLength":4608,
			"byteOffset":277632,
			"target":34962
		},
		{
			"buffer":0,
			"byteLength":3072,
			"byteOffset":282240,
			"target":34962
		},
		{
			"buffer":0,
			"byteLength":1056,
			"byteOffset":285312,
			"target":34963
		},
		{
			"buffer":0,
			"byteLength":50688,
			"byteOffset":286368,
			"target":34962
		},
		{
			"buffer":0,
			"byteLength":50688,
			"byteOffset":337056,
			"target":34962
		},
		{
			"buffer":0,
			"byteLength":33792,
			"byteOffset":387744,
			"target":34962
		},
		{
			"buffer":0,
			"byteLength":12552,
			"byteOffset":421536,
			"target":34963
		},
		{
			"buffer":0,
			"byteLength":4608,
			"byteOffset":434088,
			"target":34962
		},
		{
			"buffer":0,
			"byteLength":4608,
			"byteOffset":438696,
			"target":34962
		},
		{
			"buffer":0,
			"byteLength":3072,
			"byteOffset":443304,
			"target":34962
		},
		{
			"buffer":0,
			"byteLength":1152,
			"byteOffset":446376,
			"target":34962
		},
		{
			"buffer":0,
			"byteLength":1152,
			"byteOffset":447528,
			"target":34962
		},
		{
			"buffer":0,
			"byteLength":768,
			"byteOffset":448680,
			"target":34962
		},
		{
			"buffer":0,
			"byteLength":264,
			"byteOffset":449448,
			"target":34963
		},
		{
			"buffer":0,
			"byteLength":1152,
			"byteOffset":449712,
			"target":34962
		},
		{
			"buffer":0,
			"byteLength":1152,
			"byteOffset":450864,
			"target":34962
		},
		{
			"buffer":0,
			"byteLength":768,
			"byteOffset":452016,
			"target":34962
		},
		{
			"buffer":0,
			"byteLength":72768,
			"byteOffset":452784,
			"target":34962
		},
		{
			"buffer":0,
			"byteLength":72768,
			"byteOffset":525552,
			"target":34962
		},
		{
			"buffer":0,
			"byteLength":48512,
			"byteOffset":598320,
			"target":34962
		},
		{
			"buffer":0,
			"byteLength":17712,
			"byteOffset":646832,
			"target":34963
		},
		{
			"buffer":0,
			"byteLength":1152,
			"byteOffset":664544,
			"target":34962
		},
		{
			"buffer":0,
			"byteLength":1152,
			"byteOffset":665696,
			"target":34962
		},
		{
			"buffer":0,
			"byteLength":768,
			"byteOffset":666848,
			"target":34962
		},
		{
			"buffer":0,
			"byteLength":2304,
			"byteOffset":667616,
			"target":34962
		},
		{
			"buffer":0,
			"byteLength":2304,
			"byteOffset":669920,
			"target":34962
		},
		{
			"buffer":0,
			"byteLength":1536,
			"byteOffset":672224,
			"target":34962
		},
		{
			"buffer":0,
			"byteLength":528,
			"byteOffset":673760,
			"target":34963
		},
		{
			"buffer":0,
			"byteLength":89616,
			"byteOffset":674288,
			"target":34962
		},
		{
			"buffer":0,
			"byteLength":89616,
			"byteOffset":763904,
			"target":34962
		},
		{
			"buffer":0,
			"byteLength":59744,
			"byteOffset":853520,
			"target":34962
		},
		{
			"buffer":0,
			"byteLength":22248,
			"byteOffset":913264,
			"target":34963
		},
		{
			"buffer":0,
			"byteLength":2304,
			"byteOffset":935512,
			"target":34962
		},
		{
			"buffer":0,
			"byteLength":2304,
			"byteOffset":937816,
			"target":34962
		},
		{
			"buffer":0,
			"byteLength":1536,
			"byteOffset":940120,
			"target":34962
		},
		{
			"buffer":0,
			"byteLength":1152,
			"byteOffset":941656,
			"target":34962
		},
		{
			"buffer":0,
			"byteLength":1152,
			"byteOffset":942808,
			"target":34962
		},
		{
			"buffer":0,
			"byteLength":768,
			"byteOffset":943960,
			"target":34962
		}
	],
	"samplers":[
		{
			"magFilter":9729,
			"minFilter":9987
		}
	],
	"buffers":[
		{
			"byteLength":944728,
			"uri":"OG_Fassade.bin"
		}
	]
}
