{
	"asset":{
		"generator":"Khronos glTF Blender I/O v5.1.18",
		"version":"2.0"
	},
	"extensionsUsed":[
		"KHR_materials_clearcoat",
		"KHR_materials_specular",
		"KHR_materials_ior",
		"KHR_materials_sheen"
	],
	"scene":0,
	"scenes":[
		{
			"name":"Scene",
			"nodes":[
				0,
				1,
				2,
				3,
				4,
				5,
				6,
				7,
				8,
				9,
				10,
				11,
				12,
				13
			]
		}
	],
	"nodes":[
		{
			"mesh":0,
			"name":"_.008",
			"scale":[
				180.7771759033203,
				236.36358642578125,
				107.17752838134766
			],
			"translation":[
				23.44561767578125,
				3.1000003814697266,
				-15.406420707702637
			]
		},
		{
			"mesh":1,
			"name":"_Curve.012",
			"rotation":[
				0,
				-0.7071068286895752,
				0,
				0.7071068286895752
			],
			"scale":[
				166.7411346435547,
				122.72725677490234,
				124.99998474121094
			],
			"translation":[
				21.870121002197266,
				5.799999713897705,
				-13.434033393859863
			]
		},
		{
			"mesh":2,
			"name":"_Wand-T\u00fcren.004",
			"scale":[
				124.99998474121094,
				119.9999771118164,
				85.74066925048828
			],
			"translation":[
				24.569610595703125,
				3.1599998474121094,
				-8.064020156860352
			]
		},
		{
			"mesh":3,
			"name":"_Wand-T\u00fcren.005",
			"scale":[
				124.99998474121094,
				119.9999771118164,
				124.99998474121094
			],
			"translation":[
				21.87008285522461,
				3.1599996089935303,
				-13.284034729003906
			]
		},
		{
			"mesh":4,
			"name":"_Wand-T\u00fcren.006",
			"scale":[
				165.0552215576172,
				122.72725677490234,
				107.17868041992188
			],
			"translation":[
				25.43568229675293,
				5.799999713897705,
				-13.434037208557129
			]
		},
		{
			"mesh":5,
			"name":"Curve.065",
			"rotation":[
				0,
				0.7071067094802856,
				0,
				0.7071068286895752
			],
			"scale":[
				42.86234664916992,
				120.45452117919922,
				27.98299217224121
			],
			"translation":[
				22.045061111450195,
				3.1599998474121094,
				-8.004493713378906
			]
		},
		{
			"mesh":6,
			"name":"Curve.066",
			"translation":[
				0.800000011920929,
				3.0999999046325684,
				0.04999999701976776
			]
		},
		{
			"mesh":7,
			"name":"Curve.067",
			"scale":[
				124.99998474121094,
				163.87612915039062,
				124.99998474121094
			],
			"translation":[
				16.25092124938965,
				3.1599998474121094,
				-11.803397178649902
			]
		},
		{
			"mesh":8,
			"name":"_.009",
			"rotation":[
				0,
				0.7071068286895752,
				0,
				0.7071068286895752
			],
			"scale":[
				135.56312561035156,
				122.72725677490234,
				35.72584533691406
			],
			"translation":[
				24.604135513305664,
				3.0999999046325684,
				-13.279158592224121
			]
		},
		{
			"mesh":9,
			"name":"Curve.068",
			"translation":[
				21.28997230529785,
				3.1599998474121094,
				-7.444019794464111
			]
		},
		{
			"mesh":10,
			"name":"Curve.069",
			"scale":[
				85.72469329833984,
				119.9999771118164,
				119.92711639404297
			],
			"translation":[
				21.41745376586914,
				3.1599998474121094,
				-5.364020347595215
			]
		},
		{
			"mesh":11,
			"name":"Curve.070",
			"rotation":[
				0,
				0.7071067094802856,
				0,
				0.7071068286895752
			],
			"scale":[
				42.86234664916992,
				120.45452117919922,
				27.98299217224121
			],
			"translation":[
				22.045061111450195,
				3.1599998474121094,
				-8.064494132995605
			]
		},
		{
			"mesh":12,
			"name":"_Wand-T\u00fcren.007",
			"scale":[
				124.99998474121094,
				119.9999771118164,
				124.99998474121094
			],
			"translation":[
				21.87008285522461,
				3.1599996089935303,
				-13.284034729003906
			]
		},
		{
			"mesh":13,
			"name":"Curve.071",
			"scale":[
				0.03333333507180214,
				0.47547173500061035,
				3.125000476837158
			],
			"translation":[
				23.573148727416992,
				2.799999952316284,
				-12.056610107421875
			]
		}
	],
	"materials":[
		{
			"doubleSided":true,
			"name":"AussenPutz",
			"pbrMetallicRoughness":{
				"baseColorFactor":[
					0.7766516208648682,
					0.7766516208648682,
					0.7766516208648682,
					1
				],
				"metallicFactor":0
			}
		},
		{
			"doubleSided":true,
			"name":"mdf black",
			"pbrMetallicRoughness":{
				"baseColorFactor":[
					0.0110981035977602,
					0.0110981035977602,
					0.0110981035977602,
					1
				],
				"metallicFactor":0,
				"roughnessFactor":0.5
			}
		},
		{
			"doubleSided":true,
			"extensions":{
				"KHR_materials_clearcoat":{
					"clearcoatFactor":0.2537764608860016,
					"clearcoatRoughnessFactor":1
				},
				"KHR_materials_specular":{
					"specularFactor":-4,
					"specularColorFactor":[
						0.0,
						0.0,
						0.0
					]
				},
				"KHR_materials_sheen":{
					"sheenRoughnessFactor":1
				},
				"KHR_materials_ior":{
					"ior":1
				}
			},
			"name":"BEtonPutz",
			"pbrMetallicRoughness":{
				"baseColorFactor":[
					0.4609302282333374,
					0.4524785578250885,
					0.41483718156814575,
					1
				],
				"metallicFactor":0
			}
		},
		{
			"doubleSided":true,
			"name":"mdf green",
			"pbrMetallicRoughness":{
				"baseColorFactor":[
					0.162029430270195,
					0.22322800755500793,
					0.14126333594322205,
					1
				],
				"metallicFactor":0,
				"roughnessFactor":0.5
			}
		},
		{
			"doubleSided":true,
			"name":"mdf green.001",
			"pbrMetallicRoughness":{
				"baseColorFactor":[
					0.162029430270195,
					0.22322800755500793,
					0.14126333594322205,
					1
				],
				"metallicFactor":0,
				"roughnessFactor":0.5
			}
		},
		{
			"doubleSided":true,
			"name":"mdf green.002",
			"pbrMetallicRoughness":{
				"baseColorFactor":[
					0.162029430270195,
					0.22322800755500793,
					0.14126333594322205,
					1
				],
				"metallicFactor":0,
				"roughnessFactor":0.5
			}
		},
		{
			"doubleSided":true,
			"name":"AussenPutz.035",
			"pbrMetallicRoughness":{
				"baseColorFactor":[
					0.7766516208648682,
					0.7766516208648682,
					0.7766516208648682,
					1
				],
				"metallicFactor":0
			}
		}
	],
	"meshes":[
		{
			"name":"Curve.187",
			"primitives":[
				{
					"attributes":{
						"POSITION":0,
						"NORMAL":1,
						"TEXCOORD_0":2
					},
					"indices":3
				}
			]
		},
		{
			"name":"Curve.188",
			"primitives":[
				{
					"attributes":{
						"POSITION":4,
						"NORMAL":5,
						"TEXCOORD_0":6
					},
					"indices":7,
					"material":0
				}
			]
		},
		{
			"name":"Curve.189",
			"primitives":[
				{
					"attributes":{
						"POSITION":8,
						"NORMAL":9,
						"TEXCOORD_0":10
					},
					"indices":11,
					"material":1
				}
			]
		},
		{
			"name":"Curve.190",
			"primitives":[
				{
					"attributes":{
						"POSITION":12,
						"NORMAL":13,
						"TEXCOORD_0":14
					},
					"indices":15,
					"material":1
				}
			]
		},
		{
			"name":"Curve.191",
			"primitives":[
				{
					"attributes":{
						"POSITION":16,
						"NORMAL":17,
						"TEXCOORD_0":18
					},
					"indices":19,
					"material":0
				}
			]
		},
		{
			"name":"Curve.192",
			"primitives":[
				{
					"attributes":{
						"POSITION":20,
						"NORMAL":21,
						"TEXCOORD_0":22
					},
					"indices":23,
					"material":1
				}
			]
		},
		{
			"name":"Curve.193",
			"primitives":[
				{
					"attributes":{
						"POSITION":24,
						"NORMAL":25,
						"TEXCOORD_0":26
					},
					"indices":27,
					"material":0
				},
				{
					"attributes":{
						"POSITION":28,
						"NORMAL":29,
						"TEXCOORD_0":30
					},
					"indices":31,
					"material":2
				}
			]
		},
		{
			"name":"Curve.195",
			"primitives":[
				{
					"attributes":{
						"POSITION":32,
						"NORMAL":33,
						"TEXCOORD_0":34
					},
					"indices":35,
					"material":0
				}
			]
		},
		{
			"name":"Curve.196",
			"primitives":[
				{
					"attributes":{
						"POSITION":36,
						"NORMAL":37,
						"TEXCOORD_0":38
					},
					"indices":3
				}
			]
		},
		{
			"name":"Curve.197",
			"primitives":[
				{
					"attributes":{
						"POSITION":39,
						"NORMAL":40,
						"TEXCOORD_0":41
					},
					"indices":23,
					"material":3
				}
			]
		},
		{
			"name":"Curve.199",
			"primitives":[
				{
					"attributes":{
						"POSITION":42,
						"NORMAL":43,
						"TEXCOORD_0":44
					},
					"indices":23,
					"material":4
				}
			]
		},
		{
			"name":"Curve.201",
			"primitives":[
				{
					"attributes":{
						"POSITION":45,
						"NORMAL":46,
						"TEXCOORD_0":47
					},
					"indices":23,
					"material":5
				}
			]
		},
		{
			"name":"Curve.202",
			"primitives":[
				{
					"attributes":{
						"POSITION":48,
						"NORMAL":49,
						"TEXCOORD_0":50
					},
					"indices":51,
					"material":6
				}
			]
		},
		{
			"name":"Curve.203",
			"primitives":[
				{
					"attributes":{
						"POSITION":52,
						"NORMAL":53,
						"TEXCOORD_0":54
					},
					"indices":23,
					"material":1
				}
			]
		}
	],
	"accessors":[
		{
			"bufferView":0,
			"componentType":5126,
			"count":24,
			"max":[
				0,
				0.021791886538267136,
				0
			],
			"min":[
				-0.0077454689890146255,
				0,
				-0.0013995469780638814
			],
			"type":"VEC3"
		},
		{
			"bufferView":1,
			"componentType":5126,
			"count":24,
			"type":"VEC3"
		},
		{
			"bufferView":2,
			"componentType":5126,
			"count":24,
			"type":"VEC2"
		},
		{
			"bufferView":3,
			"componentType":5123,
			"count":36,
			"type":"SCALAR"
		},
		{
			"bufferView":4,
			"componentType":5126,
			"count":24,
			"max":[
				0,
				1.862645149230957e-09,
				0
			],
			"min":[
				-0.013178750872612,
				-0.02200000174343586,
				-0.0013995319604873657
			],
			"type":"VEC3"
		},
		{
			"bufferView":5,
			"componentType":5126,
			"count":24,
			"type":"VEC3"
		},
		{
			"bufferView":6,
			"componentType":5126,
			"count":24,
			"type":"VEC2"
		},
		{
			"bufferView":7,
			"componentType":5123,
			"count":36,
			"type":"SCALAR"
		},
		{
			"bufferView":8,
			"componentType":5126,
			"count":48,
			"max":[
				-1.4901161193847656e-08,
				0.022000005468726158,
				0.0013995766639709473
			],
			"min":[
				-0.020196398720145226,
				1.862645149230957e-09,
				7.450580596923828e-09
			],
			"type":"VEC3"
		},
		{
			"bufferView":9,
			"componentType":5126,
			"count":48,
			"type":"VEC3"
		},
		{
			"bufferView":10,
			"componentType":5126,
			"count":48,
			"type":"VEC2"
		},
		{
			"bufferView":11,
			"componentType":5123,
			"count":84,
			"type":"SCALAR"
		},
		{
			"bufferView":12,
			"componentType":5126,
			"count":48,
			"max":[
				0.0013998448848724365,
				0.02200000174343586,
				0.04180943965911865
			],
			"min":[
				0,
				0,
				0.03014577180147171
			],
			"type":"VEC3"
		},
		{
			"bufferView":13,
			"componentType":5126,
			"count":48,
			"type":"VEC3"
		},
		{
			"bufferView":14,
			"componentType":5126,
			"count":48,
			"type":"VEC2"
		},
		{
			"bufferView":15,
			"componentType":5123,
			"count":96,
			"type":"SCALAR"
		},
		{
			"bufferView":16,
			"componentType":5126,
			"count":48,
			"max":[
				2.7567148208618164e-06,
				1.862645149230957e-09,
				0.0013995543122291565
			],
			"min":[
				-0.021601764485239983,
				-0.02200000174343586,
				2.2351741790771484e-08
			],
			"type":"VEC3"
		},
		{
			"bufferView":17,
			"componentType":5126,
			"count":48,
			"type":"VEC3"
		},
		{
			"bufferView":18,
			"componentType":5126,
			"count":48,
			"type":"VEC2"
		},
		{
			"bufferView":19,
			"componentType":5123,
			"count":96,
			"type":"SCALAR"
		},
		{
			"bufferView":20,
			"componentType":5126,
			"count":24,
			"max":[
				1.4901161193847656e-08,
				0.022000005468726158,
				0
			],
			"min":[
				-0.0013998150825500488,
				1.862645149230957e-09,
				-0.022513674572110176
			],
			"type":"VEC3"
		},
		{
			"bufferView":21,
			"componentType":5126,
			"count":24,
			"type":"VEC3"
		},
		{
			"bufferView":22,
			"componentType":5126,
			"count":24,
			"type":"VEC2"
		},
		{
			"bufferView":23,
			"componentType":5123,
			"count":36,
			"type":"SCALAR"
		},
		{
			"bufferView":24,
			"componentType":5126,
			"count":20,
			"max":[
				21.07008171081543,
				5.200000286102295,
				-9.558450698852539
			],
			"min":[
				15.450216293334961,
				0,
				-9.733397483825684
			],
			"type":"VEC3"
		},
		{
			"bufferView":25,
			"componentType":5126,
			"count":20,
			"type":"VEC3"
		},
		{
			"bufferView":26,
			"componentType":5126,
			"count":20,
			"type":"VEC2"
		},
		{
			"bufferView":27,
			"componentType":5123,
			"count":30,
			"type":"SCALAR"
		},
		{
			"bufferView":28,
			"componentType":5126,
			"count":4,
			"max":[
				21.07008171081543,
				5.200000286102295,
				-9.558450698852539
			],
			"min":[
				15.450216293334961,
				0,
				-9.558451652526855
			],
			"type":"VEC3"
		},
		{
			"bufferView":29,
			"componentType":5126,
			"count":4,
			"type":"VEC3"
		},
		{
			"bufferView":30,
			"componentType":5126,
			"count":4,
			"type":"VEC2"
		},
		{
			"bufferView":31,
			"componentType":5123,
			"count":6,
			"type":"SCALAR"
		},
		{
			"bufferView":32,
			"componentType":5126,
			"count":48,
			"max":[
				0.04506335407495499,
				0.016109729185700417,
				4.470348358154297e-08
			],
			"min":[
				0,
				1.8626450382086546e-09,
				-0.0009593591094017029
			],
			"type":"VEC3"
		},
		{
			"bufferView":33,
			"componentType":5126,
			"count":48,
			"type":"VEC3"
		},
		{
			"bufferView":34,
			"componentType":5126,
			"count":48,
			"type":"VEC2"
		},
		{
			"bufferView":35,
			"componentType":5123,
			"count":72,
			"type":"SCALAR"
		},
		{
			"bufferView":36,
			"componentType":5126,
			"count":24,
			"max":[
				-1.4901161193847656e-08,
				0.022000005468726158,
				0.0013995468616485596
			],
			"min":[
				-0.007745483890175819,
				1.862645149230957e-09,
				0
			],
			"type":"VEC3"
		},
		{
			"bufferView":37,
			"componentType":5126,
			"count":24,
			"type":"VEC3"
		},
		{
			"bufferView":38,
			"componentType":5126,
			"count":24,
			"type":"VEC2"
		},
		{
			"bufferView":39,
			"componentType":5126,
			"count":24,
			"max":[
				0,
				2.6499996185302734,
				1.2800003290176392
			],
			"min":[
				-0.5999999642372131,
				-2.2436400115566357e-07,
				4.235978963151865e-07
			],
			"type":"VEC3"
		},
		{
			"bufferView":40,
			"componentType":5126,
			"count":24,
			"type":"VEC3"
		},
		{
			"bufferView":41,
			"componentType":5126,
			"count":24,
			"type":"VEC2"
		},
		{
			"bufferView":42,
			"componentType":5126,
			"count":24,
			"max":[
				1.4901161193847656e-08,
				0.022000005468726158,
				0
			],
			"min":[
				-0.0013998150825500488,
				1.862645149230957e-09,
				-0.022513674572110176
			],
			"type":"VEC3"
		},
		{
			"bufferView":43,
			"componentType":5126,
			"count":24,
			"type":"VEC3"
		},
		{
			"bufferView":44,
			"componentType":5126,
			"count":24,
			"type":"VEC2"
		},
		{
			"bufferView":45,
			"componentType":5126,
			"count":24,
			"max":[
				1.4901161193847656e-08,
				0.022000005468726158,
				0
			],
			"min":[
				-0.0013998150825500488,
				1.862645149230957e-09,
				-0.022513674572110176
			],
			"type":"VEC3"
		},
		{
			"bufferView":46,
			"componentType":5126,
			"count":24,
			"type":"VEC3"
		},
		{
			"bufferView":47,
			"componentType":5126,
			"count":24,
			"type":"VEC2"
		},
		{
			"bufferView":48,
			"componentType":5126,
			"count":48,
			"max":[
				0.0013998448848724365,
				0.02200000174343586,
				0.03014577180147171
			],
			"min":[
				0,
				0,
				0
			],
			"type":"VEC3"
		},
		{
			"bufferView":49,
			"componentType":5126,
			"count":48,
			"type":"VEC3"
		},
		{
			"bufferView":50,
			"componentType":5126,
			"count":48,
			"type":"VEC2"
		},
		{
			"bufferView":51,
			"componentType":5123,
			"count":96,
			"type":"SCALAR"
		},
		{
			"bufferView":52,
			"componentType":5126,
			"count":24,
			"max":[
				0,
				2.6499996185302734,
				1.2800003290176392
			],
			"min":[
				-0.5999999642372131,
				-2.2436400115566357e-07,
				4.235978963151865e-07
			],
			"type":"VEC3"
		},
		{
			"bufferView":53,
			"componentType":5126,
			"count":24,
			"type":"VEC3"
		},
		{
			"bufferView":54,
			"componentType":5126,
			"count":24,
			"type":"VEC2"
		}
	],
	"bufferViews":[
		{
			"buffer":0,
			"byteLength":288,
			"byteOffset":0,
			"target":34962
		},
		{
			"buffer":0,
			"byteLength":288,
			"byteOffset":288,
			"target":34962
		},
		{
			"buffer":0,
			"byteLength":192,
			"byteOffset":576,
			"target":34962
		},
		{
			"buffer":0,
			"byteLength":72,
			"byteOffset":768,
			"target":34963
		},
		{
			"buffer":0,
			"byteLength":288,
			"byteOffset":840,
			"target":34962
		},
		{
			"buffer":0,
			"byteLength":288,
			"byteOffset":1128,
			"target":34962
		},
		{
			"buffer":0,
			"byteLength":192,
			"byteOffset":1416,
			"target":34962
		},
		{
			"buffer":0,
			"byteLength":72,
			"byteOffset":1608,
			"target":34963
		},
		{
			"buffer":0,
			"byteLength":576,
			"byteOffset":1680,
			"target":34962
		},
		{
			"buffer":0,
			"byteLength":576,
			"byteOffset":2256,
			"target":34962
		},
		{
			"buffer":0,
			"byteLength":384,
			"byteOffset":2832,
			"target":34962
		},
		{
			"buffer":0,
			"byteLength":168,
			"byteOffset":3216,
			"target":34963
		},
		{
			"buffer":0,
			"byteLength":576,
			"byteOffset":3384,
			"target":34962
		},
		{
			"buffer":0,
			"byteLength":576,
			"byteOffset":3960,
			"target":34962
		},
		{
			"buffer":0,
			"byteLength":384,
			"byteOffset":4536,
			"target":34962
		},
		{
			"buffer":0,
			"byteLength":192,
			"byteOffset":4920,
			"target":34963
		},
		{
			"buffer":0,
			"byteLength":576,
			"byteOffset":5112,
			"target":34962
		},
		{
			"buffer":0,
			"byteLength":576,
			"byteOffset":5688,
			"target":34962
		},
		{
			"buffer":0,
			"byteLength":384,
			"byteOffset":6264,
			"target":34962
		},
		{
			"buffer":0,
			"byteLength":192,
			"byteOffset":6648,
			"target":34963
		},
		{
			"buffer":0,
			"byteLength":288,
			"byteOffset":6840,
			"target":34962
		},
		{
			"buffer":0,
			"byteLength":288,
			"byteOffset":7128,
			"target":34962
		},
		{
			"buffer":0,
			"byteLength":192,
			"byteOffset":7416,
			"target":34962
		},
		{
			"buffer":0,
			"byteLength":72,
			"byteOffset":7608,
			"target":34963
		},
		{
			"buffer":0,
			"byteLength":240,
			"byteOffset":7680,
			"target":34962
		},
		{
			"buffer":0,
			"byteLength":240,
			"byteOffset":7920,
			"target":34962
		},
		{
			"buffer":0,
			"byteLength":160,
			"byteOffset":8160,
			"target":34962
		},
		{
			"buffer":0,
			"byteLength":60,
			"byteOffset":8320,
			"target":34963
		},
		{
			"buffer":0,
			"byteLength":48,
			"byteOffset":8380,
			"target":34962
		},
		{
			"buffer":0,
			"byteLength":48,
			"byteOffset":8428,
			"target":34962
		},
		{
			"buffer":0,
			"byteLength":32,
			"byteOffset":8476,
			"target":34962
		},
		{
			"buffer":0,
			"byteLength":12,
			"byteOffset":8508,
			"target":34963
		},
		{
			"buffer":0,
			"byteLength":576,
			"byteOffset":8520,
			"target":34962
		},
		{
			"buffer":0,
			"byteLength":576,
			"byteOffset":9096,
			"target":34962
		},
		{
			"buffer":0,
			"byteLength":384,
			"byteOffset":9672,
			"target":34962
		},
		{
			"buffer":0,
			"byteLength":144,
			"byteOffset":10056,
			"target":34963
		},
		{
			"buffer":0,
			"byteLength":288,
			"byteOffset":10200,
			"target":34962
		},
		{
			"buffer":0,
			"byteLength":288,
			"byteOffset":10488,
			"target":34962
		},
		{
			"buffer":0,
			"byteLength":192,
			"byteOffset":10776,
			"target":34962
		},
		{
			"buffer":0,
			"byteLength":288,
			"byteOffset":10968,
			"target":34962
		},
		{
			"buffer":0,
			"byteLength":288,
			"byteOffset":11256,
			"target":34962
		},
		{
			"buffer":0,
			"byteLength":192,
			"byteOffset":11544,
			"target":34962
		},
		{
			"buffer":0,
			"byteLength":288,
			"byteOffset":11736,
			"target":34962
		},
		{
			"buffer":0,
			"byteLength":288,
			"byteOffset":12024,
			"target":34962
		},
		{
			"buffer":0,
			"byteLength":192,
			"byteOffset":12312,
			"target":34962
		},
		{
			"buffer":0,
			"byteLength":288,
			"byteOffset":12504,
			"target":34962
		},
		{
			"buffer":0,
			"byteLength":288,
			"byteOffset":12792,
			"target":34962
		},
		{
			"buffer":0,
			"byteLength":192,
			"byteOffset":13080,
			"target":34962
		},
		{
			"buffer":0,
			"byteLength":576,
			"byteOffset":13272,
			"target":34962
		},
		{
			"buffer":0,
			"byteLength":576,
			"byteOffset":13848,
			"target":34962
		},
		{
			"buffer":0,
			"byteLength":384,
			"byteOffset":14424,
			"target":34962
		},
		{
			"buffer":0,
			"byteLength":192,
			"byteOffset":14808,
			"target":34963
		},
		{
			"buffer":0,
			"byteLength":288,
			"byteOffset":15000,
			"target":34962
		},
		{
			"buffer":0,
			"byteLength":288,
			"byteOffset":15288,
			"target":34962
		},
		{
			"buffer":0,
			"byteLength":192,
			"byteOffset":15576,
			"target":34962
		}
	],
	"buffers":[
		{
			"byteLength":15768,
			"uri":"OG_Innenw%C3%A4nde.bin"
		}
	]
}
