{
	"asset":{
		"generator":"Khronos glTF Blender I/O v5.1.18",
		"version":"2.0"
	},
	"scene":0,
	"scenes":[
		{
			"name":"Scene",
			"nodes":[
				0,
				1,
				2,
				3,
				4,
				5,
				6,
				7,
				8,
				9,
				10,
				11,
				12,
				13,
				14,
				15,
				16,
				17,
				18,
				19
			]
		}
	],
	"nodes":[
		{
			"mesh":0,
			"name":"Blockzarge.012",
			"rotation":[
				0,
				-1,
				0,
				7.549789415861596e-08
			],
			"scale":[
				0.019999999552965164,
				1.1924999952316284,
				0.019999999552965164
			],
			"translation":[
				22.01506233215332,
				3.1600000858306885,
				-12.121780395507812
			]
		},
		{
			"mesh":1,
			"name":"Blockzarge.013",
			"scale":[
				0.019999999552965164,
				1.1924999952316284,
				0.019999999552965164
			],
			"translation":[
				22.01506233215332,
				3.1600000858306885,
				-12.945780754089355
			]
		},
		{
			"mesh":2,
			"name":"Blockzarge.014",
			"rotation":[
				-0.7071068286895752,
				0,
				0,
				0.7071068286895752
			],
			"scale":[
				0.019999999552965164,
				0.41200000047683716,
				0.019999999552965164
			],
			"translation":[
				22.01506233215332,
				5.545000076293945,
				-12.121780395507812
			]
		},
		{
			"mesh":3,
			"name":"T\u00fcrblatt.004",
			"scale":[
				0.029999999329447746,
				1.1749999523162842,
				0.41200000047683716
			],
			"translation":[
				22.01506233215332,
				3.1600000858306885,
				-12.121780395507812
			]
		},
		{
			"mesh":4,
			"name":"Door.004",
			"rotation":[
				0.5,
				-0.5,
				0.5,
				0.5
			],
			"scale":[
				-0.8666666150093079,
				-1.6450296640396118,
				-1
			],
			"translation":[
				22.01506233215332,
				4.23081111907959,
				-12.85163688659668
			]
		},
		{
			"mesh":5,
			"name":"Blockzarge.048",
			"scale":[
				0.019999999552965164,
				1.1924999952316284,
				0.019999999552965164
			],
			"translation":[
				22.01506233215332,
				3.1600000858306885,
				-9.347355842590332
			]
		},
		{
			"mesh":6,
			"name":"Blockzarge.049",
			"rotation":[
				0,
				-1,
				0,
				7.549789415861596e-08
			],
			"scale":[
				0.019999999552965164,
				1.1924999952316284,
				0.019999999552965164
			],
			"translation":[
				22.01506233215332,
				3.1600000858306885,
				-8.523355484008789
			]
		},
		{
			"mesh":7,
			"name":"Blockzarge.050",
			"rotation":[
				0,
				-0.7071068286895752,
				-0.7071068286895752,
				5.338508302088485e-08
			],
			"scale":[
				0.019999999552965164,
				0.41200000047683716,
				0.019999999552965164
			],
			"translation":[
				22.01506233215332,
				5.545000076293945,
				-9.347355842590332
			]
		},
		{
			"mesh":8,
			"name":"T\u00fcrblatt.016",
			"rotation":[
				0,
				-1,
				0,
				7.549790126404332e-08
			],
			"scale":[
				0.029999999329447746,
				1.1749999523162842,
				0.41200000047683716
			],
			"translation":[
				22.01506233215332,
				3.1600000858306885,
				-9.347355842590332
			]
		},
		{
			"mesh":9,
			"name":"Door.016",
			"rotation":[
				0.5,
				0.5000000596046448,
				-0.5,
				0.4999999701976776
			],
			"scale":[
				-0.8666666150093079,
				-1.6450296640396118,
				-1
			],
			"translation":[
				22.01506233215332,
				4.23081111907959,
				-8.617499351501465
			]
		},
		{
			"mesh":10,
			"name":"Blockzarge.051",
			"rotation":[
				0,
				0.7071068286895752,
				0,
				0.7071067094802856
			],
			"scale":[
				0.019999999552965164,
				1.1924999952316284,
				0.019999999552965164
			],
			"translation":[
				22.235458374023438,
				3.1600000858306885,
				-8.034019470214844
			]
		},
		{
			"mesh":11,
			"name":"Blockzarge.052",
			"rotation":[
				0,
				-0.7071067094802856,
				0,
				0.7071068286895752
			],
			"scale":[
				0.019999999552965164,
				1.1924999952316284,
				0.019999999552965164
			],
			"translation":[
				23.059457778930664,
				3.1600000858306885,
				-8.034019470214844
			]
		},
		{
			"mesh":12,
			"name":"Blockzarge.053",
			"rotation":[
				-0.5,
				-0.5000000596046448,
				-0.5,
				0.4999999701976776
			],
			"scale":[
				0.019999999552965164,
				0.41200000047683716,
				0.019999999552965164
			],
			"translation":[
				22.235458374023438,
				5.545000076293945,
				-8.034019470214844
			]
		},
		{
			"mesh":13,
			"name":"T\u00fcrblatt.017",
			"rotation":[
				0,
				-0.7071067094802856,
				0,
				0.7071068286895752
			],
			"scale":[
				0.029999999329447746,
				1.1749999523162842,
				0.41200000047683716
			],
			"translation":[
				22.235458374023438,
				3.1600000858306885,
				-8.034019470214844
			]
		},
		{
			"mesh":14,
			"name":"Door.017",
			"rotation":[
				0,
				-0.7071068286895752,
				0.7071068286895752,
				4.284837373802475e-08
			],
			"scale":[
				-0.8666666150093079,
				-1.6450296640396118,
				-1
			],
			"translation":[
				22.965312957763672,
				4.23081111907959,
				-8.034019470214844
			]
		},
		{
			"mesh":15,
			"name":"Blockzarge.054",
			"rotation":[
				0,
				-0.7071066498756409,
				0,
				0.70710688829422
			],
			"scale":[
				0.019999999552965164,
				1.1924999952316284,
				0.019999999552965164
			],
			"translation":[
				24.41998291015625,
				3.1599998474121094,
				-13.314034461975098
			]
		},
		{
			"mesh":16,
			"name":"Blockzarge.055",
			"rotation":[
				0,
				0.7071067094802856,
				0,
				0.7071068286895752
			],
			"scale":[
				0.019999999552965164,
				1.1924999952316284,
				0.019999999552965164
			],
			"translation":[
				23.595983505249023,
				3.1599998474121094,
				-13.314034461975098
			]
		},
		{
			"mesh":17,
			"name":"Blockzarge.056",
			"rotation":[
				-0.5,
				0.5,
				0.5,
				0.5
			],
			"scale":[
				0.019999999552965164,
				0.41200000047683716,
				0.019999999552965164
			],
			"translation":[
				24.41998291015625,
				5.545000076293945,
				-13.314034461975098
			]
		},
		{
			"mesh":18,
			"name":"T\u00fcrblatt.018",
			"rotation":[
				0,
				0.7071067094802856,
				0,
				0.7071068286895752
			],
			"scale":[
				0.029999999329447746,
				1.1749999523162842,
				0.41200000047683716
			],
			"translation":[
				24.41998291015625,
				3.1599998474121094,
				-13.314034461975098
			]
		},
		{
			"mesh":19,
			"name":"Door.018",
			"rotation":[
				0.7071068286895752,
				0,
				0,
				0.7071068286895752
			],
			"scale":[
				-0.8666666150093079,
				-1.6450296640396118,
				-1
			],
			"translation":[
				23.690128326416016,
				4.23081111907959,
				-13.314034461975098
			]
		}
	],
	"materials":[
		{
			"doubleSided":true,
			"name":"Black.Matt.003",
			"pbrMetallicRoughness":{
				"baseColorFactor":[
					0.010681908577680588,
					0.010681908577680588,
					0.010681908577680588,
					1
				],
				"metallicFactor":0.39263802766799927,
				"roughnessFactor":0.6840490698814392
			}
		},
		{
			"doubleSided":true,
			"name":"Material.021",
			"pbrMetallicRoughness":{
				"baseColorFactor":[
					0.800000011920929,
					0.800000011920929,
					0.800000011920929,
					1
				],
				"metallicFactor":0,
				"roughnessFactor":0.5
			}
		},
		{
			"doubleSided":true,
			"name":"mdf black",
			"pbrMetallicRoughness":{
				"baseColorFactor":[
					0.0110981035977602,
					0.0110981035977602,
					0.0110981035977602,
					1
				],
				"metallicFactor":0,
				"roughnessFactor":0.5
			}
		}
	],
	"meshes":[
		{
			"name":"Cube.300",
			"primitives":[
				{
					"attributes":{
						"POSITION":0,
						"NORMAL":1,
						"TEXCOORD_0":2
					},
					"indices":3,
					"material":0
				}
			]
		},
		{
			"name":"Cube.301",
			"primitives":[
				{
					"attributes":{
						"POSITION":4,
						"NORMAL":5,
						"TEXCOORD_0":6
					},
					"indices":3,
					"material":0
				}
			]
		},
		{
			"name":"Cube.302",
			"primitives":[
				{
					"attributes":{
						"POSITION":7,
						"NORMAL":8,
						"TEXCOORD_0":9
					},
					"indices":3,
					"material":0
				}
			]
		},
		{
			"name":"Cube.303",
			"primitives":[
				{
					"attributes":{
						"POSITION":10,
						"NORMAL":11,
						"TEXCOORD_0":12
					},
					"indices":3,
					"material":1
				}
			]
		},
		{
			"name":"Plane.001_Glossy_0.004",
			"primitives":[
				{
					"attributes":{
						"POSITION":13,
						"NORMAL":14,
						"TEXCOORD_0":15,
						"TEXCOORD_1":16,
						"TEXCOORD_2":17
					},
					"indices":18,
					"material":0
				}
			]
		},
		{
			"name":"Cube.304",
			"primitives":[
				{
					"attributes":{
						"POSITION":19,
						"NORMAL":20,
						"TEXCOORD_0":21
					},
					"indices":3,
					"material":0
				}
			]
		},
		{
			"name":"Cube.305",
			"primitives":[
				{
					"attributes":{
						"POSITION":22,
						"NORMAL":23,
						"TEXCOORD_0":24
					},
					"indices":3,
					"material":0
				}
			]
		},
		{
			"name":"Cube.306",
			"primitives":[
				{
					"attributes":{
						"POSITION":25,
						"NORMAL":26,
						"TEXCOORD_0":27
					},
					"indices":3,
					"material":0
				}
			]
		},
		{
			"name":"Cube.307",
			"primitives":[
				{
					"attributes":{
						"POSITION":28,
						"NORMAL":29,
						"TEXCOORD_0":30
					},
					"indices":3,
					"material":2
				}
			]
		},
		{
			"name":"Plane.001_Glossy_0.005",
			"primitives":[
				{
					"attributes":{
						"POSITION":31,
						"NORMAL":32,
						"TEXCOORD_0":33,
						"TEXCOORD_1":34,
						"TEXCOORD_2":35
					},
					"indices":18,
					"material":0
				}
			]
		},
		{
			"name":"Cube.308",
			"primitives":[
				{
					"attributes":{
						"POSITION":36,
						"NORMAL":37,
						"TEXCOORD_0":38
					},
					"indices":3,
					"material":0
				}
			]
		},
		{
			"name":"Cube.309",
			"primitives":[
				{
					"attributes":{
						"POSITION":39,
						"NORMAL":40,
						"TEXCOORD_0":41
					},
					"indices":3,
					"material":0
				}
			]
		},
		{
			"name":"Cube.310",
			"primitives":[
				{
					"attributes":{
						"POSITION":42,
						"NORMAL":43,
						"TEXCOORD_0":44
					},
					"indices":3,
					"material":0
				}
			]
		},
		{
			"name":"Cube.311",
			"primitives":[
				{
					"attributes":{
						"POSITION":45,
						"NORMAL":46,
						"TEXCOORD_0":47
					},
					"indices":3,
					"material":2
				}
			]
		},
		{
			"name":"Plane.001_Glossy_0.006",
			"primitives":[
				{
					"attributes":{
						"POSITION":48,
						"NORMAL":49,
						"TEXCOORD_0":50,
						"TEXCOORD_1":51,
						"TEXCOORD_2":52
					},
					"indices":18,
					"material":0
				}
			]
		},
		{
			"name":"Cube.312",
			"primitives":[
				{
					"attributes":{
						"POSITION":53,
						"NORMAL":54,
						"TEXCOORD_0":55
					},
					"indices":3,
					"material":0
				}
			]
		},
		{
			"name":"Cube.313",
			"primitives":[
				{
					"attributes":{
						"POSITION":56,
						"NORMAL":57,
						"TEXCOORD_0":58
					},
					"indices":3,
					"material":0
				}
			]
		},
		{
			"name":"Cube.314",
			"primitives":[
				{
					"attributes":{
						"POSITION":59,
						"NORMAL":60,
						"TEXCOORD_0":61
					},
					"indices":3,
					"material":0
				}
			]
		},
		{
			"name":"Cube.315",
			"primitives":[
				{
					"attributes":{
						"POSITION":62,
						"NORMAL":63,
						"TEXCOORD_0":64
					},
					"indices":3,
					"material":1
				}
			]
		},
		{
			"name":"Plane.001_Glossy_0.007",
			"primitives":[
				{
					"attributes":{
						"POSITION":65,
						"NORMAL":66,
						"TEXCOORD_0":67,
						"TEXCOORD_1":68,
						"TEXCOORD_2":69
					},
					"indices":18,
					"material":0
				}
			]
		}
	],
	"accessors":[
		{
			"bufferView":0,
			"componentType":5126,
			"count":24,
			"max":[
				1,
				2,
				0
			],
			"min":[
				-1,
				0,
				-2
			],
			"type":"VEC3"
		},
		{
			"bufferView":1,
			"componentType":5126,
			"count":24,
			"type":"VEC3"
		},
		{
			"bufferView":2,
			"componentType":5126,
			"count":24,
			"type":"VEC2"
		},
		{
			"bufferView":3,
			"componentType":5123,
			"count":36,
			"type":"SCALAR"
		},
		{
			"bufferView":4,
			"componentType":5126,
			"count":24,
			"max":[
				1,
				2,
				0
			],
			"min":[
				-1,
				0,
				-2
			],
			"type":"VEC3"
		},
		{
			"bufferView":5,
			"componentType":5126,
			"count":24,
			"type":"VEC3"
		},
		{
			"bufferView":6,
			"componentType":5126,
			"count":24,
			"type":"VEC2"
		},
		{
			"bufferView":7,
			"componentType":5126,
			"count":24,
			"max":[
				1,
				2,
				0
			],
			"min":[
				-1,
				0,
				-2
			],
			"type":"VEC3"
		},
		{
			"bufferView":8,
			"componentType":5126,
			"count":24,
			"type":"VEC3"
		},
		{
			"bufferView":9,
			"componentType":5126,
			"count":24,
			"type":"VEC2"
		},
		{
			"bufferView":10,
			"componentType":5126,
			"count":24,
			"max":[
				1,
				2,
				0
			],
			"min":[
				-1,
				0,
				-2
			],
			"type":"VEC3"
		},
		{
			"bufferView":11,
			"componentType":5126,
			"count":24,
			"type":"VEC3"
		},
		{
			"bufferView":12,
			"componentType":5126,
			"count":24,
			"type":"VEC2"
		},
		{
			"bufferView":13,
			"componentType":5126,
			"count":1896,
			"max":[
				0.05747199058532715,
				0.058709338307380676,
				0.05469536781311035
			],
			"min":[
				-0.10081350803375244,
				-0.058709368109703064,
				-0.08812892436981201
			],
			"type":"VEC3"
		},
		{
			"bufferView":14,
			"componentType":5126,
			"count":1896,
			"type":"VEC3"
		},
		{
			"bufferView":15,
			"componentType":5126,
			"count":1896,
			"type":"VEC2"
		},
		{
			"bufferView":16,
			"componentType":5126,
			"count":1896,
			"type":"VEC2"
		},
		{
			"bufferView":17,
			"componentType":5126,
			"count":1896,
			"type":"VEC2"
		},
		{
			"bufferView":18,
			"componentType":5123,
			"count":7056,
			"type":"SCALAR"
		},
		{
			"bufferView":19,
			"componentType":5126,
			"count":24,
			"max":[
				1,
				2,
				0
			],
			"min":[
				-1,
				0,
				-2
			],
			"type":"VEC3"
		},
		{
			"bufferView":20,
			"componentType":5126,
			"count":24,
			"type":"VEC3"
		},
		{
			"bufferView":21,
			"componentType":5126,
			"count":24,
			"type":"VEC2"
		},
		{
			"bufferView":22,
			"componentType":5126,
			"count":24,
			"max":[
				1,
				2,
				0
			],
			"min":[
				-1,
				0,
				-2
			],
			"type":"VEC3"
		},
		{
			"bufferView":23,
			"componentType":5126,
			"count":24,
			"type":"VEC3"
		},
		{
			"bufferView":24,
			"componentType":5126,
			"count":24,
			"type":"VEC2"
		},
		{
			"bufferView":25,
			"componentType":5126,
			"count":24,
			"max":[
				1,
				2,
				0
			],
			"min":[
				-1,
				0,
				-2
			],
			"type":"VEC3"
		},
		{
			"bufferView":26,
			"componentType":5126,
			"count":24,
			"type":"VEC3"
		},
		{
			"bufferView":27,
			"componentType":5126,
			"count":24,
			"type":"VEC2"
		},
		{
			"bufferView":28,
			"componentType":5126,
			"count":24,
			"max":[
				1,
				2,
				0
			],
			"min":[
				-1,
				0,
				-2
			],
			"type":"VEC3"
		},
		{
			"bufferView":29,
			"componentType":5126,
			"count":24,
			"type":"VEC3"
		},
		{
			"bufferView":30,
			"componentType":5126,
			"count":24,
			"type":"VEC2"
		},
		{
			"bufferView":31,
			"componentType":5126,
			"count":1896,
			"max":[
				0.05747199058532715,
				0.058709338307380676,
				0.05469536781311035
			],
			"min":[
				-0.10081350803375244,
				-0.058709368109703064,
				-0.08812892436981201
			],
			"type":"VEC3"
		},
		{
			"bufferView":32,
			"componentType":5126,
			"count":1896,
			"type":"VEC3"
		},
		{
			"bufferView":33,
			"componentType":5126,
			"count":1896,
			"type":"VEC2"
		},
		{
			"bufferView":34,
			"componentType":5126,
			"count":1896,
			"type":"VEC2"
		},
		{
			"bufferView":35,
			"componentType":5126,
			"count":1896,
			"type":"VEC2"
		},
		{
			"bufferView":36,
			"componentType":5126,
			"count":24,
			"max":[
				1,
				2,
				0
			],
			"min":[
				-1,
				0,
				-2
			],
			"type":"VEC3"
		},
		{
			"bufferView":37,
			"componentType":5126,
			"count":24,
			"type":"VEC3"
		},
		{
			"bufferView":38,
			"componentType":5126,
			"count":24,
			"type":"VEC2"
		},
		{
			"bufferView":39,
			"componentType":5126,
			"count":24,
			"max":[
				1,
				2,
				0
			],
			"min":[
				-1,
				0,
				-2
			],
			"type":"VEC3"
		},
		{
			"bufferView":40,
			"componentType":5126,
			"count":24,
			"type":"VEC3"
		},
		{
			"bufferView":41,
			"componentType":5126,
			"count":24,
			"type":"VEC2"
		},
		{
			"bufferView":42,
			"componentType":5126,
			"count":24,
			"max":[
				1,
				2,
				0
			],
			"min":[
				-1,
				0,
				-2
			],
			"type":"VEC3"
		},
		{
			"bufferView":43,
			"componentType":5126,
			"count":24,
			"type":"VEC3"
		},
		{
			"bufferView":44,
			"componentType":5126,
			"count":24,
			"type":"VEC2"
		},
		{
			"bufferView":45,
			"componentType":5126,
			"count":24,
			"max":[
				1,
				2,
				0
			],
			"min":[
				-1,
				0,
				-2
			],
			"type":"VEC3"
		},
		{
			"bufferView":46,
			"componentType":5126,
			"count":24,
			"type":"VEC3"
		},
		{
			"bufferView":47,
			"componentType":5126,
			"count":24,
			"type":"VEC2"
		},
		{
			"bufferView":48,
			"componentType":5126,
			"count":1896,
			"max":[
				0.05747199058532715,
				0.058709338307380676,
				0.05469536781311035
			],
			"min":[
				-0.10081350803375244,
				-0.058709368109703064,
				-0.08812892436981201
			],
			"type":"VEC3"
		},
		{
			"bufferView":49,
			"componentType":5126,
			"count":1896,
			"type":"VEC3"
		},
		{
			"bufferView":50,
			"componentType":5126,
			"count":1896,
			"type":"VEC2"
		},
		{
			"bufferView":51,
			"componentType":5126,
			"count":1896,
			"type":"VEC2"
		},
		{
			"bufferView":52,
			"componentType":5126,
			"count":1896,
			"type":"VEC2"
		},
		{
			"bufferView":53,
			"componentType":5126,
			"count":24,
			"max":[
				1,
				2,
				0
			],
			"min":[
				-1,
				0,
				-2
			],
			"type":"VEC3"
		},
		{
			"bufferView":54,
			"componentType":5126,
			"count":24,
			"type":"VEC3"
		},
		{
			"bufferView":55,
			"componentType":5126,
			"count":24,
			"type":"VEC2"
		},
		{
			"bufferView":56,
			"componentType":5126,
			"count":24,
			"max":[
				1,
				2,
				0
			],
			"min":[
				-1,
				0,
				-2
			],
			"type":"VEC3"
		},
		{
			"bufferView":57,
			"componentType":5126,
			"count":24,
			"type":"VEC3"
		},
		{
			"bufferView":58,
			"componentType":5126,
			"count":24,
			"type":"VEC2"
		},
		{
			"bufferView":59,
			"componentType":5126,
			"count":24,
			"max":[
				1,
				2,
				0
			],
			"min":[
				-1,
				0,
				-2
			],
			"type":"VEC3"
		},
		{
			"bufferView":60,
			"componentType":5126,
			"count":24,
			"type":"VEC3"
		},
		{
			"bufferView":61,
			"componentType":5126,
			"count":24,
			"type":"VEC2"
		},
		{
			"bufferView":62,
			"componentType":5126,
			"count":24,
			"max":[
				1,
				2,
				0
			],
			"min":[
				-1,
				0,
				-2
			],
			"type":"VEC3"
		},
		{
			"bufferView":63,
			"componentType":5126,
			"count":24,
			"type":"VEC3"
		},
		{
			"bufferView":64,
			"componentType":5126,
			"count":24,
			"type":"VEC2"
		},
		{
			"bufferView":65,
			"componentType":5126,
			"count":1896,
			"max":[
				0.05747199058532715,
				0.058709338307380676,
				0.05469536781311035
			],
			"min":[
				-0.10081350803375244,
				-0.058709368109703064,
				-0.08812892436981201
			],
			"type":"VEC3"
		},
		{
			"bufferView":66,
			"componentType":5126,
			"count":1896,
			"type":"VEC3"
		},
		{
			"bufferView":67,
			"componentType":5126,
			"count":1896,
			"type":"VEC2"
		},
		{
			"bufferView":68,
			"componentType":5126,
			"count":1896,
			"type":"VEC2"
		},
		{
			"bufferView":69,
			"componentType":5126,
			"count":1896,
			"type":"VEC2"
		}
	],
	"bufferViews":[
		{
			"buffer":0,
			"byteLength":288,
			"byteOffset":0,
			"target":34962
		},
		{
			"buffer":0,
			"byteLength":288,
			"byteOffset":288,
			"target":34962
		},
		{
			"buffer":0,
			"byteLength":192,
			"byteOffset":576,
			"target":34962
		},
		{
			"buffer":0,
			"byteLength":72,
			"byteOffset":768,
			"target":34963
		},
		{
			"buffer":0,
			"byteLength":288,
			"byteOffset":840,
			"target":34962
		},
		{
			"buffer":0,
			"byteLength":288,
			"byteOffset":1128,
			"target":34962
		},
		{
			"buffer":0,
			"byteLength":192,
			"byteOffset":1416,
			"target":34962
		},
		{
			"buffer":0,
			"byteLength":288,
			"byteOffset":1608,
			"target":34962
		},
		{
			"buffer":0,
			"byteLength":288,
			"byteOffset":1896,
			"target":34962
		},
		{
			"buffer":0,
			"byteLength":192,
			"byteOffset":2184,
			"target":34962
		},
		{
			"buffer":0,
			"byteLength":288,
			"byteOffset":2376,
			"target":34962
		},
		{
			"buffer":0,
			"byteLength":288,
			"byteOffset":2664,
			"target":34962
		},
		{
			"buffer":0,
			"byteLength":192,
			"byteOffset":2952,
			"target":34962
		},
		{
			"buffer":0,
			"byteLength":22752,
			"byteOffset":3144,
			"target":34962
		},
		{
			"buffer":0,
			"byteLength":22752,
			"byteOffset":25896,
			"target":34962
		},
		{
			"buffer":0,
			"byteLength":15168,
			"byteOffset":48648,
			"target":34962
		},
		{
			"buffer":0,
			"byteLength":15168,
			"byteOffset":63816,
			"target":34962
		},
		{
			"buffer":0,
			"byteLength":15168,
			"byteOffset":78984,
			"target":34962
		},
		{
			"buffer":0,
			"byteLength":14112,
			"byteOffset":94152,
			"target":34963
		},
		{
			"buffer":0,
			"byteLength":288,
			"byteOffset":108264,
			"target":34962
		},
		{
			"buffer":0,
			"byteLength":288,
			"byteOffset":108552,
			"target":34962
		},
		{
			"buffer":0,
			"byteLength":192,
			"byteOffset":108840,
			"target":34962
		},
		{
			"buffer":0,
			"byteLength":288,
			"byteOffset":109032,
			"target":34962
		},
		{
			"buffer":0,
			"byteLength":288,
			"byteOffset":109320,
			"target":34962
		},
		{
			"buffer":0,
			"byteLength":192,
			"byteOffset":109608,
			"target":34962
		},
		{
			"buffer":0,
			"byteLength":288,
			"byteOffset":109800,
			"target":34962
		},
		{
			"buffer":0,
			"byteLength":288,
			"byteOffset":110088,
			"target":34962
		},
		{
			"buffer":0,
			"byteLength":192,
			"byteOffset":110376,
			"target":34962
		},
		{
			"buffer":0,
			"byteLength":288,
			"byteOffset":110568,
			"target":34962
		},
		{
			"buffer":0,
			"byteLength":288,
			"byteOffset":110856,
			"target":34962
		},
		{
			"buffer":0,
			"byteLength":192,
			"byteOffset":111144,
			"target":34962
		},
		{
			"buffer":0,
			"byteLength":22752,
			"byteOffset":111336,
			"target":34962
		},
		{
			"buffer":0,
			"byteLength":22752,
			"byteOffset":134088,
			"target":34962
		},
		{
			"buffer":0,
			"byteLength":15168,
			"byteOffset":156840,
			"target":34962
		},
		{
			"buffer":0,
			"byteLength":15168,
			"byteOffset":172008,
			"target":34962
		},
		{
			"buffer":0,
			"byteLength":15168,
			"byteOffset":187176,
			"target":34962
		},
		{
			"buffer":0,
			"byteLength":288,
			"byteOffset":202344,
			"target":34962
		},
		{
			"buffer":0,
			"byteLength":288,
			"byteOffset":202632,
			"target":34962
		},
		{
			"buffer":0,
			"byteLength":192,
			"byteOffset":202920,
			"target":34962
		},
		{
			"buffer":0,
			"byteLength":288,
			"byteOffset":203112,
			"target":34962
		},
		{
			"buffer":0,
			"byteLength":288,
			"byteOffset":203400,
			"target":34962
		},
		{
			"buffer":0,
			"byteLength":192,
			"byteOffset":203688,
			"target":34962
		},
		{
			"buffer":0,
			"byteLength":288,
			"byteOffset":203880,
			"target":34962
		},
		{
			"buffer":0,
			"byteLength":288,
			"byteOffset":204168,
			"target":34962
		},
		{
			"buffer":0,
			"byteLength":192,
			"byteOffset":204456,
			"target":34962
		},
		{
			"buffer":0,
			"byteLength":288,
			"byteOffset":204648,
			"target":34962
		},
		{
			"buffer":0,
			"byteLength":288,
			"byteOffset":204936,
			"target":34962
		},
		{
			"buffer":0,
			"byteLength":192,
			"byteOffset":205224,
			"target":34962
		},
		{
			"buffer":0,
			"byteLength":22752,
			"byteOffset":205416,
			"target":34962
		},
		{
			"buffer":0,
			"byteLength":22752,
			"byteOffset":228168,
			"target":34962
		},
		{
			"buffer":0,
			"byteLength":15168,
			"byteOffset":250920,
			"target":34962
		},
		{
			"buffer":0,
			"byteLength":15168,
			"byteOffset":266088,
			"target":34962
		},
		{
			"buffer":0,
			"byteLength":15168,
			"byteOffset":281256,
			"target":34962
		},
		{
			"buffer":0,
			"byteLength":288,
			"byteOffset":296424,
			"target":34962
		},
		{
			"buffer":0,
			"byteLength":288,
			"byteOffset":296712,
			"target":34962
		},
		{
			"buffer":0,
			"byteLength":192,
			"byteOffset":297000,
			"target":34962
		},
		{
			"buffer":0,
			"byteLength":288,
			"byteOffset":297192,
			"target":34962
		},
		{
			"buffer":0,
			"byteLength":288,
			"byteOffset":297480,
			"target":34962
		},
		{
			"buffer":0,
			"byteLength":192,
			"byteOffset":297768,
			"target":34962
		},
		{
			"buffer":0,
			"byteLength":288,
			"byteOffset":297960,
			"target":34962
		},
		{
			"buffer":0,
			"byteLength":288,
			"byteOffset":298248,
			"target":34962
		},
		{
			"buffer":0,
			"byteLength":192,
			"byteOffset":298536,
			"target":34962
		},
		{
			"buffer":0,
			"byteLength":288,
			"byteOffset":298728,
			"target":34962
		},
		{
			"buffer":0,
			"byteLength":288,
			"byteOffset":299016,
			"target":34962
		},
		{
			"buffer":0,
			"byteLength":192,
			"byteOffset":299304,
			"target":34962
		},
		{
			"buffer":0,
			"byteLength":22752,
			"byteOffset":299496,
			"target":34962
		},
		{
			"buffer":0,
			"byteLength":22752,
			"byteOffset":322248,
			"target":34962
		},
		{
			"buffer":0,
			"byteLength":15168,
			"byteOffset":345000,
			"target":34962
		},
		{
			"buffer":0,
			"byteLength":15168,
			"byteOffset":360168,
			"target":34962
		},
		{
			"buffer":0,
			"byteLength":15168,
			"byteOffset":375336,
			"target":34962
		}
	],
	"buffers":[
		{
			"byteLength":390504,
			"uri":"OG_T%C3%BCren.bin"
		}
	]
}
