{
	"asset":{
		"generator":"Khronos glTF Blender I/O v5.1.18",
		"version":"2.0"
	},
	"scene":0,
	"scenes":[
		{
			"name":"Scene",
			"nodes":[
				0,
				1,
				2,
				3,
				4
			]
		}
	],
	"nodes":[
		{
			"mesh":0,
			"name":"UG.002",
			"translation":[
				0.800000011920929,
				-3.0999999046325684,
				0
			]
		},
		{
			"mesh":1,
			"name":"Boden.006",
			"scale":[
				1,
				0.29999998211860657,
				1
			],
			"translation":[
				16.250099182128906,
				-3.0999999046325684,
				-5.364019870758057
			]
		},
		{
			"mesh":2,
			"name":"Treppe.003",
			"scale":[
				1,
				0.8839778900146484,
				0.9616899490356445
			],
			"translation":[
				24.570110321044922,
				0,
				-11.978229522705078
			]
		},
		{
			"mesh":3,
			"name":"Cube.017",
			"scale":[
				0.699999988079071,
				1,
				0.19999998807907104
			],
			"translation":[
				16.728565216064453,
				-2.4944748878479004,
				-16.946765899658203
			]
		},
		{
			"mesh":4,
			"name":"Cube.018",
			"scale":[
				0.699999988079071,
				1,
				0.19999998807907104
			],
			"translation":[
				19.69800567626953,
				-2.4944748878479004,
				-16.946765899658203
			]
		}
	],
	"materials":[
		{
			"doubleSided":true,
			"name":"Beton_Rough",
			"pbrMetallicRoughness":{
				"baseColorFactor":[
					0.3583049178123474,
					0.3314575254917145,
					0.36859366297721863,
					1
				],
				"metallicFactor":0
			}
		}
	],
	"meshes":[
		{
			"name":"Curve.250",
			"primitives":[
				{
					"attributes":{
						"POSITION":0,
						"NORMAL":1,
						"TEXCOORD_0":2
					},
					"indices":3,
					"material":0
				}
			]
		},
		{
			"name":"B\u00e9zierCurve.015",
			"primitives":[
				{
					"attributes":{
						"POSITION":4,
						"NORMAL":5,
						"TEXCOORD_0":6
					},
					"indices":7,
					"material":0
				}
			]
		},
		{
			"name":"Cube.402",
			"primitives":[
				{
					"attributes":{
						"POSITION":8,
						"NORMAL":9,
						"TEXCOORD_0":10
					},
					"indices":11,
					"material":0
				}
			]
		},
		{
			"name":"Cube.403",
			"primitives":[
				{
					"attributes":{
						"POSITION":12,
						"NORMAL":13,
						"TEXCOORD_0":14
					},
					"indices":15
				}
			]
		},
		{
			"name":"Cube.404",
			"primitives":[
				{
					"attributes":{
						"POSITION":16,
						"NORMAL":17,
						"TEXCOORD_0":18
					},
					"indices":15
				}
			]
		}
	],
	"accessors":[
		{
			"bufferView":0,
			"componentType":5126,
			"count":246,
			"max":[
				25.000810623168945,
				2.799999952316284,
				-4.998963832855225
			],
			"min":[
				15.085084915161133,
				0,
				-16.947114944458008
			],
			"type":"VEC3"
		},
		{
			"bufferView":1,
			"componentType":5126,
			"count":246,
			"type":"VEC3"
		},
		{
			"bufferView":2,
			"componentType":5126,
			"count":246,
			"type":"VEC2"
		},
		{
			"bufferView":3,
			"componentType":5123,
			"count":516,
			"type":"SCALAR"
		},
		{
			"bufferView":4,
			"componentType":5126,
			"count":26,
			"max":[
				9.18558120727539,
				1,
				4.76837158203125e-07
			],
			"min":[
				0,
				0,
				-11.267688751220703
			],
			"type":"VEC3"
		},
		{
			"bufferView":5,
			"componentType":5126,
			"count":26,
			"type":"VEC3"
		},
		{
			"bufferView":6,
			"componentType":5126,
			"count":26,
			"type":"VEC2"
		},
		{
			"bufferView":7,
			"componentType":5123,
			"count":60,
			"type":"SCALAR"
		},
		{
			"bufferView":8,
			"componentType":5126,
			"count":420,
			"max":[
				0.0009436705731786788,
				-0.019999993965029716,
				3.982572555541992
			],
			"min":[
				-1.191152572631836,
				-3.1875,
				-6.453361578451222e-08
			],
			"type":"VEC3"
		},
		{
			"bufferView":9,
			"componentType":5126,
			"count":420,
			"type":"VEC3"
		},
		{
			"bufferView":10,
			"componentType":5126,
			"count":420,
			"type":"VEC2"
		},
		{
			"bufferView":11,
			"componentType":5123,
			"count":636,
			"type":"SCALAR"
		},
		{
			"bufferView":12,
			"componentType":5126,
			"count":24,
			"max":[
				2,
				2,
				0
			],
			"min":[
				0,
				0,
				-2
			],
			"type":"VEC3"
		},
		{
			"bufferView":13,
			"componentType":5126,
			"count":24,
			"type":"VEC3"
		},
		{
			"bufferView":14,
			"componentType":5126,
			"count":24,
			"type":"VEC2"
		},
		{
			"bufferView":15,
			"componentType":5123,
			"count":36,
			"type":"SCALAR"
		},
		{
			"bufferView":16,
			"componentType":5126,
			"count":24,
			"max":[
				2,
				2,
				0
			],
			"min":[
				0,
				0,
				-2
			],
			"type":"VEC3"
		},
		{
			"bufferView":17,
			"componentType":5126,
			"count":24,
			"type":"VEC3"
		},
		{
			"bufferView":18,
			"componentType":5126,
			"count":24,
			"type":"VEC2"
		}
	],
	"bufferViews":[
		{
			"buffer":0,
			"byteLength":2952,
			"byteOffset":0,
			"target":34962
		},
		{
			"buffer":0,
			"byteLength":2952,
			"byteOffset":2952,
			"target":34962
		},
		{
			"buffer":0,
			"byteLength":1968,
			"byteOffset":5904,
			"target":34962
		},
		{
			"buffer":0,
			"byteLength":1032,
			"byteOffset":7872,
			"target":34963
		},
		{
			"buffer":0,
			"byteLength":312,
			"byteOffset":8904,
			"target":34962
		},
		{
			"buffer":0,
			"byteLength":312,
			"byteOffset":9216,
			"target":34962
		},
		{
			"buffer":0,
			"byteLength":208,
			"byteOffset":9528,
			"target":34962
		},
		{
			"buffer":0,
			"byteLength":120,
			"byteOffset":9736,
			"target":34963
		},
		{
			"buffer":0,
			"byteLength":5040,
			"byteOffset":9856,
			"target":34962
		},
		{
			"buffer":0,
			"byteLength":5040,
			"byteOffset":14896,
			"target":34962
		},
		{
			"buffer":0,
			"byteLength":3360,
			"byteOffset":19936,
			"target":34962
		},
		{
			"buffer":0,
			"byteLength":1272,
			"byteOffset":23296,
			"target":34963
		},
		{
			"buffer":0,
			"byteLength":288,
			"byteOffset":24568,
			"target":34962
		},
		{
			"buffer":0,
			"byteLength":288,
			"byteOffset":24856,
			"target":34962
		},
		{
			"buffer":0,
			"byteLength":192,
			"byteOffset":25144,
			"target":34962
		},
		{
			"buffer":0,
			"byteLength":72,
			"byteOffset":25336,
			"target":34963
		},
		{
			"buffer":0,
			"byteLength":288,
			"byteOffset":25408,
			"target":34962
		},
		{
			"buffer":0,
			"byteLength":288,
			"byteOffset":25696,
			"target":34962
		},
		{
			"buffer":0,
			"byteLength":192,
			"byteOffset":25984,
			"target":34962
		}
	],
	"buffers":[
		{
			"byteLength":26176,
			"uri":"UG.bin"
		}
	]
}
