{
	"asset":{
		"generator":"Khronos glTF Blender I/O v5.1.18",
		"version":"2.0"
	},
	"scene":0,
	"scenes":[
		{
			"name":"Scene",
			"nodes":[
				0,
				1,
				2,
				3,
				4,
				5,
				6,
				7,
				8,
				9,
				10,
				11,
				12,
				13,
				14,
				15,
				16,
				17,
				18,
				19,
				20,
				21,
				22,
				23,
				24,
				25,
				26,
				27,
				28,
				29,
				30,
				31,
				32,
				33,
				34
			]
		}
	],
	"nodes":[
		{
			"mesh":0,
			"name":"Blockzarge.012",
			"scale":[
				0.019999999552965164,
				1.0674999952316284,
				0.019999999552965164
			],
			"translation":[
				20.109254837036133,
				-2.799999952316284,
				-9.179686546325684
			]
		},
		{
			"mesh":1,
			"name":"Blockzarge.013",
			"rotation":[
				0,
				-1,
				0,
				7.549789415861596e-08
			],
			"scale":[
				0.019999999552965164,
				1.0674999952316284,
				0.019999999552965164
			],
			"translation":[
				20.109254837036133,
				-2.799999952316284,
				-8.48068618774414
			]
		},
		{
			"mesh":2,
			"name":"Blockzarge.014",
			"rotation":[
				0,
				-0.7071068286895752,
				-0.7071068286895752,
				5.338508302088485e-08
			],
			"scale":[
				0.019999999552965164,
				0.34950000047683716,
				0.019999999552965164
			],
			"translation":[
				20.109254837036133,
				-0.6649999618530273,
				-9.179686546325684
			]
		},
		{
			"mesh":3,
			"name":"T\u00fcrblatt.004",
			"rotation":[
				0,
				-1,
				0,
				7.549790126404332e-08
			],
			"scale":[
				0.029999999329447746,
				1.0499999523162842,
				0.34950000047683716
			],
			"translation":[
				20.109254837036133,
				-2.799999952316284,
				-9.179686546325684
			]
		},
		{
			"mesh":4,
			"name":"Door.004",
			"rotation":[
				0.5,
				0.5,
				-0.5,
				0.5
			],
			"scale":[
				-0.8666666150093079,
				-1.6450296640396118,
				-1
			],
			"translation":[
				20.114761352539062,
				-1.7291887998580933,
				-8.534830093383789
			]
		},
		{
			"mesh":5,
			"name":"Blockzarge.048",
			"rotation":[
				0,
				-0.7071066498756409,
				0,
				0.70710688829422
			],
			"scale":[
				0.019999999552965164,
				1.0674999952316284,
				0.019999999552965164
			],
			"translation":[
				21.73248291015625,
				-2.799999952316284,
				-8.098196983337402
			]
		},
		{
			"mesh":6,
			"name":"Blockzarge.049",
			"rotation":[
				0,
				0.7071067094802856,
				0,
				0.7071068286895752
			],
			"scale":[
				0.019999999552965164,
				1.0674999952316284,
				0.019999999552965164
			],
			"translation":[
				21.033483505249023,
				-2.799999952316284,
				-8.098196983337402
			]
		},
		{
			"mesh":7,
			"name":"Blockzarge.050",
			"rotation":[
				-0.5,
				0.5,
				0.5,
				0.5
			],
			"scale":[
				0.019999999552965164,
				0.34950000047683716,
				0.019999999552965164
			],
			"translation":[
				21.73248291015625,
				-0.6649999618530273,
				-8.098196983337402
			]
		},
		{
			"mesh":8,
			"name":"T\u00fcrblatt.016",
			"rotation":[
				0,
				0.7071067094802856,
				0,
				0.7071068286895752
			],
			"scale":[
				0.029999999329447746,
				1.0499999523162842,
				0.34950000047683716
			],
			"translation":[
				21.73248291015625,
				-2.799999952316284,
				-8.098196983337402
			]
		},
		{
			"mesh":9,
			"name":"Door.016",
			"rotation":[
				0.7071068286895752,
				0,
				0,
				0.7071068286895752
			],
			"scale":[
				-0.8666666150093079,
				-1.6450296640396118,
				-1
			],
			"translation":[
				21.087627410888672,
				-1.7291887998580933,
				-8.102834701538086
			]
		},
		{
			"mesh":10,
			"name":"Blockzarge.051",
			"rotation":[
				0,
				0.7071068286895752,
				0,
				0.7071067094802856
			],
			"scale":[
				0.019999999552965164,
				1.0674999952316284,
				0.019999999552965164
			],
			"translation":[
				22.24382972717285,
				-2.799999952316284,
				-8.10884952545166
			]
		},
		{
			"mesh":11,
			"name":"Blockzarge.052",
			"rotation":[
				0,
				-0.7071067094802856,
				0,
				0.7071068286895752
			],
			"scale":[
				0.019999999552965164,
				1.0674999952316284,
				0.019999999552965164
			],
			"translation":[
				22.942829132080078,
				-2.799999952316284,
				-8.10884952545166
			]
		},
		{
			"mesh":12,
			"name":"Blockzarge.053",
			"rotation":[
				-0.5,
				-0.5,
				-0.5,
				0.5
			],
			"scale":[
				0.019999999552965164,
				0.34950000047683716,
				0.019999999552965164
			],
			"translation":[
				22.24382972717285,
				-0.6649999618530273,
				-8.10884952545166
			]
		},
		{
			"mesh":13,
			"name":"T\u00fcrblatt.017",
			"rotation":[
				0,
				-0.7071067094802856,
				0,
				0.7071068286895752
			],
			"scale":[
				0.029999999329447746,
				1.0499999523162842,
				0.34950000047683716
			],
			"translation":[
				22.24382972717285,
				-2.799999952316284,
				-8.10884952545166
			]
		},
		{
			"mesh":14,
			"name":"Door.017",
			"rotation":[
				0,
				0.7071068286895752,
				-0.7071068286895752,
				3.231166090245097e-08
			],
			"scale":[
				-0.8666666150093079,
				-1.6450296640396118,
				-1
			],
			"translation":[
				22.88868522644043,
				-1.7291887998580933,
				-8.112666130065918
			]
		},
		{
			"mesh":15,
			"name":"Blockzarge.054",
			"rotation":[
				0,
				0.7071068286895752,
				0,
				0.7071067094802856
			],
			"scale":[
				0.019999999552965164,
				1.0674999952316284,
				0.019999999552965164
			],
			"translation":[
				22.314977645874023,
				-2.799999952316284,
				-12.114350318908691
			]
		},
		{
			"mesh":16,
			"name":"Blockzarge.055",
			"rotation":[
				0,
				-0.7071067094802856,
				0,
				0.7071068286895752
			],
			"scale":[
				0.019999999552965164,
				1.0674999952316284,
				0.019999999552965164
			],
			"translation":[
				23.01397705078125,
				-2.799999952316284,
				-12.114350318908691
			]
		},
		{
			"mesh":17,
			"name":"Blockzarge.056",
			"rotation":[
				-0.5,
				-0.5,
				-0.5,
				0.5
			],
			"scale":[
				0.019999999552965164,
				0.34950000047683716,
				0.019999999552965164
			],
			"translation":[
				22.314977645874023,
				-0.6649999618530273,
				-12.114350318908691
			]
		},
		{
			"mesh":18,
			"name":"T\u00fcrblatt.018",
			"rotation":[
				0,
				-0.7071067094802856,
				0,
				0.7071068286895752
			],
			"scale":[
				0.029999999329447746,
				1.0499999523162842,
				0.34950000047683716
			],
			"translation":[
				22.314977645874023,
				-2.799999952316284,
				-12.114350318908691
			]
		},
		{
			"mesh":19,
			"name":"Door.018",
			"rotation":[
				0,
				0.7071068286895752,
				-0.7071068286895752,
				3.231166090245097e-08
			],
			"scale":[
				-0.8666666150093079,
				-1.6450296640396118,
				-1
			],
			"translation":[
				22.9598331451416,
				-1.7291887998580933,
				-12.113094329833984
			]
		},
		{
			"mesh":20,
			"name":"Blockzarge.057",
			"rotation":[
				0,
				-1,
				0,
				7.549789415861596e-08
			],
			"scale":[
				0.019999999552965164,
				1.0674999952316284,
				0.022699998691678047
			],
			"translation":[
				21.98781394958496,
				-2.799999952316284,
				-9.803240776062012
			]
		},
		{
			"mesh":21,
			"name":"Blockzarge.058",
			"scale":[
				0.019999999552965164,
				1.0674999952316284,
				0.022699998691678047
			],
			"translation":[
				21.98781394958496,
				-2.799999952316284,
				-10.596606254577637
			]
		},
		{
			"mesh":22,
			"name":"Blockzarge.059",
			"rotation":[
				-0.7071068286895752,
				0,
				0,
				0.7071068286895752
			],
			"scale":[
				0.019999999552965164,
				0.3966825008392334,
				0.019999999552965164
			],
			"translation":[
				21.98781394958496,
				-0.6649999618530273,
				-9.803240776062012
			]
		},
		{
			"mesh":23,
			"name":"T\u00fcrblatt.019",
			"scale":[
				0.029999999329447746,
				1.0499999523162842,
				0.3966825008392334
			],
			"translation":[
				21.98781394958496,
				-2.799999952316284,
				-9.803240776062012
			]
		},
		{
			"mesh":24,
			"name":"Door.019",
			"rotation":[
				0.5,
				-0.5,
				0.5,
				0.5
			],
			"scale":[
				-0.9836665987968445,
				-1.6450296640396118,
				-1
			],
			"translation":[
				21.99752426147461,
				-1.7291887998580933,
				-10.535152435302734
			]
		},
		{
			"mesh":25,
			"name":"Blockzarge.060",
			"rotation":[
				0,
				-0.7071066498756409,
				0,
				0.70710688829422
			],
			"scale":[
				0.019999999552965164,
				1.0674999952316284,
				0.019999999552965164
			],
			"translation":[
				19.108707427978516,
				-2.799999952316284,
				-9.536656379699707
			]
		},
		{
			"mesh":26,
			"name":"Blockzarge.061",
			"rotation":[
				0,
				0.7071068286895752,
				0,
				0.7071067094802856
			],
			"scale":[
				0.019999999552965164,
				1.0674999952316284,
				0.019999999552965164
			],
			"translation":[
				18.40970802307129,
				-2.799999952316284,
				-9.536656379699707
			]
		},
		{
			"mesh":27,
			"name":"Blockzarge.062",
			"rotation":[
				-0.4999999403953552,
				0.5000000596046448,
				0.5,
				0.5
			],
			"scale":[
				0.019999999552965164,
				0.34950000047683716,
				0.019999999552965164
			],
			"translation":[
				19.108707427978516,
				-0.6649999618530273,
				-9.536656379699707
			]
		},
		{
			"mesh":28,
			"name":"T\u00fcrblatt.020",
			"rotation":[
				0,
				0.7071068286895752,
				0,
				0.7071067094802856
			],
			"scale":[
				0.029999999329447746,
				1.0499999523162842,
				0.34950000047683716
			],
			"translation":[
				19.108707427978516,
				-2.799999952316284,
				-9.536656379699707
			]
		},
		{
			"mesh":29,
			"name":"Door.020",
			"rotation":[
				0.7071068286895752,
				0,
				0,
				0.7071068286895752
			],
			"scale":[
				-0.8666666150093079,
				-1.6450296640396118,
				-1
			],
			"translation":[
				18.463851928710938,
				-1.7291887998580933,
				-9.531148910522461
			]
		},
		{
			"mesh":30,
			"name":"Blockzarge.063",
			"rotation":[
				0,
				0.7071068286895752,
				0,
				0.7071067094802856
			],
			"scale":[
				0.019999999552965164,
				1.0674999952316284,
				0.019999999552965164
			],
			"translation":[
				17.62730598449707,
				-2.799999952316284,
				-9.54085922241211
			]
		},
		{
			"mesh":31,
			"name":"Blockzarge.064",
			"rotation":[
				0,
				-0.7071067094802856,
				0,
				0.7071068286895752
			],
			"scale":[
				0.019999999552965164,
				1.0674999952316284,
				0.019999999552965164
			],
			"translation":[
				18.326305389404297,
				-2.799999952316284,
				-9.54085922241211
			]
		},
		{
			"mesh":32,
			"name":"Blockzarge.065",
			"rotation":[
				-0.5,
				-0.5,
				-0.5,
				0.5
			],
			"scale":[
				0.019999999552965164,
				0.34950000047683716,
				0.019999999552965164
			],
			"translation":[
				17.62730598449707,
				-0.6649999618530273,
				-9.54085922241211
			]
		},
		{
			"mesh":33,
			"name":"T\u00fcrblatt.021",
			"rotation":[
				0,
				-0.7071067094802856,
				0,
				0.7071068286895752
			],
			"scale":[
				0.029999999329447746,
				1.0499999523162842,
				0.34950000047683716
			],
			"translation":[
				17.62730598449707,
				-2.799999952316284,
				-9.54085922241211
			]
		},
		{
			"mesh":34,
			"name":"Door.021",
			"rotation":[
				0,
				0.7071068286895752,
				-0.7071068286895752,
				3.231166090245097e-08
			],
			"scale":[
				-0.8666666150093079,
				-1.6450296640396118,
				-1
			],
			"translation":[
				18.27216148376465,
				-1.7291887998580933,
				-9.536221504211426
			]
		}
	],
	"materials":[
		{
			"doubleSided":true,
			"name":"Black.Matt.004",
			"pbrMetallicRoughness":{
				"baseColorFactor":[
					0.010681908577680588,
					0.010681908577680588,
					0.010681908577680588,
					1
				],
				"metallicFactor":0.39263802766799927,
				"roughnessFactor":0.6840490698814392
			}
		}
	],
	"meshes":[
		{
			"name":"Cube.409",
			"primitives":[
				{
					"attributes":{
						"POSITION":0,
						"NORMAL":1,
						"TEXCOORD_0":2
					},
					"indices":3,
					"material":0
				}
			]
		},
		{
			"name":"Cube.410",
			"primitives":[
				{
					"attributes":{
						"POSITION":4,
						"NORMAL":5,
						"TEXCOORD_0":6
					},
					"indices":3,
					"material":0
				}
			]
		},
		{
			"name":"Cube.411",
			"primitives":[
				{
					"attributes":{
						"POSITION":7,
						"NORMAL":8,
						"TEXCOORD_0":9
					},
					"indices":3,
					"material":0
				}
			]
		},
		{
			"name":"Cube.412",
			"primitives":[
				{
					"attributes":{
						"POSITION":10,
						"NORMAL":11,
						"TEXCOORD_0":12
					},
					"indices":3
				}
			]
		},
		{
			"name":"Plane.001_Glossy_0.010",
			"primitives":[
				{
					"attributes":{
						"POSITION":13,
						"NORMAL":14,
						"TEXCOORD_0":15,
						"TEXCOORD_1":16,
						"TEXCOORD_2":17
					},
					"indices":18,
					"material":0
				}
			]
		},
		{
			"name":"Cube.413",
			"primitives":[
				{
					"attributes":{
						"POSITION":19,
						"NORMAL":20,
						"TEXCOORD_0":21
					},
					"indices":3,
					"material":0
				}
			]
		},
		{
			"name":"Cube.414",
			"primitives":[
				{
					"attributes":{
						"POSITION":22,
						"NORMAL":23,
						"TEXCOORD_0":24
					},
					"indices":3,
					"material":0
				}
			]
		},
		{
			"name":"Cube.415",
			"primitives":[
				{
					"attributes":{
						"POSITION":25,
						"NORMAL":26,
						"TEXCOORD_0":27
					},
					"indices":3,
					"material":0
				}
			]
		},
		{
			"name":"Cube.416",
			"primitives":[
				{
					"attributes":{
						"POSITION":28,
						"NORMAL":29,
						"TEXCOORD_0":30
					},
					"indices":3
				}
			]
		},
		{
			"name":"Plane.001_Glossy_0.011",
			"primitives":[
				{
					"attributes":{
						"POSITION":31,
						"NORMAL":32,
						"TEXCOORD_0":33,
						"TEXCOORD_1":34,
						"TEXCOORD_2":35
					},
					"indices":18,
					"material":0
				}
			]
		},
		{
			"name":"Cube.417",
			"primitives":[
				{
					"attributes":{
						"POSITION":36,
						"NORMAL":37,
						"TEXCOORD_0":38
					},
					"indices":3,
					"material":0
				}
			]
		},
		{
			"name":"Cube.418",
			"primitives":[
				{
					"attributes":{
						"POSITION":39,
						"NORMAL":40,
						"TEXCOORD_0":41
					},
					"indices":3,
					"material":0
				}
			]
		},
		{
			"name":"Cube.419",
			"primitives":[
				{
					"attributes":{
						"POSITION":42,
						"NORMAL":43,
						"TEXCOORD_0":44
					},
					"indices":3,
					"material":0
				}
			]
		},
		{
			"name":"Cube.420",
			"primitives":[
				{
					"attributes":{
						"POSITION":45,
						"NORMAL":46,
						"TEXCOORD_0":47
					},
					"indices":3
				}
			]
		},
		{
			"name":"Plane.001_Glossy_0.012",
			"primitives":[
				{
					"attributes":{
						"POSITION":48,
						"NORMAL":49,
						"TEXCOORD_0":50,
						"TEXCOORD_1":51,
						"TEXCOORD_2":52
					},
					"indices":18,
					"material":0
				}
			]
		},
		{
			"name":"Cube.421",
			"primitives":[
				{
					"attributes":{
						"POSITION":53,
						"NORMAL":54,
						"TEXCOORD_0":55
					},
					"indices":3,
					"material":0
				}
			]
		},
		{
			"name":"Cube.422",
			"primitives":[
				{
					"attributes":{
						"POSITION":56,
						"NORMAL":57,
						"TEXCOORD_0":58
					},
					"indices":3,
					"material":0
				}
			]
		},
		{
			"name":"Cube.423",
			"primitives":[
				{
					"attributes":{
						"POSITION":59,
						"NORMAL":60,
						"TEXCOORD_0":61
					},
					"indices":3,
					"material":0
				}
			]
		},
		{
			"name":"Cube.424",
			"primitives":[
				{
					"attributes":{
						"POSITION":62,
						"NORMAL":63,
						"TEXCOORD_0":64
					},
					"indices":3
				}
			]
		},
		{
			"name":"Plane.001_Glossy_0.013",
			"primitives":[
				{
					"attributes":{
						"POSITION":65,
						"NORMAL":66,
						"TEXCOORD_0":67,
						"TEXCOORD_1":68,
						"TEXCOORD_2":69
					},
					"indices":18,
					"material":0
				}
			]
		},
		{
			"name":"Cube.425",
			"primitives":[
				{
					"attributes":{
						"POSITION":70,
						"NORMAL":71,
						"TEXCOORD_0":72
					},
					"indices":3,
					"material":0
				}
			]
		},
		{
			"name":"Cube.426",
			"primitives":[
				{
					"attributes":{
						"POSITION":73,
						"NORMAL":74,
						"TEXCOORD_0":75
					},
					"indices":3,
					"material":0
				}
			]
		},
		{
			"name":"Cube.427",
			"primitives":[
				{
					"attributes":{
						"POSITION":76,
						"NORMAL":77,
						"TEXCOORD_0":78
					},
					"indices":3,
					"material":0
				}
			]
		},
		{
			"name":"Cube.428",
			"primitives":[
				{
					"attributes":{
						"POSITION":79,
						"NORMAL":80,
						"TEXCOORD_0":81
					},
					"indices":3
				}
			]
		},
		{
			"name":"Plane.001_Glossy_0.015",
			"primitives":[
				{
					"attributes":{
						"POSITION":82,
						"NORMAL":83,
						"TEXCOORD_0":84,
						"TEXCOORD_1":85,
						"TEXCOORD_2":86
					},
					"indices":18,
					"material":0
				}
			]
		},
		{
			"name":"Cube.429",
			"primitives":[
				{
					"attributes":{
						"POSITION":87,
						"NORMAL":88,
						"TEXCOORD_0":89
					},
					"indices":3,
					"material":0
				}
			]
		},
		{
			"name":"Cube.430",
			"primitives":[
				{
					"attributes":{
						"POSITION":90,
						"NORMAL":91,
						"TEXCOORD_0":92
					},
					"indices":3,
					"material":0
				}
			]
		},
		{
			"name":"Cube.431",
			"primitives":[
				{
					"attributes":{
						"POSITION":93,
						"NORMAL":94,
						"TEXCOORD_0":95
					},
					"indices":3,
					"material":0
				}
			]
		},
		{
			"name":"Cube.432",
			"primitives":[
				{
					"attributes":{
						"POSITION":96,
						"NORMAL":97,
						"TEXCOORD_0":98
					},
					"indices":3
				}
			]
		},
		{
			"name":"Plane.001_Glossy_0.016",
			"primitives":[
				{
					"attributes":{
						"POSITION":99,
						"NORMAL":100,
						"TEXCOORD_0":101,
						"TEXCOORD_1":102,
						"TEXCOORD_2":103
					},
					"indices":18,
					"material":0
				}
			]
		},
		{
			"name":"Cube.433",
			"primitives":[
				{
					"attributes":{
						"POSITION":104,
						"NORMAL":105,
						"TEXCOORD_0":106
					},
					"indices":3,
					"material":0
				}
			]
		},
		{
			"name":"Cube.434",
			"primitives":[
				{
					"attributes":{
						"POSITION":107,
						"NORMAL":108,
						"TEXCOORD_0":109
					},
					"indices":3,
					"material":0
				}
			]
		},
		{
			"name":"Cube.435",
			"primitives":[
				{
					"attributes":{
						"POSITION":110,
						"NORMAL":111,
						"TEXCOORD_0":112
					},
					"indices":3,
					"material":0
				}
			]
		},
		{
			"name":"Cube.436",
			"primitives":[
				{
					"attributes":{
						"POSITION":113,
						"NORMAL":114,
						"TEXCOORD_0":115
					},
					"indices":3
				}
			]
		},
		{
			"name":"Plane.001_Glossy_0.017",
			"primitives":[
				{
					"attributes":{
						"POSITION":116,
						"NORMAL":117,
						"TEXCOORD_0":118,
						"TEXCOORD_1":119,
						"TEXCOORD_2":120
					},
					"indices":18,
					"material":0
				}
			]
		}
	],
	"accessors":[
		{
			"bufferView":0,
			"componentType":5126,
			"count":24,
			"max":[
				1,
				2,
				0
			],
			"min":[
				-1,
				0,
				-2
			],
			"type":"VEC3"
		},
		{
			"bufferView":1,
			"componentType":5126,
			"count":24,
			"type":"VEC3"
		},
		{
			"bufferView":2,
			"componentType":5126,
			"count":24,
			"type":"VEC2"
		},
		{
			"bufferView":3,
			"componentType":5123,
			"count":36,
			"type":"SCALAR"
		},
		{
			"bufferView":4,
			"componentType":5126,
			"count":24,
			"max":[
				1,
				2,
				0
			],
			"min":[
				-1,
				0,
				-2
			],
			"type":"VEC3"
		},
		{
			"bufferView":5,
			"componentType":5126,
			"count":24,
			"type":"VEC3"
		},
		{
			"bufferView":6,
			"componentType":5126,
			"count":24,
			"type":"VEC2"
		},
		{
			"bufferView":7,
			"componentType":5126,
			"count":24,
			"max":[
				1,
				2,
				0
			],
			"min":[
				-1,
				0,
				-2
			],
			"type":"VEC3"
		},
		{
			"bufferView":8,
			"componentType":5126,
			"count":24,
			"type":"VEC3"
		},
		{
			"bufferView":9,
			"componentType":5126,
			"count":24,
			"type":"VEC2"
		},
		{
			"bufferView":10,
			"componentType":5126,
			"count":24,
			"max":[
				1,
				2,
				0
			],
			"min":[
				-1,
				0,
				-2
			],
			"type":"VEC3"
		},
		{
			"bufferView":11,
			"componentType":5126,
			"count":24,
			"type":"VEC3"
		},
		{
			"bufferView":12,
			"componentType":5126,
			"count":24,
			"type":"VEC2"
		},
		{
			"bufferView":13,
			"componentType":5126,
			"count":1896,
			"max":[
				0.05747199058532715,
				0.058709338307380676,
				0.05469536781311035
			],
			"min":[
				-0.10081350803375244,
				-0.058709368109703064,
				-0.08812892436981201
			],
			"type":"VEC3"
		},
		{
			"bufferView":14,
			"componentType":5126,
			"count":1896,
			"type":"VEC3"
		},
		{
			"bufferView":15,
			"componentType":5126,
			"count":1896,
			"type":"VEC2"
		},
		{
			"bufferView":16,
			"componentType":5126,
			"count":1896,
			"type":"VEC2"
		},
		{
			"bufferView":17,
			"componentType":5126,
			"count":1896,
			"type":"VEC2"
		},
		{
			"bufferView":18,
			"componentType":5123,
			"count":7056,
			"type":"SCALAR"
		},
		{
			"bufferView":19,
			"componentType":5126,
			"count":24,
			"max":[
				1,
				2,
				0
			],
			"min":[
				-1,
				0,
				-2
			],
			"type":"VEC3"
		},
		{
			"bufferView":20,
			"componentType":5126,
			"count":24,
			"type":"VEC3"
		},
		{
			"bufferView":21,
			"componentType":5126,
			"count":24,
			"type":"VEC2"
		},
		{
			"bufferView":22,
			"componentType":5126,
			"count":24,
			"max":[
				1,
				2,
				0
			],
			"min":[
				-1,
				0,
				-2
			],
			"type":"VEC3"
		},
		{
			"bufferView":23,
			"componentType":5126,
			"count":24,
			"type":"VEC3"
		},
		{
			"bufferView":24,
			"componentType":5126,
			"count":24,
			"type":"VEC2"
		},
		{
			"bufferView":25,
			"componentType":5126,
			"count":24,
			"max":[
				1,
				2,
				0
			],
			"min":[
				-1,
				0,
				-2
			],
			"type":"VEC3"
		},
		{
			"bufferView":26,
			"componentType":5126,
			"count":24,
			"type":"VEC3"
		},
		{
			"bufferView":27,
			"componentType":5126,
			"count":24,
			"type":"VEC2"
		},
		{
			"bufferView":28,
			"componentType":5126,
			"count":24,
			"max":[
				1,
				2,
				0
			],
			"min":[
				-1,
				0,
				-2
			],
			"type":"VEC3"
		},
		{
			"bufferView":29,
			"componentType":5126,
			"count":24,
			"type":"VEC3"
		},
		{
			"bufferView":30,
			"componentType":5126,
			"count":24,
			"type":"VEC2"
		},
		{
			"bufferView":31,
			"componentType":5126,
			"count":1896,
			"max":[
				0.05747199058532715,
				0.058709338307380676,
				0.05469536781311035
			],
			"min":[
				-0.10081350803375244,
				-0.058709368109703064,
				-0.08812892436981201
			],
			"type":"VEC3"
		},
		{
			"bufferView":32,
			"componentType":5126,
			"count":1896,
			"type":"VEC3"
		},
		{
			"bufferView":33,
			"componentType":5126,
			"count":1896,
			"type":"VEC2"
		},
		{
			"bufferView":34,
			"componentType":5126,
			"count":1896,
			"type":"VEC2"
		},
		{
			"bufferView":35,
			"componentType":5126,
			"count":1896,
			"type":"VEC2"
		},
		{
			"bufferView":36,
			"componentType":5126,
			"count":24,
			"max":[
				1,
				2,
				0
			],
			"min":[
				-1,
				0,
				-2
			],
			"type":"VEC3"
		},
		{
			"bufferView":37,
			"componentType":5126,
			"count":24,
			"type":"VEC3"
		},
		{
			"bufferView":38,
			"componentType":5126,
			"count":24,
			"type":"VEC2"
		},
		{
			"bufferView":39,
			"componentType":5126,
			"count":24,
			"max":[
				1,
				2,
				0
			],
			"min":[
				-1,
				0,
				-2
			],
			"type":"VEC3"
		},
		{
			"bufferView":40,
			"componentType":5126,
			"count":24,
			"type":"VEC3"
		},
		{
			"bufferView":41,
			"componentType":5126,
			"count":24,
			"type":"VEC2"
		},
		{
			"bufferView":42,
			"componentType":5126,
			"count":24,
			"max":[
				1,
				2,
				0
			],
			"min":[
				-1,
				0,
				-2
			],
			"type":"VEC3"
		},
		{
			"bufferView":43,
			"componentType":5126,
			"count":24,
			"type":"VEC3"
		},
		{
			"bufferView":44,
			"componentType":5126,
			"count":24,
			"type":"VEC2"
		},
		{
			"bufferView":45,
			"componentType":5126,
			"count":24,
			"max":[
				1,
				2,
				0
			],
			"min":[
				-1,
				0,
				-2
			],
			"type":"VEC3"
		},
		{
			"bufferView":46,
			"componentType":5126,
			"count":24,
			"type":"VEC3"
		},
		{
			"bufferView":47,
			"componentType":5126,
			"count":24,
			"type":"VEC2"
		},
		{
			"bufferView":48,
			"componentType":5126,
			"count":1896,
			"max":[
				0.05747199058532715,
				0.058709338307380676,
				0.05469536781311035
			],
			"min":[
				-0.10081350803375244,
				-0.058709368109703064,
				-0.08812892436981201
			],
			"type":"VEC3"
		},
		{
			"bufferView":49,
			"componentType":5126,
			"count":1896,
			"type":"VEC3"
		},
		{
			"bufferView":50,
			"componentType":5126,
			"count":1896,
			"type":"VEC2"
		},
		{
			"bufferView":51,
			"componentType":5126,
			"count":1896,
			"type":"VEC2"
		},
		{
			"bufferView":52,
			"componentType":5126,
			"count":1896,
			"type":"VEC2"
		},
		{
			"bufferView":53,
			"componentType":5126,
			"count":24,
			"max":[
				1,
				2,
				0
			],
			"min":[
				-1,
				0,
				-2
			],
			"type":"VEC3"
		},
		{
			"bufferView":54,
			"componentType":5126,
			"count":24,
			"type":"VEC3"
		},
		{
			"bufferView":55,
			"componentType":5126,
			"count":24,
			"type":"VEC2"
		},
		{
			"bufferView":56,
			"componentType":5126,
			"count":24,
			"max":[
				1,
				2,
				0
			],
			"min":[
				-1,
				0,
				-2
			],
			"type":"VEC3"
		},
		{
			"bufferView":57,
			"componentType":5126,
			"count":24,
			"type":"VEC3"
		},
		{
			"bufferView":58,
			"componentType":5126,
			"count":24,
			"type":"VEC2"
		},
		{
			"bufferView":59,
			"componentType":5126,
			"count":24,
			"max":[
				1,
				2,
				0
			],
			"min":[
				-1,
				0,
				-2
			],
			"type":"VEC3"
		},
		{
			"bufferView":60,
			"componentType":5126,
			"count":24,
			"type":"VEC3"
		},
		{
			"bufferView":61,
			"componentType":5126,
			"count":24,
			"type":"VEC2"
		},
		{
			"bufferView":62,
			"componentType":5126,
			"count":24,
			"max":[
				1,
				2,
				0
			],
			"min":[
				-1,
				0,
				-2
			],
			"type":"VEC3"
		},
		{
			"bufferView":63,
			"componentType":5126,
			"count":24,
			"type":"VEC3"
		},
		{
			"bufferView":64,
			"componentType":5126,
			"count":24,
			"type":"VEC2"
		},
		{
			"bufferView":65,
			"componentType":5126,
			"count":1896,
			"max":[
				0.05747199058532715,
				0.058709338307380676,
				0.05469536781311035
			],
			"min":[
				-0.10081350803375244,
				-0.058709368109703064,
				-0.08812892436981201
			],
			"type":"VEC3"
		},
		{
			"bufferView":66,
			"componentType":5126,
			"count":1896,
			"type":"VEC3"
		},
		{
			"bufferView":67,
			"componentType":5126,
			"count":1896,
			"type":"VEC2"
		},
		{
			"bufferView":68,
			"componentType":5126,
			"count":1896,
			"type":"VEC2"
		},
		{
			"bufferView":69,
			"componentType":5126,
			"count":1896,
			"type":"VEC2"
		},
		{
			"bufferView":70,
			"componentType":5126,
			"count":24,
			"max":[
				1,
				2,
				0
			],
			"min":[
				-1,
				0,
				-2
			],
			"type":"VEC3"
		},
		{
			"bufferView":71,
			"componentType":5126,
			"count":24,
			"type":"VEC3"
		},
		{
			"bufferView":72,
			"componentType":5126,
			"count":24,
			"type":"VEC2"
		},
		{
			"bufferView":73,
			"componentType":5126,
			"count":24,
			"max":[
				1,
				2,
				0
			],
			"min":[
				-1,
				0,
				-2
			],
			"type":"VEC3"
		},
		{
			"bufferView":74,
			"componentType":5126,
			"count":24,
			"type":"VEC3"
		},
		{
			"bufferView":75,
			"componentType":5126,
			"count":24,
			"type":"VEC2"
		},
		{
			"bufferView":76,
			"componentType":5126,
			"count":24,
			"max":[
				1,
				2,
				0
			],
			"min":[
				-1,
				0,
				-2
			],
			"type":"VEC3"
		},
		{
			"bufferView":77,
			"componentType":5126,
			"count":24,
			"type":"VEC3"
		},
		{
			"bufferView":78,
			"componentType":5126,
			"count":24,
			"type":"VEC2"
		},
		{
			"bufferView":79,
			"componentType":5126,
			"count":24,
			"max":[
				1,
				2,
				0
			],
			"min":[
				-1,
				0,
				-2
			],
			"type":"VEC3"
		},
		{
			"bufferView":80,
			"componentType":5126,
			"count":24,
			"type":"VEC3"
		},
		{
			"bufferView":81,
			"componentType":5126,
			"count":24,
			"type":"VEC2"
		},
		{
			"bufferView":82,
			"componentType":5126,
			"count":1896,
			"max":[
				0.05747199058532715,
				0.058709338307380676,
				0.05469536781311035
			],
			"min":[
				-0.10081350803375244,
				-0.058709368109703064,
				-0.08812892436981201
			],
			"type":"VEC3"
		},
		{
			"bufferView":83,
			"componentType":5126,
			"count":1896,
			"type":"VEC3"
		},
		{
			"bufferView":84,
			"componentType":5126,
			"count":1896,
			"type":"VEC2"
		},
		{
			"bufferView":85,
			"componentType":5126,
			"count":1896,
			"type":"VEC2"
		},
		{
			"bufferView":86,
			"componentType":5126,
			"count":1896,
			"type":"VEC2"
		},
		{
			"bufferView":87,
			"componentType":5126,
			"count":24,
			"max":[
				1,
				2,
				0
			],
			"min":[
				-1,
				0,
				-2
			],
			"type":"VEC3"
		},
		{
			"bufferView":88,
			"componentType":5126,
			"count":24,
			"type":"VEC3"
		},
		{
			"bufferView":89,
			"componentType":5126,
			"count":24,
			"type":"VEC2"
		},
		{
			"bufferView":90,
			"componentType":5126,
			"count":24,
			"max":[
				1,
				2,
				0
			],
			"min":[
				-1,
				0,
				-2
			],
			"type":"VEC3"
		},
		{
			"bufferView":91,
			"componentType":5126,
			"count":24,
			"type":"VEC3"
		},
		{
			"bufferView":92,
			"componentType":5126,
			"count":24,
			"type":"VEC2"
		},
		{
			"bufferView":93,
			"componentType":5126,
			"count":24,
			"max":[
				1,
				2,
				0
			],
			"min":[
				-1,
				0,
				-2
			],
			"type":"VEC3"
		},
		{
			"bufferView":94,
			"componentType":5126,
			"count":24,
			"type":"VEC3"
		},
		{
			"bufferView":95,
			"componentType":5126,
			"count":24,
			"type":"VEC2"
		},
		{
			"bufferView":96,
			"componentType":5126,
			"count":24,
			"max":[
				1,
				2,
				0
			],
			"min":[
				-1,
				0,
				-2
			],
			"type":"VEC3"
		},
		{
			"bufferView":97,
			"componentType":5126,
			"count":24,
			"type":"VEC3"
		},
		{
			"bufferView":98,
			"componentType":5126,
			"count":24,
			"type":"VEC2"
		},
		{
			"bufferView":99,
			"componentType":5126,
			"count":1896,
			"max":[
				0.05747199058532715,
				0.058709338307380676,
				0.05469536781311035
			],
			"min":[
				-0.10081350803375244,
				-0.058709368109703064,
				-0.08812892436981201
			],
			"type":"VEC3"
		},
		{
			"bufferView":100,
			"componentType":5126,
			"count":1896,
			"type":"VEC3"
		},
		{
			"bufferView":101,
			"componentType":5126,
			"count":1896,
			"type":"VEC2"
		},
		{
			"bufferView":102,
			"componentType":5126,
			"count":1896,
			"type":"VEC2"
		},
		{
			"bufferView":103,
			"componentType":5126,
			"count":1896,
			"type":"VEC2"
		},
		{
			"bufferView":104,
			"componentType":5126,
			"count":24,
			"max":[
				1,
				2,
				0
			],
			"min":[
				-1,
				0,
				-2
			],
			"type":"VEC3"
		},
		{
			"bufferView":105,
			"componentType":5126,
			"count":24,
			"type":"VEC3"
		},
		{
			"bufferView":106,
			"componentType":5126,
			"count":24,
			"type":"VEC2"
		},
		{
			"bufferView":107,
			"componentType":5126,
			"count":24,
			"max":[
				1,
				2,
				0
			],
			"min":[
				-1,
				0,
				-2
			],
			"type":"VEC3"
		},
		{
			"bufferView":108,
			"componentType":5126,
			"count":24,
			"type":"VEC3"
		},
		{
			"bufferView":109,
			"componentType":5126,
			"count":24,
			"type":"VEC2"
		},
		{
			"bufferView":110,
			"componentType":5126,
			"count":24,
			"max":[
				1,
				2,
				0
			],
			"min":[
				-1,
				0,
				-2
			],
			"type":"VEC3"
		},
		{
			"bufferView":111,
			"componentType":5126,
			"count":24,
			"type":"VEC3"
		},
		{
			"bufferView":112,
			"componentType":5126,
			"count":24,
			"type":"VEC2"
		},
		{
			"bufferView":113,
			"componentType":5126,
			"count":24,
			"max":[
				1,
				2,
				0
			],
			"min":[
				-1,
				0,
				-2
			],
			"type":"VEC3"
		},
		{
			"bufferView":114,
			"componentType":5126,
			"count":24,
			"type":"VEC3"
		},
		{
			"bufferView":115,
			"componentType":5126,
			"count":24,
			"type":"VEC2"
		},
		{
			"bufferView":116,
			"componentType":5126,
			"count":1896,
			"max":[
				0.05747199058532715,
				0.058709338307380676,
				0.05469536781311035
			],
			"min":[
				-0.10081350803375244,
				-0.058709368109703064,
				-0.08812892436981201
			],
			"type":"VEC3"
		},
		{
			"bufferView":117,
			"componentType":5126,
			"count":1896,
			"type":"VEC3"
		},
		{
			"bufferView":118,
			"componentType":5126,
			"count":1896,
			"type":"VEC2"
		},
		{
			"bufferView":119,
			"componentType":5126,
			"count":1896,
			"type":"VEC2"
		},
		{
			"bufferView":120,
			"componentType":5126,
			"count":1896,
			"type":"VEC2"
		}
	],
	"bufferViews":[
		{
			"buffer":0,
			"byteLength":288,
			"byteOffset":0,
			"target":34962
		},
		{
			"buffer":0,
			"byteLength":288,
			"byteOffset":288,
			"target":34962
		},
		{
			"buffer":0,
			"byteLength":192,
			"byteOffset":576,
			"target":34962
		},
		{
			"buffer":0,
			"byteLength":72,
			"byteOffset":768,
			"target":34963
		},
		{
			"buffer":0,
			"byteLength":288,
			"byteOffset":840,
			"target":34962
		},
		{
			"buffer":0,
			"byteLength":288,
			"byteOffset":1128,
			"target":34962
		},
		{
			"buffer":0,
			"byteLength":192,
			"byteOffset":1416,
			"target":34962
		},
		{
			"buffer":0,
			"byteLength":288,
			"byteOffset":1608,
			"target":34962
		},
		{
			"buffer":0,
			"byteLength":288,
			"byteOffset":1896,
			"target":34962
		},
		{
			"buffer":0,
			"byteLength":192,
			"byteOffset":2184,
			"target":34962
		},
		{
			"buffer":0,
			"byteLength":288,
			"byteOffset":2376,
			"target":34962
		},
		{
			"buffer":0,
			"byteLength":288,
			"byteOffset":2664,
			"target":34962
		},
		{
			"buffer":0,
			"byteLength":192,
			"byteOffset":2952,
			"target":34962
		},
		{
			"buffer":0,
			"byteLength":22752,
			"byteOffset":3144,
			"target":34962
		},
		{
			"buffer":0,
			"byteLength":22752,
			"byteOffset":25896,
			"target":34962
		},
		{
			"buffer":0,
			"byteLength":15168,
			"byteOffset":48648,
			"target":34962
		},
		{
			"buffer":0,
			"byteLength":15168,
			"byteOffset":63816,
			"target":34962
		},
		{
			"buffer":0,
			"byteLength":15168,
			"byteOffset":78984,
			"target":34962
		},
		{
			"buffer":0,
			"byteLength":14112,
			"byteOffset":94152,
			"target":34963
		},
		{
			"buffer":0,
			"byteLength":288,
			"byteOffset":108264,
			"target":34962
		},
		{
			"buffer":0,
			"byteLength":288,
			"byteOffset":108552,
			"target":34962
		},
		{
			"buffer":0,
			"byteLength":192,
			"byteOffset":108840,
			"target":34962
		},
		{
			"buffer":0,
			"byteLength":288,
			"byteOffset":109032,
			"target":34962
		},
		{
			"buffer":0,
			"byteLength":288,
			"byteOffset":109320,
			"target":34962
		},
		{
			"buffer":0,
			"byteLength":192,
			"byteOffset":109608,
			"target":34962
		},
		{
			"buffer":0,
			"byteLength":288,
			"byteOffset":109800,
			"target":34962
		},
		{
			"buffer":0,
			"byteLength":288,
			"byteOffset":110088,
			"target":34962
		},
		{
			"buffer":0,
			"byteLength":192,
			"byteOffset":110376,
			"target":34962
		},
		{
			"buffer":0,
			"byteLength":288,
			"byteOffset":110568,
			"target":34962
		},
		{
			"buffer":0,
			"byteLength":288,
			"byteOffset":110856,
			"target":34962
		},
		{
			"buffer":0,
			"byteLength":192,
			"byteOffset":111144,
			"target":34962
		},
		{
			"buffer":0,
			"byteLength":22752,
			"byteOffset":111336,
			"target":34962
		},
		{
			"buffer":0,
			"byteLength":22752,
			"byteOffset":134088,
			"target":34962
		},
		{
			"buffer":0,
			"byteLength":15168,
			"byteOffset":156840,
			"target":34962
		},
		{
			"buffer":0,
			"byteLength":15168,
			"byteOffset":172008,
			"target":34962
		},
		{
			"buffer":0,
			"byteLength":15168,
			"byteOffset":187176,
			"target":34962
		},
		{
			"buffer":0,
			"byteLength":288,
			"byteOffset":202344,
			"target":34962
		},
		{
			"buffer":0,
			"byteLength":288,
			"byteOffset":202632,
			"target":34962
		},
		{
			"buffer":0,
			"byteLength":192,
			"byteOffset":202920,
			"target":34962
		},
		{
			"buffer":0,
			"byteLength":288,
			"byteOffset":203112,
			"target":34962
		},
		{
			"buffer":0,
			"byteLength":288,
			"byteOffset":203400,
			"target":34962
		},
		{
			"buffer":0,
			"byteLength":192,
			"byteOffset":203688,
			"target":34962
		},
		{
			"buffer":0,
			"byteLength":288,
			"byteOffset":203880,
			"target":34962
		},
		{
			"buffer":0,
			"byteLength":288,
			"byteOffset":204168,
			"target":34962
		},
		{
			"buffer":0,
			"byteLength":192,
			"byteOffset":204456,
			"target":34962
		},
		{
			"buffer":0,
			"byteLength":288,
			"byteOffset":204648,
			"target":34962
		},
		{
			"buffer":0,
			"byteLength":288,
			"byteOffset":204936,
			"target":34962
		},
		{
			"buffer":0,
			"byteLength":192,
			"byteOffset":205224,
			"target":34962
		},
		{
			"buffer":0,
			"byteLength":22752,
			"byteOffset":205416,
			"target":34962
		},
		{
			"buffer":0,
			"byteLength":22752,
			"byteOffset":228168,
			"target":34962
		},
		{
			"buffer":0,
			"byteLength":15168,
			"byteOffset":250920,
			"target":34962
		},
		{
			"buffer":0,
			"byteLength":15168,
			"byteOffset":266088,
			"target":34962
		},
		{
			"buffer":0,
			"byteLength":15168,
			"byteOffset":281256,
			"target":34962
		},
		{
			"buffer":0,
			"byteLength":288,
			"byteOffset":296424,
			"target":34962
		},
		{
			"buffer":0,
			"byteLength":288,
			"byteOffset":296712,
			"target":34962
		},
		{
			"buffer":0,
			"byteLength":192,
			"byteOffset":297000,
			"target":34962
		},
		{
			"buffer":0,
			"byteLength":288,
			"byteOffset":297192,
			"target":34962
		},
		{
			"buffer":0,
			"byteLength":288,
			"byteOffset":297480,
			"target":34962
		},
		{
			"buffer":0,
			"byteLength":192,
			"byteOffset":297768,
			"target":34962
		},
		{
			"buffer":0,
			"byteLength":288,
			"byteOffset":297960,
			"target":34962
		},
		{
			"buffer":0,
			"byteLength":288,
			"byteOffset":298248,
			"target":34962
		},
		{
			"buffer":0,
			"byteLength":192,
			"byteOffset":298536,
			"target":34962
		},
		{
			"buffer":0,
			"byteLength":288,
			"byteOffset":298728,
			"target":34962
		},
		{
			"buffer":0,
			"byteLength":288,
			"byteOffset":299016,
			"target":34962
		},
		{
			"buffer":0,
			"byteLength":192,
			"byteOffset":299304,
			"target":34962
		},
		{
			"buffer":0,
			"byteLength":22752,
			"byteOffset":299496,
			"target":34962
		},
		{
			"buffer":0,
			"byteLength":22752,
			"byteOffset":322248,
			"target":34962
		},
		{
			"buffer":0,
			"byteLength":15168,
			"byteOffset":345000,
			"target":34962
		},
		{
			"buffer":0,
			"byteLength":15168,
			"byteOffset":360168,
			"target":34962
		},
		{
			"buffer":0,
			"byteLength":15168,
			"byteOffset":375336,
			"target":34962
		},
		{
			"buffer":0,
			"byteLength":288,
			"byteOffset":390504,
			"target":34962
		},
		{
			"buffer":0,
			"byteLength":288,
			"byteOffset":390792,
			"target":34962
		},
		{
			"buffer":0,
			"byteLength":192,
			"byteOffset":391080,
			"target":34962
		},
		{
			"buffer":0,
			"byteLength":288,
			"byteOffset":391272,
			"target":34962
		},
		{
			"buffer":0,
			"byteLength":288,
			"byteOffset":391560,
			"target":34962
		},
		{
			"buffer":0,
			"byteLength":192,
			"byteOffset":391848,
			"target":34962
		},
		{
			"buffer":0,
			"byteLength":288,
			"byteOffset":392040,
			"target":34962
		},
		{
			"buffer":0,
			"byteLength":288,
			"byteOffset":392328,
			"target":34962
		},
		{
			"buffer":0,
			"byteLength":192,
			"byteOffset":392616,
			"target":34962
		},
		{
			"buffer":0,
			"byteLength":288,
			"byteOffset":392808,
			"target":34962
		},
		{
			"buffer":0,
			"byteLength":288,
			"byteOffset":393096,
			"target":34962
		},
		{
			"buffer":0,
			"byteLength":192,
			"byteOffset":393384,
			"target":34962
		},
		{
			"buffer":0,
			"byteLength":22752,
			"byteOffset":393576,
			"target":34962
		},
		{
			"buffer":0,
			"byteLength":22752,
			"byteOffset":416328,
			"target":34962
		},
		{
			"buffer":0,
			"byteLength":15168,
			"byteOffset":439080,
			"target":34962
		},
		{
			"buffer":0,
			"byteLength":15168,
			"byteOffset":454248,
			"target":34962
		},
		{
			"buffer":0,
			"byteLength":15168,
			"byteOffset":469416,
			"target":34962
		},
		{
			"buffer":0,
			"byteLength":288,
			"byteOffset":484584,
			"target":34962
		},
		{
			"buffer":0,
			"byteLength":288,
			"byteOffset":484872,
			"target":34962
		},
		{
			"buffer":0,
			"byteLength":192,
			"byteOffset":485160,
			"target":34962
		},
		{
			"buffer":0,
			"byteLength":288,
			"byteOffset":485352,
			"target":34962
		},
		{
			"buffer":0,
			"byteLength":288,
			"byteOffset":485640,
			"target":34962
		},
		{
			"buffer":0,
			"byteLength":192,
			"byteOffset":485928,
			"target":34962
		},
		{
			"buffer":0,
			"byteLength":288,
			"byteOffset":486120,
			"target":34962
		},
		{
			"buffer":0,
			"byteLength":288,
			"byteOffset":486408,
			"target":34962
		},
		{
			"buffer":0,
			"byteLength":192,
			"byteOffset":486696,
			"target":34962
		},
		{
			"buffer":0,
			"byteLength":288,
			"byteOffset":486888,
			"target":34962
		},
		{
			"buffer":0,
			"byteLength":288,
			"byteOffset":487176,
			"target":34962
		},
		{
			"buffer":0,
			"byteLength":192,
			"byteOffset":487464,
			"target":34962
		},
		{
			"buffer":0,
			"byteLength":22752,
			"byteOffset":487656,
			"target":34962
		},
		{
			"buffer":0,
			"byteLength":22752,
			"byteOffset":510408,
			"target":34962
		},
		{
			"buffer":0,
			"byteLength":15168,
			"byteOffset":533160,
			"target":34962
		},
		{
			"buffer":0,
			"byteLength":15168,
			"byteOffset":548328,
			"target":34962
		},
		{
			"buffer":0,
			"byteLength":15168,
			"byteOffset":563496,
			"target":34962
		},
		{
			"buffer":0,
			"byteLength":288,
			"byteOffset":578664,
			"target":34962
		},
		{
			"buffer":0,
			"byteLength":288,
			"byteOffset":578952,
			"target":34962
		},
		{
			"buffer":0,
			"byteLength":192,
			"byteOffset":579240,
			"target":34962
		},
		{
			"buffer":0,
			"byteLength":288,
			"byteOffset":579432,
			"target":34962
		},
		{
			"buffer":0,
			"byteLength":288,
			"byteOffset":579720,
			"target":34962
		},
		{
			"buffer":0,
			"byteLength":192,
			"byteOffset":580008,
			"target":34962
		},
		{
			"buffer":0,
			"byteLength":288,
			"byteOffset":580200,
			"target":34962
		},
		{
			"buffer":0,
			"byteLength":288,
			"byteOffset":580488,
			"target":34962
		},
		{
			"buffer":0,
			"byteLength":192,
			"byteOffset":580776,
			"target":34962
		},
		{
			"buffer":0,
			"byteLength":288,
			"byteOffset":580968,
			"target":34962
		},
		{
			"buffer":0,
			"byteLength":288,
			"byteOffset":581256,
			"target":34962
		},
		{
			"buffer":0,
			"byteLength":192,
			"byteOffset":581544,
			"target":34962
		},
		{
			"buffer":0,
			"byteLength":22752,
			"byteOffset":581736,
			"target":34962
		},
		{
			"buffer":0,
			"byteLength":22752,
			"byteOffset":604488,
			"target":34962
		},
		{
			"buffer":0,
			"byteLength":15168,
			"byteOffset":627240,
			"target":34962
		},
		{
			"buffer":0,
			"byteLength":15168,
			"byteOffset":642408,
			"target":34962
		},
		{
			"buffer":0,
			"byteLength":15168,
			"byteOffset":657576,
			"target":34962
		}
	],
	"buffers":[
		{
			"byteLength":672744,
			"uri":"UG_Doors.bin"
		}
	]
}
